  0
SECTION
  2
HEADER
  9
$ACADVER
  1
AC1014
  9
$HANDSEED
  5
FFFF
  9
$MEASUREMENT
 70
     1
  0
ENDSEC
  0
SECTION
  2
TABLES
  0
TABLE
  2
VPORT
  5
8
330
0
100
AcDbSymbolTable
 70
     4
  0
VPORT
  5
2E
330
8
100
AcDbSymbolTableRecord
100
AcDbViewportTableRecord
  2
*ACTIVE
 70
     0
 10
0.0
 20
0.0
 11
1.0
 21
1.0
 12
210.0
 22
148.5
 13
0.0
 23
0.0
 14
10.0
 24
10.0
 15
10.0
 25
10.0
 16
0.0
 26
0.0
 36
1.0
 17
0.0
 27
0.0
 37
0.0
 40
341.0
 41
1.24
 42
50.0
 43
0.0
 44
0.0
 50
0.0
 51
0.0
 71
     0
 72
   100
 73
     1
 74
     3
 75
     0
 76
     0
 77
     0
 78
     0
  0
ENDTAB
  0
TABLE
  2
LTYPE
  5
5
330
0
100
AcDbSymbolTable
 70
     1
  0
LTYPE
  5
14
330
5
100
AcDbSymbolTableRecord
100
AcDbLinetypeTableRecord
  2
BYBLOCK
 70
     0
  3

 72
    65
 73
     0
 40
0.0
  0
LTYPE
  5
15
330
5
100
AcDbSymbolTableRecord
100
AcDbLinetypeTableRecord
  2
BYLAYER
 70
     0
  3

 72
    65
 73
     0
 40
0.0
  0
LTYPE
  5
16
330
5
100
AcDbSymbolTableRecord
100
AcDbLinetypeTableRecord
  2
CONTINUOUS
 70
     0
  3
Solid line
 72
    65
 73
     0
 40
0.0
  0
ENDTAB
  0
TABLE
  2
LAYER
  5
2
100
AcDbSymbolTable
 70
2
  0
LAYER
  5
50
100
AcDbSymbolTableRecord
100
AcDbLayerTableRecord
  2
0
 70
0
  6
CONTINUOUS
  0
LAYER
  5
51
100
AcDbSymbolTableRecord
100
AcDbLayerTableRecord
  2
Layer_1
 70
0
  6
CONTINUOUS
  0
ENDTAB
  0
TABLE
  2
STYLE
  5
3
330
0
100
AcDbSymbolTable
 70
     1
  0
STYLE
  5
11
330
3
100
AcDbSymbolTableRecord
100
AcDbTextStyleTableRecord
  2
STANDARD
 70
     0
 40
0.0
 41
1.0
 50
0.0
 71
     0
 42
2.5
  3
txt
  4

  0
ENDTAB
  0
TABLE
  2
VIEW
  5
6
330
0
100
AcDbSymbolTable
 70
     0
  0
ENDTAB
  0
TABLE
  2
UCS
  5
7
330
0
100
AcDbSymbolTable
 70
     0
  0
ENDTAB
  0
TABLE
  2
APPID
  5
9
330
0
100
AcDbSymbolTable
 70
     2
  0
APPID
  5
12
330
9
100
AcDbSymbolTableRecord
100
AcDbRegAppTableRecord
  2
ACAD
 70
     0
  0
ENDTAB
  0
TABLE
  2
DIMSTYLE
  5
A
330
0
100
AcDbSymbolTable
 70
     1
  0
DIMSTYLE
105
27
330
A
100
AcDbSymbolTableRecord
100
AcDbDimStyleTableRecord
  2
ISO-25
 70
     0
  3

  4

  5

  6

  7

 40
1.0
 41
2.5
 42
0.625
 43
3.75
 44
1.25
 45
0.0
 46
0.0
 47
0.0
 48
0.0
140
2.5
141
2.5
142
0.0
143
0.03937007874016
144
1.0
145
0.0
146
1.0
147
0.625
 71
     0
 72
     0
 73
     0
 74
     0
 75
     0
 76
     0
 77
     1
 78
     8
170
     0
171
     3
172
     1
173
     0
174
     0
175
     0
176
     0
177
     0
178
     0
270
     2
271
     2
272
     2
273
     2
274
     3
340
11
275
     0
280
     0
281
     0
282
     0
283
     0
284
     8
285
     0
286
     0
287
     3
288
     0
  0
ENDTAB
  0
TABLE
  2
BLOCK_RECORD
  5
1
330
0
100
AcDbSymbolTable
 70
     1
  0
BLOCK_RECORD
  5
1F
330
1
100
AcDbSymbolTableRecord
100
AcDbBlockTableRecord
  2
*MODEL_SPACE
  0
BLOCK_RECORD
  5
1B
330
1
100
AcDbSymbolTableRecord
100
AcDbBlockTableRecord
  2
*PAPER_SPACE
  0
ENDTAB
  0
ENDSEC
  0
SECTION
  2
BLOCKS
  0
BLOCK
  5
20
330
1F
100
AcDbEntity
  8
0
100
AcDbBlockBegin
  2
*MODEL_SPACE
 70
     0
 10
0.0
 20
0.0
 30
0.0
  3
*MODEL_SPACE
  1

  0
ENDBLK
  5
21
330
1F
100
AcDbEntity
  8
0
100
AcDbBlockEnd
  0
BLOCK
  5
1C
330
1B
100
AcDbEntity
 67
     1
  8
0
100
AcDbBlockBegin
  2
*PAPER_SPACE
  1

  0
ENDBLK
  5
1D
330
1B
100
AcDbEntity
 67
     1
  8
0
100
AcDbBlockEnd
  0
ENDSEC
  0
SECTION
  2
ENTITIES
  0
LINE
  5
100
100
AcDbEntity
  8
Layer_1
 62
7
100
AcDbLine
 10
65.607537
 20
259.884278
 30
0.0
 11
65.607537
 21
256.884002
 31
0.0
  0
LINE
  5
101
100
AcDbEntity
  8
Layer_1
 62
7
100
AcDbLine
 10
65.607537
 20
256.884002
 30
0.0
 11
56.607292
 21
256.884002
 31
0.0
  0
LINE
  5
102
100
AcDbEntity
  8
Layer_1
 62
7
100
AcDbLine
 10
56.607292
 20
256.884002
 30
0.0
 11
56.607292
 21
236.884268
 31
0.0
  0
LINE
  5
103
100
AcDbEntity
  8
Layer_1
 62
7
100
AcDbLine
 10
56.607292
 20
236.884268
 30
0.0
 11
65.607537
 21
236.884268
 31
0.0
  0
LINE
  5
104
100
AcDbEntity
  8
Layer_1
 62
7
100
AcDbLine
 10
65.607537
 20
236.884268
 30
0.0
 11
65.607537
 21
233.883992
 31
0.0
  0
LINE
  5
105
100
AcDbEntity
  8
Layer_1
 62
7
100
AcDbLine
 10
65.607537
 20
233.883992
 30
0.0
 11
75.607683
 21
233.883992
 31
0.0
  0
LINE
  5
106
100
AcDbEntity
  8
Layer_1
 62
7
100
AcDbLine
 10
75.607683
 20
233.883992
 30
0.0
 11
75.607683
 21
236.884268
 31
0.0
  0
LINE
  5
107
100
AcDbEntity
  8
Layer_1
 62
7
100
AcDbLine
 10
75.607683
 20
236.884268
 30
0.0
 11
87.607640
 21
236.884268
 31
0.0
  0
LINE
  5
108
100
AcDbEntity
  8
Layer_1
 62
7
100
AcDbLine
 10
87.607640
 20
236.884268
 30
0.0
 11
87.607640
 21
233.883992
 31
0.0
  0
LINE
  5
109
100
AcDbEntity
  8
Layer_1
 62
7
100
AcDbLine
 10
87.607640
 20
233.883992
 30
0.0
 11
97.607236
 21
233.883992
 31
0.0
  0
LINE
  5
10a
100
AcDbEntity
  8
Layer_1
 62
7
100
AcDbLine
 10
97.607236
 20
233.883992
 30
0.0
 11
97.607236
 21
236.884268
 31
0.0
  0
LINE
  5
10b
100
AcDbEntity
  8
Layer_1
 62
7
100
AcDbLine
 10
97.607236
 20
236.884268
 30
0.0
 11
106.607480
 21
236.884268
 31
0.0
  0
LINE
  5
10c
100
AcDbEntity
  8
Layer_1
 62
7
100
AcDbLine
 10
106.607480
 20
236.884268
 30
0.0
 11
106.607480
 21
256.884002
 31
0.0
  0
LINE
  5
10d
100
AcDbEntity
  8
Layer_1
 62
7
100
AcDbLine
 10
106.607480
 20
256.884002
 30
0.0
 11
97.607236
 21
256.884002
 31
0.0
  0
LINE
  5
10e
100
AcDbEntity
  8
Layer_1
 62
7
100
AcDbLine
 10
97.607236
 20
256.884002
 30
0.0
 11
97.607236
 21
259.884278
 31
0.0
  0
LINE
  5
10f
100
AcDbEntity
  8
Layer_1
 62
7
100
AcDbLine
 10
97.607236
 20
259.884278
 30
0.0
 11
87.607640
 21
259.884278
 31
0.0
  0
LINE
  5
110
100
AcDbEntity
  8
Layer_1
 62
7
100
AcDbLine
 10
87.607640
 20
259.884278
 30
0.0
 11
87.607640
 21
256.884002
 31
0.0
  0
LINE
  5
111
100
AcDbEntity
  8
Layer_1
 62
7
100
AcDbLine
 10
87.607640
 20
256.884002
 30
0.0
 11
75.607683
 21
256.884002
 31
0.0
  0
LINE
  5
112
100
AcDbEntity
  8
Layer_1
 62
7
100
AcDbLine
 10
75.607683
 20
256.884002
 30
0.0
 11
75.607683
 21
259.884278
 31
0.0
  0
LINE
  5
113
100
AcDbEntity
  8
Layer_1
 62
7
100
AcDbLine
 10
75.607683
 20
259.884278
 30
0.0
 11
65.607537
 21
259.884278
 31
0.0
  0
LINE
  5
114
100
AcDbEntity
  8
Layer_1
 62
7
100
AcDbLine
 10
65.607537
 20
259.884278
 30
0.0
 11
65.607537
 21
259.884278
 31
0.0
  0
SPLINE
  5
115
100
AcDbEntity
  8
Layer_1
 62
1
100
AcDbSpline
 70
8
 71
3
 72
8
 73
4
 74
0
 40
0
 40
0
 40
0
 40
0
 40
1
 40
1
 40
1
 40
1
 10
76.607424
 20
246.884078
 30
0.0
 10
76.608564
 20
249.028431
 30
0.0
 10
75.465219
 20
251.010382
 30
0.0
 10
73.608345
 20
252.082887
 30
0.0
  0
SPLINE
  5
116
100
AcDbEntity
  8
Layer_1
 62
1
100
AcDbSpline
 70
8
 71
3
 72
8
 73
4
 74
0
 40
0
 40
0
 40
0
 40
0
 40
1
 40
1
 40
1
 40
1
 10
73.608345
 20
252.082887
 30
0.0
 10
71.751471
 20
253.155392
 30
0.0
 10
69.463379
 20
253.155392
 30
0.0
 10
67.606505
 20
252.082887
 30
0.0
  0
SPLINE
  5
117
100
AcDbEntity
  8
Layer_1
 62
1
100
AcDbSpline
 70
8
 71
3
 72
8
 73
4
 74
0
 40
0
 40
0
 40
0
 40
0
 40
1
 40
1
 40
1
 40
1
 10
67.606505
 20
252.082887
 30
0.0
 10
65.749631
 20
251.010382
 30
0.0
 10
64.606287
 20
249.028431
 30
0.0
 10
64.607426
 20
246.884078
 30
0.0
  0
SPLINE
  5
118
100
AcDbEntity
  8
Layer_1
 62
1
100
AcDbSpline
 70
8
 71
3
 72
8
 73
4
 74
0
 40
0
 40
0
 40
0
 40
0
 40
1
 40
1
 40
1
 40
1
 10
64.607426
 20
246.884078
 30
0.0
 10
64.606287
 20
244.739726
 30
0.0
 10
65.749631
 20
242.757775
 30
0.0
 10
67.606505
 20
241.685270
 30
0.0
  0
SPLINE
  5
119
100
AcDbEntity
  8
Layer_1
 62
1
100
AcDbSpline
 70
8
 71
3
 72
8
 73
4
 74
0
 40
0
 40
0
 40
0
 40
0
 40
1
 40
1
 40
1
 40
1
 10
67.606505
 20
241.685270
 30
0.0
 10
69.463379
 20
240.612765
 30
0.0
 10
71.751471
 20
240.612765
 30
0.0
 10
73.608345
 20
241.685270
 30
0.0
  0
SPLINE
  5
11a
100
AcDbEntity
  8
Layer_1
 62
1
100
AcDbSpline
 70
8
 71
3
 72
8
 73
4
 74
0
 40
0
 40
0
 40
0
 40
0
 40
1
 40
1
 40
1
 40
1
 10
73.608345
 20
241.685270
 30
0.0
 10
75.465219
 20
242.757775
 30
0.0
 10
76.608564
 20
244.739726
 30
0.0
 10
76.607424
 20
246.884078
 30
0.0
  0
LINE
  5
11b
100
AcDbEntity
  8
Layer_1
 62
1
100
AcDbLine
 10
76.607424
 20
246.884078
 30
0.0
 11
76.607424
 21
246.884078
 31
0.0
  0
SPLINE
  5
11c
100
AcDbEntity
  8
Layer_1
 62
1
100
AcDbSpline
 70
8
 71
3
 72
8
 73
4
 74
0
 40
0
 40
0
 40
0
 40
0
 40
1
 40
1
 40
1
 40
1
 10
98.607426
 20
246.884078
 30
0.0
 10
98.607426
 20
249.027672
 30
0.0
 10
97.463832
 20
251.008435
 30
0.0
 10
95.607425
 20
252.080231
 30
0.0
  0
SPLINE
  5
11d
100
AcDbEntity
  8
Layer_1
 62
1
100
AcDbSpline
 70
8
 71
3
 72
8
 73
4
 74
0
 40
0
 40
0
 40
0
 40
0
 40
1
 40
1
 40
1
 40
1
 10
95.607425
 20
252.080231
 30
0.0
 10
93.751019
 20
253.152028
 30
0.0
 10
91.463831
 20
253.152028
 30
0.0
 10
89.607425
 20
252.080231
 30
0.0
  0
SPLINE
  5
11e
100
AcDbEntity
  8
Layer_1
 62
1
100
AcDbSpline
 70
8
 71
3
 72
8
 73
4
 74
0
 40
0
 40
0
 40
0
 40
0
 40
1
 40
1
 40
1
 40
1
 10
89.607425
 20
252.080231
 30
0.0
 10
87.751018
 20
251.008435
 30
0.0
 10
86.607424
 20
249.027672
 30
0.0
 10
86.607424
 20
246.884078
 30
0.0
  0
SPLINE
  5
11f
100
AcDbEntity
  8
Layer_1
 62
1
100
AcDbSpline
 70
8
 71
3
 72
8
 73
4
 74
0
 40
0
 40
0
 40
0
 40
0
 40
1
 40
1
 40
1
 40
1
 10
86.607424
 20
246.884078
 30
0.0
 10
86.607424
 20
244.740485
 30
0.0
 10
87.751018
 20
242.759722
 30
0.0
 10
89.607425
 20
241.687925
 30
0.0
  0
SPLINE
  5
120
100
AcDbEntity
  8
Layer_1
 62
1
100
AcDbSpline
 70
8
 71
3
 72
8
 73
4
 74
0
 40
0
 40
0
 40
0
 40
0
 40
1
 40
1
 40
1
 40
1
 10
89.607425
 20
241.687925
 30
0.0
 10
91.463831
 20
240.616129
 30
0.0
 10
93.751019
 20
240.616129
 30
0.0
 10
95.607425
 20
241.687925
 30
0.0
  0
SPLINE
  5
121
100
AcDbEntity
  8
Layer_1
 62
1
100
AcDbSpline
 70
8
 71
3
 72
8
 73
4
 74
0
 40
0
 40
0
 40
0
 40
0
 40
1
 40
1
 40
1
 40
1
 10
95.607425
 20
241.687925
 30
0.0
 10
97.463832
 20
242.759722
 30
0.0
 10
98.607426
 20
244.740485
 30
0.0
 10
98.607426
 20
246.884078
 30
0.0
  0
LINE
  5
122
100
AcDbEntity
  8
Layer_1
 62
1
100
AcDbLine
 10
98.607426
 20
246.884078
 30
0.0
 11
98.607426
 21
246.884078
 31
0.0
  0
LINE
  5
123
100
AcDbEntity
  8
Layer_1
 62
7
100
AcDbLine
 10
65.607537
 20
286.912802
 30
0.0
 11
65.607537
 21
283.913087
 31
0.0
  0
LINE
  5
124
100
AcDbEntity
  8
Layer_1
 62
7
100
AcDbLine
 10
65.607537
 20
283.913087
 30
0.0
 11
56.607292
 21
283.913087
 31
0.0
  0
LINE
  5
125
100
AcDbEntity
  8
Layer_1
 62
7
100
AcDbLine
 10
56.607292
 20
283.913087
 30
0.0
 11
56.607292
 21
263.912803
 31
0.0
  0
LINE
  5
126
100
AcDbEntity
  8
Layer_1
 62
7
100
AcDbLine
 10
56.607292
 20
263.912803
 30
0.0
 11
65.607537
 21
263.912803
 31
0.0
  0
LINE
  5
127
100
AcDbEntity
  8
Layer_1
 62
7
100
AcDbLine
 10
65.607537
 20
263.912803
 30
0.0
 11
65.607537
 21
260.913091
 31
0.0
  0
LINE
  5
128
100
AcDbEntity
  8
Layer_1
 62
7
100
AcDbLine
 10
65.607537
 20
260.913091
 30
0.0
 11
75.607683
 21
260.913091
 31
0.0
  0
LINE
  5
129
100
AcDbEntity
  8
Layer_1
 62
7
100
AcDbLine
 10
75.607683
 20
260.913091
 30
0.0
 11
75.607683
 21
263.912803
 31
0.0
  0
LINE
  5
12a
100
AcDbEntity
  8
Layer_1
 62
7
100
AcDbLine
 10
75.607683
 20
263.912803
 30
0.0
 11
87.607640
 21
263.912803
 31
0.0
  0
LINE
  5
12b
100
AcDbEntity
  8
Layer_1
 62
7
100
AcDbLine
 10
87.607640
 20
263.912803
 30
0.0
 11
87.607640
 21
260.913091
 31
0.0
  0
LINE
  5
12c
100
AcDbEntity
  8
Layer_1
 62
7
100
AcDbLine
 10
87.607640
 20
260.913091
 30
0.0
 11
97.607236
 21
260.913091
 31
0.0
  0
LINE
  5
12d
100
AcDbEntity
  8
Layer_1
 62
7
100
AcDbLine
 10
97.607236
 20
260.913091
 30
0.0
 11
97.607236
 21
263.912803
 31
0.0
  0
LINE
  5
12e
100
AcDbEntity
  8
Layer_1
 62
7
100
AcDbLine
 10
97.607236
 20
263.912803
 30
0.0
 11
106.607480
 21
263.912803
 31
0.0
  0
LINE
  5
12f
100
AcDbEntity
  8
Layer_1
 62
7
100
AcDbLine
 10
106.607480
 20
263.912803
 30
0.0
 11
106.607480
 21
283.913087
 31
0.0
  0
LINE
  5
130
100
AcDbEntity
  8
Layer_1
 62
7
100
AcDbLine
 10
106.607480
 20
283.913087
 30
0.0
 11
97.607236
 21
283.913087
 31
0.0
  0
LINE
  5
131
100
AcDbEntity
  8
Layer_1
 62
7
100
AcDbLine
 10
97.607236
 20
283.913087
 30
0.0
 11
97.607236
 21
286.912802
 31
0.0
  0
LINE
  5
132
100
AcDbEntity
  8
Layer_1
 62
7
100
AcDbLine
 10
97.607236
 20
286.912802
 30
0.0
 11
87.607640
 21
286.912802
 31
0.0
  0
LINE
  5
133
100
AcDbEntity
  8
Layer_1
 62
7
100
AcDbLine
 10
87.607640
 20
286.912802
 30
0.0
 11
87.607640
 21
283.913087
 31
0.0
  0
LINE
  5
134
100
AcDbEntity
  8
Layer_1
 62
7
100
AcDbLine
 10
87.607640
 20
283.913087
 30
0.0
 11
75.607683
 21
283.913087
 31
0.0
  0
LINE
  5
135
100
AcDbEntity
  8
Layer_1
 62
7
100
AcDbLine
 10
75.607683
 20
283.913087
 30
0.0
 11
75.607683
 21
286.912802
 31
0.0
  0
LINE
  5
136
100
AcDbEntity
  8
Layer_1
 62
7
100
AcDbLine
 10
75.607683
 20
286.912802
 30
0.0
 11
65.607537
 21
286.912802
 31
0.0
  0
LINE
  5
137
100
AcDbEntity
  8
Layer_1
 62
7
100
AcDbLine
 10
65.607537
 20
286.912802
 30
0.0
 11
65.607537
 21
286.912802
 31
0.0
  0
SPLINE
  5
138
100
AcDbEntity
  8
Layer_1
 62
1
100
AcDbSpline
 70
8
 71
3
 72
8
 73
4
 74
0
 40
0
 40
0
 40
0
 40
0
 40
1
 40
1
 40
1
 40
1
 10
78.107424
 20
273.912868
 30
0.0
 10
78.108159
 20
276.592849
 30
0.0
 10
76.678828
 20
279.069569
 30
0.0
 10
74.358019
 20
280.409773
 30
0.0
  0
SPLINE
  5
139
100
AcDbEntity
  8
Layer_1
 62
1
100
AcDbSpline
 70
8
 71
3
 72
8
 73
4
 74
0
 40
0
 40
0
 40
0
 40
0
 40
1
 40
1
 40
1
 40
1
 10
74.358019
 20
280.409773
 30
0.0
 10
72.037209
 20
281.749976
 30
0.0
 10
69.177641
 20
281.749976
 30
0.0
 10
66.856831
 20
280.409773
 30
0.0
  0
SPLINE
  5
13a
100
AcDbEntity
  8
Layer_1
 62
1
100
AcDbSpline
 70
8
 71
3
 72
8
 73
4
 74
0
 40
0
 40
0
 40
0
 40
0
 40
1
 40
1
 40
1
 40
1
 10
66.856831
 20
280.409773
 30
0.0
 10
64.536021
 20
279.069569
 30
0.0
 10
63.106690
 20
276.592849
 30
0.0
 10
63.107425
 20
273.912868
 30
0.0
  0
SPLINE
  5
13b
100
AcDbEntity
  8
Layer_1
 62
1
100
AcDbSpline
 70
8
 71
3
 72
8
 73
4
 74
0
 40
0
 40
0
 40
0
 40
0
 40
1
 40
1
 40
1
 40
1
 10
63.107425
 20
273.912868
 30
0.0
 10
63.108561
 20
269.771536
 30
0.0
 10
66.466092
 20
266.414925
 30
0.0
 10
70.607425
 20
266.414925
 30
0.0
  0
SPLINE
  5
13c
100
AcDbEntity
  8
Layer_1
 62
1
100
AcDbSpline
 70
8
 71
3
 72
8
 73
4
 74
0
 40
0
 40
0
 40
0
 40
0
 40
1
 40
1
 40
1
 40
1
 10
70.607425
 20
266.414925
 30
0.0
 10
74.748757
 20
266.414925
 30
0.0
 10
78.106288
 20
269.771536
 30
0.0
 10
78.107424
 20
273.912868
 30
0.0
  0
LINE
  5
13d
100
AcDbEntity
  8
Layer_1
 62
1
100
AcDbLine
 10
78.107424
 20
273.912868
 30
0.0
 11
78.107424
 21
273.912868
 31
0.0
  0
SPLINE
  5
13e
100
AcDbEntity
  8
Layer_1
 62
1
100
AcDbSpline
 70
8
 71
3
 72
8
 73
4
 74
0
 40
0
 40
0
 40
0
 40
0
 40
1
 40
1
 40
1
 40
1
 10
100.107425
 20
273.912868
 30
0.0
 10
100.107426
 20
276.592360
 30
0.0
 10
98.677934
 20
279.068313
 30
0.0
 10
96.357425
 20
280.408059
 30
0.0
  0
SPLINE
  5
13f
100
AcDbEntity
  8
Layer_1
 62
1
100
AcDbSpline
 70
8
 71
3
 72
8
 73
4
 74
0
 40
0
 40
0
 40
0
 40
0
 40
1
 40
1
 40
1
 40
1
 10
96.357425
 20
280.408059
 30
0.0
 10
94.036917
 20
281.747805
 30
0.0
 10
91.177933
 20
281.747805
 30
0.0
 10
88.857425
 20
280.408059
 30
0.0
  0
SPLINE
  5
140
100
AcDbEntity
  8
Layer_1
 62
1
100
AcDbSpline
 70
8
 71
3
 72
8
 73
4
 74
0
 40
0
 40
0
 40
0
 40
0
 40
1
 40
1
 40
1
 40
1
 10
88.857425
 20
280.408059
 30
0.0
 10
86.536916
 20
279.068313
 30
0.0
 10
85.107424
 20
276.592360
 30
0.0
 10
85.107424
 20
273.912868
 30
0.0
  0
SPLINE
  5
141
100
AcDbEntity
  8
Layer_1
 62
1
100
AcDbSpline
 70
8
 71
3
 72
8
 73
4
 74
0
 40
0
 40
0
 40
0
 40
0
 40
1
 40
1
 40
1
 40
1
 10
85.107424
 20
273.912868
 30
0.0
 10
85.107424
 20
271.233375
 30
0.0
 10
86.536916
 20
268.757423
 30
0.0
 10
88.857425
 20
267.417677
 30
0.0
  0
SPLINE
  5
142
100
AcDbEntity
  8
Layer_1
 62
1
100
AcDbSpline
 70
8
 71
3
 72
8
 73
4
 74
0
 40
0
 40
0
 40
0
 40
0
 40
1
 40
1
 40
1
 40
1
 10
88.857425
 20
267.417677
 30
0.0
 10
91.177933
 20
266.077931
 30
0.0
 10
94.036917
 20
266.077931
 30
0.0
 10
96.357425
 20
267.417677
 30
0.0
  0
SPLINE
  5
143
100
AcDbEntity
  8
Layer_1
 62
1
100
AcDbSpline
 70
8
 71
3
 72
8
 73
4
 74
0
 40
0
 40
0
 40
0
 40
0
 40
1
 40
1
 40
1
 40
1
 10
96.357425
 20
267.417677
 30
0.0
 10
98.677933
 20
268.757423
 30
0.0
 10
100.107425
 20
271.233375
 30
0.0
 10
100.107425
 20
273.912868
 30
0.0
  0
LINE
  5
144
100
AcDbEntity
  8
Layer_1
 62
1
100
AcDbLine
 10
100.107425
 20
273.912868
 30
0.0
 11
100.107425
 21
273.912868
 31
0.0
  0
LINE
  5
145
100
AcDbEntity
  8
Layer_1
 62
7
100
AcDbLine
 10
55.690048
 20
235.612292
 30
0.0
 11
19.690046
 21
235.612292
 31
0.0
  0
LINE
  5
146
100
AcDbEntity
  8
Layer_1
 62
7
100
AcDbLine
 10
19.690046
 20
235.612292
 30
0.0
 11
19.690046
 21
285.612283
 31
0.0
  0
LINE
  5
147
100
AcDbEntity
  8
Layer_1
 62
7
100
AcDbLine
 10
19.690046
 20
285.612283
 30
0.0
 11
55.690048
 21
285.612283
 31
0.0
  0
LINE
  5
148
100
AcDbEntity
  8
Layer_1
 62
7
100
AcDbLine
 10
55.690048
 20
285.612283
 30
0.0
 11
55.690048
 21
235.612292
 31
0.0
  0
LINE
  5
149
100
AcDbEntity
  8
Layer_1
 62
7
100
AcDbLine
 10
55.690048
 20
235.612292
 30
0.0
 11
55.690048
 21
235.612292
 31
0.0
  0
LINE
  5
14a
100
AcDbEntity
  8
Layer_1
 62
1
100
AcDbLine
 10
28.690046
 20
276.612295
 30
0.0
 11
22.690046
 21
276.612295
 31
0.0
  0
LINE
  5
14b
100
AcDbEntity
  8
Layer_1
 62
1
100
AcDbLine
 10
22.690046
 20
276.612295
 30
0.0
 11
22.690046
 21
266.612287
 31
0.0
  0
LINE
  5
14c
100
AcDbEntity
  8
Layer_1
 62
1
100
AcDbLine
 10
22.690046
 20
266.612287
 30
0.0
 11
28.690046
 21
266.612287
 31
0.0
  0
LINE
  5
14d
100
AcDbEntity
  8
Layer_1
 62
1
100
AcDbLine
 10
28.690046
 20
266.612287
 30
0.0
 11
28.690046
 21
276.612295
 31
0.0
  0
LINE
  5
14e
100
AcDbEntity
  8
Layer_1
 62
1
100
AcDbLine
 10
28.690046
 20
276.612295
 30
0.0
 11
28.690046
 21
276.612295
 31
0.0
  0
LINE
  5
14f
100
AcDbEntity
  8
Layer_1
 62
1
100
AcDbLine
 10
28.690046
 20
254.612282
 30
0.0
 11
22.690046
 21
254.612282
 31
0.0
  0
LINE
  5
150
100
AcDbEntity
  8
Layer_1
 62
1
100
AcDbLine
 10
22.690046
 20
254.612282
 30
0.0
 11
22.690046
 21
244.612302
 31
0.0
  0
LINE
  5
151
100
AcDbEntity
  8
Layer_1
 62
1
100
AcDbLine
 10
22.690046
 20
244.612302
 30
0.0
 11
28.690046
 21
244.612302
 31
0.0
  0
LINE
  5
152
100
AcDbEntity
  8
Layer_1
 62
1
100
AcDbLine
 10
28.690046
 20
244.612302
 30
0.0
 11
28.690046
 21
254.612282
 31
0.0
  0
LINE
  5
153
100
AcDbEntity
  8
Layer_1
 62
1
100
AcDbLine
 10
28.690046
 20
254.612282
 30
0.0
 11
28.690046
 21
254.612282
 31
0.0
  0
LINE
  5
154
100
AcDbEntity
  8
Layer_1
 62
1
100
AcDbLine
 10
46.690046
 20
276.612295
 30
0.0
 11
52.690045
 21
276.612295
 31
0.0
  0
LINE
  5
155
100
AcDbEntity
  8
Layer_1
 62
1
100
AcDbLine
 10
52.690045
 20
276.612295
 30
0.0
 11
52.690045
 21
266.612287
 31
0.0
  0
LINE
  5
156
100
AcDbEntity
  8
Layer_1
 62
1
100
AcDbLine
 10
52.690045
 20
266.612287
 30
0.0
 11
46.690046
 21
266.612287
 31
0.0
  0
LINE
  5
157
100
AcDbEntity
  8
Layer_1
 62
1
100
AcDbLine
 10
46.690046
 20
266.612287
 30
0.0
 11
46.690046
 21
276.612295
 31
0.0
  0
LINE
  5
158
100
AcDbEntity
  8
Layer_1
 62
1
100
AcDbLine
 10
46.690046
 20
276.612295
 30
0.0
 11
46.690046
 21
276.612295
 31
0.0
  0
LINE
  5
159
100
AcDbEntity
  8
Layer_1
 62
1
100
AcDbLine
 10
46.690046
 20
244.612302
 30
0.0
 11
46.690046
 21
254.612282
 31
0.0
  0
LINE
  5
15a
100
AcDbEntity
  8
Layer_1
 62
1
100
AcDbLine
 10
46.690046
 20
254.612282
 30
0.0
 11
52.690045
 21
254.612282
 31
0.0
  0
LINE
  5
15b
100
AcDbEntity
  8
Layer_1
 62
1
100
AcDbLine
 10
52.690045
 20
254.612282
 30
0.0
 11
52.690045
 21
244.612302
 31
0.0
  0
LINE
  5
15c
100
AcDbEntity
  8
Layer_1
 62
1
100
AcDbLine
 10
52.690045
 20
244.612302
 30
0.0
 11
46.690046
 21
244.612302
 31
0.0
  0
LINE
  5
15d
100
AcDbEntity
  8
Layer_1
 62
1
100
AcDbLine
 10
46.690046
 20
244.612302
 30
0.0
 11
46.690046
 21
244.612302
 31
0.0
  0
SPLINE
  5
15e
100
AcDbEntity
  8
Layer_1
 62
1
100
AcDbSpline
 70
8
 71
3
 72
8
 73
4
 74
0
 40
0
 40
0
 40
0
 40
0
 40
1
 40
1
 40
1
 40
1
 10
34.440046
 20
280.612281
 30
0.0
 10
34.440046
 20
281.237496
 30
0.0
 10
34.106498
 20
281.815218
 30
0.0
 10
33.565046
 20
282.127826
 30
0.0
  0
SPLINE
  5
15f
100
AcDbEntity
  8
Layer_1
 62
1
100
AcDbSpline
 70
8
 71
3
 72
8
 73
4
 74
0
 40
0
 40
0
 40
0
 40
0
 40
1
 40
1
 40
1
 40
1
 10
33.565046
 20
282.127826
 30
0.0
 10
33.023594
 20
282.440433
 30
0.0
 10
32.356498
 20
282.440433
 30
0.0
 10
31.815046
 20
282.127826
 30
0.0
  0
SPLINE
  5
160
100
AcDbEntity
  8
Layer_1
 62
1
100
AcDbSpline
 70
8
 71
3
 72
8
 73
4
 74
0
 40
0
 40
0
 40
0
 40
0
 40
1
 40
1
 40
1
 40
1
 10
31.815046
 20
282.127826
 30
0.0
 10
31.273594
 20
281.815218
 30
0.0
 10
30.940046
 20
281.237496
 30
0.0
 10
30.940046
 20
280.612281
 30
0.0
  0
SPLINE
  5
161
100
AcDbEntity
  8
Layer_1
 62
1
100
AcDbSpline
 70
8
 71
3
 72
8
 73
4
 74
0
 40
0
 40
0
 40
0
 40
0
 40
1
 40
1
 40
1
 40
1
 10
30.940046
 20
280.612281
 30
0.0
 10
30.940046
 20
279.645783
 30
0.0
 10
31.723548
 20
278.862281
 30
0.0
 10
32.690046
 20
278.862281
 30
0.0
  0
SPLINE
  5
162
100
AcDbEntity
  8
Layer_1
 62
1
100
AcDbSpline
 70
8
 71
3
 72
8
 73
4
 74
0
 40
0
 40
0
 40
0
 40
0
 40
1
 40
1
 40
1
 40
1
 10
32.690046
 20
278.862281
 30
0.0
 10
33.656545
 20
278.862281
 30
0.0
 10
34.440046
 20
279.645783
 30
0.0
 10
34.440046
 20
280.612281
 30
0.0
  0
LINE
  5
163
100
AcDbEntity
  8
Layer_1
 62
1
100
AcDbLine
 10
34.440046
 20
280.612281
 30
0.0
 11
34.440046
 21
280.612281
 31
0.0
  0
SPLINE
  5
164
100
AcDbEntity
  8
Layer_1
 62
1
100
AcDbSpline
 70
8
 71
3
 72
8
 73
4
 74
0
 40
0
 40
0
 40
0
 40
0
 40
1
 40
1
 40
1
 40
1
 10
34.440046
 20
260.612270
 30
0.0
 10
34.440046
 20
261.237485
 30
0.0
 10
34.106498
 20
261.815208
 30
0.0
 10
33.565046
 20
262.127815
 30
0.0
  0
SPLINE
  5
165
100
AcDbEntity
  8
Layer_1
 62
1
100
AcDbSpline
 70
8
 71
3
 72
8
 73
4
 74
0
 40
0
 40
0
 40
0
 40
0
 40
1
 40
1
 40
1
 40
1
 10
33.565046
 20
262.127815
 30
0.0
 10
33.023594
 20
262.440422
 30
0.0
 10
32.356498
 20
262.440422
 30
0.0
 10
31.815046
 20
262.127815
 30
0.0
  0
SPLINE
  5
166
100
AcDbEntity
  8
Layer_1
 62
1
100
AcDbSpline
 70
8
 71
3
 72
8
 73
4
 74
0
 40
0
 40
0
 40
0
 40
0
 40
1
 40
1
 40
1
 40
1
 10
31.815046
 20
262.127815
 30
0.0
 10
31.273594
 20
261.815208
 30
0.0
 10
30.940046
 20
261.237485
 30
0.0
 10
30.940046
 20
260.612270
 30
0.0
  0
SPLINE
  5
167
100
AcDbEntity
  8
Layer_1
 62
1
100
AcDbSpline
 70
8
 71
3
 72
8
 73
4
 74
0
 40
0
 40
0
 40
0
 40
0
 40
1
 40
1
 40
1
 40
1
 10
30.940046
 20
260.612270
 30
0.0
 10
30.940046
 20
259.645772
 30
0.0
 10
31.723548
 20
258.862270
 30
0.0
 10
32.690046
 20
258.862270
 30
0.0
  0
SPLINE
  5
168
100
AcDbEntity
  8
Layer_1
 62
1
100
AcDbSpline
 70
8
 71
3
 72
8
 73
4
 74
0
 40
0
 40
0
 40
0
 40
0
 40
1
 40
1
 40
1
 40
1
 10
32.690046
 20
258.862270
 30
0.0
 10
33.656545
 20
258.862270
 30
0.0
 10
34.440046
 20
259.645772
 30
0.0
 10
34.440046
 20
260.612270
 30
0.0
  0
LINE
  5
169
100
AcDbEntity
  8
Layer_1
 62
1
100
AcDbLine
 10
34.440046
 20
260.612270
 30
0.0
 11
34.440046
 21
260.612270
 31
0.0
  0
SPLINE
  5
16a
100
AcDbEntity
  8
Layer_1
 62
1
100
AcDbSpline
 70
8
 71
3
 72
8
 73
4
 74
0
 40
0
 40
0
 40
0
 40
0
 40
1
 40
1
 40
1
 40
1
 10
34.440046
 20
240.612282
 30
0.0
 10
34.440046
 20
241.237497
 30
0.0
 10
34.106498
 20
241.815219
 30
0.0
 10
33.565046
 20
242.127827
 30
0.0
  0
SPLINE
  5
16b
100
AcDbEntity
  8
Layer_1
 62
1
100
AcDbSpline
 70
8
 71
3
 72
8
 73
4
 74
0
 40
0
 40
0
 40
0
 40
0
 40
1
 40
1
 40
1
 40
1
 10
33.565046
 20
242.127827
 30
0.0
 10
33.023594
 20
242.440434
 30
0.0
 10
32.356498
 20
242.440434
 30
0.0
 10
31.815046
 20
242.127827
 30
0.0
  0
SPLINE
  5
16c
100
AcDbEntity
  8
Layer_1
 62
1
100
AcDbSpline
 70
8
 71
3
 72
8
 73
4
 74
0
 40
0
 40
0
 40
0
 40
0
 40
1
 40
1
 40
1
 40
1
 10
31.815046
 20
242.127827
 30
0.0
 10
31.273594
 20
241.815219
 30
0.0
 10
30.940046
 20
241.237497
 30
0.0
 10
30.940046
 20
240.612282
 30
0.0
  0
SPLINE
  5
16d
100
AcDbEntity
  8
Layer_1
 62
1
100
AcDbSpline
 70
8
 71
3
 72
8
 73
4
 74
0
 40
0
 40
0
 40
0
 40
0
 40
1
 40
1
 40
1
 40
1
 10
30.940046
 20
240.612282
 30
0.0
 10
30.940046
 20
239.645784
 30
0.0
 10
31.723548
 20
238.862282
 30
0.0
 10
32.690046
 20
238.862282
 30
0.0
  0
SPLINE
  5
16e
100
AcDbEntity
  8
Layer_1
 62
1
100
AcDbSpline
 70
8
 71
3
 72
8
 73
4
 74
0
 40
0
 40
0
 40
0
 40
0
 40
1
 40
1
 40
1
 40
1
 10
32.690046
 20
238.862282
 30
0.0
 10
33.656545
 20
238.862282
 30
0.0
 10
34.440046
 20
239.645784
 30
0.0
 10
34.440046
 20
240.612282
 30
0.0
  0
LINE
  5
16f
100
AcDbEntity
  8
Layer_1
 62
1
100
AcDbLine
 10
34.440046
 20
240.612282
 30
0.0
 11
34.440046
 21
240.612282
 31
0.0
  0
SPLINE
  5
170
100
AcDbEntity
  8
Layer_1
 62
1
100
AcDbSpline
 70
8
 71
3
 72
8
 73
4
 74
0
 40
0
 40
0
 40
0
 40
0
 40
1
 40
1
 40
1
 40
1
 10
44.440046
 20
240.612282
 30
0.0
 10
44.440046
 20
241.237497
 30
0.0
 10
44.106498
 20
241.815219
 30
0.0
 10
43.565046
 20
242.127827
 30
0.0
  0
SPLINE
  5
171
100
AcDbEntity
  8
Layer_1
 62
1
100
AcDbSpline
 70
8
 71
3
 72
8
 73
4
 74
0
 40
0
 40
0
 40
0
 40
0
 40
1
 40
1
 40
1
 40
1
 10
43.565046
 20
242.127827
 30
0.0
 10
43.023594
 20
242.440434
 30
0.0
 10
42.356498
 20
242.440434
 30
0.0
 10
41.815046
 20
242.127827
 30
0.0
  0
SPLINE
  5
172
100
AcDbEntity
  8
Layer_1
 62
1
100
AcDbSpline
 70
8
 71
3
 72
8
 73
4
 74
0
 40
0
 40
0
 40
0
 40
0
 40
1
 40
1
 40
1
 40
1
 10
41.815046
 20
242.127827
 30
0.0
 10
41.273594
 20
241.815219
 30
0.0
 10
40.940046
 20
241.237497
 30
0.0
 10
40.940046
 20
240.612282
 30
0.0
  0
SPLINE
  5
173
100
AcDbEntity
  8
Layer_1
 62
1
100
AcDbSpline
 70
8
 71
3
 72
8
 73
4
 74
0
 40
0
 40
0
 40
0
 40
0
 40
1
 40
1
 40
1
 40
1
 10
40.940046
 20
240.612282
 30
0.0
 10
40.940046
 20
239.987067
 30
0.0
 10
41.273594
 20
239.409345
 30
0.0
 10
41.815046
 20
239.096738
 30
0.0
  0
SPLINE
  5
174
100
AcDbEntity
  8
Layer_1
 62
1
100
AcDbSpline
 70
8
 71
3
 72
8
 73
4
 74
0
 40
0
 40
0
 40
0
 40
0
 40
1
 40
1
 40
1
 40
1
 10
41.815046
 20
239.096738
 30
0.0
 10
42.356498
 20
238.784130
 30
0.0
 10
43.023594
 20
238.784130
 30
0.0
 10
43.565046
 20
239.096738
 30
0.0
  0
SPLINE
  5
175
100
AcDbEntity
  8
Layer_1
 62
1
100
AcDbSpline
 70
8
 71
3
 72
8
 73
4
 74
0
 40
0
 40
0
 40
0
 40
0
 40
1
 40
1
 40
1
 40
1
 10
43.565046
 20
239.096738
 30
0.0
 10
44.106498
 20
239.409345
 30
0.0
 10
44.440046
 20
239.987067
 30
0.0
 10
44.440046
 20
240.612282
 30
0.0
  0
LINE
  5
176
100
AcDbEntity
  8
Layer_1
 62
1
100
AcDbLine
 10
44.440046
 20
240.612282
 30
0.0
 11
44.440046
 21
240.612282
 31
0.0
  0
SPLINE
  5
177
100
AcDbEntity
  8
Layer_1
 62
1
100
AcDbSpline
 70
8
 71
3
 72
8
 73
4
 74
0
 40
0
 40
0
 40
0
 40
0
 40
1
 40
1
 40
1
 40
1
 10
44.440046
 20
260.612270
 30
0.0
 10
44.440046
 20
261.237485
 30
0.0
 10
44.106498
 20
261.815207
 30
0.0
 10
43.565046
 20
262.127815
 30
0.0
  0
SPLINE
  5
178
100
AcDbEntity
  8
Layer_1
 62
1
100
AcDbSpline
 70
8
 71
3
 72
8
 73
4
 74
0
 40
0
 40
0
 40
0
 40
0
 40
1
 40
1
 40
1
 40
1
 10
43.565046
 20
262.127815
 30
0.0
 10
43.023594
 20
262.440422
 30
0.0
 10
42.356498
 20
262.440422
 30
0.0
 10
41.815046
 20
262.127815
 30
0.0
  0
SPLINE
  5
179
100
AcDbEntity
  8
Layer_1
 62
1
100
AcDbSpline
 70
8
 71
3
 72
8
 73
4
 74
0
 40
0
 40
0
 40
0
 40
0
 40
1
 40
1
 40
1
 40
1
 10
41.815046
 20
262.127815
 30
0.0
 10
41.273594
 20
261.815207
 30
0.0
 10
40.940046
 20
261.237485
 30
0.0
 10
40.940046
 20
260.612270
 30
0.0
  0
SPLINE
  5
17a
100
AcDbEntity
  8
Layer_1
 62
1
100
AcDbSpline
 70
8
 71
3
 72
8
 73
4
 74
0
 40
0
 40
0
 40
0
 40
0
 40
1
 40
1
 40
1
 40
1
 10
40.940046
 20
260.612270
 30
0.0
 10
40.940046
 20
259.987056
 30
0.0
 10
41.273594
 20
259.409333
 30
0.0
 10
41.815046
 20
259.096726
 30
0.0
  0
SPLINE
  5
17b
100
AcDbEntity
  8
Layer_1
 62
1
100
AcDbSpline
 70
8
 71
3
 72
8
 73
4
 74
0
 40
0
 40
0
 40
0
 40
0
 40
1
 40
1
 40
1
 40
1
 10
41.815046
 20
259.096726
 30
0.0
 10
42.356498
 20
258.784119
 30
0.0
 10
43.023594
 20
258.784119
 30
0.0
 10
43.565046
 20
259.096726
 30
0.0
  0
SPLINE
  5
17c
100
AcDbEntity
  8
Layer_1
 62
1
100
AcDbSpline
 70
8
 71
3
 72
8
 73
4
 74
0
 40
0
 40
0
 40
0
 40
0
 40
1
 40
1
 40
1
 40
1
 10
43.565046
 20
259.096726
 30
0.0
 10
44.106498
 20
259.409333
 30
0.0
 10
44.440046
 20
259.987056
 30
0.0
 10
44.440046
 20
260.612270
 30
0.0
  0
LINE
  5
17d
100
AcDbEntity
  8
Layer_1
 62
1
100
AcDbLine
 10
44.440046
 20
260.612270
 30
0.0
 11
44.440046
 21
260.612270
 31
0.0
  0
SPLINE
  5
17e
100
AcDbEntity
  8
Layer_1
 62
1
100
AcDbSpline
 70
8
 71
3
 72
8
 73
4
 74
0
 40
0
 40
0
 40
0
 40
0
 40
1
 40
1
 40
1
 40
1
 10
44.440046
 20
280.612281
 30
0.0
 10
44.440046
 20
281.237496
 30
0.0
 10
44.106498
 20
281.815218
 30
0.0
 10
43.565046
 20
282.127826
 30
0.0
  0
SPLINE
  5
17f
100
AcDbEntity
  8
Layer_1
 62
1
100
AcDbSpline
 70
8
 71
3
 72
8
 73
4
 74
0
 40
0
 40
0
 40
0
 40
0
 40
1
 40
1
 40
1
 40
1
 10
43.565046
 20
282.127826
 30
0.0
 10
43.023594
 20
282.440433
 30
0.0
 10
42.356498
 20
282.440433
 30
0.0
 10
41.815046
 20
282.127826
 30
0.0
  0
SPLINE
  5
180
100
AcDbEntity
  8
Layer_1
 62
1
100
AcDbSpline
 70
8
 71
3
 72
8
 73
4
 74
0
 40
0
 40
0
 40
0
 40
0
 40
1
 40
1
 40
1
 40
1
 10
41.815046
 20
282.127826
 30
0.0
 10
41.273594
 20
281.815218
 30
0.0
 10
40.940046
 20
281.237496
 30
0.0
 10
40.940046
 20
280.612281
 30
0.0
  0
SPLINE
  5
181
100
AcDbEntity
  8
Layer_1
 62
1
100
AcDbSpline
 70
8
 71
3
 72
8
 73
4
 74
0
 40
0
 40
0
 40
0
 40
0
 40
1
 40
1
 40
1
 40
1
 10
40.940046
 20
280.612281
 30
0.0
 10
40.940046
 20
279.987067
 30
0.0
 10
41.273594
 20
279.409344
 30
0.0
 10
41.815046
 20
279.096737
 30
0.0
  0
SPLINE
  5
182
100
AcDbEntity
  8
Layer_1
 62
1
100
AcDbSpline
 70
8
 71
3
 72
8
 73
4
 74
0
 40
0
 40
0
 40
0
 40
0
 40
1
 40
1
 40
1
 40
1
 10
41.815046
 20
279.096737
 30
0.0
 10
42.356498
 20
278.784130
 30
0.0
 10
43.023594
 20
278.784130
 30
0.0
 10
43.565046
 20
279.096737
 30
0.0
  0
SPLINE
  5
183
100
AcDbEntity
  8
Layer_1
 62
1
100
AcDbSpline
 70
8
 71
3
 72
8
 73
4
 74
0
 40
0
 40
0
 40
0
 40
0
 40
1
 40
1
 40
1
 40
1
 10
43.565046
 20
279.096737
 30
0.0
 10
44.106498
 20
279.409344
 30
0.0
 10
44.440046
 20
279.987067
 30
0.0
 10
44.440046
 20
280.612281
 30
0.0
  0
LINE
  5
184
100
AcDbEntity
  8
Layer_1
 62
1
100
AcDbLine
 10
44.440046
 20
280.612281
 30
0.0
 11
44.440046
 21
280.612281
 31
0.0
  0
LINE
  5
185
100
AcDbEntity
  8
Layer_1
 62
7
100
AcDbLine
 10
153.127515
 20
259.628218
 30
0.0
 11
153.127515
 21
256.627942
 31
0.0
  0
LINE
  5
186
100
AcDbEntity
  8
Layer_1
 62
7
100
AcDbLine
 10
153.127515
 20
256.627942
 30
0.0
 11
144.127271
 21
256.627942
 31
0.0
  0
LINE
  5
187
100
AcDbEntity
  8
Layer_1
 62
7
100
AcDbLine
 10
144.127271
 20
256.627942
 30
0.0
 11
144.127271
 21
236.628208
 31
0.0
  0
LINE
  5
188
100
AcDbEntity
  8
Layer_1
 62
7
100
AcDbLine
 10
144.127271
 20
236.628208
 30
0.0
 11
153.127515
 21
236.628208
 31
0.0
  0
LINE
  5
189
100
AcDbEntity
  8
Layer_1
 62
7
100
AcDbLine
 10
153.127515
 20
236.628208
 30
0.0
 11
153.127515
 21
233.627931
 31
0.0
  0
LINE
  5
18a
100
AcDbEntity
  8
Layer_1
 62
7
100
AcDbLine
 10
153.127515
 20
233.627931
 30
0.0
 11
163.127662
 21
233.627931
 31
0.0
  0
LINE
  5
18b
100
AcDbEntity
  8
Layer_1
 62
7
100
AcDbLine
 10
163.127662
 20
233.627931
 30
0.0
 11
163.127662
 21
236.628208
 31
0.0
  0
LINE
  5
18c
100
AcDbEntity
  8
Layer_1
 62
7
100
AcDbLine
 10
163.127662
 20
236.628208
 30
0.0
 11
175.127618
 21
236.628208
 31
0.0
  0
LINE
  5
18d
100
AcDbEntity
  8
Layer_1
 62
7
100
AcDbLine
 10
175.127618
 20
236.628208
 30
0.0
 11
175.127618
 21
233.627931
 31
0.0
  0
LINE
  5
18e
100
AcDbEntity
  8
Layer_1
 62
7
100
AcDbLine
 10
175.127618
 20
233.627931
 30
0.0
 11
185.127214
 21
233.627931
 31
0.0
  0
LINE
  5
18f
100
AcDbEntity
  8
Layer_1
 62
7
100
AcDbLine
 10
185.127214
 20
233.627931
 30
0.0
 11
185.127214
 21
236.628208
 31
0.0
  0
LINE
  5
190
100
AcDbEntity
  8
Layer_1
 62
7
100
AcDbLine
 10
185.127214
 20
236.628208
 30
0.0
 11
194.127459
 21
236.628208
 31
0.0
  0
LINE
  5
191
100
AcDbEntity
  8
Layer_1
 62
7
100
AcDbLine
 10
194.127459
 20
236.628208
 30
0.0
 11
194.127459
 21
256.627942
 31
0.0
  0
LINE
  5
192
100
AcDbEntity
  8
Layer_1
 62
7
100
AcDbLine
 10
194.127459
 20
256.627942
 30
0.0
 11
185.127214
 21
256.627942
 31
0.0
  0
LINE
  5
193
100
AcDbEntity
  8
Layer_1
 62
7
100
AcDbLine
 10
185.127214
 20
256.627942
 30
0.0
 11
185.127214
 21
259.628218
 31
0.0
  0
LINE
  5
194
100
AcDbEntity
  8
Layer_1
 62
7
100
AcDbLine
 10
185.127214
 20
259.628218
 30
0.0
 11
175.127618
 21
259.628218
 31
0.0
  0
LINE
  5
195
100
AcDbEntity
  8
Layer_1
 62
7
100
AcDbLine
 10
175.127618
 20
259.628218
 30
0.0
 11
175.127618
 21
256.627942
 31
0.0
  0
LINE
  5
196
100
AcDbEntity
  8
Layer_1
 62
7
100
AcDbLine
 10
175.127618
 20
256.627942
 30
0.0
 11
163.127662
 21
256.627942
 31
0.0
  0
LINE
  5
197
100
AcDbEntity
  8
Layer_1
 62
7
100
AcDbLine
 10
163.127662
 20
256.627942
 30
0.0
 11
163.127662
 21
259.628218
 31
0.0
  0
LINE
  5
198
100
AcDbEntity
  8
Layer_1
 62
7
100
AcDbLine
 10
163.127662
 20
259.628218
 30
0.0
 11
153.127515
 21
259.628218
 31
0.0
  0
LINE
  5
199
100
AcDbEntity
  8
Layer_1
 62
7
100
AcDbLine
 10
153.127515
 20
259.628218
 30
0.0
 11
153.127515
 21
259.628218
 31
0.0
  0
SPLINE
  5
19a
100
AcDbEntity
  8
Layer_1
 62
1
100
AcDbSpline
 70
8
 71
3
 72
8
 73
4
 74
0
 40
0
 40
0
 40
0
 40
0
 40
1
 40
1
 40
1
 40
1
 10
164.127403
 20
246.628018
 30
0.0
 10
164.128542
 20
248.772371
 30
0.0
 10
162.985198
 20
250.754322
 30
0.0
 10
161.128324
 20
251.826827
 30
0.0
  0
SPLINE
  5
19b
100
AcDbEntity
  8
Layer_1
 62
1
100
AcDbSpline
 70
8
 71
3
 72
8
 73
4
 74
0
 40
0
 40
0
 40
0
 40
0
 40
1
 40
1
 40
1
 40
1
 10
161.128324
 20
251.826827
 30
0.0
 10
159.271450
 20
252.899332
 30
0.0
 10
156.983358
 20
252.899332
 30
0.0
 10
155.126484
 20
251.826827
 30
0.0
  0
SPLINE
  5
19c
100
AcDbEntity
  8
Layer_1
 62
1
100
AcDbSpline
 70
8
 71
3
 72
8
 73
4
 74
0
 40
0
 40
0
 40
0
 40
0
 40
1
 40
1
 40
1
 40
1
 10
155.126484
 20
251.826827
 30
0.0
 10
153.269609
 20
250.754322
 30
0.0
 10
152.126265
 20
248.772371
 30
0.0
 10
152.127404
 20
246.628018
 30
0.0
  0
SPLINE
  5
19d
100
AcDbEntity
  8
Layer_1
 62
1
100
AcDbSpline
 70
8
 71
3
 72
8
 73
4
 74
0
 40
0
 40
0
 40
0
 40
0
 40
1
 40
1
 40
1
 40
1
 10
152.127404
 20
246.628018
 30
0.0
 10
152.126265
 20
244.483666
 30
0.0
 10
153.269609
 20
242.501715
 30
0.0
 10
155.126484
 20
241.429210
 30
0.0
  0
SPLINE
  5
19e
100
AcDbEntity
  8
Layer_1
 62
1
100
AcDbSpline
 70
8
 71
3
 72
8
 73
4
 74
0
 40
0
 40
0
 40
0
 40
0
 40
1
 40
1
 40
1
 40
1
 10
155.126484
 20
241.429210
 30
0.0
 10
156.983358
 20
240.356704
 30
0.0
 10
159.271450
 20
240.356704
 30
0.0
 10
161.128324
 20
241.429210
 30
0.0
  0
SPLINE
  5
19f
100
AcDbEntity
  8
Layer_1
 62
1
100
AcDbSpline
 70
8
 71
3
 72
8
 73
4
 74
0
 40
0
 40
0
 40
0
 40
0
 40
1
 40
1
 40
1
 40
1
 10
161.128324
 20
241.429210
 30
0.0
 10
162.985198
 20
242.501715
 30
0.0
 10
164.128542
 20
244.483666
 30
0.0
 10
164.127403
 20
246.628018
 30
0.0
  0
LINE
  5
1a0
100
AcDbEntity
  8
Layer_1
 62
1
100
AcDbLine
 10
164.127403
 20
246.628018
 30
0.0
 11
164.127403
 21
246.628018
 31
0.0
  0
SPLINE
  5
1a1
100
AcDbEntity
  8
Layer_1
 62
1
100
AcDbSpline
 70
8
 71
3
 72
8
 73
4
 74
0
 40
0
 40
0
 40
0
 40
0
 40
1
 40
1
 40
1
 40
1
 10
186.127404
 20
246.628018
 30
0.0
 10
186.127404
 20
248.771612
 30
0.0
 10
184.983811
 20
250.752375
 30
0.0
 10
183.127404
 20
251.824172
 30
0.0
  0
SPLINE
  5
1a2
100
AcDbEntity
  8
Layer_1
 62
1
100
AcDbSpline
 70
8
 71
3
 72
8
 73
4
 74
0
 40
0
 40
0
 40
0
 40
0
 40
1
 40
1
 40
1
 40
1
 10
183.127404
 20
251.824172
 30
0.0
 10
181.270997
 20
252.895969
 30
0.0
 10
178.983810
 20
252.895969
 30
0.0
 10
177.127403
 20
251.824172
 30
0.0
  0
SPLINE
  5
1a3
100
AcDbEntity
  8
Layer_1
 62
1
100
AcDbSpline
 70
8
 71
3
 72
8
 73
4
 74
0
 40
0
 40
0
 40
0
 40
0
 40
1
 40
1
 40
1
 40
1
 10
177.127403
 20
251.824172
 30
0.0
 10
175.270996
 20
250.752375
 30
0.0
 10
174.127403
 20
248.771612
 30
0.0
 10
174.127403
 20
246.628018
 30
0.0
  0
SPLINE
  5
1a4
100
AcDbEntity
  8
Layer_1
 62
1
100
AcDbSpline
 70
8
 71
3
 72
8
 73
4
 74
0
 40
0
 40
0
 40
0
 40
0
 40
1
 40
1
 40
1
 40
1
 10
174.127403
 20
246.628018
 30
0.0
 10
174.127403
 20
243.314309
 30
0.0
 10
176.813695
 20
240.628018
 30
0.0
 10
180.127403
 20
240.628018
 30
0.0
  0
SPLINE
  5
1a5
100
AcDbEntity
  8
Layer_1
 62
1
100
AcDbSpline
 70
8
 71
3
 72
8
 73
4
 74
0
 40
0
 40
0
 40
0
 40
0
 40
1
 40
1
 40
1
 40
1
 10
180.127403
 20
240.628018
 30
0.0
 10
183.441112
 20
240.628018
 30
0.0
 10
186.127404
 20
243.314309
 30
0.0
 10
186.127404
 20
246.628018
 30
0.0
  0
LINE
  5
1a6
100
AcDbEntity
  8
Layer_1
 62
1
100
AcDbLine
 10
186.127404
 20
246.628018
 30
0.0
 11
186.127404
 21
246.628018
 31
0.0
  0
LINE
  5
1a7
100
AcDbEntity
  8
Layer_1
 62
7
100
AcDbLine
 10
153.127515
 20
286.656742
 30
0.0
 11
153.127515
 21
283.657027
 31
0.0
  0
LINE
  5
1a8
100
AcDbEntity
  8
Layer_1
 62
7
100
AcDbLine
 10
153.127515
 20
283.657027
 30
0.0
 11
144.127271
 21
283.657027
 31
0.0
  0
LINE
  5
1a9
100
AcDbEntity
  8
Layer_1
 62
7
100
AcDbLine
 10
144.127271
 20
283.657027
 30
0.0
 11
144.127271
 21
263.656743
 31
0.0
  0
LINE
  5
1aa
100
AcDbEntity
  8
Layer_1
 62
7
100
AcDbLine
 10
144.127271
 20
263.656743
 30
0.0
 11
153.127515
 21
263.656743
 31
0.0
  0
LINE
  5
1ab
100
AcDbEntity
  8
Layer_1
 62
7
100
AcDbLine
 10
153.127515
 20
263.656743
 30
0.0
 11
153.127515
 21
260.657031
 31
0.0
  0
LINE
  5
1ac
100
AcDbEntity
  8
Layer_1
 62
7
100
AcDbLine
 10
153.127515
 20
260.657031
 30
0.0
 11
163.127662
 21
260.657031
 31
0.0
  0
LINE
  5
1ad
100
AcDbEntity
  8
Layer_1
 62
7
100
AcDbLine
 10
163.127662
 20
260.657031
 30
0.0
 11
163.127662
 21
263.656743
 31
0.0
  0
LINE
  5
1ae
100
AcDbEntity
  8
Layer_1
 62
7
100
AcDbLine
 10
163.127662
 20
263.656743
 30
0.0
 11
175.127618
 21
263.656743
 31
0.0
  0
LINE
  5
1af
100
AcDbEntity
  8
Layer_1
 62
7
100
AcDbLine
 10
175.127618
 20
263.656743
 30
0.0
 11
175.127618
 21
260.657031
 31
0.0
  0
LINE
  5
1b0
100
AcDbEntity
  8
Layer_1
 62
7
100
AcDbLine
 10
175.127618
 20
260.657031
 30
0.0
 11
185.127214
 21
260.657031
 31
0.0
  0
LINE
  5
1b1
100
AcDbEntity
  8
Layer_1
 62
7
100
AcDbLine
 10
185.127214
 20
260.657031
 30
0.0
 11
185.127214
 21
263.656743
 31
0.0
  0
LINE
  5
1b2
100
AcDbEntity
  8
Layer_1
 62
7
100
AcDbLine
 10
185.127214
 20
263.656743
 30
0.0
 11
194.127459
 21
263.656743
 31
0.0
  0
LINE
  5
1b3
100
AcDbEntity
  8
Layer_1
 62
7
100
AcDbLine
 10
194.127459
 20
263.656743
 30
0.0
 11
194.127459
 21
283.657027
 31
0.0
  0
LINE
  5
1b4
100
AcDbEntity
  8
Layer_1
 62
7
100
AcDbLine
 10
194.127459
 20
283.657027
 30
0.0
 11
185.127214
 21
283.657027
 31
0.0
  0
LINE
  5
1b5
100
AcDbEntity
  8
Layer_1
 62
7
100
AcDbLine
 10
185.127214
 20
283.657027
 30
0.0
 11
185.127214
 21
286.656742
 31
0.0
  0
LINE
  5
1b6
100
AcDbEntity
  8
Layer_1
 62
7
100
AcDbLine
 10
185.127214
 20
286.656742
 30
0.0
 11
175.127618
 21
286.656742
 31
0.0
  0
LINE
  5
1b7
100
AcDbEntity
  8
Layer_1
 62
7
100
AcDbLine
 10
175.127618
 20
286.656742
 30
0.0
 11
175.127618
 21
283.657027
 31
0.0
  0
LINE
  5
1b8
100
AcDbEntity
  8
Layer_1
 62
7
100
AcDbLine
 10
175.127618
 20
283.657027
 30
0.0
 11
163.127662
 21
283.657027
 31
0.0
  0
LINE
  5
1b9
100
AcDbEntity
  8
Layer_1
 62
7
100
AcDbLine
 10
163.127662
 20
283.657027
 30
0.0
 11
163.127662
 21
286.656742
 31
0.0
  0
LINE
  5
1ba
100
AcDbEntity
  8
Layer_1
 62
7
100
AcDbLine
 10
163.127662
 20
286.656742
 30
0.0
 11
153.127515
 21
286.656742
 31
0.0
  0
LINE
  5
1bb
100
AcDbEntity
  8
Layer_1
 62
7
100
AcDbLine
 10
153.127515
 20
286.656742
 30
0.0
 11
153.127515
 21
286.656742
 31
0.0
  0
SPLINE
  5
1bc
100
AcDbEntity
  8
Layer_1
 62
1
100
AcDbSpline
 70
8
 71
3
 72
8
 73
4
 74
0
 40
0
 40
0
 40
0
 40
0
 40
1
 40
1
 40
1
 40
1
 10
165.627403
 20
273.656807
 30
0.0
 10
165.628676
 20
276.337148
 30
0.0
 10
164.199463
 20
278.814429
 30
0.0
 10
161.878432
 20
280.154967
 30
0.0
  0
SPLINE
  5
1bd
100
AcDbEntity
  8
Layer_1
 62
1
100
AcDbSpline
 70
8
 71
3
 72
8
 73
4
 74
0
 40
0
 40
0
 40
0
 40
0
 40
1
 40
1
 40
1
 40
1
 10
161.878432
 20
280.154967
 30
0.0
 10
159.557401
 20
281.495505
 30
0.0
 10
156.697406
 20
281.495505
 30
0.0
 10
154.376375
 20
280.154967
 30
0.0
  0
SPLINE
  5
1be
100
AcDbEntity
  8
Layer_1
 62
1
100
AcDbSpline
 70
8
 71
3
 72
8
 73
4
 74
0
 40
0
 40
0
 40
0
 40
0
 40
1
 40
1
 40
1
 40
1
 10
154.376375
 20
280.154967
 30
0.0
 10
152.055344
 20
278.814429
 30
0.0
 10
150.626131
 20
276.337148
 30
0.0
 10
150.627405
 20
273.656807
 30
0.0
  0
SPLINE
  5
1bf
100
AcDbEntity
  8
Layer_1
 62
1
100
AcDbSpline
 70
8
 71
3
 72
8
 73
4
 74
0
 40
0
 40
0
 40
0
 40
0
 40
1
 40
1
 40
1
 40
1
 10
150.627405
 20
273.656807
 30
0.0
 10
150.629372
 20
269.516064
 30
0.0
 10
153.986660
 20
266.160371
 30
0.0
 10
158.127404
 20
266.160371
 30
0.0
  0
SPLINE
  5
1c0
100
AcDbEntity
  8
Layer_1
 62
1
100
AcDbSpline
 70
8
 71
3
 72
8
 73
4
 74
0
 40
0
 40
0
 40
0
 40
0
 40
1
 40
1
 40
1
 40
1
 10
158.127404
 20
266.160371
 30
0.0
 10
162.268148
 20
266.160371
 30
0.0
 10
165.625435
 20
269.516064
 30
0.0
 10
165.627403
 20
273.656807
 30
0.0
  0
LINE
  5
1c1
100
AcDbEntity
  8
Layer_1
 62
1
100
AcDbLine
 10
165.627403
 20
273.656807
 30
0.0
 11
165.627403
 21
273.656807
 31
0.0
  0
SPLINE
  5
1c2
100
AcDbEntity
  8
Layer_1
 62
1
100
AcDbSpline
 70
8
 71
3
 72
8
 73
4
 74
0
 40
0
 40
0
 40
0
 40
0
 40
1
 40
1
 40
1
 40
1
 10
187.627404
 20
273.656807
 30
0.0
 10
187.627404
 20
276.336299
 30
0.0
 10
186.197912
 20
278.812252
 30
0.0
 10
183.877404
 20
280.151998
 30
0.0
  0
SPLINE
  5
1c3
100
AcDbEntity
  8
Layer_1
 62
1
100
AcDbSpline
 70
8
 71
3
 72
8
 73
4
 74
0
 40
0
 40
0
 40
0
 40
0
 40
1
 40
1
 40
1
 40
1
 10
183.877404
 20
280.151998
 30
0.0
 10
181.556895
 20
281.491744
 30
0.0
 10
178.697911
 20
281.491744
 30
0.0
 10
176.377403
 20
280.151998
 30
0.0
  0
SPLINE
  5
1c4
100
AcDbEntity
  8
Layer_1
 62
1
100
AcDbSpline
 70
8
 71
3
 72
8
 73
4
 74
0
 40
0
 40
0
 40
0
 40
0
 40
1
 40
1
 40
1
 40
1
 10
176.377403
 20
280.151998
 30
0.0
 10
174.056895
 20
278.812252
 30
0.0
 10
172.627403
 20
276.336299
 30
0.0
 10
172.627403
 20
273.656807
 30
0.0
  0
SPLINE
  5
1c5
100
AcDbEntity
  8
Layer_1
 62
1
100
AcDbSpline
 70
8
 71
3
 72
8
 73
4
 74
0
 40
0
 40
0
 40
0
 40
0
 40
1
 40
1
 40
1
 40
1
 10
172.627403
 20
273.656807
 30
0.0
 10
172.627403
 20
270.977315
 30
0.0
 10
174.056895
 20
268.501362
 30
0.0
 10
176.377403
 20
267.161616
 30
0.0
  0
SPLINE
  5
1c6
100
AcDbEntity
  8
Layer_1
 62
1
100
AcDbSpline
 70
8
 71
3
 72
8
 73
4
 74
0
 40
0
 40
0
 40
0
 40
0
 40
1
 40
1
 40
1
 40
1
 10
176.377403
 20
267.161616
 30
0.0
 10
178.697911
 20
265.821870
 30
0.0
 10
181.556895
 20
265.821870
 30
0.0
 10
183.877404
 20
267.161616
 30
0.0
  0
SPLINE
  5
1c7
100
AcDbEntity
  8
Layer_1
 62
1
100
AcDbSpline
 70
8
 71
3
 72
8
 73
4
 74
0
 40
0
 40
0
 40
0
 40
0
 40
1
 40
1
 40
1
 40
1
 10
183.877404
 20
267.161616
 30
0.0
 10
186.197912
 20
268.501362
 30
0.0
 10
187.627404
 20
270.977315
 30
0.0
 10
187.627404
 20
273.656807
 30
0.0
  0
LINE
  5
1c8
100
AcDbEntity
  8
Layer_1
 62
1
100
AcDbLine
 10
187.627404
 20
273.656807
 30
0.0
 11
187.627404
 21
273.656807
 31
0.0
  0
LINE
  5
1c9
100
AcDbEntity
  8
Layer_1
 62
7
100
AcDbLine
 10
143.210026
 20
235.356232
 30
0.0
 11
107.210025
 21
235.356232
 31
0.0
  0
LINE
  5
1ca
100
AcDbEntity
  8
Layer_1
 62
7
100
AcDbLine
 10
107.210025
 20
235.356232
 30
0.0
 11
107.210025
 21
285.356222
 31
0.0
  0
LINE
  5
1cb
100
AcDbEntity
  8
Layer_1
 62
7
100
AcDbLine
 10
107.210025
 20
285.356222
 30
0.0
 11
143.210026
 21
285.356222
 31
0.0
  0
LINE
  5
1cc
100
AcDbEntity
  8
Layer_1
 62
7
100
AcDbLine
 10
143.210026
 20
285.356222
 30
0.0
 11
143.210026
 21
235.356232
 31
0.0
  0
LINE
  5
1cd
100
AcDbEntity
  8
Layer_1
 62
7
100
AcDbLine
 10
143.210026
 20
235.356232
 30
0.0
 11
143.210026
 21
235.356232
 31
0.0
  0
LINE
  5
1ce
100
AcDbEntity
  8
Layer_1
 62
1
100
AcDbLine
 10
116.210024
 20
276.356235
 30
0.0
 11
110.210024
 21
276.356235
 31
0.0
  0
LINE
  5
1cf
100
AcDbEntity
  8
Layer_1
 62
1
100
AcDbLine
 10
110.210024
 20
276.356235
 30
0.0
 11
110.210024
 21
266.356226
 31
0.0
  0
LINE
  5
1d0
100
AcDbEntity
  8
Layer_1
 62
1
100
AcDbLine
 10
110.210024
 20
266.356226
 30
0.0
 11
116.210024
 21
266.356226
 31
0.0
  0
LINE
  5
1d1
100
AcDbEntity
  8
Layer_1
 62
1
100
AcDbLine
 10
116.210024
 20
266.356226
 30
0.0
 11
116.210024
 21
276.356235
 31
0.0
  0
LINE
  5
1d2
100
AcDbEntity
  8
Layer_1
 62
1
100
AcDbLine
 10
116.210024
 20
276.356235
 30
0.0
 11
116.210024
 21
276.356235
 31
0.0
  0
LINE
  5
1d3
100
AcDbEntity
  8
Layer_1
 62
1
100
AcDbLine
 10
116.210024
 20
254.356222
 30
0.0
 11
110.210024
 21
254.356222
 31
0.0
  0
LINE
  5
1d4
100
AcDbEntity
  8
Layer_1
 62
1
100
AcDbLine
 10
110.210024
 20
254.356222
 30
0.0
 11
110.210024
 21
244.356242
 31
0.0
  0
LINE
  5
1d5
100
AcDbEntity
  8
Layer_1
 62
1
100
AcDbLine
 10
110.210024
 20
244.356242
 30
0.0
 11
116.210024
 21
244.356242
 31
0.0
  0
LINE
  5
1d6
100
AcDbEntity
  8
Layer_1
 62
1
100
AcDbLine
 10
116.210024
 20
244.356242
 30
0.0
 11
116.210024
 21
254.356222
 31
0.0
  0
LINE
  5
1d7
100
AcDbEntity
  8
Layer_1
 62
1
100
AcDbLine
 10
116.210024
 20
254.356222
 30
0.0
 11
116.210024
 21
254.356222
 31
0.0
  0
LINE
  5
1d8
100
AcDbEntity
  8
Layer_1
 62
1
100
AcDbLine
 10
134.210024
 20
276.356235
 30
0.0
 11
140.210024
 21
276.356235
 31
0.0
  0
LINE
  5
1d9
100
AcDbEntity
  8
Layer_1
 62
1
100
AcDbLine
 10
140.210024
 20
276.356235
 30
0.0
 11
140.210024
 21
266.356226
 31
0.0
  0
LINE
  5
1da
100
AcDbEntity
  8
Layer_1
 62
1
100
AcDbLine
 10
140.210024
 20
266.356226
 30
0.0
 11
134.210024
 21
266.356226
 31
0.0
  0
LINE
  5
1db
100
AcDbEntity
  8
Layer_1
 62
1
100
AcDbLine
 10
134.210024
 20
266.356226
 30
0.0
 11
134.210024
 21
276.356235
 31
0.0
  0
LINE
  5
1dc
100
AcDbEntity
  8
Layer_1
 62
1
100
AcDbLine
 10
134.210024
 20
276.356235
 30
0.0
 11
134.210024
 21
276.356235
 31
0.0
  0
LINE
  5
1dd
100
AcDbEntity
  8
Layer_1
 62
1
100
AcDbLine
 10
134.210024
 20
244.356242
 30
0.0
 11
134.210024
 21
254.356222
 31
0.0
  0
LINE
  5
1de
100
AcDbEntity
  8
Layer_1
 62
1
100
AcDbLine
 10
134.210024
 20
254.356222
 30
0.0
 11
140.210024
 21
254.356222
 31
0.0
  0
LINE
  5
1df
100
AcDbEntity
  8
Layer_1
 62
1
100
AcDbLine
 10
140.210024
 20
254.356222
 30
0.0
 11
140.210024
 21
244.356242
 31
0.0
  0
LINE
  5
1e0
100
AcDbEntity
  8
Layer_1
 62
1
100
AcDbLine
 10
140.210024
 20
244.356242
 30
0.0
 11
134.210024
 21
244.356242
 31
0.0
  0
LINE
  5
1e1
100
AcDbEntity
  8
Layer_1
 62
1
100
AcDbLine
 10
134.210024
 20
244.356242
 30
0.0
 11
134.210024
 21
244.356242
 31
0.0
  0
SPLINE
  5
1e2
100
AcDbEntity
  8
Layer_1
 62
1
100
AcDbSpline
 70
8
 71
3
 72
8
 73
4
 74
0
 40
0
 40
0
 40
0
 40
0
 40
1
 40
1
 40
1
 40
1
 10
121.960024
 20
280.356221
 30
0.0
 10
121.960024
 20
280.981436
 30
0.0
 10
121.626476
 20
281.559158
 30
0.0
 10
121.085024
 20
281.871766
 30
0.0
  0
SPLINE
  5
1e3
100
AcDbEntity
  8
Layer_1
 62
1
100
AcDbSpline
 70
8
 71
3
 72
8
 73
4
 74
0
 40
0
 40
0
 40
0
 40
0
 40
1
 40
1
 40
1
 40
1
 10
121.085024
 20
281.871766
 30
0.0
 10
120.543572
 20
282.184373
 30
0.0
 10
119.876476
 20
282.184373
 30
0.0
 10
119.335024
 20
281.871766
 30
0.0
  0
SPLINE
  5
1e4
100
AcDbEntity
  8
Layer_1
 62
1
100
AcDbSpline
 70
8
 71
3
 72
8
 73
4
 74
0
 40
0
 40
0
 40
0
 40
0
 40
1
 40
1
 40
1
 40
1
 10
119.335024
 20
281.871766
 30
0.0
 10
118.793572
 20
281.559158
 30
0.0
 10
118.460024
 20
280.981436
 30
0.0
 10
118.460024
 20
280.356221
 30
0.0
  0
SPLINE
  5
1e5
100
AcDbEntity
  8
Layer_1
 62
1
100
AcDbSpline
 70
8
 71
3
 72
8
 73
4
 74
0
 40
0
 40
0
 40
0
 40
0
 40
1
 40
1
 40
1
 40
1
 10
118.460024
 20
280.356221
 30
0.0
 10
118.460024
 20
279.731006
 30
0.0
 10
118.793572
 20
279.153284
 30
0.0
 10
119.335024
 20
278.840677
 30
0.0
  0
SPLINE
  5
1e6
100
AcDbEntity
  8
Layer_1
 62
1
100
AcDbSpline
 70
8
 71
3
 72
8
 73
4
 74
0
 40
0
 40
0
 40
0
 40
0
 40
1
 40
1
 40
1
 40
1
 10
119.335024
 20
278.840677
 30
0.0
 10
119.876476
 20
278.528069
 30
0.0
 10
120.543572
 20
278.528069
 30
0.0
 10
121.085024
 20
278.840677
 30
0.0
  0
SPLINE
  5
1e7
100
AcDbEntity
  8
Layer_1
 62
1
100
AcDbSpline
 70
8
 71
3
 72
8
 73
4
 74
0
 40
0
 40
0
 40
0
 40
0
 40
1
 40
1
 40
1
 40
1
 10
121.085024
 20
278.840677
 30
0.0
 10
121.626476
 20
279.153284
 30
0.0
 10
121.960024
 20
279.731006
 30
0.0
 10
121.960024
 20
280.356221
 30
0.0
  0
LINE
  5
1e8
100
AcDbEntity
  8
Layer_1
 62
1
100
AcDbLine
 10
121.960024
 20
280.356221
 30
0.0
 11
121.960025
 21
280.356221
 31
0.0
  0
SPLINE
  5
1e9
100
AcDbEntity
  8
Layer_1
 62
1
100
AcDbSpline
 70
8
 71
3
 72
8
 73
4
 74
0
 40
0
 40
0
 40
0
 40
0
 40
1
 40
1
 40
1
 40
1
 10
121.960024
 20
260.356210
 30
0.0
 10
121.960024
 20
260.981425
 30
0.0
 10
121.626476
 20
261.559147
 30
0.0
 10
121.085024
 20
261.871755
 30
0.0
  0
SPLINE
  5
1ea
100
AcDbEntity
  8
Layer_1
 62
1
100
AcDbSpline
 70
8
 71
3
 72
8
 73
4
 74
0
 40
0
 40
0
 40
0
 40
0
 40
1
 40
1
 40
1
 40
1
 10
121.085024
 20
261.871755
 30
0.0
 10
120.543572
 20
262.184362
 30
0.0
 10
119.876476
 20
262.184362
 30
0.0
 10
119.335024
 20
261.871755
 30
0.0
  0
SPLINE
  5
1eb
100
AcDbEntity
  8
Layer_1
 62
1
100
AcDbSpline
 70
8
 71
3
 72
8
 73
4
 74
0
 40
0
 40
0
 40
0
 40
0
 40
1
 40
1
 40
1
 40
1
 10
119.335024
 20
261.871755
 30
0.0
 10
118.793572
 20
261.559147
 30
0.0
 10
118.460024
 20
260.981425
 30
0.0
 10
118.460024
 20
260.356210
 30
0.0
  0
SPLINE
  5
1ec
100
AcDbEntity
  8
Layer_1
 62
1
100
AcDbSpline
 70
8
 71
3
 72
8
 73
4
 74
0
 40
0
 40
0
 40
0
 40
0
 40
1
 40
1
 40
1
 40
1
 10
118.460024
 20
260.356210
 30
0.0
 10
118.460024
 20
259.730995
 30
0.0
 10
118.793572
 20
259.153273
 30
0.0
 10
119.335024
 20
258.840666
 30
0.0
  0
SPLINE
  5
1ed
100
AcDbEntity
  8
Layer_1
 62
1
100
AcDbSpline
 70
8
 71
3
 72
8
 73
4
 74
0
 40
0
 40
0
 40
0
 40
0
 40
1
 40
1
 40
1
 40
1
 10
119.335024
 20
258.840666
 30
0.0
 10
119.876476
 20
258.528058
 30
0.0
 10
120.543572
 20
258.528058
 30
0.0
 10
121.085024
 20
258.840666
 30
0.0
  0
SPLINE
  5
1ee
100
AcDbEntity
  8
Layer_1
 62
1
100
AcDbSpline
 70
8
 71
3
 72
8
 73
4
 74
0
 40
0
 40
0
 40
0
 40
0
 40
1
 40
1
 40
1
 40
1
 10
121.085024
 20
258.840666
 30
0.0
 10
121.626476
 20
259.153273
 30
0.0
 10
121.960024
 20
259.730995
 30
0.0
 10
121.960024
 20
260.356210
 30
0.0
  0
LINE
  5
1ef
100
AcDbEntity
  8
Layer_1
 62
1
100
AcDbLine
 10
121.960024
 20
260.356210
 30
0.0
 11
121.960025
 21
260.356210
 31
0.0
  0
SPLINE
  5
1f0
100
AcDbEntity
  8
Layer_1
 62
1
100
AcDbSpline
 70
8
 71
3
 72
8
 73
4
 74
0
 40
0
 40
0
 40
0
 40
0
 40
1
 40
1
 40
1
 40
1
 10
121.960024
 20
240.356222
 30
0.0
 10
121.960024
 20
240.981437
 30
0.0
 10
121.626476
 20
241.559159
 30
0.0
 10
121.085024
 20
241.871766
 30
0.0
  0
SPLINE
  5
1f1
100
AcDbEntity
  8
Layer_1
 62
1
100
AcDbSpline
 70
8
 71
3
 72
8
 73
4
 74
0
 40
0
 40
0
 40
0
 40
0
 40
1
 40
1
 40
1
 40
1
 10
121.085024
 20
241.871766
 30
0.0
 10
120.543572
 20
242.184374
 30
0.0
 10
119.876476
 20
242.184374
 30
0.0
 10
119.335024
 20
241.871766
 30
0.0
  0
SPLINE
  5
1f2
100
AcDbEntity
  8
Layer_1
 62
1
100
AcDbSpline
 70
8
 71
3
 72
8
 73
4
 74
0
 40
0
 40
0
 40
0
 40
0
 40
1
 40
1
 40
1
 40
1
 10
119.335024
 20
241.871766
 30
0.0
 10
118.793572
 20
241.559159
 30
0.0
 10
118.460024
 20
240.981437
 30
0.0
 10
118.460024
 20
240.356222
 30
0.0
  0
SPLINE
  5
1f3
100
AcDbEntity
  8
Layer_1
 62
1
100
AcDbSpline
 70
8
 71
3
 72
8
 73
4
 74
0
 40
0
 40
0
 40
0
 40
0
 40
1
 40
1
 40
1
 40
1
 10
118.460024
 20
240.356222
 30
0.0
 10
118.460024
 20
239.731007
 30
0.0
 10
118.793572
 20
239.153285
 30
0.0
 10
119.335024
 20
238.840678
 30
0.0
  0
SPLINE
  5
1f4
100
AcDbEntity
  8
Layer_1
 62
1
100
AcDbSpline
 70
8
 71
3
 72
8
 73
4
 74
0
 40
0
 40
0
 40
0
 40
0
 40
1
 40
1
 40
1
 40
1
 10
119.335024
 20
238.840678
 30
0.0
 10
119.876476
 20
238.528070
 30
0.0
 10
120.543572
 20
238.528070
 30
0.0
 10
121.085024
 20
238.840678
 30
0.0
  0
SPLINE
  5
1f5
100
AcDbEntity
  8
Layer_1
 62
1
100
AcDbSpline
 70
8
 71
3
 72
8
 73
4
 74
0
 40
0
 40
0
 40
0
 40
0
 40
1
 40
1
 40
1
 40
1
 10
121.085024
 20
238.840678
 30
0.0
 10
121.626476
 20
239.153285
 30
0.0
 10
121.960024
 20
239.731007
 30
0.0
 10
121.960024
 20
240.356222
 30
0.0
  0
LINE
  5
1f6
100
AcDbEntity
  8
Layer_1
 62
1
100
AcDbLine
 10
121.960024
 20
240.356222
 30
0.0
 11
121.960025
 21
240.356222
 31
0.0
  0
SPLINE
  5
1f7
100
AcDbEntity
  8
Layer_1
 62
1
100
AcDbSpline
 70
8
 71
3
 72
8
 73
4
 74
0
 40
0
 40
0
 40
0
 40
0
 40
1
 40
1
 40
1
 40
1
 10
131.960025
 20
240.356222
 30
0.0
 10
131.960527
 20
240.981771
 30
0.0
 10
131.627089
 20
241.560018
 30
0.0
 10
131.085431
 20
241.872938
 30
0.0
  0
SPLINE
  5
1f8
100
AcDbEntity
  8
Layer_1
 62
1
100
AcDbSpline
 70
8
 71
3
 72
8
 73
4
 74
0
 40
0
 40
0
 40
0
 40
0
 40
1
 40
1
 40
1
 40
1
 10
131.085431
 20
241.872938
 30
0.0
 10
130.543773
 20
242.185857
 30
0.0
 10
129.876278
 20
242.185857
 30
0.0
 10
129.334620
 20
241.872938
 30
0.0
  0
SPLINE
  5
1f9
100
AcDbEntity
  8
Layer_1
 62
1
100
AcDbSpline
 70
8
 71
3
 72
8
 73
4
 74
0
 40
0
 40
0
 40
0
 40
0
 40
1
 40
1
 40
1
 40
1
 10
129.334620
 20
241.872938
 30
0.0
 10
128.792962
 20
241.560018
 30
0.0
 10
128.459523
 20
240.981771
 30
0.0
 10
128.460026
 20
240.356222
 30
0.0
  0
SPLINE
  5
1fa
100
AcDbEntity
  8
Layer_1
 62
1
100
AcDbSpline
 70
8
 71
3
 72
8
 73
4
 74
0
 40
0
 40
0
 40
0
 40
0
 40
1
 40
1
 40
1
 40
1
 10
128.460026
 20
240.356222
 30
0.0
 10
128.459523
 20
239.730673
 30
0.0
 10
128.792962
 20
239.152426
 30
0.0
 10
129.334620
 20
238.839506
 30
0.0
  0
SPLINE
  5
1fb
100
AcDbEntity
  8
Layer_1
 62
1
100
AcDbSpline
 70
8
 71
3
 72
8
 73
4
 74
0
 40
0
 40
0
 40
0
 40
0
 40
1
 40
1
 40
1
 40
1
 10
129.334620
 20
238.839506
 30
0.0
 10
129.876278
 20
238.526587
 30
0.0
 10
130.543773
 20
238.526587
 30
0.0
 10
131.085431
 20
238.839506
 30
0.0
  0
SPLINE
  5
1fc
100
AcDbEntity
  8
Layer_1
 62
1
100
AcDbSpline
 70
8
 71
3
 72
8
 73
4
 74
0
 40
0
 40
0
 40
0
 40
0
 40
1
 40
1
 40
1
 40
1
 10
131.085431
 20
238.839506
 30
0.0
 10
131.627089
 20
239.152426
 30
0.0
 10
131.960527
 20
239.730673
 30
0.0
 10
131.960025
 20
240.356222
 30
0.0
  0
LINE
  5
1fd
100
AcDbEntity
  8
Layer_1
 62
1
100
AcDbLine
 10
131.960025
 20
240.356222
 30
0.0
 11
131.960025
 21
240.356222
 31
0.0
  0
SPLINE
  5
1fe
100
AcDbEntity
  8
Layer_1
 62
1
100
AcDbSpline
 70
8
 71
3
 72
8
 73
4
 74
0
 40
0
 40
0
 40
0
 40
0
 40
1
 40
1
 40
1
 40
1
 10
131.960025
 20
260.356210
 30
0.0
 10
131.960527
 20
260.981760
 30
0.0
 10
131.627089
 20
261.560006
 30
0.0
 10
131.085431
 20
261.872926
 30
0.0
  0
SPLINE
  5
1ff
100
AcDbEntity
  8
Layer_1
 62
1
100
AcDbSpline
 70
8
 71
3
 72
8
 73
4
 74
0
 40
0
 40
0
 40
0
 40
0
 40
1
 40
1
 40
1
 40
1
 10
131.085431
 20
261.872926
 30
0.0
 10
130.543773
 20
262.185846
 30
0.0
 10
129.876278
 20
262.185846
 30
0.0
 10
129.334620
 20
261.872926
 30
0.0
  0
SPLINE
  5
200
100
AcDbEntity
  8
Layer_1
 62
1
100
AcDbSpline
 70
8
 71
3
 72
8
 73
4
 74
0
 40
0
 40
0
 40
0
 40
0
 40
1
 40
1
 40
1
 40
1
 10
129.334620
 20
261.872926
 30
0.0
 10
128.792962
 20
261.560006
 30
0.0
 10
128.459523
 20
260.981760
 30
0.0
 10
128.460026
 20
260.356210
 30
0.0
  0
SPLINE
  5
201
100
AcDbEntity
  8
Layer_1
 62
1
100
AcDbSpline
 70
8
 71
3
 72
8
 73
4
 74
0
 40
0
 40
0
 40
0
 40
0
 40
1
 40
1
 40
1
 40
1
 10
128.460026
 20
260.356210
 30
0.0
 10
128.459523
 20
259.730661
 30
0.0
 10
128.792962
 20
259.152414
 30
0.0
 10
129.334620
 20
258.839495
 30
0.0
  0
SPLINE
  5
202
100
AcDbEntity
  8
Layer_1
 62
1
100
AcDbSpline
 70
8
 71
3
 72
8
 73
4
 74
0
 40
0
 40
0
 40
0
 40
0
 40
1
 40
1
 40
1
 40
1
 10
129.334620
 20
258.839495
 30
0.0
 10
129.876278
 20
258.526575
 30
0.0
 10
130.543773
 20
258.526575
 30
0.0
 10
131.085431
 20
258.839495
 30
0.0
  0
SPLINE
  5
203
100
AcDbEntity
  8
Layer_1
 62
1
100
AcDbSpline
 70
8
 71
3
 72
8
 73
4
 74
0
 40
0
 40
0
 40
0
 40
0
 40
1
 40
1
 40
1
 40
1
 10
131.085431
 20
258.839495
 30
0.0
 10
131.627089
 20
259.152414
 30
0.0
 10
131.960527
 20
259.730661
 30
0.0
 10
131.960025
 20
260.356210
 30
0.0
  0
LINE
  5
204
100
AcDbEntity
  8
Layer_1
 62
1
100
AcDbLine
 10
131.960025
 20
260.356210
 30
0.0
 11
131.960025
 21
260.356210
 31
0.0
  0
SPLINE
  5
205
100
AcDbEntity
  8
Layer_1
 62
1
100
AcDbSpline
 70
8
 71
3
 72
8
 73
4
 74
0
 40
0
 40
0
 40
0
 40
0
 40
1
 40
1
 40
1
 40
1
 10
131.960025
 20
280.356221
 30
0.0
 10
131.960527
 20
280.981770
 30
0.0
 10
131.627089
 20
281.560017
 30
0.0
 10
131.085431
 20
281.872937
 30
0.0
  0
SPLINE
  5
206
100
AcDbEntity
  8
Layer_1
 62
1
100
AcDbSpline
 70
8
 71
3
 72
8
 73
4
 74
0
 40
0
 40
0
 40
0
 40
0
 40
1
 40
1
 40
1
 40
1
 10
131.085431
 20
281.872937
 30
0.0
 10
130.543773
 20
282.185856
 30
0.0
 10
129.876278
 20
282.185856
 30
0.0
 10
129.334620
 20
281.872937
 30
0.0
  0
SPLINE
  5
207
100
AcDbEntity
  8
Layer_1
 62
1
100
AcDbSpline
 70
8
 71
3
 72
8
 73
4
 74
0
 40
0
 40
0
 40
0
 40
0
 40
1
 40
1
 40
1
 40
1
 10
129.334620
 20
281.872937
 30
0.0
 10
128.792962
 20
281.560017
 30
0.0
 10
128.459523
 20
280.981770
 30
0.0
 10
128.460026
 20
280.356221
 30
0.0
  0
SPLINE
  5
208
100
AcDbEntity
  8
Layer_1
 62
1
100
AcDbSpline
 70
8
 71
3
 72
8
 73
4
 74
0
 40
0
 40
0
 40
0
 40
0
 40
1
 40
1
 40
1
 40
1
 10
128.460026
 20
280.356221
 30
0.0
 10
128.459523
 20
279.730672
 30
0.0
 10
128.792962
 20
279.152425
 30
0.0
 10
129.334620
 20
278.839505
 30
0.0
  0
SPLINE
  5
209
100
AcDbEntity
  8
Layer_1
 62
1
100
AcDbSpline
 70
8
 71
3
 72
8
 73
4
 74
0
 40
0
 40
0
 40
0
 40
0
 40
1
 40
1
 40
1
 40
1
 10
129.334620
 20
278.839505
 30
0.0
 10
129.876278
 20
278.526586
 30
0.0
 10
130.543773
 20
278.526586
 30
0.0
 10
131.085431
 20
278.839505
 30
0.0
  0
SPLINE
  5
20a
100
AcDbEntity
  8
Layer_1
 62
1
100
AcDbSpline
 70
8
 71
3
 72
8
 73
4
 74
0
 40
0
 40
0
 40
0
 40
0
 40
1
 40
1
 40
1
 40
1
 10
131.085431
 20
278.839505
 30
0.0
 10
131.627089
 20
279.152425
 30
0.0
 10
131.960527
 20
279.730672
 30
0.0
 10
131.960025
 20
280.356221
 30
0.0
  0
LINE
  5
20b
100
AcDbEntity
  8
Layer_1
 62
1
100
AcDbLine
 10
131.960025
 20
280.356221
 30
0.0
 11
131.960025
 21
280.356221
 31
0.0
  0
ENDSEC
  0
SECTION
  2
OBJECTS
  0
DICTIONARY
  5
C
330
0
100
AcDbDictionary
  3
ACAD_GROUP
350
D
  3
ACAD_MLINESTYLE
350
17
  0
DICTIONARY
  5
D
330
C
100
AcDbDictionary
  0
DICTIONARY
  5
1A
330
C
100
AcDbDictionary
  0
DICTIONARY
  5
17
330
C
100
AcDbDictionary
  3
STANDARD
350
18
  0
DICTIONARY
  5
19
330
C
100
AcDbDictionary
  0
ENDSEC
  0
EOF
