<?xml version="1.0" encoding="UTF-8" standalone="no"?>
<!-- Created with Inkscape (http://www.inkscape.org/) -->

<svg
   xmlns:dc="http://purl.org/dc/elements/1.1/"
   xmlns:cc="http://creativecommons.org/ns#"
   xmlns:rdf="http://www.w3.org/1999/02/22-rdf-syntax-ns#"
   xmlns:svg="http://www.w3.org/2000/svg"
   xmlns="http://www.w3.org/2000/svg"
   xmlns:sodipodi="http://sodipodi.sourceforge.net/DTD/sodipodi-0.dtd"
   xmlns:inkscape="http://www.inkscape.org/namespaces/inkscape"
   width="210mm"
   height="297mm"
   viewBox="0 0 744.09448819 1052.3622047"
   id="svg2"
   version="1.1"
   inkscape:version="0.91pre4 r13712"
   sodipodi:docname="all.svg">
  <defs
     id="defs4">
    <marker
       orient="auto"
       id="DistanceX"
       style="overflow:visible"
       refX="0.0"
       refY="0.0">
      <path
         id="path3343"
         d="M 3,-3 L -3,3 M 0,-5 L  0,5"
         style="stroke:#000000; stroke-width:0.5" />
    </marker>
    <pattern
       id="Hatch"
       x="0"
       y="0"
       patternUnits="userSpaceOnUse"
       width="8"
       height="8">
      <path
         id="path3346"
         d="M8 4 l-4,4"
         stroke-width="0.25"
         stroke="#000000"
         linecap="square" />
      <path
         id="path3348"
         d="M6 2 l-4,4"
         stroke-width="0.25"
         stroke="#000000"
         linecap="square" />
      <path
         id="path3350"
         d="M4 0 l-4,4"
         stroke-width="0.25"
         stroke="#000000"
         linecap="square" />
    </pattern>
    <symbol
       id="*MODEL_SPACE" />
    <symbol
       id="*PAPER_SPACE" />
  </defs>
  <sodipodi:namedview
     id="base"
     pagecolor="#ffffff"
     bordercolor="#666666"
     borderopacity="1.0"
     inkscape:pageopacity="0.0"
     inkscape:pageshadow="2"
     inkscape:zoom="1.979899"
     inkscape:cx="487.35074"
     inkscape:cy="425.5921"
     inkscape:document-units="px"
     inkscape:current-layer="g3354"
     showgrid="false"
     inkscape:window-width="1920"
     inkscape:window-height="1017"
     inkscape:window-x="-8"
     inkscape:window-y="-8"
     inkscape:window-maximized="1" />
  <metadata
     id="metadata7">
    <rdf:RDF>
      <cc:Work
         rdf:about="">
        <dc:format>image/svg+xml</dc:format>
        <dc:type
           rdf:resource="http://purl.org/dc/dcmitype/StillImage" />
        <dc:title></dc:title>
      </cc:Work>
    </rdf:RDF>
  </metadata>
  <g
     inkscape:label="Layer 1"
     inkscape:groupmode="layer"
     id="layer1">
    <g
       id="g3354"
       inkscape:label="0"
       transform="translate(318.26772,-388.78515)">
      <path
         id="path3356"
         d="m 283.46457,1052.3622 -283.46457,0 0,-233.85826 283.46457,0 0,233.85826 z"
         style="fill:none;stroke:#000000"
         inkscape:connector-curvature="0" />
      <path
         id="path3362"
         d="m 102.75591,853.93701 -85.039375,0 0,35.43307 85.039375,0 0,-35.43307 z"
         style="fill:none;stroke:#0000ff"
         inkscape:connector-curvature="0" />
      <path
         id="path3364"
         d="m 38.976378,901.77165 a 5.314961,5.314961 0 1 0 -10.629921,0 5.314961,5.314961 0 1 0 10.629921,0 z"
         style="fill:none;stroke:#0000ff"
         inkscape:connector-curvature="0" />
      <path
         id="path3370"
         d="m 92.125984,901.77165 a 5.314961,5.314961 0 1 0 -10.629921,0 5.314961,5.314961 0 1 0 10.629921,0 z"
         style="fill:none;stroke:#0000ff"
         inkscape:connector-curvature="0" />
      <path
         id="path3372"
         d="m 38.976378,841.53543 a 5.314961,5.314961 0 1 0 -10.629921,0 5.314961,5.314961 0 1 0 10.629921,0 z"
         style="fill:none;stroke:#0000ff"
         inkscape:connector-curvature="0" />
      <path
         id="path3374"
         d="m 92.125984,841.53543 a 5.314961,5.314961 0 1 0 -10.629921,0 5.314961,5.314961 0 1 0 10.629921,0 z"
         style="fill:none;stroke:#0000ff"
         inkscape:connector-curvature="0" />
      <path
         id="path3376"
         d="m 102.75591,1016.9291 -85.039375,0 0,-35.43304 85.039375,0 0,35.43304 z"
         style="fill:none;stroke:#0000ff"
         inkscape:connector-curvature="0" />
      <path
         id="path3380"
         d="m 92.125984,1029.3307 a 5.314961,5.314961 0 1 0 -10.629921,0 5.314961,5.314961 0 1 0 10.629921,0 z"
         style="fill:none;stroke:#0000ff"
         inkscape:connector-curvature="0" />
      <path
         id="path3382"
         d="m 92.125984,969.09449 a 5.314961,5.314961 0 1 0 -10.629921,0 5.314961,5.314961 0 1 0 10.629921,0 z"
         style="fill:none;stroke:#0000ff"
         inkscape:connector-curvature="0" />
      <path
         id="path3384"
         d="m 38.976378,1029.3307 a 5.314961,5.314961 0 1 0 -10.629921,0 5.314961,5.314961 0 1 0 10.629921,0 z"
         style="fill:none;stroke:#0000ff"
         inkscape:connector-curvature="0" />
      <path
         id="path3388"
         d="m 38.976378,969.09449 a 5.314961,5.314961 0 1 0 -10.629921,0 5.314961,5.314961 0 1 0 10.629921,0 z"
         style="fill:none;stroke:#0000ff"
         inkscape:connector-curvature="0" />
      <path
         id="path3390"
         d="m 201.9685,1029.3307 a 5.314961,5.314961 0 1 0 -10.62992,0 5.314961,5.314961 0 1 0 10.62992,0 z"
         style="fill:none;stroke:#0000ff"
         inkscape:connector-curvature="0" />
      <path
         id="path3392"
         d="m 201.9685,841.53543 a 5.314961,5.314961 0 1 0 -10.62992,0 5.314961,5.314961 0 1 0 10.62992,0 z"
         style="fill:none;stroke:#0000ff"
         inkscape:connector-curvature="0" />
      <path
         id="path3394"
         d="m 180.70866,889.37008 0,-35.43307 85.03937,0 0,35.43307 -85.03937,0 z"
         style="fill:none;stroke:#0000ff"
         inkscape:connector-curvature="0" />
      <path
         id="path3396"
         d="m 201.9685,901.77165 a 5.314961,5.314961 0 1 0 -10.62992,0 5.314961,5.314961 0 1 0 10.62992,0 z"
         style="fill:none;stroke:#0000ff"
         inkscape:connector-curvature="0" />
      <path
         id="path3398"
         d="m 180.70866,981.49606 0,35.43304 85.03937,0 0,-35.43304 -85.03937,0 z"
         style="fill:none;stroke:#0000ff"
         inkscape:connector-curvature="0" />
      <path
         id="path3400"
         d="m 201.9685,969.09449 a 5.314961,5.314961 0 1 0 -10.62992,0 5.314961,5.314961 0 1 0 10.62992,0 z"
         style="fill:none;stroke:#0000ff"
         inkscape:connector-curvature="0" />
      <path
         id="path3402"
         d="m 255.11811,841.53543 a 5.314961,5.314961 0 1 0 -10.62992,0 5.314961,5.314961 0 1 0 10.62992,0 z"
         style="fill:none;stroke:#0000ff"
         inkscape:connector-curvature="0" />
      <path
         id="path3404"
         d="m 255.11811,901.77165 a 5.314961,5.314961 0 1 0 -10.62992,0 5.314961,5.314961 0 1 0 10.62992,0 z"
         style="fill:none;stroke:#0000ff"
         inkscape:connector-curvature="0" />
      <path
         id="path3410"
         d="m 255.11811,1029.3307 a 5.314961,5.314961 0 1 0 -10.62992,0 5.314961,5.314961 0 1 0 10.62992,0 z"
         style="fill:none;stroke:#0000ff"
         inkscape:connector-curvature="0" />
      <path
         id="path3416"
         d="m 255.11811,969.09449 a 5.314961,5.314961 0 1 0 -10.62992,0 5.314961,5.314961 0 1 0 10.62992,0 z"
         style="fill:none;stroke:#0000ff"
         inkscape:connector-curvature="0" />
      <path
         id="path3418"
         d="m 66.437008,917.71654 a 6.2007875,6.2007875 0 1 0 -12.401575,0 6.2007875,6.2007875 0 1 0 12.401575,0 z"
         style="fill:none;stroke:#0000ff"
         inkscape:connector-curvature="0" />
      <path
         id="path3420"
         d="m 66.437008,953.14961 a 6.2007875,6.2007875 0 1 0 -12.401575,0 6.2007875,6.2007875 0 1 0 12.401575,0 z"
         style="fill:none;stroke:#0000ff"
         inkscape:connector-curvature="0" />
      <path
         id="path3422"
         d="m 229.42913,917.71654 a 6.2007875,6.2007875 0 1 0 -12.40157,0 6.2007875,6.2007875 0 1 0 12.40157,0 z"
         style="fill:none;stroke:#0000ff"
         inkscape:connector-curvature="0" />
      <path
         id="path3424"
         d="m 229.42913,953.14961 a 6.2007875,6.2007875 0 1 0 -12.40157,0 6.2007875,6.2007875 0 1 0 12.40157,0 z"
         style="fill:none;stroke:#0000ff"
         inkscape:connector-curvature="0" />
    </g>
  </g>
</svg>
