<?xml version="1.0" encoding="UTF-8" standalone="no"?>
<!-- Created with Inkscape (http://www.inkscape.org/) -->

<svg
   xmlns:dc="http://purl.org/dc/elements/1.1/"
   xmlns:cc="http://creativecommons.org/ns#"
   xmlns:rdf="http://www.w3.org/1999/02/22-rdf-syntax-ns#"
   xmlns:svg="http://www.w3.org/2000/svg"
   xmlns="http://www.w3.org/2000/svg"
   xmlns:sodipodi="http://sodipodi.sourceforge.net/DTD/sodipodi-0.dtd"
   xmlns:inkscape="http://www.inkscape.org/namespaces/inkscape"
   width="210mm"
   height="297mm"
   viewBox="0 0 744.09448819 1052.3622047"
   id="svg2"
   version="1.1"
   inkscape:version="0.91pre4 r13712"
   sodipodi:docname="Carriage.svg">
  <defs
     id="defs4">
    <marker
       orient="auto"
       id="DistanceX"
       style="overflow:visible"
       refX="0.0"
       refY="0.0">
      <path
         id="path3343"
         d="M 3,-3 L -3,3 M 0,-5 L  0,5"
         style="stroke:#000000; stroke-width:0.5" />
    </marker>
    <pattern
       id="Hatch"
       x="0"
       y="0"
       patternUnits="userSpaceOnUse"
       width="8"
       height="8">
      <path
         id="path3346"
         d="M8 4 l-4,4"
         stroke-width="0.25"
         stroke="#000000"
         linecap="square" />
      <path
         id="path3348"
         d="M6 2 l-4,4"
         stroke-width="0.25"
         stroke="#000000"
         linecap="square" />
      <path
         id="path3350"
         d="M4 0 l-4,4"
         stroke-width="0.25"
         stroke="#000000"
         linecap="square" />
    </pattern>
    <symbol
       id="*MODEL_SPACE" />
    <symbol
       id="*PAPER_SPACE" />
    <marker
       orient="auto"
       id="DistanceX-3"
       style="overflow:visible"
       refX="0.0"
       refY="0.0">
      <path
         id="path3430"
         d="M 3,-3 L -3,3 M 0,-5 L  0,5"
         style="stroke:#000000; stroke-width:0.5" />
    </marker>
    <pattern
       id="Hatch-7"
       x="0"
       y="0"
       patternUnits="userSpaceOnUse"
       width="8"
       height="8">
      <path
         id="path3433"
         d="M8 4 l-4,4"
         stroke-width="0.25"
         stroke="#000000"
         linecap="square" />
      <path
         id="path3435"
         d="M6 2 l-4,4"
         stroke-width="0.25"
         stroke="#000000"
         linecap="square" />
      <path
         id="path3437"
         d="M4 0 l-4,4"
         stroke-width="0.25"
         stroke="#000000"
         linecap="square" />
    </pattern>
    <symbol
       id="*MODEL_SPACE-4" />
    <symbol
       id="*PAPER_SPACE-1" />
    <marker
       orient="auto"
       id="DistanceX-6"
       style="overflow:visible"
       refX="0.0"
       refY="0.0">
      <path
         id="path3523"
         d="M 3,-3 L -3,3 M 0,-5 L  0,5"
         style="stroke:#000000; stroke-width:0.5" />
    </marker>
    <pattern
       id="Hatch-8"
       x="0"
       y="0"
       patternUnits="userSpaceOnUse"
       width="8"
       height="8">
      <path
         id="path3526"
         d="M8 4 l-4,4"
         stroke-width="0.25"
         stroke="#000000"
         linecap="square" />
      <path
         id="path3528"
         d="M6 2 l-4,4"
         stroke-width="0.25"
         stroke="#000000"
         linecap="square" />
      <path
         id="path3530"
         d="M4 0 l-4,4"
         stroke-width="0.25"
         stroke="#000000"
         linecap="square" />
    </pattern>
    <symbol
       id="*MODEL_SPACE-3" />
    <symbol
       id="*PAPER_SPACE-17" />
    <marker
       orient="auto"
       id="DistanceX-9"
       style="overflow:visible"
       refX="0.0"
       refY="0.0">
      <path
         id="path3616"
         d="M 3,-3 L -3,3 M 0,-5 L  0,5"
         style="stroke:#000000; stroke-width:0.5" />
    </marker>
    <pattern
       id="Hatch-4"
       x="0"
       y="0"
       patternUnits="userSpaceOnUse"
       width="8"
       height="8">
      <path
         id="path3619"
         d="M8 4 l-4,4"
         stroke-width="0.25"
         stroke="#000000"
         linecap="square" />
      <path
         id="path3621"
         d="M6 2 l-4,4"
         stroke-width="0.25"
         stroke="#000000"
         linecap="square" />
      <path
         id="path3623"
         d="M4 0 l-4,4"
         stroke-width="0.25"
         stroke="#000000"
         linecap="square" />
    </pattern>
    <symbol
       id="*MODEL_SPACE-49" />
    <symbol
       id="*PAPER_SPACE-5" />
    <marker
       orient="auto"
       id="DistanceX-0"
       style="overflow:visible"
       refX="0.0"
       refY="0.0">
      <path
         id="path3709"
         d="M 3,-3 L -3,3 M 0,-5 L  0,5"
         style="stroke:#000000; stroke-width:0.5" />
    </marker>
    <pattern
       id="Hatch-6"
       x="0"
       y="0"
       patternUnits="userSpaceOnUse"
       width="8"
       height="8">
      <path
         id="path3712"
         d="M8 4 l-4,4"
         stroke-width="0.25"
         stroke="#000000"
         linecap="square" />
      <path
         id="path3714"
         d="M6 2 l-4,4"
         stroke-width="0.25"
         stroke="#000000"
         linecap="square" />
      <path
         id="path3716"
         d="M4 0 l-4,4"
         stroke-width="0.25"
         stroke="#000000"
         linecap="square" />
    </pattern>
    <symbol
       id="*MODEL_SPACE-35" />
    <symbol
       id="*PAPER_SPACE-4" />
    <marker
       orient="auto"
       id="DistanceX-4"
       style="overflow:visible"
       refX="0.0"
       refY="0.0">
      <path
         id="path3775"
         d="M 3,-3 L -3,3 M 0,-5 L  0,5"
         style="stroke:#000000; stroke-width:0.5" />
    </marker>
    <pattern
       id="Hatch-46"
       x="0"
       y="0"
       patternUnits="userSpaceOnUse"
       width="8"
       height="8">
      <path
         id="path3778"
         d="M8 4 l-4,4"
         stroke-width="0.25"
         stroke="#000000"
         linecap="square" />
      <path
         id="path3780"
         d="M6 2 l-4,4"
         stroke-width="0.25"
         stroke="#000000"
         linecap="square" />
      <path
         id="path3782"
         d="M4 0 l-4,4"
         stroke-width="0.25"
         stroke="#000000"
         linecap="square" />
    </pattern>
    <symbol
       id="*MODEL_SPACE-1" />
    <symbol
       id="*PAPER_SPACE-3" />
    <marker
       orient="auto"
       id="DistanceX-43"
       style="overflow:visible"
       refX="0.0"
       refY="0.0">
      <path
         id="path3841"
         d="M 3,-3 L -3,3 M 0,-5 L  0,5"
         style="stroke:#000000; stroke-width:0.5" />
    </marker>
    <pattern
       id="Hatch-79"
       x="0"
       y="0"
       patternUnits="userSpaceOnUse"
       width="8"
       height="8">
      <path
         id="path3844"
         d="M8 4 l-4,4"
         stroke-width="0.25"
         stroke="#000000"
         linecap="square" />
      <path
         id="path3846"
         d="M6 2 l-4,4"
         stroke-width="0.25"
         stroke="#000000"
         linecap="square" />
      <path
         id="path3848"
         d="M4 0 l-4,4"
         stroke-width="0.25"
         stroke="#000000"
         linecap="square" />
    </pattern>
    <symbol
       id="*MODEL_SPACE-12" />
    <symbol
       id="*PAPER_SPACE-0" />
  </defs>
  <sodipodi:namedview
     id="base"
     pagecolor="#ffffff"
     bordercolor="#666666"
     borderopacity="1.0"
     inkscape:pageopacity="0.0"
     inkscape:pageshadow="2"
     inkscape:zoom="1.979899"
     inkscape:cx="333.77674"
     inkscape:cy="846.09494"
     inkscape:document-units="px"
     inkscape:current-layer="g3354"
     showgrid="false"
     inkscape:window-width="1920"
     inkscape:window-height="1017"
     inkscape:window-x="-8"
     inkscape:window-y="-8"
     inkscape:window-maximized="1" />
  <metadata
     id="metadata7">
    <rdf:RDF>
      <cc:Work
         rdf:about="">
        <dc:format>image/svg+xml</dc:format>
        <dc:type
           rdf:resource="http://purl.org/dc/dcmitype/StillImage" />
        <dc:title></dc:title>
      </cc:Work>
    </rdf:RDF>
  </metadata>
  <g
     inkscape:label="Layer 1"
     inkscape:groupmode="layer"
     id="layer1">
    <g
       id="g3354"
       inkscape:label="0"
       transform="translate(128.57139,-928.5714)">
      <path
         inkscape:connector-curvature="0"
         id="path3722"
         d="m 103.89626,1060.0838 0,10.6309 -31.89063,0 0,70.8652 31.89063,0 0,10.6309 35.43359,0 0,-10.6309 42.51953,0 0,10.6309 35.43164,0 0,-10.6309 31.89063,0 0,-70.8652 -31.89063,0 0,-10.6309 -35.43164,0 0,10.6309 -42.51953,0 0,-10.6309 -35.43359,0 z"
         style="fill:none;stroke:#000000" />
      <path
         inkscape:connector-curvature="0"
         style="fill:none;stroke:#ff0000"
         d="m 142.87224,1106.1475 a 21.259843,21.259843 0 1 0 -42.51968,0 21.259843,21.259843 0 1 0 42.51968,0 z"
         id="path3728" />
      <path
         inkscape:connector-curvature="0"
         style="fill:none;stroke:#ff0000"
         d="m 220.825,1106.1475 a 21.259845,21.259845 0 1 0 -42.51969,0 21.259845,21.259845 0 0 0 42.51969,0 z"
         id="path3730" />
      <path
         inkscape:connector-curvature="0"
         id="path3788"
         d="m 103.89626,964.31344 0,10.62891 -31.89063,0 0,70.86715 31.89063,0 0,10.6289 35.43359,0 0,-10.6289 42.51953,0 0,10.6289 35.43164,0 0,-10.6289 31.89063,0 0,-70.86715 -31.89063,0 0,-10.62891 -35.43164,0 0,10.62891 -42.51953,0 0,-10.62891 -35.43359,0 z"
         style="fill:none;stroke:#000000" />
      <path
         inkscape:connector-curvature="0"
         style="fill:none;stroke:#ff0000"
         d="m 148.1872,1010.3762 a 26.574803,26.574803 0 1 0 -53.149604,0 26.574803,26.574803 0 0 0 53.149604,0 z"
         id="path3794" />
      <path
         inkscape:connector-curvature="0"
         style="fill:none;stroke:#ff0000"
         d="m 226.13996,1010.3762 a 26.574805,26.574805 0 1 0 -53.14961,0 26.574805,26.574805 0 0 0 53.14961,0 z"
         id="path3796" />
      <path
         inkscape:connector-curvature="0"
         style="fill:none;stroke:#000000"
         d="m 68.75555,1146.0869 -127.55906,0 0,-177.16532 127.55906,0 0,177.16532 z"
         id="path3854" />
      <path
         inkscape:connector-curvature="0"
         style="fill:none;stroke:#ff0000"
         d="m -26.913746,1000.8113 -21.259843,0 0,35.4331 21.259843,0 0,-35.4331 z"
         id="path3856" />
      <path
         inkscape:connector-curvature="0"
         style="fill:none;stroke:#ff0000"
         d="m -26.913746,1078.7641 -21.259843,0 0,35.433 21.259843,0 0,-35.433 z"
         id="path3858" />
      <path
         inkscape:connector-curvature="0"
         style="fill:none;stroke:#ff0000"
         d="m 36.865781,1000.8113 21.259839,0 0,35.4331 -21.259839,0 0,-35.4331 z"
         id="path3862" />
      <path
         inkscape:connector-curvature="0"
         style="fill:none;stroke:#ff0000"
         d="m 36.865781,1114.1971 0,-35.433 21.259839,0 0,35.433 -21.259839,0 z"
         id="path3864" />
      <path
         inkscape:connector-curvature="0"
         style="fill:none;stroke:#ff0000"
         d="m -6.53973,986.63812 a 6.2007875,6.2007875 0 1 0 -12.401575,0 6.2007875,6.2007875 0 0 0 12.401575,0 z"
         id="path3866" />
      <path
         inkscape:connector-curvature="0"
         style="fill:none;stroke:#ff0000"
         d="m -6.53973,1057.5043 a 6.2007875,6.2007875 0 1 0 -12.401575,0 6.2007875,6.2007875 0 0 0 12.401575,0 z"
         id="path3870" />
      <path
         inkscape:connector-curvature="0"
         style="fill:none;stroke:#ff0000"
         d="m -6.53973,1128.3704 a 6.2007875,6.2007875 0 1 0 -12.401575,0 6.2007875,6.2007875 0 0 0 12.401575,0 z"
         id="path3872" />
      <path
         inkscape:connector-curvature="0"
         style="fill:none;stroke:#ff0000"
         d="m 28.89334,1128.3704 a 6.200787,6.200787 0 1 0 -12.401574,0 6.200787,6.200787 0 1 0 12.401574,0 z"
         id="path3874" />
      <path
         inkscape:connector-curvature="0"
         style="fill:none;stroke:#ff0000"
         d="m 28.89334,1057.5043 a 6.200787,6.200787 0 1 0 -12.401574,0 6.200787,6.200787 0 1 0 12.401574,0 z"
         id="path3876" />
      <path
         inkscape:connector-curvature="0"
         style="fill:none;stroke:#ff0000"
         d="m 28.89334,986.63812 a 6.200787,6.200787 0 1 0 -12.401574,0 6.200787,6.200787 0 1 0 12.401574,0 z"
         id="path3878" />
      <path
         inkscape:connector-curvature="0"
         id="path3722-2"
         d="m 414.00642,1060.9911 0,10.6309 -31.89063,0 0,70.8652 31.89063,0 0,10.6309 35.43359,0 0,-10.6309 42.51953,0 0,10.6309 35.43164,0 0,-10.6309 31.89063,0 0,-70.8652 -31.89063,0 0,-10.6309 -35.43164,0 0,10.6309 -42.51953,0 0,-10.6309 -35.43359,0 z"
         style="fill:none;stroke:#000000" />
      <path
         inkscape:connector-curvature="0"
         style="fill:none;stroke:#ff0000"
         d="m 452.9824,1107.0548 a 21.259843,21.259843 0 1 0 -42.51968,0 21.259843,21.259843 0 1 0 42.51968,0 z"
         id="path3728-6" />
      <path
         inkscape:connector-curvature="0"
         style="fill:none;stroke:#ff0000"
         d="m 530.93516,1107.0548 a 21.259845,21.259845 0 1 0 -42.51969,0 21.259845,21.259845 0 0 0 42.51969,0 z"
         id="path3730-9" />
      <path
         inkscape:connector-curvature="0"
         id="path3788-9"
         d="m 414.00642,965.22074 0,10.62891 -31.89063,0 0,70.86715 31.89063,0 0,10.6289 35.43359,0 0,-10.6289 42.51953,0 0,10.6289 35.43164,0 0,-10.6289 31.89063,0 0,-70.86715 -31.89063,0 0,-10.62891 -35.43164,0 0,10.62891 -42.51953,0 0,-10.62891 -35.43359,0 z"
         style="fill:none;stroke:#000000" />
      <path
         inkscape:connector-curvature="0"
         style="fill:none;stroke:#ff0000"
         d="m 458.29736,1011.2835 a 26.574803,26.574803 0 1 0 -53.1496,0 26.574803,26.574803 0 0 0 53.1496,0 z"
         id="path3794-2" />
      <path
         inkscape:connector-curvature="0"
         style="fill:none;stroke:#ff0000"
         d="m 536.25012,1011.2835 a 26.574805,26.574805 0 1 0 -53.14961,0 26.574805,26.574805 0 0 0 53.14961,0 z"
         id="path3796-0" />
      <path
         inkscape:connector-curvature="0"
         style="fill:none;stroke:#000000"
         d="m 378.86571,1146.9942 -127.55906,0 0,-177.16532 127.55906,0 0,177.16532 z"
         id="path3854-9" />
      <path
         inkscape:connector-curvature="0"
         style="fill:none;stroke:#ff0000"
         d="m 283.19641,1001.7186 -21.25984,0 0,35.4331 21.25984,0 0,-35.4331 z"
         id="path3856-2" />
      <path
         inkscape:connector-curvature="0"
         style="fill:none;stroke:#ff0000"
         d="m 283.19641,1079.6714 -21.25984,0 0,35.433 21.25984,0 0,-35.433 z"
         id="path3858-1" />
      <path
         inkscape:connector-curvature="0"
         style="fill:none;stroke:#ff0000"
         d="m 346.97594,1001.7186 21.25984,0 0,35.4331 -21.25984,0 0,-35.4331 z"
         id="path3862-4" />
      <path
         inkscape:connector-curvature="0"
         style="fill:none;stroke:#ff0000"
         d="m 346.97594,1115.1044 0,-35.433 21.25984,0 0,35.433 -21.25984,0 z"
         id="path3864-3" />
      <path
         inkscape:connector-curvature="0"
         style="fill:none;stroke:#ff0000"
         d="m 303.57043,987.54542 a 6.2007875,6.2007875 0 1 0 -12.40158,0 6.2007875,6.2007875 0 0 0 12.40158,0 z"
         id="path3866-7" />
      <path
         inkscape:connector-curvature="0"
         style="fill:none;stroke:#ff0000"
         d="m 303.57043,1058.4116 a 6.2007875,6.2007875 0 1 0 -12.40158,0 6.2007875,6.2007875 0 0 0 12.40158,0 z"
         id="path3870-0" />
      <path
         inkscape:connector-curvature="0"
         style="fill:none;stroke:#ff0000"
         d="m 303.57043,1129.2777 a 6.2007875,6.2007875 0 1 0 -12.40158,0 6.2007875,6.2007875 0 0 0 12.40158,0 z"
         id="path3872-5" />
      <path
         inkscape:connector-curvature="0"
         style="fill:none;stroke:#ff0000"
         d="m 339.0035,1129.2777 a 6.200787,6.200787 0 1 0 -12.40157,0 6.200787,6.200787 0 1 0 12.40157,0 z"
         id="path3874-1" />
      <path
         inkscape:connector-curvature="0"
         style="fill:none;stroke:#ff0000"
         d="m 339.0035,1058.4116 a 6.200787,6.200787 0 1 0 -12.40157,0 6.200787,6.200787 0 1 0 12.40157,0 z"
         id="path3876-8" />
      <path
         inkscape:connector-curvature="0"
         style="fill:none;stroke:#ff0000"
         d="m 339.0035,987.54542 a 6.200787,6.200787 0 1 0 -12.40157,0 6.200787,6.200787 0 1 0 12.40157,0 z"
         id="path3878-3" />
    </g>
  </g>
</svg>
