  0
SECTION
  2
HEADER
  9
$ACADVER
  1
AC1014
  9
$HANDSEED
  5
FFFF
  9
$MEASUREMENT
 70
     1
  0
ENDSEC
  0
SECTION
  2
TABLES
  0
TABLE
  2
VPORT
  5
8
330
0
100
AcDbSymbolTable
 70
     4
  0
VPORT
  5
2E
330
8
100
AcDbSymbolTableRecord
100
AcDbViewportTableRecord
  2
*ACTIVE
 70
     0
 10
0.0
 20
0.0
 11
1.0
 21
1.0
 12
210.0
 22
148.5
 13
0.0
 23
0.0
 14
10.0
 24
10.0
 15
10.0
 25
10.0
 16
0.0
 26
0.0
 36
1.0
 17
0.0
 27
0.0
 37
0.0
 40
341.0
 41
1.24
 42
50.0
 43
0.0
 44
0.0
 50
0.0
 51
0.0
 71
     0
 72
   100
 73
     1
 74
     3
 75
     0
 76
     0
 77
     0
 78
     0
  0
ENDTAB
  0
TABLE
  2
LTYPE
  5
5
330
0
100
AcDbSymbolTable
 70
     1
  0
LTYPE
  5
14
330
5
100
AcDbSymbolTableRecord
100
AcDbLinetypeTableRecord
  2
BYBLOCK
 70
     0
  3

 72
    65
 73
     0
 40
0.0
  0
LTYPE
  5
15
330
5
100
AcDbSymbolTableRecord
100
AcDbLinetypeTableRecord
  2
BYLAYER
 70
     0
  3

 72
    65
 73
     0
 40
0.0
  0
LTYPE
  5
16
330
5
100
AcDbSymbolTableRecord
100
AcDbLinetypeTableRecord
  2
CONTINUOUS
 70
     0
  3
Solid line
 72
    65
 73
     0
 40
0.0
  0
ENDTAB
  0
TABLE
  2
LAYER
  5
2
100
AcDbSymbolTable
 70
2
  0
LAYER
  5
50
100
AcDbSymbolTableRecord
100
AcDbLayerTableRecord
  2
0
 70
0
  6
CONTINUOUS
  0
LAYER
  5
51
100
AcDbSymbolTableRecord
100
AcDbLayerTableRecord
  2
Layer_1
 70
0
  6
CONTINUOUS
  0
ENDTAB
  0
TABLE
  2
STYLE
  5
3
330
0
100
AcDbSymbolTable
 70
     1
  0
STYLE
  5
11
330
3
100
AcDbSymbolTableRecord
100
AcDbTextStyleTableRecord
  2
STANDARD
 70
     0
 40
0.0
 41
1.0
 50
0.0
 71
     0
 42
2.5
  3
txt
  4

  0
ENDTAB
  0
TABLE
  2
VIEW
  5
6
330
0
100
AcDbSymbolTable
 70
     0
  0
ENDTAB
  0
TABLE
  2
UCS
  5
7
330
0
100
AcDbSymbolTable
 70
     0
  0
ENDTAB
  0
TABLE
  2
APPID
  5
9
330
0
100
AcDbSymbolTable
 70
     2
  0
APPID
  5
12
330
9
100
AcDbSymbolTableRecord
100
AcDbRegAppTableRecord
  2
ACAD
 70
     0
  0
ENDTAB
  0
TABLE
  2
DIMSTYLE
  5
A
330
0
100
AcDbSymbolTable
 70
     1
  0
DIMSTYLE
105
27
330
A
100
AcDbSymbolTableRecord
100
AcDbDimStyleTableRecord
  2
ISO-25
 70
     0
  3

  4

  5

  6

  7

 40
1.0
 41
2.5
 42
0.625
 43
3.75
 44
1.25
 45
0.0
 46
0.0
 47
0.0
 48
0.0
140
2.5
141
2.5
142
0.0
143
0.03937007874016
144
1.0
145
0.0
146
1.0
147
0.625
 71
     0
 72
     0
 73
     0
 74
     0
 75
     0
 76
     0
 77
     1
 78
     8
170
     0
171
     3
172
     1
173
     0
174
     0
175
     0
176
     0
177
     0
178
     0
270
     2
271
     2
272
     2
273
     2
274
     3
340
11
275
     0
280
     0
281
     0
282
     0
283
     0
284
     8
285
     0
286
     0
287
     3
288
     0
  0
ENDTAB
  0
TABLE
  2
BLOCK_RECORD
  5
1
330
0
100
AcDbSymbolTable
 70
     1
  0
BLOCK_RECORD
  5
1F
330
1
100
AcDbSymbolTableRecord
100
AcDbBlockTableRecord
  2
*MODEL_SPACE
  0
BLOCK_RECORD
  5
1B
330
1
100
AcDbSymbolTableRecord
100
AcDbBlockTableRecord
  2
*PAPER_SPACE
  0
ENDTAB
  0
ENDSEC
  0
SECTION
  2
BLOCKS
  0
BLOCK
  5
20
330
1F
100
AcDbEntity
  8
0
100
AcDbBlockBegin
  2
*MODEL_SPACE
 70
     0
 10
0.0
 20
0.0
 30
0.0
  3
*MODEL_SPACE
  1

  0
ENDBLK
  5
21
330
1F
100
AcDbEntity
  8
0
100
AcDbBlockEnd
  0
BLOCK
  5
1C
330
1B
100
AcDbEntity
 67
     1
  8
0
100
AcDbBlockBegin
  2
*PAPER_SPACE
  1

  0
ENDBLK
  5
1D
330
1B
100
AcDbEntity
 67
     1
  8
0
100
AcDbBlockEnd
  0
ENDSEC
  0
SECTION
  2
ENTITIES
  0
LINE
  5
100
100
AcDbEntity
  8
Layer_1
 62
7
100
AcDbLine
 10
169.822224
 20
109.723810
 30
0.0
 11
89.822223
 21
109.723810
 31
0.0
  0
LINE
  5
101
100
AcDbEntity
  8
Layer_1
 62
7
100
AcDbLine
 10
89.822223
 20
109.723810
 30
0.0
 11
89.822223
 21
175.723808
 31
0.0
  0
LINE
  5
102
100
AcDbEntity
  8
Layer_1
 62
7
100
AcDbLine
 10
89.822223
 20
175.723808
 30
0.0
 11
169.822224
 21
175.723808
 31
0.0
  0
LINE
  5
103
100
AcDbEntity
  8
Layer_1
 62
7
100
AcDbLine
 10
169.822224
 20
175.723808
 30
0.0
 11
169.822224
 21
109.723810
 31
0.0
  0
LINE
  5
104
100
AcDbEntity
  8
Layer_1
 62
7
100
AcDbLine
 10
169.822224
 20
109.723810
 30
0.0
 11
169.822224
 21
109.723810
 31
0.0
  0
LINE
  5
105
100
AcDbEntity
  8
Layer_1
 62
5
100
AcDbLine
 10
118.822224
 20
165.723808
 30
0.0
 11
94.822223
 21
165.723808
 31
0.0
  0
LINE
  5
106
100
AcDbEntity
  8
Layer_1
 62
5
100
AcDbLine
 10
94.822223
 20
165.723808
 30
0.0
 11
94.822223
 21
155.723809
 31
0.0
  0
LINE
  5
107
100
AcDbEntity
  8
Layer_1
 62
5
100
AcDbLine
 10
94.822223
 20
155.723809
 30
0.0
 11
118.822224
 21
155.723809
 31
0.0
  0
LINE
  5
108
100
AcDbEntity
  8
Layer_1
 62
5
100
AcDbLine
 10
118.822224
 20
155.723809
 30
0.0
 11
118.822224
 21
165.723808
 31
0.0
  0
LINE
  5
109
100
AcDbEntity
  8
Layer_1
 62
5
100
AcDbLine
 10
118.822224
 20
165.723808
 30
0.0
 11
118.822224
 21
165.723808
 31
0.0
  0
SPLINE
  5
10a
100
AcDbEntity
  8
Layer_1
 62
5
100
AcDbSpline
 70
8
 71
3
 72
8
 73
4
 74
0
 40
0
 40
0
 40
0
 40
0
 40
1
 40
1
 40
1
 40
1
 10
100.822223
 20
152.223810
 30
0.0
 10
100.822456
 20
152.759863
 30
0.0
 10
100.536608
 20
153.255297
 30
0.0
 10
100.072411
 20
153.523390
 30
0.0
  0
SPLINE
  5
10b
100
AcDbEntity
  8
Layer_1
 62
5
100
AcDbSpline
 70
8
 71
3
 72
8
 73
4
 74
0
 40
0
 40
0
 40
0
 40
0
 40
1
 40
1
 40
1
 40
1
 10
100.072411
 20
153.523390
 30
0.0
 10
99.608214
 20
153.791484
 30
0.0
 10
99.036232
 20
153.791484
 30
0.0
 10
98.572035
 20
153.523390
 30
0.0
  0
SPLINE
  5
10c
100
AcDbEntity
  8
Layer_1
 62
5
100
AcDbSpline
 70
8
 71
3
 72
8
 73
4
 74
0
 40
0
 40
0
 40
0
 40
0
 40
1
 40
1
 40
1
 40
1
 10
98.572035
 20
153.523390
 30
0.0
 10
98.107838
 20
153.255297
 30
0.0
 10
97.821991
 20
152.759863
 30
0.0
 10
97.822223
 20
152.223810
 30
0.0
  0
SPLINE
  5
10d
100
AcDbEntity
  8
Layer_1
 62
5
100
AcDbSpline
 70
8
 71
3
 72
8
 73
4
 74
0
 40
0
 40
0
 40
0
 40
0
 40
1
 40
1
 40
1
 40
1
 10
97.822223
 20
152.223810
 30
0.0
 10
97.821991
 20
151.687757
 30
0.0
 10
98.107838
 20
151.192323
 30
0.0
 10
98.572035
 20
150.924230
 30
0.0
  0
SPLINE
  5
10e
100
AcDbEntity
  8
Layer_1
 62
5
100
AcDbSpline
 70
8
 71
3
 72
8
 73
4
 74
0
 40
0
 40
0
 40
0
 40
0
 40
1
 40
1
 40
1
 40
1
 10
98.572035
 20
150.924230
 30
0.0
 10
99.036232
 20
150.656136
 30
0.0
 10
99.608214
 20
150.656136
 30
0.0
 10
100.072411
 20
150.924230
 30
0.0
  0
SPLINE
  5
10f
100
AcDbEntity
  8
Layer_1
 62
5
100
AcDbSpline
 70
8
 71
3
 72
8
 73
4
 74
0
 40
0
 40
0
 40
0
 40
0
 40
1
 40
1
 40
1
 40
1
 10
100.072411
 20
150.924230
 30
0.0
 10
100.536608
 20
151.192323
 30
0.0
 10
100.822456
 20
151.687757
 30
0.0
 10
100.822223
 20
152.223810
 30
0.0
  0
LINE
  5
110
100
AcDbEntity
  8
Layer_1
 62
5
100
AcDbLine
 10
100.822223
 20
152.223810
 30
0.0
 11
100.822223
 21
152.223810
 31
0.0
  0
SPLINE
  5
111
100
AcDbEntity
  8
Layer_1
 62
5
100
AcDbSpline
 70
8
 71
3
 72
8
 73
4
 74
0
 40
0
 40
0
 40
0
 40
0
 40
1
 40
1
 40
1
 40
1
 10
115.822223
 20
152.223810
 30
0.0
 10
115.822456
 20
152.759863
 30
0.0
 10
115.536608
 20
153.255297
 30
0.0
 10
115.072411
 20
153.523390
 30
0.0
  0
SPLINE
  5
112
100
AcDbEntity
  8
Layer_1
 62
5
100
AcDbSpline
 70
8
 71
3
 72
8
 73
4
 74
0
 40
0
 40
0
 40
0
 40
0
 40
1
 40
1
 40
1
 40
1
 10
115.072411
 20
153.523390
 30
0.0
 10
114.608214
 20
153.791484
 30
0.0
 10
114.036232
 20
153.791484
 30
0.0
 10
113.572035
 20
153.523390
 30
0.0
  0
SPLINE
  5
113
100
AcDbEntity
  8
Layer_1
 62
5
100
AcDbSpline
 70
8
 71
3
 72
8
 73
4
 74
0
 40
0
 40
0
 40
0
 40
0
 40
1
 40
1
 40
1
 40
1
 10
113.572035
 20
153.523390
 30
0.0
 10
113.107838
 20
153.255297
 30
0.0
 10
112.821991
 20
152.759863
 30
0.0
 10
112.822223
 20
152.223810
 30
0.0
  0
SPLINE
  5
114
100
AcDbEntity
  8
Layer_1
 62
5
100
AcDbSpline
 70
8
 71
3
 72
8
 73
4
 74
0
 40
0
 40
0
 40
0
 40
0
 40
1
 40
1
 40
1
 40
1
 10
112.822223
 20
152.223810
 30
0.0
 10
112.821991
 20
151.687757
 30
0.0
 10
113.107838
 20
151.192323
 30
0.0
 10
113.572035
 20
150.924230
 30
0.0
  0
SPLINE
  5
115
100
AcDbEntity
  8
Layer_1
 62
5
100
AcDbSpline
 70
8
 71
3
 72
8
 73
4
 74
0
 40
0
 40
0
 40
0
 40
0
 40
1
 40
1
 40
1
 40
1
 10
113.572035
 20
150.924230
 30
0.0
 10
114.036232
 20
150.656136
 30
0.0
 10
114.608214
 20
150.656136
 30
0.0
 10
115.072411
 20
150.924230
 30
0.0
  0
SPLINE
  5
116
100
AcDbEntity
  8
Layer_1
 62
5
100
AcDbSpline
 70
8
 71
3
 72
8
 73
4
 74
0
 40
0
 40
0
 40
0
 40
0
 40
1
 40
1
 40
1
 40
1
 10
115.072411
 20
150.924230
 30
0.0
 10
115.536608
 20
151.192323
 30
0.0
 10
115.822456
 20
151.687757
 30
0.0
 10
115.822223
 20
152.223810
 30
0.0
  0
LINE
  5
117
100
AcDbEntity
  8
Layer_1
 62
5
100
AcDbLine
 10
115.822223
 20
152.223810
 30
0.0
 11
115.822223
 21
152.223810
 31
0.0
  0
SPLINE
  5
118
100
AcDbEntity
  8
Layer_1
 62
5
100
AcDbSpline
 70
8
 71
3
 72
8
 73
4
 74
0
 40
0
 40
0
 40
0
 40
0
 40
1
 40
1
 40
1
 40
1
 10
100.822223
 20
169.223810
 30
0.0
 10
100.822456
 20
169.759863
 30
0.0
 10
100.536608
 20
170.255296
 30
0.0
 10
100.072411
 20
170.523390
 30
0.0
  0
SPLINE
  5
119
100
AcDbEntity
  8
Layer_1
 62
5
100
AcDbSpline
 70
8
 71
3
 72
8
 73
4
 74
0
 40
0
 40
0
 40
0
 40
0
 40
1
 40
1
 40
1
 40
1
 10
100.072411
 20
170.523390
 30
0.0
 10
99.608214
 20
170.791484
 30
0.0
 10
99.036232
 20
170.791484
 30
0.0
 10
98.572035
 20
170.523390
 30
0.0
  0
SPLINE
  5
11a
100
AcDbEntity
  8
Layer_1
 62
5
100
AcDbSpline
 70
8
 71
3
 72
8
 73
4
 74
0
 40
0
 40
0
 40
0
 40
0
 40
1
 40
1
 40
1
 40
1
 10
98.572035
 20
170.523390
 30
0.0
 10
98.107838
 20
170.255296
 30
0.0
 10
97.821991
 20
169.759863
 30
0.0
 10
97.822223
 20
169.223810
 30
0.0
  0
SPLINE
  5
11b
100
AcDbEntity
  8
Layer_1
 62
5
100
AcDbSpline
 70
8
 71
3
 72
8
 73
4
 74
0
 40
0
 40
0
 40
0
 40
0
 40
1
 40
1
 40
1
 40
1
 10
97.822223
 20
169.223810
 30
0.0
 10
97.821991
 20
168.687757
 30
0.0
 10
98.107838
 20
168.192323
 30
0.0
 10
98.572035
 20
167.924229
 30
0.0
  0
SPLINE
  5
11c
100
AcDbEntity
  8
Layer_1
 62
5
100
AcDbSpline
 70
8
 71
3
 72
8
 73
4
 74
0
 40
0
 40
0
 40
0
 40
0
 40
1
 40
1
 40
1
 40
1
 10
98.572035
 20
167.924229
 30
0.0
 10
99.036232
 20
167.656136
 30
0.0
 10
99.608214
 20
167.656136
 30
0.0
 10
100.072411
 20
167.924229
 30
0.0
  0
SPLINE
  5
11d
100
AcDbEntity
  8
Layer_1
 62
5
100
AcDbSpline
 70
8
 71
3
 72
8
 73
4
 74
0
 40
0
 40
0
 40
0
 40
0
 40
1
 40
1
 40
1
 40
1
 10
100.072411
 20
167.924229
 30
0.0
 10
100.536608
 20
168.192323
 30
0.0
 10
100.822456
 20
168.687757
 30
0.0
 10
100.822223
 20
169.223810
 30
0.0
  0
LINE
  5
11e
100
AcDbEntity
  8
Layer_1
 62
5
100
AcDbLine
 10
100.822223
 20
169.223810
 30
0.0
 11
100.822223
 21
169.223810
 31
0.0
  0
SPLINE
  5
11f
100
AcDbEntity
  8
Layer_1
 62
5
100
AcDbSpline
 70
8
 71
3
 72
8
 73
4
 74
0
 40
0
 40
0
 40
0
 40
0
 40
1
 40
1
 40
1
 40
1
 10
115.822223
 20
169.223810
 30
0.0
 10
115.822456
 20
169.759863
 30
0.0
 10
115.536608
 20
170.255296
 30
0.0
 10
115.072411
 20
170.523390
 30
0.0
  0
SPLINE
  5
120
100
AcDbEntity
  8
Layer_1
 62
5
100
AcDbSpline
 70
8
 71
3
 72
8
 73
4
 74
0
 40
0
 40
0
 40
0
 40
0
 40
1
 40
1
 40
1
 40
1
 10
115.072411
 20
170.523390
 30
0.0
 10
114.608214
 20
170.791484
 30
0.0
 10
114.036232
 20
170.791484
 30
0.0
 10
113.572035
 20
170.523390
 30
0.0
  0
SPLINE
  5
121
100
AcDbEntity
  8
Layer_1
 62
5
100
AcDbSpline
 70
8
 71
3
 72
8
 73
4
 74
0
 40
0
 40
0
 40
0
 40
0
 40
1
 40
1
 40
1
 40
1
 10
113.572035
 20
170.523390
 30
0.0
 10
113.107838
 20
170.255296
 30
0.0
 10
112.821991
 20
169.759863
 30
0.0
 10
112.822223
 20
169.223810
 30
0.0
  0
SPLINE
  5
122
100
AcDbEntity
  8
Layer_1
 62
5
100
AcDbSpline
 70
8
 71
3
 72
8
 73
4
 74
0
 40
0
 40
0
 40
0
 40
0
 40
1
 40
1
 40
1
 40
1
 10
112.822223
 20
169.223810
 30
0.0
 10
112.821991
 20
168.687757
 30
0.0
 10
113.107838
 20
168.192323
 30
0.0
 10
113.572035
 20
167.924229
 30
0.0
  0
SPLINE
  5
123
100
AcDbEntity
  8
Layer_1
 62
5
100
AcDbSpline
 70
8
 71
3
 72
8
 73
4
 74
0
 40
0
 40
0
 40
0
 40
0
 40
1
 40
1
 40
1
 40
1
 10
113.572035
 20
167.924229
 30
0.0
 10
114.036232
 20
167.656136
 30
0.0
 10
114.608214
 20
167.656136
 30
0.0
 10
115.072411
 20
167.924229
 30
0.0
  0
SPLINE
  5
124
100
AcDbEntity
  8
Layer_1
 62
5
100
AcDbSpline
 70
8
 71
3
 72
8
 73
4
 74
0
 40
0
 40
0
 40
0
 40
0
 40
1
 40
1
 40
1
 40
1
 10
115.072411
 20
167.924229
 30
0.0
 10
115.536608
 20
168.192323
 30
0.0
 10
115.822456
 20
168.687757
 30
0.0
 10
115.822223
 20
169.223810
 30
0.0
  0
LINE
  5
125
100
AcDbEntity
  8
Layer_1
 62
5
100
AcDbLine
 10
115.822223
 20
169.223810
 30
0.0
 11
115.822223
 21
169.223810
 31
0.0
  0
LINE
  5
126
100
AcDbEntity
  8
Layer_1
 62
5
100
AcDbLine
 10
118.822224
 20
119.723819
 30
0.0
 11
94.822223
 21
119.723819
 31
0.0
  0
LINE
  5
127
100
AcDbEntity
  8
Layer_1
 62
5
100
AcDbLine
 10
94.822223
 20
119.723819
 30
0.0
 11
94.822223
 21
129.723810
 31
0.0
  0
LINE
  5
128
100
AcDbEntity
  8
Layer_1
 62
5
100
AcDbLine
 10
94.822223
 20
129.723810
 30
0.0
 11
118.822224
 21
129.723810
 31
0.0
  0
LINE
  5
129
100
AcDbEntity
  8
Layer_1
 62
5
100
AcDbLine
 10
118.822224
 20
129.723810
 30
0.0
 11
118.822224
 21
119.723819
 31
0.0
  0
LINE
  5
12a
100
AcDbEntity
  8
Layer_1
 62
5
100
AcDbLine
 10
118.822224
 20
119.723819
 30
0.0
 11
118.822224
 21
119.723819
 31
0.0
  0
SPLINE
  5
12b
100
AcDbEntity
  8
Layer_1
 62
5
100
AcDbSpline
 70
8
 71
3
 72
8
 73
4
 74
0
 40
0
 40
0
 40
0
 40
0
 40
1
 40
1
 40
1
 40
1
 10
115.822223
 20
116.223811
 30
0.0
 10
115.822456
 20
116.759865
 30
0.0
 10
115.536608
 20
117.255298
 30
0.0
 10
115.072411
 20
117.523392
 30
0.0
  0
SPLINE
  5
12c
100
AcDbEntity
  8
Layer_1
 62
5
100
AcDbSpline
 70
8
 71
3
 72
8
 73
4
 74
0
 40
0
 40
0
 40
0
 40
0
 40
1
 40
1
 40
1
 40
1
 10
115.072411
 20
117.523392
 30
0.0
 10
114.608214
 20
117.791486
 30
0.0
 10
114.036232
 20
117.791486
 30
0.0
 10
113.572035
 20
117.523392
 30
0.0
  0
SPLINE
  5
12d
100
AcDbEntity
  8
Layer_1
 62
5
100
AcDbSpline
 70
8
 71
3
 72
8
 73
4
 74
0
 40
0
 40
0
 40
0
 40
0
 40
1
 40
1
 40
1
 40
1
 10
113.572035
 20
117.523392
 30
0.0
 10
113.107838
 20
117.255298
 30
0.0
 10
112.821991
 20
116.759865
 30
0.0
 10
112.822223
 20
116.223811
 30
0.0
  0
SPLINE
  5
12e
100
AcDbEntity
  8
Layer_1
 62
5
100
AcDbSpline
 70
8
 71
3
 72
8
 73
4
 74
0
 40
0
 40
0
 40
0
 40
0
 40
1
 40
1
 40
1
 40
1
 10
112.822223
 20
116.223811
 30
0.0
 10
112.821991
 20
115.687758
 30
0.0
 10
113.107838
 20
115.192325
 30
0.0
 10
113.572035
 20
114.924231
 30
0.0
  0
SPLINE
  5
12f
100
AcDbEntity
  8
Layer_1
 62
5
100
AcDbSpline
 70
8
 71
3
 72
8
 73
4
 74
0
 40
0
 40
0
 40
0
 40
0
 40
1
 40
1
 40
1
 40
1
 10
113.572035
 20
114.924231
 30
0.0
 10
114.036232
 20
114.656137
 30
0.0
 10
114.608214
 20
114.656137
 30
0.0
 10
115.072411
 20
114.924231
 30
0.0
  0
SPLINE
  5
130
100
AcDbEntity
  8
Layer_1
 62
5
100
AcDbSpline
 70
8
 71
3
 72
8
 73
4
 74
0
 40
0
 40
0
 40
0
 40
0
 40
1
 40
1
 40
1
 40
1
 10
115.072411
 20
114.924231
 30
0.0
 10
115.536608
 20
115.192325
 30
0.0
 10
115.822456
 20
115.687758
 30
0.0
 10
115.822223
 20
116.223811
 30
0.0
  0
LINE
  5
131
100
AcDbEntity
  8
Layer_1
 62
5
100
AcDbLine
 10
115.822223
 20
116.223811
 30
0.0
 11
115.822223
 21
116.223811
 31
0.0
  0
SPLINE
  5
132
100
AcDbEntity
  8
Layer_1
 62
5
100
AcDbSpline
 70
8
 71
3
 72
8
 73
4
 74
0
 40
0
 40
0
 40
0
 40
0
 40
1
 40
1
 40
1
 40
1
 10
115.822223
 20
133.223808
 30
0.0
 10
115.822456
 20
133.759862
 30
0.0
 10
115.536608
 20
134.255295
 30
0.0
 10
115.072411
 20
134.523389
 30
0.0
  0
SPLINE
  5
133
100
AcDbEntity
  8
Layer_1
 62
5
100
AcDbSpline
 70
8
 71
3
 72
8
 73
4
 74
0
 40
0
 40
0
 40
0
 40
0
 40
1
 40
1
 40
1
 40
1
 10
115.072411
 20
134.523389
 30
0.0
 10
114.608214
 20
134.791483
 30
0.0
 10
114.036232
 20
134.791483
 30
0.0
 10
113.572035
 20
134.523389
 30
0.0
  0
SPLINE
  5
134
100
AcDbEntity
  8
Layer_1
 62
5
100
AcDbSpline
 70
8
 71
3
 72
8
 73
4
 74
0
 40
0
 40
0
 40
0
 40
0
 40
1
 40
1
 40
1
 40
1
 10
113.572035
 20
134.523389
 30
0.0
 10
113.107838
 20
134.255295
 30
0.0
 10
112.821991
 20
133.759862
 30
0.0
 10
112.822223
 20
133.223808
 30
0.0
  0
SPLINE
  5
135
100
AcDbEntity
  8
Layer_1
 62
5
100
AcDbSpline
 70
8
 71
3
 72
8
 73
4
 74
0
 40
0
 40
0
 40
0
 40
0
 40
1
 40
1
 40
1
 40
1
 10
112.822223
 20
133.223808
 30
0.0
 10
112.821991
 20
132.687755
 30
0.0
 10
113.107838
 20
132.192322
 30
0.0
 10
113.572035
 20
131.924228
 30
0.0
  0
SPLINE
  5
136
100
AcDbEntity
  8
Layer_1
 62
5
100
AcDbSpline
 70
8
 71
3
 72
8
 73
4
 74
0
 40
0
 40
0
 40
0
 40
0
 40
1
 40
1
 40
1
 40
1
 10
113.572035
 20
131.924228
 30
0.0
 10
114.036232
 20
131.656134
 30
0.0
 10
114.608214
 20
131.656134
 30
0.0
 10
115.072411
 20
131.924228
 30
0.0
  0
SPLINE
  5
137
100
AcDbEntity
  8
Layer_1
 62
5
100
AcDbSpline
 70
8
 71
3
 72
8
 73
4
 74
0
 40
0
 40
0
 40
0
 40
0
 40
1
 40
1
 40
1
 40
1
 10
115.072411
 20
131.924228
 30
0.0
 10
115.536608
 20
132.192322
 30
0.0
 10
115.822456
 20
132.687755
 30
0.0
 10
115.822223
 20
133.223808
 30
0.0
  0
LINE
  5
138
100
AcDbEntity
  8
Layer_1
 62
5
100
AcDbLine
 10
115.822223
 20
133.223808
 30
0.0
 11
115.822223
 21
133.223808
 31
0.0
  0
SPLINE
  5
139
100
AcDbEntity
  8
Layer_1
 62
5
100
AcDbSpline
 70
8
 71
3
 72
8
 73
4
 74
0
 40
0
 40
0
 40
0
 40
0
 40
1
 40
1
 40
1
 40
1
 10
100.822223
 20
116.223811
 30
0.0
 10
100.822456
 20
116.759865
 30
0.0
 10
100.536608
 20
117.255298
 30
0.0
 10
100.072411
 20
117.523392
 30
0.0
  0
SPLINE
  5
13a
100
AcDbEntity
  8
Layer_1
 62
5
100
AcDbSpline
 70
8
 71
3
 72
8
 73
4
 74
0
 40
0
 40
0
 40
0
 40
0
 40
1
 40
1
 40
1
 40
1
 10
100.072411
 20
117.523392
 30
0.0
 10
99.608214
 20
117.791486
 30
0.0
 10
99.036232
 20
117.791486
 30
0.0
 10
98.572035
 20
117.523392
 30
0.0
  0
SPLINE
  5
13b
100
AcDbEntity
  8
Layer_1
 62
5
100
AcDbSpline
 70
8
 71
3
 72
8
 73
4
 74
0
 40
0
 40
0
 40
0
 40
0
 40
1
 40
1
 40
1
 40
1
 10
98.572035
 20
117.523392
 30
0.0
 10
98.107838
 20
117.255298
 30
0.0
 10
97.821991
 20
116.759865
 30
0.0
 10
97.822223
 20
116.223811
 30
0.0
  0
SPLINE
  5
13c
100
AcDbEntity
  8
Layer_1
 62
5
100
AcDbSpline
 70
8
 71
3
 72
8
 73
4
 74
0
 40
0
 40
0
 40
0
 40
0
 40
1
 40
1
 40
1
 40
1
 10
97.822223
 20
116.223811
 30
0.0
 10
97.821991
 20
115.687758
 30
0.0
 10
98.107838
 20
115.192325
 30
0.0
 10
98.572035
 20
114.924231
 30
0.0
  0
SPLINE
  5
13d
100
AcDbEntity
  8
Layer_1
 62
5
100
AcDbSpline
 70
8
 71
3
 72
8
 73
4
 74
0
 40
0
 40
0
 40
0
 40
0
 40
1
 40
1
 40
1
 40
1
 10
98.572035
 20
114.924231
 30
0.0
 10
99.036232
 20
114.656137
 30
0.0
 10
99.608214
 20
114.656137
 30
0.0
 10
100.072411
 20
114.924231
 30
0.0
  0
SPLINE
  5
13e
100
AcDbEntity
  8
Layer_1
 62
5
100
AcDbSpline
 70
8
 71
3
 72
8
 73
4
 74
0
 40
0
 40
0
 40
0
 40
0
 40
1
 40
1
 40
1
 40
1
 10
100.072411
 20
114.924231
 30
0.0
 10
100.536608
 20
115.192325
 30
0.0
 10
100.822456
 20
115.687758
 30
0.0
 10
100.822223
 20
116.223811
 30
0.0
  0
LINE
  5
13f
100
AcDbEntity
  8
Layer_1
 62
5
100
AcDbLine
 10
100.822223
 20
116.223811
 30
0.0
 11
100.822223
 21
116.223811
 31
0.0
  0
SPLINE
  5
140
100
AcDbEntity
  8
Layer_1
 62
5
100
AcDbSpline
 70
8
 71
3
 72
8
 73
4
 74
0
 40
0
 40
0
 40
0
 40
0
 40
1
 40
1
 40
1
 40
1
 10
100.822223
 20
133.223808
 30
0.0
 10
100.822456
 20
133.759862
 30
0.0
 10
100.536608
 20
134.255295
 30
0.0
 10
100.072411
 20
134.523389
 30
0.0
  0
SPLINE
  5
141
100
AcDbEntity
  8
Layer_1
 62
5
100
AcDbSpline
 70
8
 71
3
 72
8
 73
4
 74
0
 40
0
 40
0
 40
0
 40
0
 40
1
 40
1
 40
1
 40
1
 10
100.072411
 20
134.523389
 30
0.0
 10
99.608214
 20
134.791483
 30
0.0
 10
99.036232
 20
134.791483
 30
0.0
 10
98.572035
 20
134.523389
 30
0.0
  0
SPLINE
  5
142
100
AcDbEntity
  8
Layer_1
 62
5
100
AcDbSpline
 70
8
 71
3
 72
8
 73
4
 74
0
 40
0
 40
0
 40
0
 40
0
 40
1
 40
1
 40
1
 40
1
 10
98.572035
 20
134.523389
 30
0.0
 10
98.107838
 20
134.255295
 30
0.0
 10
97.821991
 20
133.759862
 30
0.0
 10
97.822223
 20
133.223808
 30
0.0
  0
SPLINE
  5
143
100
AcDbEntity
  8
Layer_1
 62
5
100
AcDbSpline
 70
8
 71
3
 72
8
 73
4
 74
0
 40
0
 40
0
 40
0
 40
0
 40
1
 40
1
 40
1
 40
1
 10
97.822223
 20
133.223808
 30
0.0
 10
97.821991
 20
132.687755
 30
0.0
 10
98.107838
 20
132.192322
 30
0.0
 10
98.572035
 20
131.924228
 30
0.0
  0
SPLINE
  5
144
100
AcDbEntity
  8
Layer_1
 62
5
100
AcDbSpline
 70
8
 71
3
 72
8
 73
4
 74
0
 40
0
 40
0
 40
0
 40
0
 40
1
 40
1
 40
1
 40
1
 10
98.572035
 20
131.924228
 30
0.0
 10
99.036232
 20
131.656134
 30
0.0
 10
99.608214
 20
131.656134
 30
0.0
 10
100.072411
 20
131.924228
 30
0.0
  0
SPLINE
  5
145
100
AcDbEntity
  8
Layer_1
 62
5
100
AcDbSpline
 70
8
 71
3
 72
8
 73
4
 74
0
 40
0
 40
0
 40
0
 40
0
 40
1
 40
1
 40
1
 40
1
 10
100.072411
 20
131.924228
 30
0.0
 10
100.536608
 20
132.192322
 30
0.0
 10
100.822456
 20
132.687755
 30
0.0
 10
100.822223
 20
133.223808
 30
0.0
  0
LINE
  5
146
100
AcDbEntity
  8
Layer_1
 62
5
100
AcDbLine
 10
100.822223
 20
133.223808
 30
0.0
 11
100.822223
 21
133.223808
 31
0.0
  0
SPLINE
  5
147
100
AcDbEntity
  8
Layer_1
 62
5
100
AcDbSpline
 70
8
 71
3
 72
8
 73
4
 74
0
 40
0
 40
0
 40
0
 40
0
 40
1
 40
1
 40
1
 40
1
 10
146.822222
 20
116.223811
 30
0.0
 10
146.822551
 20
116.759929
 30
0.0
 10
146.536725
 20
117.255463
 30
0.0
 10
146.072488
 20
117.523616
 30
0.0
  0
SPLINE
  5
148
100
AcDbEntity
  8
Layer_1
 62
5
100
AcDbSpline
 70
8
 71
3
 72
8
 73
4
 74
0
 40
0
 40
0
 40
0
 40
0
 40
1
 40
1
 40
1
 40
1
 10
146.072488
 20
117.523616
 30
0.0
 10
145.608251
 20
117.791770
 30
0.0
 10
145.036193
 20
117.791770
 30
0.0
 10
144.571957
 20
117.523616
 30
0.0
  0
SPLINE
  5
149
100
AcDbEntity
  8
Layer_1
 62
5
100
AcDbSpline
 70
8
 71
3
 72
8
 73
4
 74
0
 40
0
 40
0
 40
0
 40
0
 40
1
 40
1
 40
1
 40
1
 10
144.571957
 20
117.523616
 30
0.0
 10
144.107720
 20
117.255463
 30
0.0
 10
143.821894
 20
116.759929
 30
0.0
 10
143.822222
 20
116.223811
 30
0.0
  0
SPLINE
  5
14a
100
AcDbEntity
  8
Layer_1
 62
5
100
AcDbSpline
 70
8
 71
3
 72
8
 73
4
 74
0
 40
0
 40
0
 40
0
 40
0
 40
1
 40
1
 40
1
 40
1
 10
143.822222
 20
116.223811
 30
0.0
 10
143.821894
 20
115.687694
 30
0.0
 10
144.107720
 20
115.192160
 30
0.0
 10
144.571957
 20
114.924006
 30
0.0
  0
SPLINE
  5
14b
100
AcDbEntity
  8
Layer_1
 62
5
100
AcDbSpline
 70
8
 71
3
 72
8
 73
4
 74
0
 40
0
 40
0
 40
0
 40
0
 40
1
 40
1
 40
1
 40
1
 10
144.571957
 20
114.924006
 30
0.0
 10
145.036193
 20
114.655853
 30
0.0
 10
145.608251
 20
114.655853
 30
0.0
 10
146.072488
 20
114.924006
 30
0.0
  0
SPLINE
  5
14c
100
AcDbEntity
  8
Layer_1
 62
5
100
AcDbSpline
 70
8
 71
3
 72
8
 73
4
 74
0
 40
0
 40
0
 40
0
 40
0
 40
1
 40
1
 40
1
 40
1
 10
146.072488
 20
114.924006
 30
0.0
 10
146.536725
 20
115.192160
 30
0.0
 10
146.822551
 20
115.687694
 30
0.0
 10
146.822222
 20
116.223811
 30
0.0
  0
LINE
  5
14d
100
AcDbEntity
  8
Layer_1
 62
5
100
AcDbLine
 10
146.822222
 20
116.223811
 30
0.0
 11
146.822222
 21
116.223811
 31
0.0
  0
SPLINE
  5
14e
100
AcDbEntity
  8
Layer_1
 62
5
100
AcDbSpline
 70
8
 71
3
 72
8
 73
4
 74
0
 40
0
 40
0
 40
0
 40
0
 40
1
 40
1
 40
1
 40
1
 10
146.822222
 20
169.223810
 30
0.0
 10
146.822551
 20
169.759927
 30
0.0
 10
146.536725
 20
170.255461
 30
0.0
 10
146.072488
 20
170.523615
 30
0.0
  0
SPLINE
  5
14f
100
AcDbEntity
  8
Layer_1
 62
5
100
AcDbSpline
 70
8
 71
3
 72
8
 73
4
 74
0
 40
0
 40
0
 40
0
 40
0
 40
1
 40
1
 40
1
 40
1
 10
146.072488
 20
170.523615
 30
0.0
 10
145.608251
 20
170.791769
 30
0.0
 10
145.036193
 20
170.791769
 30
0.0
 10
144.571957
 20
170.523615
 30
0.0
  0
SPLINE
  5
150
100
AcDbEntity
  8
Layer_1
 62
5
100
AcDbSpline
 70
8
 71
3
 72
8
 73
4
 74
0
 40
0
 40
0
 40
0
 40
0
 40
1
 40
1
 40
1
 40
1
 10
144.571957
 20
170.523615
 30
0.0
 10
144.107720
 20
170.255461
 30
0.0
 10
143.821894
 20
169.759927
 30
0.0
 10
143.822222
 20
169.223810
 30
0.0
  0
SPLINE
  5
151
100
AcDbEntity
  8
Layer_1
 62
5
100
AcDbSpline
 70
8
 71
3
 72
8
 73
4
 74
0
 40
0
 40
0
 40
0
 40
0
 40
1
 40
1
 40
1
 40
1
 10
143.822222
 20
169.223810
 30
0.0
 10
143.821894
 20
168.687692
 30
0.0
 10
144.107720
 20
168.192159
 30
0.0
 10
144.571957
 20
167.924005
 30
0.0
  0
SPLINE
  5
152
100
AcDbEntity
  8
Layer_1
 62
5
100
AcDbSpline
 70
8
 71
3
 72
8
 73
4
 74
0
 40
0
 40
0
 40
0
 40
0
 40
1
 40
1
 40
1
 40
1
 10
144.571957
 20
167.924005
 30
0.0
 10
145.036193
 20
167.655851
 30
0.0
 10
145.608251
 20
167.655851
 30
0.0
 10
146.072488
 20
167.924005
 30
0.0
  0
SPLINE
  5
153
100
AcDbEntity
  8
Layer_1
 62
5
100
AcDbSpline
 70
8
 71
3
 72
8
 73
4
 74
0
 40
0
 40
0
 40
0
 40
0
 40
1
 40
1
 40
1
 40
1
 10
146.072488
 20
167.924005
 30
0.0
 10
146.536725
 20
168.192159
 30
0.0
 10
146.822551
 20
168.687692
 30
0.0
 10
146.822222
 20
169.223810
 30
0.0
  0
LINE
  5
154
100
AcDbEntity
  8
Layer_1
 62
5
100
AcDbLine
 10
146.822222
 20
169.223810
 30
0.0
 11
146.822222
 21
169.223810
 31
0.0
  0
LINE
  5
155
100
AcDbEntity
  8
Layer_1
 62
5
100
AcDbLine
 10
140.822223
 20
155.723809
 30
0.0
 11
140.822223
 21
165.723808
 31
0.0
  0
LINE
  5
156
100
AcDbEntity
  8
Layer_1
 62
5
100
AcDbLine
 10
140.822223
 20
165.723808
 30
0.0
 11
164.822223
 21
165.723808
 31
0.0
  0
LINE
  5
157
100
AcDbEntity
  8
Layer_1
 62
5
100
AcDbLine
 10
164.822223
 20
165.723808
 30
0.0
 11
164.822223
 21
155.723809
 31
0.0
  0
LINE
  5
158
100
AcDbEntity
  8
Layer_1
 62
5
100
AcDbLine
 10
164.822223
 20
155.723809
 30
0.0
 11
140.822223
 21
155.723809
 31
0.0
  0
LINE
  5
159
100
AcDbEntity
  8
Layer_1
 62
5
100
AcDbLine
 10
140.822223
 20
155.723809
 30
0.0
 11
140.822223
 21
155.723809
 31
0.0
  0
SPLINE
  5
15a
100
AcDbEntity
  8
Layer_1
 62
5
100
AcDbSpline
 70
8
 71
3
 72
8
 73
4
 74
0
 40
0
 40
0
 40
0
 40
0
 40
1
 40
1
 40
1
 40
1
 10
146.822222
 20
152.223810
 30
0.0
 10
146.822551
 20
152.759927
 30
0.0
 10
146.536725
 20
153.255461
 30
0.0
 10
146.072488
 20
153.523615
 30
0.0
  0
SPLINE
  5
15b
100
AcDbEntity
  8
Layer_1
 62
5
100
AcDbSpline
 70
8
 71
3
 72
8
 73
4
 74
0
 40
0
 40
0
 40
0
 40
0
 40
1
 40
1
 40
1
 40
1
 10
146.072488
 20
153.523615
 30
0.0
 10
145.608251
 20
153.791769
 30
0.0
 10
145.036193
 20
153.791769
 30
0.0
 10
144.571957
 20
153.523615
 30
0.0
  0
SPLINE
  5
15c
100
AcDbEntity
  8
Layer_1
 62
5
100
AcDbSpline
 70
8
 71
3
 72
8
 73
4
 74
0
 40
0
 40
0
 40
0
 40
0
 40
1
 40
1
 40
1
 40
1
 10
144.571957
 20
153.523615
 30
0.0
 10
144.107720
 20
153.255461
 30
0.0
 10
143.821894
 20
152.759927
 30
0.0
 10
143.822222
 20
152.223810
 30
0.0
  0
SPLINE
  5
15d
100
AcDbEntity
  8
Layer_1
 62
5
100
AcDbSpline
 70
8
 71
3
 72
8
 73
4
 74
0
 40
0
 40
0
 40
0
 40
0
 40
1
 40
1
 40
1
 40
1
 10
143.822222
 20
152.223810
 30
0.0
 10
143.821894
 20
151.687693
 30
0.0
 10
144.107720
 20
151.192159
 30
0.0
 10
144.571957
 20
150.924005
 30
0.0
  0
SPLINE
  5
15e
100
AcDbEntity
  8
Layer_1
 62
5
100
AcDbSpline
 70
8
 71
3
 72
8
 73
4
 74
0
 40
0
 40
0
 40
0
 40
0
 40
1
 40
1
 40
1
 40
1
 10
144.571957
 20
150.924005
 30
0.0
 10
145.036193
 20
150.655851
 30
0.0
 10
145.608251
 20
150.655851
 30
0.0
 10
146.072488
 20
150.924005
 30
0.0
  0
SPLINE
  5
15f
100
AcDbEntity
  8
Layer_1
 62
5
100
AcDbSpline
 70
8
 71
3
 72
8
 73
4
 74
0
 40
0
 40
0
 40
0
 40
0
 40
1
 40
1
 40
1
 40
1
 10
146.072488
 20
150.924005
 30
0.0
 10
146.536725
 20
151.192159
 30
0.0
 10
146.822551
 20
151.687693
 30
0.0
 10
146.822222
 20
152.223810
 30
0.0
  0
LINE
  5
160
100
AcDbEntity
  8
Layer_1
 62
5
100
AcDbLine
 10
146.822222
 20
152.223810
 30
0.0
 11
146.822222
 21
152.223810
 31
0.0
  0
LINE
  5
161
100
AcDbEntity
  8
Layer_1
 62
5
100
AcDbLine
 10
140.822223
 20
129.723810
 30
0.0
 11
140.822223
 21
119.723819
 31
0.0
  0
LINE
  5
162
100
AcDbEntity
  8
Layer_1
 62
5
100
AcDbLine
 10
140.822223
 20
119.723819
 30
0.0
 11
164.822223
 21
119.723819
 31
0.0
  0
LINE
  5
163
100
AcDbEntity
  8
Layer_1
 62
5
100
AcDbLine
 10
164.822223
 20
119.723819
 30
0.0
 11
164.822223
 21
129.723810
 31
0.0
  0
LINE
  5
164
100
AcDbEntity
  8
Layer_1
 62
5
100
AcDbLine
 10
164.822223
 20
129.723810
 30
0.0
 11
140.822223
 21
129.723810
 31
0.0
  0
LINE
  5
165
100
AcDbEntity
  8
Layer_1
 62
5
100
AcDbLine
 10
140.822223
 20
129.723810
 30
0.0
 11
140.822223
 21
129.723810
 31
0.0
  0
SPLINE
  5
166
100
AcDbEntity
  8
Layer_1
 62
5
100
AcDbSpline
 70
8
 71
3
 72
8
 73
4
 74
0
 40
0
 40
0
 40
0
 40
0
 40
1
 40
1
 40
1
 40
1
 10
146.822222
 20
133.223808
 30
0.0
 10
146.822551
 20
133.759926
 30
0.0
 10
146.536725
 20
134.255460
 30
0.0
 10
146.072488
 20
134.523613
 30
0.0
  0
SPLINE
  5
167
100
AcDbEntity
  8
Layer_1
 62
5
100
AcDbSpline
 70
8
 71
3
 72
8
 73
4
 74
0
 40
0
 40
0
 40
0
 40
0
 40
1
 40
1
 40
1
 40
1
 10
146.072488
 20
134.523613
 30
0.0
 10
145.608251
 20
134.791767
 30
0.0
 10
145.036193
 20
134.791767
 30
0.0
 10
144.571957
 20
134.523613
 30
0.0
  0
SPLINE
  5
168
100
AcDbEntity
  8
Layer_1
 62
5
100
AcDbSpline
 70
8
 71
3
 72
8
 73
4
 74
0
 40
0
 40
0
 40
0
 40
0
 40
1
 40
1
 40
1
 40
1
 10
144.571957
 20
134.523613
 30
0.0
 10
144.107720
 20
134.255460
 30
0.0
 10
143.821894
 20
133.759926
 30
0.0
 10
143.822222
 20
133.223808
 30
0.0
  0
SPLINE
  5
169
100
AcDbEntity
  8
Layer_1
 62
5
100
AcDbSpline
 70
8
 71
3
 72
8
 73
4
 74
0
 40
0
 40
0
 40
0
 40
0
 40
1
 40
1
 40
1
 40
1
 10
143.822222
 20
133.223808
 30
0.0
 10
143.821894
 20
132.687691
 30
0.0
 10
144.107720
 20
132.192157
 30
0.0
 10
144.571957
 20
131.924004
 30
0.0
  0
SPLINE
  5
16a
100
AcDbEntity
  8
Layer_1
 62
5
100
AcDbSpline
 70
8
 71
3
 72
8
 73
4
 74
0
 40
0
 40
0
 40
0
 40
0
 40
1
 40
1
 40
1
 40
1
 10
144.571957
 20
131.924004
 30
0.0
 10
145.036193
 20
131.655850
 30
0.0
 10
145.608251
 20
131.655850
 30
0.0
 10
146.072488
 20
131.924004
 30
0.0
  0
SPLINE
  5
16b
100
AcDbEntity
  8
Layer_1
 62
5
100
AcDbSpline
 70
8
 71
3
 72
8
 73
4
 74
0
 40
0
 40
0
 40
0
 40
0
 40
1
 40
1
 40
1
 40
1
 10
146.072488
 20
131.924004
 30
0.0
 10
146.536725
 20
132.192157
 30
0.0
 10
146.822551
 20
132.687691
 30
0.0
 10
146.822222
 20
133.223808
 30
0.0
  0
LINE
  5
16c
100
AcDbEntity
  8
Layer_1
 62
5
100
AcDbLine
 10
146.822222
 20
133.223808
 30
0.0
 11
146.822222
 21
133.223808
 31
0.0
  0
SPLINE
  5
16d
100
AcDbEntity
  8
Layer_1
 62
5
100
AcDbSpline
 70
8
 71
3
 72
8
 73
4
 74
0
 40
0
 40
0
 40
0
 40
0
 40
1
 40
1
 40
1
 40
1
 10
161.822223
 20
169.223810
 30
0.0
 10
161.822552
 20
169.759927
 30
0.0
 10
161.536726
 20
170.255461
 30
0.0
 10
161.072489
 20
170.523615
 30
0.0
  0
SPLINE
  5
16e
100
AcDbEntity
  8
Layer_1
 62
5
100
AcDbSpline
 70
8
 71
3
 72
8
 73
4
 74
0
 40
0
 40
0
 40
0
 40
0
 40
1
 40
1
 40
1
 40
1
 10
161.072489
 20
170.523615
 30
0.0
 10
160.608252
 20
170.791769
 30
0.0
 10
160.036194
 20
170.791769
 30
0.0
 10
159.571958
 20
170.523615
 30
0.0
  0
SPLINE
  5
16f
100
AcDbEntity
  8
Layer_1
 62
5
100
AcDbSpline
 70
8
 71
3
 72
8
 73
4
 74
0
 40
0
 40
0
 40
0
 40
0
 40
1
 40
1
 40
1
 40
1
 10
159.571958
 20
170.523615
 30
0.0
 10
159.107721
 20
170.255461
 30
0.0
 10
158.821895
 20
169.759927
 30
0.0
 10
158.822223
 20
169.223810
 30
0.0
  0
SPLINE
  5
170
100
AcDbEntity
  8
Layer_1
 62
5
100
AcDbSpline
 70
8
 71
3
 72
8
 73
4
 74
0
 40
0
 40
0
 40
0
 40
0
 40
1
 40
1
 40
1
 40
1
 10
158.822223
 20
169.223810
 30
0.0
 10
158.821895
 20
168.687692
 30
0.0
 10
159.107721
 20
168.192159
 30
0.0
 10
159.571958
 20
167.924005
 30
0.0
  0
SPLINE
  5
171
100
AcDbEntity
  8
Layer_1
 62
5
100
AcDbSpline
 70
8
 71
3
 72
8
 73
4
 74
0
 40
0
 40
0
 40
0
 40
0
 40
1
 40
1
 40
1
 40
1
 10
159.571958
 20
167.924005
 30
0.0
 10
160.036194
 20
167.655851
 30
0.0
 10
160.608252
 20
167.655851
 30
0.0
 10
161.072489
 20
167.924005
 30
0.0
  0
SPLINE
  5
172
100
AcDbEntity
  8
Layer_1
 62
5
100
AcDbSpline
 70
8
 71
3
 72
8
 73
4
 74
0
 40
0
 40
0
 40
0
 40
0
 40
1
 40
1
 40
1
 40
1
 10
161.072489
 20
167.924005
 30
0.0
 10
161.536726
 20
168.192159
 30
0.0
 10
161.822552
 20
168.687692
 30
0.0
 10
161.822223
 20
169.223810
 30
0.0
  0
LINE
  5
173
100
AcDbEntity
  8
Layer_1
 62
5
100
AcDbLine
 10
161.822223
 20
169.223810
 30
0.0
 11
161.822223
 21
169.223810
 31
0.0
  0
SPLINE
  5
174
100
AcDbEntity
  8
Layer_1
 62
5
100
AcDbSpline
 70
8
 71
3
 72
8
 73
4
 74
0
 40
0
 40
0
 40
0
 40
0
 40
1
 40
1
 40
1
 40
1
 10
161.822223
 20
152.223810
 30
0.0
 10
161.822552
 20
152.759927
 30
0.0
 10
161.536726
 20
153.255461
 30
0.0
 10
161.072489
 20
153.523615
 30
0.0
  0
SPLINE
  5
175
100
AcDbEntity
  8
Layer_1
 62
5
100
AcDbSpline
 70
8
 71
3
 72
8
 73
4
 74
0
 40
0
 40
0
 40
0
 40
0
 40
1
 40
1
 40
1
 40
1
 10
161.072489
 20
153.523615
 30
0.0
 10
160.608252
 20
153.791769
 30
0.0
 10
160.036194
 20
153.791769
 30
0.0
 10
159.571958
 20
153.523615
 30
0.0
  0
SPLINE
  5
176
100
AcDbEntity
  8
Layer_1
 62
5
100
AcDbSpline
 70
8
 71
3
 72
8
 73
4
 74
0
 40
0
 40
0
 40
0
 40
0
 40
1
 40
1
 40
1
 40
1
 10
159.571958
 20
153.523615
 30
0.0
 10
159.107721
 20
153.255461
 30
0.0
 10
158.821895
 20
152.759927
 30
0.0
 10
158.822223
 20
152.223810
 30
0.0
  0
SPLINE
  5
177
100
AcDbEntity
  8
Layer_1
 62
5
100
AcDbSpline
 70
8
 71
3
 72
8
 73
4
 74
0
 40
0
 40
0
 40
0
 40
0
 40
1
 40
1
 40
1
 40
1
 10
158.822223
 20
152.223810
 30
0.0
 10
158.821895
 20
151.687693
 30
0.0
 10
159.107721
 20
151.192159
 30
0.0
 10
159.571958
 20
150.924005
 30
0.0
  0
SPLINE
  5
178
100
AcDbEntity
  8
Layer_1
 62
5
100
AcDbSpline
 70
8
 71
3
 72
8
 73
4
 74
0
 40
0
 40
0
 40
0
 40
0
 40
1
 40
1
 40
1
 40
1
 10
159.571958
 20
150.924005
 30
0.0
 10
160.036194
 20
150.655851
 30
0.0
 10
160.608252
 20
150.655851
 30
0.0
 10
161.072489
 20
150.924005
 30
0.0
  0
SPLINE
  5
179
100
AcDbEntity
  8
Layer_1
 62
5
100
AcDbSpline
 70
8
 71
3
 72
8
 73
4
 74
0
 40
0
 40
0
 40
0
 40
0
 40
1
 40
1
 40
1
 40
1
 10
161.072489
 20
150.924005
 30
0.0
 10
161.536726
 20
151.192159
 30
0.0
 10
161.822552
 20
151.687693
 30
0.0
 10
161.822223
 20
152.223810
 30
0.0
  0
LINE
  5
17a
100
AcDbEntity
  8
Layer_1
 62
5
100
AcDbLine
 10
161.822223
 20
152.223810
 30
0.0
 11
161.822223
 21
152.223810
 31
0.0
  0
SPLINE
  5
17b
100
AcDbEntity
  8
Layer_1
 62
5
100
AcDbSpline
 70
8
 71
3
 72
8
 73
4
 74
0
 40
0
 40
0
 40
0
 40
0
 40
1
 40
1
 40
1
 40
1
 10
161.822223
 20
116.223811
 30
0.0
 10
161.822552
 20
116.759929
 30
0.0
 10
161.536726
 20
117.255463
 30
0.0
 10
161.072489
 20
117.523616
 30
0.0
  0
SPLINE
  5
17c
100
AcDbEntity
  8
Layer_1
 62
5
100
AcDbSpline
 70
8
 71
3
 72
8
 73
4
 74
0
 40
0
 40
0
 40
0
 40
0
 40
1
 40
1
 40
1
 40
1
 10
161.072489
 20
117.523616
 30
0.0
 10
160.608252
 20
117.791770
 30
0.0
 10
160.036194
 20
117.791770
 30
0.0
 10
159.571958
 20
117.523616
 30
0.0
  0
SPLINE
  5
17d
100
AcDbEntity
  8
Layer_1
 62
5
100
AcDbSpline
 70
8
 71
3
 72
8
 73
4
 74
0
 40
0
 40
0
 40
0
 40
0
 40
1
 40
1
 40
1
 40
1
 10
159.571958
 20
117.523616
 30
0.0
 10
159.107721
 20
117.255463
 30
0.0
 10
158.821895
 20
116.759929
 30
0.0
 10
158.822223
 20
116.223811
 30
0.0
  0
SPLINE
  5
17e
100
AcDbEntity
  8
Layer_1
 62
5
100
AcDbSpline
 70
8
 71
3
 72
8
 73
4
 74
0
 40
0
 40
0
 40
0
 40
0
 40
1
 40
1
 40
1
 40
1
 10
158.822223
 20
116.223811
 30
0.0
 10
158.821895
 20
115.687694
 30
0.0
 10
159.107721
 20
115.192160
 30
0.0
 10
159.571958
 20
114.924006
 30
0.0
  0
SPLINE
  5
17f
100
AcDbEntity
  8
Layer_1
 62
5
100
AcDbSpline
 70
8
 71
3
 72
8
 73
4
 74
0
 40
0
 40
0
 40
0
 40
0
 40
1
 40
1
 40
1
 40
1
 10
159.571958
 20
114.924006
 30
0.0
 10
160.036194
 20
114.655853
 30
0.0
 10
160.608252
 20
114.655853
 30
0.0
 10
161.072489
 20
114.924006
 30
0.0
  0
SPLINE
  5
180
100
AcDbEntity
  8
Layer_1
 62
5
100
AcDbSpline
 70
8
 71
3
 72
8
 73
4
 74
0
 40
0
 40
0
 40
0
 40
0
 40
1
 40
1
 40
1
 40
1
 10
161.072489
 20
114.924006
 30
0.0
 10
161.536726
 20
115.192160
 30
0.0
 10
161.822552
 20
115.687694
 30
0.0
 10
161.822223
 20
116.223811
 30
0.0
  0
LINE
  5
181
100
AcDbEntity
  8
Layer_1
 62
5
100
AcDbLine
 10
161.822223
 20
116.223811
 30
0.0
 11
161.822223
 21
116.223811
 31
0.0
  0
SPLINE
  5
182
100
AcDbEntity
  8
Layer_1
 62
5
100
AcDbSpline
 70
8
 71
3
 72
8
 73
4
 74
0
 40
0
 40
0
 40
0
 40
0
 40
1
 40
1
 40
1
 40
1
 10
161.822223
 20
133.223808
 30
0.0
 10
161.822552
 20
133.759926
 30
0.0
 10
161.536726
 20
134.255460
 30
0.0
 10
161.072489
 20
134.523613
 30
0.0
  0
SPLINE
  5
183
100
AcDbEntity
  8
Layer_1
 62
5
100
AcDbSpline
 70
8
 71
3
 72
8
 73
4
 74
0
 40
0
 40
0
 40
0
 40
0
 40
1
 40
1
 40
1
 40
1
 10
161.072489
 20
134.523613
 30
0.0
 10
160.608252
 20
134.791767
 30
0.0
 10
160.036194
 20
134.791767
 30
0.0
 10
159.571958
 20
134.523613
 30
0.0
  0
SPLINE
  5
184
100
AcDbEntity
  8
Layer_1
 62
5
100
AcDbSpline
 70
8
 71
3
 72
8
 73
4
 74
0
 40
0
 40
0
 40
0
 40
0
 40
1
 40
1
 40
1
 40
1
 10
159.571958
 20
134.523613
 30
0.0
 10
159.107721
 20
134.255460
 30
0.0
 10
158.821895
 20
133.759926
 30
0.0
 10
158.822223
 20
133.223808
 30
0.0
  0
SPLINE
  5
185
100
AcDbEntity
  8
Layer_1
 62
5
100
AcDbSpline
 70
8
 71
3
 72
8
 73
4
 74
0
 40
0
 40
0
 40
0
 40
0
 40
1
 40
1
 40
1
 40
1
 10
158.822223
 20
133.223808
 30
0.0
 10
158.821895
 20
132.687691
 30
0.0
 10
159.107721
 20
132.192157
 30
0.0
 10
159.571958
 20
131.924004
 30
0.0
  0
SPLINE
  5
186
100
AcDbEntity
  8
Layer_1
 62
5
100
AcDbSpline
 70
8
 71
3
 72
8
 73
4
 74
0
 40
0
 40
0
 40
0
 40
0
 40
1
 40
1
 40
1
 40
1
 10
159.571958
 20
131.924004
 30
0.0
 10
160.036194
 20
131.655850
 30
0.0
 10
160.608252
 20
131.655850
 30
0.0
 10
161.072489
 20
131.924004
 30
0.0
  0
SPLINE
  5
187
100
AcDbEntity
  8
Layer_1
 62
5
100
AcDbSpline
 70
8
 71
3
 72
8
 73
4
 74
0
 40
0
 40
0
 40
0
 40
0
 40
1
 40
1
 40
1
 40
1
 10
161.072489
 20
131.924004
 30
0.0
 10
161.536726
 20
132.192157
 30
0.0
 10
161.822552
 20
132.687691
 30
0.0
 10
161.822223
 20
133.223808
 30
0.0
  0
LINE
  5
188
100
AcDbEntity
  8
Layer_1
 62
5
100
AcDbLine
 10
161.822223
 20
133.223808
 30
0.0
 11
161.822223
 21
133.223808
 31
0.0
  0
SPLINE
  5
189
100
AcDbEntity
  8
Layer_1
 62
5
100
AcDbSpline
 70
8
 71
3
 72
8
 73
4
 74
0
 40
0
 40
0
 40
0
 40
0
 40
1
 40
1
 40
1
 40
1
 10
108.572223
 20
147.723808
 30
0.0
 10
108.572223
 20
148.349023
 30
0.0
 10
108.238675
 20
148.926745
 30
0.0
 10
107.697223
 20
149.239352
 30
0.0
  0
SPLINE
  5
18a
100
AcDbEntity
  8
Layer_1
 62
5
100
AcDbSpline
 70
8
 71
3
 72
8
 73
4
 74
0
 40
0
 40
0
 40
0
 40
0
 40
1
 40
1
 40
1
 40
1
 10
107.697223
 20
149.239352
 30
0.0
 10
107.155771
 20
149.551960
 30
0.0
 10
106.488675
 20
149.551960
 30
0.0
 10
105.947223
 20
149.239352
 30
0.0
  0
SPLINE
  5
18b
100
AcDbEntity
  8
Layer_1
 62
5
100
AcDbSpline
 70
8
 71
3
 72
8
 73
4
 74
0
 40
0
 40
0
 40
0
 40
0
 40
1
 40
1
 40
1
 40
1
 10
105.947223
 20
149.239352
 30
0.0
 10
105.405771
 20
148.926745
 30
0.0
 10
105.072223
 20
148.349023
 30
0.0
 10
105.072223
 20
147.723808
 30
0.0
  0
SPLINE
  5
18c
100
AcDbEntity
  8
Layer_1
 62
5
100
AcDbSpline
 70
8
 71
3
 72
8
 73
4
 74
0
 40
0
 40
0
 40
0
 40
0
 40
1
 40
1
 40
1
 40
1
 10
105.072223
 20
147.723808
 30
0.0
 10
105.072223
 20
147.098593
 30
0.0
 10
105.405771
 20
146.520871
 30
0.0
 10
105.947223
 20
146.208263
 30
0.0
  0
SPLINE
  5
18d
100
AcDbEntity
  8
Layer_1
 62
5
100
AcDbSpline
 70
8
 71
3
 72
8
 73
4
 74
0
 40
0
 40
0
 40
0
 40
0
 40
1
 40
1
 40
1
 40
1
 10
105.947223
 20
146.208263
 30
0.0
 10
106.488675
 20
145.895656
 30
0.0
 10
107.155771
 20
145.895656
 30
0.0
 10
107.697223
 20
146.208263
 30
0.0
  0
SPLINE
  5
18e
100
AcDbEntity
  8
Layer_1
 62
5
100
AcDbSpline
 70
8
 71
3
 72
8
 73
4
 74
0
 40
0
 40
0
 40
0
 40
0
 40
1
 40
1
 40
1
 40
1
 10
107.697223
 20
146.208263
 30
0.0
 10
108.238675
 20
146.520871
 30
0.0
 10
108.572223
 20
147.098593
 30
0.0
 10
108.572223
 20
147.723808
 30
0.0
  0
LINE
  5
18f
100
AcDbEntity
  8
Layer_1
 62
5
100
AcDbLine
 10
108.572223
 20
147.723808
 30
0.0
 11
108.572223
 21
147.723808
 31
0.0
  0
SPLINE
  5
190
100
AcDbEntity
  8
Layer_1
 62
5
100
AcDbSpline
 70
8
 71
3
 72
8
 73
4
 74
0
 40
0
 40
0
 40
0
 40
0
 40
1
 40
1
 40
1
 40
1
 10
108.572223
 20
137.723808
 30
0.0
 10
108.572223
 20
138.349023
 30
0.0
 10
108.238675
 20
138.926745
 30
0.0
 10
107.697223
 20
139.239352
 30
0.0
  0
SPLINE
  5
191
100
AcDbEntity
  8
Layer_1
 62
5
100
AcDbSpline
 70
8
 71
3
 72
8
 73
4
 74
0
 40
0
 40
0
 40
0
 40
0
 40
1
 40
1
 40
1
 40
1
 10
107.697223
 20
139.239352
 30
0.0
 10
107.155771
 20
139.551960
 30
0.0
 10
106.488675
 20
139.551960
 30
0.0
 10
105.947223
 20
139.239352
 30
0.0
  0
SPLINE
  5
192
100
AcDbEntity
  8
Layer_1
 62
5
100
AcDbSpline
 70
8
 71
3
 72
8
 73
4
 74
0
 40
0
 40
0
 40
0
 40
0
 40
1
 40
1
 40
1
 40
1
 10
105.947223
 20
139.239352
 30
0.0
 10
105.405771
 20
138.926745
 30
0.0
 10
105.072223
 20
138.349023
 30
0.0
 10
105.072223
 20
137.723808
 30
0.0
  0
SPLINE
  5
193
100
AcDbEntity
  8
Layer_1
 62
5
100
AcDbSpline
 70
8
 71
3
 72
8
 73
4
 74
0
 40
0
 40
0
 40
0
 40
0
 40
1
 40
1
 40
1
 40
1
 10
105.072223
 20
137.723808
 30
0.0
 10
105.072223
 20
137.098593
 30
0.0
 10
105.405771
 20
136.520871
 30
0.0
 10
105.947223
 20
136.208263
 30
0.0
  0
SPLINE
  5
194
100
AcDbEntity
  8
Layer_1
 62
5
100
AcDbSpline
 70
8
 71
3
 72
8
 73
4
 74
0
 40
0
 40
0
 40
0
 40
0
 40
1
 40
1
 40
1
 40
1
 10
105.947223
 20
136.208263
 30
0.0
 10
106.488675
 20
135.895656
 30
0.0
 10
107.155771
 20
135.895656
 30
0.0
 10
107.697223
 20
136.208263
 30
0.0
  0
SPLINE
  5
195
100
AcDbEntity
  8
Layer_1
 62
5
100
AcDbSpline
 70
8
 71
3
 72
8
 73
4
 74
0
 40
0
 40
0
 40
0
 40
0
 40
1
 40
1
 40
1
 40
1
 10
107.697223
 20
136.208263
 30
0.0
 10
108.238675
 20
136.520871
 30
0.0
 10
108.572223
 20
137.098593
 30
0.0
 10
108.572223
 20
137.723808
 30
0.0
  0
LINE
  5
196
100
AcDbEntity
  8
Layer_1
 62
5
100
AcDbLine
 10
108.572223
 20
137.723808
 30
0.0
 11
108.572223
 21
137.723808
 31
0.0
  0
SPLINE
  5
197
100
AcDbEntity
  8
Layer_1
 62
5
100
AcDbSpline
 70
8
 71
3
 72
8
 73
4
 74
0
 40
0
 40
0
 40
0
 40
0
 40
1
 40
1
 40
1
 40
1
 10
154.572222
 20
147.723808
 30
0.0
 10
154.572784
 20
148.349397
 30
0.0
 10
154.239359
 20
148.927705
 30
0.0
 10
153.697676
 20
149.240662
 30
0.0
  0
SPLINE
  5
198
100
AcDbEntity
  8
Layer_1
 62
5
100
AcDbSpline
 70
8
 71
3
 72
8
 73
4
 74
0
 40
0
 40
0
 40
0
 40
0
 40
1
 40
1
 40
1
 40
1
 10
153.697676
 20
149.240662
 30
0.0
 10
153.155994
 20
149.553618
 30
0.0
 10
152.488452
 20
149.553618
 30
0.0
 10
151.946769
 20
149.240662
 30
0.0
  0
SPLINE
  5
199
100
AcDbEntity
  8
Layer_1
 62
5
100
AcDbSpline
 70
8
 71
3
 72
8
 73
4
 74
0
 40
0
 40
0
 40
0
 40
0
 40
1
 40
1
 40
1
 40
1
 10
151.946769
 20
149.240662
 30
0.0
 10
151.405087
 20
148.927705
 30
0.0
 10
151.071662
 20
148.349397
 30
0.0
 10
151.072223
 20
147.723808
 30
0.0
  0
SPLINE
  5
19a
100
AcDbEntity
  8
Layer_1
 62
5
100
AcDbSpline
 70
8
 71
3
 72
8
 73
4
 74
0
 40
0
 40
0
 40
0
 40
0
 40
1
 40
1
 40
1
 40
1
 10
151.072223
 20
147.723808
 30
0.0
 10
151.071662
 20
147.098219
 30
0.0
 10
151.405087
 20
146.519910
 30
0.0
 10
151.946769
 20
146.206954
 30
0.0
  0
SPLINE
  5
19b
100
AcDbEntity
  8
Layer_1
 62
5
100
AcDbSpline
 70
8
 71
3
 72
8
 73
4
 74
0
 40
0
 40
0
 40
0
 40
0
 40
1
 40
1
 40
1
 40
1
 10
151.946769
 20
146.206954
 30
0.0
 10
152.488452
 20
145.893997
 30
0.0
 10
153.155994
 20
145.893997
 30
0.0
 10
153.697676
 20
146.206954
 30
0.0
  0
SPLINE
  5
19c
100
AcDbEntity
  8
Layer_1
 62
5
100
AcDbSpline
 70
8
 71
3
 72
8
 73
4
 74
0
 40
0
 40
0
 40
0
 40
0
 40
1
 40
1
 40
1
 40
1
 10
153.697676
 20
146.206954
 30
0.0
 10
154.239359
 20
146.519910
 30
0.0
 10
154.572784
 20
147.098219
 30
0.0
 10
154.572222
 20
147.723808
 30
0.0
  0
LINE
  5
19d
100
AcDbEntity
  8
Layer_1
 62
5
100
AcDbLine
 10
154.572222
 20
147.723808
 30
0.0
 11
154.572222
 21
147.723808
 31
0.0
  0
SPLINE
  5
19e
100
AcDbEntity
  8
Layer_1
 62
5
100
AcDbSpline
 70
8
 71
3
 72
8
 73
4
 74
0
 40
0
 40
0
 40
0
 40
0
 40
1
 40
1
 40
1
 40
1
 10
154.572222
 20
137.723808
 30
0.0
 10
154.572784
 20
138.349397
 30
0.0
 10
154.239359
 20
138.927705
 30
0.0
 10
153.697676
 20
139.240662
 30
0.0
  0
SPLINE
  5
19f
100
AcDbEntity
  8
Layer_1
 62
5
100
AcDbSpline
 70
8
 71
3
 72
8
 73
4
 74
0
 40
0
 40
0
 40
0
 40
0
 40
1
 40
1
 40
1
 40
1
 10
153.697676
 20
139.240662
 30
0.0
 10
153.155994
 20
139.553619
 30
0.0
 10
152.488452
 20
139.553619
 30
0.0
 10
151.946769
 20
139.240662
 30
0.0
  0
SPLINE
  5
1a0
100
AcDbEntity
  8
Layer_1
 62
5
100
AcDbSpline
 70
8
 71
3
 72
8
 73
4
 74
0
 40
0
 40
0
 40
0
 40
0
 40
1
 40
1
 40
1
 40
1
 10
151.946769
 20
139.240662
 30
0.0
 10
151.405087
 20
138.927705
 30
0.0
 10
151.071662
 20
138.349397
 30
0.0
 10
151.072223
 20
137.723808
 30
0.0
  0
SPLINE
  5
1a1
100
AcDbEntity
  8
Layer_1
 62
5
100
AcDbSpline
 70
8
 71
3
 72
8
 73
4
 74
0
 40
0
 40
0
 40
0
 40
0
 40
1
 40
1
 40
1
 40
1
 10
151.072223
 20
137.723808
 30
0.0
 10
151.071662
 20
137.098219
 30
0.0
 10
151.405087
 20
136.519911
 30
0.0
 10
151.946769
 20
136.206954
 30
0.0
  0
SPLINE
  5
1a2
100
AcDbEntity
  8
Layer_1
 62
5
100
AcDbSpline
 70
8
 71
3
 72
8
 73
4
 74
0
 40
0
 40
0
 40
0
 40
0
 40
1
 40
1
 40
1
 40
1
 10
151.946769
 20
136.206954
 30
0.0
 10
152.488452
 20
135.893997
 30
0.0
 10
153.155994
 20
135.893997
 30
0.0
 10
153.697676
 20
136.206954
 30
0.0
  0
SPLINE
  5
1a3
100
AcDbEntity
  8
Layer_1
 62
5
100
AcDbSpline
 70
8
 71
3
 72
8
 73
4
 74
0
 40
0
 40
0
 40
0
 40
0
 40
1
 40
1
 40
1
 40
1
 10
153.697676
 20
136.206954
 30
0.0
 10
154.239359
 20
136.519911
 30
0.0
 10
154.572784
 20
137.098219
 30
0.0
 10
154.572222
 20
137.723808
 30
0.0
  0
LINE
  5
1a4
100
AcDbEntity
  8
Layer_1
 62
5
100
AcDbLine
 10
154.572222
 20
137.723808
 30
0.0
 11
154.572222
 21
137.723808
 31
0.0
  0
ENDSEC
  0
SECTION
  2
OBJECTS
  0
DICTIONARY
  5
C
330
0
100
AcDbDictionary
  3
ACAD_GROUP
350
D
  3
ACAD_MLINESTYLE
350
17
  0
DICTIONARY
  5
D
330
C
100
AcDbDictionary
  0
DICTIONARY
  5
1A
330
C
100
AcDbDictionary
  0
DICTIONARY
  5
17
330
C
100
AcDbDictionary
  3
STANDARD
350
18
  0
DICTIONARY
  5
19
330
C
100
AcDbDictionary
  0
ENDSEC
  0
EOF
