  0
SECTION
  2
HEADER
  9
$ACADVER
  1
AC1014
  9
$HANDSEED
  5
FFFF
  9
$MEASUREMENT
 70
     1
  0
ENDSEC
  0
SECTION
  2
TABLES
  0
TABLE
  2
VPORT
  5
8
330
0
100
AcDbSymbolTable
 70
     4
  0
VPORT
  5
2E
330
8
100
AcDbSymbolTableRecord
100
AcDbViewportTableRecord
  2
*ACTIVE
 70
     0
 10
0.0
 20
0.0
 11
1.0
 21
1.0
 12
210.0
 22
148.5
 13
0.0
 23
0.0
 14
10.0
 24
10.0
 15
10.0
 25
10.0
 16
0.0
 26
0.0
 36
1.0
 17
0.0
 27
0.0
 37
0.0
 40
341.0
 41
1.24
 42
50.0
 43
0.0
 44
0.0
 50
0.0
 51
0.0
 71
     0
 72
   100
 73
     1
 74
     3
 75
     0
 76
     0
 77
     0
 78
     0
  0
ENDTAB
  0
TABLE
  2
LTYPE
  5
5
330
0
100
AcDbSymbolTable
 70
     1
  0
LTYPE
  5
14
330
5
100
AcDbSymbolTableRecord
100
AcDbLinetypeTableRecord
  2
BYBLOCK
 70
     0
  3

 72
    65
 73
     0
 40
0.0
  0
LTYPE
  5
15
330
5
100
AcDbSymbolTableRecord
100
AcDbLinetypeTableRecord
  2
BYLAYER
 70
     0
  3

 72
    65
 73
     0
 40
0.0
  0
LTYPE
  5
16
330
5
100
AcDbSymbolTableRecord
100
AcDbLinetypeTableRecord
  2
CONTINUOUS
 70
     0
  3
Solid line
 72
    65
 73
     0
 40
0.0
  0
ENDTAB
  0
TABLE
  2
LAYER
  5
2
100
AcDbSymbolTable
 70
2
  0
LAYER
  5
50
100
AcDbSymbolTableRecord
100
AcDbLayerTableRecord
  2
0
 70
0
  6
CONTINUOUS
  0
LAYER
  5
51
100
AcDbSymbolTableRecord
100
AcDbLayerTableRecord
  2
Layer_1
 70
0
  6
CONTINUOUS
  0
ENDTAB
  0
TABLE
  2
STYLE
  5
3
330
0
100
AcDbSymbolTable
 70
     1
  0
STYLE
  5
11
330
3
100
AcDbSymbolTableRecord
100
AcDbTextStyleTableRecord
  2
STANDARD
 70
     0
 40
0.0
 41
1.0
 50
0.0
 71
     0
 42
2.5
  3
txt
  4

  0
ENDTAB
  0
TABLE
  2
VIEW
  5
6
330
0
100
AcDbSymbolTable
 70
     0
  0
ENDTAB
  0
TABLE
  2
UCS
  5
7
330
0
100
AcDbSymbolTable
 70
     0
  0
ENDTAB
  0
TABLE
  2
APPID
  5
9
330
0
100
AcDbSymbolTable
 70
     2
  0
APPID
  5
12
330
9
100
AcDbSymbolTableRecord
100
AcDbRegAppTableRecord
  2
ACAD
 70
     0
  0
ENDTAB
  0
TABLE
  2
DIMSTYLE
  5
A
330
0
100
AcDbSymbolTable
 70
     1
  0
DIMSTYLE
105
27
330
A
100
AcDbSymbolTableRecord
100
AcDbDimStyleTableRecord
  2
ISO-25
 70
     0
  3

  4

  5

  6

  7

 40
1.0
 41
2.5
 42
0.625
 43
3.75
 44
1.25
 45
0.0
 46
0.0
 47
0.0
 48
0.0
140
2.5
141
2.5
142
0.0
143
0.03937007874016
144
1.0
145
0.0
146
1.0
147
0.625
 71
     0
 72
     0
 73
     0
 74
     0
 75
     0
 76
     0
 77
     1
 78
     8
170
     0
171
     3
172
     1
173
     0
174
     0
175
     0
176
     0
177
     0
178
     0
270
     2
271
     2
272
     2
273
     2
274
     3
340
11
275
     0
280
     0
281
     0
282
     0
283
     0
284
     8
285
     0
286
     0
287
     3
288
     0
  0
ENDTAB
  0
TABLE
  2
BLOCK_RECORD
  5
1
330
0
100
AcDbSymbolTable
 70
     1
  0
BLOCK_RECORD
  5
1F
330
1
100
AcDbSymbolTableRecord
100
AcDbBlockTableRecord
  2
*MODEL_SPACE
  0
BLOCK_RECORD
  5
1B
330
1
100
AcDbSymbolTableRecord
100
AcDbBlockTableRecord
  2
*PAPER_SPACE
  0
ENDTAB
  0
ENDSEC
  0
SECTION
  2
BLOCKS
  0
BLOCK
  5
20
330
1F
100
AcDbEntity
  8
0
100
AcDbBlockBegin
  2
*MODEL_SPACE
 70
     0
 10
0.0
 20
0.0
 30
0.0
  3
*MODEL_SPACE
  1

  0
ENDBLK
  5
21
330
1F
100
AcDbEntity
  8
0
100
AcDbBlockEnd
  0
BLOCK
  5
1C
330
1B
100
AcDbEntity
 67
     1
  8
0
100
AcDbBlockBegin
  2
*PAPER_SPACE
  1

  0
ENDBLK
  5
1D
330
1B
100
AcDbEntity
 67
     1
  8
0
100
AcDbBlockEnd
  0
ENDSEC
  0
SECTION
  2
ENTITIES
  0
LINE
  5
100
100
AcDbEntity
  8
Layer_1
 62
7
100
AcDbLine
 10
51.854619
 20
109.204042
 30
0.0
 11
51.854619
 21
89.204299
 31
0.0
  0
LINE
  5
101
100
AcDbEntity
  8
Layer_1
 62
7
100
AcDbLine
 10
51.854619
 20
89.204299
 30
0.0
 11
60.854313
 21
89.204299
 31
0.0
  0
LINE
  5
102
100
AcDbEntity
  8
Layer_1
 62
7
100
AcDbLine
 10
60.854313
 20
89.204299
 30
0.0
 11
60.854313
 21
79.204152
 31
0.0
  0
LINE
  5
103
100
AcDbEntity
  8
Layer_1
 62
7
100
AcDbLine
 10
60.854313
 20
79.204152
 30
0.0
 11
51.854619
 21
79.204152
 31
0.0
  0
LINE
  5
104
100
AcDbEntity
  8
Layer_1
 62
7
100
AcDbLine
 10
51.854619
 20
79.204152
 30
0.0
 11
51.854619
 21
59.204407
 31
0.0
  0
LINE
  5
105
100
AcDbEntity
  8
Layer_1
 62
7
100
AcDbLine
 10
51.854619
 20
59.204407
 30
0.0
 11
80.854606
 21
59.204407
 31
0.0
  0
LINE
  5
106
100
AcDbEntity
  8
Layer_1
 62
7
100
AcDbLine
 10
80.854606
 20
59.204407
 30
0.0
 11
80.854606
 21
56.204142
 31
0.0
  0
LINE
  5
107
100
AcDbEntity
  8
Layer_1
 62
7
100
AcDbLine
 10
80.854606
 20
56.204142
 30
0.0
 11
90.854203
 21
56.204142
 31
0.0
  0
LINE
  5
108
100
AcDbEntity
  8
Layer_1
 62
7
100
AcDbLine
 10
90.854203
 20
56.204142
 30
0.0
 11
90.854203
 21
59.204407
 31
0.0
  0
LINE
  5
109
100
AcDbEntity
  8
Layer_1
 62
7
100
AcDbLine
 10
90.854203
 20
59.204407
 30
0.0
 11
110.854498
 21
59.204407
 31
0.0
  0
LINE
  5
10a
100
AcDbEntity
  8
Layer_1
 62
7
100
AcDbLine
 10
110.854498
 20
59.204407
 30
0.0
 11
110.854498
 21
109.204042
 31
0.0
  0
LINE
  5
10b
100
AcDbEntity
  8
Layer_1
 62
7
100
AcDbLine
 10
110.854498
 20
109.204042
 30
0.0
 11
90.854203
 21
109.204042
 31
0.0
  0
LINE
  5
10c
100
AcDbEntity
  8
Layer_1
 62
7
100
AcDbLine
 10
90.854203
 20
109.204042
 30
0.0
 11
90.854203
 21
106.204330
 31
0.0
  0
LINE
  5
10d
100
AcDbEntity
  8
Layer_1
 62
7
100
AcDbLine
 10
90.854203
 20
106.204330
 30
0.0
 11
80.854606
 21
106.204330
 31
0.0
  0
LINE
  5
10e
100
AcDbEntity
  8
Layer_1
 62
7
100
AcDbLine
 10
80.854606
 20
106.204330
 30
0.0
 11
80.854606
 21
109.204042
 31
0.0
  0
LINE
  5
10f
100
AcDbEntity
  8
Layer_1
 62
7
100
AcDbLine
 10
80.854606
 20
109.204042
 30
0.0
 11
51.854619
 21
109.204042
 31
0.0
  0
LINE
  5
110
100
AcDbEntity
  8
Layer_1
 62
7
100
AcDbLine
 10
51.854619
 20
109.204042
 30
0.0
 11
51.854619
 21
109.204042
 31
0.0
  0
SPLINE
  5
111
100
AcDbEntity
  8
Layer_1
 62
1
100
AcDbSpline
 70
8
 71
3
 72
8
 73
4
 74
0
 40
0
 40
0
 40
0
 40
0
 40
1
 40
1
 40
1
 40
1
 10
88.854415
 20
84.204196
 30
0.0
 10
88.855346
 20
85.633878
 30
0.0
 10
88.093154
 20
86.955357
 30
0.0
 10
86.855168
 20
87.670466
 30
0.0
  0
SPLINE
  5
112
100
AcDbEntity
  8
Layer_1
 62
1
100
AcDbSpline
 70
8
 71
3
 72
8
 73
4
 74
0
 40
0
 40
0
 40
0
 40
0
 40
1
 40
1
 40
1
 40
1
 10
86.855168
 20
87.670466
 30
0.0
 10
85.617182
 20
88.385576
 30
0.0
 10
84.091651
 20
88.385576
 30
0.0
 10
82.853665
 20
87.670466
 30
0.0
  0
SPLINE
  5
113
100
AcDbEntity
  8
Layer_1
 62
1
100
AcDbSpline
 70
8
 71
3
 72
8
 73
4
 74
0
 40
0
 40
0
 40
0
 40
0
 40
1
 40
1
 40
1
 40
1
 10
82.853665
 20
87.670466
 30
0.0
 10
81.615679
 20
86.955357
 30
0.0
 10
80.853487
 20
85.633878
 30
0.0
 10
80.854417
 20
84.204196
 30
0.0
  0
SPLINE
  5
114
100
AcDbEntity
  8
Layer_1
 62
1
100
AcDbSpline
 70
8
 71
3
 72
8
 73
4
 74
0
 40
0
 40
0
 40
0
 40
0
 40
1
 40
1
 40
1
 40
1
 10
80.854417
 20
84.204196
 30
0.0
 10
80.853487
 20
82.774514
 30
0.0
 10
81.615679
 20
81.453035
 30
0.0
 10
82.853665
 20
80.737926
 30
0.0
  0
SPLINE
  5
115
100
AcDbEntity
  8
Layer_1
 62
1
100
AcDbSpline
 70
8
 71
3
 72
8
 73
4
 74
0
 40
0
 40
0
 40
0
 40
0
 40
1
 40
1
 40
1
 40
1
 10
82.853665
 20
80.737926
 30
0.0
 10
84.091651
 20
80.022816
 30
0.0
 10
85.617182
 20
80.022816
 30
0.0
 10
86.855168
 20
80.737926
 30
0.0
  0
SPLINE
  5
116
100
AcDbEntity
  8
Layer_1
 62
1
100
AcDbSpline
 70
8
 71
3
 72
8
 73
4
 74
0
 40
0
 40
0
 40
0
 40
0
 40
1
 40
1
 40
1
 40
1
 10
86.855168
 20
80.737926
 30
0.0
 10
88.093154
 20
81.453035
 30
0.0
 10
88.855346
 20
82.774514
 30
0.0
 10
88.854415
 20
84.204196
 30
0.0
  0
LINE
  5
117
100
AcDbEntity
  8
Layer_1
 62
1
100
AcDbLine
 10
88.854415
 20
84.204196
 30
0.0
 11
88.854415
 21
84.204196
 31
0.0
  0
SPLINE
  5
118
100
AcDbEntity
  8
Layer_1
 62
1
100
AcDbSpline
 70
8
 71
3
 72
8
 73
4
 74
0
 40
0
 40
0
 40
0
 40
0
 40
1
 40
1
 40
1
 40
1
 10
102.104416
 20
68.704193
 30
0.0
 10
102.104978
 20
69.329782
 30
0.0
 10
101.771552
 20
69.908090
 30
0.0
 10
101.229870
 20
70.221047
 30
0.0
  0
SPLINE
  5
119
100
AcDbEntity
  8
Layer_1
 62
1
100
AcDbSpline
 70
8
 71
3
 72
8
 73
4
 74
0
 40
0
 40
0
 40
0
 40
0
 40
1
 40
1
 40
1
 40
1
 10
101.229870
 20
70.221047
 30
0.0
 10
100.688188
 20
70.534004
 30
0.0
 10
100.020645
 20
70.534004
 30
0.0
 10
99.478963
 20
70.221047
 30
0.0
  0
SPLINE
  5
11a
100
AcDbEntity
  8
Layer_1
 62
1
100
AcDbSpline
 70
8
 71
3
 72
8
 73
4
 74
0
 40
0
 40
0
 40
0
 40
0
 40
1
 40
1
 40
1
 40
1
 10
99.478963
 20
70.221047
 30
0.0
 10
98.937280
 20
69.908090
 30
0.0
 10
98.603855
 20
69.329782
 30
0.0
 10
98.604417
 20
68.704193
 30
0.0
  0
SPLINE
  5
11b
100
AcDbEntity
  8
Layer_1
 62
1
100
AcDbSpline
 70
8
 71
3
 72
8
 73
4
 74
0
 40
0
 40
0
 40
0
 40
0
 40
1
 40
1
 40
1
 40
1
 10
98.604417
 20
68.704193
 30
0.0
 10
98.603855
 20
68.078604
 30
0.0
 10
98.937280
 20
67.500296
 30
0.0
 10
99.478963
 20
67.187339
 30
0.0
  0
SPLINE
  5
11c
100
AcDbEntity
  8
Layer_1
 62
1
100
AcDbSpline
 70
8
 71
3
 72
8
 73
4
 74
0
 40
0
 40
0
 40
0
 40
0
 40
1
 40
1
 40
1
 40
1
 10
99.478963
 20
67.187339
 30
0.0
 10
100.020645
 20
66.874383
 30
0.0
 10
100.688188
 20
66.874383
 30
0.0
 10
101.229870
 20
67.187339
 30
0.0
  0
SPLINE
  5
11d
100
AcDbEntity
  8
Layer_1
 62
1
100
AcDbSpline
 70
8
 71
3
 72
8
 73
4
 74
0
 40
0
 40
0
 40
0
 40
0
 40
1
 40
1
 40
1
 40
1
 10
101.229870
 20
67.187339
 30
0.0
 10
101.771552
 20
67.500296
 30
0.0
 10
102.104978
 20
68.078604
 30
0.0
 10
102.104416
 20
68.704193
 30
0.0
  0
LINE
  5
11e
100
AcDbEntity
  8
Layer_1
 62
1
100
AcDbLine
 10
102.104416
 20
68.704193
 30
0.0
 11
102.104416
 21
68.704193
 31
0.0
  0
SPLINE
  5
11f
100
AcDbEntity
  8
Layer_1
 62
1
100
AcDbSpline
 70
8
 71
3
 72
8
 73
4
 74
0
 40
0
 40
0
 40
0
 40
0
 40
1
 40
1
 40
1
 40
1
 10
102.104416
 20
99.704196
 30
0.0
 10
102.104978
 20
100.329785
 30
0.0
 10
101.771552
 20
100.908093
 30
0.0
 10
101.229870
 20
101.221050
 30
0.0
  0
SPLINE
  5
120
100
AcDbEntity
  8
Layer_1
 62
1
100
AcDbSpline
 70
8
 71
3
 72
8
 73
4
 74
0
 40
0
 40
0
 40
0
 40
0
 40
1
 40
1
 40
1
 40
1
 10
101.229870
 20
101.221050
 30
0.0
 10
100.688188
 20
101.534007
 30
0.0
 10
100.020645
 20
101.534007
 30
0.0
 10
99.478963
 20
101.221050
 30
0.0
  0
SPLINE
  5
121
100
AcDbEntity
  8
Layer_1
 62
1
100
AcDbSpline
 70
8
 71
3
 72
8
 73
4
 74
0
 40
0
 40
0
 40
0
 40
0
 40
1
 40
1
 40
1
 40
1
 10
99.478963
 20
101.221050
 30
0.0
 10
98.937280
 20
100.908093
 30
0.0
 10
98.603855
 20
100.329785
 30
0.0
 10
98.604417
 20
99.704196
 30
0.0
  0
SPLINE
  5
122
100
AcDbEntity
  8
Layer_1
 62
1
100
AcDbSpline
 70
8
 71
3
 72
8
 73
4
 74
0
 40
0
 40
0
 40
0
 40
0
 40
1
 40
1
 40
1
 40
1
 10
98.604417
 20
99.704196
 30
0.0
 10
98.603855
 20
99.078607
 30
0.0
 10
98.937280
 20
98.500299
 30
0.0
 10
99.478963
 20
98.187342
 30
0.0
  0
SPLINE
  5
123
100
AcDbEntity
  8
Layer_1
 62
1
100
AcDbSpline
 70
8
 71
3
 72
8
 73
4
 74
0
 40
0
 40
0
 40
0
 40
0
 40
1
 40
1
 40
1
 40
1
 10
99.478963
 20
98.187342
 30
0.0
 10
100.020645
 20
97.874385
 30
0.0
 10
100.688188
 20
97.874385
 30
0.0
 10
101.229870
 20
98.187342
 30
0.0
  0
SPLINE
  5
124
100
AcDbEntity
  8
Layer_1
 62
1
100
AcDbSpline
 70
8
 71
3
 72
8
 73
4
 74
0
 40
0
 40
0
 40
0
 40
0
 40
1
 40
1
 40
1
 40
1
 10
101.229870
 20
98.187342
 30
0.0
 10
101.771552
 20
98.500299
 30
0.0
 10
102.104978
 20
99.078607
 30
0.0
 10
102.104416
 20
99.704196
 30
0.0
  0
LINE
  5
125
100
AcDbEntity
  8
Layer_1
 62
1
100
AcDbLine
 10
102.104416
 20
99.704196
 30
0.0
 11
102.104416
 21
99.704196
 31
0.0
  0
SPLINE
  5
126
100
AcDbEntity
  8
Layer_1
 62
1
100
AcDbSpline
 70
8
 71
3
 72
8
 73
4
 74
0
 40
0
 40
0
 40
0
 40
0
 40
1
 40
1
 40
1
 40
1
 10
71.104416
 20
99.704196
 30
0.0
 10
71.104416
 20
100.329411
 30
0.0
 10
70.770868
 20
100.907133
 30
0.0
 10
70.229416
 20
101.219740
 30
0.0
  0
SPLINE
  5
127
100
AcDbEntity
  8
Layer_1
 62
1
100
AcDbSpline
 70
8
 71
3
 72
8
 73
4
 74
0
 40
0
 40
0
 40
0
 40
0
 40
1
 40
1
 40
1
 40
1
 10
70.229416
 20
101.219740
 30
0.0
 10
69.687964
 20
101.532348
 30
0.0
 10
69.020868
 20
101.532348
 30
0.0
 10
68.479416
 20
101.219740
 30
0.0
  0
SPLINE
  5
128
100
AcDbEntity
  8
Layer_1
 62
1
100
AcDbSpline
 70
8
 71
3
 72
8
 73
4
 74
0
 40
0
 40
0
 40
0
 40
0
 40
1
 40
1
 40
1
 40
1
 10
68.479416
 20
101.219740
 30
0.0
 10
67.937964
 20
100.907133
 30
0.0
 10
67.604416
 20
100.329411
 30
0.0
 10
67.604416
 20
99.704196
 30
0.0
  0
SPLINE
  5
129
100
AcDbEntity
  8
Layer_1
 62
1
100
AcDbSpline
 70
8
 71
3
 72
8
 73
4
 74
0
 40
0
 40
0
 40
0
 40
0
 40
1
 40
1
 40
1
 40
1
 10
67.604416
 20
99.704196
 30
0.0
 10
67.604416
 20
99.078981
 30
0.0
 10
67.937964
 20
98.501259
 30
0.0
 10
68.479416
 20
98.188652
 30
0.0
  0
SPLINE
  5
12a
100
AcDbEntity
  8
Layer_1
 62
1
100
AcDbSpline
 70
8
 71
3
 72
8
 73
4
 74
0
 40
0
 40
0
 40
0
 40
0
 40
1
 40
1
 40
1
 40
1
 10
68.479416
 20
98.188652
 30
0.0
 10
69.020868
 20
97.876044
 30
0.0
 10
69.687964
 20
97.876044
 30
0.0
 10
70.229416
 20
98.188652
 30
0.0
  0
SPLINE
  5
12b
100
AcDbEntity
  8
Layer_1
 62
1
100
AcDbSpline
 70
8
 71
3
 72
8
 73
4
 74
0
 40
0
 40
0
 40
0
 40
0
 40
1
 40
1
 40
1
 40
1
 10
70.229416
 20
98.188652
 30
0.0
 10
70.770868
 20
98.501259
 30
0.0
 10
71.104416
 20
99.078981
 30
0.0
 10
71.104416
 20
99.704196
 30
0.0
  0
LINE
  5
12c
100
AcDbEntity
  8
Layer_1
 62
1
100
AcDbLine
 10
71.104416
 20
99.704196
 30
0.0
 11
71.104416
 21
99.704196
 31
0.0
  0
SPLINE
  5
12d
100
AcDbEntity
  8
Layer_1
 62
1
100
AcDbSpline
 70
8
 71
3
 72
8
 73
4
 74
0
 40
0
 40
0
 40
0
 40
0
 40
1
 40
1
 40
1
 40
1
 10
71.104416
 20
68.704193
 30
0.0
 10
71.104416
 20
69.329408
 30
0.0
 10
70.770868
 20
69.907130
 30
0.0
 10
70.229416
 20
70.219738
 30
0.0
  0
SPLINE
  5
12e
100
AcDbEntity
  8
Layer_1
 62
1
100
AcDbSpline
 70
8
 71
3
 72
8
 73
4
 74
0
 40
0
 40
0
 40
0
 40
0
 40
1
 40
1
 40
1
 40
1
 10
70.229416
 20
70.219738
 30
0.0
 10
69.687964
 20
70.532345
 30
0.0
 10
69.020868
 20
70.532345
 30
0.0
 10
68.479416
 20
70.219738
 30
0.0
  0
SPLINE
  5
12f
100
AcDbEntity
  8
Layer_1
 62
1
100
AcDbSpline
 70
8
 71
3
 72
8
 73
4
 74
0
 40
0
 40
0
 40
0
 40
0
 40
1
 40
1
 40
1
 40
1
 10
68.479416
 20
70.219738
 30
0.0
 10
67.937964
 20
69.907130
 30
0.0
 10
67.604416
 20
69.329408
 30
0.0
 10
67.604416
 20
68.704193
 30
0.0
  0
SPLINE
  5
130
100
AcDbEntity
  8
Layer_1
 62
1
100
AcDbSpline
 70
8
 71
3
 72
8
 73
4
 74
0
 40
0
 40
0
 40
0
 40
0
 40
1
 40
1
 40
1
 40
1
 10
67.604416
 20
68.704193
 30
0.0
 10
67.604416
 20
68.078978
 30
0.0
 10
67.937964
 20
67.501256
 30
0.0
 10
68.479416
 20
67.188649
 30
0.0
  0
SPLINE
  5
131
100
AcDbEntity
  8
Layer_1
 62
1
100
AcDbSpline
 70
8
 71
3
 72
8
 73
4
 74
0
 40
0
 40
0
 40
0
 40
0
 40
1
 40
1
 40
1
 40
1
 10
68.479416
 20
67.188649
 30
0.0
 10
69.020868
 20
66.876041
 30
0.0
 10
69.687964
 20
66.876041
 30
0.0
 10
70.229416
 20
67.188649
 30
0.0
  0
SPLINE
  5
132
100
AcDbEntity
  8
Layer_1
 62
1
100
AcDbSpline
 70
8
 71
3
 72
8
 73
4
 74
0
 40
0
 40
0
 40
0
 40
0
 40
1
 40
1
 40
1
 40
1
 10
70.229416
 20
67.188649
 30
0.0
 10
70.770868
 20
67.501256
 30
0.0
 10
71.104416
 20
68.078978
 30
0.0
 10
71.104416
 20
68.704193
 30
0.0
  0
LINE
  5
133
100
AcDbEntity
  8
Layer_1
 62
1
100
AcDbLine
 10
71.104416
 20
68.704193
 30
0.0
 11
71.104416
 21
68.704193
 31
0.0
  0
LINE
  5
134
100
AcDbEntity
  8
Layer_1
 62
1
100
AcDbLine
 10
113.854416
 20
89.204197
 30
0.0
 11
107.854417
 21
89.204197
 31
0.0
  0
LINE
  5
135
100
AcDbEntity
  8
Layer_1
 62
1
100
AcDbLine
 10
107.854417
 20
89.204197
 30
0.0
 11
107.854417
 21
79.204198
 31
0.0
  0
LINE
  5
136
100
AcDbEntity
  8
Layer_1
 62
1
100
AcDbLine
 10
107.854417
 20
79.204198
 30
0.0
 11
113.854416
 21
79.204198
 31
0.0
  0
LINE
  5
137
100
AcDbEntity
  8
Layer_1
 62
1
100
AcDbLine
 10
113.854416
 20
79.204198
 30
0.0
 11
113.854416
 21
89.204197
 31
0.0
  0
LINE
  5
138
100
AcDbEntity
  8
Layer_1
 62
7
100
AcDbLine
 10
110.854417
 20
109.204197
 30
0.0
 11
110.854417
 21
89.204197
 31
0.0
  0
LINE
  5
139
100
AcDbEntity
  8
Layer_1
 62
7
100
AcDbLine
 10
110.854417
 20
59.204198
 30
0.0
 11
110.854417
 21
79.204198
 31
0.0
  0
LINE
  5
13a
100
AcDbEntity
  8
Layer_1
 62
7
100
AcDbLine
 10
45.951126
 20
54.882084
 30
0.0
 11
45.951126
 21
34.881791
 31
0.0
  0
LINE
  5
13b
100
AcDbEntity
  8
Layer_1
 62
7
100
AcDbLine
 10
45.951126
 20
34.881791
 30
0.0
 11
54.950817
 21
34.881791
 31
0.0
  0
LINE
  5
13c
100
AcDbEntity
  8
Layer_1
 62
7
100
AcDbLine
 10
54.950817
 20
34.881791
 30
0.0
 11
54.950817
 21
24.881642
 31
0.0
  0
LINE
  5
13d
100
AcDbEntity
  8
Layer_1
 62
7
100
AcDbLine
 10
54.950817
 20
24.881642
 30
0.0
 11
45.951126
 21
24.881642
 31
0.0
  0
LINE
  5
13e
100
AcDbEntity
  8
Layer_1
 62
7
100
AcDbLine
 10
45.951126
 20
24.881642
 30
0.0
 11
45.951126
 21
4.881899
 31
0.0
  0
LINE
  5
13f
100
AcDbEntity
  8
Layer_1
 62
7
100
AcDbLine
 10
45.951126
 20
4.881899
 30
0.0
 11
74.951113
 21
4.881899
 31
0.0
  0
LINE
  5
140
100
AcDbEntity
  8
Layer_1
 62
7
100
AcDbLine
 10
74.951113
 20
4.881899
 30
0.0
 11
74.951113
 21
1.881634
 31
0.0
  0
LINE
  5
141
100
AcDbEntity
  8
Layer_1
 62
7
100
AcDbLine
 10
74.951113
 20
1.881634
 30
0.0
 11
84.951260
 21
1.881634
 31
0.0
  0
LINE
  5
142
100
AcDbEntity
  8
Layer_1
 62
7
100
AcDbLine
 10
84.951260
 20
1.881634
 30
0.0
 11
84.951260
 21
4.881899
 31
0.0
  0
LINE
  5
143
100
AcDbEntity
  8
Layer_1
 62
7
100
AcDbLine
 10
84.951260
 20
4.881899
 30
0.0
 11
104.951005
 21
4.881899
 31
0.0
  0
LINE
  5
144
100
AcDbEntity
  8
Layer_1
 62
7
100
AcDbLine
 10
104.951005
 20
4.881899
 30
0.0
 11
104.951005
 21
54.882084
 31
0.0
  0
LINE
  5
145
100
AcDbEntity
  8
Layer_1
 62
7
100
AcDbLine
 10
104.951005
 20
54.882084
 30
0.0
 11
84.951260
 21
54.882084
 31
0.0
  0
LINE
  5
146
100
AcDbEntity
  8
Layer_1
 62
7
100
AcDbLine
 10
84.951260
 20
54.882084
 30
0.0
 11
84.951260
 21
51.881820
 31
0.0
  0
LINE
  5
147
100
AcDbEntity
  8
Layer_1
 62
7
100
AcDbLine
 10
84.951260
 20
51.881820
 30
0.0
 11
74.951113
 21
51.881820
 31
0.0
  0
LINE
  5
148
100
AcDbEntity
  8
Layer_1
 62
7
100
AcDbLine
 10
74.951113
 20
51.881820
 30
0.0
 11
74.951113
 21
54.882084
 31
0.0
  0
LINE
  5
149
100
AcDbEntity
  8
Layer_1
 62
7
100
AcDbLine
 10
74.951113
 20
54.882084
 30
0.0
 11
45.951126
 21
54.882084
 31
0.0
  0
LINE
  5
14a
100
AcDbEntity
  8
Layer_1
 62
7
100
AcDbLine
 10
45.951126
 20
54.882084
 30
0.0
 11
45.951126
 21
54.882084
 31
0.0
  0
SPLINE
  5
14b
100
AcDbEntity
  8
Layer_1
 62
1
100
AcDbSpline
 70
8
 71
3
 72
8
 73
4
 74
0
 40
0
 40
0
 40
0
 40
0
 40
1
 40
1
 40
1
 40
1
 10
90.451079
 20
29.881844
 30
0.0
 10
90.452656
 20
33.991449
 30
0.0
 10
88.261114
 20
37.789555
 30
0.0
 10
84.702354
 20
39.844813
 30
0.0
  0
SPLINE
  5
14c
100
AcDbEntity
  8
Layer_1
 62
1
100
AcDbSpline
 70
8
 71
3
 72
8
 73
4
 74
0
 40
0
 40
0
 40
0
 40
0
 40
1
 40
1
 40
1
 40
1
 10
84.702354
 20
39.844813
 30
0.0
 10
81.143594
 20
41.900071
 30
0.0
 10
76.758566
 20
41.900071
 30
0.0
 10
73.199806
 20
39.844813
 30
0.0
  0
SPLINE
  5
14d
100
AcDbEntity
  8
Layer_1
 62
1
100
AcDbSpline
 70
8
 71
3
 72
8
 73
4
 74
0
 40
0
 40
0
 40
0
 40
0
 40
1
 40
1
 40
1
 40
1
 10
73.199806
 20
39.844813
 30
0.0
 10
69.641046
 20
37.789555
 30
0.0
 10
67.449504
 20
33.991449
 30
0.0
 10
67.451081
 20
29.881844
 30
0.0
  0
SPLINE
  5
14e
100
AcDbEntity
  8
Layer_1
 62
1
100
AcDbSpline
 70
8
 71
3
 72
8
 73
4
 74
0
 40
0
 40
0
 40
0
 40
0
 40
1
 40
1
 40
1
 40
1
 10
67.451081
 20
29.881844
 30
0.0
 10
67.449504
 20
25.772239
 30
0.0
 10
69.641046
 20
21.974132
 30
0.0
 10
73.199806
 20
19.918874
 30
0.0
  0
SPLINE
  5
14f
100
AcDbEntity
  8
Layer_1
 62
1
100
AcDbSpline
 70
8
 71
3
 72
8
 73
4
 74
0
 40
0
 40
0
 40
0
 40
0
 40
1
 40
1
 40
1
 40
1
 10
73.199806
 20
19.918874
 30
0.0
 10
76.758566
 20
17.863616
 30
0.0
 10
81.143594
 20
17.863616
 30
0.0
 10
84.702354
 20
19.918874
 30
0.0
  0
SPLINE
  5
150
100
AcDbEntity
  8
Layer_1
 62
1
100
AcDbSpline
 70
8
 71
3
 72
8
 73
4
 74
0
 40
0
 40
0
 40
0
 40
0
 40
1
 40
1
 40
1
 40
1
 10
84.702354
 20
19.918874
 30
0.0
 10
88.261114
 20
21.974132
 30
0.0
 10
90.452656
 20
25.772239
 30
0.0
 10
90.451079
 20
29.881844
 30
0.0
  0
LINE
  5
151
100
AcDbEntity
  8
Layer_1
 62
1
100
AcDbLine
 10
90.451079
 20
29.881844
 30
0.0
 11
90.451079
 21
29.881844
 31
0.0
  0
SPLINE
  5
152
100
AcDbEntity
  8
Layer_1
 62
1
100
AcDbSpline
 70
8
 71
3
 72
8
 73
4
 74
0
 40
0
 40
0
 40
0
 40
0
 40
1
 40
1
 40
1
 40
1
 10
96.201080
 20
14.381841
 30
0.0
 10
96.201642
 20
15.007430
 30
0.0
 10
95.868217
 20
15.585738
 30
0.0
 10
95.326535
 20
15.898695
 30
0.0
  0
SPLINE
  5
153
100
AcDbEntity
  8
Layer_1
 62
1
100
AcDbSpline
 70
8
 71
3
 72
8
 73
4
 74
0
 40
0
 40
0
 40
0
 40
0
 40
1
 40
1
 40
1
 40
1
 10
95.326535
 20
15.898695
 30
0.0
 10
94.784852
 20
16.211652
 30
0.0
 10
94.117310
 20
16.211652
 30
0.0
 10
93.575627
 20
15.898695
 30
0.0
  0
SPLINE
  5
154
100
AcDbEntity
  8
Layer_1
 62
1
100
AcDbSpline
 70
8
 71
3
 72
8
 73
4
 74
0
 40
0
 40
0
 40
0
 40
0
 40
1
 40
1
 40
1
 40
1
 10
93.575627
 20
15.898695
 30
0.0
 10
93.033945
 20
15.585738
 30
0.0
 10
92.700520
 20
15.007430
 30
0.0
 10
92.701082
 20
14.381841
 30
0.0
  0
SPLINE
  5
155
100
AcDbEntity
  8
Layer_1
 62
1
100
AcDbSpline
 70
8
 71
3
 72
8
 73
4
 74
0
 40
0
 40
0
 40
0
 40
0
 40
1
 40
1
 40
1
 40
1
 10
92.701082
 20
14.381841
 30
0.0
 10
92.700520
 20
13.756252
 30
0.0
 10
93.033945
 20
13.177944
 30
0.0
 10
93.575627
 20
12.864987
 30
0.0
  0
SPLINE
  5
156
100
AcDbEntity
  8
Layer_1
 62
1
100
AcDbSpline
 70
8
 71
3
 72
8
 73
4
 74
0
 40
0
 40
0
 40
0
 40
0
 40
1
 40
1
 40
1
 40
1
 10
93.575627
 20
12.864987
 30
0.0
 10
94.117310
 20
12.552030
 30
0.0
 10
94.784852
 20
12.552030
 30
0.0
 10
95.326535
 20
12.864987
 30
0.0
  0
SPLINE
  5
157
100
AcDbEntity
  8
Layer_1
 62
1
100
AcDbSpline
 70
8
 71
3
 72
8
 73
4
 74
0
 40
0
 40
0
 40
0
 40
0
 40
1
 40
1
 40
1
 40
1
 10
95.326535
 20
12.864987
 30
0.0
 10
95.868217
 20
13.177944
 30
0.0
 10
96.201642
 20
13.756252
 30
0.0
 10
96.201080
 20
14.381841
 30
0.0
  0
LINE
  5
158
100
AcDbEntity
  8
Layer_1
 62
1
100
AcDbLine
 10
96.201080
 20
14.381841
 30
0.0
 11
96.201080
 21
14.381841
 31
0.0
  0
SPLINE
  5
159
100
AcDbEntity
  8
Layer_1
 62
1
100
AcDbSpline
 70
8
 71
3
 72
8
 73
4
 74
0
 40
0
 40
0
 40
0
 40
0
 40
1
 40
1
 40
1
 40
1
 10
96.201080
 20
45.381844
 30
0.0
 10
96.201642
 20
46.007433
 30
0.0
 10
95.868217
 20
46.585741
 30
0.0
 10
95.326535
 20
46.898698
 30
0.0
  0
SPLINE
  5
15a
100
AcDbEntity
  8
Layer_1
 62
1
100
AcDbSpline
 70
8
 71
3
 72
8
 73
4
 74
0
 40
0
 40
0
 40
0
 40
0
 40
1
 40
1
 40
1
 40
1
 10
95.326535
 20
46.898698
 30
0.0
 10
94.784852
 20
47.211654
 30
0.0
 10
94.117310
 20
47.211654
 30
0.0
 10
93.575627
 20
46.898698
 30
0.0
  0
SPLINE
  5
15b
100
AcDbEntity
  8
Layer_1
 62
1
100
AcDbSpline
 70
8
 71
3
 72
8
 73
4
 74
0
 40
0
 40
0
 40
0
 40
0
 40
1
 40
1
 40
1
 40
1
 10
93.575627
 20
46.898698
 30
0.0
 10
93.033945
 20
46.585741
 30
0.0
 10
92.700520
 20
46.007433
 30
0.0
 10
92.701082
 20
45.381844
 30
0.0
  0
SPLINE
  5
15c
100
AcDbEntity
  8
Layer_1
 62
1
100
AcDbSpline
 70
8
 71
3
 72
8
 73
4
 74
0
 40
0
 40
0
 40
0
 40
0
 40
1
 40
1
 40
1
 40
1
 10
92.701082
 20
45.381844
 30
0.0
 10
92.700520
 20
44.756255
 30
0.0
 10
93.033945
 20
44.177947
 30
0.0
 10
93.575627
 20
43.864990
 30
0.0
  0
SPLINE
  5
15d
100
AcDbEntity
  8
Layer_1
 62
1
100
AcDbSpline
 70
8
 71
3
 72
8
 73
4
 74
0
 40
0
 40
0
 40
0
 40
0
 40
1
 40
1
 40
1
 40
1
 10
93.575627
 20
43.864990
 30
0.0
 10
94.117310
 20
43.552033
 30
0.0
 10
94.784852
 20
43.552033
 30
0.0
 10
95.326535
 20
43.864990
 30
0.0
  0
SPLINE
  5
15e
100
AcDbEntity
  8
Layer_1
 62
1
100
AcDbSpline
 70
8
 71
3
 72
8
 73
4
 74
0
 40
0
 40
0
 40
0
 40
0
 40
1
 40
1
 40
1
 40
1
 10
95.326535
 20
43.864990
 30
0.0
 10
95.868217
 20
44.177947
 30
0.0
 10
96.201642
 20
44.756255
 30
0.0
 10
96.201080
 20
45.381844
 30
0.0
  0
LINE
  5
15f
100
AcDbEntity
  8
Layer_1
 62
1
100
AcDbLine
 10
96.201080
 20
45.381844
 30
0.0
 11
96.201080
 21
45.381844
 31
0.0
  0
SPLINE
  5
160
100
AcDbEntity
  8
Layer_1
 62
1
100
AcDbSpline
 70
8
 71
3
 72
8
 73
4
 74
0
 40
0
 40
0
 40
0
 40
0
 40
1
 40
1
 40
1
 40
1
 10
65.201081
 20
45.381844
 30
0.0
 10
65.201081
 20
46.007059
 30
0.0
 10
64.867533
 20
46.584781
 30
0.0
 10
64.326081
 20
46.897388
 30
0.0
  0
SPLINE
  5
161
100
AcDbEntity
  8
Layer_1
 62
1
100
AcDbSpline
 70
8
 71
3
 72
8
 73
4
 74
0
 40
0
 40
0
 40
0
 40
0
 40
1
 40
1
 40
1
 40
1
 10
64.326081
 20
46.897388
 30
0.0
 10
63.784629
 20
47.209996
 30
0.0
 10
63.117533
 20
47.209996
 30
0.0
 10
62.576081
 20
46.897388
 30
0.0
  0
SPLINE
  5
162
100
AcDbEntity
  8
Layer_1
 62
1
100
AcDbSpline
 70
8
 71
3
 72
8
 73
4
 74
0
 40
0
 40
0
 40
0
 40
0
 40
1
 40
1
 40
1
 40
1
 10
62.576081
 20
46.897388
 30
0.0
 10
62.034629
 20
46.584781
 30
0.0
 10
61.701081
 20
46.007059
 30
0.0
 10
61.701081
 20
45.381844
 30
0.0
  0
SPLINE
  5
163
100
AcDbEntity
  8
Layer_1
 62
1
100
AcDbSpline
 70
8
 71
3
 72
8
 73
4
 74
0
 40
0
 40
0
 40
0
 40
0
 40
1
 40
1
 40
1
 40
1
 10
61.701081
 20
45.381844
 30
0.0
 10
61.701081
 20
44.756629
 30
0.0
 10
62.034629
 20
44.178907
 30
0.0
 10
62.576081
 20
43.866299
 30
0.0
  0
SPLINE
  5
164
100
AcDbEntity
  8
Layer_1
 62
1
100
AcDbSpline
 70
8
 71
3
 72
8
 73
4
 74
0
 40
0
 40
0
 40
0
 40
0
 40
1
 40
1
 40
1
 40
1
 10
62.576081
 20
43.866299
 30
0.0
 10
63.117533
 20
43.553692
 30
0.0
 10
63.784629
 20
43.553692
 30
0.0
 10
64.326081
 20
43.866299
 30
0.0
  0
SPLINE
  5
165
100
AcDbEntity
  8
Layer_1
 62
1
100
AcDbSpline
 70
8
 71
3
 72
8
 73
4
 74
0
 40
0
 40
0
 40
0
 40
0
 40
1
 40
1
 40
1
 40
1
 10
64.326081
 20
43.866299
 30
0.0
 10
64.867533
 20
44.178907
 30
0.0
 10
65.201081
 20
44.756629
 30
0.0
 10
65.201081
 20
45.381844
 30
0.0
  0
LINE
  5
166
100
AcDbEntity
  8
Layer_1
 62
1
100
AcDbLine
 10
65.201081
 20
45.381844
 30
0.0
 11
65.201081
 21
45.381844
 31
0.0
  0
SPLINE
  5
167
100
AcDbEntity
  8
Layer_1
 62
1
100
AcDbSpline
 70
8
 71
3
 72
8
 73
4
 74
0
 40
0
 40
0
 40
0
 40
0
 40
1
 40
1
 40
1
 40
1
 10
65.201081
 20
14.381841
 30
0.0
 10
65.201081
 20
15.007056
 30
0.0
 10
64.867533
 20
15.584778
 30
0.0
 10
64.326081
 20
15.897385
 30
0.0
  0
SPLINE
  5
168
100
AcDbEntity
  8
Layer_1
 62
1
100
AcDbSpline
 70
8
 71
3
 72
8
 73
4
 74
0
 40
0
 40
0
 40
0
 40
0
 40
1
 40
1
 40
1
 40
1
 10
64.326081
 20
15.897385
 30
0.0
 10
63.784629
 20
16.209993
 30
0.0
 10
63.117533
 20
16.209993
 30
0.0
 10
62.576081
 20
15.897385
 30
0.0
  0
SPLINE
  5
169
100
AcDbEntity
  8
Layer_1
 62
1
100
AcDbSpline
 70
8
 71
3
 72
8
 73
4
 74
0
 40
0
 40
0
 40
0
 40
0
 40
1
 40
1
 40
1
 40
1
 10
62.576081
 20
15.897385
 30
0.0
 10
62.034629
 20
15.584778
 30
0.0
 10
61.701081
 20
15.007056
 30
0.0
 10
61.701081
 20
14.381841
 30
0.0
  0
SPLINE
  5
16a
100
AcDbEntity
  8
Layer_1
 62
1
100
AcDbSpline
 70
8
 71
3
 72
8
 73
4
 74
0
 40
0
 40
0
 40
0
 40
0
 40
1
 40
1
 40
1
 40
1
 10
61.701081
 20
14.381841
 30
0.0
 10
61.701081
 20
13.756626
 30
0.0
 10
62.034629
 20
13.178904
 30
0.0
 10
62.576081
 20
12.866297
 30
0.0
  0
SPLINE
  5
16b
100
AcDbEntity
  8
Layer_1
 62
1
100
AcDbSpline
 70
8
 71
3
 72
8
 73
4
 74
0
 40
0
 40
0
 40
0
 40
0
 40
1
 40
1
 40
1
 40
1
 10
62.576081
 20
12.866297
 30
0.0
 10
63.117533
 20
12.553689
 30
0.0
 10
63.784629
 20
12.553689
 30
0.0
 10
64.326081
 20
12.866297
 30
0.0
  0
SPLINE
  5
16c
100
AcDbEntity
  8
Layer_1
 62
1
100
AcDbSpline
 70
8
 71
3
 72
8
 73
4
 74
0
 40
0
 40
0
 40
0
 40
0
 40
1
 40
1
 40
1
 40
1
 10
64.326081
 20
12.866297
 30
0.0
 10
64.867533
 20
13.178904
 30
0.0
 10
65.201081
 20
13.756626
 30
0.0
 10
65.201081
 20
14.381841
 30
0.0
  0
LINE
  5
16d
100
AcDbEntity
  8
Layer_1
 62
1
100
AcDbLine
 10
65.201081
 20
14.381841
 30
0.0
 11
65.201081
 21
14.381841
 31
0.0
  0
LINE
  5
16e
100
AcDbEntity
  8
Layer_1
 62
1
100
AcDbLine
 10
107.951081
 20
34.881845
 30
0.0
 11
101.951082
 21
34.881845
 31
0.0
  0
LINE
  5
16f
100
AcDbEntity
  8
Layer_1
 62
1
100
AcDbLine
 10
101.951082
 20
34.881845
 30
0.0
 11
101.951082
 21
24.881845
 31
0.0
  0
LINE
  5
170
100
AcDbEntity
  8
Layer_1
 62
1
100
AcDbLine
 10
101.951082
 20
24.881845
 30
0.0
 11
107.951081
 21
24.881845
 31
0.0
  0
LINE
  5
171
100
AcDbEntity
  8
Layer_1
 62
1
100
AcDbLine
 10
107.951081
 20
24.881845
 30
0.0
 11
107.951081
 21
34.881845
 31
0.0
  0
LINE
  5
172
100
AcDbEntity
  8
Layer_1
 62
7
100
AcDbLine
 10
104.951081
 20
54.881845
 30
0.0
 11
104.951081
 21
34.881845
 31
0.0
  0
LINE
  5
173
100
AcDbEntity
  8
Layer_1
 62
7
100
AcDbLine
 10
104.951081
 20
4.881846
 30
0.0
 11
104.951081
 21
24.881845
 31
0.0
  0
LINE
  5
174
100
AcDbEntity
  8
Layer_1
 62
7
100
AcDbLine
 10
117.955972
 20
108.712794
 30
0.0
 11
117.955972
 21
88.713052
 31
0.0
  0
LINE
  5
175
100
AcDbEntity
  8
Layer_1
 62
7
100
AcDbLine
 10
117.955972
 20
88.713052
 30
0.0
 11
114.956260
 21
88.713052
 31
0.0
  0
LINE
  5
176
100
AcDbEntity
  8
Layer_1
 62
7
100
AcDbLine
 10
114.956260
 20
88.713052
 30
0.0
 11
114.956260
 21
78.712902
 31
0.0
  0
LINE
  5
177
100
AcDbEntity
  8
Layer_1
 62
7
100
AcDbLine
 10
114.956260
 20
78.712902
 30
0.0
 11
117.955972
 21
78.712902
 31
0.0
  0
LINE
  5
178
100
AcDbEntity
  8
Layer_1
 62
7
100
AcDbLine
 10
117.955972
 20
78.712902
 30
0.0
 11
117.955972
 21
58.713168
 31
0.0
  0
LINE
  5
179
100
AcDbEntity
  8
Layer_1
 62
7
100
AcDbLine
 10
117.955972
 20
58.713168
 30
0.0
 11
134.956002
 21
58.713168
 31
0.0
  0
LINE
  5
17a
100
AcDbEntity
  8
Layer_1
 62
7
100
AcDbLine
 10
134.956002
 20
58.713168
 30
0.0
 11
134.956002
 21
55.712892
 31
0.0
  0
LINE
  5
17b
100
AcDbEntity
  8
Layer_1
 62
7
100
AcDbLine
 10
134.956002
 20
55.712892
 30
0.0
 11
144.956149
 21
55.712892
 31
0.0
  0
LINE
  5
17c
100
AcDbEntity
  8
Layer_1
 62
7
100
AcDbLine
 10
144.956149
 20
55.712892
 30
0.0
 11
144.956149
 21
58.713168
 31
0.0
  0
LINE
  5
17d
100
AcDbEntity
  8
Layer_1
 62
7
100
AcDbLine
 10
144.956149
 20
58.713168
 30
0.0
 11
161.956180
 21
58.713168
 31
0.0
  0
SPLINE
  5
17e
100
AcDbEntity
  8
Layer_1
 62
7
100
AcDbSpline
 70
8
 71
3
 72
8
 73
4
 74
0
 40
0
 40
0
 40
0
 40
0
 40
1
 40
1
 40
1
 40
1
 10
161.956180
 20
58.713168
 30
0.0
 10
153.991581
 20
81.217393
 30
0.0
 10
141.470324
 20
99.097105
 30
0.0
 10
117.955972
 20
108.712794
 30
0.0
  0
LINE
  5
17f
100
AcDbEntity
  8
Layer_1
 62
7
100
AcDbLine
 10
117.955972
 20
108.712794
 30
0.0
 11
117.955972
 21
108.712794
 31
0.0
  0
SPLINE
  5
180
100
AcDbEntity
  8
Layer_1
 62
1
100
AcDbSpline
 70
8
 71
3
 72
8
 73
4
 74
0
 40
0
 40
0
 40
0
 40
0
 40
1
 40
1
 40
1
 40
1
 10
141.956062
 20
78.713027
 30
0.0
 10
141.956442
 20
80.142342
 30
0.0
 10
141.194129
 20
81.463246
 30
0.0
 10
139.956369
 20
82.178014
 30
0.0
  0
SPLINE
  5
181
100
AcDbEntity
  8
Layer_1
 62
1
100
AcDbSpline
 70
8
 71
3
 72
8
 73
4
 74
0
 40
0
 40
0
 40
0
 40
0
 40
1
 40
1
 40
1
 40
1
 10
139.956369
 20
82.178014
 30
0.0
 10
138.718608
 20
82.892781
 30
0.0
 10
137.193515
 20
82.892781
 30
0.0
 10
135.955755
 20
82.178014
 30
0.0
  0
SPLINE
  5
182
100
AcDbEntity
  8
Layer_1
 62
1
100
AcDbSpline
 70
8
 71
3
 72
8
 73
4
 74
0
 40
0
 40
0
 40
0
 40
0
 40
1
 40
1
 40
1
 40
1
 10
135.955755
 20
82.178014
 30
0.0
 10
134.717995
 20
81.463246
 30
0.0
 10
133.955682
 20
80.142342
 30
0.0
 10
133.956062
 20
78.713027
 30
0.0
  0
SPLINE
  5
183
100
AcDbEntity
  8
Layer_1
 62
1
100
AcDbSpline
 70
8
 71
3
 72
8
 73
4
 74
0
 40
0
 40
0
 40
0
 40
0
 40
1
 40
1
 40
1
 40
1
 10
133.956062
 20
78.713027
 30
0.0
 10
133.955682
 20
77.283711
 30
0.0
 10
134.717995
 20
75.962807
 30
0.0
 10
135.955755
 20
75.248039
 30
0.0
  0
SPLINE
  5
184
100
AcDbEntity
  8
Layer_1
 62
1
100
AcDbSpline
 70
8
 71
3
 72
8
 73
4
 74
0
 40
0
 40
0
 40
0
 40
0
 40
1
 40
1
 40
1
 40
1
 10
135.955755
 20
75.248039
 30
0.0
 10
137.193515
 20
74.533272
 30
0.0
 10
138.718608
 20
74.533272
 30
0.0
 10
139.956369
 20
75.248039
 30
0.0
  0
SPLINE
  5
185
100
AcDbEntity
  8
Layer_1
 62
1
100
AcDbSpline
 70
8
 71
3
 72
8
 73
4
 74
0
 40
0
 40
0
 40
0
 40
0
 40
1
 40
1
 40
1
 40
1
 10
139.956369
 20
75.248039
 30
0.0
 10
141.194129
 20
75.962807
 30
0.0
 10
141.956442
 20
77.283711
 30
0.0
 10
141.956062
 20
78.713027
 30
0.0
  0
LINE
  5
186
100
AcDbEntity
  8
Layer_1
 62
1
100
AcDbLine
 10
141.956062
 20
78.713027
 30
0.0
 11
141.956062
 21
78.713027
 31
0.0
  0
SPLINE
  5
187
100
AcDbEntity
  8
Layer_1
 62
1
100
AcDbSpline
 70
8
 71
3
 72
8
 73
4
 74
0
 40
0
 40
0
 40
0
 40
0
 40
1
 40
1
 40
1
 40
1
 10
117.956062
 20
108.713026
 30
0.0
 10
137.289396
 20
98.713025
 30
0.0
 10
151.956063
 20
82.046359
 30
0.0
 10
161.956061
 20
58.713027
 30
0.0
  0
SPLINE
  5
188
100
AcDbEntity
  8
Layer_1
 62
1
100
AcDbSpline
 70
8
 71
3
 72
8
 73
4
 74
0
 40
0
 40
0
 40
0
 40
0
 40
1
 40
1
 40
1
 40
1
 10
123.956062
 20
63.213032
 30
0.0
 10
123.956062
 20
63.748931
 30
0.0
 10
123.670164
 20
64.244121
 30
0.0
 10
123.206062
 20
64.512070
 30
0.0
  0
SPLINE
  5
189
100
AcDbEntity
  8
Layer_1
 62
1
100
AcDbSpline
 70
8
 71
3
 72
8
 73
4
 74
0
 40
0
 40
0
 40
0
 40
0
 40
1
 40
1
 40
1
 40
1
 10
123.206062
 20
64.512070
 30
0.0
 10
122.741960
 20
64.780020
 30
0.0
 10
122.170164
 20
64.780020
 30
0.0
 10
121.706062
 20
64.512070
 30
0.0
  0
SPLINE
  5
18a
100
AcDbEntity
  8
Layer_1
 62
1
100
AcDbSpline
 70
8
 71
3
 72
8
 73
4
 74
0
 40
0
 40
0
 40
0
 40
0
 40
1
 40
1
 40
1
 40
1
 10
121.706062
 20
64.512070
 30
0.0
 10
121.241960
 20
64.244121
 30
0.0
 10
120.956062
 20
63.748931
 30
0.0
 10
120.956062
 20
63.213032
 30
0.0
  0
SPLINE
  5
18b
100
AcDbEntity
  8
Layer_1
 62
1
100
AcDbSpline
 70
8
 71
3
 72
8
 73
4
 74
0
 40
0
 40
0
 40
0
 40
0
 40
1
 40
1
 40
1
 40
1
 10
120.956062
 20
63.213032
 30
0.0
 10
120.956062
 20
62.677134
 30
0.0
 10
121.241960
 20
62.181943
 30
0.0
 10
121.706062
 20
61.913994
 30
0.0
  0
SPLINE
  5
18c
100
AcDbEntity
  8
Layer_1
 62
1
100
AcDbSpline
 70
8
 71
3
 72
8
 73
4
 74
0
 40
0
 40
0
 40
0
 40
0
 40
1
 40
1
 40
1
 40
1
 10
121.706062
 20
61.913994
 30
0.0
 10
122.170164
 20
61.646045
 30
0.0
 10
122.741960
 20
61.646045
 30
0.0
 10
123.206062
 20
61.913994
 30
0.0
  0
SPLINE
  5
18d
100
AcDbEntity
  8
Layer_1
 62
1
100
AcDbSpline
 70
8
 71
3
 72
8
 73
4
 74
0
 40
0
 40
0
 40
0
 40
0
 40
1
 40
1
 40
1
 40
1
 10
123.206062
 20
61.913994
 30
0.0
 10
123.670164
 20
62.181943
 30
0.0
 10
123.956062
 20
62.677134
 30
0.0
 10
123.956062
 20
63.213032
 30
0.0
  0
LINE
  5
18e
100
AcDbEntity
  8
Layer_1
 62
1
100
AcDbLine
 10
123.956062
 20
63.213032
 30
0.0
 11
123.956062
 21
63.213032
 31
0.0
  0
LINE
  5
18f
100
AcDbEntity
  8
Layer_1
 62
7
100
AcDbLine
 10
150.814492
 20
4.609136
 30
0.0
 11
150.814492
 21
24.608899
 31
0.0
  0
LINE
  5
190
100
AcDbEntity
  8
Layer_1
 62
7
100
AcDbLine
 10
150.814492
 20
24.608899
 30
0.0
 11
153.814204
 21
24.608899
 31
0.0
  0
LINE
  5
191
100
AcDbEntity
  8
Layer_1
 62
7
100
AcDbLine
 10
153.814204
 20
24.608899
 30
0.0
 11
153.814204
 21
34.609020
 31
0.0
  0
LINE
  5
192
100
AcDbEntity
  8
Layer_1
 62
7
100
AcDbLine
 10
153.814204
 20
34.609020
 30
0.0
 11
150.814492
 21
34.609020
 31
0.0
  0
LINE
  5
193
100
AcDbEntity
  8
Layer_1
 62
7
100
AcDbLine
 10
150.814492
 20
34.609020
 30
0.0
 11
150.814492
 21
54.608726
 31
0.0
  0
LINE
  5
194
100
AcDbEntity
  8
Layer_1
 62
7
100
AcDbLine
 10
150.814492
 20
54.608726
 30
0.0
 11
133.814460
 21
54.608726
 31
0.0
  0
LINE
  5
195
100
AcDbEntity
  8
Layer_1
 62
7
100
AcDbLine
 10
133.814460
 20
54.608726
 30
0.0
 11
133.814460
 21
57.609002
 31
0.0
  0
LINE
  5
196
100
AcDbEntity
  8
Layer_1
 62
7
100
AcDbLine
 10
133.814460
 20
57.609002
 30
0.0
 11
123.814314
 21
57.609002
 31
0.0
  0
LINE
  5
197
100
AcDbEntity
  8
Layer_1
 62
7
100
AcDbLine
 10
123.814314
 20
57.609002
 30
0.0
 11
123.814314
 21
54.608726
 31
0.0
  0
LINE
  5
198
100
AcDbEntity
  8
Layer_1
 62
7
100
AcDbLine
 10
123.814314
 20
54.608726
 30
0.0
 11
106.814283
 21
54.608726
 31
0.0
  0
SPLINE
  5
199
100
AcDbEntity
  8
Layer_1
 62
7
100
AcDbSpline
 70
8
 71
3
 72
8
 73
4
 74
0
 40
0
 40
0
 40
0
 40
0
 40
1
 40
1
 40
1
 40
1
 10
106.814283
 20
54.608726
 30
0.0
 10
114.778882
 20
32.104551
 30
0.0
 10
127.300139
 20
14.224814
 30
0.0
 10
150.814492
 20
4.609136
 30
0.0
  0
LINE
  5
19a
100
AcDbEntity
  8
Layer_1
 62
7
100
AcDbLine
 10
150.814492
 20
4.609136
 30
0.0
 11
150.814492
 21
4.609136
 31
0.0
  0
SPLINE
  5
19b
100
AcDbEntity
  8
Layer_1
 62
1
100
AcDbSpline
 70
8
 71
3
 72
8
 73
4
 74
0
 40
0
 40
0
 40
0
 40
0
 40
1
 40
1
 40
1
 40
1
 10
126.814401
 20
34.608907
 30
0.0
 10
126.814401
 20
32.399768
 30
0.0
 10
128.605262
 20
30.608906
 30
0.0
 10
130.814402
 20
30.608906
 30
0.0
  0
SPLINE
  5
19c
100
AcDbEntity
  8
Layer_1
 62
1
100
AcDbSpline
 70
8
 71
3
 72
8
 73
4
 74
0
 40
0
 40
0
 40
0
 40
0
 40
1
 40
1
 40
1
 40
1
 10
130.814402
 20
30.608906
 30
0.0
 10
133.023541
 20
30.608906
 30
0.0
 10
134.814402
 20
32.399768
 30
0.0
 10
134.814402
 20
34.608907
 30
0.0
  0
SPLINE
  5
19d
100
AcDbEntity
  8
Layer_1
 62
1
100
AcDbSpline
 70
8
 71
3
 72
8
 73
4
 74
0
 40
0
 40
0
 40
0
 40
0
 40
1
 40
1
 40
1
 40
1
 10
134.814402
 20
34.608907
 30
0.0
 10
134.814402
 20
36.037969
 30
0.0
 10
134.052006
 20
37.358478
 30
0.0
 10
132.814402
 20
38.073009
 30
0.0
  0
SPLINE
  5
19e
100
AcDbEntity
  8
Layer_1
 62
1
100
AcDbSpline
 70
8
 71
3
 72
8
 73
4
 74
0
 40
0
 40
0
 40
0
 40
0
 40
1
 40
1
 40
1
 40
1
 10
132.814402
 20
38.073009
 30
0.0
 10
131.576797
 20
38.787540
 30
0.0
 10
130.052006
 20
38.787540
 30
0.0
 10
128.814401
 20
38.073009
 30
0.0
  0
SPLINE
  5
19f
100
AcDbEntity
  8
Layer_1
 62
1
100
AcDbSpline
 70
8
 71
3
 72
8
 73
4
 74
0
 40
0
 40
0
 40
0
 40
0
 40
1
 40
1
 40
1
 40
1
 10
128.814401
 20
38.073009
 30
0.0
 10
127.576797
 20
37.358478
 30
0.0
 10
126.814401
 20
36.037969
 30
0.0
 10
126.814401
 20
34.608907
 30
0.0
  0
LINE
  5
1a0
100
AcDbEntity
  8
Layer_1
 62
1
100
AcDbLine
 10
126.814401
 20
34.608907
 30
0.0
 11
126.814401
 21
34.608907
 31
0.0
  0
SPLINE
  5
1a1
100
AcDbEntity
  8
Layer_1
 62
1
100
AcDbSpline
 70
8
 71
3
 72
8
 73
4
 74
0
 40
0
 40
0
 40
0
 40
0
 40
1
 40
1
 40
1
 40
1
 10
150.814402
 20
4.608882
 30
0.0
 10
131.481067
 20
14.608881
 30
0.0
 10
116.814400
 20
31.275543
 30
0.0
 10
106.814402
 20
54.608867
 30
0.0
  0
SPLINE
  5
1a2
100
AcDbEntity
  8
Layer_1
 62
1
100
AcDbSpline
 70
8
 71
3
 72
8
 73
4
 74
0
 40
0
 40
0
 40
0
 40
0
 40
1
 40
1
 40
1
 40
1
 10
144.814402
 20
50.108862
 30
0.0
 10
144.814402
 20
49.572963
 30
0.0
 10
145.100300
 20
49.077773
 30
0.0
 10
145.564402
 20
48.809823
 30
0.0
  0
SPLINE
  5
1a3
100
AcDbEntity
  8
Layer_1
 62
1
100
AcDbSpline
 70
8
 71
3
 72
8
 73
4
 74
0
 40
0
 40
0
 40
0
 40
0
 40
1
 40
1
 40
1
 40
1
 10
145.564402
 20
48.809823
 30
0.0
 10
146.028504
 20
48.541874
 30
0.0
 10
146.600301
 20
48.541874
 30
0.0
 10
147.064402
 20
48.809823
 30
0.0
  0
SPLINE
  5
1a4
100
AcDbEntity
  8
Layer_1
 62
1
100
AcDbSpline
 70
8
 71
3
 72
8
 73
4
 74
0
 40
0
 40
0
 40
0
 40
0
 40
1
 40
1
 40
1
 40
1
 10
147.064402
 20
48.809823
 30
0.0
 10
147.528504
 20
49.077773
 30
0.0
 10
147.814403
 20
49.572963
 30
0.0
 10
147.814403
 20
50.108862
 30
0.0
  0
SPLINE
  5
1a5
100
AcDbEntity
  8
Layer_1
 62
1
100
AcDbSpline
 70
8
 71
3
 72
8
 73
4
 74
0
 40
0
 40
0
 40
0
 40
0
 40
1
 40
1
 40
1
 40
1
 10
147.814403
 20
50.108862
 30
0.0
 10
147.814403
 20
50.644760
 30
0.0
 10
147.528504
 20
51.139951
 30
0.0
 10
147.064402
 20
51.407900
 30
0.0
  0
SPLINE
  5
1a6
100
AcDbEntity
  8
Layer_1
 62
1
100
AcDbSpline
 70
8
 71
3
 72
8
 73
4
 74
0
 40
0
 40
0
 40
0
 40
0
 40
1
 40
1
 40
1
 40
1
 10
147.064402
 20
51.407900
 30
0.0
 10
146.600301
 20
51.675849
 30
0.0
 10
146.028504
 20
51.675849
 30
0.0
 10
145.564402
 20
51.407900
 30
0.0
  0
SPLINE
  5
1a7
100
AcDbEntity
  8
Layer_1
 62
1
100
AcDbSpline
 70
8
 71
3
 72
8
 73
4
 74
0
 40
0
 40
0
 40
0
 40
0
 40
1
 40
1
 40
1
 40
1
 10
145.564402
 20
51.407900
 30
0.0
 10
145.100300
 20
51.139951
 30
0.0
 10
144.814402
 20
50.644760
 30
0.0
 10
144.814402
 20
50.108862
 30
0.0
  0
LINE
  5
1a8
100
AcDbEntity
  8
Layer_1
 62
1
100
AcDbLine
 10
144.814402
 20
50.108862
 30
0.0
 11
144.814402
 21
50.108862
 31
0.0
  0
LINE
  5
1a9
100
AcDbEntity
  8
Layer_1
 62
7
100
AcDbLine
 10
163.746033
 20
108.214063
 30
0.0
 11
163.746033
 21
88.214317
 31
0.0
  0
LINE
  5
1aa
100
AcDbEntity
  8
Layer_1
 62
7
100
AcDbLine
 10
163.746033
 20
88.214317
 30
0.0
 11
160.746321
 21
88.214317
 31
0.0
  0
LINE
  5
1ab
100
AcDbEntity
  8
Layer_1
 62
7
100
AcDbLine
 10
160.746321
 20
88.214317
 30
0.0
 11
160.746321
 21
78.214171
 31
0.0
  0
LINE
  5
1ac
100
AcDbEntity
  8
Layer_1
 62
7
100
AcDbLine
 10
160.746321
 20
78.214171
 30
0.0
 11
163.746033
 21
78.214171
 31
0.0
  0
LINE
  5
1ad
100
AcDbEntity
  8
Layer_1
 62
7
100
AcDbLine
 10
163.746033
 20
78.214171
 30
0.0
 11
163.746033
 21
58.214425
 31
0.0
  0
LINE
  5
1ae
100
AcDbEntity
  8
Layer_1
 62
7
100
AcDbLine
 10
163.746033
 20
58.214425
 30
0.0
 11
180.746064
 21
58.214425
 31
0.0
  0
LINE
  5
1af
100
AcDbEntity
  8
Layer_1
 62
7
100
AcDbLine
 10
180.746064
 20
58.214425
 30
0.0
 11
180.746064
 21
55.214149
 31
0.0
  0
LINE
  5
1b0
100
AcDbEntity
  8
Layer_1
 62
7
100
AcDbLine
 10
180.746064
 20
55.214149
 30
0.0
 11
190.746211
 21
55.214149
 31
0.0
  0
LINE
  5
1b1
100
AcDbEntity
  8
Layer_1
 62
7
100
AcDbLine
 10
190.746211
 20
55.214149
 30
0.0
 11
190.746211
 21
58.214425
 31
0.0
  0
LINE
  5
1b2
100
AcDbEntity
  8
Layer_1
 62
7
100
AcDbLine
 10
190.746211
 20
58.214425
 30
0.0
 11
207.746242
 21
58.214425
 31
0.0
  0
SPLINE
  5
1b3
100
AcDbEntity
  8
Layer_1
 62
7
100
AcDbSpline
 70
8
 71
3
 72
8
 73
4
 74
0
 40
0
 40
0
 40
0
 40
0
 40
1
 40
1
 40
1
 40
1
 10
207.746242
 20
58.214425
 30
0.0
 10
199.781643
 20
80.718659
 30
0.0
 10
187.260388
 20
98.598370
 30
0.0
 10
163.746033
 20
108.214063
 30
0.0
  0
LINE
  5
1b4
100
AcDbEntity
  8
Layer_1
 62
7
100
AcDbLine
 10
163.746033
 20
108.214063
 30
0.0
 11
163.746033
 21
108.214063
 31
0.0
  0
SPLINE
  5
1b5
100
AcDbEntity
  8
Layer_1
 62
1
100
AcDbSpline
 70
8
 71
3
 72
8
 73
4
 74
0
 40
0
 40
0
 40
0
 40
0
 40
1
 40
1
 40
1
 40
1
 10
187.746124
 20
78.214295
 30
0.0
 10
187.747198
 20
79.644073
 30
0.0
 10
186.985037
 20
80.965702
 30
0.0
 10
185.746992
 20
81.680901
 30
0.0
  0
SPLINE
  5
1b6
100
AcDbEntity
  8
Layer_1
 62
1
100
AcDbSpline
 70
8
 71
3
 72
8
 73
4
 74
0
 40
0
 40
0
 40
0
 40
0
 40
1
 40
1
 40
1
 40
1
 10
185.746992
 20
81.680901
 30
0.0
 10
184.508947
 20
82.396100
 30
0.0
 10
182.983302
 20
82.396100
 30
0.0
 10
181.745257
 20
81.680901
 30
0.0
  0
SPLINE
  5
1b7
100
AcDbEntity
  8
Layer_1
 62
1
100
AcDbSpline
 70
8
 71
3
 72
8
 73
4
 74
0
 40
0
 40
0
 40
0
 40
0
 40
1
 40
1
 40
1
 40
1
 10
181.745257
 20
81.680901
 30
0.0
 10
180.507212
 20
80.965702
 30
0.0
 10
179.745051
 20
79.644073
 30
0.0
 10
179.746125
 20
78.214295
 30
0.0
  0
SPLINE
  5
1b8
100
AcDbEntity
  8
Layer_1
 62
1
100
AcDbSpline
 70
8
 71
3
 72
8
 73
4
 74
0
 40
0
 40
0
 40
0
 40
0
 40
1
 40
1
 40
1
 40
1
 10
179.746125
 20
78.214295
 30
0.0
 10
179.745051
 20
76.784517
 30
0.0
 10
180.507212
 20
75.462888
 30
0.0
 10
181.745257
 20
74.747689
 30
0.0
  0
SPLINE
  5
1b9
100
AcDbEntity
  8
Layer_1
 62
1
100
AcDbSpline
 70
8
 71
3
 72
8
 73
4
 74
0
 40
0
 40
0
 40
0
 40
0
 40
1
 40
1
 40
1
 40
1
 10
181.745257
 20
74.747689
 30
0.0
 10
182.983302
 20
74.032490
 30
0.0
 10
184.508947
 20
74.032490
 30
0.0
 10
185.746992
 20
74.747689
 30
0.0
  0
SPLINE
  5
1ba
100
AcDbEntity
  8
Layer_1
 62
1
100
AcDbSpline
 70
8
 71
3
 72
8
 73
4
 74
0
 40
0
 40
0
 40
0
 40
0
 40
1
 40
1
 40
1
 40
1
 10
185.746992
 20
74.747689
 30
0.0
 10
186.985037
 20
75.462888
 30
0.0
 10
187.747198
 20
76.784517
 30
0.0
 10
187.746124
 20
78.214295
 30
0.0
  0
LINE
  5
1bb
100
AcDbEntity
  8
Layer_1
 62
1
100
AcDbLine
 10
187.746124
 20
78.214295
 30
0.0
 11
187.746124
 21
78.214295
 31
0.0
  0
SPLINE
  5
1bc
100
AcDbEntity
  8
Layer_1
 62
1
100
AcDbSpline
 70
8
 71
3
 72
8
 73
4
 74
0
 40
0
 40
0
 40
0
 40
0
 40
1
 40
1
 40
1
 40
1
 10
163.746124
 20
108.214294
 30
0.0
 10
183.079458
 20
98.214291
 30
0.0
 10
197.746124
 20
81.547621
 30
0.0
 10
207.746123
 20
58.214284
 30
0.0
  0
SPLINE
  5
1bd
100
AcDbEntity
  8
Layer_1
 62
1
100
AcDbSpline
 70
8
 71
3
 72
8
 73
4
 74
0
 40
0
 40
0
 40
0
 40
0
 40
1
 40
1
 40
1
 40
1
 10
169.746126
 20
62.714289
 30
0.0
 10
169.746126
 20
63.250188
 30
0.0
 10
169.460227
 20
63.745379
 30
0.0
 10
168.996125
 20
64.013328
 30
0.0
  0
SPLINE
  5
1be
100
AcDbEntity
  8
Layer_1
 62
1
100
AcDbSpline
 70
8
 71
3
 72
8
 73
4
 74
0
 40
0
 40
0
 40
0
 40
0
 40
1
 40
1
 40
1
 40
1
 10
168.996125
 20
64.013328
 30
0.0
 10
168.532023
 20
64.281278
 30
0.0
 10
167.960226
 20
64.281278
 30
0.0
 10
167.496124
 20
64.013328
 30
0.0
  0
SPLINE
  5
1bf
100
AcDbEntity
  8
Layer_1
 62
1
100
AcDbSpline
 70
8
 71
3
 72
8
 73
4
 74
0
 40
0
 40
0
 40
0
 40
0
 40
1
 40
1
 40
1
 40
1
 10
167.496124
 20
64.013328
 30
0.0
 10
167.032022
 20
63.745379
 30
0.0
 10
166.746123
 20
63.250188
 30
0.0
 10
166.746123
 20
62.714289
 30
0.0
  0
SPLINE
  5
1c0
100
AcDbEntity
  8
Layer_1
 62
1
100
AcDbSpline
 70
8
 71
3
 72
8
 73
4
 74
0
 40
0
 40
0
 40
0
 40
0
 40
1
 40
1
 40
1
 40
1
 10
166.746123
 20
62.714289
 30
0.0
 10
166.746123
 20
62.178390
 30
0.0
 10
167.032022
 20
61.683199
 30
0.0
 10
167.496124
 20
61.415250
 30
0.0
  0
SPLINE
  5
1c1
100
AcDbEntity
  8
Layer_1
 62
1
100
AcDbSpline
 70
8
 71
3
 72
8
 73
4
 74
0
 40
0
 40
0
 40
0
 40
0
 40
1
 40
1
 40
1
 40
1
 10
167.496124
 20
61.415250
 30
0.0
 10
167.960226
 20
61.147300
 30
0.0
 10
168.532023
 20
61.147300
 30
0.0
 10
168.996125
 20
61.415250
 30
0.0
  0
SPLINE
  5
1c2
100
AcDbEntity
  8
Layer_1
 62
1
100
AcDbSpline
 70
8
 71
3
 72
8
 73
4
 74
0
 40
0
 40
0
 40
0
 40
0
 40
1
 40
1
 40
1
 40
1
 10
168.996125
 20
61.415250
 30
0.0
 10
169.460227
 20
61.683199
 30
0.0
 10
169.746126
 20
62.178390
 30
0.0
 10
169.746126
 20
62.714289
 30
0.0
  0
LINE
  5
1c3
100
AcDbEntity
  8
Layer_1
 62
1
100
AcDbLine
 10
169.746126
 20
62.714289
 30
0.0
 11
169.746126
 21
62.714289
 31
0.0
  0
LINE
  5
1c4
100
AcDbEntity
  8
Layer_1
 62
7
100
AcDbLine
 10
196.604554
 20
4.110393
 30
0.0
 11
196.604554
 21
24.110155
 31
0.0
  0
LINE
  5
1c5
100
AcDbEntity
  8
Layer_1
 62
7
100
AcDbLine
 10
196.604554
 20
24.110155
 30
0.0
 11
199.604266
 21
24.110155
 31
0.0
  0
LINE
  5
1c6
100
AcDbEntity
  8
Layer_1
 62
7
100
AcDbLine
 10
199.604266
 20
24.110155
 30
0.0
 11
199.604266
 21
34.110277
 31
0.0
  0
LINE
  5
1c7
100
AcDbEntity
  8
Layer_1
 62
7
100
AcDbLine
 10
199.604266
 20
34.110277
 30
0.0
 11
196.604554
 21
34.110277
 31
0.0
  0
LINE
  5
1c8
100
AcDbEntity
  8
Layer_1
 62
7
100
AcDbLine
 10
196.604554
 20
34.110277
 30
0.0
 11
196.604554
 21
54.109983
 31
0.0
  0
LINE
  5
1c9
100
AcDbEntity
  8
Layer_1
 62
7
100
AcDbLine
 10
196.604554
 20
54.109983
 30
0.0
 11
179.604523
 21
54.109983
 31
0.0
  0
LINE
  5
1ca
100
AcDbEntity
  8
Layer_1
 62
7
100
AcDbLine
 10
179.604523
 20
54.109983
 30
0.0
 11
179.604523
 21
57.110259
 31
0.0
  0
LINE
  5
1cb
100
AcDbEntity
  8
Layer_1
 62
7
100
AcDbLine
 10
179.604523
 20
57.110259
 30
0.0
 11
169.604377
 21
57.110259
 31
0.0
  0
LINE
  5
1cc
100
AcDbEntity
  8
Layer_1
 62
7
100
AcDbLine
 10
169.604377
 20
57.110259
 30
0.0
 11
169.604377
 21
54.109983
 31
0.0
  0
LINE
  5
1cd
100
AcDbEntity
  8
Layer_1
 62
7
100
AcDbLine
 10
169.604377
 20
54.109983
 30
0.0
 11
152.604346
 21
54.109983
 31
0.0
  0
SPLINE
  5
1ce
100
AcDbEntity
  8
Layer_1
 62
7
100
AcDbSpline
 70
8
 71
3
 72
8
 73
4
 74
0
 40
0
 40
0
 40
0
 40
0
 40
1
 40
1
 40
1
 40
1
 10
152.604346
 20
54.109983
 30
0.0
 10
160.568945
 20
31.605808
 30
0.0
 10
173.090202
 20
13.726071
 30
0.0
 10
196.604554
 20
4.110393
 30
0.0
  0
LINE
  5
1cf
100
AcDbEntity
  8
Layer_1
 62
7
100
AcDbLine
 10
196.604554
 20
4.110393
 30
0.0
 11
196.604554
 21
4.110393
 31
0.0
  0
SPLINE
  5
1d0
100
AcDbEntity
  8
Layer_1
 62
1
100
AcDbSpline
 70
8
 71
3
 72
8
 73
4
 74
0
 40
0
 40
0
 40
0
 40
0
 40
1
 40
1
 40
1
 40
1
 10
172.604464
 20
34.110164
 30
0.0
 10
172.604464
 20
32.681101
 30
0.0
 10
173.366860
 20
31.360593
 30
0.0
 10
174.604464
 20
30.646062
 30
0.0
  0
SPLINE
  5
1d1
100
AcDbEntity
  8
Layer_1
 62
1
100
AcDbSpline
 70
8
 71
3
 72
8
 73
4
 74
0
 40
0
 40
0
 40
0
 40
0
 40
1
 40
1
 40
1
 40
1
 10
174.604464
 20
30.646062
 30
0.0
 10
175.842069
 20
29.931530
 30
0.0
 10
177.366860
 20
29.931530
 30
0.0
 10
178.604465
 20
30.646062
 30
0.0
  0
SPLINE
  5
1d2
100
AcDbEntity
  8
Layer_1
 62
1
100
AcDbSpline
 70
8
 71
3
 72
8
 73
4
 74
0
 40
0
 40
0
 40
0
 40
0
 40
1
 40
1
 40
1
 40
1
 10
178.604465
 20
30.646062
 30
0.0
 10
179.842069
 20
31.360593
 30
0.0
 10
180.604465
 20
32.681101
 30
0.0
 10
180.604465
 20
34.110164
 30
0.0
  0
SPLINE
  5
1d3
100
AcDbEntity
  8
Layer_1
 62
1
100
AcDbSpline
 70
8
 71
3
 72
8
 73
4
 74
0
 40
0
 40
0
 40
0
 40
0
 40
1
 40
1
 40
1
 40
1
 10
180.604465
 20
34.110164
 30
0.0
 10
180.604465
 20
35.539226
 30
0.0
 10
179.842069
 20
36.859735
 30
0.0
 10
178.604465
 20
37.574266
 30
0.0
  0
SPLINE
  5
1d4
100
AcDbEntity
  8
Layer_1
 62
1
100
AcDbSpline
 70
8
 71
3
 72
8
 73
4
 74
0
 40
0
 40
0
 40
0
 40
0
 40
1
 40
1
 40
1
 40
1
 10
178.604465
 20
37.574266
 30
0.0
 10
177.366860
 20
38.288797
 30
0.0
 10
175.842069
 20
38.288797
 30
0.0
 10
174.604464
 20
37.574266
 30
0.0
  0
SPLINE
  5
1d5
100
AcDbEntity
  8
Layer_1
 62
1
100
AcDbSpline
 70
8
 71
3
 72
8
 73
4
 74
0
 40
0
 40
0
 40
0
 40
0
 40
1
 40
1
 40
1
 40
1
 10
174.604464
 20
37.574266
 30
0.0
 10
173.366860
 20
36.859735
 30
0.0
 10
172.604464
 20
35.539226
 30
0.0
 10
172.604464
 20
34.110164
 30
0.0
  0
LINE
  5
1d6
100
AcDbEntity
  8
Layer_1
 62
1
100
AcDbLine
 10
172.604464
 20
34.110164
 30
0.0
 11
172.604464
 21
34.110164
 31
0.0
  0
SPLINE
  5
1d7
100
AcDbEntity
  8
Layer_1
 62
1
100
AcDbSpline
 70
8
 71
3
 72
8
 73
4
 74
0
 40
0
 40
0
 40
0
 40
0
 40
1
 40
1
 40
1
 40
1
 10
196.604464
 20
4.110139
 30
0.0
 10
177.271130
 20
14.110138
 30
0.0
 10
162.604463
 20
30.776799
 30
0.0
 10
152.604464
 20
54.110124
 30
0.0
  0
SPLINE
  5
1d8
100
AcDbEntity
  8
Layer_1
 62
1
100
AcDbSpline
 70
8
 71
3
 72
8
 73
4
 74
0
 40
0
 40
0
 40
0
 40
0
 40
1
 40
1
 40
1
 40
1
 10
190.604465
 20
49.610119
 30
0.0
 10
190.605183
 20
48.782200
 30
0.0
 10
191.276545
 20
48.111419
 30
0.0
 10
192.104464
 20
48.111419
 30
0.0
  0
SPLINE
  5
1d9
100
AcDbEntity
  8
Layer_1
 62
1
100
AcDbSpline
 70
8
 71
3
 72
8
 73
4
 74
0
 40
0
 40
0
 40
0
 40
0
 40
1
 40
1
 40
1
 40
1
 10
192.104464
 20
48.111419
 30
0.0
 10
192.932384
 20
48.111419
 30
0.0
 10
193.603746
 20
48.782200
 30
0.0
 10
193.604464
 20
49.610119
 30
0.0
  0
SPLINE
  5
1da
100
AcDbEntity
  8
Layer_1
 62
1
100
AcDbSpline
 70
8
 71
3
 72
8
 73
4
 74
0
 40
0
 40
0
 40
0
 40
0
 40
1
 40
1
 40
1
 40
1
 10
193.604464
 20
49.610119
 30
0.0
 10
193.604929
 20
50.146327
 30
0.0
 10
193.319133
 20
50.642003
 30
0.0
 10
192.854840
 20
50.910241
 30
0.0
  0
SPLINE
  5
1db
100
AcDbEntity
  8
Layer_1
 62
1
100
AcDbSpline
 70
8
 71
3
 72
8
 73
4
 74
0
 40
0
 40
0
 40
0
 40
0
 40
1
 40
1
 40
1
 40
1
 10
192.854840
 20
50.910241
 30
0.0
 10
192.390548
 20
51.178480
 30
0.0
 10
191.818381
 20
51.178480
 30
0.0
 10
191.354089
 20
50.910241
 30
0.0
  0
SPLINE
  5
1dc
100
AcDbEntity
  8
Layer_1
 62
1
100
AcDbSpline
 70
8
 71
3
 72
8
 73
4
 74
0
 40
0
 40
0
 40
0
 40
0
 40
1
 40
1
 40
1
 40
1
 10
191.354089
 20
50.910241
 30
0.0
 10
190.889796
 20
50.642003
 30
0.0
 10
190.603999
 20
50.146327
 30
0.0
 10
190.604465
 20
49.610119
 30
0.0
  0
LINE
  5
1dd
100
AcDbEntity
  8
Layer_1
 62
1
100
AcDbLine
 10
190.604465
 20
49.610119
 30
0.0
 11
190.604465
 21
49.610119
 31
0.0
  0
ENDSEC
  0
SECTION
  2
OBJECTS
  0
DICTIONARY
  5
C
330
0
100
AcDbDictionary
  3
ACAD_GROUP
350
D
  3
ACAD_MLINESTYLE
350
17
  0
DICTIONARY
  5
D
330
C
100
AcDbDictionary
  0
DICTIONARY
  5
1A
330
C
100
AcDbDictionary
  0
DICTIONARY
  5
17
330
C
100
AcDbDictionary
  3
STANDARD
350
18
  0
DICTIONARY
  5
19
330
C
100
AcDbDictionary
  0
ENDSEC
  0
EOF
