<?xml version="1.0" encoding="UTF-8" standalone="no"?>
<!-- Created with Inkscape (http://www.inkscape.org/) -->

<svg
   xmlns:dc="http://purl.org/dc/elements/1.1/"
   xmlns:cc="http://creativecommons.org/ns#"
   xmlns:rdf="http://www.w3.org/1999/02/22-rdf-syntax-ns#"
   xmlns:svg="http://www.w3.org/2000/svg"
   xmlns="http://www.w3.org/2000/svg"
   xmlns:sodipodi="http://sodipodi.sourceforge.net/DTD/sodipodi-0.dtd"
   xmlns:inkscape="http://www.inkscape.org/namespaces/inkscape"
   width="210mm"
   height="297mm"
   viewBox="0 0 744.09448819 1052.3622047"
   id="svg2"
   version="1.1"
   inkscape:version="0.91pre4 r13712"
   sodipodi:docname="Numa17Mount.svg">
  <defs
     id="defs4">
    <marker
       orient="auto"
       id="DistanceX"
       style="overflow:visible"
       refX="0.0"
       refY="0.0">
      <path
         id="path3343"
         d="M 3,-3 L -3,3 M 0,-5 L  0,5"
         style="stroke:#000000; stroke-width:0.5" />
    </marker>
    <pattern
       id="Hatch"
       x="0"
       y="0"
       patternUnits="userSpaceOnUse"
       width="8"
       height="8">
      <path
         id="path3346"
         d="M8 4 l-4,4"
         stroke-width="0.25"
         stroke="#000000"
         linecap="square" />
      <path
         id="path3348"
         d="M6 2 l-4,4"
         stroke-width="0.25"
         stroke="#000000"
         linecap="square" />
      <path
         id="path3350"
         d="M4 0 l-4,4"
         stroke-width="0.25"
         stroke="#000000"
         linecap="square" />
    </pattern>
    <symbol
       id="*MODEL_SPACE" />
    <symbol
       id="*PAPER_SPACE" />
    <marker
       orient="auto"
       id="DistanceX-5"
       style="overflow:visible"
       refX="0.0"
       refY="0.0">
      <path
         id="path3436"
         d="M 3,-3 L -3,3 M 0,-5 L  0,5"
         style="stroke:#000000; stroke-width:0.5" />
    </marker>
    <pattern
       id="Hatch-2"
       x="0"
       y="0"
       patternUnits="userSpaceOnUse"
       width="8"
       height="8">
      <path
         id="path3439"
         d="M8 4 l-4,4"
         stroke-width="0.25"
         stroke="#000000"
         linecap="square" />
      <path
         id="path3441"
         d="M6 2 l-4,4"
         stroke-width="0.25"
         stroke="#000000"
         linecap="square" />
      <path
         id="path3443"
         d="M4 0 l-4,4"
         stroke-width="0.25"
         stroke="#000000"
         linecap="square" />
    </pattern>
    <symbol
       id="*MODEL_SPACE-2" />
    <symbol
       id="*PAPER_SPACE-7" />
    <marker
       orient="auto"
       id="DistanceX-53"
       style="overflow:visible"
       refX="0.0"
       refY="0.0">
      <path
         id="path3529"
         d="M 3,-3 L -3,3 M 0,-5 L  0,5"
         style="stroke:#000000; stroke-width:0.5" />
    </marker>
    <pattern
       id="Hatch-8"
       x="0"
       y="0"
       patternUnits="userSpaceOnUse"
       width="8"
       height="8">
      <path
         id="path3532"
         d="M8 4 l-4,4"
         stroke-width="0.25"
         stroke="#000000"
         linecap="square" />
      <path
         id="path3534"
         d="M6 2 l-4,4"
         stroke-width="0.25"
         stroke="#000000"
         linecap="square" />
      <path
         id="path3536"
         d="M4 0 l-4,4"
         stroke-width="0.25"
         stroke="#000000"
         linecap="square" />
    </pattern>
    <symbol
       id="*MODEL_SPACE-29" />
    <symbol
       id="*PAPER_SPACE-8" />
  </defs>
  <sodipodi:namedview
     id="base"
     pagecolor="#ffffff"
     bordercolor="#666666"
     borderopacity="1.0"
     inkscape:pageopacity="0.0"
     inkscape:pageshadow="2"
     inkscape:zoom="0.49497475"
     inkscape:cx="818.21709"
     inkscape:cy="277.84496"
     inkscape:document-units="px"
     inkscape:current-layer="layer1"
     showgrid="false"
     inkscape:window-width="1920"
     inkscape:window-height="1017"
     inkscape:window-x="-8"
     inkscape:window-y="-8"
     inkscape:window-maximized="1" />
  <metadata
     id="metadata7">
    <rdf:RDF>
      <cc:Work
         rdf:about="">
        <dc:format>image/svg+xml</dc:format>
        <dc:type
           rdf:resource="http://purl.org/dc/dcmitype/StillImage" />
        <dc:title></dc:title>
      </cc:Work>
    </rdf:RDF>
  </metadata>
  <g
     inkscape:label="Layer 1"
     inkscape:groupmode="layer"
     id="layer1">
    <g
       id="g3354"
       inkscape:label="0"
       transform="translate(183.73612,-209.77865)">
      <path
         style="fill:none;stroke:#000000"
         d="m 325.1582,556.32227 0,70.86523 31.88868,0 0,35.43359 -31.88868,0 0,70.86524 102.75586,0 0,10.63086 35.43164,0 0,-10.63086 70.86719,0 0,-177.16406 -70.86719,0 0,10.6289 -35.43164,0 0,-10.6289 -102.75586,0 z"
         transform="translate(-325.15748,318.87513)"
         id="path3356"
         inkscape:connector-curvature="0" />
      <path
         id="path3358"
         d="m 131.10236,963.77953 a 14.173228,14.173228 0 1 0 -28.34645,0 14.173228,14.173228 0 1 0 28.34645,0 z"
         style="fill:none;stroke:#ff0000"
         inkscape:connector-curvature="0" />
      <path
         id="path3360"
         d="m 178.05118,1018.7008 a 6.2007875,6.2007875 0 1 0 -12.40157,0 6.2007875,6.2007875 0 1 0 12.40157,0 z"
         style="fill:none;stroke:#ff0000"
         inkscape:connector-curvature="0" />
      <path
         id="path3362"
         d="m 178.05118,908.85827 a 6.2007875,6.2007875 0 1 0 -12.40157,0 6.2007875,6.2007875 0 1 0 12.40157,0 z"
         style="fill:none;stroke:#ff0000"
         inkscape:connector-curvature="0" />
      <path
         id="path3364"
         d="m 68.208661,908.85827 a 6.200787,6.200787 0 1 0 -12.401574,0 6.200787,6.200787 0 1 0 12.401574,0 z"
         style="fill:none;stroke:#ff0000"
         inkscape:connector-curvature="0" />
      <path
         id="path3366"
         d="m 68.208661,1018.7008 a 6.200787,6.200787 0 1 0 -12.401574,0 6.200787,6.200787 0 1 0 12.401574,0 z"
         style="fill:none;stroke:#ff0000"
         inkscape:connector-curvature="0" />
      <path
         id="path3368"
         d="m 219.68504,946.06299 -21.25984,0"
         style="fill:none;stroke:#ff0000"
         inkscape:connector-curvature="0" />
      <path
         id="path3370"
         d="m 198.4252,946.06299 0,35.43307"
         style="fill:none;stroke:#ff0000"
         inkscape:connector-curvature="0" />
      <path
         id="path3372"
         d="m 198.4252,981.49606 21.25984,0"
         style="fill:none;stroke:#ff0000"
         inkscape:connector-curvature="0" />
      <path
         id="path3374"
         d="m 219.68504,981.49606 0,-35.43307"
         style="fill:none;stroke:#ff0000"
         inkscape:connector-curvature="0" />
      <path
         id="path3384"
         d="m 209.05512,875.19685 0,70.86614"
         style="fill:none;stroke:#000000"
         inkscape:connector-curvature="0" />
      <path
         id="path3386"
         d="m 209.05512,1052.3622 0,-70.86614"
         style="fill:none;stroke:#000000"
         inkscape:connector-curvature="0" />
    </g>
    <g
       id="g3447"
       inkscape:label="0"
       transform="translate(162.81879,-17.297874)">
      <path
         style="fill:none;stroke:#000000"
         d="m 324.44336,772.03516 0,70.86718 31.88867,0 0,35.4336 -31.88867,0 0,70.86523 102.75586,0 0,10.63086 35.43359,0 0,-10.63086 70.86524,0 0,-177.16601 -70.86524,0 0,10.63086 -35.43359,0 0,-10.63086 -102.75586,0 z"
         transform="translate(-324.4432,103.16084)"
         id="path3449"
         inkscape:connector-curvature="0" />
      <path
         id="path3451"
         d="m 157.67716,963.77953 a 40.748032,40.748032 0 1 0 -81.496058,0 40.748032,40.748032 0 1 0 81.496058,0 z"
         style="fill:none;stroke:#ff0000"
         inkscape:connector-curvature="0" />
      <path
         id="path3453"
         d="m 178.05118,1018.7008 a 6.2007875,6.2007875 0 1 0 -12.40157,0 6.2007875,6.2007875 0 1 0 12.40157,0 z"
         style="fill:none;stroke:#ff0000"
         inkscape:connector-curvature="0" />
      <path
         id="path3455"
         d="m 178.05118,908.85827 a 6.2007875,6.2007875 0 1 0 -12.40157,0 6.2007875,6.2007875 0 1 0 12.40157,0 z"
         style="fill:none;stroke:#ff0000"
         inkscape:connector-curvature="0" />
      <path
         id="path3457"
         d="m 68.208661,908.85827 a 6.200787,6.200787 0 1 0 -12.401574,0 6.200787,6.200787 0 1 0 12.401574,0 z"
         style="fill:none;stroke:#ff0000"
         inkscape:connector-curvature="0" />
      <path
         id="path3459"
         d="m 68.208661,1018.7008 a 6.200787,6.200787 0 1 0 -12.401574,0 6.200787,6.200787 0 1 0 12.401574,0 z"
         style="fill:none;stroke:#ff0000"
         inkscape:connector-curvature="0" />
      <path
         id="path3461"
         d="m 219.68504,946.06299 -21.25984,0"
         style="fill:none;stroke:#ff0000"
         inkscape:connector-curvature="0" />
      <path
         id="path3463"
         d="m 198.4252,946.06299 0,35.43307"
         style="fill:none;stroke:#ff0000"
         inkscape:connector-curvature="0" />
      <path
         id="path3465"
         d="m 198.4252,981.49606 21.25984,0"
         style="fill:none;stroke:#ff0000"
         inkscape:connector-curvature="0" />
      <path
         id="path3467"
         d="m 219.68504,981.49606 0,-35.43307"
         style="fill:none;stroke:#ff0000"
         inkscape:connector-curvature="0" />
      <path
         id="path3477"
         d="m 209.05512,875.19685 0,70.86614"
         style="fill:none;stroke:#000000"
         inkscape:connector-curvature="0" />
      <path
         id="path3479"
         d="m 209.05512,1052.3622 0,-70.86614"
         style="fill:none;stroke:#000000"
         inkscape:connector-curvature="0" />
    </g>
    <g
       id="g3540"
       inkscape:label="0"
       transform="translate(417.95455,-208.03828)">
      <path
         style="fill:none;stroke:#000000"
         d="m -3.2e-4,875.19767 0,70.86523 -10.6289,0 0,35.4336 10.6289,0 0,70.8652 60.23633,0 0,10.6309 35.43359,0 0,-10.6309 60.23633,0 C 127.68491,972.62232 83.318253,909.26901 -3.2e-4,875.19767 Z"
         id="path3542"
         inkscape:connector-curvature="0"
         sodipodi:nodetypes="cccccccccccc" />
      <path
         id="path3548"
         d="m 85.03937,981.49606 a 14.173229,14.173229 0 1 0 -28.346457,0 14.173229,14.173229 0 1 0 28.346457,0 z"
         style="fill:none;stroke:#ff0000"
         inkscape:connector-curvature="0" />
      <path
         id="path3550"
         d="m 0,875.19685 q 102.75591,53.14961 155.90551,177.16535"
         style="fill:none;stroke:#ff0000"
         inkscape:connector-curvature="0" />
      <path
         id="path3552"
         d="m 21.259843,1036.4173 a 5.314961,5.314961 0 1 0 -10.629922,0 5.314961,5.314961 0 1 0 10.629922,0 z"
         style="fill:none;stroke:#ff0000"
         inkscape:connector-curvature="0" />
      <path
         style="fill:none;stroke:#000000"
         d="m 116.42751,1244.0689 0,-70.8653 10.6289,0 0,-35.4335 -10.6289,0 0,-70.8651 -60.236334,0 0,-10.6309 -35.43359,0 0,10.6309 -60.23633,0 c 28.22102,79.7392 72.58768,143.0926 155.906254,177.1639 z"
         id="path3542-6"
         inkscape:connector-curvature="0"
         sodipodi:nodetypes="cccccccccccc" />
      <path
         id="path3548-9"
         d="m 31.387816,1137.7705 a 14.17323,14.17323 0 0 0 28.34646,0 14.17323,14.17323 0 1 0 -28.34646,0 z"
         style="fill:none;stroke:#ff0000"
         inkscape:connector-curvature="0" />
      <path
         id="path3550-1"
         d="M 116.42719,1244.0698 Q 13.671276,1190.9202 -39.478324,1066.9045"
         style="fill:none;stroke:#ff0000"
         inkscape:connector-curvature="0" />
      <path
         id="path3552-3"
         d="m 95.167346,1082.8494 a 5.314962,5.314962 0 1 0 10.629924,0 5.314962,5.314962 0 0 0 -10.629924,0 z"
         style="fill:none;stroke:#ff0000"
         inkscape:connector-curvature="0" />
      <path
         style="fill:none;stroke:#000000"
         d="m 162.24793,876.96483 0,70.86524 -10.6289,0 0,35.43359 10.6289,0 0,70.86524 60.23633,0 0,10.6309 35.43359,0 0,-10.6309 60.23633,0 C 289.93316,974.38949 245.56651,911.03618 162.24793,876.96483 Z"
         id="path3542-0"
         inkscape:connector-curvature="0"
         sodipodi:nodetypes="cccccccccccc" />
      <path
         id="path3548-1"
         d="m 247.28762,983.26322 a 14.173229,14.173229 0 1 0 -28.34645,0 14.173229,14.173229 0 1 0 28.34645,0 z"
         style="fill:none;stroke:#ff0000"
         inkscape:connector-curvature="0" />
      <path
         id="path3550-12"
         d="m 162.24825,876.96401 q 102.75591,53.14962 155.90551,177.16539"
         style="fill:none;stroke:#ff0000"
         inkscape:connector-curvature="0" />
      <path
         id="path3552-30"
         d="m 183.5081,1038.1845 a 5.314965,5.314965 0 1 0 -10.62993,0 5.314965,5.314965 0 0 0 10.62993,0 z"
         style="fill:none;stroke:#ff0000"
         inkscape:connector-curvature="0" />
      <path
         style="fill:none;stroke:#000000"
         d="m 278.67576,1245.8361 0,-70.8653 10.6289,0 0,-35.4335 -10.6289,0 0,-70.8651 -60.23633,0 0,-10.6309 -35.43359,0 0,10.6309 -60.23633,0 c 28.22102,79.7392 72.58768,143.0926 155.90625,177.1639 z"
         id="path3542-6-7"
         inkscape:connector-curvature="0"
         sodipodi:nodetypes="cccccccccccc" />
      <path
         id="path3548-9-1"
         d="m 193.63607,1139.5377 a 14.17323,14.17323 0 0 0 28.34646,0 14.17323,14.17323 0 1 0 -28.34646,0 z"
         style="fill:none;stroke:#ff0000"
         inkscape:connector-curvature="0" />
      <path
         id="path3550-1-6"
         d="M 278.67544,1245.837 Q 175.91953,1192.6874 122.76993,1068.6717"
         style="fill:none;stroke:#ff0000"
         inkscape:connector-curvature="0" />
      <path
         id="path3552-3-5"
         d="m 257.4156,1084.6166 a 5.314962,5.314962 0 0 0 10.62992,0 5.314962,5.314962 0 1 0 -10.62992,0 z"
         style="fill:none;stroke:#ff0000"
         inkscape:connector-curvature="0" />
    </g>
  </g>
</svg>
