0
SECTION
2
HEADER
9
$INSUNITS
70
4
9
$ACADVER
1
AC1014
9
$HANDSEED
5
FFFF
0
ENDSEC
0
SECTION
2
TABLES
0
TABLE
2
VPORT
5
8
100
AcDbSymbolTable
0
ENDTAB
0
TABLE
2
LTYPE
5
5
100
AcDbSymbolTable
0
LTYPE
5
14
100
AcDbSymbolTableRecord
100
AcDbLinetypeTableRecord
2
BYBLOCK
70
0
0
LTYPE
5
15
100
AcDbSymbolTableRecord
100
AcDbLinetypeTableRecord
2
BYLAYER
70
0
0
ENDTAB
0
TABLE
2
LAYER
5
2
100
AcDbSymbolTable
70
2
0
LAYER
5
50
100
AcDbSymbolTableRecord
100
AcDbLayerTableRecord
2
0
70
0
6
CONTINUOUS
0
ENDTAB
0
TABLE
2
STYLE
5
3
100
AcDbSymbolTable
70
1
0
STYLE
5
11
100
AcDbSymbolTableRecord
100
AcDbTextStyleTableRecord
2
STANDARD
70
0
0
ENDTAB
0
TABLE
2
VIEW
5
6
100
AcDbSymbolTable
70
0
0
ENDTAB
0
TABLE
2
UCS
5
7
100
AcDbSymbolTable
70
0
0
ENDTAB
0
TABLE
2
APPID
5
9
100
AcDbSymbolTable
70
2
0
APPID
5
12
100
AcDbSymbolTableRecord
100
AcDbRegAppTableRecord
2
ACAD
70
0
0
ENDTAB
0
TABLE
2
DIMSTYLE
5
A
100
AcDbSymbolTable
70
1
0
ENDTAB
0
TABLE
2
BLOCK_RECORD
5
1
100
AcDbSymbolTable
70
1
0
BLOCK_RECORD
5
1F
100
AcDbSymbolTableRecord
100
AcDbBlockTableRecord
2
*MODEL_SPACE
0
BLOCK_RECORD
5
1B
100
AcDbSymbolTableRecord
100
AcDbBlockTableRecord
2
*PAPER_SPACE
0
ENDTAB
0
ENDSEC
0
SECTION
2
BLOCKS
0
BLOCK
5
20
100
AcDbEntity
100
AcDbBlockBegin
2
*MODEL_SPACE
0
ENDBLK
5
21
100
AcDbEntity
100
AcDbBlockEnd
0
BLOCK
5
1C
100
AcDbEntity
100
AcDbBlockBegin
2
*PAPER_SPACE
0
ENDBLK
5
1D
100
AcDbEntity
100
AcDbBlockEnd
0
ENDSEC
0
SECTION
2
ENTITIES
0
LINE
5
100
100
AcDbEntity
8
0
100
AcDbLine
10
0
20
0
30
0
11
53.000000000000007
21
-1.9259299443872359e-31
31
0
0
LINE
5
101
100
AcDbEntity
8
0
100
AcDbLine
10
53.000000000000007
20
-1.9259299443872359e-31
30
0
11
53.000000000000014
21
70
31
0
0
LINE
5
102
100
AcDbEntity
8
0
100
AcDbLine
10
53.000000000000014
20
70
30
0
11
0
21
70
31
0
0
LINE
5
103
100
AcDbEntity
8
0
100
AcDbLine
10
0
20
70
30
0
11
0
21
0
31
0
0
LWPOLYLINE
5
104
100
AcDbEntity
8
0
100
AcDbPolyline
90
4
70
1
43
0.0
10
15
20
65
10
5
20
65
10
5
20
41
10
15
20
41
0
LINE
5
105
100
AcDbEntity
8
0
100
AcDbLine
10
0
20
35
30
0
11
53.000000000000007
21
35
31
0
0
CIRCLE
5
106
100
AcDbEntity
8
0
100
AcDbCircle
10
18.5
20
60.5
30
0
40
1.5000000000000036
0
LINE
5
107
100
AcDbEntity
8
0
100
AcDbLine
10
5
20
53
30
0
11
53.000000000000014
21
53.000000000000043
31
0
0
LWPOLYLINE
5
108
100
AcDbEntity
8
0
100
AcDbPolyline
90
4
70
1
43
0.0
10
39.999999999999993
20
58.000000000000028
10
37
20
58.000000000000028
10
37
20
48.000000000000028
10
40
20
48.000000000000028
0
LWPOLYLINE
5
109
100
AcDbEntity
8
0
100
AcDbPolyline
90
4
70
1
43
0.0
10
48
20
58.000000000000007
10
45
20
58.000000000000007
10
45
20
48.000000000000007
10
48
20
48.000000000000007
0
CIRCLE
5
110
100
AcDbEntity
8
0
100
AcDbCircle
10
18.500000000000007
20
45.500000000000014
30
0
40
1.5000000000000036
0
LINE
5
111
100
AcDbEntity
8
0
100
AcDbLine
10
10
20
65
30
0
11
10
21
41
31
0
0
CIRCLE
5
112
100
AcDbEntity
8
0
100
AcDbCircle
10
1.4999999999999991
20
60.5
30
0
40
1.5000000000000036
0
CIRCLE
5
113
100
AcDbEntity
8
0
100
AcDbCircle
10
1.4999999999999925
20
45.500000000000014
30
0
40
1.5000000000000036
0
LINE
5
114
100
AcDbEntity
8
0
100
AcDbLine
10
0
20
70
30
0
11
5
21
70
31
0
0
LINE
5
115
100
AcDbEntity
8
0
100
AcDbLine
10
0
20
67
30
0
11
0
21
70
31
0
0
LINE
5
116
100
AcDbEntity
8
0
100
AcDbLine
10
53.000000000000014
20
70
30
0
11
47.999999999999986
21
70
31
0
0
LINE
5
117
100
AcDbEntity
8
0
100
AcDbLine
10
47.999999999999986
20
70
30
0
11
47.999999999999986
21
67
31
0
0
LINE
5
118
100
AcDbEntity
8
0
100
AcDbLine
10
47.999999999999986
20
67
30
0
11
53.000000000000014
21
67
31
0
0
LINE
5
119
100
AcDbEntity
8
0
100
AcDbLine
10
53.000000000000014
20
67
30
0
11
53.000000000000014
21
70
31
0
0
LINE
5
120
100
AcDbEntity
8
0
100
AcDbLine
10
53.000000000000014
20
0
30
0
11
0
21
0
31
0
0
LINE
5
121
100
AcDbEntity
8
0
100
AcDbLine
10
53.000000000000014
20
0
30
0
11
47.999999999999986
21
0
31
0
0
LWPOLYLINE
5
122
100
AcDbEntity
8
0
100
AcDbPolyline
90
4
70
1
43
0.0
10
48
20
11.999999999999993
10
45
20
11.999999999999993
10
45
20
21.999999999999993
10
48
20
21.999999999999993
0
CIRCLE
5
123
100
AcDbEntity
8
0
100
AcDbCircle
10
18.500000000000007
20
24.499999999999986
30
0
40
1.5000000000000036
0
LINE
5
124
100
AcDbEntity
8
0
100
AcDbLine
10
10
20
5
30
0
11
10
21
29.000000000000004
31
0
0
LINE
5
125
100
AcDbEntity
8
0
100
AcDbLine
10
47.999999999999986
20
0
30
0
11
47.999999999999986
21
2.9999999999999982
31
0
0
LINE
5
126
100
AcDbEntity
8
0
100
AcDbLine
10
53.000000000000014
20
2.9999999999999982
30
0
11
53.000000000000014
21
0
31
0
0
LINE
5
127
100
AcDbEntity
8
0
100
AcDbLine
10
0
20
2.9999999999999982
30
0
11
0
21
0
31
0
0
CIRCLE
5
128
100
AcDbEntity
8
0
100
AcDbCircle
10
1.4999999999999925
20
24.499999999999986
30
0
40
1.5000000000000036
0
LWPOLYLINE
5
129
100
AcDbEntity
8
0
100
AcDbPolyline
90
4
70
1
43
0.0
10
15
20
5
10
5
20
5
10
5
20
29.000000000000004
10
15
20
29.000000000000004
0
LINE
5
130
100
AcDbEntity
8
0
100
AcDbLine
10
0
20
0
30
0
11
5
21
0
31
0
0
CIRCLE
5
131
100
AcDbEntity
8
0
100
AcDbCircle
10
1.4999999999999991
20
9.5000000000000018
30
0
40
1.5000000000000036
0
LWPOLYLINE
5
132
100
AcDbEntity
8
0
100
AcDbPolyline
90
4
70
1
43
0.0
10
37
20
21.999999999999975
10
40
20
21.999999999999975
10
40
20
11.999999999999975
10
37
20
11.999999999999975
0
LINE
5
133
100
AcDbEntity
8
0
100
AcDbLine
10
5
20
17
30
0
11
53.000000000000014
21
16.999999999999979
31
0
0
LINE
5
134
100
AcDbEntity
8
0
100
AcDbLine
10
47.999999999999986
20
2.9999999999999982
30
0
11
53.000000000000014
21
2.9999999999999982
31
0
0
CIRCLE
5
135
100
AcDbEntity
8
0
100
AcDbCircle
10
18.5
20
9.5000000000000018
30
0
40
1.5000000000000036
0
LWPOLYLINE
5
136
100
AcDbEntity
8
0
100
AcDbPolyline
90
4
70
1
43
0.0
10
40
20
69.999999999999986
10
45
20
69.999999999999986
10
44.999999999999993
20
67
10
40
20
66.999999999999972
0
LWPOLYLINE
5
137
100
AcDbEntity
8
0
100
AcDbPolyline
90
4
70
1
43
0.0
10
32
20
70
10
37
20
70
10
37
20
67
10
32
20
67
0
LWPOLYLINE
5
138
100
AcDbEntity
8
0
100
AcDbPolyline
90
4
70
1
43
0.0
10
37
20
0
10
37
20
2.9999999999999982
10
32
20
2.9999999999999982
10
32
20
0
0
LWPOLYLINE
5
139
100
AcDbEntity
8
0
100
AcDbPolyline
90
4
70
1
43
0.0
10
40
20
8.8817841970012523e-15
10
45
20
8.8817841970012523e-15
10
44.999999999999993
20
3.0000000000000071
10
40
20
3.0000000000000338
0
CIRCLE
5
140
100
AcDbEntity
8
0
100
AcDbCircle
10
28
20
53
30
0
40
4.0000000000000018
0
CIRCLE
5
141
100
AcDbEntity
8
0
100
AcDbCircle
10
28
20
17
30
0
40
4.0000000000000018
0
LWPOLYLINE
5
142
100
AcDbEntity
8
0
100
AcDbPolyline
90
4
70
1
43
0.0
10
1.4999999999999991
20
62.000000923871994
10
0
20
62.000000923871994
10
0
20
58.999999923871997
10
1.4999999999999991
20
58.999999999999993
0
LINE
5
143
100
AcDbEntity
8
0
100
AcDbLine
10
1.500000000000008
20
43.999999076128006
30
0
11
1.5000000000000053
21
46.999999999999993
31
0
0
LINE
5
144
100
AcDbEntity
8
0
100
AcDbLine
10
1.5000000000000053
20
46.999999999999993
30
0
11
9.2679486097139051e-15
21
47.000000076128003
31
0
0
LINE
5
145
100
AcDbEntity
8
0
100
AcDbLine
10
8.8817841970012523e-15
20
43.999999076128006
30
0
11
1.500000000000008
21
43.999999076128006
31
0
0
LINE
5
146
100
AcDbEntity
8
0
100
AcDbLine
10
1.5000000000000053
20
23.000000000000007
30
0
11
9.2679486685097783e-15
21
22.999999923871997
31
0
0
LINE
5
147
100
AcDbEntity
8
0
100
AcDbLine
10
1.500000000000008
20
26.000000923871998
30
0
11
1.5000000000000053
21
23.000000000000007
31
0
0
LINE
5
148
100
AcDbEntity
8
0
100
AcDbLine
10
8.8817841970012523e-15
20
26.000000923871998
30
0
11
1.500000000000008
21
26.000000923871998
31
0
0
LINE
5
149
100
AcDbEntity
8
0
100
AcDbLine
10
1.4999999999999991
20
11.000000000000005
30
0
11
0
21
11.000000076128007
31
0
0
LINE
5
150
100
AcDbEntity
8
0
100
AcDbLine
10
1.4999999999999991
20
7.999999076128006
30
0
11
1.4999999999999991
21
11.000000000000005
31
0
0
LINE
5
151
100
AcDbEntity
8
0
100
AcDbLine
10
0
20
7.999999076128006
30
0
11
1.4999999999999991
21
7.999999076128006
31
0
0
ENDSEC
0
SECTION
2
OBJECTS
0
DICTIONARY
5
C
100
AcDbDictionary
3
ACAD_GROUP
350
D
3
ACAD_MLINESTYLE
350
17
0
DICTIONARY
5
D
100
AcDbDictionary
0
DICTIONARY
5
1A
330
C
100
AcDbDictionary
0
DICTIONARY
5
17
100
AcDbDictionary
0
ENDSEC
0
EOF
