  0
SECTION
  2
HEADER
  9
$ACADVER
  1
AC1014
  9
$HANDSEED
  5
FFFF
  9
$MEASUREMENT
 70
     1
  0
ENDSEC
  0
SECTION
  2
TABLES
  0
TABLE
  2
VPORT
  5
8
330
0
100
AcDbSymbolTable
 70
     4
  0
VPORT
  5
2E
330
8
100
AcDbSymbolTableRecord
100
AcDbViewportTableRecord
  2
*ACTIVE
 70
     0
 10
0.0
 20
0.0
 11
1.0
 21
1.0
 12
210.0
 22
148.5
 13
0.0
 23
0.0
 14
10.0
 24
10.0
 15
10.0
 25
10.0
 16
0.0
 26
0.0
 36
1.0
 17
0.0
 27
0.0
 37
0.0
 40
341.0
 41
1.24
 42
50.0
 43
0.0
 44
0.0
 50
0.0
 51
0.0
 71
     0
 72
   100
 73
     1
 74
     3
 75
     0
 76
     0
 77
     0
 78
     0
  0
ENDTAB
  0
TABLE
  2
LTYPE
  5
5
330
0
100
AcDbSymbolTable
 70
     1
  0
LTYPE
  5
14
330
5
100
AcDbSymbolTableRecord
100
AcDbLinetypeTableRecord
  2
BYBLOCK
 70
     0
  3

 72
    65
 73
     0
 40
0.0
  0
LTYPE
  5
15
330
5
100
AcDbSymbolTableRecord
100
AcDbLinetypeTableRecord
  2
BYLAYER
 70
     0
  3

 72
    65
 73
     0
 40
0.0
  0
LTYPE
  5
16
330
5
100
AcDbSymbolTableRecord
100
AcDbLinetypeTableRecord
  2
CONTINUOUS
 70
     0
  3
Solid line
 72
    65
 73
     0
 40
0.0
  0
ENDTAB
  0
TABLE
  2
LAYER
  5
2
100
AcDbSymbolTable
 70
2
  0
LAYER
  5
50
100
AcDbSymbolTableRecord
100
AcDbLayerTableRecord
  2
0
 70
0
  6
CONTINUOUS
  0
LAYER
  5
51
100
AcDbSymbolTableRecord
100
AcDbLayerTableRecord
  2
Layer_1
 70
0
  6
CONTINUOUS
  0
ENDTAB
  0
TABLE
  2
STYLE
  5
3
330
0
100
AcDbSymbolTable
 70
     1
  0
STYLE
  5
11
330
3
100
AcDbSymbolTableRecord
100
AcDbTextStyleTableRecord
  2
STANDARD
 70
     0
 40
0.0
 41
1.0
 50
0.0
 71
     0
 42
2.5
  3
txt
  4

  0
ENDTAB
  0
TABLE
  2
VIEW
  5
6
330
0
100
AcDbSymbolTable
 70
     0
  0
ENDTAB
  0
TABLE
  2
UCS
  5
7
330
0
100
AcDbSymbolTable
 70
     0
  0
ENDTAB
  0
TABLE
  2
APPID
  5
9
330
0
100
AcDbSymbolTable
 70
     2
  0
APPID
  5
12
330
9
100
AcDbSymbolTableRecord
100
AcDbRegAppTableRecord
  2
ACAD
 70
     0
  0
ENDTAB
  0
TABLE
  2
DIMSTYLE
  5
A
330
0
100
AcDbSymbolTable
 70
     1
  0
DIMSTYLE
105
27
330
A
100
AcDbSymbolTableRecord
100
AcDbDimStyleTableRecord
  2
ISO-25
 70
     0
  3

  4

  5

  6

  7

 40
1.0
 41
2.5
 42
0.625
 43
3.75
 44
1.25
 45
0.0
 46
0.0
 47
0.0
 48
0.0
140
2.5
141
2.5
142
0.0
143
0.03937007874016
144
1.0
145
0.0
146
1.0
147
0.625
 71
     0
 72
     0
 73
     0
 74
     0
 75
     0
 76
     0
 77
     1
 78
     8
170
     0
171
     3
172
     1
173
     0
174
     0
175
     0
176
     0
177
     0
178
     0
270
     2
271
     2
272
     2
273
     2
274
     3
340
11
275
     0
280
     0
281
     0
282
     0
283
     0
284
     8
285
     0
286
     0
287
     3
288
     0
  0
ENDTAB
  0
TABLE
  2
BLOCK_RECORD
  5
1
330
0
100
AcDbSymbolTable
 70
     1
  0
BLOCK_RECORD
  5
1F
330
1
100
AcDbSymbolTableRecord
100
AcDbBlockTableRecord
  2
*MODEL_SPACE
  0
BLOCK_RECORD
  5
1B
330
1
100
AcDbSymbolTableRecord
100
AcDbBlockTableRecord
  2
*PAPER_SPACE
  0
ENDTAB
  0
ENDSEC
  0
SECTION
  2
BLOCKS
  0
BLOCK
  5
20
330
1F
100
AcDbEntity
  8
0
100
AcDbBlockBegin
  2
*MODEL_SPACE
 70
     0
 10
0.0
 20
0.0
 30
0.0
  3
*MODEL_SPACE
  1

  0
ENDBLK
  5
21
330
1F
100
AcDbEntity
  8
0
100
AcDbBlockEnd
  0
BLOCK
  5
1C
330
1B
100
AcDbEntity
 67
     1
  8
0
100
AcDbBlockBegin
  2
*PAPER_SPACE
  1

  0
ENDBLK
  5
1D
330
1B
100
AcDbEntity
 67
     1
  8
0
100
AcDbBlockEnd
  0
ENDSEC
  0
SECTION
  2
ENTITIES
  0
LINE
  5
100
100
AcDbEntity
  8
Layer_1
 62
7
100
AcDbLine
 10
4.681745
 20
2.495239
 30
0.0
 11
54.181745
 21
2.495239
 31
0.0
  0
LINE
  5
101
100
AcDbEntity
  8
Layer_1
 62
7
100
AcDbLine
 10
54.181745
 20
2.495239
 30
0.0
 11
54.181745
 21
72.495237
 31
0.0
  0
LINE
  5
102
100
AcDbEntity
  8
Layer_1
 62
7
100
AcDbLine
 10
54.181745
 20
72.495237
 30
0.0
 11
4.681745
 21
72.495237
 31
0.0
  0
LINE
  5
103
100
AcDbEntity
  8
Layer_1
 62
7
100
AcDbLine
 10
4.681745
 20
72.495237
 30
0.0
 11
4.681745
 21
2.495239
 31
0.0
  0
LINE
  5
104
100
AcDbEntity
  8
Layer_1
 62
5
100
AcDbLine
 10
23.181745
 20
67.495238
 30
0.0
 11
13.181745
 21
67.495238
 31
0.0
  0
LINE
  5
105
100
AcDbEntity
  8
Layer_1
 62
5
100
AcDbLine
 10
13.181745
 20
67.495238
 30
0.0
 11
13.181745
 21
43.495238
 31
0.0
  0
LINE
  5
106
100
AcDbEntity
  8
Layer_1
 62
5
100
AcDbLine
 10
13.181745
 20
43.495238
 30
0.0
 11
23.181745
 21
43.495238
 31
0.0
  0
LINE
  5
107
100
AcDbEntity
  8
Layer_1
 62
5
100
AcDbLine
 10
23.181745
 20
43.495238
 30
0.0
 11
23.181745
 21
67.495238
 31
0.0
  0
LINE
  5
108
100
AcDbEntity
  8
Layer_1
 62
5
100
AcDbLine
 10
23.181745
 20
67.495238
 30
0.0
 11
23.181745
 21
67.495238
 31
0.0
  0
SPLINE
  5
109
100
AcDbEntity
  8
Layer_1
 62
5
100
AcDbSpline
 70
8
 71
3
 72
8
 73
4
 74
0
 40
0
 40
0
 40
0
 40
0
 40
1
 40
1
 40
1
 40
1
 10
28.181746
 20
62.995236
 30
0.0
 10
28.182075
 20
63.531354
 30
0.0
 10
27.896248
 20
64.026887
 30
0.0
 10
27.432012
 20
64.295041
 30
0.0
  0
SPLINE
  5
10a
100
AcDbEntity
  8
Layer_1
 62
5
100
AcDbSpline
 70
8
 71
3
 72
8
 73
4
 74
0
 40
0
 40
0
 40
0
 40
0
 40
1
 40
1
 40
1
 40
1
 10
27.432012
 20
64.295041
 30
0.0
 10
26.967775
 20
64.563195
 30
0.0
 10
26.395717
 20
64.563195
 30
0.0
 10
25.931480
 20
64.295041
 30
0.0
  0
SPLINE
  5
10b
100
AcDbEntity
  8
Layer_1
 62
5
100
AcDbSpline
 70
8
 71
3
 72
8
 73
4
 74
0
 40
0
 40
0
 40
0
 40
0
 40
1
 40
1
 40
1
 40
1
 10
25.931480
 20
64.295041
 30
0.0
 10
25.467244
 20
64.026887
 30
0.0
 10
25.181417
 20
63.531354
 30
0.0
 10
25.181746
 20
62.995236
 30
0.0
  0
SPLINE
  5
10c
100
AcDbEntity
  8
Layer_1
 62
5
100
AcDbSpline
 70
8
 71
3
 72
8
 73
4
 74
0
 40
0
 40
0
 40
0
 40
0
 40
1
 40
1
 40
1
 40
1
 10
25.181746
 20
62.995236
 30
0.0
 10
25.181417
 20
62.459119
 30
0.0
 10
25.467244
 20
61.963585
 30
0.0
 10
25.931480
 20
61.695431
 30
0.0
  0
SPLINE
  5
10d
100
AcDbEntity
  8
Layer_1
 62
5
100
AcDbSpline
 70
8
 71
3
 72
8
 73
4
 74
0
 40
0
 40
0
 40
0
 40
0
 40
1
 40
1
 40
1
 40
1
 10
25.931480
 20
61.695431
 30
0.0
 10
26.395717
 20
61.427277
 30
0.0
 10
26.967775
 20
61.427277
 30
0.0
 10
27.432012
 20
61.695431
 30
0.0
  0
SPLINE
  5
10e
100
AcDbEntity
  8
Layer_1
 62
5
100
AcDbSpline
 70
8
 71
3
 72
8
 73
4
 74
0
 40
0
 40
0
 40
0
 40
0
 40
1
 40
1
 40
1
 40
1
 10
27.432012
 20
61.695431
 30
0.0
 10
27.896248
 20
61.963585
 30
0.0
 10
28.182075
 20
62.459119
 30
0.0
 10
28.181746
 20
62.995236
 30
0.0
  0
LINE
  5
10f
100
AcDbEntity
  8
Layer_1
 62
5
100
AcDbLine
 10
28.181746
 20
62.995236
 30
0.0
 11
28.181746
 21
62.995236
 31
0.0
  0
LINE
  5
110
100
AcDbEntity
  8
Layer_1
 62
5
100
AcDbLine
 10
41.181745
 20
60.495238
 30
0.0
 11
38.181746
 21
60.495238
 31
0.0
  0
LINE
  5
111
100
AcDbEntity
  8
Layer_1
 62
5
100
AcDbLine
 10
38.181746
 20
60.495238
 30
0.0
 11
38.181746
 21
50.495239
 31
0.0
  0
LINE
  5
112
100
AcDbEntity
  8
Layer_1
 62
5
100
AcDbLine
 10
38.181746
 20
50.495239
 30
0.0
 11
41.181745
 21
50.495239
 31
0.0
  0
LINE
  5
113
100
AcDbEntity
  8
Layer_1
 62
5
100
AcDbLine
 10
41.181745
 20
50.495239
 30
0.0
 11
41.181745
 21
60.495238
 31
0.0
  0
LINE
  5
114
100
AcDbEntity
  8
Layer_1
 62
5
100
AcDbLine
 10
41.181745
 20
60.495238
 30
0.0
 11
41.181745
 21
60.495238
 31
0.0
  0
LINE
  5
115
100
AcDbEntity
  8
Layer_1
 62
5
100
AcDbLine
 10
49.181743
 20
60.495238
 30
0.0
 11
46.181744
 21
60.495238
 31
0.0
  0
LINE
  5
116
100
AcDbEntity
  8
Layer_1
 62
5
100
AcDbLine
 10
46.181744
 20
60.495238
 30
0.0
 11
46.181744
 21
50.495239
 31
0.0
  0
LINE
  5
117
100
AcDbEntity
  8
Layer_1
 62
5
100
AcDbLine
 10
46.181744
 20
50.495239
 30
0.0
 11
49.181743
 21
50.495239
 31
0.0
  0
LINE
  5
118
100
AcDbEntity
  8
Layer_1
 62
5
100
AcDbLine
 10
49.181743
 20
50.495239
 30
0.0
 11
49.181743
 21
60.495238
 31
0.0
  0
LINE
  5
119
100
AcDbEntity
  8
Layer_1
 62
5
100
AcDbLine
 10
49.181743
 20
60.495238
 30
0.0
 11
49.181743
 21
60.495238
 31
0.0
  0
SPLINE
  5
11a
100
AcDbEntity
  8
Layer_1
 62
5
100
AcDbSpline
 70
8
 71
3
 72
8
 73
4
 74
0
 40
0
 40
0
 40
0
 40
0
 40
1
 40
1
 40
1
 40
1
 10
28.181746
 20
47.995238
 30
0.0
 10
28.182075
 20
48.531355
 30
0.0
 10
27.896248
 20
49.026889
 30
0.0
 10
27.432012
 20
49.295043
 30
0.0
  0
SPLINE
  5
11b
100
AcDbEntity
  8
Layer_1
 62
5
100
AcDbSpline
 70
8
 71
3
 72
8
 73
4
 74
0
 40
0
 40
0
 40
0
 40
0
 40
1
 40
1
 40
1
 40
1
 10
27.432012
 20
49.295043
 30
0.0
 10
26.967775
 20
49.563197
 30
0.0
 10
26.395717
 20
49.563197
 30
0.0
 10
25.931480
 20
49.295043
 30
0.0
  0
SPLINE
  5
11c
100
AcDbEntity
  8
Layer_1
 62
5
100
AcDbSpline
 70
8
 71
3
 72
8
 73
4
 74
0
 40
0
 40
0
 40
0
 40
0
 40
1
 40
1
 40
1
 40
1
 10
25.931480
 20
49.295043
 30
0.0
 10
25.467244
 20
49.026889
 30
0.0
 10
25.181417
 20
48.531355
 30
0.0
 10
25.181746
 20
47.995238
 30
0.0
  0
SPLINE
  5
11d
100
AcDbEntity
  8
Layer_1
 62
5
100
AcDbSpline
 70
8
 71
3
 72
8
 73
4
 74
0
 40
0
 40
0
 40
0
 40
0
 40
1
 40
1
 40
1
 40
1
 10
25.181746
 20
47.995238
 30
0.0
 10
25.181417
 20
47.459120
 30
0.0
 10
25.467244
 20
46.963587
 30
0.0
 10
25.931480
 20
46.695433
 30
0.0
  0
SPLINE
  5
11e
100
AcDbEntity
  8
Layer_1
 62
5
100
AcDbSpline
 70
8
 71
3
 72
8
 73
4
 74
0
 40
0
 40
0
 40
0
 40
0
 40
1
 40
1
 40
1
 40
1
 10
25.931480
 20
46.695433
 30
0.0
 10
26.395717
 20
46.427279
 30
0.0
 10
26.967775
 20
46.427279
 30
0.0
 10
27.432012
 20
46.695433
 30
0.0
  0
SPLINE
  5
11f
100
AcDbEntity
  8
Layer_1
 62
5
100
AcDbSpline
 70
8
 71
3
 72
8
 73
4
 74
0
 40
0
 40
0
 40
0
 40
0
 40
1
 40
1
 40
1
 40
1
 10
27.432012
 20
46.695433
 30
0.0
 10
27.896248
 20
46.963587
 30
0.0
 10
28.182075
 20
47.459120
 30
0.0
 10
28.181746
 20
47.995238
 30
0.0
  0
LINE
  5
120
100
AcDbEntity
  8
Layer_1
 62
5
100
AcDbLine
 10
28.181746
 20
47.995238
 30
0.0
 11
28.181746
 21
47.995238
 31
0.0
  0
SPLINE
  5
121
100
AcDbEntity
  8
Layer_1
 62
5
100
AcDbSpline
 70
8
 71
3
 72
8
 73
4
 74
0
 40
0
 40
0
 40
0
 40
0
 40
1
 40
1
 40
1
 40
1
 10
11.181746
 20
62.995236
 30
0.0
 10
11.182075
 20
63.531354
 30
0.0
 10
10.896249
 20
64.026887
 30
0.0
 10
10.432012
 20
64.295041
 30
0.0
  0
SPLINE
  5
122
100
AcDbEntity
  8
Layer_1
 62
5
100
AcDbSpline
 70
8
 71
3
 72
8
 73
4
 74
0
 40
0
 40
0
 40
0
 40
0
 40
1
 40
1
 40
1
 40
1
 10
10.432012
 20
64.295041
 30
0.0
 10
9.967775
 20
64.563195
 30
0.0
 10
9.395717
 20
64.563195
 30
0.0
 10
8.931481
 20
64.295041
 30
0.0
  0
SPLINE
  5
123
100
AcDbEntity
  8
Layer_1
 62
5
100
AcDbSpline
 70
8
 71
3
 72
8
 73
4
 74
0
 40
0
 40
0
 40
0
 40
0
 40
1
 40
1
 40
1
 40
1
 10
8.931481
 20
64.295041
 30
0.0
 10
8.467244
 20
64.026887
 30
0.0
 10
8.181418
 20
63.531354
 30
0.0
 10
8.181746
 20
62.995236
 30
0.0
  0
SPLINE
  5
124
100
AcDbEntity
  8
Layer_1
 62
5
100
AcDbSpline
 70
8
 71
3
 72
8
 73
4
 74
0
 40
0
 40
0
 40
0
 40
0
 40
1
 40
1
 40
1
 40
1
 10
8.181746
 20
62.995236
 30
0.0
 10
8.181418
 20
62.459119
 30
0.0
 10
8.467244
 20
61.963585
 30
0.0
 10
8.931481
 20
61.695431
 30
0.0
  0
SPLINE
  5
125
100
AcDbEntity
  8
Layer_1
 62
5
100
AcDbSpline
 70
8
 71
3
 72
8
 73
4
 74
0
 40
0
 40
0
 40
0
 40
0
 40
1
 40
1
 40
1
 40
1
 10
8.931481
 20
61.695431
 30
0.0
 10
9.395717
 20
61.427277
 30
0.0
 10
9.967775
 20
61.427277
 30
0.0
 10
10.432012
 20
61.695431
 30
0.0
  0
SPLINE
  5
126
100
AcDbEntity
  8
Layer_1
 62
5
100
AcDbSpline
 70
8
 71
3
 72
8
 73
4
 74
0
 40
0
 40
0
 40
0
 40
0
 40
1
 40
1
 40
1
 40
1
 10
10.432012
 20
61.695431
 30
0.0
 10
10.896249
 20
61.963585
 30
0.0
 10
11.182075
 20
62.459119
 30
0.0
 10
11.181746
 20
62.995236
 30
0.0
  0
LINE
  5
127
100
AcDbEntity
  8
Layer_1
 62
5
100
AcDbLine
 10
11.181746
 20
62.995236
 30
0.0
 11
11.181746
 21
62.995236
 31
0.0
  0
SPLINE
  5
128
100
AcDbEntity
  8
Layer_1
 62
5
100
AcDbSpline
 70
8
 71
3
 72
8
 73
4
 74
0
 40
0
 40
0
 40
0
 40
0
 40
1
 40
1
 40
1
 40
1
 10
11.181746
 20
47.995238
 30
0.0
 10
11.182075
 20
48.531355
 30
0.0
 10
10.896249
 20
49.026889
 30
0.0
 10
10.432012
 20
49.295043
 30
0.0
  0
SPLINE
  5
129
100
AcDbEntity
  8
Layer_1
 62
5
100
AcDbSpline
 70
8
 71
3
 72
8
 73
4
 74
0
 40
0
 40
0
 40
0
 40
0
 40
1
 40
1
 40
1
 40
1
 10
10.432012
 20
49.295043
 30
0.0
 10
9.967775
 20
49.563197
 30
0.0
 10
9.395717
 20
49.563197
 30
0.0
 10
8.931481
 20
49.295043
 30
0.0
  0
SPLINE
  5
12a
100
AcDbEntity
  8
Layer_1
 62
5
100
AcDbSpline
 70
8
 71
3
 72
8
 73
4
 74
0
 40
0
 40
0
 40
0
 40
0
 40
1
 40
1
 40
1
 40
1
 10
8.931481
 20
49.295043
 30
0.0
 10
8.467244
 20
49.026889
 30
0.0
 10
8.181418
 20
48.531355
 30
0.0
 10
8.181746
 20
47.995238
 30
0.0
  0
SPLINE
  5
12b
100
AcDbEntity
  8
Layer_1
 62
5
100
AcDbSpline
 70
8
 71
3
 72
8
 73
4
 74
0
 40
0
 40
0
 40
0
 40
0
 40
1
 40
1
 40
1
 40
1
 10
8.181746
 20
47.995238
 30
0.0
 10
8.181418
 20
47.459120
 30
0.0
 10
8.467244
 20
46.963587
 30
0.0
 10
8.931481
 20
46.695433
 30
0.0
  0
SPLINE
  5
12c
100
AcDbEntity
  8
Layer_1
 62
5
100
AcDbSpline
 70
8
 71
3
 72
8
 73
4
 74
0
 40
0
 40
0
 40
0
 40
0
 40
1
 40
1
 40
1
 40
1
 10
8.931481
 20
46.695433
 30
0.0
 10
9.395717
 20
46.427279
 30
0.0
 10
9.967775
 20
46.427279
 30
0.0
 10
10.432012
 20
46.695433
 30
0.0
  0
SPLINE
  5
12d
100
AcDbEntity
  8
Layer_1
 62
5
100
AcDbSpline
 70
8
 71
3
 72
8
 73
4
 74
0
 40
0
 40
0
 40
0
 40
0
 40
1
 40
1
 40
1
 40
1
 10
10.432012
 20
46.695433
 30
0.0
 10
10.896249
 20
46.963587
 30
0.0
 10
11.182075
 20
47.459120
 30
0.0
 10
11.181746
 20
47.995238
 30
0.0
  0
LINE
  5
12e
100
AcDbEntity
  8
Layer_1
 62
5
100
AcDbLine
 10
11.181746
 20
47.995238
 30
0.0
 11
11.181746
 21
47.995238
 31
0.0
  0
LINE
  5
12f
100
AcDbEntity
  8
Layer_1
 62
5
100
AcDbLine
 10
54.181745
 20
72.495237
 30
0.0
 11
49.181743
 21
72.495237
 31
0.0
  0
LINE
  5
130
100
AcDbEntity
  8
Layer_1
 62
5
100
AcDbLine
 10
49.181743
 20
72.495237
 30
0.0
 11
49.181743
 21
69.495237
 31
0.0
  0
LINE
  5
131
100
AcDbEntity
  8
Layer_1
 62
5
100
AcDbLine
 10
49.181743
 20
69.495237
 30
0.0
 11
54.181745
 21
69.495237
 31
0.0
  0
LINE
  5
132
100
AcDbEntity
  8
Layer_1
 62
5
100
AcDbLine
 10
54.181745
 20
69.495237
 30
0.0
 11
54.181745
 21
72.495237
 31
0.0
  0
LINE
  5
133
100
AcDbEntity
  8
Layer_1
 62
7
100
AcDbLine
 10
54.181745
 20
2.495239
 30
0.0
 11
4.681745
 21
2.495239
 31
0.0
  0
LINE
  5
134
100
AcDbEntity
  8
Layer_1
 62
5
100
AcDbLine
 10
54.181745
 20
2.495239
 30
0.0
 11
49.181743
 21
2.495239
 31
0.0
  0
LINE
  5
135
100
AcDbEntity
  8
Layer_1
 62
5
100
AcDbLine
 10
49.181743
 20
14.495243
 30
0.0
 11
46.181744
 21
14.495243
 31
0.0
  0
LINE
  5
136
100
AcDbEntity
  8
Layer_1
 62
5
100
AcDbLine
 10
46.181744
 20
14.495243
 30
0.0
 11
46.181744
 21
24.495237
 31
0.0
  0
LINE
  5
137
100
AcDbEntity
  8
Layer_1
 62
5
100
AcDbLine
 10
46.181744
 20
24.495237
 30
0.0
 11
49.181743
 21
24.495237
 31
0.0
  0
LINE
  5
138
100
AcDbEntity
  8
Layer_1
 62
5
100
AcDbLine
 10
49.181743
 20
24.495237
 30
0.0
 11
49.181743
 21
14.495243
 31
0.0
  0
LINE
  5
139
100
AcDbEntity
  8
Layer_1
 62
5
100
AcDbLine
 10
49.181743
 20
14.495243
 30
0.0
 11
49.181743
 21
14.495243
 31
0.0
  0
SPLINE
  5
13a
100
AcDbEntity
  8
Layer_1
 62
5
100
AcDbSpline
 70
8
 71
3
 72
8
 73
4
 74
0
 40
0
 40
0
 40
0
 40
0
 40
1
 40
1
 40
1
 40
1
 10
28.181746
 20
26.995238
 30
0.0
 10
28.182075
 20
27.531355
 30
0.0
 10
27.896248
 20
28.026889
 30
0.0
 10
27.432012
 20
28.295043
 30
0.0
  0
SPLINE
  5
13b
100
AcDbEntity
  8
Layer_1
 62
5
100
AcDbSpline
 70
8
 71
3
 72
8
 73
4
 74
0
 40
0
 40
0
 40
0
 40
0
 40
1
 40
1
 40
1
 40
1
 10
27.432012
 20
28.295043
 30
0.0
 10
26.967775
 20
28.563196
 30
0.0
 10
26.395717
 20
28.563196
 30
0.0
 10
25.931480
 20
28.295043
 30
0.0
  0
SPLINE
  5
13c
100
AcDbEntity
  8
Layer_1
 62
5
100
AcDbSpline
 70
8
 71
3
 72
8
 73
4
 74
0
 40
0
 40
0
 40
0
 40
0
 40
1
 40
1
 40
1
 40
1
 10
25.931480
 20
28.295043
 30
0.0
 10
25.467244
 20
28.026889
 30
0.0
 10
25.181417
 20
27.531355
 30
0.0
 10
25.181746
 20
26.995238
 30
0.0
  0
SPLINE
  5
13d
100
AcDbEntity
  8
Layer_1
 62
5
100
AcDbSpline
 70
8
 71
3
 72
8
 73
4
 74
0
 40
0
 40
0
 40
0
 40
0
 40
1
 40
1
 40
1
 40
1
 10
25.181746
 20
26.995238
 30
0.0
 10
25.181417
 20
26.459120
 30
0.0
 10
25.467244
 20
25.963586
 30
0.0
 10
25.931480
 20
25.695433
 30
0.0
  0
SPLINE
  5
13e
100
AcDbEntity
  8
Layer_1
 62
5
100
AcDbSpline
 70
8
 71
3
 72
8
 73
4
 74
0
 40
0
 40
0
 40
0
 40
0
 40
1
 40
1
 40
1
 40
1
 10
25.931480
 20
25.695433
 30
0.0
 10
26.395717
 20
25.427279
 30
0.0
 10
26.967775
 20
25.427279
 30
0.0
 10
27.432012
 20
25.695433
 30
0.0
  0
SPLINE
  5
13f
100
AcDbEntity
  8
Layer_1
 62
5
100
AcDbSpline
 70
8
 71
3
 72
8
 73
4
 74
0
 40
0
 40
0
 40
0
 40
0
 40
1
 40
1
 40
1
 40
1
 10
27.432012
 20
25.695433
 30
0.0
 10
27.896248
 20
25.963586
 30
0.0
 10
28.182075
 20
26.459120
 30
0.0
 10
28.181746
 20
26.995238
 30
0.0
  0
LINE
  5
140
100
AcDbEntity
  8
Layer_1
 62
5
100
AcDbLine
 10
28.181746
 20
26.995238
 30
0.0
 11
28.181746
 21
26.995238
 31
0.0
  0
LINE
  5
141
100
AcDbEntity
  8
Layer_1
 62
5
100
AcDbLine
 10
49.181743
 20
2.495239
 30
0.0
 11
49.181743
 21
5.495233
 31
0.0
  0
LINE
  5
142
100
AcDbEntity
  8
Layer_1
 62
5
100
AcDbLine
 10
54.181745
 20
5.495233
 30
0.0
 11
54.181745
 21
2.495239
 31
0.0
  0
SPLINE
  5
143
100
AcDbEntity
  8
Layer_1
 62
5
100
AcDbSpline
 70
8
 71
3
 72
8
 73
4
 74
0
 40
0
 40
0
 40
0
 40
0
 40
1
 40
1
 40
1
 40
1
 10
11.181746
 20
26.995238
 30
0.0
 10
11.182075
 20
27.531355
 30
0.0
 10
10.896249
 20
28.026889
 30
0.0
 10
10.432012
 20
28.295043
 30
0.0
  0
SPLINE
  5
144
100
AcDbEntity
  8
Layer_1
 62
5
100
AcDbSpline
 70
8
 71
3
 72
8
 73
4
 74
0
 40
0
 40
0
 40
0
 40
0
 40
1
 40
1
 40
1
 40
1
 10
10.432012
 20
28.295043
 30
0.0
 10
9.967775
 20
28.563196
 30
0.0
 10
9.395717
 20
28.563196
 30
0.0
 10
8.931481
 20
28.295043
 30
0.0
  0
SPLINE
  5
145
100
AcDbEntity
  8
Layer_1
 62
5
100
AcDbSpline
 70
8
 71
3
 72
8
 73
4
 74
0
 40
0
 40
0
 40
0
 40
0
 40
1
 40
1
 40
1
 40
1
 10
8.931481
 20
28.295043
 30
0.0
 10
8.467244
 20
28.026889
 30
0.0
 10
8.181418
 20
27.531355
 30
0.0
 10
8.181746
 20
26.995238
 30
0.0
  0
SPLINE
  5
146
100
AcDbEntity
  8
Layer_1
 62
5
100
AcDbSpline
 70
8
 71
3
 72
8
 73
4
 74
0
 40
0
 40
0
 40
0
 40
0
 40
1
 40
1
 40
1
 40
1
 10
8.181746
 20
26.995238
 30
0.0
 10
8.181418
 20
26.459120
 30
0.0
 10
8.467244
 20
25.963586
 30
0.0
 10
8.931481
 20
25.695433
 30
0.0
  0
SPLINE
  5
147
100
AcDbEntity
  8
Layer_1
 62
5
100
AcDbSpline
 70
8
 71
3
 72
8
 73
4
 74
0
 40
0
 40
0
 40
0
 40
0
 40
1
 40
1
 40
1
 40
1
 10
8.931481
 20
25.695433
 30
0.0
 10
9.395717
 20
25.427279
 30
0.0
 10
9.967775
 20
25.427279
 30
0.0
 10
10.432012
 20
25.695433
 30
0.0
  0
SPLINE
  5
148
100
AcDbEntity
  8
Layer_1
 62
5
100
AcDbSpline
 70
8
 71
3
 72
8
 73
4
 74
0
 40
0
 40
0
 40
0
 40
0
 40
1
 40
1
 40
1
 40
1
 10
10.432012
 20
25.695433
 30
0.0
 10
10.896249
 20
25.963586
 30
0.0
 10
11.182075
 20
26.459120
 30
0.0
 10
11.181746
 20
26.995238
 30
0.0
  0
LINE
  5
149
100
AcDbEntity
  8
Layer_1
 62
5
100
AcDbLine
 10
11.181746
 20
26.995238
 30
0.0
 11
11.181746
 21
26.995238
 31
0.0
  0
LINE
  5
14a
100
AcDbEntity
  8
Layer_1
 62
5
100
AcDbLine
 10
23.181745
 20
7.495229
 30
0.0
 11
13.181745
 21
7.495229
 31
0.0
  0
LINE
  5
14b
100
AcDbEntity
  8
Layer_1
 62
5
100
AcDbLine
 10
13.181745
 20
7.495229
 30
0.0
 11
13.181745
 21
31.495237
 31
0.0
  0
LINE
  5
14c
100
AcDbEntity
  8
Layer_1
 62
5
100
AcDbLine
 10
13.181745
 20
31.495237
 30
0.0
 11
23.181745
 21
31.495237
 31
0.0
  0
LINE
  5
14d
100
AcDbEntity
  8
Layer_1
 62
5
100
AcDbLine
 10
23.181745
 20
31.495237
 30
0.0
 11
23.181745
 21
7.495229
 31
0.0
  0
LINE
  5
14e
100
AcDbEntity
  8
Layer_1
 62
5
100
AcDbLine
 10
23.181745
 20
7.495229
 30
0.0
 11
23.181745
 21
7.495229
 31
0.0
  0
SPLINE
  5
14f
100
AcDbEntity
  8
Layer_1
 62
5
100
AcDbSpline
 70
8
 71
3
 72
8
 73
4
 74
0
 40
0
 40
0
 40
0
 40
0
 40
1
 40
1
 40
1
 40
1
 10
11.181746
 20
11.995234
 30
0.0
 10
11.182075
 20
12.531351
 30
0.0
 10
10.896249
 20
13.026885
 30
0.0
 10
10.432012
 20
13.295039
 30
0.0
  0
SPLINE
  5
150
100
AcDbEntity
  8
Layer_1
 62
5
100
AcDbSpline
 70
8
 71
3
 72
8
 73
4
 74
0
 40
0
 40
0
 40
0
 40
0
 40
1
 40
1
 40
1
 40
1
 10
10.432012
 20
13.295039
 30
0.0
 10
9.967775
 20
13.563192
 30
0.0
 10
9.395717
 20
13.563192
 30
0.0
 10
8.931481
 20
13.295039
 30
0.0
  0
SPLINE
  5
151
100
AcDbEntity
  8
Layer_1
 62
5
100
AcDbSpline
 70
8
 71
3
 72
8
 73
4
 74
0
 40
0
 40
0
 40
0
 40
0
 40
1
 40
1
 40
1
 40
1
 10
8.931481
 20
13.295039
 30
0.0
 10
8.467244
 20
13.026885
 30
0.0
 10
8.181418
 20
12.531351
 30
0.0
 10
8.181746
 20
11.995234
 30
0.0
  0
SPLINE
  5
152
100
AcDbEntity
  8
Layer_1
 62
5
100
AcDbSpline
 70
8
 71
3
 72
8
 73
4
 74
0
 40
0
 40
0
 40
0
 40
0
 40
1
 40
1
 40
1
 40
1
 10
8.181746
 20
11.995234
 30
0.0
 10
8.181418
 20
11.459116
 30
0.0
 10
8.467244
 20
10.963583
 30
0.0
 10
8.931481
 20
10.695429
 30
0.0
  0
SPLINE
  5
153
100
AcDbEntity
  8
Layer_1
 62
5
100
AcDbSpline
 70
8
 71
3
 72
8
 73
4
 74
0
 40
0
 40
0
 40
0
 40
0
 40
1
 40
1
 40
1
 40
1
 10
8.931481
 20
10.695429
 30
0.0
 10
9.395717
 20
10.427275
 30
0.0
 10
9.967775
 20
10.427275
 30
0.0
 10
10.432012
 20
10.695429
 30
0.0
  0
SPLINE
  5
154
100
AcDbEntity
  8
Layer_1
 62
5
100
AcDbSpline
 70
8
 71
3
 72
8
 73
4
 74
0
 40
0
 40
0
 40
0
 40
0
 40
1
 40
1
 40
1
 40
1
 10
10.432012
 20
10.695429
 30
0.0
 10
10.896249
 20
10.963583
 30
0.0
 10
11.182075
 20
11.459116
 30
0.0
 10
11.181746
 20
11.995234
 30
0.0
  0
LINE
  5
155
100
AcDbEntity
  8
Layer_1
 62
5
100
AcDbLine
 10
11.181746
 20
11.995234
 30
0.0
 11
11.181746
 21
11.995234
 31
0.0
  0
LINE
  5
156
100
AcDbEntity
  8
Layer_1
 62
5
100
AcDbLine
 10
38.181746
 20
24.495237
 30
0.0
 11
41.181745
 21
24.495237
 31
0.0
  0
LINE
  5
157
100
AcDbEntity
  8
Layer_1
 62
5
100
AcDbLine
 10
41.181745
 20
24.495237
 30
0.0
 11
41.181745
 21
14.495243
 31
0.0
  0
LINE
  5
158
100
AcDbEntity
  8
Layer_1
 62
5
100
AcDbLine
 10
41.181745
 20
14.495243
 30
0.0
 11
38.181746
 21
14.495243
 31
0.0
  0
LINE
  5
159
100
AcDbEntity
  8
Layer_1
 62
5
100
AcDbLine
 10
38.181746
 20
14.495243
 30
0.0
 11
38.181746
 21
24.495237
 31
0.0
  0
LINE
  5
15a
100
AcDbEntity
  8
Layer_1
 62
5
100
AcDbLine
 10
38.181746
 20
24.495237
 30
0.0
 11
38.181746
 21
24.495237
 31
0.0
  0
LINE
  5
15b
100
AcDbEntity
  8
Layer_1
 62
5
100
AcDbLine
 10
49.181743
 20
5.495233
 30
0.0
 11
54.181745
 21
5.495233
 31
0.0
  0
SPLINE
  5
15c
100
AcDbEntity
  8
Layer_1
 62
5
100
AcDbSpline
 70
8
 71
3
 72
8
 73
4
 74
0
 40
0
 40
0
 40
0
 40
0
 40
1
 40
1
 40
1
 40
1
 10
28.181746
 20
11.995234
 30
0.0
 10
28.182075
 20
12.531351
 30
0.0
 10
27.896248
 20
13.026885
 30
0.0
 10
27.432012
 20
13.295039
 30
0.0
  0
SPLINE
  5
15d
100
AcDbEntity
  8
Layer_1
 62
5
100
AcDbSpline
 70
8
 71
3
 72
8
 73
4
 74
0
 40
0
 40
0
 40
0
 40
0
 40
1
 40
1
 40
1
 40
1
 10
27.432012
 20
13.295039
 30
0.0
 10
26.967775
 20
13.563192
 30
0.0
 10
26.395717
 20
13.563192
 30
0.0
 10
25.931480
 20
13.295039
 30
0.0
  0
SPLINE
  5
15e
100
AcDbEntity
  8
Layer_1
 62
5
100
AcDbSpline
 70
8
 71
3
 72
8
 73
4
 74
0
 40
0
 40
0
 40
0
 40
0
 40
1
 40
1
 40
1
 40
1
 10
25.931480
 20
13.295039
 30
0.0
 10
25.467244
 20
13.026885
 30
0.0
 10
25.181417
 20
12.531351
 30
0.0
 10
25.181746
 20
11.995234
 30
0.0
  0
SPLINE
  5
15f
100
AcDbEntity
  8
Layer_1
 62
5
100
AcDbSpline
 70
8
 71
3
 72
8
 73
4
 74
0
 40
0
 40
0
 40
0
 40
0
 40
1
 40
1
 40
1
 40
1
 10
25.181746
 20
11.995234
 30
0.0
 10
25.181417
 20
11.459116
 30
0.0
 10
25.467244
 20
10.963583
 30
0.0
 10
25.931480
 20
10.695429
 30
0.0
  0
SPLINE
  5
160
100
AcDbEntity
  8
Layer_1
 62
5
100
AcDbSpline
 70
8
 71
3
 72
8
 73
4
 74
0
 40
0
 40
0
 40
0
 40
0
 40
1
 40
1
 40
1
 40
1
 10
25.931480
 20
10.695429
 30
0.0
 10
26.395717
 20
10.427275
 30
0.0
 10
26.967775
 20
10.427275
 30
0.0
 10
27.432012
 20
10.695429
 30
0.0
  0
SPLINE
  5
161
100
AcDbEntity
  8
Layer_1
 62
5
100
AcDbSpline
 70
8
 71
3
 72
8
 73
4
 74
0
 40
0
 40
0
 40
0
 40
0
 40
1
 40
1
 40
1
 40
1
 10
27.432012
 20
10.695429
 30
0.0
 10
27.896248
 20
10.963583
 30
0.0
 10
28.182075
 20
11.459116
 30
0.0
 10
28.181746
 20
11.995234
 30
0.0
  0
LINE
  5
162
100
AcDbEntity
  8
Layer_1
 62
5
100
AcDbLine
 10
28.181746
 20
11.995234
 30
0.0
 11
28.181746
 21
11.995234
 31
0.0
  0
LINE
  5
163
100
AcDbEntity
  8
Layer_1
 62
5
100
AcDbLine
 10
41.181745
 20
72.495237
 30
0.0
 11
46.181744
 21
72.495237
 31
0.0
  0
LINE
  5
164
100
AcDbEntity
  8
Layer_1
 62
5
100
AcDbLine
 10
46.181744
 20
72.495237
 30
0.0
 11
46.181744
 21
69.495237
 31
0.0
  0
LINE
  5
165
100
AcDbEntity
  8
Layer_1
 62
5
100
AcDbLine
 10
46.181744
 20
69.495237
 30
0.0
 11
41.181745
 21
69.495237
 31
0.0
  0
LINE
  5
166
100
AcDbEntity
  8
Layer_1
 62
5
100
AcDbLine
 10
41.181745
 20
69.495237
 30
0.0
 11
41.181745
 21
72.495237
 31
0.0
  0
LINE
  5
167
100
AcDbEntity
  8
Layer_1
 62
5
100
AcDbLine
 10
41.181745
 20
72.495237
 30
0.0
 11
41.181745
 21
72.495237
 31
0.0
  0
LINE
  5
168
100
AcDbEntity
  8
Layer_1
 62
5
100
AcDbLine
 10
33.181744
 20
72.495237
 30
0.0
 11
38.181746
 21
72.495237
 31
0.0
  0
LINE
  5
169
100
AcDbEntity
  8
Layer_1
 62
5
100
AcDbLine
 10
38.181746
 20
72.495237
 30
0.0
 11
38.181746
 21
69.495237
 31
0.0
  0
LINE
  5
16a
100
AcDbEntity
  8
Layer_1
 62
5
100
AcDbLine
 10
38.181746
 20
69.495237
 30
0.0
 11
33.181744
 21
69.495237
 31
0.0
  0
LINE
  5
16b
100
AcDbEntity
  8
Layer_1
 62
5
100
AcDbLine
 10
33.181744
 20
69.495237
 30
0.0
 11
33.181744
 21
72.495237
 31
0.0
  0
LINE
  5
16c
100
AcDbEntity
  8
Layer_1
 62
5
100
AcDbLine
 10
33.181744
 20
72.495237
 30
0.0
 11
33.181744
 21
72.495237
 31
0.0
  0
LINE
  5
16d
100
AcDbEntity
  8
Layer_1
 62
5
100
AcDbLine
 10
38.181746
 20
2.495239
 30
0.0
 11
38.181746
 21
5.495233
 31
0.0
  0
LINE
  5
16e
100
AcDbEntity
  8
Layer_1
 62
5
100
AcDbLine
 10
38.181746
 20
5.495233
 30
0.0
 11
33.181744
 21
5.495233
 31
0.0
  0
LINE
  5
16f
100
AcDbEntity
  8
Layer_1
 62
5
100
AcDbLine
 10
33.181744
 20
5.495233
 30
0.0
 11
33.181744
 21
2.495239
 31
0.0
  0
LINE
  5
170
100
AcDbEntity
  8
Layer_1
 62
5
100
AcDbLine
 10
33.181744
 20
2.495239
 30
0.0
 11
38.181746
 21
2.495239
 31
0.0
  0
LINE
  5
171
100
AcDbEntity
  8
Layer_1
 62
5
100
AcDbLine
 10
38.181746
 20
2.495239
 30
0.0
 11
38.181746
 21
2.495239
 31
0.0
  0
LINE
  5
172
100
AcDbEntity
  8
Layer_1
 62
5
100
AcDbLine
 10
41.181745
 20
2.495239
 30
0.0
 11
46.181744
 21
2.495239
 31
0.0
  0
LINE
  5
173
100
AcDbEntity
  8
Layer_1
 62
5
100
AcDbLine
 10
46.181744
 20
2.495239
 30
0.0
 11
46.181744
 21
5.495233
 31
0.0
  0
LINE
  5
174
100
AcDbEntity
  8
Layer_1
 62
5
100
AcDbLine
 10
46.181744
 20
5.495233
 30
0.0
 11
41.181745
 21
5.495233
 31
0.0
  0
LINE
  5
175
100
AcDbEntity
  8
Layer_1
 62
5
100
AcDbLine
 10
41.181745
 20
5.495233
 30
0.0
 11
41.181745
 21
2.495239
 31
0.0
  0
LINE
  5
176
100
AcDbEntity
  8
Layer_1
 62
5
100
AcDbLine
 10
41.181745
 20
2.495239
 30
0.0
 11
41.181745
 21
2.495239
 31
0.0
  0
SPLINE
  5
177
100
AcDbEntity
  8
Layer_1
 62
5
100
AcDbSpline
 70
8
 71
3
 72
8
 73
4
 74
0
 40
0
 40
0
 40
0
 40
0
 40
1
 40
1
 40
1
 40
1
 10
35.181746
 20
55.495237
 30
0.0
 10
35.182283
 20
56.924657
 30
0.0
 10
34.420005
 20
58.245726
 30
0.0
 10
33.182180
 20
58.960591
 30
0.0
  0
SPLINE
  5
178
100
AcDbEntity
  8
Layer_1
 62
5
100
AcDbSpline
 70
8
 71
3
 72
8
 73
4
 74
0
 40
0
 40
0
 40
0
 40
0
 40
1
 40
1
 40
1
 40
1
 10
33.182180
 20
58.960591
 30
0.0
 10
31.944355
 20
59.675457
 30
0.0
 10
30.419136
 20
59.675457
 30
0.0
 10
29.181311
 20
58.960591
 30
0.0
  0
SPLINE
  5
179
100
AcDbEntity
  8
Layer_1
 62
5
100
AcDbSpline
 70
8
 71
3
 72
8
 73
4
 74
0
 40
0
 40
0
 40
0
 40
0
 40
1
 40
1
 40
1
 40
1
 10
29.181311
 20
58.960591
 30
0.0
 10
27.943486
 20
58.245726
 30
0.0
 10
27.181208
 20
56.924657
 30
0.0
 10
27.181745
 20
55.495237
 30
0.0
  0
SPLINE
  5
17a
100
AcDbEntity
  8
Layer_1
 62
5
100
AcDbSpline
 70
8
 71
3
 72
8
 73
4
 74
0
 40
0
 40
0
 40
0
 40
0
 40
1
 40
1
 40
1
 40
1
 10
27.181745
 20
55.495237
 30
0.0
 10
27.181208
 20
54.065817
 30
0.0
 10
27.943486
 20
52.744748
 30
0.0
 10
29.181311
 20
52.029883
 30
0.0
  0
SPLINE
  5
17b
100
AcDbEntity
  8
Layer_1
 62
5
100
AcDbSpline
 70
8
 71
3
 72
8
 73
4
 74
0
 40
0
 40
0
 40
0
 40
0
 40
1
 40
1
 40
1
 40
1
 10
29.181311
 20
52.029883
 30
0.0
 10
30.419136
 20
51.315017
 30
0.0
 10
31.944355
 20
51.315017
 30
0.0
 10
33.182180
 20
52.029883
 30
0.0
  0
SPLINE
  5
17c
100
AcDbEntity
  8
Layer_1
 62
5
100
AcDbSpline
 70
8
 71
3
 72
8
 73
4
 74
0
 40
0
 40
0
 40
0
 40
0
 40
1
 40
1
 40
1
 40
1
 10
33.182180
 20
52.029883
 30
0.0
 10
34.420005
 20
52.744748
 30
0.0
 10
35.182283
 20
54.065817
 30
0.0
 10
35.181746
 20
55.495237
 30
0.0
  0
LINE
  5
17d
100
AcDbEntity
  8
Layer_1
 62
5
100
AcDbLine
 10
35.181746
 20
55.495237
 30
0.0
 11
35.181746
 21
55.495237
 31
0.0
  0
SPLINE
  5
17e
100
AcDbEntity
  8
Layer_1
 62
5
100
AcDbSpline
 70
8
 71
3
 72
8
 73
4
 74
0
 40
0
 40
0
 40
0
 40
0
 40
1
 40
1
 40
1
 40
1
 10
35.181746
 20
19.495238
 30
0.0
 10
35.182283
 20
20.924659
 30
0.0
 10
34.420005
 20
22.245728
 30
0.0
 10
33.182180
 20
22.960593
 30
0.0
  0
SPLINE
  5
17f
100
AcDbEntity
  8
Layer_1
 62
5
100
AcDbSpline
 70
8
 71
3
 72
8
 73
4
 74
0
 40
0
 40
0
 40
0
 40
0
 40
1
 40
1
 40
1
 40
1
 10
33.182180
 20
22.960593
 30
0.0
 10
31.944355
 20
23.675458
 30
0.0
 10
30.419136
 20
23.675458
 30
0.0
 10
29.181311
 20
22.960593
 30
0.0
  0
SPLINE
  5
180
100
AcDbEntity
  8
Layer_1
 62
5
100
AcDbSpline
 70
8
 71
3
 72
8
 73
4
 74
0
 40
0
 40
0
 40
0
 40
0
 40
1
 40
1
 40
1
 40
1
 10
29.181311
 20
22.960593
 30
0.0
 10
27.943486
 20
22.245728
 30
0.0
 10
27.181208
 20
20.924659
 30
0.0
 10
27.181745
 20
19.495238
 30
0.0
  0
SPLINE
  5
181
100
AcDbEntity
  8
Layer_1
 62
5
100
AcDbSpline
 70
8
 71
3
 72
8
 73
4
 74
0
 40
0
 40
0
 40
0
 40
0
 40
1
 40
1
 40
1
 40
1
 10
27.181745
 20
19.495238
 30
0.0
 10
27.181208
 20
18.065818
 30
0.0
 10
27.943486
 20
16.744749
 30
0.0
 10
29.181311
 20
16.029884
 30
0.0
  0
SPLINE
  5
182
100
AcDbEntity
  8
Layer_1
 62
5
100
AcDbSpline
 70
8
 71
3
 72
8
 73
4
 74
0
 40
0
 40
0
 40
0
 40
0
 40
1
 40
1
 40
1
 40
1
 10
29.181311
 20
16.029884
 30
0.0
 10
30.419136
 20
15.315019
 30
0.0
 10
31.944355
 20
15.315019
 30
0.0
 10
33.182180
 20
16.029884
 30
0.0
  0
SPLINE
  5
183
100
AcDbEntity
  8
Layer_1
 62
5
100
AcDbSpline
 70
8
 71
3
 72
8
 73
4
 74
0
 40
0
 40
0
 40
0
 40
0
 40
1
 40
1
 40
1
 40
1
 10
33.182180
 20
16.029884
 30
0.0
 10
34.420005
 20
16.744749
 30
0.0
 10
35.182283
 20
18.065818
 30
0.0
 10
35.181746
 20
19.495238
 30
0.0
  0
LINE
  5
184
100
AcDbEntity
  8
Layer_1
 62
5
100
AcDbLine
 10
35.181746
 20
19.495238
 30
0.0
 11
35.181746
 21
19.495238
 31
0.0
  0
LINE
  5
185
100
AcDbEntity
  8
Layer_1
 62
7
100
AcDbLine
 10
55.683333
 20
2.495239
 30
0.0
 11
105.183333
 21
2.495239
 31
0.0
  0
LINE
  5
186
100
AcDbEntity
  8
Layer_1
 62
7
100
AcDbLine
 10
105.183333
 20
2.495239
 30
0.0
 11
105.183333
 21
72.495237
 31
0.0
  0
LINE
  5
187
100
AcDbEntity
  8
Layer_1
 62
7
100
AcDbLine
 10
105.183333
 20
72.495237
 30
0.0
 11
55.683333
 21
72.495237
 31
0.0
  0
LINE
  5
188
100
AcDbEntity
  8
Layer_1
 62
7
100
AcDbLine
 10
55.683333
 20
72.495237
 30
0.0
 11
55.683333
 21
2.495239
 31
0.0
  0
LINE
  5
189
100
AcDbEntity
  8
Layer_1
 62
5
100
AcDbLine
 10
74.183333
 20
67.495238
 30
0.0
 11
64.183333
 21
67.495238
 31
0.0
  0
LINE
  5
18a
100
AcDbEntity
  8
Layer_1
 62
5
100
AcDbLine
 10
64.183333
 20
67.495238
 30
0.0
 11
64.183333
 21
43.495230
 31
0.0
  0
LINE
  5
18b
100
AcDbEntity
  8
Layer_1
 62
5
100
AcDbLine
 10
64.183333
 20
43.495230
 30
0.0
 11
74.183333
 21
43.495230
 31
0.0
  0
LINE
  5
18c
100
AcDbEntity
  8
Layer_1
 62
5
100
AcDbLine
 10
74.183333
 20
43.495230
 30
0.0
 11
74.183333
 21
67.495238
 31
0.0
  0
LINE
  5
18d
100
AcDbEntity
  8
Layer_1
 62
5
100
AcDbLine
 10
74.183333
 20
67.495238
 30
0.0
 11
74.183333
 21
67.495238
 31
0.0
  0
SPLINE
  5
18e
100
AcDbEntity
  8
Layer_1
 62
5
100
AcDbSpline
 70
8
 71
3
 72
8
 73
4
 74
0
 40
0
 40
0
 40
0
 40
0
 40
1
 40
1
 40
1
 40
1
 10
79.183334
 20
62.995233
 30
0.0
 10
79.183334
 20
63.531132
 30
0.0
 10
78.897436
 20
64.026323
 30
0.0
 10
78.433334
 20
64.294273
 30
0.0
  0
SPLINE
  5
18f
100
AcDbEntity
  8
Layer_1
 62
5
100
AcDbSpline
 70
8
 71
3
 72
8
 73
4
 74
0
 40
0
 40
0
 40
0
 40
0
 40
1
 40
1
 40
1
 40
1
 10
78.433334
 20
64.294273
 30
0.0
 10
77.969232
 20
64.562222
 30
0.0
 10
77.397435
 20
64.562222
 30
0.0
 10
76.933333
 20
64.294273
 30
0.0
  0
SPLINE
  5
190
100
AcDbEntity
  8
Layer_1
 62
5
100
AcDbSpline
 70
8
 71
3
 72
8
 73
4
 74
0
 40
0
 40
0
 40
0
 40
0
 40
1
 40
1
 40
1
 40
1
 10
76.933333
 20
64.294273
 30
0.0
 10
76.469231
 20
64.026323
 30
0.0
 10
76.183332
 20
63.531132
 30
0.0
 10
76.183332
 20
62.995233
 30
0.0
  0
SPLINE
  5
191
100
AcDbEntity
  8
Layer_1
 62
5
100
AcDbSpline
 70
8
 71
3
 72
8
 73
4
 74
0
 40
0
 40
0
 40
0
 40
0
 40
1
 40
1
 40
1
 40
1
 10
76.183332
 20
62.995233
 30
0.0
 10
76.183332
 20
62.459335
 30
0.0
 10
76.469231
 20
61.964144
 30
0.0
 10
76.933333
 20
61.696194
 30
0.0
  0
SPLINE
  5
192
100
AcDbEntity
  8
Layer_1
 62
5
100
AcDbSpline
 70
8
 71
3
 72
8
 73
4
 74
0
 40
0
 40
0
 40
0
 40
0
 40
1
 40
1
 40
1
 40
1
 10
76.933333
 20
61.696194
 30
0.0
 10
77.397435
 20
61.428245
 30
0.0
 10
77.969232
 20
61.428245
 30
0.0
 10
78.433334
 20
61.696194
 30
0.0
  0
SPLINE
  5
193
100
AcDbEntity
  8
Layer_1
 62
5
100
AcDbSpline
 70
8
 71
3
 72
8
 73
4
 74
0
 40
0
 40
0
 40
0
 40
0
 40
1
 40
1
 40
1
 40
1
 10
78.433334
 20
61.696194
 30
0.0
 10
78.897436
 20
61.964144
 30
0.0
 10
79.183334
 20
62.459335
 30
0.0
 10
79.183334
 20
62.995233
 30
0.0
  0
LINE
  5
194
100
AcDbEntity
  8
Layer_1
 62
5
100
AcDbLine
 10
79.183334
 20
62.995233
 30
0.0
 11
79.183334
 21
62.995233
 31
0.0
  0
LINE
  5
195
100
AcDbEntity
  8
Layer_1
 62
5
100
AcDbLine
 10
92.183334
 20
60.495252
 30
0.0
 11
89.183334
 21
60.495252
 31
0.0
  0
LINE
  5
196
100
AcDbEntity
  8
Layer_1
 62
5
100
AcDbLine
 10
89.183334
 20
60.495252
 30
0.0
 11
89.183334
 21
50.495244
 31
0.0
  0
LINE
  5
197
100
AcDbEntity
  8
Layer_1
 62
5
100
AcDbLine
 10
89.183334
 20
50.495244
 30
0.0
 11
92.183334
 21
50.495244
 31
0.0
  0
LINE
  5
198
100
AcDbEntity
  8
Layer_1
 62
5
100
AcDbLine
 10
92.183334
 20
50.495244
 30
0.0
 11
92.183334
 21
60.495252
 31
0.0
  0
LINE
  5
199
100
AcDbEntity
  8
Layer_1
 62
5
100
AcDbLine
 10
92.183334
 20
60.495252
 30
0.0
 11
92.183334
 21
60.495252
 31
0.0
  0
LINE
  5
19a
100
AcDbEntity
  8
Layer_1
 62
5
100
AcDbLine
 10
100.183332
 20
60.495252
 30
0.0
 11
97.183332
 21
60.495252
 31
0.0
  0
LINE
  5
19b
100
AcDbEntity
  8
Layer_1
 62
5
100
AcDbLine
 10
97.183332
 20
60.495252
 30
0.0
 11
97.183332
 21
50.495244
 31
0.0
  0
LINE
  5
19c
100
AcDbEntity
  8
Layer_1
 62
5
100
AcDbLine
 10
97.183332
 20
50.495244
 30
0.0
 11
100.183332
 21
50.495244
 31
0.0
  0
LINE
  5
19d
100
AcDbEntity
  8
Layer_1
 62
5
100
AcDbLine
 10
100.183332
 20
50.495244
 30
0.0
 11
100.183332
 21
60.495252
 31
0.0
  0
LINE
  5
19e
100
AcDbEntity
  8
Layer_1
 62
5
100
AcDbLine
 10
100.183332
 20
60.495252
 30
0.0
 11
100.183332
 21
60.495252
 31
0.0
  0
SPLINE
  5
19f
100
AcDbEntity
  8
Layer_1
 62
5
100
AcDbSpline
 70
8
 71
3
 72
8
 73
4
 74
0
 40
0
 40
0
 40
0
 40
0
 40
1
 40
1
 40
1
 40
1
 10
79.183334
 20
47.995235
 30
0.0
 10
79.183334
 20
48.531134
 30
0.0
 10
78.897436
 20
49.026325
 30
0.0
 10
78.433334
 20
49.294274
 30
0.0
  0
SPLINE
  5
1a0
100
AcDbEntity
  8
Layer_1
 62
5
100
AcDbSpline
 70
8
 71
3
 72
8
 73
4
 74
0
 40
0
 40
0
 40
0
 40
0
 40
1
 40
1
 40
1
 40
1
 10
78.433334
 20
49.294274
 30
0.0
 10
77.969232
 20
49.562224
 30
0.0
 10
77.397435
 20
49.562224
 30
0.0
 10
76.933333
 20
49.294274
 30
0.0
  0
SPLINE
  5
1a1
100
AcDbEntity
  8
Layer_1
 62
5
100
AcDbSpline
 70
8
 71
3
 72
8
 73
4
 74
0
 40
0
 40
0
 40
0
 40
0
 40
1
 40
1
 40
1
 40
1
 10
76.933333
 20
49.294274
 30
0.0
 10
76.469231
 20
49.026325
 30
0.0
 10
76.183332
 20
48.531134
 30
0.0
 10
76.183332
 20
47.995235
 30
0.0
  0
SPLINE
  5
1a2
100
AcDbEntity
  8
Layer_1
 62
5
100
AcDbSpline
 70
8
 71
3
 72
8
 73
4
 74
0
 40
0
 40
0
 40
0
 40
0
 40
1
 40
1
 40
1
 40
1
 10
76.183332
 20
47.995235
 30
0.0
 10
76.183332
 20
47.459336
 30
0.0
 10
76.469231
 20
46.964145
 30
0.0
 10
76.933333
 20
46.696196
 30
0.0
  0
SPLINE
  5
1a3
100
AcDbEntity
  8
Layer_1
 62
5
100
AcDbSpline
 70
8
 71
3
 72
8
 73
4
 74
0
 40
0
 40
0
 40
0
 40
0
 40
1
 40
1
 40
1
 40
1
 10
76.933333
 20
46.696196
 30
0.0
 10
77.397435
 20
46.428247
 30
0.0
 10
77.969232
 20
46.428247
 30
0.0
 10
78.433334
 20
46.696196
 30
0.0
  0
SPLINE
  5
1a4
100
AcDbEntity
  8
Layer_1
 62
5
100
AcDbSpline
 70
8
 71
3
 72
8
 73
4
 74
0
 40
0
 40
0
 40
0
 40
0
 40
1
 40
1
 40
1
 40
1
 10
78.433334
 20
46.696196
 30
0.0
 10
78.897436
 20
46.964145
 30
0.0
 10
79.183334
 20
47.459336
 30
0.0
 10
79.183334
 20
47.995235
 30
0.0
  0
LINE
  5
1a5
100
AcDbEntity
  8
Layer_1
 62
5
100
AcDbLine
 10
79.183334
 20
47.995235
 30
0.0
 11
79.183334
 21
47.995235
 31
0.0
  0
SPLINE
  5
1a6
100
AcDbEntity
  8
Layer_1
 62
5
100
AcDbSpline
 70
8
 71
3
 72
8
 73
4
 74
0
 40
0
 40
0
 40
0
 40
0
 40
1
 40
1
 40
1
 40
1
 10
62.183335
 20
62.995233
 30
0.0
 10
62.183335
 20
63.531132
 30
0.0
 10
61.897436
 20
64.026323
 30
0.0
 10
61.433334
 20
64.294273
 30
0.0
  0
SPLINE
  5
1a7
100
AcDbEntity
  8
Layer_1
 62
5
100
AcDbSpline
 70
8
 71
3
 72
8
 73
4
 74
0
 40
0
 40
0
 40
0
 40
0
 40
1
 40
1
 40
1
 40
1
 10
61.433334
 20
64.294273
 30
0.0
 10
60.969232
 20
64.562222
 30
0.0
 10
60.397435
 20
64.562222
 30
0.0
 10
59.933333
 20
64.294273
 30
0.0
  0
SPLINE
  5
1a8
100
AcDbEntity
  8
Layer_1
 62
5
100
AcDbSpline
 70
8
 71
3
 72
8
 73
4
 74
0
 40
0
 40
0
 40
0
 40
0
 40
1
 40
1
 40
1
 40
1
 10
59.933333
 20
64.294273
 30
0.0
 10
59.469231
 20
64.026323
 30
0.0
 10
59.183332
 20
63.531132
 30
0.0
 10
59.183332
 20
62.995233
 30
0.0
  0
SPLINE
  5
1a9
100
AcDbEntity
  8
Layer_1
 62
5
100
AcDbSpline
 70
8
 71
3
 72
8
 73
4
 74
0
 40
0
 40
0
 40
0
 40
0
 40
1
 40
1
 40
1
 40
1
 10
59.183332
 20
62.995233
 30
0.0
 10
59.183332
 20
62.166806
 30
0.0
 10
59.854906
 20
61.495232
 30
0.0
 10
60.683333
 20
61.495232
 30
0.0
  0
SPLINE
  5
1aa
100
AcDbEntity
  8
Layer_1
 62
5
100
AcDbSpline
 70
8
 71
3
 72
8
 73
4
 74
0
 40
0
 40
0
 40
0
 40
0
 40
1
 40
1
 40
1
 40
1
 10
60.683333
 20
61.495232
 30
0.0
 10
61.511761
 20
61.495232
 30
0.0
 10
62.183334
 20
62.166806
 30
0.0
 10
62.183335
 20
62.995233
 30
0.0
  0
LINE
  5
1ab
100
AcDbEntity
  8
Layer_1
 62
5
100
AcDbLine
 10
62.183335
 20
62.995233
 30
0.0
 11
62.183335
 21
62.995233
 31
0.0
  0
SPLINE
  5
1ac
100
AcDbEntity
  8
Layer_1
 62
5
100
AcDbSpline
 70
8
 71
3
 72
8
 73
4
 74
0
 40
0
 40
0
 40
0
 40
0
 40
1
 40
1
 40
1
 40
1
 10
62.183335
 20
47.995235
 30
0.0
 10
62.183335
 20
48.531134
 30
0.0
 10
61.897436
 20
49.026325
 30
0.0
 10
61.433334
 20
49.294274
 30
0.0
  0
SPLINE
  5
1ad
100
AcDbEntity
  8
Layer_1
 62
5
100
AcDbSpline
 70
8
 71
3
 72
8
 73
4
 74
0
 40
0
 40
0
 40
0
 40
0
 40
1
 40
1
 40
1
 40
1
 10
61.433334
 20
49.294274
 30
0.0
 10
60.969232
 20
49.562224
 30
0.0
 10
60.397435
 20
49.562224
 30
0.0
 10
59.933333
 20
49.294274
 30
0.0
  0
SPLINE
  5
1ae
100
AcDbEntity
  8
Layer_1
 62
5
100
AcDbSpline
 70
8
 71
3
 72
8
 73
4
 74
0
 40
0
 40
0
 40
0
 40
0
 40
1
 40
1
 40
1
 40
1
 10
59.933333
 20
49.294274
 30
0.0
 10
59.469231
 20
49.026325
 30
0.0
 10
59.183332
 20
48.531134
 30
0.0
 10
59.183332
 20
47.995235
 30
0.0
  0
SPLINE
  5
1af
100
AcDbEntity
  8
Layer_1
 62
5
100
AcDbSpline
 70
8
 71
3
 72
8
 73
4
 74
0
 40
0
 40
0
 40
0
 40
0
 40
1
 40
1
 40
1
 40
1
 10
59.183332
 20
47.995235
 30
0.0
 10
59.183332
 20
47.166807
 30
0.0
 10
59.854906
 20
46.495234
 30
0.0
 10
60.683333
 20
46.495234
 30
0.0
  0
SPLINE
  5
1b0
100
AcDbEntity
  8
Layer_1
 62
5
100
AcDbSpline
 70
8
 71
3
 72
8
 73
4
 74
0
 40
0
 40
0
 40
0
 40
0
 40
1
 40
1
 40
1
 40
1
 10
60.683333
 20
46.495234
 30
0.0
 10
61.511761
 20
46.495234
 30
0.0
 10
62.183334
 20
47.166807
 30
0.0
 10
62.183335
 20
47.995235
 30
0.0
  0
LINE
  5
1b1
100
AcDbEntity
  8
Layer_1
 62
5
100
AcDbLine
 10
62.183335
 20
47.995235
 30
0.0
 11
62.183335
 21
47.995235
 31
0.0
  0
LINE
  5
1b2
100
AcDbEntity
  8
Layer_1
 62
5
100
AcDbLine
 10
105.183333
 20
72.495237
 30
0.0
 11
100.183332
 21
72.495237
 31
0.0
  0
LINE
  5
1b3
100
AcDbEntity
  8
Layer_1
 62
5
100
AcDbLine
 10
100.183332
 20
72.495237
 30
0.0
 11
100.183332
 21
69.495237
 31
0.0
  0
LINE
  5
1b4
100
AcDbEntity
  8
Layer_1
 62
5
100
AcDbLine
 10
100.183332
 20
69.495237
 30
0.0
 11
105.183333
 21
69.495237
 31
0.0
  0
LINE
  5
1b5
100
AcDbEntity
  8
Layer_1
 62
5
100
AcDbLine
 10
105.183333
 20
69.495237
 30
0.0
 11
105.183333
 21
72.495237
 31
0.0
  0
LINE
  5
1b6
100
AcDbEntity
  8
Layer_1
 62
7
100
AcDbLine
 10
105.183333
 20
2.495239
 30
0.0
 11
55.683333
 21
2.495239
 31
0.0
  0
LINE
  5
1b7
100
AcDbEntity
  8
Layer_1
 62
5
100
AcDbLine
 10
105.183333
 20
2.495239
 30
0.0
 11
100.183332
 21
2.495239
 31
0.0
  0
LINE
  5
1b8
100
AcDbEntity
  8
Layer_1
 62
5
100
AcDbLine
 10
100.183332
 20
14.495243
 30
0.0
 11
97.183332
 21
14.495243
 31
0.0
  0
LINE
  5
1b9
100
AcDbEntity
  8
Layer_1
 62
5
100
AcDbLine
 10
97.183332
 20
14.495243
 30
0.0
 11
97.183332
 21
24.495240
 31
0.0
  0
LINE
  5
1ba
100
AcDbEntity
  8
Layer_1
 62
5
100
AcDbLine
 10
97.183332
 20
24.495240
 30
0.0
 11
100.183332
 21
24.495240
 31
0.0
  0
LINE
  5
1bb
100
AcDbEntity
  8
Layer_1
 62
5
100
AcDbLine
 10
100.183332
 20
24.495240
 30
0.0
 11
100.183332
 21
14.495243
 31
0.0
  0
LINE
  5
1bc
100
AcDbEntity
  8
Layer_1
 62
5
100
AcDbLine
 10
100.183332
 20
14.495243
 30
0.0
 11
100.183332
 21
14.495243
 31
0.0
  0
SPLINE
  5
1bd
100
AcDbEntity
  8
Layer_1
 62
5
100
AcDbSpline
 70
8
 71
3
 72
8
 73
4
 74
0
 40
0
 40
0
 40
0
 40
0
 40
1
 40
1
 40
1
 40
1
 10
79.183334
 20
26.995249
 30
0.0
 10
79.183334
 20
27.531148
 30
0.0
 10
78.897436
 20
28.026339
 30
0.0
 10
78.433334
 20
28.294288
 30
0.0
  0
SPLINE
  5
1be
100
AcDbEntity
  8
Layer_1
 62
5
100
AcDbSpline
 70
8
 71
3
 72
8
 73
4
 74
0
 40
0
 40
0
 40
0
 40
0
 40
1
 40
1
 40
1
 40
1
 10
78.433334
 20
28.294288
 30
0.0
 10
77.969232
 20
28.562237
 30
0.0
 10
77.397435
 20
28.562237
 30
0.0
 10
76.933333
 20
28.294288
 30
0.0
  0
SPLINE
  5
1bf
100
AcDbEntity
  8
Layer_1
 62
5
100
AcDbSpline
 70
8
 71
3
 72
8
 73
4
 74
0
 40
0
 40
0
 40
0
 40
0
 40
1
 40
1
 40
1
 40
1
 10
76.933333
 20
28.294288
 30
0.0
 10
76.469231
 20
28.026339
 30
0.0
 10
76.183332
 20
27.531148
 30
0.0
 10
76.183332
 20
26.995249
 30
0.0
  0
SPLINE
  5
1c0
100
AcDbEntity
  8
Layer_1
 62
5
100
AcDbSpline
 70
8
 71
3
 72
8
 73
4
 74
0
 40
0
 40
0
 40
0
 40
0
 40
1
 40
1
 40
1
 40
1
 10
76.183332
 20
26.995249
 30
0.0
 10
76.183332
 20
26.459350
 30
0.0
 10
76.469231
 20
25.964159
 30
0.0
 10
76.933333
 20
25.696210
 30
0.0
  0
SPLINE
  5
1c1
100
AcDbEntity
  8
Layer_1
 62
5
100
AcDbSpline
 70
8
 71
3
 72
8
 73
4
 74
0
 40
0
 40
0
 40
0
 40
0
 40
1
 40
1
 40
1
 40
1
 10
76.933333
 20
25.696210
 30
0.0
 10
77.397435
 20
25.428260
 30
0.0
 10
77.969232
 20
25.428260
 30
0.0
 10
78.433334
 20
25.696210
 30
0.0
  0
SPLINE
  5
1c2
100
AcDbEntity
  8
Layer_1
 62
5
100
AcDbSpline
 70
8
 71
3
 72
8
 73
4
 74
0
 40
0
 40
0
 40
0
 40
0
 40
1
 40
1
 40
1
 40
1
 10
78.433334
 20
25.696210
 30
0.0
 10
78.897436
 20
25.964159
 30
0.0
 10
79.183334
 20
26.459350
 30
0.0
 10
79.183334
 20
26.995249
 30
0.0
  0
LINE
  5
1c3
100
AcDbEntity
  8
Layer_1
 62
5
100
AcDbLine
 10
79.183334
 20
26.995249
 30
0.0
 11
79.183334
 21
26.995249
 31
0.0
  0
LINE
  5
1c4
100
AcDbEntity
  8
Layer_1
 62
5
100
AcDbLine
 10
100.183332
 20
2.495239
 30
0.0
 11
100.183332
 21
5.495233
 31
0.0
  0
LINE
  5
1c5
100
AcDbEntity
  8
Layer_1
 62
5
100
AcDbLine
 10
105.183333
 20
5.495233
 30
0.0
 11
105.183333
 21
2.495239
 31
0.0
  0
SPLINE
  5
1c6
100
AcDbEntity
  8
Layer_1
 62
5
100
AcDbSpline
 70
8
 71
3
 72
8
 73
4
 74
0
 40
0
 40
0
 40
0
 40
0
 40
1
 40
1
 40
1
 40
1
 10
62.183335
 20
26.995249
 30
0.0
 10
62.183335
 20
27.531148
 30
0.0
 10
61.897436
 20
28.026339
 30
0.0
 10
61.433334
 20
28.294288
 30
0.0
  0
SPLINE
  5
1c7
100
AcDbEntity
  8
Layer_1
 62
5
100
AcDbSpline
 70
8
 71
3
 72
8
 73
4
 74
0
 40
0
 40
0
 40
0
 40
0
 40
1
 40
1
 40
1
 40
1
 10
61.433334
 20
28.294288
 30
0.0
 10
60.969232
 20
28.562238
 30
0.0
 10
60.397435
 20
28.562238
 30
0.0
 10
59.933333
 20
28.294288
 30
0.0
  0
SPLINE
  5
1c8
100
AcDbEntity
  8
Layer_1
 62
5
100
AcDbSpline
 70
8
 71
3
 72
8
 73
4
 74
0
 40
0
 40
0
 40
0
 40
0
 40
1
 40
1
 40
1
 40
1
 10
59.933333
 20
28.294288
 30
0.0
 10
59.469231
 20
28.026339
 30
0.0
 10
59.183332
 20
27.531148
 30
0.0
 10
59.183332
 20
26.995249
 30
0.0
  0
SPLINE
  5
1c9
100
AcDbEntity
  8
Layer_1
 62
5
100
AcDbSpline
 70
8
 71
3
 72
8
 73
4
 74
0
 40
0
 40
0
 40
0
 40
0
 40
1
 40
1
 40
1
 40
1
 10
59.183332
 20
26.995249
 30
0.0
 10
59.183332
 20
26.166821
 30
0.0
 10
59.854906
 20
25.495248
 30
0.0
 10
60.683333
 20
25.495248
 30
0.0
  0
SPLINE
  5
1ca
100
AcDbEntity
  8
Layer_1
 62
5
100
AcDbSpline
 70
8
 71
3
 72
8
 73
4
 74
0
 40
0
 40
0
 40
0
 40
0
 40
1
 40
1
 40
1
 40
1
 10
60.683333
 20
25.495248
 30
0.0
 10
61.511761
 20
25.495248
 30
0.0
 10
62.183334
 20
26.166821
 30
0.0
 10
62.183335
 20
26.995249
 30
0.0
  0
LINE
  5
1cb
100
AcDbEntity
  8
Layer_1
 62
5
100
AcDbLine
 10
62.183335
 20
26.995249
 30
0.0
 11
62.183335
 21
26.995249
 31
0.0
  0
LINE
  5
1cc
100
AcDbEntity
  8
Layer_1
 62
5
100
AcDbLine
 10
74.183333
 20
7.495229
 30
0.0
 11
64.183333
 21
7.495229
 31
0.0
  0
LINE
  5
1cd
100
AcDbEntity
  8
Layer_1
 62
5
100
AcDbLine
 10
64.183333
 20
7.495229
 30
0.0
 11
64.183333
 21
31.495226
 31
0.0
  0
LINE
  5
1ce
100
AcDbEntity
  8
Layer_1
 62
5
100
AcDbLine
 10
64.183333
 20
31.495226
 30
0.0
 11
74.183333
 21
31.495226
 31
0.0
  0
LINE
  5
1cf
100
AcDbEntity
  8
Layer_1
 62
5
100
AcDbLine
 10
74.183333
 20
31.495226
 30
0.0
 11
74.183333
 21
7.495229
 31
0.0
  0
LINE
  5
1d0
100
AcDbEntity
  8
Layer_1
 62
5
100
AcDbLine
 10
74.183333
 20
7.495229
 30
0.0
 11
74.183333
 21
7.495229
 31
0.0
  0
SPLINE
  5
1d1
100
AcDbEntity
  8
Layer_1
 62
5
100
AcDbSpline
 70
8
 71
3
 72
8
 73
4
 74
0
 40
0
 40
0
 40
0
 40
0
 40
1
 40
1
 40
1
 40
1
 10
62.183335
 20
11.995234
 30
0.0
 10
62.183335
 20
12.531133
 30
0.0
 10
61.897436
 20
13.026324
 30
0.0
 10
61.433334
 20
13.294273
 30
0.0
  0
SPLINE
  5
1d2
100
AcDbEntity
  8
Layer_1
 62
5
100
AcDbSpline
 70
8
 71
3
 72
8
 73
4
 74
0
 40
0
 40
0
 40
0
 40
0
 40
1
 40
1
 40
1
 40
1
 10
61.433334
 20
13.294273
 30
0.0
 10
60.969232
 20
13.562223
 30
0.0
 10
60.397435
 20
13.562223
 30
0.0
 10
59.933333
 20
13.294273
 30
0.0
  0
SPLINE
  5
1d3
100
AcDbEntity
  8
Layer_1
 62
5
100
AcDbSpline
 70
8
 71
3
 72
8
 73
4
 74
0
 40
0
 40
0
 40
0
 40
0
 40
1
 40
1
 40
1
 40
1
 10
59.933333
 20
13.294273
 30
0.0
 10
59.469231
 20
13.026324
 30
0.0
 10
59.183332
 20
12.531133
 30
0.0
 10
59.183332
 20
11.995234
 30
0.0
  0
SPLINE
  5
1d4
100
AcDbEntity
  8
Layer_1
 62
5
100
AcDbSpline
 70
8
 71
3
 72
8
 73
4
 74
0
 40
0
 40
0
 40
0
 40
0
 40
1
 40
1
 40
1
 40
1
 10
59.183332
 20
11.995234
 30
0.0
 10
59.183332
 20
11.166806
 30
0.0
 10
59.854906
 20
10.495233
 30
0.0
 10
60.683333
 20
10.495233
 30
0.0
  0
SPLINE
  5
1d5
100
AcDbEntity
  8
Layer_1
 62
5
100
AcDbSpline
 70
8
 71
3
 72
8
 73
4
 74
0
 40
0
 40
0
 40
0
 40
0
 40
1
 40
1
 40
1
 40
1
 10
60.683333
 20
10.495233
 30
0.0
 10
61.511761
 20
10.495233
 30
0.0
 10
62.183334
 20
11.166806
 30
0.0
 10
62.183335
 20
11.995234
 30
0.0
  0
LINE
  5
1d6
100
AcDbEntity
  8
Layer_1
 62
5
100
AcDbLine
 10
62.183335
 20
11.995234
 30
0.0
 11
62.183335
 21
11.995234
 31
0.0
  0
LINE
  5
1d7
100
AcDbEntity
  8
Layer_1
 62
5
100
AcDbLine
 10
89.183334
 20
24.495240
 30
0.0
 11
92.183334
 21
24.495240
 31
0.0
  0
LINE
  5
1d8
100
AcDbEntity
  8
Layer_1
 62
5
100
AcDbLine
 10
92.183334
 20
24.495240
 30
0.0
 11
92.183334
 21
14.495243
 31
0.0
  0
LINE
  5
1d9
100
AcDbEntity
  8
Layer_1
 62
5
100
AcDbLine
 10
92.183334
 20
14.495243
 30
0.0
 11
89.183334
 21
14.495243
 31
0.0
  0
LINE
  5
1da
100
AcDbEntity
  8
Layer_1
 62
5
100
AcDbLine
 10
89.183334
 20
14.495243
 30
0.0
 11
89.183334
 21
24.495240
 31
0.0
  0
LINE
  5
1db
100
AcDbEntity
  8
Layer_1
 62
5
100
AcDbLine
 10
89.183334
 20
24.495240
 30
0.0
 11
89.183334
 21
24.495240
 31
0.0
  0
LINE
  5
1dc
100
AcDbEntity
  8
Layer_1
 62
5
100
AcDbLine
 10
100.183332
 20
5.495233
 30
0.0
 11
105.183333
 21
5.495233
 31
0.0
  0
SPLINE
  5
1dd
100
AcDbEntity
  8
Layer_1
 62
5
100
AcDbSpline
 70
8
 71
3
 72
8
 73
4
 74
0
 40
0
 40
0
 40
0
 40
0
 40
1
 40
1
 40
1
 40
1
 10
79.183334
 20
11.995234
 30
0.0
 10
79.183334
 20
12.531133
 30
0.0
 10
78.897436
 20
13.026324
 30
0.0
 10
78.433334
 20
13.294273
 30
0.0
  0
SPLINE
  5
1de
100
AcDbEntity
  8
Layer_1
 62
5
100
AcDbSpline
 70
8
 71
3
 72
8
 73
4
 74
0
 40
0
 40
0
 40
0
 40
0
 40
1
 40
1
 40
1
 40
1
 10
78.433334
 20
13.294273
 30
0.0
 10
77.969232
 20
13.562222
 30
0.0
 10
77.397435
 20
13.562222
 30
0.0
 10
76.933333
 20
13.294273
 30
0.0
  0
SPLINE
  5
1df
100
AcDbEntity
  8
Layer_1
 62
5
100
AcDbSpline
 70
8
 71
3
 72
8
 73
4
 74
0
 40
0
 40
0
 40
0
 40
0
 40
1
 40
1
 40
1
 40
1
 10
76.933333
 20
13.294273
 30
0.0
 10
76.469231
 20
13.026324
 30
0.0
 10
76.183332
 20
12.531133
 30
0.0
 10
76.183332
 20
11.995234
 30
0.0
  0
SPLINE
  5
1e0
100
AcDbEntity
  8
Layer_1
 62
5
100
AcDbSpline
 70
8
 71
3
 72
8
 73
4
 74
0
 40
0
 40
0
 40
0
 40
0
 40
1
 40
1
 40
1
 40
1
 10
76.183332
 20
11.995234
 30
0.0
 10
76.183332
 20
11.459335
 30
0.0
 10
76.469231
 20
10.964144
 30
0.0
 10
76.933333
 20
10.696195
 30
0.0
  0
SPLINE
  5
1e1
100
AcDbEntity
  8
Layer_1
 62
5
100
AcDbSpline
 70
8
 71
3
 72
8
 73
4
 74
0
 40
0
 40
0
 40
0
 40
0
 40
1
 40
1
 40
1
 40
1
 10
76.933333
 20
10.696195
 30
0.0
 10
77.397435
 20
10.428245
 30
0.0
 10
77.969232
 20
10.428245
 30
0.0
 10
78.433334
 20
10.696195
 30
0.0
  0
SPLINE
  5
1e2
100
AcDbEntity
  8
Layer_1
 62
5
100
AcDbSpline
 70
8
 71
3
 72
8
 73
4
 74
0
 40
0
 40
0
 40
0
 40
0
 40
1
 40
1
 40
1
 40
1
 10
78.433334
 20
10.696195
 30
0.0
 10
78.897436
 20
10.964144
 30
0.0
 10
79.183334
 20
11.459335
 30
0.0
 10
79.183334
 20
11.995234
 30
0.0
  0
LINE
  5
1e3
100
AcDbEntity
  8
Layer_1
 62
5
100
AcDbLine
 10
79.183334
 20
11.995234
 30
0.0
 11
79.183334
 21
11.995234
 31
0.0
  0
LINE
  5
1e4
100
AcDbEntity
  8
Layer_1
 62
5
100
AcDbLine
 10
92.183334
 20
72.495237
 30
0.0
 11
97.183332
 21
72.495237
 31
0.0
  0
LINE
  5
1e5
100
AcDbEntity
  8
Layer_1
 62
5
100
AcDbLine
 10
97.183332
 20
72.495237
 30
0.0
 11
97.183332
 21
69.495237
 31
0.0
  0
LINE
  5
1e6
100
AcDbEntity
  8
Layer_1
 62
5
100
AcDbLine
 10
97.183332
 20
69.495237
 30
0.0
 11
92.183334
 21
69.495237
 31
0.0
  0
LINE
  5
1e7
100
AcDbEntity
  8
Layer_1
 62
5
100
AcDbLine
 10
92.183334
 20
69.495237
 30
0.0
 11
92.183334
 21
72.495237
 31
0.0
  0
LINE
  5
1e8
100
AcDbEntity
  8
Layer_1
 62
5
100
AcDbLine
 10
92.183334
 20
72.495237
 30
0.0
 11
92.183334
 21
72.495237
 31
0.0
  0
LINE
  5
1e9
100
AcDbEntity
  8
Layer_1
 62
5
100
AcDbLine
 10
84.183333
 20
72.495237
 30
0.0
 11
89.183334
 21
72.495237
 31
0.0
  0
LINE
  5
1ea
100
AcDbEntity
  8
Layer_1
 62
5
100
AcDbLine
 10
89.183334
 20
72.495237
 30
0.0
 11
89.183334
 21
69.495237
 31
0.0
  0
LINE
  5
1eb
100
AcDbEntity
  8
Layer_1
 62
5
100
AcDbLine
 10
89.183334
 20
69.495237
 30
0.0
 11
84.183333
 21
69.495237
 31
0.0
  0
LINE
  5
1ec
100
AcDbEntity
  8
Layer_1
 62
5
100
AcDbLine
 10
84.183333
 20
69.495237
 30
0.0
 11
84.183333
 21
72.495237
 31
0.0
  0
LINE
  5
1ed
100
AcDbEntity
  8
Layer_1
 62
5
100
AcDbLine
 10
84.183333
 20
72.495237
 30
0.0
 11
84.183333
 21
72.495237
 31
0.0
  0
LINE
  5
1ee
100
AcDbEntity
  8
Layer_1
 62
5
100
AcDbLine
 10
89.183334
 20
2.495239
 30
0.0
 11
89.183334
 21
5.495233
 31
0.0
  0
LINE
  5
1ef
100
AcDbEntity
  8
Layer_1
 62
5
100
AcDbLine
 10
89.183334
 20
5.495233
 30
0.0
 11
84.183333
 21
5.495233
 31
0.0
  0
LINE
  5
1f0
100
AcDbEntity
  8
Layer_1
 62
5
100
AcDbLine
 10
84.183333
 20
5.495233
 30
0.0
 11
84.183333
 21
2.495239
 31
0.0
  0
LINE
  5
1f1
100
AcDbEntity
  8
Layer_1
 62
5
100
AcDbLine
 10
84.183333
 20
2.495239
 30
0.0
 11
89.183334
 21
2.495239
 31
0.0
  0
LINE
  5
1f2
100
AcDbEntity
  8
Layer_1
 62
5
100
AcDbLine
 10
89.183334
 20
2.495239
 30
0.0
 11
89.183334
 21
2.495239
 31
0.0
  0
LINE
  5
1f3
100
AcDbEntity
  8
Layer_1
 62
5
100
AcDbLine
 10
92.183334
 20
2.495239
 30
0.0
 11
97.183332
 21
2.495239
 31
0.0
  0
LINE
  5
1f4
100
AcDbEntity
  8
Layer_1
 62
5
100
AcDbLine
 10
97.183332
 20
2.495239
 30
0.0
 11
97.183332
 21
5.495233
 31
0.0
  0
LINE
  5
1f5
100
AcDbEntity
  8
Layer_1
 62
5
100
AcDbLine
 10
97.183332
 20
5.495233
 30
0.0
 11
92.183334
 21
5.495233
 31
0.0
  0
LINE
  5
1f6
100
AcDbEntity
  8
Layer_1
 62
5
100
AcDbLine
 10
92.183334
 20
5.495233
 30
0.0
 11
92.183334
 21
2.495239
 31
0.0
  0
LINE
  5
1f7
100
AcDbEntity
  8
Layer_1
 62
5
100
AcDbLine
 10
92.183334
 20
2.495239
 30
0.0
 11
92.183334
 21
2.495239
 31
0.0
  0
SPLINE
  5
1f8
100
AcDbEntity
  8
Layer_1
 62
5
100
AcDbSpline
 70
8
 71
3
 72
8
 73
4
 74
0
 40
0
 40
0
 40
0
 40
0
 40
1
 40
1
 40
1
 40
1
 10
86.183335
 20
55.495234
 30
0.0
 10
86.183871
 20
56.924655
 30
0.0
 10
85.421593
 20
58.245723
 30
0.0
 10
84.183768
 20
58.960589
 30
0.0
  0
SPLINE
  5
1f9
100
AcDbEntity
  8
Layer_1
 62
5
100
AcDbSpline
 70
8
 71
3
 72
8
 73
4
 74
0
 40
0
 40
0
 40
0
 40
0
 40
1
 40
1
 40
1
 40
1
 10
84.183768
 20
58.960589
 30
0.0
 10
82.945943
 20
59.675454
 30
0.0
 10
81.420725
 20
59.675454
 30
0.0
 10
80.182900
 20
58.960589
 30
0.0
  0
SPLINE
  5
1fa
100
AcDbEntity
  8
Layer_1
 62
5
100
AcDbSpline
 70
8
 71
3
 72
8
 73
4
 74
0
 40
0
 40
0
 40
0
 40
0
 40
1
 40
1
 40
1
 40
1
 10
80.182900
 20
58.960589
 30
0.0
 10
78.945075
 20
58.245723
 30
0.0
 10
78.182797
 20
56.924655
 30
0.0
 10
78.183334
 20
55.495234
 30
0.0
  0
SPLINE
  5
1fb
100
AcDbEntity
  8
Layer_1
 62
5
100
AcDbSpline
 70
8
 71
3
 72
8
 73
4
 74
0
 40
0
 40
0
 40
0
 40
0
 40
1
 40
1
 40
1
 40
1
 10
78.183334
 20
55.495234
 30
0.0
 10
78.182797
 20
54.065814
 30
0.0
 10
78.945075
 20
52.744745
 30
0.0
 10
80.182900
 20
52.029880
 30
0.0
  0
SPLINE
  5
1fc
100
AcDbEntity
  8
Layer_1
 62
5
100
AcDbSpline
 70
8
 71
3
 72
8
 73
4
 74
0
 40
0
 40
0
 40
0
 40
0
 40
1
 40
1
 40
1
 40
1
 10
80.182900
 20
52.029880
 30
0.0
 10
81.420725
 20
51.315015
 30
0.0
 10
82.945943
 20
51.315015
 30
0.0
 10
84.183768
 20
52.029880
 30
0.0
  0
SPLINE
  5
1fd
100
AcDbEntity
  8
Layer_1
 62
5
100
AcDbSpline
 70
8
 71
3
 72
8
 73
4
 74
0
 40
0
 40
0
 40
0
 40
0
 40
1
 40
1
 40
1
 40
1
 10
84.183768
 20
52.029880
 30
0.0
 10
85.421593
 20
52.744745
 30
0.0
 10
86.183871
 20
54.065814
 30
0.0
 10
86.183335
 20
55.495234
 30
0.0
  0
LINE
  5
1fe
100
AcDbEntity
  8
Layer_1
 62
5
100
AcDbLine
 10
86.183335
 20
55.495234
 30
0.0
 11
86.183335
 21
55.495234
 31
0.0
  0
SPLINE
  5
1ff
100
AcDbEntity
  8
Layer_1
 62
5
100
AcDbSpline
 70
8
 71
3
 72
8
 73
4
 74
0
 40
0
 40
0
 40
0
 40
0
 40
1
 40
1
 40
1
 40
1
 10
86.183335
 20
19.495250
 30
0.0
 10
86.183871
 20
20.924670
 30
0.0
 10
85.421593
 20
22.245739
 30
0.0
 10
84.183768
 20
22.960604
 30
0.0
  0
SPLINE
  5
200
100
AcDbEntity
  8
Layer_1
 62
5
100
AcDbSpline
 70
8
 71
3
 72
8
 73
4
 74
0
 40
0
 40
0
 40
0
 40
0
 40
1
 40
1
 40
1
 40
1
 10
84.183768
 20
22.960604
 30
0.0
 10
82.945943
 20
23.675469
 30
0.0
 10
81.420725
 20
23.675469
 30
0.0
 10
80.182900
 20
22.960604
 30
0.0
  0
SPLINE
  5
201
100
AcDbEntity
  8
Layer_1
 62
5
100
AcDbSpline
 70
8
 71
3
 72
8
 73
4
 74
0
 40
0
 40
0
 40
0
 40
0
 40
1
 40
1
 40
1
 40
1
 10
80.182900
 20
22.960604
 30
0.0
 10
78.945075
 20
22.245739
 30
0.0
 10
78.182797
 20
20.924670
 30
0.0
 10
78.183334
 20
19.495250
 30
0.0
  0
SPLINE
  5
202
100
AcDbEntity
  8
Layer_1
 62
5
100
AcDbSpline
 70
8
 71
3
 72
8
 73
4
 74
0
 40
0
 40
0
 40
0
 40
0
 40
1
 40
1
 40
1
 40
1
 10
78.183334
 20
19.495250
 30
0.0
 10
78.182797
 20
18.065829
 30
0.0
 10
78.945075
 20
16.744761
 30
0.0
 10
80.182900
 20
16.029895
 30
0.0
  0
SPLINE
  5
203
100
AcDbEntity
  8
Layer_1
 62
5
100
AcDbSpline
 70
8
 71
3
 72
8
 73
4
 74
0
 40
0
 40
0
 40
0
 40
0
 40
1
 40
1
 40
1
 40
1
 10
80.182900
 20
16.029895
 30
0.0
 10
81.420725
 20
15.315030
 30
0.0
 10
82.945943
 20
15.315030
 30
0.0
 10
84.183768
 20
16.029895
 30
0.0
  0
SPLINE
  5
204
100
AcDbEntity
  8
Layer_1
 62
5
100
AcDbSpline
 70
8
 71
3
 72
8
 73
4
 74
0
 40
0
 40
0
 40
0
 40
0
 40
1
 40
1
 40
1
 40
1
 10
84.183768
 20
16.029895
 30
0.0
 10
85.421593
 20
16.744761
 30
0.0
 10
86.183871
 20
18.065829
 30
0.0
 10
86.183335
 20
19.495250
 30
0.0
  0
LINE
  5
205
100
AcDbEntity
  8
Layer_1
 62
5
100
AcDbLine
 10
86.183335
 20
19.495250
 30
0.0
 11
86.183335
 21
19.495250
 31
0.0
  0
LINE
  5
206
100
AcDbEntity
  8
Layer_1
 62
7
100
AcDbLine
 10
117.179751
 20
60.203912
 30
0.0
 11
117.179751
 21
72.203913
 31
0.0
  0
LINE
  5
207
100
AcDbEntity
  8
Layer_1
 62
7
100
AcDbLine
 10
117.179751
 20
2.203912
 30
0.0
 11
117.179751
 21
14.203912
 31
0.0
  0
LINE
  5
208
100
AcDbEntity
  8
Layer_1
 62
7
100
AcDbLine
 10
106.179744
 20
2.203912
 30
0.0
 11
106.179744
 21
72.203913
 31
0.0
  0
LINE
  5
209
100
AcDbEntity
  8
Layer_1
 62
7
100
AcDbLine
 10
106.179744
 20
72.203913
 30
0.0
 11
117.179751
 21
72.203913
 31
0.0
  0
LINE
  5
20a
100
AcDbEntity
  8
Layer_1
 62
7
100
AcDbLine
 10
117.179751
 20
2.203912
 30
0.0
 11
106.179744
 21
2.203912
 31
0.0
  0
SPLINE
  5
20b
100
AcDbEntity
  8
Layer_1
 62
5
100
AcDbSpline
 70
8
 71
3
 72
8
 73
4
 74
0
 40
0
 40
0
 40
0
 40
0
 40
1
 40
1
 40
1
 40
1
 10
111.679748
 20
23.203912
 30
0.0
 10
113.109063
 20
23.204292
 30
0.0
 10
114.429967
 20
22.441979
 30
0.0
 10
115.144735
 20
21.204219
 30
0.0
  0
SPLINE
  5
20c
100
AcDbEntity
  8
Layer_1
 62
5
100
AcDbSpline
 70
8
 71
3
 72
8
 73
4
 74
0
 40
0
 40
0
 40
0
 40
0
 40
1
 40
1
 40
1
 40
1
 10
115.144735
 20
21.204219
 30
0.0
 10
115.859502
 20
19.966459
 30
0.0
 10
115.859502
 20
18.441366
 30
0.0
 10
115.144735
 20
17.203605
 30
0.0
  0
SPLINE
  5
20d
100
AcDbEntity
  8
Layer_1
 62
5
100
AcDbSpline
 70
8
 71
3
 72
8
 73
4
 74
0
 40
0
 40
0
 40
0
 40
0
 40
1
 40
1
 40
1
 40
1
 10
115.144735
 20
17.203605
 30
0.0
 10
114.429967
 20
15.965845
 30
0.0
 10
113.109063
 20
15.203533
 30
0.0
 10
111.679748
 20
15.203912
 30
0.0
  0
SPLINE
  5
20e
100
AcDbEntity
  8
Layer_1
 62
5
100
AcDbSpline
 70
8
 71
3
 72
8
 73
4
 74
0
 40
0
 40
0
 40
0
 40
0
 40
1
 40
1
 40
1
 40
1
 10
111.679748
 20
15.203912
 30
0.0
 10
110.250432
 20
15.203533
 30
0.0
 10
108.929528
 20
15.965845
 30
0.0
 10
108.214760
 20
17.203605
 30
0.0
  0
SPLINE
  5
20f
100
AcDbEntity
  8
Layer_1
 62
5
100
AcDbSpline
 70
8
 71
3
 72
8
 73
4
 74
0
 40
0
 40
0
 40
0
 40
0
 40
1
 40
1
 40
1
 40
1
 10
108.214760
 20
17.203605
 30
0.0
 10
107.499993
 20
18.441366
 30
0.0
 10
107.499993
 20
19.966459
 30
0.0
 10
108.214760
 20
21.204219
 30
0.0
  0
SPLINE
  5
210
100
AcDbEntity
  8
Layer_1
 62
5
100
AcDbSpline
 70
8
 71
3
 72
8
 73
4
 74
0
 40
0
 40
0
 40
0
 40
0
 40
1
 40
1
 40
1
 40
1
 10
108.214760
 20
21.204219
 30
0.0
 10
108.929528
 20
22.441979
 30
0.0
 10
110.250432
 20
23.204292
 30
0.0
 10
111.679748
 20
23.203912
 30
0.0
  0
LINE
  5
211
100
AcDbEntity
  8
Layer_1
 62
5
100
AcDbLine
 10
111.679748
 20
23.203912
 30
0.0
 11
111.679748
 21
23.203912
 31
0.0
  0
LINE
  5
212
100
AcDbEntity
  8
Layer_1
 62
7
100
AcDbLine
 10
117.179751
 20
24.203912
 30
0.0
 11
120.179745
 21
24.203912
 31
0.0
  0
LINE
  5
213
100
AcDbEntity
  8
Layer_1
 62
7
100
AcDbLine
 10
120.179745
 20
24.203912
 30
0.0
 11
120.179745
 21
14.203912
 31
0.0
  0
LINE
  5
214
100
AcDbEntity
  8
Layer_1
 62
7
100
AcDbLine
 10
120.179745
 20
14.203912
 30
0.0
 11
117.179751
 21
14.203912
 31
0.0
  0
LINE
  5
215
100
AcDbEntity
  8
Layer_1
 62
7
100
AcDbLine
 10
120.179745
 20
50.203912
 30
0.0
 11
120.179745
 21
60.203912
 31
0.0
  0
LINE
  5
216
100
AcDbEntity
  8
Layer_1
 62
7
100
AcDbLine
 10
120.179745
 20
60.203912
 30
0.0
 11
117.179751
 21
60.203912
 31
0.0
  0
LINE
  5
217
100
AcDbEntity
  8
Layer_1
 62
7
100
AcDbLine
 10
117.179751
 20
50.203912
 30
0.0
 11
120.179745
 21
50.203912
 31
0.0
  0
SPLINE
  5
218
100
AcDbEntity
  8
Layer_1
 62
5
100
AcDbSpline
 70
8
 71
3
 72
8
 73
4
 74
0
 40
0
 40
0
 40
0
 40
0
 40
1
 40
1
 40
1
 40
1
 10
111.679748
 20
59.203911
 30
0.0
 10
113.109429
 20
59.204841
 30
0.0
 10
114.430908
 20
58.442649
 30
0.0
 10
115.146018
 20
57.204663
 30
0.0
  0
SPLINE
  5
219
100
AcDbEntity
  8
Layer_1
 62
5
100
AcDbSpline
 70
8
 71
3
 72
8
 73
4
 74
0
 40
0
 40
0
 40
0
 40
0
 40
1
 40
1
 40
1
 40
1
 10
115.146018
 20
57.204663
 30
0.0
 10
115.861127
 20
55.966677
 30
0.0
 10
115.861127
 20
54.441147
 30
0.0
 10
115.146018
 20
53.203161
 30
0.0
  0
SPLINE
  5
21a
100
AcDbEntity
  8
Layer_1
 62
5
100
AcDbSpline
 70
8
 71
3
 72
8
 73
4
 74
0
 40
0
 40
0
 40
0
 40
0
 40
1
 40
1
 40
1
 40
1
 10
115.146018
 20
53.203161
 30
0.0
 10
114.430908
 20
51.965175
 30
0.0
 10
113.109429
 20
51.202983
 30
0.0
 10
111.679748
 20
51.203913
 30
0.0
  0
SPLINE
  5
21b
100
AcDbEntity
  8
Layer_1
 62
5
100
AcDbSpline
 70
8
 71
3
 72
8
 73
4
 74
0
 40
0
 40
0
 40
0
 40
0
 40
1
 40
1
 40
1
 40
1
 10
111.679748
 20
51.203913
 30
0.0
 10
110.250066
 20
51.202983
 30
0.0
 10
108.928587
 20
51.965175
 30
0.0
 10
108.213477
 20
53.203161
 30
0.0
  0
SPLINE
  5
21c
100
AcDbEntity
  8
Layer_1
 62
5
100
AcDbSpline
 70
8
 71
3
 72
8
 73
4
 74
0
 40
0
 40
0
 40
0
 40
0
 40
1
 40
1
 40
1
 40
1
 10
108.213477
 20
53.203161
 30
0.0
 10
107.498368
 20
54.441147
 30
0.0
 10
107.498368
 20
55.966677
 30
0.0
 10
108.213477
 20
57.204663
 30
0.0
  0
SPLINE
  5
21d
100
AcDbEntity
  8
Layer_1
 62
5
100
AcDbSpline
 70
8
 71
3
 72
8
 73
4
 74
0
 40
0
 40
0
 40
0
 40
0
 40
1
 40
1
 40
1
 40
1
 10
108.213477
 20
57.204663
 30
0.0
 10
108.928587
 20
58.442649
 30
0.0
 10
110.250066
 20
59.204841
 30
0.0
 10
111.679748
 20
59.203911
 30
0.0
  0
LINE
  5
21e
100
AcDbEntity
  8
Layer_1
 62
5
100
AcDbLine
 10
111.679748
 20
59.203911
 30
0.0
 11
111.679748
 21
59.203911
 31
0.0
  0
LINE
  5
21f
100
AcDbEntity
  8
Layer_1
 62
5
100
AcDbLine
 10
117.179751
 20
2.203912
 30
0.0
 11
117.179751
 21
5.203912
 31
0.0
  0
LINE
  5
220
100
AcDbEntity
  8
Layer_1
 62
5
100
AcDbLine
 10
117.179751
 20
5.203912
 30
0.0
 11
113.179730
 21
5.203912
 31
0.0
  0
LINE
  5
221
100
AcDbEntity
  8
Layer_1
 62
5
100
AcDbLine
 10
113.179730
 20
5.203912
 30
0.0
 11
113.179730
 21
2.203912
 31
0.0
  0
LINE
  5
222
100
AcDbEntity
  8
Layer_1
 62
5
100
AcDbLine
 10
113.179730
 20
2.203912
 30
0.0
 11
117.179751
 21
2.203912
 31
0.0
  0
LINE
  5
223
100
AcDbEntity
  8
Layer_1
 62
5
100
AcDbLine
 10
106.179744
 20
5.203912
 30
0.0
 11
106.179744
 21
2.203912
 31
0.0
  0
LINE
  5
224
100
AcDbEntity
  8
Layer_1
 62
5
100
AcDbLine
 10
106.179744
 20
2.203912
 30
0.0
 11
110.179736
 21
2.203912
 31
0.0
  0
LINE
  5
225
100
AcDbEntity
  8
Layer_1
 62
5
100
AcDbLine
 10
110.179736
 20
2.203912
 30
0.0
 11
110.179736
 21
5.203912
 31
0.0
  0
LINE
  5
226
100
AcDbEntity
  8
Layer_1
 62
5
100
AcDbLine
 10
110.179736
 20
5.203912
 30
0.0
 11
106.179744
 21
5.203912
 31
0.0
  0
LINE
  5
227
100
AcDbEntity
  8
Layer_1
 62
5
100
AcDbLine
 10
106.179744
 20
5.203912
 30
0.0
 11
106.179744
 21
5.203912
 31
0.0
  0
LINE
  5
228
100
AcDbEntity
  8
Layer_1
 62
7
100
AcDbLine
 10
117.179751
 20
72.203913
 30
0.0
 11
106.179744
 21
72.203913
 31
0.0
  0
LINE
  5
229
100
AcDbEntity
  8
Layer_1
 62
5
100
AcDbLine
 10
113.179730
 20
72.203913
 30
0.0
 11
117.179751
 21
72.203913
 31
0.0
  0
LINE
  5
22a
100
AcDbEntity
  8
Layer_1
 62
5
100
AcDbLine
 10
106.179744
 20
69.203911
 30
0.0
 11
106.179744
 21
72.203913
 31
0.0
  0
LINE
  5
22b
100
AcDbEntity
  8
Layer_1
 62
5
100
AcDbLine
 10
106.179744
 20
72.203913
 30
0.0
 11
110.179736
 21
72.203913
 31
0.0
  0
LINE
  5
22c
100
AcDbEntity
  8
Layer_1
 62
5
100
AcDbLine
 10
110.179736
 20
72.203913
 30
0.0
 11
110.179736
 21
69.203911
 31
0.0
  0
LINE
  5
22d
100
AcDbEntity
  8
Layer_1
 62
5
100
AcDbLine
 10
110.179736
 20
69.203911
 30
0.0
 11
106.179744
 21
69.203911
 31
0.0
  0
LINE
  5
22e
100
AcDbEntity
  8
Layer_1
 62
5
100
AcDbLine
 10
106.179744
 20
69.203911
 30
0.0
 11
106.179744
 21
69.203911
 31
0.0
  0
LINE
  5
22f
100
AcDbEntity
  8
Layer_1
 62
5
100
AcDbLine
 10
117.179751
 20
72.203913
 30
0.0
 11
117.179751
 21
69.203911
 31
0.0
  0
LINE
  5
230
100
AcDbEntity
  8
Layer_1
 62
5
100
AcDbLine
 10
113.179730
 20
69.203911
 30
0.0
 11
113.179730
 21
72.203913
 31
0.0
  0
LINE
  5
231
100
AcDbEntity
  8
Layer_1
 62
5
100
AcDbLine
 10
117.179751
 20
69.203911
 30
0.0
 11
113.179730
 21
69.203911
 31
0.0
  0
LINE
  5
232
100
AcDbEntity
  8
Layer_1
 62
7
100
AcDbLine
 10
117.179751
 20
24.203912
 30
0.0
 11
117.179751
 21
50.203912
 31
0.0
  0
LINE
  5
233
100
AcDbEntity
  8
Layer_1
 62
7
100
AcDbLine
 10
131.968675
 20
60.168295
 30
0.0
 11
131.968675
 21
72.168297
 31
0.0
  0
LINE
  5
234
100
AcDbEntity
  8
Layer_1
 62
7
100
AcDbLine
 10
131.968675
 20
2.168296
 30
0.0
 11
131.968675
 21
14.168296
 31
0.0
  0
LINE
  5
235
100
AcDbEntity
  8
Layer_1
 62
7
100
AcDbLine
 10
120.968669
 20
2.168296
 30
0.0
 11
120.968669
 21
72.168297
 31
0.0
  0
LINE
  5
236
100
AcDbEntity
  8
Layer_1
 62
7
100
AcDbLine
 10
120.968669
 20
72.168297
 30
0.0
 11
131.968675
 21
72.168297
 31
0.0
  0
LINE
  5
237
100
AcDbEntity
  8
Layer_1
 62
7
100
AcDbLine
 10
131.968675
 20
2.168296
 30
0.0
 11
120.968669
 21
2.168296
 31
0.0
  0
SPLINE
  5
238
100
AcDbEntity
  8
Layer_1
 62
5
100
AcDbSpline
 70
8
 71
3
 72
8
 73
4
 74
0
 40
0
 40
0
 40
0
 40
0
 40
1
 40
1
 40
1
 40
1
 10
126.468672
 20
23.168296
 30
0.0
 10
127.897987
 20
23.168675
 30
0.0
 10
129.218892
 20
22.406363
 30
0.0
 10
129.933659
 20
21.168603
 30
0.0
  0
SPLINE
  5
239
100
AcDbEntity
  8
Layer_1
 62
5
100
AcDbSpline
 70
8
 71
3
 72
8
 73
4
 74
0
 40
0
 40
0
 40
0
 40
0
 40
1
 40
1
 40
1
 40
1
 10
129.933659
 20
21.168603
 30
0.0
 10
130.648426
 20
19.930842
 30
0.0
 10
130.648426
 20
18.405749
 30
0.0
 10
129.933659
 20
17.167989
 30
0.0
  0
SPLINE
  5
23a
100
AcDbEntity
  8
Layer_1
 62
5
100
AcDbSpline
 70
8
 71
3
 72
8
 73
4
 74
0
 40
0
 40
0
 40
0
 40
0
 40
1
 40
1
 40
1
 40
1
 10
129.933659
 20
17.167989
 30
0.0
 10
129.218892
 20
15.930229
 30
0.0
 10
127.897987
 20
15.167916
 30
0.0
 10
126.468672
 20
15.168296
 30
0.0
  0
SPLINE
  5
23b
100
AcDbEntity
  8
Layer_1
 62
5
100
AcDbSpline
 70
8
 71
3
 72
8
 73
4
 74
0
 40
0
 40
0
 40
0
 40
0
 40
1
 40
1
 40
1
 40
1
 10
126.468672
 20
15.168296
 30
0.0
 10
125.039356
 20
15.167916
 30
0.0
 10
123.718452
 20
15.930229
 30
0.0
 10
123.003685
 20
17.167989
 30
0.0
  0
SPLINE
  5
23c
100
AcDbEntity
  8
Layer_1
 62
5
100
AcDbSpline
 70
8
 71
3
 72
8
 73
4
 74
0
 40
0
 40
0
 40
0
 40
0
 40
1
 40
1
 40
1
 40
1
 10
123.003685
 20
17.167989
 30
0.0
 10
122.288917
 20
18.405749
 30
0.0
 10
122.288917
 20
19.930842
 30
0.0
 10
123.003685
 20
21.168603
 30
0.0
  0
SPLINE
  5
23d
100
AcDbEntity
  8
Layer_1
 62
5
100
AcDbSpline
 70
8
 71
3
 72
8
 73
4
 74
0
 40
0
 40
0
 40
0
 40
0
 40
1
 40
1
 40
1
 40
1
 10
123.003685
 20
21.168603
 30
0.0
 10
123.718452
 20
22.406363
 30
0.0
 10
125.039356
 20
23.168675
 30
0.0
 10
126.468672
 20
23.168296
 30
0.0
  0
LINE
  5
23e
100
AcDbEntity
  8
Layer_1
 62
5
100
AcDbLine
 10
126.468672
 20
23.168296
 30
0.0
 11
126.468672
 21
23.168296
 31
0.0
  0
LINE
  5
23f
100
AcDbEntity
  8
Layer_1
 62
7
100
AcDbLine
 10
131.968675
 20
24.168296
 30
0.0
 11
134.968669
 21
24.168296
 31
0.0
  0
LINE
  5
240
100
AcDbEntity
  8
Layer_1
 62
7
100
AcDbLine
 10
134.968669
 20
24.168296
 30
0.0
 11
134.968669
 21
14.168296
 31
0.0
  0
LINE
  5
241
100
AcDbEntity
  8
Layer_1
 62
7
100
AcDbLine
 10
134.968669
 20
14.168296
 30
0.0
 11
131.968675
 21
14.168296
 31
0.0
  0
LINE
  5
242
100
AcDbEntity
  8
Layer_1
 62
7
100
AcDbLine
 10
134.968669
 20
50.168296
 30
0.0
 11
134.968669
 21
60.168295
 31
0.0
  0
LINE
  5
243
100
AcDbEntity
  8
Layer_1
 62
7
100
AcDbLine
 10
134.968669
 20
60.168295
 30
0.0
 11
131.968675
 21
60.168295
 31
0.0
  0
LINE
  5
244
100
AcDbEntity
  8
Layer_1
 62
7
100
AcDbLine
 10
131.968675
 20
50.168296
 30
0.0
 11
134.968669
 21
50.168296
 31
0.0
  0
SPLINE
  5
245
100
AcDbEntity
  8
Layer_1
 62
5
100
AcDbSpline
 70
8
 71
3
 72
8
 73
4
 74
0
 40
0
 40
0
 40
0
 40
0
 40
1
 40
1
 40
1
 40
1
 10
126.468672
 20
59.168295
 30
0.0
 10
127.898354
 20
59.169225
 30
0.0
 10
129.219832
 20
58.407033
 30
0.0
 10
129.934942
 20
57.169047
 30
0.0
  0
SPLINE
  5
246
100
AcDbEntity
  8
Layer_1
 62
5
100
AcDbSpline
 70
8
 71
3
 72
8
 73
4
 74
0
 40
0
 40
0
 40
0
 40
0
 40
1
 40
1
 40
1
 40
1
 10
129.934942
 20
57.169047
 30
0.0
 10
130.650052
 20
55.931061
 30
0.0
 10
130.650052
 20
54.405530
 30
0.0
 10
129.934942
 20
53.167544
 30
0.0
  0
SPLINE
  5
247
100
AcDbEntity
  8
Layer_1
 62
5
100
AcDbSpline
 70
8
 71
3
 72
8
 73
4
 74
0
 40
0
 40
0
 40
0
 40
0
 40
1
 40
1
 40
1
 40
1
 10
129.934942
 20
53.167544
 30
0.0
 10
129.219832
 20
51.929558
 30
0.0
 10
127.898354
 20
51.167366
 30
0.0
 10
126.468672
 20
51.168297
 30
0.0
  0
SPLINE
  5
248
100
AcDbEntity
  8
Layer_1
 62
5
100
AcDbSpline
 70
8
 71
3
 72
8
 73
4
 74
0
 40
0
 40
0
 40
0
 40
0
 40
1
 40
1
 40
1
 40
1
 10
126.468672
 20
51.168297
 30
0.0
 10
125.038990
 20
51.167366
 30
0.0
 10
123.717511
 20
51.929558
 30
0.0
 10
123.002402
 20
53.167544
 30
0.0
  0
SPLINE
  5
249
100
AcDbEntity
  8
Layer_1
 62
5
100
AcDbSpline
 70
8
 71
3
 72
8
 73
4
 74
0
 40
0
 40
0
 40
0
 40
0
 40
1
 40
1
 40
1
 40
1
 10
123.002402
 20
53.167544
 30
0.0
 10
122.287292
 20
54.405530
 30
0.0
 10
122.287292
 20
55.931061
 30
0.0
 10
123.002402
 20
57.169047
 30
0.0
  0
SPLINE
  5
24a
100
AcDbEntity
  8
Layer_1
 62
5
100
AcDbSpline
 70
8
 71
3
 72
8
 73
4
 74
0
 40
0
 40
0
 40
0
 40
0
 40
1
 40
1
 40
1
 40
1
 10
123.002402
 20
57.169047
 30
0.0
 10
123.717511
 20
58.407033
 30
0.0
 10
125.038990
 20
59.169225
 30
0.0
 10
126.468672
 20
59.168295
 30
0.0
  0
LINE
  5
24b
100
AcDbEntity
  8
Layer_1
 62
5
100
AcDbLine
 10
126.468672
 20
59.168295
 30
0.0
 11
126.468672
 21
59.168295
 31
0.0
  0
LINE
  5
24c
100
AcDbEntity
  8
Layer_1
 62
5
100
AcDbLine
 10
131.968675
 20
2.168296
 30
0.0
 11
131.968675
 21
5.168296
 31
0.0
  0
LINE
  5
24d
100
AcDbEntity
  8
Layer_1
 62
5
100
AcDbLine
 10
131.968675
 20
5.168296
 30
0.0
 11
127.968655
 21
5.168296
 31
0.0
  0
LINE
  5
24e
100
AcDbEntity
  8
Layer_1
 62
5
100
AcDbLine
 10
127.968655
 20
5.168296
 30
0.0
 11
127.968655
 21
2.168296
 31
0.0
  0
LINE
  5
24f
100
AcDbEntity
  8
Layer_1
 62
5
100
AcDbLine
 10
127.968655
 20
2.168296
 30
0.0
 11
131.968675
 21
2.168296
 31
0.0
  0
LINE
  5
250
100
AcDbEntity
  8
Layer_1
 62
5
100
AcDbLine
 10
120.968669
 20
5.168296
 30
0.0
 11
120.968669
 21
2.168296
 31
0.0
  0
LINE
  5
251
100
AcDbEntity
  8
Layer_1
 62
5
100
AcDbLine
 10
120.968669
 20
2.168296
 30
0.0
 11
124.968661
 21
2.168296
 31
0.0
  0
LINE
  5
252
100
AcDbEntity
  8
Layer_1
 62
5
100
AcDbLine
 10
124.968661
 20
2.168296
 30
0.0
 11
124.968661
 21
5.168296
 31
0.0
  0
LINE
  5
253
100
AcDbEntity
  8
Layer_1
 62
5
100
AcDbLine
 10
124.968661
 20
5.168296
 30
0.0
 11
120.968669
 21
5.168296
 31
0.0
  0
LINE
  5
254
100
AcDbEntity
  8
Layer_1
 62
5
100
AcDbLine
 10
120.968669
 20
5.168296
 30
0.0
 11
120.968669
 21
5.168296
 31
0.0
  0
LINE
  5
255
100
AcDbEntity
  8
Layer_1
 62
7
100
AcDbLine
 10
131.968675
 20
72.168297
 30
0.0
 11
120.968669
 21
72.168297
 31
0.0
  0
LINE
  5
256
100
AcDbEntity
  8
Layer_1
 62
5
100
AcDbLine
 10
127.968655
 20
72.168297
 30
0.0
 11
131.968675
 21
72.168297
 31
0.0
  0
LINE
  5
257
100
AcDbEntity
  8
Layer_1
 62
5
100
AcDbLine
 10
120.968669
 20
69.168294
 30
0.0
 11
120.968669
 21
72.168297
 31
0.0
  0
LINE
  5
258
100
AcDbEntity
  8
Layer_1
 62
5
100
AcDbLine
 10
120.968669
 20
72.168297
 30
0.0
 11
124.968661
 21
72.168297
 31
0.0
  0
LINE
  5
259
100
AcDbEntity
  8
Layer_1
 62
5
100
AcDbLine
 10
124.968661
 20
72.168297
 30
0.0
 11
124.968661
 21
69.168294
 31
0.0
  0
LINE
  5
25a
100
AcDbEntity
  8
Layer_1
 62
5
100
AcDbLine
 10
124.968661
 20
69.168294
 30
0.0
 11
120.968669
 21
69.168294
 31
0.0
  0
LINE
  5
25b
100
AcDbEntity
  8
Layer_1
 62
5
100
AcDbLine
 10
120.968669
 20
69.168294
 30
0.0
 11
120.968669
 21
69.168294
 31
0.0
  0
LINE
  5
25c
100
AcDbEntity
  8
Layer_1
 62
5
100
AcDbLine
 10
131.968675
 20
72.168297
 30
0.0
 11
131.968675
 21
69.168294
 31
0.0
  0
LINE
  5
25d
100
AcDbEntity
  8
Layer_1
 62
5
100
AcDbLine
 10
127.968655
 20
69.168294
 30
0.0
 11
127.968655
 21
72.168297
 31
0.0
  0
LINE
  5
25e
100
AcDbEntity
  8
Layer_1
 62
5
100
AcDbLine
 10
131.968675
 20
69.168294
 30
0.0
 11
127.968655
 21
69.168294
 31
0.0
  0
LINE
  5
25f
100
AcDbEntity
  8
Layer_1
 62
7
100
AcDbLine
 10
131.968675
 20
24.168296
 30
0.0
 11
131.968675
 21
50.168296
 31
0.0
  0
LINE
  5
260
100
AcDbEntity
  8
Layer_1
 62
7
100
AcDbLine
 10
146.704118
 20
60.043553
 30
0.0
 11
146.704118
 21
72.043555
 31
0.0
  0
LINE
  5
261
100
AcDbEntity
  8
Layer_1
 62
7
100
AcDbLine
 10
146.704118
 20
2.043554
 30
0.0
 11
146.704118
 21
14.043554
 31
0.0
  0
LINE
  5
262
100
AcDbEntity
  8
Layer_1
 62
7
100
AcDbLine
 10
135.704112
 20
2.043554
 30
0.0
 11
135.704112
 21
72.043555
 31
0.0
  0
LINE
  5
263
100
AcDbEntity
  8
Layer_1
 62
7
100
AcDbLine
 10
135.704112
 20
72.043555
 30
0.0
 11
146.704118
 21
72.043555
 31
0.0
  0
LINE
  5
264
100
AcDbEntity
  8
Layer_1
 62
7
100
AcDbLine
 10
146.704118
 20
2.043554
 30
0.0
 11
135.704112
 21
2.043554
 31
0.0
  0
SPLINE
  5
265
100
AcDbEntity
  8
Layer_1
 62
5
100
AcDbSpline
 70
8
 71
3
 72
8
 73
4
 74
0
 40
0
 40
0
 40
0
 40
0
 40
1
 40
1
 40
1
 40
1
 10
141.204115
 20
23.043554
 30
0.0
 10
142.633430
 20
23.043933
 30
0.0
 10
143.954335
 20
22.281621
 30
0.0
 10
144.669102
 20
21.043860
 30
0.0
  0
SPLINE
  5
266
100
AcDbEntity
  8
Layer_1
 62
5
100
AcDbSpline
 70
8
 71
3
 72
8
 73
4
 74
0
 40
0
 40
0
 40
0
 40
0
 40
1
 40
1
 40
1
 40
1
 10
144.669102
 20
21.043860
 30
0.0
 10
145.383869
 20
19.806100
 30
0.0
 10
145.383869
 20
18.281007
 30
0.0
 10
144.669102
 20
17.043247
 30
0.0
  0
SPLINE
  5
267
100
AcDbEntity
  8
Layer_1
 62
5
100
AcDbSpline
 70
8
 71
3
 72
8
 73
4
 74
0
 40
0
 40
0
 40
0
 40
0
 40
1
 40
1
 40
1
 40
1
 10
144.669102
 20
17.043247
 30
0.0
 10
143.954335
 20
15.805487
 30
0.0
 10
142.633430
 20
15.043174
 30
0.0
 10
141.204115
 20
15.043553
 30
0.0
  0
SPLINE
  5
268
100
AcDbEntity
  8
Layer_1
 62
5
100
AcDbSpline
 70
8
 71
3
 72
8
 73
4
 74
0
 40
0
 40
0
 40
0
 40
0
 40
1
 40
1
 40
1
 40
1
 10
141.204115
 20
15.043553
 30
0.0
 10
139.774799
 20
15.043174
 30
0.0
 10
138.453895
 20
15.805487
 30
0.0
 10
137.739128
 20
17.043247
 30
0.0
  0
SPLINE
  5
269
100
AcDbEntity
  8
Layer_1
 62
5
100
AcDbSpline
 70
8
 71
3
 72
8
 73
4
 74
0
 40
0
 40
0
 40
0
 40
0
 40
1
 40
1
 40
1
 40
1
 10
137.739128
 20
17.043247
 30
0.0
 10
137.024360
 20
18.281007
 30
0.0
 10
137.024360
 20
19.806100
 30
0.0
 10
137.739128
 20
21.043860
 30
0.0
  0
SPLINE
  5
26a
100
AcDbEntity
  8
Layer_1
 62
5
100
AcDbSpline
 70
8
 71
3
 72
8
 73
4
 74
0
 40
0
 40
0
 40
0
 40
0
 40
1
 40
1
 40
1
 40
1
 10
137.739128
 20
21.043860
 30
0.0
 10
138.453895
 20
22.281621
 30
0.0
 10
139.774799
 20
23.043933
 30
0.0
 10
141.204115
 20
23.043554
 30
0.0
  0
LINE
  5
26b
100
AcDbEntity
  8
Layer_1
 62
5
100
AcDbLine
 10
141.204115
 20
23.043554
 30
0.0
 11
141.204115
 21
23.043554
 31
0.0
  0
LINE
  5
26c
100
AcDbEntity
  8
Layer_1
 62
7
100
AcDbLine
 10
146.704118
 20
24.043554
 30
0.0
 11
149.704112
 21
24.043554
 31
0.0
  0
LINE
  5
26d
100
AcDbEntity
  8
Layer_1
 62
7
100
AcDbLine
 10
149.704112
 20
24.043554
 30
0.0
 11
149.704112
 21
14.043554
 31
0.0
  0
LINE
  5
26e
100
AcDbEntity
  8
Layer_1
 62
7
100
AcDbLine
 10
149.704112
 20
14.043554
 30
0.0
 11
146.704118
 21
14.043554
 31
0.0
  0
LINE
  5
26f
100
AcDbEntity
  8
Layer_1
 62
7
100
AcDbLine
 10
149.704112
 20
50.043553
 30
0.0
 11
149.704112
 21
60.043553
 31
0.0
  0
LINE
  5
270
100
AcDbEntity
  8
Layer_1
 62
7
100
AcDbLine
 10
149.704112
 20
60.043553
 30
0.0
 11
146.704118
 21
60.043553
 31
0.0
  0
LINE
  5
271
100
AcDbEntity
  8
Layer_1
 62
7
100
AcDbLine
 10
146.704118
 20
50.043553
 30
0.0
 11
149.704112
 21
50.043553
 31
0.0
  0
SPLINE
  5
272
100
AcDbEntity
  8
Layer_1
 62
5
100
AcDbSpline
 70
8
 71
3
 72
8
 73
4
 74
0
 40
0
 40
0
 40
0
 40
0
 40
1
 40
1
 40
1
 40
1
 10
141.204115
 20
59.043552
 30
0.0
 10
142.633797
 20
59.044483
 30
0.0
 10
143.955276
 20
58.282291
 30
0.0
 10
144.670385
 20
57.044305
 30
0.0
  0
SPLINE
  5
273
100
AcDbEntity
  8
Layer_1
 62
5
100
AcDbSpline
 70
8
 71
3
 72
8
 73
4
 74
0
 40
0
 40
0
 40
0
 40
0
 40
1
 40
1
 40
1
 40
1
 10
144.670385
 20
57.044305
 30
0.0
 10
145.385495
 20
55.806319
 30
0.0
 10
145.385495
 20
54.280788
 30
0.0
 10
144.670385
 20
53.042802
 30
0.0
  0
SPLINE
  5
274
100
AcDbEntity
  8
Layer_1
 62
5
100
AcDbSpline
 70
8
 71
3
 72
8
 73
4
 74
0
 40
0
 40
0
 40
0
 40
0
 40
1
 40
1
 40
1
 40
1
 10
144.670385
 20
53.042802
 30
0.0
 10
143.955276
 20
51.804816
 30
0.0
 10
142.633797
 20
51.042624
 30
0.0
 10
141.204115
 20
51.043554
 30
0.0
  0
SPLINE
  5
275
100
AcDbEntity
  8
Layer_1
 62
5
100
AcDbSpline
 70
8
 71
3
 72
8
 73
4
 74
0
 40
0
 40
0
 40
0
 40
0
 40
1
 40
1
 40
1
 40
1
 10
141.204115
 20
51.043554
 30
0.0
 10
139.774433
 20
51.042624
 30
0.0
 10
138.452954
 20
51.804816
 30
0.0
 10
137.737845
 20
53.042802
 30
0.0
  0
SPLINE
  5
276
100
AcDbEntity
  8
Layer_1
 62
5
100
AcDbSpline
 70
8
 71
3
 72
8
 73
4
 74
0
 40
0
 40
0
 40
0
 40
0
 40
1
 40
1
 40
1
 40
1
 10
137.737845
 20
53.042802
 30
0.0
 10
137.022735
 20
54.280788
 30
0.0
 10
137.022735
 20
55.806319
 30
0.0
 10
137.737845
 20
57.044305
 30
0.0
  0
SPLINE
  5
277
100
AcDbEntity
  8
Layer_1
 62
5
100
AcDbSpline
 70
8
 71
3
 72
8
 73
4
 74
0
 40
0
 40
0
 40
0
 40
0
 40
1
 40
1
 40
1
 40
1
 10
137.737845
 20
57.044305
 30
0.0
 10
138.452954
 20
58.282291
 30
0.0
 10
139.774433
 20
59.044483
 30
0.0
 10
141.204115
 20
59.043552
 30
0.0
  0
LINE
  5
278
100
AcDbEntity
  8
Layer_1
 62
5
100
AcDbLine
 10
141.204115
 20
59.043552
 30
0.0
 11
141.204115
 21
59.043552
 31
0.0
  0
LINE
  5
279
100
AcDbEntity
  8
Layer_1
 62
5
100
AcDbLine
 10
146.704118
 20
2.043554
 30
0.0
 11
146.704118
 21
5.043553
 31
0.0
  0
LINE
  5
27a
100
AcDbEntity
  8
Layer_1
 62
5
100
AcDbLine
 10
146.704118
 20
5.043553
 30
0.0
 11
142.704098
 21
5.043553
 31
0.0
  0
LINE
  5
27b
100
AcDbEntity
  8
Layer_1
 62
5
100
AcDbLine
 10
142.704098
 20
5.043553
 30
0.0
 11
142.704098
 21
2.043554
 31
0.0
  0
LINE
  5
27c
100
AcDbEntity
  8
Layer_1
 62
5
100
AcDbLine
 10
142.704098
 20
2.043554
 30
0.0
 11
146.704118
 21
2.043554
 31
0.0
  0
LINE
  5
27d
100
AcDbEntity
  8
Layer_1
 62
5
100
AcDbLine
 10
135.704112
 20
5.043553
 30
0.0
 11
135.704112
 21
2.043554
 31
0.0
  0
LINE
  5
27e
100
AcDbEntity
  8
Layer_1
 62
5
100
AcDbLine
 10
135.704112
 20
2.043554
 30
0.0
 11
139.704104
 21
2.043554
 31
0.0
  0
LINE
  5
27f
100
AcDbEntity
  8
Layer_1
 62
5
100
AcDbLine
 10
139.704104
 20
2.043554
 30
0.0
 11
139.704104
 21
5.043553
 31
0.0
  0
LINE
  5
280
100
AcDbEntity
  8
Layer_1
 62
5
100
AcDbLine
 10
139.704104
 20
5.043553
 30
0.0
 11
135.704112
 21
5.043553
 31
0.0
  0
LINE
  5
281
100
AcDbEntity
  8
Layer_1
 62
5
100
AcDbLine
 10
135.704112
 20
5.043553
 30
0.0
 11
135.704112
 21
5.043553
 31
0.0
  0
LINE
  5
282
100
AcDbEntity
  8
Layer_1
 62
7
100
AcDbLine
 10
146.704118
 20
72.043555
 30
0.0
 11
135.704112
 21
72.043555
 31
0.0
  0
LINE
  5
283
100
AcDbEntity
  8
Layer_1
 62
5
100
AcDbLine
 10
142.704098
 20
72.043555
 30
0.0
 11
146.704118
 21
72.043555
 31
0.0
  0
LINE
  5
284
100
AcDbEntity
  8
Layer_1
 62
5
100
AcDbLine
 10
135.704112
 20
69.043552
 30
0.0
 11
135.704112
 21
72.043555
 31
0.0
  0
LINE
  5
285
100
AcDbEntity
  8
Layer_1
 62
5
100
AcDbLine
 10
135.704112
 20
72.043555
 30
0.0
 11
139.704104
 21
72.043555
 31
0.0
  0
LINE
  5
286
100
AcDbEntity
  8
Layer_1
 62
5
100
AcDbLine
 10
139.704104
 20
72.043555
 30
0.0
 11
139.704104
 21
69.043552
 31
0.0
  0
LINE
  5
287
100
AcDbEntity
  8
Layer_1
 62
5
100
AcDbLine
 10
139.704104
 20
69.043552
 30
0.0
 11
135.704112
 21
69.043552
 31
0.0
  0
LINE
  5
288
100
AcDbEntity
  8
Layer_1
 62
5
100
AcDbLine
 10
135.704112
 20
69.043552
 30
0.0
 11
135.704112
 21
69.043552
 31
0.0
  0
LINE
  5
289
100
AcDbEntity
  8
Layer_1
 62
5
100
AcDbLine
 10
146.704118
 20
72.043555
 30
0.0
 11
146.704118
 21
69.043552
 31
0.0
  0
LINE
  5
28a
100
AcDbEntity
  8
Layer_1
 62
5
100
AcDbLine
 10
142.704098
 20
69.043552
 30
0.0
 11
142.704098
 21
72.043555
 31
0.0
  0
LINE
  5
28b
100
AcDbEntity
  8
Layer_1
 62
5
100
AcDbLine
 10
146.704118
 20
69.043552
 30
0.0
 11
142.704098
 21
69.043552
 31
0.0
  0
LINE
  5
28c
100
AcDbEntity
  8
Layer_1
 62
7
100
AcDbLine
 10
146.704118
 20
24.043554
 30
0.0
 11
146.704118
 21
50.043553
 31
0.0
  0
LINE
  5
28d
100
AcDbEntity
  8
Layer_1
 62
7
100
AcDbLine
 10
161.493042
 20
60.007937
 30
0.0
 11
161.493042
 21
72.007938
 31
0.0
  0
LINE
  5
28e
100
AcDbEntity
  8
Layer_1
 62
7
100
AcDbLine
 10
161.493042
 20
2.007937
 30
0.0
 11
161.493042
 21
14.007937
 31
0.0
  0
LINE
  5
28f
100
AcDbEntity
  8
Layer_1
 62
7
100
AcDbLine
 10
150.493036
 20
2.007937
 30
0.0
 11
150.493036
 21
72.007938
 31
0.0
  0
LINE
  5
290
100
AcDbEntity
  8
Layer_1
 62
7
100
AcDbLine
 10
150.493036
 20
72.007938
 30
0.0
 11
161.493042
 21
72.007938
 31
0.0
  0
LINE
  5
291
100
AcDbEntity
  8
Layer_1
 62
7
100
AcDbLine
 10
161.493042
 20
2.007937
 30
0.0
 11
150.493036
 21
2.007937
 31
0.0
  0
SPLINE
  5
292
100
AcDbEntity
  8
Layer_1
 62
5
100
AcDbSpline
 70
8
 71
3
 72
8
 73
4
 74
0
 40
0
 40
0
 40
0
 40
0
 40
1
 40
1
 40
1
 40
1
 10
155.993039
 20
23.007937
 30
0.0
 10
157.422355
 20
23.008317
 30
0.0
 10
158.743259
 20
22.246004
 30
0.0
 10
159.458026
 20
21.008244
 30
0.0
  0
SPLINE
  5
293
100
AcDbEntity
  8
Layer_1
 62
5
100
AcDbSpline
 70
8
 71
3
 72
8
 73
4
 74
0
 40
0
 40
0
 40
0
 40
0
 40
1
 40
1
 40
1
 40
1
 10
159.458026
 20
21.008244
 30
0.0
 10
160.172794
 20
19.770484
 30
0.0
 10
160.172794
 20
18.245391
 30
0.0
 10
159.458026
 20
17.007630
 30
0.0
  0
SPLINE
  5
294
100
AcDbEntity
  8
Layer_1
 62
5
100
AcDbSpline
 70
8
 71
3
 72
8
 73
4
 74
0
 40
0
 40
0
 40
0
 40
0
 40
1
 40
1
 40
1
 40
1
 10
159.458026
 20
17.007630
 30
0.0
 10
158.743259
 20
15.769870
 30
0.0
 10
157.422355
 20
15.007557
 30
0.0
 10
155.993039
 20
15.007937
 30
0.0
  0
SPLINE
  5
295
100
AcDbEntity
  8
Layer_1
 62
5
100
AcDbSpline
 70
8
 71
3
 72
8
 73
4
 74
0
 40
0
 40
0
 40
0
 40
0
 40
1
 40
1
 40
1
 40
1
 10
155.993039
 20
15.007937
 30
0.0
 10
154.563724
 20
15.007557
 30
0.0
 10
153.242819
 20
15.769870
 30
0.0
 10
152.528052
 20
17.007630
 30
0.0
  0
SPLINE
  5
296
100
AcDbEntity
  8
Layer_1
 62
5
100
AcDbSpline
 70
8
 71
3
 72
8
 73
4
 74
0
 40
0
 40
0
 40
0
 40
0
 40
1
 40
1
 40
1
 40
1
 10
152.528052
 20
17.007630
 30
0.0
 10
151.813285
 20
18.245391
 30
0.0
 10
151.813285
 20
19.770484
 30
0.0
 10
152.528052
 20
21.008244
 30
0.0
  0
SPLINE
  5
297
100
AcDbEntity
  8
Layer_1
 62
5
100
AcDbSpline
 70
8
 71
3
 72
8
 73
4
 74
0
 40
0
 40
0
 40
0
 40
0
 40
1
 40
1
 40
1
 40
1
 10
152.528052
 20
21.008244
 30
0.0
 10
153.242819
 20
22.246004
 30
0.0
 10
154.563724
 20
23.008317
 30
0.0
 10
155.993039
 20
23.007937
 30
0.0
  0
LINE
  5
298
100
AcDbEntity
  8
Layer_1
 62
5
100
AcDbLine
 10
155.993039
 20
23.007937
 30
0.0
 11
155.993039
 21
23.007937
 31
0.0
  0
LINE
  5
299
100
AcDbEntity
  8
Layer_1
 62
7
100
AcDbLine
 10
161.493042
 20
24.007937
 30
0.0
 11
164.493036
 21
24.007937
 31
0.0
  0
LINE
  5
29a
100
AcDbEntity
  8
Layer_1
 62
7
100
AcDbLine
 10
164.493036
 20
24.007937
 30
0.0
 11
164.493036
 21
14.007937
 31
0.0
  0
LINE
  5
29b
100
AcDbEntity
  8
Layer_1
 62
7
100
AcDbLine
 10
164.493036
 20
14.007937
 30
0.0
 11
161.493042
 21
14.007937
 31
0.0
  0
LINE
  5
29c
100
AcDbEntity
  8
Layer_1
 62
7
100
AcDbLine
 10
164.493036
 20
50.007937
 30
0.0
 11
164.493036
 21
60.007937
 31
0.0
  0
LINE
  5
29d
100
AcDbEntity
  8
Layer_1
 62
7
100
AcDbLine
 10
164.493036
 20
60.007937
 30
0.0
 11
161.493042
 21
60.007937
 31
0.0
  0
LINE
  5
29e
100
AcDbEntity
  8
Layer_1
 62
7
100
AcDbLine
 10
161.493042
 20
50.007937
 30
0.0
 11
164.493036
 21
50.007937
 31
0.0
  0
SPLINE
  5
29f
100
AcDbEntity
  8
Layer_1
 62
5
100
AcDbSpline
 70
8
 71
3
 72
8
 73
4
 74
0
 40
0
 40
0
 40
0
 40
0
 40
1
 40
1
 40
1
 40
1
 10
155.993039
 20
59.007936
 30
0.0
 10
157.422721
 20
59.008866
 30
0.0
 10
158.744200
 20
58.246674
 30
0.0
 10
159.459309
 20
57.008688
 30
0.0
  0
SPLINE
  5
2a0
100
AcDbEntity
  8
Layer_1
 62
5
100
AcDbSpline
 70
8
 71
3
 72
8
 73
4
 74
0
 40
0
 40
0
 40
0
 40
0
 40
1
 40
1
 40
1
 40
1
 10
159.459309
 20
57.008688
 30
0.0
 10
160.174419
 20
55.770702
 30
0.0
 10
160.174419
 20
54.245172
 30
0.0
 10
159.459309
 20
53.007186
 30
0.0
  0
SPLINE
  5
2a1
100
AcDbEntity
  8
Layer_1
 62
5
100
AcDbSpline
 70
8
 71
3
 72
8
 73
4
 74
0
 40
0
 40
0
 40
0
 40
0
 40
1
 40
1
 40
1
 40
1
 10
159.459309
 20
53.007186
 30
0.0
 10
158.744200
 20
51.769200
 30
0.0
 10
157.422721
 20
51.007008
 30
0.0
 10
155.993039
 20
51.007938
 30
0.0
  0
SPLINE
  5
2a2
100
AcDbEntity
  8
Layer_1
 62
5
100
AcDbSpline
 70
8
 71
3
 72
8
 73
4
 74
0
 40
0
 40
0
 40
0
 40
0
 40
1
 40
1
 40
1
 40
1
 10
155.993039
 20
51.007938
 30
0.0
 10
154.563357
 20
51.007008
 30
0.0
 10
153.241878
 20
51.769200
 30
0.0
 10
152.526769
 20
53.007186
 30
0.0
  0
SPLINE
  5
2a3
100
AcDbEntity
  8
Layer_1
 62
5
100
AcDbSpline
 70
8
 71
3
 72
8
 73
4
 74
0
 40
0
 40
0
 40
0
 40
0
 40
1
 40
1
 40
1
 40
1
 10
152.526769
 20
53.007186
 30
0.0
 10
151.811659
 20
54.245172
 30
0.0
 10
151.811659
 20
55.770702
 30
0.0
 10
152.526769
 20
57.008688
 30
0.0
  0
SPLINE
  5
2a4
100
AcDbEntity
  8
Layer_1
 62
5
100
AcDbSpline
 70
8
 71
3
 72
8
 73
4
 74
0
 40
0
 40
0
 40
0
 40
0
 40
1
 40
1
 40
1
 40
1
 10
152.526769
 20
57.008688
 30
0.0
 10
153.241878
 20
58.246674
 30
0.0
 10
154.563357
 20
59.008866
 30
0.0
 10
155.993039
 20
59.007936
 30
0.0
  0
LINE
  5
2a5
100
AcDbEntity
  8
Layer_1
 62
5
100
AcDbLine
 10
155.993039
 20
59.007936
 30
0.0
 11
155.993039
 21
59.007936
 31
0.0
  0
LINE
  5
2a6
100
AcDbEntity
  8
Layer_1
 62
5
100
AcDbLine
 10
161.493042
 20
2.007937
 30
0.0
 11
161.493042
 21
5.007937
 31
0.0
  0
LINE
  5
2a7
100
AcDbEntity
  8
Layer_1
 62
5
100
AcDbLine
 10
161.493042
 20
5.007937
 30
0.0
 11
157.493022
 21
5.007937
 31
0.0
  0
LINE
  5
2a8
100
AcDbEntity
  8
Layer_1
 62
5
100
AcDbLine
 10
157.493022
 20
5.007937
 30
0.0
 11
157.493022
 21
2.007937
 31
0.0
  0
LINE
  5
2a9
100
AcDbEntity
  8
Layer_1
 62
5
100
AcDbLine
 10
157.493022
 20
2.007937
 30
0.0
 11
161.493042
 21
2.007937
 31
0.0
  0
LINE
  5
2aa
100
AcDbEntity
  8
Layer_1
 62
5
100
AcDbLine
 10
150.493036
 20
5.007937
 30
0.0
 11
150.493036
 21
2.007937
 31
0.0
  0
LINE
  5
2ab
100
AcDbEntity
  8
Layer_1
 62
5
100
AcDbLine
 10
150.493036
 20
2.007937
 30
0.0
 11
154.493028
 21
2.007937
 31
0.0
  0
LINE
  5
2ac
100
AcDbEntity
  8
Layer_1
 62
5
100
AcDbLine
 10
154.493028
 20
2.007937
 30
0.0
 11
154.493028
 21
5.007937
 31
0.0
  0
LINE
  5
2ad
100
AcDbEntity
  8
Layer_1
 62
5
100
AcDbLine
 10
154.493028
 20
5.007937
 30
0.0
 11
150.493036
 21
5.007937
 31
0.0
  0
LINE
  5
2ae
100
AcDbEntity
  8
Layer_1
 62
5
100
AcDbLine
 10
150.493036
 20
5.007937
 30
0.0
 11
150.493036
 21
5.007937
 31
0.0
  0
LINE
  5
2af
100
AcDbEntity
  8
Layer_1
 62
7
100
AcDbLine
 10
161.493042
 20
72.007938
 30
0.0
 11
150.493036
 21
72.007938
 31
0.0
  0
LINE
  5
2b0
100
AcDbEntity
  8
Layer_1
 62
5
100
AcDbLine
 10
157.493022
 20
72.007938
 30
0.0
 11
161.493042
 21
72.007938
 31
0.0
  0
LINE
  5
2b1
100
AcDbEntity
  8
Layer_1
 62
5
100
AcDbLine
 10
150.493036
 20
69.007936
 30
0.0
 11
150.493036
 21
72.007938
 31
0.0
  0
LINE
  5
2b2
100
AcDbEntity
  8
Layer_1
 62
5
100
AcDbLine
 10
150.493036
 20
72.007938
 30
0.0
 11
154.493028
 21
72.007938
 31
0.0
  0
LINE
  5
2b3
100
AcDbEntity
  8
Layer_1
 62
5
100
AcDbLine
 10
154.493028
 20
72.007938
 30
0.0
 11
154.493028
 21
69.007936
 31
0.0
  0
LINE
  5
2b4
100
AcDbEntity
  8
Layer_1
 62
5
100
AcDbLine
 10
154.493028
 20
69.007936
 30
0.0
 11
150.493036
 21
69.007936
 31
0.0
  0
LINE
  5
2b5
100
AcDbEntity
  8
Layer_1
 62
5
100
AcDbLine
 10
150.493036
 20
69.007936
 30
0.0
 11
150.493036
 21
69.007936
 31
0.0
  0
LINE
  5
2b6
100
AcDbEntity
  8
Layer_1
 62
5
100
AcDbLine
 10
161.493042
 20
72.007938
 30
0.0
 11
161.493042
 21
69.007936
 31
0.0
  0
LINE
  5
2b7
100
AcDbEntity
  8
Layer_1
 62
5
100
AcDbLine
 10
157.493022
 20
69.007936
 30
0.0
 11
157.493022
 21
72.007938
 31
0.0
  0
LINE
  5
2b8
100
AcDbEntity
  8
Layer_1
 62
5
100
AcDbLine
 10
161.493042
 20
69.007936
 30
0.0
 11
157.493022
 21
69.007936
 31
0.0
  0
LINE
  5
2b9
100
AcDbEntity
  8
Layer_1
 62
7
100
AcDbLine
 10
161.493042
 20
24.007937
 30
0.0
 11
161.493042
 21
50.007937
 31
0.0
  0
ENDSEC
  0
SECTION
  2
OBJECTS
  0
DICTIONARY
  5
C
330
0
100
AcDbDictionary
  3
ACAD_GROUP
350
D
  3
ACAD_MLINESTYLE
350
17
  0
DICTIONARY
  5
D
330
C
100
AcDbDictionary
  0
DICTIONARY
  5
1A
330
C
100
AcDbDictionary
  0
DICTIONARY
  5
17
330
C
100
AcDbDictionary
  3
STANDARD
350
18
  0
DICTIONARY
  5
19
330
C
100
AcDbDictionary
  0
ENDSEC
  0
EOF
