  0
SECTION
  2
HEADER
  9
$ACADVER
  1
AC1014
  9
$HANDSEED
  5
FFFF
  9
$MEASUREMENT
 70
     1
  0
ENDSEC
  0
SECTION
  2
TABLES
  0
TABLE
  2
VPORT
  5
8
330
0
100
AcDbSymbolTable
 70
     4
  0
VPORT
  5
2E
330
8
100
AcDbSymbolTableRecord
100
AcDbViewportTableRecord
  2
*ACTIVE
 70
     0
 10
0.0
 20
0.0
 11
1.0
 21
1.0
 12
210.0
 22
148.5
 13
0.0
 23
0.0
 14
10.0
 24
10.0
 15
10.0
 25
10.0
 16
0.0
 26
0.0
 36
1.0
 17
0.0
 27
0.0
 37
0.0
 40
341.0
 41
1.24
 42
50.0
 43
0.0
 44
0.0
 50
0.0
 51
0.0
 71
     0
 72
   100
 73
     1
 74
     3
 75
     0
 76
     0
 77
     0
 78
     0
  0
ENDTAB
  0
TABLE
  2
LTYPE
  5
5
330
0
100
AcDbSymbolTable
 70
     1
  0
LTYPE
  5
14
330
5
100
AcDbSymbolTableRecord
100
AcDbLinetypeTableRecord
  2
BYBLOCK
 70
     0
  3

 72
    65
 73
     0
 40
0.0
  0
LTYPE
  5
15
330
5
100
AcDbSymbolTableRecord
100
AcDbLinetypeTableRecord
  2
BYLAYER
 70
     0
  3

 72
    65
 73
     0
 40
0.0
  0
LTYPE
  5
16
330
5
100
AcDbSymbolTableRecord
100
AcDbLinetypeTableRecord
  2
CONTINUOUS
 70
     0
  3
Solid line
 72
    65
 73
     0
 40
0.0
  0
ENDTAB
  0
TABLE
  2
LAYER
  5
2
100
AcDbSymbolTable
 70
2
  0
LAYER
  5
50
100
AcDbSymbolTableRecord
100
AcDbLayerTableRecord
  2
0
 70
0
  6
CONTINUOUS
  0
LAYER
  5
51
100
AcDbSymbolTableRecord
100
AcDbLayerTableRecord
  2
Layer_1
 70
0
  6
CONTINUOUS
  0
ENDTAB
  0
TABLE
  2
STYLE
  5
3
330
0
100
AcDbSymbolTable
 70
     1
  0
STYLE
  5
11
330
3
100
AcDbSymbolTableRecord
100
AcDbTextStyleTableRecord
  2
STANDARD
 70
     0
 40
0.0
 41
1.0
 50
0.0
 71
     0
 42
2.5
  3
txt
  4

  0
ENDTAB
  0
TABLE
  2
VIEW
  5
6
330
0
100
AcDbSymbolTable
 70
     0
  0
ENDTAB
  0
TABLE
  2
UCS
  5
7
330
0
100
AcDbSymbolTable
 70
     0
  0
ENDTAB
  0
TABLE
  2
APPID
  5
9
330
0
100
AcDbSymbolTable
 70
     2
  0
APPID
  5
12
330
9
100
AcDbSymbolTableRecord
100
AcDbRegAppTableRecord
  2
ACAD
 70
     0
  0
ENDTAB
  0
TABLE
  2
DIMSTYLE
  5
A
330
0
100
AcDbSymbolTable
 70
     1
  0
DIMSTYLE
105
27
330
A
100
AcDbSymbolTableRecord
100
AcDbDimStyleTableRecord
  2
ISO-25
 70
     0
  3

  4

  5

  6

  7

 40
1.0
 41
2.5
 42
0.625
 43
3.75
 44
1.25
 45
0.0
 46
0.0
 47
0.0
 48
0.0
140
2.5
141
2.5
142
0.0
143
0.03937007874016
144
1.0
145
0.0
146
1.0
147
0.625
 71
     0
 72
     0
 73
     0
 74
     0
 75
     0
 76
     0
 77
     1
 78
     8
170
     0
171
     3
172
     1
173
     0
174
     0
175
     0
176
     0
177
     0
178
     0
270
     2
271
     2
272
     2
273
     2
274
     3
340
11
275
     0
280
     0
281
     0
282
     0
283
     0
284
     8
285
     0
286
     0
287
     3
288
     0
  0
ENDTAB
  0
TABLE
  2
BLOCK_RECORD
  5
1
330
0
100
AcDbSymbolTable
 70
     1
  0
BLOCK_RECORD
  5
1F
330
1
100
AcDbSymbolTableRecord
100
AcDbBlockTableRecord
  2
*MODEL_SPACE
  0
BLOCK_RECORD
  5
1B
330
1
100
AcDbSymbolTableRecord
100
AcDbBlockTableRecord
  2
*PAPER_SPACE
  0
ENDTAB
  0
ENDSEC
  0
SECTION
  2
BLOCKS
  0
BLOCK
  5
20
330
1F
100
AcDbEntity
  8
0
100
AcDbBlockBegin
  2
*MODEL_SPACE
 70
     0
 10
0.0
 20
0.0
 30
0.0
  3
*MODEL_SPACE
  1

  0
ENDBLK
  5
21
330
1F
100
AcDbEntity
  8
0
100
AcDbBlockEnd
  0
BLOCK
  5
1C
330
1B
100
AcDbEntity
 67
     1
  8
0
100
AcDbBlockBegin
  2
*PAPER_SPACE
  1

  0
ENDBLK
  5
1D
330
1B
100
AcDbEntity
 67
     1
  8
0
100
AcDbBlockEnd
  0
ENDSEC
  0
SECTION
  2
ENTITIES
  0
LINE
  5
100
100
AcDbEntity
  8
Layer_1
 62
7
100
AcDbLine
 10
-176.754299
 20
441.315496
 30
0.0
 11
-176.754299
 21
311.315496
 31
0.0
  0
LINE
  5
101
100
AcDbEntity
  8
Layer_1
 62
7
100
AcDbLine
 10
-176.754299
 20
441.315496
 30
0.0
 11
-46.754300
 21
441.315496
 31
0.0
  0
LINE
  5
102
100
AcDbEntity
  8
Layer_1
 62
7
100
AcDbLine
 10
-46.754300
 20
441.315496
 30
0.0
 11
-46.754300
 21
371.315495
 31
0.0
  0
LINE
  5
103
100
AcDbEntity
  8
Layer_1
 62
7
100
AcDbLine
 10
-176.754299
 20
311.315496
 30
0.0
 11
-106.754301
 21
311.315496
 31
0.0
  0
LINE
  5
104
100
AcDbEntity
  8
Layer_1
 62
7
100
AcDbLine
 10
-46.754300
 20
371.315495
 30
0.0
 11
-106.754301
 21
311.315496
 31
0.0
  0
SPLINE
  5
105
100
AcDbEntity
  8
Layer_1
 62
5
100
AcDbSpline
 70
8
 71
3
 72
8
 73
4
 74
0
 40
0
 40
0
 40
0
 40
0
 40
1
 40
1
 40
1
 40
1
 10
-141.754301
 20
324.565497
 30
0.0
 10
-141.128752
 20
324.564994
 30
0.0
 10
-140.550506
 20
324.898432
 30
0.0
 10
-140.237586
 20
325.440090
 30
0.0
  0
SPLINE
  5
106
100
AcDbEntity
  8
Layer_1
 62
5
100
AcDbSpline
 70
8
 71
3
 72
8
 73
4
 74
0
 40
0
 40
0
 40
0
 40
0
 40
1
 40
1
 40
1
 40
1
 10
-140.237586
 20
325.440090
 30
0.0
 10
-139.924666
 20
325.981748
 30
0.0
 10
-139.924666
 20
326.649244
 30
0.0
 10
-140.237586
 20
327.190902
 30
0.0
  0
SPLINE
  5
107
100
AcDbEntity
  8
Layer_1
 62
5
100
AcDbSpline
 70
8
 71
3
 72
8
 73
4
 74
0
 40
0
 40
0
 40
0
 40
0
 40
1
 40
1
 40
1
 40
1
 10
-140.237586
 20
327.190902
 30
0.0
 10
-140.550506
 20
327.732560
 30
0.0
 10
-141.128752
 20
328.065998
 30
0.0
 10
-141.754301
 20
328.065495
 30
0.0
  0
SPLINE
  5
108
100
AcDbEntity
  8
Layer_1
 62
5
100
AcDbSpline
 70
8
 71
3
 72
8
 73
4
 74
0
 40
0
 40
0
 40
0
 40
0
 40
1
 40
1
 40
1
 40
1
 10
-141.754301
 20
328.065495
 30
0.0
 10
-142.379851
 20
328.065998
 30
0.0
 10
-142.958097
 20
327.732560
 30
0.0
 10
-143.271017
 20
327.190902
 30
0.0
  0
SPLINE
  5
109
100
AcDbEntity
  8
Layer_1
 62
5
100
AcDbSpline
 70
8
 71
3
 72
8
 73
4
 74
0
 40
0
 40
0
 40
0
 40
0
 40
1
 40
1
 40
1
 40
1
 10
-143.271017
 20
327.190902
 30
0.0
 10
-143.583937
 20
326.649244
 30
0.0
 10
-143.583937
 20
325.981748
 30
0.0
 10
-143.271017
 20
325.440090
 30
0.0
  0
SPLINE
  5
10a
100
AcDbEntity
  8
Layer_1
 62
5
100
AcDbSpline
 70
8
 71
3
 72
8
 73
4
 74
0
 40
0
 40
0
 40
0
 40
0
 40
1
 40
1
 40
1
 40
1
 10
-143.271017
 20
325.440090
 30
0.0
 10
-142.958097
 20
324.898432
 30
0.0
 10
-142.379851
 20
324.564994
 30
0.0
 10
-141.754301
 20
324.565497
 30
0.0
  0
LINE
  5
10b
100
AcDbEntity
  8
Layer_1
 62
5
100
AcDbLine
 10
-141.754301
 20
324.565497
 30
0.0
 11
-141.754301
 21
324.565497
 31
0.0
  0
SPLINE
  5
10c
100
AcDbEntity
  8
Layer_1
 62
5
100
AcDbSpline
 70
8
 71
3
 72
8
 73
4
 74
0
 40
0
 40
0
 40
0
 40
0
 40
1
 40
1
 40
1
 40
1
 10
-61.754301
 20
404.565498
 30
0.0
 10
-61.128751
 20
404.564995
 30
0.0
 10
-60.550505
 20
404.898433
 30
0.0
 10
-60.237585
 20
405.440091
 30
0.0
  0
SPLINE
  5
10d
100
AcDbEntity
  8
Layer_1
 62
5
100
AcDbSpline
 70
8
 71
3
 72
8
 73
4
 74
0
 40
0
 40
0
 40
0
 40
0
 40
1
 40
1
 40
1
 40
1
 10
-60.237585
 20
405.440091
 30
0.0
 10
-59.924665
 20
405.981749
 30
0.0
 10
-59.924665
 20
406.649245
 30
0.0
 10
-60.237585
 20
407.190903
 30
0.0
  0
SPLINE
  5
10e
100
AcDbEntity
  8
Layer_1
 62
5
100
AcDbSpline
 70
8
 71
3
 72
8
 73
4
 74
0
 40
0
 40
0
 40
0
 40
0
 40
1
 40
1
 40
1
 40
1
 10
-60.237585
 20
407.190903
 30
0.0
 10
-60.550505
 20
407.732561
 30
0.0
 10
-61.128751
 20
408.065999
 30
0.0
 10
-61.754301
 20
408.065496
 30
0.0
  0
SPLINE
  5
10f
100
AcDbEntity
  8
Layer_1
 62
5
100
AcDbSpline
 70
8
 71
3
 72
8
 73
4
 74
0
 40
0
 40
0
 40
0
 40
0
 40
1
 40
1
 40
1
 40
1
 10
-61.754301
 20
408.065496
 30
0.0
 10
-62.379850
 20
408.065999
 30
0.0
 10
-62.958096
 20
407.732561
 30
0.0
 10
-63.271016
 20
407.190903
 30
0.0
  0
SPLINE
  5
110
100
AcDbEntity
  8
Layer_1
 62
5
100
AcDbSpline
 70
8
 71
3
 72
8
 73
4
 74
0
 40
0
 40
0
 40
0
 40
0
 40
1
 40
1
 40
1
 40
1
 10
-63.271016
 20
407.190903
 30
0.0
 10
-63.583936
 20
406.649245
 30
0.0
 10
-63.583936
 20
405.981749
 30
0.0
 10
-63.271016
 20
405.440091
 30
0.0
  0
SPLINE
  5
111
100
AcDbEntity
  8
Layer_1
 62
5
100
AcDbSpline
 70
8
 71
3
 72
8
 73
4
 74
0
 40
0
 40
0
 40
0
 40
0
 40
1
 40
1
 40
1
 40
1
 10
-63.271016
 20
405.440091
 30
0.0
 10
-62.958096
 20
404.898433
 30
0.0
 10
-62.379850
 20
404.564995
 30
0.0
 10
-61.754301
 20
404.565498
 30
0.0
  0
LINE
  5
112
100
AcDbEntity
  8
Layer_1
 62
5
100
AcDbLine
 10
-61.754301
 20
404.565498
 30
0.0
 11
-61.754301
 21
404.565498
 31
0.0
  0
SPLINE
  5
113
100
AcDbEntity
  8
Layer_1
 62
5
100
AcDbSpline
 70
8
 71
3
 72
8
 73
4
 74
0
 40
0
 40
0
 40
0
 40
0
 40
1
 40
1
 40
1
 40
1
 10
-171.754309
 20
434.565497
 30
0.0
 10
-171.128720
 20
434.564935
 30
0.0
 10
-170.550412
 20
434.898360
 30
0.0
 10
-170.237455
 20
435.440043
 30
0.0
  0
SPLINE
  5
114
100
AcDbEntity
  8
Layer_1
 62
5
100
AcDbSpline
 70
8
 71
3
 72
8
 73
4
 74
0
 40
0
 40
0
 40
0
 40
0
 40
1
 40
1
 40
1
 40
1
 10
-170.237455
 20
435.440043
 30
0.0
 10
-169.924499
 20
435.981725
 30
0.0
 10
-169.924499
 20
436.649267
 30
0.0
 10
-170.237455
 20
437.190950
 30
0.0
  0
SPLINE
  5
115
100
AcDbEntity
  8
Layer_1
 62
5
100
AcDbSpline
 70
8
 71
3
 72
8
 73
4
 74
0
 40
0
 40
0
 40
0
 40
0
 40
1
 40
1
 40
1
 40
1
 10
-170.237455
 20
437.190950
 30
0.0
 10
-170.550412
 20
437.732632
 30
0.0
 10
-171.128720
 20
438.066057
 30
0.0
 10
-171.754309
 20
438.065496
 30
0.0
  0
SPLINE
  5
116
100
AcDbEntity
  8
Layer_1
 62
5
100
AcDbSpline
 70
8
 71
3
 72
8
 73
4
 74
0
 40
0
 40
0
 40
0
 40
0
 40
1
 40
1
 40
1
 40
1
 10
-171.754309
 20
438.065496
 30
0.0
 10
-172.720194
 20
438.064628
 30
0.0
 10
-173.502738
 20
437.281381
 30
0.0
 10
-173.502738
 20
436.315496
 30
0.0
  0
SPLINE
  5
117
100
AcDbEntity
  8
Layer_1
 62
5
100
AcDbSpline
 70
8
 71
3
 72
8
 73
4
 74
0
 40
0
 40
0
 40
0
 40
0
 40
1
 40
1
 40
1
 40
1
 10
-173.502738
 20
436.315496
 30
0.0
 10
-173.502738
 20
435.349612
 30
0.0
 10
-172.720194
 20
434.566364
 30
0.0
 10
-171.754309
 20
434.565497
 30
0.0
  0
LINE
  5
118
100
AcDbEntity
  8
Layer_1
 62
5
100
AcDbLine
 10
-171.754309
 20
434.565497
 30
0.0
 11
-171.754309
 21
434.565497
 31
0.0
  0
LINE
  5
119
100
AcDbEntity
  8
Layer_1
 62
5
100
AcDbLine
 10
-166.754291
 20
401.315497
 30
0.0
 11
-166.754291
 21
411.315497
 31
0.0
  0
LINE
  5
11a
100
AcDbEntity
  8
Layer_1
 62
5
100
AcDbLine
 10
-166.754291
 20
411.315497
 30
0.0
 11
-163.754297
 21
411.315497
 31
0.0
  0
LINE
  5
11b
100
AcDbEntity
  8
Layer_1
 62
5
100
AcDbLine
 10
-163.754297
 20
411.315497
 30
0.0
 11
-163.754297
 21
401.315497
 31
0.0
  0
LINE
  5
11c
100
AcDbEntity
  8
Layer_1
 62
5
100
AcDbLine
 10
-163.754297
 20
401.315497
 30
0.0
 11
-166.754291
 21
401.315497
 31
0.0
  0
LINE
  5
11d
100
AcDbEntity
  8
Layer_1
 62
5
100
AcDbLine
 10
-166.754291
 20
401.315497
 30
0.0
 11
-166.754291
 21
401.315497
 31
0.0
  0
LINE
  5
11e
100
AcDbEntity
  8
Layer_1
 62
5
100
AcDbLine
 10
-166.754291
 20
358.315496
 30
0.0
 11
-166.754291
 21
348.315496
 31
0.0
  0
LINE
  5
11f
100
AcDbEntity
  8
Layer_1
 62
5
100
AcDbLine
 10
-166.754291
 20
348.315496
 30
0.0
 11
-163.754297
 21
348.315496
 31
0.0
  0
LINE
  5
120
100
AcDbEntity
  8
Layer_1
 62
5
100
AcDbLine
 10
-163.754297
 20
348.315496
 30
0.0
 11
-163.754297
 21
358.315496
 31
0.0
  0
LINE
  5
121
100
AcDbEntity
  8
Layer_1
 62
5
100
AcDbLine
 10
-163.754297
 20
358.315496
 30
0.0
 11
-166.754291
 21
358.315496
 31
0.0
  0
LINE
  5
122
100
AcDbEntity
  8
Layer_1
 62
5
100
AcDbLine
 10
-113.754301
 20
348.315496
 30
0.0
 11
-113.754301
 21
358.315496
 31
0.0
  0
LINE
  5
123
100
AcDbEntity
  8
Layer_1
 62
5
100
AcDbLine
 10
-113.754301
 20
358.315496
 30
0.0
 11
-116.754301
 21
358.315496
 31
0.0
  0
LINE
  5
124
100
AcDbEntity
  8
Layer_1
 62
5
100
AcDbLine
 10
-116.754301
 20
358.315496
 30
0.0
 11
-116.754301
 21
348.315496
 31
0.0
  0
LINE
  5
125
100
AcDbEntity
  8
Layer_1
 62
5
100
AcDbLine
 10
-116.754301
 20
348.315496
 30
0.0
 11
-113.754301
 21
348.315496
 31
0.0
  0
LINE
  5
126
100
AcDbEntity
  8
Layer_1
 62
5
100
AcDbLine
 10
-113.754301
 20
348.315496
 30
0.0
 11
-113.754301
 21
348.315496
 31
0.0
  0
LINE
  5
127
100
AcDbEntity
  8
Layer_1
 62
5
100
AcDbLine
 10
-113.754301
 20
401.315497
 30
0.0
 11
-113.754301
 21
411.315497
 31
0.0
  0
LINE
  5
128
100
AcDbEntity
  8
Layer_1
 62
5
100
AcDbLine
 10
-113.754301
 20
411.315497
 30
0.0
 11
-116.754301
 21
411.315497
 31
0.0
  0
LINE
  5
129
100
AcDbEntity
  8
Layer_1
 62
5
100
AcDbLine
 10
-116.754301
 20
411.315497
 30
0.0
 11
-116.754301
 21
401.315497
 31
0.0
  0
LINE
  5
12a
100
AcDbEntity
  8
Layer_1
 62
5
100
AcDbLine
 10
-116.754301
 20
401.315497
 30
0.0
 11
-113.754301
 21
401.315497
 31
0.0
  0
LINE
  5
12b
100
AcDbEntity
  8
Layer_1
 62
5
100
AcDbLine
 10
-113.754301
 20
401.315497
 30
0.0
 11
-113.754301
 21
401.315497
 31
0.0
  0
LINE
  5
12c
100
AcDbEntity
  8
Layer_1
 62
5
100
AcDbLine
 10
-146.754300
 20
428.315497
 30
0.0
 11
-146.754300
 21
431.315496
 31
0.0
  0
LINE
  5
12d
100
AcDbEntity
  8
Layer_1
 62
5
100
AcDbLine
 10
-146.754300
 20
431.315496
 30
0.0
 11
-136.754300
 21
431.315496
 31
0.0
  0
LINE
  5
12e
100
AcDbEntity
  8
Layer_1
 62
5
100
AcDbLine
 10
-136.754300
 20
431.315496
 30
0.0
 11
-136.754300
 21
428.315497
 31
0.0
  0
LINE
  5
12f
100
AcDbEntity
  8
Layer_1
 62
5
100
AcDbLine
 10
-136.754300
 20
428.315497
 30
0.0
 11
-146.754300
 21
428.315497
 31
0.0
  0
LINE
  5
130
100
AcDbEntity
  8
Layer_1
 62
5
100
AcDbLine
 10
-146.754300
 20
428.315497
 30
0.0
 11
-146.754300
 21
428.315497
 31
0.0
  0
LINE
  5
131
100
AcDbEntity
  8
Layer_1
 62
5
100
AcDbLine
 10
-93.754302
 20
428.315497
 30
0.0
 11
-93.754302
 21
431.315496
 31
0.0
  0
LINE
  5
132
100
AcDbEntity
  8
Layer_1
 62
5
100
AcDbLine
 10
-93.754302
 20
431.315496
 30
0.0
 11
-83.754302
 21
431.315496
 31
0.0
  0
LINE
  5
133
100
AcDbEntity
  8
Layer_1
 62
5
100
AcDbLine
 10
-83.754302
 20
431.315496
 30
0.0
 11
-83.754302
 21
428.315497
 31
0.0
  0
LINE
  5
134
100
AcDbEntity
  8
Layer_1
 62
5
100
AcDbLine
 10
-83.754302
 20
428.315497
 30
0.0
 11
-93.754302
 21
428.315497
 31
0.0
  0
LINE
  5
135
100
AcDbEntity
  8
Layer_1
 62
5
100
AcDbLine
 10
-93.754302
 20
428.315497
 30
0.0
 11
-93.754302
 21
428.315497
 31
0.0
  0
LINE
  5
136
100
AcDbEntity
  8
Layer_1
 62
5
100
AcDbLine
 10
-146.754300
 20
378.315495
 30
0.0
 11
-146.754300
 21
381.315498
 31
0.0
  0
LINE
  5
137
100
AcDbEntity
  8
Layer_1
 62
5
100
AcDbLine
 10
-146.754300
 20
381.315498
 30
0.0
 11
-136.754300
 21
381.315498
 31
0.0
  0
LINE
  5
138
100
AcDbEntity
  8
Layer_1
 62
5
100
AcDbLine
 10
-136.754300
 20
381.315498
 30
0.0
 11
-136.754300
 21
378.315495
 31
0.0
  0
LINE
  5
139
100
AcDbEntity
  8
Layer_1
 62
5
100
AcDbLine
 10
-136.754300
 20
378.315495
 30
0.0
 11
-146.754300
 21
378.315495
 31
0.0
  0
LINE
  5
13a
100
AcDbEntity
  8
Layer_1
 62
5
100
AcDbLine
 10
-146.754300
 20
378.315495
 30
0.0
 11
-146.754300
 21
378.315495
 31
0.0
  0
LINE
  5
13b
100
AcDbEntity
  8
Layer_1
 62
5
100
AcDbLine
 10
-93.754302
 20
378.315495
 30
0.0
 11
-93.754302
 21
381.315498
 31
0.0
  0
LINE
  5
13c
100
AcDbEntity
  8
Layer_1
 62
5
100
AcDbLine
 10
-93.754302
 20
381.315498
 30
0.0
 11
-83.754302
 21
381.315498
 31
0.0
  0
LINE
  5
13d
100
AcDbEntity
  8
Layer_1
 62
5
100
AcDbLine
 10
-83.754302
 20
381.315498
 30
0.0
 11
-83.754302
 21
378.315495
 31
0.0
  0
LINE
  5
13e
100
AcDbEntity
  8
Layer_1
 62
5
100
AcDbLine
 10
-83.754302
 20
378.315495
 30
0.0
 11
-93.754302
 21
378.315495
 31
0.0
  0
LINE
  5
13f
100
AcDbEntity
  8
Layer_1
 62
5
100
AcDbLine
 10
-93.754302
 20
378.315495
 30
0.0
 11
-93.754302
 21
378.315495
 31
0.0
  0
SPLINE
  5
140
100
AcDbEntity
  8
Layer_1
 62
5
100
AcDbSpline
 70
8
 71
3
 72
8
 73
4
 74
0
 40
0
 40
0
 40
0
 40
0
 40
1
 40
1
 40
1
 40
1
 10
-171.754309
 20
314.565497
 30
0.0
 10
-171.128720
 20
314.564935
 30
0.0
 10
-170.550412
 20
314.898360
 30
0.0
 10
-170.237455
 20
315.440043
 30
0.0
  0
SPLINE
  5
141
100
AcDbEntity
  8
Layer_1
 62
5
100
AcDbSpline
 70
8
 71
3
 72
8
 73
4
 74
0
 40
0
 40
0
 40
0
 40
0
 40
1
 40
1
 40
1
 40
1
 10
-170.237455
 20
315.440043
 30
0.0
 10
-169.924499
 20
315.981725
 30
0.0
 10
-169.924499
 20
316.649268
 30
0.0
 10
-170.237455
 20
317.190950
 30
0.0
  0
SPLINE
  5
142
100
AcDbEntity
  8
Layer_1
 62
5
100
AcDbSpline
 70
8
 71
3
 72
8
 73
4
 74
0
 40
0
 40
0
 40
0
 40
0
 40
1
 40
1
 40
1
 40
1
 10
-170.237455
 20
317.190950
 30
0.0
 10
-170.550412
 20
317.732632
 30
0.0
 10
-171.128720
 20
318.066057
 30
0.0
 10
-171.754309
 20
318.065496
 30
0.0
  0
SPLINE
  5
143
100
AcDbEntity
  8
Layer_1
 62
5
100
AcDbSpline
 70
8
 71
3
 72
8
 73
4
 74
0
 40
0
 40
0
 40
0
 40
0
 40
1
 40
1
 40
1
 40
1
 10
-171.754309
 20
318.065496
 30
0.0
 10
-172.379898
 20
318.066057
 30
0.0
 10
-172.958206
 20
317.732632
 30
0.0
 10
-173.271163
 20
317.190950
 30
0.0
  0
SPLINE
  5
144
100
AcDbEntity
  8
Layer_1
 62
5
100
AcDbSpline
 70
8
 71
3
 72
8
 73
4
 74
0
 40
0
 40
0
 40
0
 40
0
 40
1
 40
1
 40
1
 40
1
 10
-173.271163
 20
317.190950
 30
0.0
 10
-173.584120
 20
316.649268
 30
0.0
 10
-173.584120
 20
315.981725
 30
0.0
 10
-173.271163
 20
315.440043
 30
0.0
  0
SPLINE
  5
145
100
AcDbEntity
  8
Layer_1
 62
5
100
AcDbSpline
 70
8
 71
3
 72
8
 73
4
 74
0
 40
0
 40
0
 40
0
 40
0
 40
1
 40
1
 40
1
 40
1
 10
-173.271163
 20
315.440043
 30
0.0
 10
-172.958206
 20
314.898360
 30
0.0
 10
-172.379898
 20
314.564935
 30
0.0
 10
-171.754309
 20
314.565497
 30
0.0
  0
LINE
  5
146
100
AcDbEntity
  8
Layer_1
 62
5
100
AcDbLine
 10
-171.754309
 20
314.565497
 30
0.0
 11
-171.754309
 21
314.565497
 31
0.0
  0
SPLINE
  5
147
100
AcDbEntity
  8
Layer_1
 62
5
100
AcDbSpline
 70
8
 71
3
 72
8
 73
4
 74
0
 40
0
 40
0
 40
0
 40
0
 40
1
 40
1
 40
1
 40
1
 10
-51.754301
 20
434.565497
 30
0.0
 10
-51.128712
 20
434.564935
 30
0.0
 10
-50.550404
 20
434.898360
 30
0.0
 10
-50.237447
 20
435.440043
 30
0.0
  0
SPLINE
  5
148
100
AcDbEntity
  8
Layer_1
 62
5
100
AcDbSpline
 70
8
 71
3
 72
8
 73
4
 74
0
 40
0
 40
0
 40
0
 40
0
 40
1
 40
1
 40
1
 40
1
 10
-50.237447
 20
435.440043
 30
0.0
 10
-49.924490
 20
435.981725
 30
0.0
 10
-49.924490
 20
436.649267
 30
0.0
 10
-50.237447
 20
437.190950
 30
0.0
  0
SPLINE
  5
149
100
AcDbEntity
  8
Layer_1
 62
5
100
AcDbSpline
 70
8
 71
3
 72
8
 73
4
 74
0
 40
0
 40
0
 40
0
 40
0
 40
1
 40
1
 40
1
 40
1
 10
-50.237447
 20
437.190950
 30
0.0
 10
-50.550404
 20
437.732632
 30
0.0
 10
-51.128712
 20
438.066057
 30
0.0
 10
-51.754301
 20
438.065496
 30
0.0
  0
SPLINE
  5
14a
100
AcDbEntity
  8
Layer_1
 62
5
100
AcDbSpline
 70
8
 71
3
 72
8
 73
4
 74
0
 40
0
 40
0
 40
0
 40
0
 40
1
 40
1
 40
1
 40
1
 10
-51.754301
 20
438.065496
 30
0.0
 10
-52.720185
 20
438.064628
 30
0.0
 10
-53.502730
 20
437.281381
 30
0.0
 10
-53.502730
 20
436.315496
 30
0.0
  0
SPLINE
  5
14b
100
AcDbEntity
  8
Layer_1
 62
5
100
AcDbSpline
 70
8
 71
3
 72
8
 73
4
 74
0
 40
0
 40
0
 40
0
 40
0
 40
1
 40
1
 40
1
 40
1
 10
-53.502730
 20
436.315496
 30
0.0
 10
-53.502730
 20
435.349612
 30
0.0
 10
-52.720185
 20
434.566364
 30
0.0
 10
-51.754301
 20
434.565497
 30
0.0
  0
LINE
  5
14c
100
AcDbEntity
  8
Layer_1
 62
5
100
AcDbLine
 10
-51.754301
 20
434.565497
 30
0.0
 11
-51.754301
 21
434.565497
 31
0.0
  0
SPLINE
  5
14d
100
AcDbEntity
  8
Layer_1
 62
5
100
AcDbSpline
 70
8
 71
3
 72
8
 73
4
 74
0
 40
0
 40
0
 40
0
 40
0
 40
1
 40
1
 40
1
 40
1
 10
-93.754302
 20
356.565495
 30
0.0
 10
-93.129086
 20
356.565495
 30
0.0
 10
-92.551364
 20
356.899043
 30
0.0
 10
-92.238756
 20
357.440495
 30
0.0
  0
SPLINE
  5
14e
100
AcDbEntity
  8
Layer_1
 62
5
100
AcDbSpline
 70
8
 71
3
 72
8
 73
4
 74
0
 40
0
 40
0
 40
0
 40
0
 40
1
 40
1
 40
1
 40
1
 10
-92.238756
 20
357.440495
 30
0.0
 10
-91.926149
 20
357.981947
 30
0.0
 10
-91.926149
 20
358.649044
 30
0.0
 10
-92.238756
 20
359.190496
 30
0.0
  0
SPLINE
  5
14f
100
AcDbEntity
  8
Layer_1
 62
5
100
AcDbSpline
 70
8
 71
3
 72
8
 73
4
 74
0
 40
0
 40
0
 40
0
 40
0
 40
1
 40
1
 40
1
 40
1
 10
-92.238756
 20
359.190496
 30
0.0
 10
-92.551364
 20
359.731948
 30
0.0
 10
-93.129086
 20
360.065496
 30
0.0
 10
-93.754302
 20
360.065496
 30
0.0
  0
SPLINE
  5
150
100
AcDbEntity
  8
Layer_1
 62
5
100
AcDbSpline
 70
8
 71
3
 72
8
 73
4
 74
0
 40
0
 40
0
 40
0
 40
0
 40
1
 40
1
 40
1
 40
1
 10
-93.754302
 20
360.065496
 30
0.0
 10
-94.379517
 20
360.065496
 30
0.0
 10
-94.957239
 20
359.731948
 30
0.0
 10
-95.269847
 20
359.190496
 30
0.0
  0
SPLINE
  5
151
100
AcDbEntity
  8
Layer_1
 62
5
100
AcDbSpline
 70
8
 71
3
 72
8
 73
4
 74
0
 40
0
 40
0
 40
0
 40
0
 40
1
 40
1
 40
1
 40
1
 10
-95.269847
 20
359.190496
 30
0.0
 10
-95.582454
 20
358.649044
 30
0.0
 10
-95.582454
 20
357.981947
 30
0.0
 10
-95.269847
 20
357.440495
 30
0.0
  0
SPLINE
  5
152
100
AcDbEntity
  8
Layer_1
 62
5
100
AcDbSpline
 70
8
 71
3
 72
8
 73
4
 74
0
 40
0
 40
0
 40
0
 40
0
 40
1
 40
1
 40
1
 40
1
 10
-95.269847
 20
357.440495
 30
0.0
 10
-94.957239
 20
356.899043
 30
0.0
 10
-94.379517
 20
356.565495
 30
0.0
 10
-93.754302
 20
356.565495
 30
0.0
  0
LINE
  5
153
100
AcDbEntity
  8
Layer_1
 62
5
100
AcDbLine
 10
-93.754302
 20
356.565495
 30
0.0
 11
-93.754302
 21
356.565495
 31
0.0
  0
SPLINE
  5
154
100
AcDbEntity
  8
Layer_1
 62
5
100
AcDbSpline
 70
8
 71
3
 72
8
 73
4
 74
0
 40
0
 40
0
 40
0
 40
0
 40
1
 40
1
 40
1
 40
1
 10
-141.754301
 20
356.565495
 30
0.0
 10
-141.129086
 20
356.565495
 30
0.0
 10
-140.551364
 20
356.899043
 30
0.0
 10
-140.238756
 20
357.440495
 30
0.0
  0
SPLINE
  5
155
100
AcDbEntity
  8
Layer_1
 62
5
100
AcDbSpline
 70
8
 71
3
 72
8
 73
4
 74
0
 40
0
 40
0
 40
0
 40
0
 40
1
 40
1
 40
1
 40
1
 10
-140.238756
 20
357.440495
 30
0.0
 10
-139.926149
 20
357.981947
 30
0.0
 10
-139.926149
 20
358.649044
 30
0.0
 10
-140.238756
 20
359.190496
 30
0.0
  0
SPLINE
  5
156
100
AcDbEntity
  8
Layer_1
 62
5
100
AcDbSpline
 70
8
 71
3
 72
8
 73
4
 74
0
 40
0
 40
0
 40
0
 40
0
 40
1
 40
1
 40
1
 40
1
 10
-140.238756
 20
359.190496
 30
0.0
 10
-140.551364
 20
359.731948
 30
0.0
 10
-141.129086
 20
360.065496
 30
0.0
 10
-141.754301
 20
360.065496
 30
0.0
  0
SPLINE
  5
157
100
AcDbEntity
  8
Layer_1
 62
5
100
AcDbSpline
 70
8
 71
3
 72
8
 73
4
 74
0
 40
0
 40
0
 40
0
 40
0
 40
1
 40
1
 40
1
 40
1
 10
-141.754301
 20
360.065496
 30
0.0
 10
-142.379517
 20
360.065496
 30
0.0
 10
-142.957239
 20
359.731948
 30
0.0
 10
-143.269847
 20
359.190496
 30
0.0
  0
SPLINE
  5
158
100
AcDbEntity
  8
Layer_1
 62
5
100
AcDbSpline
 70
8
 71
3
 72
8
 73
4
 74
0
 40
0
 40
0
 40
0
 40
0
 40
1
 40
1
 40
1
 40
1
 10
-143.269847
 20
359.190496
 30
0.0
 10
-143.582454
 20
358.649044
 30
0.0
 10
-143.582454
 20
357.981947
 30
0.0
 10
-143.269847
 20
357.440495
 30
0.0
  0
SPLINE
  5
159
100
AcDbEntity
  8
Layer_1
 62
5
100
AcDbSpline
 70
8
 71
3
 72
8
 73
4
 74
0
 40
0
 40
0
 40
0
 40
0
 40
1
 40
1
 40
1
 40
1
 10
-143.269847
 20
357.440495
 30
0.0
 10
-142.957239
 20
356.899043
 30
0.0
 10
-142.379517
 20
356.565495
 30
0.0
 10
-141.754301
 20
356.565495
 30
0.0
  0
LINE
  5
15a
100
AcDbEntity
  8
Layer_1
 62
5
100
AcDbLine
 10
-141.754301
 20
356.565495
 30
0.0
 11
-141.754301
 21
356.565495
 31
0.0
  0
SPLINE
  5
15b
100
AcDbEntity
  8
Layer_1
 62
5
100
AcDbSpline
 70
8
 71
3
 72
8
 73
4
 74
0
 40
0
 40
0
 40
0
 40
0
 40
1
 40
1
 40
1
 40
1
 10
-93.754302
 20
404.565498
 30
0.0
 10
-93.128752
 20
404.564995
 30
0.0
 10
-92.550506
 20
404.898433
 30
0.0
 10
-92.237586
 20
405.440091
 30
0.0
  0
SPLINE
  5
15c
100
AcDbEntity
  8
Layer_1
 62
5
100
AcDbSpline
 70
8
 71
3
 72
8
 73
4
 74
0
 40
0
 40
0
 40
0
 40
0
 40
1
 40
1
 40
1
 40
1
 10
-92.237586
 20
405.440091
 30
0.0
 10
-91.924666
 20
405.981749
 30
0.0
 10
-91.924666
 20
406.649245
 30
0.0
 10
-92.237586
 20
407.190903
 30
0.0
  0
SPLINE
  5
15d
100
AcDbEntity
  8
Layer_1
 62
5
100
AcDbSpline
 70
8
 71
3
 72
8
 73
4
 74
0
 40
0
 40
0
 40
0
 40
0
 40
1
 40
1
 40
1
 40
1
 10
-92.237586
 20
407.190903
 30
0.0
 10
-92.550506
 20
407.732561
 30
0.0
 10
-93.128752
 20
408.065999
 30
0.0
 10
-93.754302
 20
408.065496
 30
0.0
  0
SPLINE
  5
15e
100
AcDbEntity
  8
Layer_1
 62
5
100
AcDbSpline
 70
8
 71
3
 72
8
 73
4
 74
0
 40
0
 40
0
 40
0
 40
0
 40
1
 40
1
 40
1
 40
1
 10
-93.754302
 20
408.065496
 30
0.0
 10
-94.379851
 20
408.065999
 30
0.0
 10
-94.958097
 20
407.732561
 30
0.0
 10
-95.271017
 20
407.190903
 30
0.0
  0
SPLINE
  5
15f
100
AcDbEntity
  8
Layer_1
 62
5
100
AcDbSpline
 70
8
 71
3
 72
8
 73
4
 74
0
 40
0
 40
0
 40
0
 40
0
 40
1
 40
1
 40
1
 40
1
 10
-95.271017
 20
407.190903
 30
0.0
 10
-95.583937
 20
406.649245
 30
0.0
 10
-95.583937
 20
405.981749
 30
0.0
 10
-95.271017
 20
405.440091
 30
0.0
  0
SPLINE
  5
160
100
AcDbEntity
  8
Layer_1
 62
5
100
AcDbSpline
 70
8
 71
3
 72
8
 73
4
 74
0
 40
0
 40
0
 40
0
 40
0
 40
1
 40
1
 40
1
 40
1
 10
-95.271017
 20
405.440091
 30
0.0
 10
-94.958097
 20
404.898433
 30
0.0
 10
-94.379851
 20
404.564995
 30
0.0
 10
-93.754302
 20
404.565498
 30
0.0
  0
LINE
  5
161
100
AcDbEntity
  8
Layer_1
 62
5
100
AcDbLine
 10
-93.754302
 20
404.565498
 30
0.0
 11
-93.754302
 21
404.565498
 31
0.0
  0
LINE
  5
162
100
AcDbEntity
  8
Layer_1
 62
7
100
AcDbLine
 10
-21.482818
 20
235.473300
 30
0.0
 11
-21.482818
 21
270.473266
 31
0.0
  0
LINE
  5
163
100
AcDbEntity
  8
Layer_1
 62
7
100
AcDbLine
 10
-21.482818
 20
270.473266
 30
0.0
 11
-18.483103
 21
270.473266
 31
0.0
  0
LINE
  5
164
100
AcDbEntity
  8
Layer_1
 62
7
100
AcDbLine
 10
-18.483103
 20
270.473266
 30
0.0
 11
-18.483103
 21
305.473231
 31
0.0
  0
LINE
  5
165
100
AcDbEntity
  8
Layer_1
 62
7
100
AcDbLine
 10
-18.483103
 20
305.473231
 30
0.0
 11
-38.482849
 21
305.473231
 31
0.0
  0
LINE
  5
166
100
AcDbEntity
  8
Layer_1
 62
7
100
AcDbLine
 10
-38.482849
 20
305.473231
 30
0.0
 11
-38.482849
 21
308.473496
 31
0.0
  0
LINE
  5
167
100
AcDbEntity
  8
Layer_1
 62
7
100
AcDbLine
 10
-38.482849
 20
308.473496
 30
0.0
 11
-48.482995
 21
308.473496
 31
0.0
  0
LINE
  5
168
100
AcDbEntity
  8
Layer_1
 62
7
100
AcDbLine
 10
-48.482995
 20
308.473496
 30
0.0
 11
-48.482995
 21
305.473231
 31
0.0
  0
LINE
  5
169
100
AcDbEntity
  8
Layer_1
 62
7
100
AcDbLine
 10
-48.482995
 20
305.473231
 30
0.0
 11
-68.483300
 21
305.473231
 31
0.0
  0
LINE
  5
16a
100
AcDbEntity
  8
Layer_1
 62
7
100
AcDbLine
 10
-68.483300
 20
305.473231
 30
0.0
 11
-68.483300
 21
270.473266
 31
0.0
  0
LINE
  5
16b
100
AcDbEntity
  8
Layer_1
 62
7
100
AcDbLine
 10
-68.483300
 20
270.473266
 30
0.0
 11
-71.483011
 21
270.473266
 31
0.0
  0
LINE
  5
16c
100
AcDbEntity
  8
Layer_1
 62
7
100
AcDbLine
 10
-71.483011
 20
270.473266
 30
0.0
 11
-71.483011
 21
305.304558
 31
0.0
  0
LINE
  5
16d
100
AcDbEntity
  8
Layer_1
 62
7
100
AcDbLine
 10
-71.483011
 20
305.304558
 30
0.0
 11
-88.483034
 21
305.304558
 31
0.0
  0
LINE
  5
16e
100
AcDbEntity
  8
Layer_1
 62
7
100
AcDbLine
 10
-88.483034
 20
305.304558
 30
0.0
 11
-88.483034
 21
308.304823
 31
0.0
  0
LINE
  5
16f
100
AcDbEntity
  8
Layer_1
 62
7
100
AcDbLine
 10
-88.483034
 20
308.304823
 30
0.0
 11
-98.483183
 21
308.304823
 31
0.0
  0
LINE
  5
170
100
AcDbEntity
  8
Layer_1
 62
7
100
AcDbLine
 10
-98.483183
 20
308.304823
 30
0.0
 11
-98.483183
 21
305.304558
 31
0.0
  0
LINE
  5
171
100
AcDbEntity
  8
Layer_1
 62
7
100
AcDbLine
 10
-98.483183
 20
305.304558
 30
0.0
 11
-118.482917
 21
305.304558
 31
0.0
  0
LINE
  5
172
100
AcDbEntity
  8
Layer_1
 62
7
100
AcDbLine
 10
-118.482917
 20
305.304558
 30
0.0
 11
-71.483011
 21
235.473300
 31
0.0
  0
LINE
  5
173
100
AcDbEntity
  8
Layer_1
 62
7
100
AcDbLine
 10
-71.483011
 20
235.473300
 30
0.0
 11
-21.482818
 21
235.473300
 31
0.0
  0
LINE
  5
174
100
AcDbEntity
  8
Layer_1
 62
7
100
AcDbLine
 10
-21.482818
 20
235.473300
 30
0.0
 11
-21.482818
 21
235.473300
 31
0.0
  0
LINE
  5
175
100
AcDbEntity
  8
Layer_1
 62
7
100
AcDbLine
 10
-21.483042
 20
235.473306
 30
0.0
 11
-51.983042
 21
235.473306
 31
0.0
  0
LINE
  5
176
100
AcDbEntity
  8
Layer_1
 62
7
100
AcDbLine
 10
-21.483042
 20
238.456937
 30
0.0
 11
-21.483042
 21
235.473306
 31
0.0
  0
LINE
  5
177
100
AcDbEntity
  8
Layer_1
 62
5
100
AcDbLine
 10
-63.483042
 20
243.473307
 30
0.0
 11
-26.483042
 21
243.473307
 31
0.0
  0
LINE
  5
178
100
AcDbEntity
  8
Layer_1
 62
5
100
AcDbLine
 10
-26.483042
 20
243.473307
 30
0.0
 11
-26.483042
 21
253.247645
 31
0.0
  0
LINE
  5
179
100
AcDbEntity
  8
Layer_1
 62
5
100
AcDbLine
 10
-26.483042
 20
253.247645
 30
0.0
 11
-63.483042
 21
253.247645
 31
0.0
  0
LINE
  5
17a
100
AcDbEntity
  8
Layer_1
 62
5
100
AcDbLine
 10
-63.483042
 20
253.247645
 30
0.0
 11
-63.483042
 21
243.473307
 31
0.0
  0
LINE
  5
17b
100
AcDbEntity
  8
Layer_1
 62
5
100
AcDbLine
 10
-63.483042
 20
243.473307
 30
0.0
 11
-63.483042
 21
243.473307
 31
0.0
  0
LINE
  5
17c
100
AcDbEntity
  8
Layer_1
 62
5
100
AcDbLine
 10
-39.483042
 20
235.473306
 30
0.0
 11
-31.483041
 21
235.473306
 31
0.0
  0
LINE
  5
17d
100
AcDbEntity
  8
Layer_1
 62
5
100
AcDbLine
 10
-31.483041
 20
235.473306
 30
0.0
 11
-31.483041
 21
238.473306
 31
0.0
  0
LINE
  5
17e
100
AcDbEntity
  8
Layer_1
 62
5
100
AcDbLine
 10
-31.483041
 20
238.473306
 30
0.0
 11
-39.483042
 21
238.473306
 31
0.0
  0
LINE
  5
17f
100
AcDbEntity
  8
Layer_1
 62
5
100
AcDbLine
 10
-39.483042
 20
238.473306
 30
0.0
 11
-39.483042
 21
235.473306
 31
0.0
  0
LINE
  5
180
100
AcDbEntity
  8
Layer_1
 62
5
100
AcDbLine
 10
-39.483042
 20
235.473306
 30
0.0
 11
-39.483042
 21
235.473306
 31
0.0
  0
LINE
  5
181
100
AcDbEntity
  8
Layer_1
 62
5
100
AcDbLine
 10
-58.483040
 20
235.473306
 30
0.0
 11
-50.483042
 21
235.473306
 31
0.0
  0
LINE
  5
182
100
AcDbEntity
  8
Layer_1
 62
5
100
AcDbLine
 10
-50.483042
 20
235.473306
 30
0.0
 11
-50.483042
 21
238.473306
 31
0.0
  0
LINE
  5
183
100
AcDbEntity
  8
Layer_1
 62
5
100
AcDbLine
 10
-50.483042
 20
238.473306
 30
0.0
 11
-58.483040
 21
238.473306
 31
0.0
  0
LINE
  5
184
100
AcDbEntity
  8
Layer_1
 62
5
100
AcDbLine
 10
-58.483040
 20
238.473306
 30
0.0
 11
-58.483040
 21
235.473306
 31
0.0
  0
LINE
  5
185
100
AcDbEntity
  8
Layer_1
 62
5
100
AcDbLine
 10
-58.483040
 20
235.473306
 30
0.0
 11
-58.483040
 21
235.473306
 31
0.0
  0
LINE
  5
186
100
AcDbEntity
  8
Layer_1
 62
5
100
AcDbLine
 10
-58.483040
 20
261.247646
 30
0.0
 11
-58.483040
 21
258.247646
 31
0.0
  0
LINE
  5
187
100
AcDbEntity
  8
Layer_1
 62
5
100
AcDbLine
 10
-31.483041
 20
261.247646
 30
0.0
 11
-39.483042
 21
261.247646
 31
0.0
  0
LINE
  5
188
100
AcDbEntity
  8
Layer_1
 62
5
100
AcDbLine
 10
-39.483042
 20
258.247646
 30
0.0
 11
-31.483041
 21
258.247646
 31
0.0
  0
LINE
  5
189
100
AcDbEntity
  8
Layer_1
 62
5
100
AcDbLine
 10
-31.483041
 20
258.247646
 30
0.0
 11
-31.483041
 21
261.247646
 31
0.0
  0
LINE
  5
18a
100
AcDbEntity
  8
Layer_1
 62
5
100
AcDbLine
 10
-50.483042
 20
261.247646
 30
0.0
 11
-58.483040
 21
261.247646
 31
0.0
  0
LINE
  5
18b
100
AcDbEntity
  8
Layer_1
 62
5
100
AcDbLine
 10
-50.483042
 20
258.247646
 30
0.0
 11
-50.483042
 21
261.247646
 31
0.0
  0
LINE
  5
18c
100
AcDbEntity
  8
Layer_1
 62
5
100
AcDbLine
 10
-39.483042
 20
261.247646
 30
0.0
 11
-39.483042
 21
258.247646
 31
0.0
  0
LINE
  5
18d
100
AcDbEntity
  8
Layer_1
 62
5
100
AcDbLine
 10
-58.483040
 20
258.247646
 30
0.0
 11
-50.483042
 21
258.247646
 31
0.0
  0
SPLINE
  5
18e
100
AcDbEntity
  8
Layer_1
 62
5
100
AcDbSpline
 70
8
 71
3
 72
8
 73
4
 74
0
 40
0
 40
0
 40
0
 40
0
 40
1
 40
1
 40
1
 40
1
 10
-48.983042
 20
258.247646
 30
0.0
 10
-48.983042
 20
256.818584
 30
0.0
 10
-48.220646
 20
255.498076
 30
0.0
 10
-46.983042
 20
254.783544
 30
0.0
  0
SPLINE
  5
18f
100
AcDbEntity
  8
Layer_1
 62
5
100
AcDbSpline
 70
8
 71
3
 72
8
 73
4
 74
0
 40
0
 40
0
 40
0
 40
0
 40
1
 40
1
 40
1
 40
1
 10
-46.983042
 20
254.783544
 30
0.0
 10
-45.745438
 20
254.069013
 30
0.0
 10
-44.220646
 20
254.069013
 30
0.0
 10
-42.983042
 20
254.783544
 30
0.0
  0
SPLINE
  5
190
100
AcDbEntity
  8
Layer_1
 62
5
100
AcDbSpline
 70
8
 71
3
 72
8
 73
4
 74
0
 40
0
 40
0
 40
0
 40
0
 40
1
 40
1
 40
1
 40
1
 10
-42.983042
 20
254.783544
 30
0.0
 10
-41.745438
 20
255.498076
 30
0.0
 10
-40.983042
 20
256.818584
 30
0.0
 10
-40.983042
 20
258.247646
 30
0.0
  0
SPLINE
  5
191
100
AcDbEntity
  8
Layer_1
 62
5
100
AcDbSpline
 70
8
 71
3
 72
8
 73
4
 74
0
 40
0
 40
0
 40
0
 40
0
 40
1
 40
1
 40
1
 40
1
 10
-40.983042
 20
258.247646
 30
0.0
 10
-40.983042
 20
259.676709
 30
0.0
 10
-41.745438
 20
260.997217
 30
0.0
 10
-42.983042
 20
261.711748
 30
0.0
  0
SPLINE
  5
192
100
AcDbEntity
  8
Layer_1
 62
5
100
AcDbSpline
 70
8
 71
3
 72
8
 73
4
 74
0
 40
0
 40
0
 40
0
 40
0
 40
1
 40
1
 40
1
 40
1
 10
-42.983042
 20
261.711748
 30
0.0
 10
-44.220646
 20
262.426279
 30
0.0
 10
-45.745438
 20
262.426279
 30
0.0
 10
-46.983042
 20
261.711748
 30
0.0
  0
SPLINE
  5
193
100
AcDbEntity
  8
Layer_1
 62
5
100
AcDbSpline
 70
8
 71
3
 72
8
 73
4
 74
0
 40
0
 40
0
 40
0
 40
0
 40
1
 40
1
 40
1
 40
1
 10
-46.983042
 20
261.711748
 30
0.0
 10
-48.220647
 20
260.997217
 30
0.0
 10
-48.983042
 20
259.676709
 30
0.0
 10
-48.983042
 20
258.247646
 30
0.0
  0
LINE
  5
194
100
AcDbEntity
  8
Layer_1
 62
5
100
AcDbLine
 10
-48.983042
 20
258.247646
 30
0.0
 11
-48.983042
 21
258.247646
 31
0.0
  0
LINE
  5
195
100
AcDbEntity
  8
Layer_1
 62
7
100
AcDbLine
 10
-70.743282
 20
156.162541
 30
0.0
 11
-120.742928
 21
226.162471
 31
0.0
  0
LINE
  5
196
100
AcDbEntity
  8
Layer_1
 62
7
100
AcDbLine
 10
-120.742928
 20
226.162471
 30
0.0
 11
-100.743193
 21
226.162471
 31
0.0
  0
LINE
  5
197
100
AcDbEntity
  8
Layer_1
 62
7
100
AcDbLine
 10
-100.743193
 20
226.162471
 30
0.0
 11
-100.743193
 21
229.162185
 31
0.0
  0
LINE
  5
198
100
AcDbEntity
  8
Layer_1
 62
7
100
AcDbLine
 10
-100.743193
 20
229.162185
 30
0.0
 11
-90.743044
 21
229.162185
 31
0.0
  0
LINE
  5
199
100
AcDbEntity
  8
Layer_1
 62
7
100
AcDbLine
 10
-90.743044
 20
229.162185
 30
0.0
 11
-90.743044
 21
226.162471
 31
0.0
  0
LINE
  5
19a
100
AcDbEntity
  8
Layer_1
 62
7
100
AcDbLine
 10
-90.743044
 20
226.162471
 30
0.0
 11
-70.743282
 21
226.162471
 31
0.0
  0
LINE
  5
19b
100
AcDbEntity
  8
Layer_1
 62
7
100
AcDbLine
 10
-70.743282
 20
226.162471
 30
0.0
 11
-70.743282
 21
191.162507
 31
0.0
  0
LINE
  5
19c
100
AcDbEntity
  8
Layer_1
 62
7
100
AcDbLine
 10
-70.743282
 20
191.162507
 30
0.0
 11
-67.743034
 21
191.162507
 31
0.0
  0
LINE
  5
19d
100
AcDbEntity
  8
Layer_1
 62
7
100
AcDbLine
 10
-67.743034
 20
191.162507
 30
0.0
 11
-67.743034
 21
226.162471
 31
0.0
  0
LINE
  5
19e
100
AcDbEntity
  8
Layer_1
 62
7
100
AcDbLine
 10
-67.743034
 20
226.162471
 30
0.0
 11
-47.743271
 21
226.162471
 31
0.0
  0
LINE
  5
19f
100
AcDbEntity
  8
Layer_1
 62
7
100
AcDbLine
 10
-47.743271
 20
226.162471
 30
0.0
 11
-47.743271
 21
229.162185
 31
0.0
  0
LINE
  5
1a0
100
AcDbEntity
  8
Layer_1
 62
7
100
AcDbLine
 10
-47.743271
 20
229.162185
 30
0.0
 11
-37.743122
 21
229.162185
 31
0.0
  0
LINE
  5
1a1
100
AcDbEntity
  8
Layer_1
 62
7
100
AcDbLine
 10
-37.743122
 20
229.162185
 30
0.0
 11
-37.743122
 21
226.162471
 31
0.0
  0
LINE
  5
1a2
100
AcDbEntity
  8
Layer_1
 62
7
100
AcDbLine
 10
-37.743122
 20
226.162471
 30
0.0
 11
-20.743099
 21
226.162471
 31
0.0
  0
LINE
  5
1a3
100
AcDbEntity
  8
Layer_1
 62
7
100
AcDbLine
 10
-20.743099
 20
226.162471
 30
0.0
 11
-20.743099
 21
191.162507
 31
0.0
  0
LINE
  5
1a4
100
AcDbEntity
  8
Layer_1
 62
7
100
AcDbLine
 10
-20.743099
 20
191.162507
 30
0.0
 11
-17.743388
 21
191.162507
 31
0.0
  0
LINE
  5
1a5
100
AcDbEntity
  8
Layer_1
 62
7
100
AcDbLine
 10
-17.743388
 20
191.162507
 30
0.0
 11
-17.743388
 21
156.162541
 31
0.0
  0
LINE
  5
1a6
100
AcDbEntity
  8
Layer_1
 62
7
100
AcDbLine
 10
-17.743388
 20
156.162541
 30
0.0
 11
-70.743282
 21
156.162541
 31
0.0
  0
LINE
  5
1a7
100
AcDbEntity
  8
Layer_1
 62
7
100
AcDbLine
 10
-70.743282
 20
156.162541
 30
0.0
 11
-70.743282
 21
156.162541
 31
0.0
  0
LINE
  5
1a8
100
AcDbEntity
  8
Layer_1
 62
5
100
AcDbLine
 10
-25.743182
 20
164.162453
 30
0.0
 11
-62.743182
 21
164.162453
 31
0.0
  0
LINE
  5
1a9
100
AcDbEntity
  8
Layer_1
 62
5
100
AcDbLine
 10
-62.743182
 20
164.162453
 30
0.0
 11
-62.743182
 21
174.162456
 31
0.0
  0
LINE
  5
1aa
100
AcDbEntity
  8
Layer_1
 62
5
100
AcDbLine
 10
-62.743182
 20
174.162456
 30
0.0
 11
-25.743182
 21
174.162456
 31
0.0
  0
LINE
  5
1ab
100
AcDbEntity
  8
Layer_1
 62
5
100
AcDbLine
 10
-25.743182
 20
174.162456
 30
0.0
 11
-25.743182
 21
164.162453
 31
0.0
  0
LINE
  5
1ac
100
AcDbEntity
  8
Layer_1
 62
5
100
AcDbLine
 10
-25.743182
 20
164.162453
 30
0.0
 11
-25.743182
 21
164.162453
 31
0.0
  0
LINE
  5
1ad
100
AcDbEntity
  8
Layer_1
 62
5
100
AcDbLine
 10
-38.743182
 20
156.162455
 30
0.0
 11
-30.743182
 21
156.162455
 31
0.0
  0
LINE
  5
1ae
100
AcDbEntity
  8
Layer_1
 62
5
100
AcDbLine
 10
-30.743182
 20
156.162455
 30
0.0
 11
-30.743182
 21
159.162455
 31
0.0
  0
LINE
  5
1af
100
AcDbEntity
  8
Layer_1
 62
5
100
AcDbLine
 10
-30.743182
 20
159.162455
 30
0.0
 11
-38.743182
 21
159.162455
 31
0.0
  0
LINE
  5
1b0
100
AcDbEntity
  8
Layer_1
 62
5
100
AcDbLine
 10
-38.743182
 20
159.162455
 30
0.0
 11
-38.743182
 21
156.162455
 31
0.0
  0
LINE
  5
1b1
100
AcDbEntity
  8
Layer_1
 62
5
100
AcDbLine
 10
-38.743182
 20
156.162455
 30
0.0
 11
-38.743182
 21
156.162455
 31
0.0
  0
LINE
  5
1b2
100
AcDbEntity
  8
Layer_1
 62
5
100
AcDbLine
 10
-57.743181
 20
156.162455
 30
0.0
 11
-49.743182
 21
156.162455
 31
0.0
  0
LINE
  5
1b3
100
AcDbEntity
  8
Layer_1
 62
5
100
AcDbLine
 10
-49.743182
 20
156.162455
 30
0.0
 11
-49.743182
 21
159.162455
 31
0.0
  0
LINE
  5
1b4
100
AcDbEntity
  8
Layer_1
 62
5
100
AcDbLine
 10
-49.743182
 20
159.162455
 30
0.0
 11
-57.743181
 21
159.162455
 31
0.0
  0
LINE
  5
1b5
100
AcDbEntity
  8
Layer_1
 62
5
100
AcDbLine
 10
-57.743181
 20
159.162455
 30
0.0
 11
-57.743181
 21
156.162455
 31
0.0
  0
LINE
  5
1b6
100
AcDbEntity
  8
Layer_1
 62
5
100
AcDbLine
 10
-57.743181
 20
156.162455
 30
0.0
 11
-57.743181
 21
156.162455
 31
0.0
  0
LINE
  5
1b7
100
AcDbEntity
  8
Layer_1
 62
5
100
AcDbLine
 10
-57.743181
 20
179.162455
 30
0.0
 11
-49.743182
 21
179.162455
 31
0.0
  0
LINE
  5
1b8
100
AcDbEntity
  8
Layer_1
 62
5
100
AcDbLine
 10
-38.743182
 20
182.162454
 30
0.0
 11
-38.743182
 21
179.162455
 31
0.0
  0
LINE
  5
1b9
100
AcDbEntity
  8
Layer_1
 62
5
100
AcDbLine
 10
-57.743181
 20
182.162454
 30
0.0
 11
-57.743181
 21
179.162455
 31
0.0
  0
LINE
  5
1ba
100
AcDbEntity
  8
Layer_1
 62
5
100
AcDbLine
 10
-30.743182
 20
179.162455
 30
0.0
 11
-30.743182
 21
182.162454
 31
0.0
  0
LINE
  5
1bb
100
AcDbEntity
  8
Layer_1
 62
5
100
AcDbLine
 10
-38.743182
 20
179.162455
 30
0.0
 11
-30.743182
 21
179.162455
 31
0.0
  0
LINE
  5
1bc
100
AcDbEntity
  8
Layer_1
 62
5
100
AcDbLine
 10
-49.743182
 20
179.162455
 30
0.0
 11
-49.743182
 21
182.162454
 31
0.0
  0
LINE
  5
1bd
100
AcDbEntity
  8
Layer_1
 62
5
100
AcDbLine
 10
-49.743182
 20
182.162454
 30
0.0
 11
-57.743181
 21
182.162454
 31
0.0
  0
LINE
  5
1be
100
AcDbEntity
  8
Layer_1
 62
5
100
AcDbLine
 10
-30.743182
 20
182.162454
 30
0.0
 11
-38.743182
 21
182.162454
 31
0.0
  0
SPLINE
  5
1bf
100
AcDbEntity
  8
Layer_1
 62
5
100
AcDbSpline
 70
8
 71
3
 72
8
 73
4
 74
0
 40
0
 40
0
 40
0
 40
0
 40
1
 40
1
 40
1
 40
1
 10
-40.243182
 20
179.162455
 30
0.0
 10
-40.243182
 20
177.733392
 30
0.0
 10
-41.005578
 20
176.412884
 30
0.0
 10
-42.243182
 20
175.698352
 30
0.0
  0
SPLINE
  5
1c0
100
AcDbEntity
  8
Layer_1
 62
5
100
AcDbSpline
 70
8
 71
3
 72
8
 73
4
 74
0
 40
0
 40
0
 40
0
 40
0
 40
1
 40
1
 40
1
 40
1
 10
-42.243182
 20
175.698352
 30
0.0
 10
-43.480786
 20
174.983821
 30
0.0
 10
-45.005578
 20
174.983821
 30
0.0
 10
-46.243182
 20
175.698352
 30
0.0
  0
SPLINE
  5
1c1
100
AcDbEntity
  8
Layer_1
 62
5
100
AcDbSpline
 70
8
 71
3
 72
8
 73
4
 74
0
 40
0
 40
0
 40
0
 40
0
 40
1
 40
1
 40
1
 40
1
 10
-46.243182
 20
175.698352
 30
0.0
 10
-47.480787
 20
176.412884
 30
0.0
 10
-48.243183
 20
177.733392
 30
0.0
 10
-48.243183
 20
179.162455
 30
0.0
  0
SPLINE
  5
1c2
100
AcDbEntity
  8
Layer_1
 62
5
100
AcDbSpline
 70
8
 71
3
 72
8
 73
4
 74
0
 40
0
 40
0
 40
0
 40
0
 40
1
 40
1
 40
1
 40
1
 10
-48.243183
 20
179.162455
 30
0.0
 10
-48.243183
 20
180.591517
 30
0.0
 10
-47.480787
 20
181.912025
 30
0.0
 10
-46.243182
 20
182.626557
 30
0.0
  0
SPLINE
  5
1c3
100
AcDbEntity
  8
Layer_1
 62
5
100
AcDbSpline
 70
8
 71
3
 72
8
 73
4
 74
0
 40
0
 40
0
 40
0
 40
0
 40
1
 40
1
 40
1
 40
1
 10
-46.243182
 20
182.626557
 30
0.0
 10
-45.005578
 20
183.341088
 30
0.0
 10
-43.480786
 20
183.341088
 30
0.0
 10
-42.243182
 20
182.626557
 30
0.0
  0
SPLINE
  5
1c4
100
AcDbEntity
  8
Layer_1
 62
5
100
AcDbSpline
 70
8
 71
3
 72
8
 73
4
 74
0
 40
0
 40
0
 40
0
 40
0
 40
1
 40
1
 40
1
 40
1
 10
-42.243182
 20
182.626557
 30
0.0
 10
-41.005578
 20
181.912025
 30
0.0
 10
-40.243182
 20
180.591517
 30
0.0
 10
-40.243182
 20
179.162455
 30
0.0
  0
LINE
  5
1c5
100
AcDbEntity
  8
Layer_1
 62
5
100
AcDbLine
 10
-40.243182
 20
179.162455
 30
0.0
 11
-40.243182
 21
179.162455
 31
0.0
  0
LINE
  5
1c6
100
AcDbEntity
  8
Layer_1
 62
5
100
AcDbLine
 10
-36.743183
 20
220.162466
 30
0.0
 11
-51.743181
 21
220.162466
 31
0.0
  0
LINE
  5
1c7
100
AcDbEntity
  8
Layer_1
 62
5
100
AcDbLine
 10
-51.743181
 20
220.162466
 30
0.0
 11
-51.743181
 21
205.162456
 31
0.0
  0
LINE
  5
1c8
100
AcDbEntity
  8
Layer_1
 62
5
100
AcDbLine
 10
-51.743181
 20
205.162456
 30
0.0
 11
-36.743183
 21
205.162456
 31
0.0
  0
LINE
  5
1c9
100
AcDbEntity
  8
Layer_1
 62
5
100
AcDbLine
 10
-36.743183
 20
205.162456
 30
0.0
 11
-36.743183
 21
220.162466
 31
0.0
  0
LINE
  5
1ca
100
AcDbEntity
  8
Layer_1
 62
5
100
AcDbLine
 10
-36.743183
 20
220.162466
 30
0.0
 11
-36.743183
 21
220.162466
 31
0.0
  0
LINE
  5
1cb
100
AcDbEntity
  8
Layer_1
 62
7
100
AcDbLine
 10
-174.690132
 20
225.773805
 30
0.0
 11
-174.690132
 21
190.773839
 31
0.0
  0
LINE
  5
1cc
100
AcDbEntity
  8
Layer_1
 62
7
100
AcDbLine
 10
-174.690132
 20
190.773839
 30
0.0
 11
-177.690408
 21
190.773839
 31
0.0
  0
LINE
  5
1cd
100
AcDbEntity
  8
Layer_1
 62
7
100
AcDbLine
 10
-177.690408
 20
190.773839
 30
0.0
 11
-177.714679
 21
155.773875
 31
0.0
  0
LINE
  5
1ce
100
AcDbEntity
  8
Layer_1
 62
7
100
AcDbLine
 10
-177.714679
 20
155.773875
 30
0.0
 11
-157.714945
 21
155.760094
 31
0.0
  0
LINE
  5
1cf
100
AcDbEntity
  8
Layer_1
 62
7
100
AcDbLine
 10
-157.714945
 20
155.760094
 30
0.0
 11
-157.714945
 21
152.759829
 31
0.0
  0
LINE
  5
1d0
100
AcDbEntity
  8
Layer_1
 62
7
100
AcDbLine
 10
-157.714945
 20
152.759829
 30
0.0
 11
-147.714795
 21
152.759829
 31
0.0
  0
LINE
  5
1d1
100
AcDbEntity
  8
Layer_1
 62
7
100
AcDbLine
 10
-147.714795
 20
152.759829
 30
0.0
 11
-147.714795
 21
155.752928
 31
0.0
  0
LINE
  5
1d2
100
AcDbEntity
  8
Layer_1
 62
7
100
AcDbLine
 10
-147.714795
 20
155.752928
 30
0.0
 11
-107.773070
 21
155.718201
 31
0.0
  0
LINE
  5
1d3
100
AcDbEntity
  8
Layer_1
 62
7
100
AcDbLine
 10
-107.773070
 20
155.718201
 30
0.0
 11
-107.714762
 21
155.718201
 31
0.0
  0
LINE
  5
1d4
100
AcDbEntity
  8
Layer_1
 62
7
100
AcDbLine
 10
-107.714762
 20
155.718201
 30
0.0
 11
-107.714762
 21
152.717937
 31
0.0
  0
LINE
  5
1d5
100
AcDbEntity
  8
Layer_1
 62
7
100
AcDbLine
 10
-107.714762
 20
152.717937
 30
0.0
 11
-97.715149
 21
152.717937
 31
0.0
  0
LINE
  5
1d6
100
AcDbEntity
  8
Layer_1
 62
7
100
AcDbLine
 10
-97.715149
 20
152.717937
 30
0.0
 11
-97.715149
 21
155.717650
 31
0.0
  0
LINE
  5
1d7
100
AcDbEntity
  8
Layer_1
 62
7
100
AcDbLine
 10
-97.715149
 20
155.717650
 30
0.0
 11
-77.714879
 21
155.703869
 31
0.0
  0
LINE
  5
1d8
100
AcDbEntity
  8
Layer_1
 62
7
100
AcDbLine
 10
-77.714879
 20
155.703869
 30
0.0
 11
-124.690542
 21
225.773805
 31
0.0
  0
LINE
  5
1d9
100
AcDbEntity
  8
Layer_1
 62
7
100
AcDbLine
 10
-124.690542
 20
225.773805
 30
0.0
 11
-124.690542
 21
190.773839
 31
0.0
  0
LINE
  5
1da
100
AcDbEntity
  8
Layer_1
 62
7
100
AcDbLine
 10
-124.690542
 20
190.773839
 30
0.0
 11
-127.690254
 21
190.773839
 31
0.0
  0
LINE
  5
1db
100
AcDbEntity
  8
Layer_1
 62
7
100
AcDbLine
 10
-127.690254
 20
190.773839
 30
0.0
 11
-127.690254
 21
225.773805
 31
0.0
  0
LINE
  5
1dc
100
AcDbEntity
  8
Layer_1
 62
7
100
AcDbLine
 10
-127.690254
 20
225.773805
 30
0.0
 11
-174.690132
 21
225.773805
 31
0.0
  0
LINE
  5
1dd
100
AcDbEntity
  8
Layer_1
 62
5
100
AcDbLine
 10
-132.690416
 20
217.853786
 30
0.0
 11
-169.690415
 21
217.853786
 31
0.0
  0
LINE
  5
1de
100
AcDbEntity
  8
Layer_1
 62
5
100
AcDbLine
 10
-169.690415
 20
217.853786
 30
0.0
 11
-169.690415
 21
207.853787
 31
0.0
  0
LINE
  5
1df
100
AcDbEntity
  8
Layer_1
 62
5
100
AcDbLine
 10
-169.690415
 20
207.853787
 30
0.0
 11
-132.690416
 21
207.853787
 31
0.0
  0
LINE
  5
1e0
100
AcDbEntity
  8
Layer_1
 62
5
100
AcDbLine
 10
-132.690416
 20
207.853787
 30
0.0
 11
-132.690416
 21
217.853786
 31
0.0
  0
LINE
  5
1e1
100
AcDbEntity
  8
Layer_1
 62
5
100
AcDbLine
 10
-132.690416
 20
217.853786
 30
0.0
 11
-132.690416
 21
217.853786
 31
0.0
  0
LINE
  5
1e2
100
AcDbEntity
  8
Layer_1
 62
5
100
AcDbLine
 10
-156.690415
 20
225.773893
 30
0.0
 11
-164.690415
 21
225.773893
 31
0.0
  0
LINE
  5
1e3
100
AcDbEntity
  8
Layer_1
 62
5
100
AcDbLine
 10
-164.690415
 20
225.773893
 30
0.0
 11
-164.690415
 21
222.773893
 31
0.0
  0
LINE
  5
1e4
100
AcDbEntity
  8
Layer_1
 62
5
100
AcDbLine
 10
-164.690415
 20
222.773893
 30
0.0
 11
-156.690415
 21
222.773893
 31
0.0
  0
LINE
  5
1e5
100
AcDbEntity
  8
Layer_1
 62
5
100
AcDbLine
 10
-156.690415
 20
222.773893
 30
0.0
 11
-156.690415
 21
225.773893
 31
0.0
  0
LINE
  5
1e6
100
AcDbEntity
  8
Layer_1
 62
5
100
AcDbLine
 10
-156.690415
 20
225.773893
 30
0.0
 11
-156.690415
 21
225.773893
 31
0.0
  0
LINE
  5
1e7
100
AcDbEntity
  8
Layer_1
 62
5
100
AcDbLine
 10
-137.690414
 20
225.773893
 30
0.0
 11
-145.690415
 21
225.773893
 31
0.0
  0
LINE
  5
1e8
100
AcDbEntity
  8
Layer_1
 62
5
100
AcDbLine
 10
-145.690415
 20
225.773893
 30
0.0
 11
-145.690415
 21
222.773893
 31
0.0
  0
LINE
  5
1e9
100
AcDbEntity
  8
Layer_1
 62
5
100
AcDbLine
 10
-145.690415
 20
222.773893
 30
0.0
 11
-137.690414
 21
222.773893
 31
0.0
  0
LINE
  5
1ea
100
AcDbEntity
  8
Layer_1
 62
5
100
AcDbLine
 10
-137.690414
 20
222.773893
 30
0.0
 11
-137.690414
 21
225.773893
 31
0.0
  0
LINE
  5
1eb
100
AcDbEntity
  8
Layer_1
 62
5
100
AcDbLine
 10
-137.690414
 20
225.773893
 30
0.0
 11
-137.690414
 21
225.773893
 31
0.0
  0
LINE
  5
1ec
100
AcDbEntity
  8
Layer_1
 62
5
100
AcDbLine
 10
-164.690415
 20
202.933680
 30
0.0
 11
-164.690415
 21
199.933680
 31
0.0
  0
LINE
  5
1ed
100
AcDbEntity
  8
Layer_1
 62
5
100
AcDbLine
 10
-145.690415
 20
199.933680
 30
0.0
 11
-137.690414
 21
199.933680
 31
0.0
  0
LINE
  5
1ee
100
AcDbEntity
  8
Layer_1
 62
5
100
AcDbLine
 10
-156.690415
 20
199.933680
 30
0.0
 11
-156.690415
 21
202.933680
 31
0.0
  0
LINE
  5
1ef
100
AcDbEntity
  8
Layer_1
 62
5
100
AcDbLine
 10
-137.690414
 20
202.933680
 30
0.0
 11
-145.690415
 21
202.933680
 31
0.0
  0
LINE
  5
1f0
100
AcDbEntity
  8
Layer_1
 62
5
100
AcDbLine
 10
-145.690415
 20
202.933680
 30
0.0
 11
-145.690415
 21
199.933680
 31
0.0
  0
LINE
  5
1f1
100
AcDbEntity
  8
Layer_1
 62
5
100
AcDbLine
 10
-137.690414
 20
199.933680
 30
0.0
 11
-137.690414
 21
202.933680
 31
0.0
  0
LINE
  5
1f2
100
AcDbEntity
  8
Layer_1
 62
5
100
AcDbLine
 10
-164.690415
 20
199.933680
 30
0.0
 11
-156.690415
 21
199.933680
 31
0.0
  0
LINE
  5
1f3
100
AcDbEntity
  8
Layer_1
 62
5
100
AcDbLine
 10
-156.690415
 20
202.933680
 30
0.0
 11
-164.690415
 21
202.933680
 31
0.0
  0
SPLINE
  5
1f4
100
AcDbEntity
  8
Layer_1
 62
5
100
AcDbSpline
 70
8
 71
3
 72
8
 73
4
 74
0
 40
0
 40
0
 40
0
 40
0
 40
1
 40
1
 40
1
 40
1
 10
-147.190415
 20
202.933680
 30
0.0
 10
-147.190035
 20
204.362995
 30
0.0
 10
-147.952348
 20
205.683899
 30
0.0
 10
-149.190108
 20
206.398667
 30
0.0
  0
SPLINE
  5
1f5
100
AcDbEntity
  8
Layer_1
 62
5
100
AcDbSpline
 70
8
 71
3
 72
8
 73
4
 74
0
 40
0
 40
0
 40
0
 40
0
 40
1
 40
1
 40
1
 40
1
 10
-149.190108
 20
206.398667
 30
0.0
 10
-150.427869
 20
207.113434
 30
0.0
 10
-151.952962
 20
207.113434
 30
0.0
 10
-153.190722
 20
206.398667
 30
0.0
  0
SPLINE
  5
1f6
100
AcDbEntity
  8
Layer_1
 62
5
100
AcDbSpline
 70
8
 71
3
 72
8
 73
4
 74
0
 40
0
 40
0
 40
0
 40
0
 40
1
 40
1
 40
1
 40
1
 10
-153.190722
 20
206.398667
 30
0.0
 10
-154.428482
 20
205.683899
 30
0.0
 10
-155.190795
 20
204.362995
 30
0.0
 10
-155.190415
 20
202.933680
 30
0.0
  0
SPLINE
  5
1f7
100
AcDbEntity
  8
Layer_1
 62
5
100
AcDbSpline
 70
8
 71
3
 72
8
 73
4
 74
0
 40
0
 40
0
 40
0
 40
0
 40
1
 40
1
 40
1
 40
1
 10
-155.190415
 20
202.933680
 30
0.0
 10
-155.190795
 20
201.504364
 30
0.0
 10
-154.428482
 20
200.183460
 30
0.0
 10
-153.190722
 20
199.468692
 30
0.0
  0
SPLINE
  5
1f8
100
AcDbEntity
  8
Layer_1
 62
5
100
AcDbSpline
 70
8
 71
3
 72
8
 73
4
 74
0
 40
0
 40
0
 40
0
 40
0
 40
1
 40
1
 40
1
 40
1
 10
-153.190722
 20
199.468692
 30
0.0
 10
-151.952962
 20
198.753925
 30
0.0
 10
-150.427869
 20
198.753925
 30
0.0
 10
-149.190108
 20
199.468692
 30
0.0
  0
SPLINE
  5
1f9
100
AcDbEntity
  8
Layer_1
 62
5
100
AcDbSpline
 70
8
 71
3
 72
8
 73
4
 74
0
 40
0
 40
0
 40
0
 40
0
 40
1
 40
1
 40
1
 40
1
 10
-149.190108
 20
199.468692
 30
0.0
 10
-147.952348
 20
200.183460
 30
0.0
 10
-147.190035
 20
201.504364
 30
0.0
 10
-147.190415
 20
202.933680
 30
0.0
  0
LINE
  5
1fa
100
AcDbEntity
  8
Layer_1
 62
5
100
AcDbLine
 10
-147.190415
 20
202.933680
 30
0.0
 11
-147.190415
 21
202.933680
 31
0.0
  0
LINE
  5
1fb
100
AcDbEntity
  8
Layer_1
 62
7
100
AcDbLine
 10
-49.218597
 20
148.445414
 30
0.0
 11
-49.218597
 21
151.445414
 31
0.0
  0
LINE
  5
1fc
100
AcDbEntity
  8
Layer_1
 62
7
100
AcDbLine
 10
-49.218597
 20
151.445414
 30
0.0
 11
-57.218597
 21
151.445414
 31
0.0
  0
LINE
  5
1fd
100
AcDbEntity
  8
Layer_1
 62
7
100
AcDbLine
 10
-57.218597
 20
151.445414
 30
0.0
 11
-57.218597
 21
148.445414
 31
0.0
  0
LINE
  5
1fe
100
AcDbEntity
  8
Layer_1
 62
7
100
AcDbLine
 10
-38.218595
 20
148.445414
 30
0.0
 11
-38.218595
 21
151.445414
 31
0.0
  0
LINE
  5
1ff
100
AcDbEntity
  8
Layer_1
 62
7
100
AcDbLine
 10
-38.218595
 20
151.445414
 30
0.0
 11
-30.218597
 21
151.445414
 31
0.0
  0
LINE
  5
200
100
AcDbEntity
  8
Layer_1
 62
7
100
AcDbLine
 10
-30.218597
 20
151.445414
 30
0.0
 11
-30.218597
 21
148.445414
 31
0.0
  0
LINE
  5
201
100
AcDbEntity
  8
Layer_1
 62
7
100
AcDbLine
 10
-70.218597
 20
119.445413
 30
0.0
 11
-70.218597
 21
111.445423
 31
0.0
  0
LINE
  5
202
100
AcDbEntity
  8
Layer_1
 62
7
100
AcDbLine
 10
-70.218597
 20
111.445423
 30
0.0
 11
-67.218597
 21
111.445423
 31
0.0
  0
LINE
  5
203
100
AcDbEntity
  8
Layer_1
 62
7
100
AcDbLine
 10
-67.218597
 20
119.445413
 30
0.0
 11
-70.218597
 21
119.445413
 31
0.0
  0
LINE
  5
204
100
AcDbEntity
  8
Layer_1
 62
7
100
AcDbLine
 10
-67.218597
 20
130.445413
 30
0.0
 11
-70.218597
 21
130.445413
 31
0.0
  0
LINE
  5
205
100
AcDbEntity
  8
Layer_1
 62
7
100
AcDbLine
 10
-70.218597
 20
130.445413
 30
0.0
 11
-70.218597
 21
138.445414
 31
0.0
  0
LINE
  5
206
100
AcDbEntity
  8
Layer_1
 62
7
100
AcDbLine
 10
-70.218597
 20
138.445414
 30
0.0
 11
-67.218597
 21
138.445414
 31
0.0
  0
LINE
  5
207
100
AcDbEntity
  8
Layer_1
 62
7
100
AcDbLine
 10
-38.218595
 20
98.445421
 30
0.0
 11
-30.218597
 21
98.445421
 31
0.0
  0
LINE
  5
208
100
AcDbEntity
  8
Layer_1
 62
7
100
AcDbLine
 10
-30.218597
 20
98.445421
 30
0.0
 11
-30.218597
 21
101.445415
 31
0.0
  0
LINE
  5
209
100
AcDbEntity
  8
Layer_1
 62
7
100
AcDbLine
 10
-38.218595
 20
101.445415
 30
0.0
 11
-38.218595
 21
98.445421
 31
0.0
  0
LINE
  5
20a
100
AcDbEntity
  8
Layer_1
 62
7
100
AcDbLine
 10
-49.218597
 20
101.445415
 30
0.0
 11
-49.218597
 21
98.445421
 31
0.0
  0
LINE
  5
20b
100
AcDbEntity
  8
Layer_1
 62
7
100
AcDbLine
 10
-49.218597
 20
98.445421
 30
0.0
 11
-57.218597
 21
98.445421
 31
0.0
  0
LINE
  5
20c
100
AcDbEntity
  8
Layer_1
 62
7
100
AcDbLine
 10
-57.218597
 20
98.445421
 30
0.0
 11
-57.218597
 21
101.445415
 31
0.0
  0
LINE
  5
20d
100
AcDbEntity
  8
Layer_1
 62
7
100
AcDbLine
 10
-17.218598
 20
130.445413
 30
0.0
 11
-17.218598
 21
138.445414
 31
0.0
  0
LINE
  5
20e
100
AcDbEntity
  8
Layer_1
 62
7
100
AcDbLine
 10
-17.218598
 20
138.445414
 30
0.0
 11
-20.218598
 21
138.445414
 31
0.0
  0
LINE
  5
20f
100
AcDbEntity
  8
Layer_1
 62
7
100
AcDbLine
 10
-20.218598
 20
130.445413
 30
0.0
 11
-17.218598
 21
130.445413
 31
0.0
  0
LINE
  5
210
100
AcDbEntity
  8
Layer_1
 62
7
100
AcDbLine
 10
-20.218598
 20
119.445413
 30
0.0
 11
-17.218598
 21
119.445413
 31
0.0
  0
LINE
  5
211
100
AcDbEntity
  8
Layer_1
 62
7
100
AcDbLine
 10
-17.218598
 20
119.445413
 30
0.0
 11
-17.218598
 21
111.445423
 31
0.0
  0
LINE
  5
212
100
AcDbEntity
  8
Layer_1
 62
7
100
AcDbLine
 10
-17.218598
 20
111.445423
 30
0.0
 11
-20.218598
 21
111.445423
 31
0.0
  0
SPLINE
  5
213
100
AcDbEntity
  8
Layer_1
 62
5
100
AcDbSpline
 70
8
 71
3
 72
8
 73
4
 74
0
 40
0
 40
0
 40
0
 40
0
 40
1
 40
1
 40
1
 40
1
 10
-32.218596
 20
124.945413
 30
0.0
 10
-32.218596
 20
129.053967
 30
0.0
 10
-34.410484
 20
132.850428
 30
0.0
 10
-37.968596
 20
134.904705
 30
0.0
  0
SPLINE
  5
214
100
AcDbEntity
  8
Layer_1
 62
5
100
AcDbSpline
 70
8
 71
3
 72
8
 73
4
 74
0
 40
0
 40
0
 40
0
 40
0
 40
1
 40
1
 40
1
 40
1
 10
-37.968596
 20
134.904705
 30
0.0
 10
-41.526709
 20
136.958982
 30
0.0
 10
-45.910484
 20
136.958982
 30
0.0
 10
-49.468596
 20
134.904705
 30
0.0
  0
SPLINE
  5
215
100
AcDbEntity
  8
Layer_1
 62
5
100
AcDbSpline
 70
8
 71
3
 72
8
 73
4
 74
0
 40
0
 40
0
 40
0
 40
0
 40
1
 40
1
 40
1
 40
1
 10
-49.468596
 20
134.904705
 30
0.0
 10
-53.026709
 20
132.850428
 30
0.0
 10
-55.218597
 20
129.053967
 30
0.0
 10
-55.218596
 20
124.945413
 30
0.0
  0
SPLINE
  5
216
100
AcDbEntity
  8
Layer_1
 62
5
100
AcDbSpline
 70
8
 71
3
 72
8
 73
4
 74
0
 40
0
 40
0
 40
0
 40
0
 40
1
 40
1
 40
1
 40
1
 10
-55.218596
 20
124.945413
 30
0.0
 10
-55.218596
 20
120.836859
 30
0.0
 10
-53.026709
 20
117.040398
 30
0.0
 10
-49.468596
 20
114.986121
 30
0.0
  0
SPLINE
  5
217
100
AcDbEntity
  8
Layer_1
 62
5
100
AcDbSpline
 70
8
 71
3
 72
8
 73
4
 74
0
 40
0
 40
0
 40
0
 40
0
 40
1
 40
1
 40
1
 40
1
 10
-49.468596
 20
114.986121
 30
0.0
 10
-45.910484
 20
112.931843
 30
0.0
 10
-41.526709
 20
112.931843
 30
0.0
 10
-37.968596
 20
114.986121
 30
0.0
  0
SPLINE
  5
218
100
AcDbEntity
  8
Layer_1
 62
5
100
AcDbSpline
 70
8
 71
3
 72
8
 73
4
 74
0
 40
0
 40
0
 40
0
 40
0
 40
1
 40
1
 40
1
 40
1
 10
-37.968596
 20
114.986121
 30
0.0
 10
-34.410484
 20
117.040398
 30
0.0
 10
-32.218596
 20
120.836859
 30
0.0
 10
-32.218596
 20
124.945413
 30
0.0
  0
LINE
  5
219
100
AcDbEntity
  8
Layer_1
 62
5
100
AcDbLine
 10
-32.218596
 20
124.945413
 30
0.0
 11
-32.218596
 21
124.945413
 31
0.0
  0
SPLINE
  5
21a
100
AcDbEntity
  8
Layer_1
 62
5
100
AcDbSpline
 70
8
 71
3
 72
8
 73
4
 74
0
 40
0
 40
0
 40
0
 40
0
 40
1
 40
1
 40
1
 40
1
 10
-26.468598
 20
109.445427
 30
0.0
 10
-26.468036
 20
110.071016
 30
0.0
 10
-26.801461
 20
110.649324
 30
0.0
 10
-27.343143
 20
110.962281
 30
0.0
  0
SPLINE
  5
21b
100
AcDbEntity
  8
Layer_1
 62
5
100
AcDbSpline
 70
8
 71
3
 72
8
 73
4
 74
0
 40
0
 40
0
 40
0
 40
0
 40
1
 40
1
 40
1
 40
1
 10
-27.343143
 20
110.962281
 30
0.0
 10
-27.884826
 20
111.275238
 30
0.0
 10
-28.552368
 20
111.275238
 30
0.0
 10
-29.094051
 20
110.962281
 30
0.0
  0
SPLINE
  5
21c
100
AcDbEntity
  8
Layer_1
 62
5
100
AcDbSpline
 70
8
 71
3
 72
8
 73
4
 74
0
 40
0
 40
0
 40
0
 40
0
 40
1
 40
1
 40
1
 40
1
 10
-29.094051
 20
110.962281
 30
0.0
 10
-29.635733
 20
110.649324
 30
0.0
 10
-29.969158
 20
110.071016
 30
0.0
 10
-29.968596
 20
109.445427
 30
0.0
  0
SPLINE
  5
21d
100
AcDbEntity
  8
Layer_1
 62
5
100
AcDbSpline
 70
8
 71
3
 72
8
 73
4
 74
0
 40
0
 40
0
 40
0
 40
0
 40
1
 40
1
 40
1
 40
1
 10
-29.968596
 20
109.445427
 30
0.0
 10
-29.969158
 20
108.819838
 30
0.0
 10
-29.635733
 20
108.241530
 30
0.0
 10
-29.094051
 20
107.928573
 30
0.0
  0
SPLINE
  5
21e
100
AcDbEntity
  8
Layer_1
 62
5
100
AcDbSpline
 70
8
 71
3
 72
8
 73
4
 74
0
 40
0
 40
0
 40
0
 40
0
 40
1
 40
1
 40
1
 40
1
 10
-29.094051
 20
107.928573
 30
0.0
 10
-28.552368
 20
107.615616
 30
0.0
 10
-27.884826
 20
107.615616
 30
0.0
 10
-27.343143
 20
107.928573
 30
0.0
  0
SPLINE
  5
21f
100
AcDbEntity
  8
Layer_1
 62
5
100
AcDbSpline
 70
8
 71
3
 72
8
 73
4
 74
0
 40
0
 40
0
 40
0
 40
0
 40
1
 40
1
 40
1
 40
1
 10
-27.343143
 20
107.928573
 30
0.0
 10
-26.801461
 20
108.241530
 30
0.0
 10
-26.468036
 20
108.819838
 30
0.0
 10
-26.468598
 20
109.445427
 30
0.0
  0
LINE
  5
220
100
AcDbEntity
  8
Layer_1
 62
5
100
AcDbLine
 10
-26.468598
 20
109.445427
 30
0.0
 11
-26.468598
 21
109.445427
 31
0.0
  0
SPLINE
  5
221
100
AcDbEntity
  8
Layer_1
 62
5
100
AcDbSpline
 70
8
 71
3
 72
8
 73
4
 74
0
 40
0
 40
0
 40
0
 40
0
 40
1
 40
1
 40
1
 40
1
 10
-26.468598
 20
140.445413
 30
0.0
 10
-26.468036
 20
141.071002
 30
0.0
 10
-26.801461
 20
141.649310
 30
0.0
 10
-27.343143
 20
141.962267
 30
0.0
  0
SPLINE
  5
222
100
AcDbEntity
  8
Layer_1
 62
5
100
AcDbSpline
 70
8
 71
3
 72
8
 73
4
 74
0
 40
0
 40
0
 40
0
 40
0
 40
1
 40
1
 40
1
 40
1
 10
-27.343143
 20
141.962267
 30
0.0
 10
-27.884826
 20
142.275224
 30
0.0
 10
-28.552368
 20
142.275224
 30
0.0
 10
-29.094051
 20
141.962267
 30
0.0
  0
SPLINE
  5
223
100
AcDbEntity
  8
Layer_1
 62
5
100
AcDbSpline
 70
8
 71
3
 72
8
 73
4
 74
0
 40
0
 40
0
 40
0
 40
0
 40
1
 40
1
 40
1
 40
1
 10
-29.094051
 20
141.962267
 30
0.0
 10
-29.635733
 20
141.649310
 30
0.0
 10
-29.969158
 20
141.071002
 30
0.0
 10
-29.968596
 20
140.445413
 30
0.0
  0
SPLINE
  5
224
100
AcDbEntity
  8
Layer_1
 62
5
100
AcDbSpline
 70
8
 71
3
 72
8
 73
4
 74
0
 40
0
 40
0
 40
0
 40
0
 40
1
 40
1
 40
1
 40
1
 10
-29.968596
 20
140.445413
 30
0.0
 10
-29.969158
 20
139.819824
 30
0.0
 10
-29.635733
 20
139.241516
 30
0.0
 10
-29.094051
 20
138.928559
 30
0.0
  0
SPLINE
  5
225
100
AcDbEntity
  8
Layer_1
 62
5
100
AcDbSpline
 70
8
 71
3
 72
8
 73
4
 74
0
 40
0
 40
0
 40
0
 40
0
 40
1
 40
1
 40
1
 40
1
 10
-29.094051
 20
138.928559
 30
0.0
 10
-28.552368
 20
138.615602
 30
0.0
 10
-27.884826
 20
138.615602
 30
0.0
 10
-27.343143
 20
138.928559
 30
0.0
  0
SPLINE
  5
226
100
AcDbEntity
  8
Layer_1
 62
5
100
AcDbSpline
 70
8
 71
3
 72
8
 73
4
 74
0
 40
0
 40
0
 40
0
 40
0
 40
1
 40
1
 40
1
 40
1
 10
-27.343143
 20
138.928559
 30
0.0
 10
-26.801461
 20
139.241516
 30
0.0
 10
-26.468036
 20
139.819824
 30
0.0
 10
-26.468598
 20
140.445413
 30
0.0
  0
LINE
  5
227
100
AcDbEntity
  8
Layer_1
 62
5
100
AcDbLine
 10
-26.468598
 20
140.445413
 30
0.0
 11
-26.468598
 21
140.445413
 31
0.0
  0
SPLINE
  5
228
100
AcDbEntity
  8
Layer_1
 62
5
100
AcDbSpline
 70
8
 71
3
 72
8
 73
4
 74
0
 40
0
 40
0
 40
0
 40
0
 40
1
 40
1
 40
1
 40
1
 10
-57.468597
 20
140.445413
 30
0.0
 10
-57.468597
 20
141.070628
 30
0.0
 10
-57.802145
 20
141.648350
 30
0.0
 10
-58.343597
 20
141.960957
 30
0.0
  0
SPLINE
  5
229
100
AcDbEntity
  8
Layer_1
 62
5
100
AcDbSpline
 70
8
 71
3
 72
8
 73
4
 74
0
 40
0
 40
0
 40
0
 40
0
 40
1
 40
1
 40
1
 40
1
 10
-58.343597
 20
141.960957
 30
0.0
 10
-58.885049
 20
142.273565
 30
0.0
 10
-59.552145
 20
142.273565
 30
0.0
 10
-60.093597
 20
141.960957
 30
0.0
  0
SPLINE
  5
22a
100
AcDbEntity
  8
Layer_1
 62
5
100
AcDbSpline
 70
8
 71
3
 72
8
 73
4
 74
0
 40
0
 40
0
 40
0
 40
0
 40
1
 40
1
 40
1
 40
1
 10
-60.093597
 20
141.960957
 30
0.0
 10
-60.635049
 20
141.648350
 30
0.0
 10
-60.968597
 20
141.070628
 30
0.0
 10
-60.968597
 20
140.445413
 30
0.0
  0
SPLINE
  5
22b
100
AcDbEntity
  8
Layer_1
 62
5
100
AcDbSpline
 70
8
 71
3
 72
8
 73
4
 74
0
 40
0
 40
0
 40
0
 40
0
 40
1
 40
1
 40
1
 40
1
 10
-60.968597
 20
140.445413
 30
0.0
 10
-60.968597
 20
139.820198
 30
0.0
 10
-60.635049
 20
139.242476
 30
0.0
 10
-60.093597
 20
138.929868
 30
0.0
  0
SPLINE
  5
22c
100
AcDbEntity
  8
Layer_1
 62
5
100
AcDbSpline
 70
8
 71
3
 72
8
 73
4
 74
0
 40
0
 40
0
 40
0
 40
0
 40
1
 40
1
 40
1
 40
1
 10
-60.093597
 20
138.929868
 30
0.0
 10
-59.552145
 20
138.617261
 30
0.0
 10
-58.885049
 20
138.617261
 30
0.0
 10
-58.343597
 20
138.929868
 30
0.0
  0
SPLINE
  5
22d
100
AcDbEntity
  8
Layer_1
 62
5
100
AcDbSpline
 70
8
 71
3
 72
8
 73
4
 74
0
 40
0
 40
0
 40
0
 40
0
 40
1
 40
1
 40
1
 40
1
 10
-58.343597
 20
138.929868
 30
0.0
 10
-57.802145
 20
139.242476
 30
0.0
 10
-57.468597
 20
139.820198
 30
0.0
 10
-57.468597
 20
140.445413
 30
0.0
  0
LINE
  5
22e
100
AcDbEntity
  8
Layer_1
 62
5
100
AcDbLine
 10
-57.468597
 20
140.445413
 30
0.0
 11
-57.468597
 21
140.445413
 31
0.0
  0
SPLINE
  5
22f
100
AcDbEntity
  8
Layer_1
 62
5
100
AcDbSpline
 70
8
 71
3
 72
8
 73
4
 74
0
 40
0
 40
0
 40
0
 40
0
 40
1
 40
1
 40
1
 40
1
 10
-57.468597
 20
109.445427
 30
0.0
 10
-57.468597
 20
110.070642
 30
0.0
 10
-57.802145
 20
110.648364
 30
0.0
 10
-58.343597
 20
110.960971
 30
0.0
  0
SPLINE
  5
230
100
AcDbEntity
  8
Layer_1
 62
5
100
AcDbSpline
 70
8
 71
3
 72
8
 73
4
 74
0
 40
0
 40
0
 40
0
 40
0
 40
1
 40
1
 40
1
 40
1
 10
-58.343597
 20
110.960971
 30
0.0
 10
-58.885049
 20
111.273579
 30
0.0
 10
-59.552145
 20
111.273579
 30
0.0
 10
-60.093597
 20
110.960971
 30
0.0
  0
SPLINE
  5
231
100
AcDbEntity
  8
Layer_1
 62
5
100
AcDbSpline
 70
8
 71
3
 72
8
 73
4
 74
0
 40
0
 40
0
 40
0
 40
0
 40
1
 40
1
 40
1
 40
1
 10
-60.093597
 20
110.960971
 30
0.0
 10
-60.635049
 20
110.648364
 30
0.0
 10
-60.968597
 20
110.070642
 30
0.0
 10
-60.968597
 20
109.445427
 30
0.0
  0
SPLINE
  5
232
100
AcDbEntity
  8
Layer_1
 62
5
100
AcDbSpline
 70
8
 71
3
 72
8
 73
4
 74
0
 40
0
 40
0
 40
0
 40
0
 40
1
 40
1
 40
1
 40
1
 10
-60.968597
 20
109.445427
 30
0.0
 10
-60.968597
 20
108.820212
 30
0.0
 10
-60.635049
 20
108.242490
 30
0.0
 10
-60.093597
 20
107.929883
 30
0.0
  0
SPLINE
  5
233
100
AcDbEntity
  8
Layer_1
 62
5
100
AcDbSpline
 70
8
 71
3
 72
8
 73
4
 74
0
 40
0
 40
0
 40
0
 40
0
 40
1
 40
1
 40
1
 40
1
 10
-60.093597
 20
107.929883
 30
0.0
 10
-59.552145
 20
107.617275
 30
0.0
 10
-58.885049
 20
107.617275
 30
0.0
 10
-58.343597
 20
107.929883
 30
0.0
  0
SPLINE
  5
234
100
AcDbEntity
  8
Layer_1
 62
5
100
AcDbSpline
 70
8
 71
3
 72
8
 73
4
 74
0
 40
0
 40
0
 40
0
 40
0
 40
1
 40
1
 40
1
 40
1
 10
-58.343597
 20
107.929883
 30
0.0
 10
-57.802145
 20
108.242490
 30
0.0
 10
-57.468597
 20
108.820212
 30
0.0
 10
-57.468597
 20
109.445427
 30
0.0
  0
LINE
  5
235
100
AcDbEntity
  8
Layer_1
 62
5
100
AcDbLine
 10
-57.468597
 20
109.445427
 30
0.0
 11
-57.468597
 21
109.445427
 31
0.0
  0
LINE
  5
236
100
AcDbEntity
  8
Layer_1
 62
7
100
AcDbLine
 10
-57.218597
 20
148.445414
 30
0.0
 11
-67.218597
 21
148.445414
 31
0.0
  0
LINE
  5
237
100
AcDbEntity
  8
Layer_1
 62
7
100
AcDbLine
 10
-67.218597
 20
148.445414
 30
0.0
 11
-67.218597
 21
138.445414
 31
0.0
  0
LINE
  5
238
100
AcDbEntity
  8
Layer_1
 62
7
100
AcDbLine
 10
-67.218597
 20
130.445413
 30
0.0
 11
-67.218597
 21
119.445413
 31
0.0
  0
LINE
  5
239
100
AcDbEntity
  8
Layer_1
 62
7
100
AcDbLine
 10
-67.218597
 20
111.445423
 30
0.0
 11
-67.218597
 21
101.445415
 31
0.0
  0
LINE
  5
23a
100
AcDbEntity
  8
Layer_1
 62
7
100
AcDbLine
 10
-67.218597
 20
101.445415
 30
0.0
 11
-57.218597
 21
101.445415
 31
0.0
  0
LINE
  5
23b
100
AcDbEntity
  8
Layer_1
 62
7
100
AcDbLine
 10
-49.218597
 20
101.445415
 30
0.0
 11
-38.218595
 21
101.445415
 31
0.0
  0
LINE
  5
23c
100
AcDbEntity
  8
Layer_1
 62
7
100
AcDbLine
 10
-30.218597
 20
101.445415
 30
0.0
 11
-20.218598
 21
101.445415
 31
0.0
  0
LINE
  5
23d
100
AcDbEntity
  8
Layer_1
 62
7
100
AcDbLine
 10
-20.218598
 20
101.445415
 30
0.0
 11
-20.218598
 21
111.445423
 31
0.0
  0
LINE
  5
23e
100
AcDbEntity
  8
Layer_1
 62
7
100
AcDbLine
 10
-20.218598
 20
119.445413
 30
0.0
 11
-20.218598
 21
130.445413
 31
0.0
  0
LINE
  5
23f
100
AcDbEntity
  8
Layer_1
 62
7
100
AcDbLine
 10
-20.218598
 20
138.445414
 30
0.0
 11
-20.218598
 21
148.445414
 31
0.0
  0
LINE
  5
240
100
AcDbEntity
  8
Layer_1
 62
7
100
AcDbLine
 10
-20.218598
 20
148.445414
 30
0.0
 11
-30.218597
 21
148.445414
 31
0.0
  0
LINE
  5
241
100
AcDbEntity
  8
Layer_1
 62
7
100
AcDbLine
 10
-49.218597
 20
148.445414
 30
0.0
 11
-38.218595
 21
148.445414
 31
0.0
  0
LINE
  5
242
100
AcDbEntity
  8
Layer_1
 62
7
100
AcDbLine
 10
-57.218597
 20
101.445415
 30
0.0
 11
-57.218597
 21
98.445421
 31
0.0
  0
LINE
  5
243
100
AcDbEntity
  8
Layer_1
 62
7
100
AcDbLine
 10
-57.218597
 20
98.445421
 30
0.0
 11
-49.218597
 21
98.445421
 31
0.0
  0
LINE
  5
244
100
AcDbEntity
  8
Layer_1
 62
7
100
AcDbLine
 10
-49.218597
 20
98.445421
 30
0.0
 11
-49.218597
 21
101.445415
 31
0.0
  0
LINE
  5
245
100
AcDbEntity
  8
Layer_1
 62
7
100
AcDbLine
 10
-38.218595
 20
101.445415
 30
0.0
 11
-38.218595
 21
98.445421
 31
0.0
  0
LINE
  5
246
100
AcDbEntity
  8
Layer_1
 62
7
100
AcDbLine
 10
-38.218595
 20
98.445421
 30
0.0
 11
-30.218597
 21
98.445421
 31
0.0
  0
LINE
  5
247
100
AcDbEntity
  8
Layer_1
 62
7
100
AcDbLine
 10
-30.218597
 20
98.445421
 30
0.0
 11
-30.218597
 21
101.445415
 31
0.0
  0
LINE
  5
248
100
AcDbEntity
  8
Layer_1
 62
7
100
AcDbLine
 10
-156.739597
 20
148.459717
 30
0.0
 11
-156.739597
 21
151.459717
 31
0.0
  0
LINE
  5
249
100
AcDbEntity
  8
Layer_1
 62
7
100
AcDbLine
 10
-156.739597
 20
151.459717
 30
0.0
 11
-164.739597
 21
151.459717
 31
0.0
  0
LINE
  5
24a
100
AcDbEntity
  8
Layer_1
 62
7
100
AcDbLine
 10
-164.739597
 20
151.459717
 30
0.0
 11
-164.739597
 21
148.459717
 31
0.0
  0
SPLINE
  5
24b
100
AcDbEntity
  8
Layer_1
 62
5
100
AcDbSpline
 70
8
 71
3
 72
8
 73
4
 74
0
 40
0
 40
0
 40
0
 40
0
 40
1
 40
1
 40
1
 40
1
 10
-137.239596
 20
134.959716
 30
0.0
 10
-137.239596
 20
136.388778
 30
0.0
 10
-138.001992
 20
137.709286
 30
0.0
 10
-139.239596
 20
138.423818
 30
0.0
  0
SPLINE
  5
24c
100
AcDbEntity
  8
Layer_1
 62
5
100
AcDbSpline
 70
8
 71
3
 72
8
 73
4
 74
0
 40
0
 40
0
 40
0
 40
0
 40
1
 40
1
 40
1
 40
1
 10
-139.239596
 20
138.423818
 30
0.0
 10
-140.477201
 20
139.138349
 30
0.0
 10
-142.001992
 20
139.138349
 30
0.0
 10
-143.239597
 20
138.423818
 30
0.0
  0
SPLINE
  5
24d
100
AcDbEntity
  8
Layer_1
 62
5
100
AcDbSpline
 70
8
 71
3
 72
8
 73
4
 74
0
 40
0
 40
0
 40
0
 40
0
 40
1
 40
1
 40
1
 40
1
 10
-143.239597
 20
138.423818
 30
0.0
 10
-144.477201
 20
137.709286
 30
0.0
 10
-145.239597
 20
136.388778
 30
0.0
 10
-145.239597
 20
134.959716
 30
0.0
  0
SPLINE
  5
24e
100
AcDbEntity
  8
Layer_1
 62
5
100
AcDbSpline
 70
8
 71
3
 72
8
 73
4
 74
0
 40
0
 40
0
 40
0
 40
0
 40
1
 40
1
 40
1
 40
1
 10
-145.239597
 20
134.959716
 30
0.0
 10
-145.239597
 20
133.530653
 30
0.0
 10
-144.477201
 20
132.210145
 30
0.0
 10
-143.239597
 20
131.495614
 30
0.0
  0
SPLINE
  5
24f
100
AcDbEntity
  8
Layer_1
 62
5
100
AcDbSpline
 70
8
 71
3
 72
8
 73
4
 74
0
 40
0
 40
0
 40
0
 40
0
 40
1
 40
1
 40
1
 40
1
 10
-143.239597
 20
131.495614
 30
0.0
 10
-142.001992
 20
130.781082
 30
0.0
 10
-140.477201
 20
130.781082
 30
0.0
 10
-139.239596
 20
131.495614
 30
0.0
  0
SPLINE
  5
250
100
AcDbEntity
  8
Layer_1
 62
5
100
AcDbSpline
 70
8
 71
3
 72
8
 73
4
 74
0
 40
0
 40
0
 40
0
 40
0
 40
1
 40
1
 40
1
 40
1
 10
-139.239596
 20
131.495614
 30
0.0
 10
-138.001992
 20
132.210145
 30
0.0
 10
-137.239596
 20
133.530653
 30
0.0
 10
-137.239596
 20
134.959716
 30
0.0
  0
LINE
  5
251
100
AcDbEntity
  8
Layer_1
 62
5
100
AcDbLine
 10
-137.239596
 20
134.959716
 30
0.0
 11
-137.239596
 21
134.959716
 31
0.0
  0
SPLINE
  5
252
100
AcDbEntity
  8
Layer_1
 62
5
100
AcDbSpline
 70
8
 71
3
 72
8
 73
4
 74
0
 40
0
 40
0
 40
0
 40
0
 40
1
 40
1
 40
1
 40
1
 10
-157.239597
 20
114.959705
 30
0.0
 10
-157.239218
 20
116.389020
 30
0.0
 10
-158.001530
 20
117.709925
 30
0.0
 10
-159.239290
 20
118.424692
 30
0.0
  0
SPLINE
  5
253
100
AcDbEntity
  8
Layer_1
 62
5
100
AcDbSpline
 70
8
 71
3
 72
8
 73
4
 74
0
 40
0
 40
0
 40
0
 40
0
 40
1
 40
1
 40
1
 40
1
 10
-159.239290
 20
118.424692
 30
0.0
 10
-160.477051
 20
119.139459
 30
0.0
 10
-162.002144
 20
119.139459
 30
0.0
 10
-163.239904
 20
118.424692
 30
0.0
  0
SPLINE
  5
254
100
AcDbEntity
  8
Layer_1
 62
5
100
AcDbSpline
 70
8
 71
3
 72
8
 73
4
 74
0
 40
0
 40
0
 40
0
 40
0
 40
1
 40
1
 40
1
 40
1
 10
-163.239904
 20
118.424692
 30
0.0
 10
-164.477664
 20
117.709925
 30
0.0
 10
-165.239977
 20
116.389020
 30
0.0
 10
-165.239597
 20
114.959705
 30
0.0
  0
SPLINE
  5
255
100
AcDbEntity
  8
Layer_1
 62
5
100
AcDbSpline
 70
8
 71
3
 72
8
 73
4
 74
0
 40
0
 40
0
 40
0
 40
0
 40
1
 40
1
 40
1
 40
1
 10
-165.239597
 20
114.959705
 30
0.0
 10
-165.239977
 20
113.530389
 30
0.0
 10
-164.477664
 20
112.209485
 30
0.0
 10
-163.239904
 20
111.494718
 30
0.0
  0
SPLINE
  5
256
100
AcDbEntity
  8
Layer_1
 62
5
100
AcDbSpline
 70
8
 71
3
 72
8
 73
4
 74
0
 40
0
 40
0
 40
0
 40
0
 40
1
 40
1
 40
1
 40
1
 10
-163.239904
 20
111.494718
 30
0.0
 10
-162.002144
 20
110.779950
 30
0.0
 10
-160.477051
 20
110.779950
 30
0.0
 10
-159.239290
 20
111.494718
 30
0.0
  0
SPLINE
  5
257
100
AcDbEntity
  8
Layer_1
 62
5
100
AcDbSpline
 70
8
 71
3
 72
8
 73
4
 74
0
 40
0
 40
0
 40
0
 40
0
 40
1
 40
1
 40
1
 40
1
 10
-159.239290
 20
111.494718
 30
0.0
 10
-158.001530
 20
112.209485
 30
0.0
 10
-157.239218
 20
113.530389
 30
0.0
 10
-157.239597
 20
114.959705
 30
0.0
  0
LINE
  5
258
100
AcDbEntity
  8
Layer_1
 62
5
100
AcDbLine
 10
-157.239597
 20
114.959705
 30
0.0
 11
-157.239597
 21
114.959705
 31
0.0
  0
LINE
  5
259
100
AcDbEntity
  8
Layer_1
 62
7
100
AcDbLine
 10
-145.739596
 20
148.459717
 30
0.0
 11
-145.739596
 21
151.459717
 31
0.0
  0
LINE
  5
25a
100
AcDbEntity
  8
Layer_1
 62
7
100
AcDbLine
 10
-145.739596
 20
151.459717
 30
0.0
 11
-137.739598
 21
151.459717
 31
0.0
  0
LINE
  5
25b
100
AcDbEntity
  8
Layer_1
 62
7
100
AcDbLine
 10
-137.739598
 20
151.459717
 30
0.0
 11
-137.739598
 21
148.459717
 31
0.0
  0
LINE
  5
25c
100
AcDbEntity
  8
Layer_1
 62
7
100
AcDbLine
 10
-177.739597
 20
119.459716
 30
0.0
 11
-177.739597
 21
111.459726
 31
0.0
  0
LINE
  5
25d
100
AcDbEntity
  8
Layer_1
 62
7
100
AcDbLine
 10
-177.739597
 20
111.459726
 30
0.0
 11
-174.739597
 21
111.459726
 31
0.0
  0
LINE
  5
25e
100
AcDbEntity
  8
Layer_1
 62
7
100
AcDbLine
 10
-174.739597
 20
119.459716
 30
0.0
 11
-177.739597
 21
119.459716
 31
0.0
  0
LINE
  5
25f
100
AcDbEntity
  8
Layer_1
 62
7
100
AcDbLine
 10
-174.739597
 20
130.459716
 30
0.0
 11
-177.739597
 21
130.459716
 31
0.0
  0
LINE
  5
260
100
AcDbEntity
  8
Layer_1
 62
7
100
AcDbLine
 10
-177.739597
 20
130.459716
 30
0.0
 11
-177.739597
 21
138.459717
 31
0.0
  0
LINE
  5
261
100
AcDbEntity
  8
Layer_1
 62
7
100
AcDbLine
 10
-177.739597
 20
138.459717
 30
0.0
 11
-174.739597
 21
138.459717
 31
0.0
  0
LINE
  5
262
100
AcDbEntity
  8
Layer_1
 62
7
100
AcDbLine
 10
-145.739596
 20
98.459724
 30
0.0
 11
-137.739598
 21
98.459724
 31
0.0
  0
LINE
  5
263
100
AcDbEntity
  8
Layer_1
 62
7
100
AcDbLine
 10
-137.739598
 20
98.459724
 30
0.0
 11
-137.739598
 21
101.459718
 31
0.0
  0
LINE
  5
264
100
AcDbEntity
  8
Layer_1
 62
7
100
AcDbLine
 10
-145.739596
 20
101.459718
 30
0.0
 11
-145.739596
 21
98.459724
 31
0.0
  0
LINE
  5
265
100
AcDbEntity
  8
Layer_1
 62
7
100
AcDbLine
 10
-156.739597
 20
101.459718
 30
0.0
 11
-156.739597
 21
98.459724
 31
0.0
  0
LINE
  5
266
100
AcDbEntity
  8
Layer_1
 62
7
100
AcDbLine
 10
-156.739597
 20
98.459724
 30
0.0
 11
-164.739597
 21
98.459724
 31
0.0
  0
LINE
  5
267
100
AcDbEntity
  8
Layer_1
 62
7
100
AcDbLine
 10
-164.739597
 20
98.459724
 30
0.0
 11
-164.739597
 21
101.459718
 31
0.0
  0
LINE
  5
268
100
AcDbEntity
  8
Layer_1
 62
7
100
AcDbLine
 10
-124.739598
 20
130.459716
 30
0.0
 11
-124.739598
 21
138.459717
 31
0.0
  0
LINE
  5
269
100
AcDbEntity
  8
Layer_1
 62
7
100
AcDbLine
 10
-124.739598
 20
138.459717
 30
0.0
 11
-127.739598
 21
138.459717
 31
0.0
  0
LINE
  5
26a
100
AcDbEntity
  8
Layer_1
 62
7
100
AcDbLine
 10
-127.739598
 20
130.459716
 30
0.0
 11
-124.739598
 21
130.459716
 31
0.0
  0
LINE
  5
26b
100
AcDbEntity
  8
Layer_1
 62
7
100
AcDbLine
 10
-127.739598
 20
119.459716
 30
0.0
 11
-124.739598
 21
119.459716
 31
0.0
  0
LINE
  5
26c
100
AcDbEntity
  8
Layer_1
 62
7
100
AcDbLine
 10
-124.739598
 20
119.459716
 30
0.0
 11
-124.739598
 21
111.459726
 31
0.0
  0
LINE
  5
26d
100
AcDbEntity
  8
Layer_1
 62
7
100
AcDbLine
 10
-124.739598
 20
111.459726
 30
0.0
 11
-127.739598
 21
111.459726
 31
0.0
  0
LINE
  5
26e
100
AcDbEntity
  8
Layer_1
 62
7
100
AcDbLine
 10
-164.739597
 20
148.459717
 30
0.0
 11
-174.739597
 21
148.459717
 31
0.0
  0
LINE
  5
26f
100
AcDbEntity
  8
Layer_1
 62
7
100
AcDbLine
 10
-174.739597
 20
148.459717
 30
0.0
 11
-174.739597
 21
138.459717
 31
0.0
  0
LINE
  5
270
100
AcDbEntity
  8
Layer_1
 62
7
100
AcDbLine
 10
-174.739597
 20
130.459716
 30
0.0
 11
-174.739597
 21
119.459716
 31
0.0
  0
LINE
  5
271
100
AcDbEntity
  8
Layer_1
 62
7
100
AcDbLine
 10
-174.739597
 20
111.459726
 30
0.0
 11
-174.739597
 21
101.459718
 31
0.0
  0
LINE
  5
272
100
AcDbEntity
  8
Layer_1
 62
7
100
AcDbLine
 10
-174.739597
 20
101.459718
 30
0.0
 11
-164.739597
 21
101.459718
 31
0.0
  0
LINE
  5
273
100
AcDbEntity
  8
Layer_1
 62
7
100
AcDbLine
 10
-156.739597
 20
101.459718
 30
0.0
 11
-145.739596
 21
101.459718
 31
0.0
  0
LINE
  5
274
100
AcDbEntity
  8
Layer_1
 62
7
100
AcDbLine
 10
-137.739598
 20
101.459718
 30
0.0
 11
-127.739598
 21
101.459718
 31
0.0
  0
LINE
  5
275
100
AcDbEntity
  8
Layer_1
 62
7
100
AcDbLine
 10
-127.739598
 20
101.459718
 30
0.0
 11
-127.739598
 21
111.459726
 31
0.0
  0
LINE
  5
276
100
AcDbEntity
  8
Layer_1
 62
7
100
AcDbLine
 10
-127.739598
 20
119.459716
 30
0.0
 11
-127.739598
 21
130.459716
 31
0.0
  0
LINE
  5
277
100
AcDbEntity
  8
Layer_1
 62
7
100
AcDbLine
 10
-127.739598
 20
138.459717
 30
0.0
 11
-127.739598
 21
148.459717
 31
0.0
  0
LINE
  5
278
100
AcDbEntity
  8
Layer_1
 62
7
100
AcDbLine
 10
-127.739598
 20
148.459717
 30
0.0
 11
-137.739598
 21
148.459717
 31
0.0
  0
LINE
  5
279
100
AcDbEntity
  8
Layer_1
 62
7
100
AcDbLine
 10
-145.739596
 20
148.459717
 30
0.0
 11
-156.739597
 21
148.459717
 31
0.0
  0
LINE
  5
27a
100
AcDbEntity
  8
Layer_1
 62
7
100
AcDbLine
 10
-164.739597
 20
148.459717
 30
0.0
 11
-174.739597
 21
148.459717
 31
0.0
  0
LINE
  5
27b
100
AcDbEntity
  8
Layer_1
 62
7
100
AcDbLine
 10
-103.068240
 20
148.484123
 30
0.0
 11
-103.068240
 21
151.484123
 31
0.0
  0
LINE
  5
27c
100
AcDbEntity
  8
Layer_1
 62
7
100
AcDbLine
 10
-103.068240
 20
151.484123
 30
0.0
 11
-111.068240
 21
151.484123
 31
0.0
  0
LINE
  5
27d
100
AcDbEntity
  8
Layer_1
 62
7
100
AcDbLine
 10
-111.068240
 20
151.484123
 30
0.0
 11
-111.068240
 21
148.484123
 31
0.0
  0
SPLINE
  5
27e
100
AcDbEntity
  8
Layer_1
 62
5
100
AcDbSpline
 70
8
 71
3
 72
8
 73
4
 74
0
 40
0
 40
0
 40
0
 40
0
 40
1
 40
1
 40
1
 40
1
 10
-83.568239
 20
134.984122
 30
0.0
 10
-83.568239
 20
136.413185
 30
0.0
 10
-84.330635
 20
137.733693
 30
0.0
 10
-85.568239
 20
138.448224
 30
0.0
  0
SPLINE
  5
27f
100
AcDbEntity
  8
Layer_1
 62
5
100
AcDbSpline
 70
8
 71
3
 72
8
 73
4
 74
0
 40
0
 40
0
 40
0
 40
0
 40
1
 40
1
 40
1
 40
1
 10
-85.568239
 20
138.448224
 30
0.0
 10
-86.805844
 20
139.162756
 30
0.0
 10
-88.330635
 20
139.162756
 30
0.0
 10
-89.568240
 20
138.448224
 30
0.0
  0
SPLINE
  5
280
100
AcDbEntity
  8
Layer_1
 62
5
100
AcDbSpline
 70
8
 71
3
 72
8
 73
4
 74
0
 40
0
 40
0
 40
0
 40
0
 40
1
 40
1
 40
1
 40
1
 10
-89.568240
 20
138.448224
 30
0.0
 10
-90.805844
 20
137.733693
 30
0.0
 10
-91.568240
 20
136.413185
 30
0.0
 10
-91.568240
 20
134.984122
 30
0.0
  0
SPLINE
  5
281
100
AcDbEntity
  8
Layer_1
 62
5
100
AcDbSpline
 70
8
 71
3
 72
8
 73
4
 74
0
 40
0
 40
0
 40
0
 40
0
 40
1
 40
1
 40
1
 40
1
 10
-91.568240
 20
134.984122
 30
0.0
 10
-91.568240
 20
133.555060
 30
0.0
 10
-90.805844
 20
132.234552
 30
0.0
 10
-89.568240
 20
131.520020
 30
0.0
  0
SPLINE
  5
282
100
AcDbEntity
  8
Layer_1
 62
5
100
AcDbSpline
 70
8
 71
3
 72
8
 73
4
 74
0
 40
0
 40
0
 40
0
 40
0
 40
1
 40
1
 40
1
 40
1
 10
-89.568240
 20
131.520020
 30
0.0
 10
-88.330635
 20
130.805489
 30
0.0
 10
-86.805844
 20
130.805489
 30
0.0
 10
-85.568239
 20
131.520020
 30
0.0
  0
SPLINE
  5
283
100
AcDbEntity
  8
Layer_1
 62
5
100
AcDbSpline
 70
8
 71
3
 72
8
 73
4
 74
0
 40
0
 40
0
 40
0
 40
0
 40
1
 40
1
 40
1
 40
1
 10
-85.568239
 20
131.520020
 30
0.0
 10
-84.330635
 20
132.234552
 30
0.0
 10
-83.568239
 20
133.555060
 30
0.0
 10
-83.568239
 20
134.984122
 30
0.0
  0
LINE
  5
284
100
AcDbEntity
  8
Layer_1
 62
5
100
AcDbLine
 10
-83.568239
 20
134.984122
 30
0.0
 11
-83.568239
 21
134.984122
 31
0.0
  0
SPLINE
  5
285
100
AcDbEntity
  8
Layer_1
 62
5
100
AcDbSpline
 70
8
 71
3
 72
8
 73
4
 74
0
 40
0
 40
0
 40
0
 40
0
 40
1
 40
1
 40
1
 40
1
 10
-103.568240
 20
114.984111
 30
0.0
 10
-103.567860
 20
116.413427
 30
0.0
 10
-104.330173
 20
117.734331
 30
0.0
 10
-105.567933
 20
118.449099
 30
0.0
  0
SPLINE
  5
286
100
AcDbEntity
  8
Layer_1
 62
5
100
AcDbSpline
 70
8
 71
3
 72
8
 73
4
 74
0
 40
0
 40
0
 40
0
 40
0
 40
1
 40
1
 40
1
 40
1
 10
-105.567933
 20
118.449099
 30
0.0
 10
-106.805694
 20
119.163866
 30
0.0
 10
-108.330787
 20
119.163866
 30
0.0
 10
-109.568547
 20
118.449099
 30
0.0
  0
SPLINE
  5
287
100
AcDbEntity
  8
Layer_1
 62
5
100
AcDbSpline
 70
8
 71
3
 72
8
 73
4
 74
0
 40
0
 40
0
 40
0
 40
0
 40
1
 40
1
 40
1
 40
1
 10
-109.568547
 20
118.449099
 30
0.0
 10
-110.806307
 20
117.734331
 30
0.0
 10
-111.568620
 20
116.413427
 30
0.0
 10
-111.568240
 20
114.984111
 30
0.0
  0
SPLINE
  5
288
100
AcDbEntity
  8
Layer_1
 62
5
100
AcDbSpline
 70
8
 71
3
 72
8
 73
4
 74
0
 40
0
 40
0
 40
0
 40
0
 40
1
 40
1
 40
1
 40
1
 10
-111.568240
 20
114.984111
 30
0.0
 10
-111.568620
 20
113.554796
 30
0.0
 10
-110.806307
 20
112.233892
 30
0.0
 10
-109.568547
 20
111.519124
 30
0.0
  0
SPLINE
  5
289
100
AcDbEntity
  8
Layer_1
 62
5
100
AcDbSpline
 70
8
 71
3
 72
8
 73
4
 74
0
 40
0
 40
0
 40
0
 40
0
 40
1
 40
1
 40
1
 40
1
 10
-109.568547
 20
111.519124
 30
0.0
 10
-108.330787
 20
110.804357
 30
0.0
 10
-106.805694
 20
110.804357
 30
0.0
 10
-105.567933
 20
111.519124
 30
0.0
  0
SPLINE
  5
28a
100
AcDbEntity
  8
Layer_1
 62
5
100
AcDbSpline
 70
8
 71
3
 72
8
 73
4
 74
0
 40
0
 40
0
 40
0
 40
0
 40
1
 40
1
 40
1
 40
1
 10
-105.567933
 20
111.519124
 30
0.0
 10
-104.330173
 20
112.233892
 30
0.0
 10
-103.567860
 20
113.554796
 30
0.0
 10
-103.568240
 20
114.984111
 30
0.0
  0
LINE
  5
28b
100
AcDbEntity
  8
Layer_1
 62
5
100
AcDbLine
 10
-103.568240
 20
114.984111
 30
0.0
 11
-103.568240
 21
114.984111
 31
0.0
  0
LINE
  5
28c
100
AcDbEntity
  8
Layer_1
 62
7
100
AcDbLine
 10
-92.068239
 20
148.484123
 30
0.0
 11
-92.068239
 21
151.484123
 31
0.0
  0
LINE
  5
28d
100
AcDbEntity
  8
Layer_1
 62
7
100
AcDbLine
 10
-92.068239
 20
151.484123
 30
0.0
 11
-84.068241
 21
151.484123
 31
0.0
  0
LINE
  5
28e
100
AcDbEntity
  8
Layer_1
 62
7
100
AcDbLine
 10
-84.068241
 20
151.484123
 30
0.0
 11
-84.068241
 21
148.484123
 31
0.0
  0
LINE
  5
28f
100
AcDbEntity
  8
Layer_1
 62
7
100
AcDbLine
 10
-124.068240
 20
119.484122
 30
0.0
 11
-124.068240
 21
111.484133
 31
0.0
  0
LINE
  5
290
100
AcDbEntity
  8
Layer_1
 62
7
100
AcDbLine
 10
-124.068240
 20
111.484133
 30
0.0
 11
-121.068240
 21
111.484133
 31
0.0
  0
LINE
  5
291
100
AcDbEntity
  8
Layer_1
 62
7
100
AcDbLine
 10
-121.068240
 20
119.484122
 30
0.0
 11
-124.068240
 21
119.484122
 31
0.0
  0
LINE
  5
292
100
AcDbEntity
  8
Layer_1
 62
7
100
AcDbLine
 10
-121.068240
 20
130.484123
 30
0.0
 11
-124.068240
 21
130.484123
 31
0.0
  0
LINE
  5
293
100
AcDbEntity
  8
Layer_1
 62
7
100
AcDbLine
 10
-124.068240
 20
130.484123
 30
0.0
 11
-124.068240
 21
138.484124
 31
0.0
  0
LINE
  5
294
100
AcDbEntity
  8
Layer_1
 62
7
100
AcDbLine
 10
-124.068240
 20
138.484124
 30
0.0
 11
-121.068240
 21
138.484124
 31
0.0
  0
LINE
  5
295
100
AcDbEntity
  8
Layer_1
 62
7
100
AcDbLine
 10
-92.068239
 20
98.484130
 30
0.0
 11
-84.068241
 21
98.484130
 31
0.0
  0
LINE
  5
296
100
AcDbEntity
  8
Layer_1
 62
7
100
AcDbLine
 10
-84.068241
 20
98.484130
 30
0.0
 11
-84.068241
 21
101.484124
 31
0.0
  0
LINE
  5
297
100
AcDbEntity
  8
Layer_1
 62
7
100
AcDbLine
 10
-92.068239
 20
101.484124
 30
0.0
 11
-92.068239
 21
98.484130
 31
0.0
  0
LINE
  5
298
100
AcDbEntity
  8
Layer_1
 62
7
100
AcDbLine
 10
-103.068240
 20
101.484124
 30
0.0
 11
-103.068240
 21
98.484130
 31
0.0
  0
LINE
  5
299
100
AcDbEntity
  8
Layer_1
 62
7
100
AcDbLine
 10
-103.068240
 20
98.484130
 30
0.0
 11
-111.068240
 21
98.484130
 31
0.0
  0
LINE
  5
29a
100
AcDbEntity
  8
Layer_1
 62
7
100
AcDbLine
 10
-111.068240
 20
98.484130
 30
0.0
 11
-111.068240
 21
101.484124
 31
0.0
  0
LINE
  5
29b
100
AcDbEntity
  8
Layer_1
 62
7
100
AcDbLine
 10
-71.068241
 20
130.484123
 30
0.0
 11
-71.068241
 21
138.484124
 31
0.0
  0
LINE
  5
29c
100
AcDbEntity
  8
Layer_1
 62
7
100
AcDbLine
 10
-71.068241
 20
138.484124
 30
0.0
 11
-74.068241
 21
138.484124
 31
0.0
  0
LINE
  5
29d
100
AcDbEntity
  8
Layer_1
 62
7
100
AcDbLine
 10
-74.068241
 20
130.484123
 30
0.0
 11
-71.068241
 21
130.484123
 31
0.0
  0
LINE
  5
29e
100
AcDbEntity
  8
Layer_1
 62
7
100
AcDbLine
 10
-74.068241
 20
119.484122
 30
0.0
 11
-71.068241
 21
119.484122
 31
0.0
  0
LINE
  5
29f
100
AcDbEntity
  8
Layer_1
 62
7
100
AcDbLine
 10
-71.068241
 20
119.484122
 30
0.0
 11
-71.068241
 21
111.484133
 31
0.0
  0
LINE
  5
2a0
100
AcDbEntity
  8
Layer_1
 62
7
100
AcDbLine
 10
-71.068241
 20
111.484133
 30
0.0
 11
-74.068241
 21
111.484133
 31
0.0
  0
LINE
  5
2a1
100
AcDbEntity
  8
Layer_1
 62
7
100
AcDbLine
 10
-111.068240
 20
148.484123
 30
0.0
 11
-121.068240
 21
148.484123
 31
0.0
  0
LINE
  5
2a2
100
AcDbEntity
  8
Layer_1
 62
7
100
AcDbLine
 10
-121.068240
 20
148.484123
 30
0.0
 11
-121.068240
 21
138.484124
 31
0.0
  0
LINE
  5
2a3
100
AcDbEntity
  8
Layer_1
 62
7
100
AcDbLine
 10
-121.068240
 20
130.484123
 30
0.0
 11
-121.068240
 21
119.484122
 31
0.0
  0
LINE
  5
2a4
100
AcDbEntity
  8
Layer_1
 62
7
100
AcDbLine
 10
-121.068240
 20
111.484133
 30
0.0
 11
-121.068240
 21
101.484124
 31
0.0
  0
LINE
  5
2a5
100
AcDbEntity
  8
Layer_1
 62
7
100
AcDbLine
 10
-121.068240
 20
101.484124
 30
0.0
 11
-111.068240
 21
101.484124
 31
0.0
  0
LINE
  5
2a6
100
AcDbEntity
  8
Layer_1
 62
7
100
AcDbLine
 10
-103.068240
 20
101.484124
 30
0.0
 11
-92.068239
 21
101.484124
 31
0.0
  0
LINE
  5
2a7
100
AcDbEntity
  8
Layer_1
 62
7
100
AcDbLine
 10
-84.068241
 20
101.484124
 30
0.0
 11
-74.068241
 21
101.484124
 31
0.0
  0
LINE
  5
2a8
100
AcDbEntity
  8
Layer_1
 62
7
100
AcDbLine
 10
-74.068241
 20
101.484124
 30
0.0
 11
-74.068241
 21
111.484133
 31
0.0
  0
LINE
  5
2a9
100
AcDbEntity
  8
Layer_1
 62
7
100
AcDbLine
 10
-74.068241
 20
119.484122
 30
0.0
 11
-74.068241
 21
130.484123
 31
0.0
  0
LINE
  5
2aa
100
AcDbEntity
  8
Layer_1
 62
7
100
AcDbLine
 10
-74.068241
 20
138.484124
 30
0.0
 11
-74.068241
 21
148.484123
 31
0.0
  0
LINE
  5
2ab
100
AcDbEntity
  8
Layer_1
 62
7
100
AcDbLine
 10
-74.068241
 20
148.484123
 30
0.0
 11
-84.068241
 21
148.484123
 31
0.0
  0
LINE
  5
2ac
100
AcDbEntity
  8
Layer_1
 62
7
100
AcDbLine
 10
-92.068239
 20
148.484123
 30
0.0
 11
-103.068240
 21
148.484123
 31
0.0
  0
LINE
  5
2ad
100
AcDbEntity
  8
Layer_1
 62
7
100
AcDbLine
 10
-111.068240
 20
148.484123
 30
0.0
 11
-121.068240
 21
148.484123
 31
0.0
  0
LINE
  5
2ae
100
AcDbEntity
  8
Layer_1
 62
7
100
AcDbLine
 10
-49.307751
 20
94.439372
 30
0.0
 11
-49.307751
 21
97.439372
 31
0.0
  0
LINE
  5
2af
100
AcDbEntity
  8
Layer_1
 62
7
100
AcDbLine
 10
-49.307751
 20
97.439372
 30
0.0
 11
-57.307751
 21
97.439372
 31
0.0
  0
LINE
  5
2b0
100
AcDbEntity
  8
Layer_1
 62
7
100
AcDbLine
 10
-57.307751
 20
97.439372
 30
0.0
 11
-57.307751
 21
94.439372
 31
0.0
  0
LINE
  5
2b1
100
AcDbEntity
  8
Layer_1
 62
7
100
AcDbLine
 10
-38.307749
 20
94.439372
 30
0.0
 11
-38.307749
 21
97.439372
 31
0.0
  0
LINE
  5
2b2
100
AcDbEntity
  8
Layer_1
 62
7
100
AcDbLine
 10
-38.307749
 20
97.439372
 30
0.0
 11
-30.307751
 21
97.439372
 31
0.0
  0
LINE
  5
2b3
100
AcDbEntity
  8
Layer_1
 62
7
100
AcDbLine
 10
-30.307751
 20
97.439372
 30
0.0
 11
-30.307751
 21
94.439372
 31
0.0
  0
LINE
  5
2b4
100
AcDbEntity
  8
Layer_1
 62
7
100
AcDbLine
 10
-70.307751
 20
65.439371
 30
0.0
 11
-70.307751
 21
57.439381
 31
0.0
  0
LINE
  5
2b5
100
AcDbEntity
  8
Layer_1
 62
7
100
AcDbLine
 10
-70.307751
 20
57.439381
 30
0.0
 11
-67.307751
 21
57.439381
 31
0.0
  0
LINE
  5
2b6
100
AcDbEntity
  8
Layer_1
 62
7
100
AcDbLine
 10
-67.307751
 20
65.439371
 30
0.0
 11
-70.307751
 21
65.439371
 31
0.0
  0
LINE
  5
2b7
100
AcDbEntity
  8
Layer_1
 62
7
100
AcDbLine
 10
-67.307751
 20
76.439372
 30
0.0
 11
-70.307751
 21
76.439372
 31
0.0
  0
LINE
  5
2b8
100
AcDbEntity
  8
Layer_1
 62
7
100
AcDbLine
 10
-70.307751
 20
76.439372
 30
0.0
 11
-70.307751
 21
84.439373
 31
0.0
  0
LINE
  5
2b9
100
AcDbEntity
  8
Layer_1
 62
7
100
AcDbLine
 10
-70.307751
 20
84.439373
 30
0.0
 11
-67.307751
 21
84.439373
 31
0.0
  0
LINE
  5
2ba
100
AcDbEntity
  8
Layer_1
 62
7
100
AcDbLine
 10
-38.307749
 20
44.439379
 30
0.0
 11
-30.307751
 21
44.439379
 31
0.0
  0
LINE
  5
2bb
100
AcDbEntity
  8
Layer_1
 62
7
100
AcDbLine
 10
-30.307751
 20
44.439379
 30
0.0
 11
-30.307751
 21
47.439373
 31
0.0
  0
LINE
  5
2bc
100
AcDbEntity
  8
Layer_1
 62
7
100
AcDbLine
 10
-38.307749
 20
47.439373
 30
0.0
 11
-38.307749
 21
44.439379
 31
0.0
  0
LINE
  5
2bd
100
AcDbEntity
  8
Layer_1
 62
7
100
AcDbLine
 10
-49.307751
 20
47.439373
 30
0.0
 11
-49.307751
 21
44.439379
 31
0.0
  0
LINE
  5
2be
100
AcDbEntity
  8
Layer_1
 62
7
100
AcDbLine
 10
-49.307751
 20
44.439379
 30
0.0
 11
-57.307751
 21
44.439379
 31
0.0
  0
LINE
  5
2bf
100
AcDbEntity
  8
Layer_1
 62
7
100
AcDbLine
 10
-57.307751
 20
44.439379
 30
0.0
 11
-57.307751
 21
47.439373
 31
0.0
  0
LINE
  5
2c0
100
AcDbEntity
  8
Layer_1
 62
7
100
AcDbLine
 10
-17.307752
 20
76.439372
 30
0.0
 11
-17.307752
 21
84.439373
 31
0.0
  0
LINE
  5
2c1
100
AcDbEntity
  8
Layer_1
 62
7
100
AcDbLine
 10
-17.307752
 20
84.439373
 30
0.0
 11
-20.307752
 21
84.439373
 31
0.0
  0
LINE
  5
2c2
100
AcDbEntity
  8
Layer_1
 62
7
100
AcDbLine
 10
-20.307752
 20
76.439372
 30
0.0
 11
-17.307752
 21
76.439372
 31
0.0
  0
LINE
  5
2c3
100
AcDbEntity
  8
Layer_1
 62
7
100
AcDbLine
 10
-20.307752
 20
65.439371
 30
0.0
 11
-17.307752
 21
65.439371
 31
0.0
  0
LINE
  5
2c4
100
AcDbEntity
  8
Layer_1
 62
7
100
AcDbLine
 10
-17.307752
 20
65.439371
 30
0.0
 11
-17.307752
 21
57.439381
 31
0.0
  0
LINE
  5
2c5
100
AcDbEntity
  8
Layer_1
 62
7
100
AcDbLine
 10
-17.307752
 20
57.439381
 30
0.0
 11
-20.307752
 21
57.439381
 31
0.0
  0
SPLINE
  5
2c6
100
AcDbEntity
  8
Layer_1
 62
5
100
AcDbSpline
 70
8
 71
3
 72
8
 73
4
 74
0
 40
0
 40
0
 40
0
 40
0
 40
1
 40
1
 40
1
 40
1
 10
-32.307750
 20
70.939371
 30
0.0
 10
-32.307750
 20
75.047926
 30
0.0
 10
-34.499638
 20
78.844386
 30
0.0
 10
-38.057750
 20
80.898664
 30
0.0
  0
SPLINE
  5
2c7
100
AcDbEntity
  8
Layer_1
 62
5
100
AcDbSpline
 70
8
 71
3
 72
8
 73
4
 74
0
 40
0
 40
0
 40
0
 40
0
 40
1
 40
1
 40
1
 40
1
 10
-38.057750
 20
80.898664
 30
0.0
 10
-41.615863
 20
82.952941
 30
0.0
 10
-45.999638
 20
82.952941
 30
0.0
 10
-49.557750
 20
80.898664
 30
0.0
  0
SPLINE
  5
2c8
100
AcDbEntity
  8
Layer_1
 62
5
100
AcDbSpline
 70
8
 71
3
 72
8
 73
4
 74
0
 40
0
 40
0
 40
0
 40
0
 40
1
 40
1
 40
1
 40
1
 10
-49.557750
 20
80.898664
 30
0.0
 10
-53.115863
 20
78.844386
 30
0.0
 10
-55.307751
 20
75.047926
 30
0.0
 10
-55.307750
 20
70.939371
 30
0.0
  0
SPLINE
  5
2c9
100
AcDbEntity
  8
Layer_1
 62
5
100
AcDbSpline
 70
8
 71
3
 72
8
 73
4
 74
0
 40
0
 40
0
 40
0
 40
0
 40
1
 40
1
 40
1
 40
1
 10
-55.307750
 20
70.939371
 30
0.0
 10
-55.307750
 20
66.830817
 30
0.0
 10
-53.115863
 20
63.034356
 30
0.0
 10
-49.557750
 20
60.980079
 30
0.0
  0
SPLINE
  5
2ca
100
AcDbEntity
  8
Layer_1
 62
5
100
AcDbSpline
 70
8
 71
3
 72
8
 73
4
 74
0
 40
0
 40
0
 40
0
 40
0
 40
1
 40
1
 40
1
 40
1
 10
-49.557750
 20
60.980079
 30
0.0
 10
-45.999638
 20
58.925802
 30
0.0
 10
-41.615863
 20
58.925802
 30
0.0
 10
-38.057750
 20
60.980079
 30
0.0
  0
SPLINE
  5
2cb
100
AcDbEntity
  8
Layer_1
 62
5
100
AcDbSpline
 70
8
 71
3
 72
8
 73
4
 74
0
 40
0
 40
0
 40
0
 40
0
 40
1
 40
1
 40
1
 40
1
 10
-38.057750
 20
60.980079
 30
0.0
 10
-34.499638
 20
63.034356
 30
0.0
 10
-32.307750
 20
66.830817
 30
0.0
 10
-32.307750
 20
70.939371
 30
0.0
  0
LINE
  5
2cc
100
AcDbEntity
  8
Layer_1
 62
5
100
AcDbLine
 10
-32.307750
 20
70.939371
 30
0.0
 11
-32.307750
 21
70.939371
 31
0.0
  0
SPLINE
  5
2cd
100
AcDbEntity
  8
Layer_1
 62
5
100
AcDbSpline
 70
8
 71
3
 72
8
 73
4
 74
0
 40
0
 40
0
 40
0
 40
0
 40
1
 40
1
 40
1
 40
1
 10
-26.557752
 20
55.439385
 30
0.0
 10
-26.557190
 20
56.064974
 30
0.0
 10
-26.890615
 20
56.643283
 30
0.0
 10
-27.432297
 20
56.956239
 30
0.0
  0
SPLINE
  5
2ce
100
AcDbEntity
  8
Layer_1
 62
5
100
AcDbSpline
 70
8
 71
3
 72
8
 73
4
 74
0
 40
0
 40
0
 40
0
 40
0
 40
1
 40
1
 40
1
 40
1
 10
-27.432297
 20
56.956239
 30
0.0
 10
-27.973980
 20
57.269196
 30
0.0
 10
-28.641522
 20
57.269196
 30
0.0
 10
-29.183205
 20
56.956239
 30
0.0
  0
SPLINE
  5
2cf
100
AcDbEntity
  8
Layer_1
 62
5
100
AcDbSpline
 70
8
 71
3
 72
8
 73
4
 74
0
 40
0
 40
0
 40
0
 40
0
 40
1
 40
1
 40
1
 40
1
 10
-29.183205
 20
56.956239
 30
0.0
 10
-29.724887
 20
56.643283
 30
0.0
 10
-30.058312
 20
56.064974
 30
0.0
 10
-30.057750
 20
55.439385
 30
0.0
  0
SPLINE
  5
2d0
100
AcDbEntity
  8
Layer_1
 62
5
100
AcDbSpline
 70
8
 71
3
 72
8
 73
4
 74
0
 40
0
 40
0
 40
0
 40
0
 40
1
 40
1
 40
1
 40
1
 10
-30.057750
 20
55.439385
 30
0.0
 10
-30.058312
 20
54.813797
 30
0.0
 10
-29.724887
 20
54.235488
 30
0.0
 10
-29.183205
 20
53.922531
 30
0.0
  0
SPLINE
  5
2d1
100
AcDbEntity
  8
Layer_1
 62
5
100
AcDbSpline
 70
8
 71
3
 72
8
 73
4
 74
0
 40
0
 40
0
 40
0
 40
0
 40
1
 40
1
 40
1
 40
1
 10
-29.183205
 20
53.922531
 30
0.0
 10
-28.641522
 20
53.609575
 30
0.0
 10
-27.973980
 20
53.609575
 30
0.0
 10
-27.432297
 20
53.922531
 30
0.0
  0
SPLINE
  5
2d2
100
AcDbEntity
  8
Layer_1
 62
5
100
AcDbSpline
 70
8
 71
3
 72
8
 73
4
 74
0
 40
0
 40
0
 40
0
 40
0
 40
1
 40
1
 40
1
 40
1
 10
-27.432297
 20
53.922531
 30
0.0
 10
-26.890615
 20
54.235488
 30
0.0
 10
-26.557190
 20
54.813797
 30
0.0
 10
-26.557752
 20
55.439385
 30
0.0
  0
LINE
  5
2d3
100
AcDbEntity
  8
Layer_1
 62
5
100
AcDbLine
 10
-26.557752
 20
55.439385
 30
0.0
 11
-26.557752
 21
55.439385
 31
0.0
  0
SPLINE
  5
2d4
100
AcDbEntity
  8
Layer_1
 62
5
100
AcDbSpline
 70
8
 71
3
 72
8
 73
4
 74
0
 40
0
 40
0
 40
0
 40
0
 40
1
 40
1
 40
1
 40
1
 10
-26.557752
 20
86.439371
 30
0.0
 10
-26.557190
 20
87.064960
 30
0.0
 10
-26.890615
 20
87.643269
 30
0.0
 10
-27.432297
 20
87.956225
 30
0.0
  0
SPLINE
  5
2d5
100
AcDbEntity
  8
Layer_1
 62
5
100
AcDbSpline
 70
8
 71
3
 72
8
 73
4
 74
0
 40
0
 40
0
 40
0
 40
0
 40
1
 40
1
 40
1
 40
1
 10
-27.432297
 20
87.956225
 30
0.0
 10
-27.973980
 20
88.269182
 30
0.0
 10
-28.641522
 20
88.269182
 30
0.0
 10
-29.183205
 20
87.956225
 30
0.0
  0
SPLINE
  5
2d6
100
AcDbEntity
  8
Layer_1
 62
5
100
AcDbSpline
 70
8
 71
3
 72
8
 73
4
 74
0
 40
0
 40
0
 40
0
 40
0
 40
1
 40
1
 40
1
 40
1
 10
-29.183205
 20
87.956225
 30
0.0
 10
-29.724887
 20
87.643269
 30
0.0
 10
-30.058312
 20
87.064960
 30
0.0
 10
-30.057750
 20
86.439371
 30
0.0
  0
SPLINE
  5
2d7
100
AcDbEntity
  8
Layer_1
 62
5
100
AcDbSpline
 70
8
 71
3
 72
8
 73
4
 74
0
 40
0
 40
0
 40
0
 40
0
 40
1
 40
1
 40
1
 40
1
 10
-30.057750
 20
86.439371
 30
0.0
 10
-30.058312
 20
85.813782
 30
0.0
 10
-29.724887
 20
85.235474
 30
0.0
 10
-29.183205
 20
84.922517
 30
0.0
  0
SPLINE
  5
2d8
100
AcDbEntity
  8
Layer_1
 62
5
100
AcDbSpline
 70
8
 71
3
 72
8
 73
4
 74
0
 40
0
 40
0
 40
0
 40
0
 40
1
 40
1
 40
1
 40
1
 10
-29.183205
 20
84.922517
 30
0.0
 10
-28.641522
 20
84.609561
 30
0.0
 10
-27.973980
 20
84.609561
 30
0.0
 10
-27.432297
 20
84.922517
 30
0.0
  0
SPLINE
  5
2d9
100
AcDbEntity
  8
Layer_1
 62
5
100
AcDbSpline
 70
8
 71
3
 72
8
 73
4
 74
0
 40
0
 40
0
 40
0
 40
0
 40
1
 40
1
 40
1
 40
1
 10
-27.432297
 20
84.922517
 30
0.0
 10
-26.890615
 20
85.235474
 30
0.0
 10
-26.557190
 20
85.813782
 30
0.0
 10
-26.557752
 20
86.439371
 30
0.0
  0
LINE
  5
2da
100
AcDbEntity
  8
Layer_1
 62
5
100
AcDbLine
 10
-26.557752
 20
86.439371
 30
0.0
 11
-26.557752
 21
86.439371
 31
0.0
  0
SPLINE
  5
2db
100
AcDbEntity
  8
Layer_1
 62
5
100
AcDbSpline
 70
8
 71
3
 72
8
 73
4
 74
0
 40
0
 40
0
 40
0
 40
0
 40
1
 40
1
 40
1
 40
1
 10
-57.557751
 20
86.439371
 30
0.0
 10
-57.557751
 20
87.064586
 30
0.0
 10
-57.891299
 20
87.642308
 30
0.0
 10
-58.432751
 20
87.954916
 30
0.0
  0
SPLINE
  5
2dc
100
AcDbEntity
  8
Layer_1
 62
5
100
AcDbSpline
 70
8
 71
3
 72
8
 73
4
 74
0
 40
0
 40
0
 40
0
 40
0
 40
1
 40
1
 40
1
 40
1
 10
-58.432751
 20
87.954916
 30
0.0
 10
-58.974203
 20
88.267523
 30
0.0
 10
-59.641299
 20
88.267523
 30
0.0
 10
-60.182751
 20
87.954916
 30
0.0
  0
SPLINE
  5
2dd
100
AcDbEntity
  8
Layer_1
 62
5
100
AcDbSpline
 70
8
 71
3
 72
8
 73
4
 74
0
 40
0
 40
0
 40
0
 40
0
 40
1
 40
1
 40
1
 40
1
 10
-60.182751
 20
87.954916
 30
0.0
 10
-60.724203
 20
87.642308
 30
0.0
 10
-61.057751
 20
87.064586
 30
0.0
 10
-61.057751
 20
86.439371
 30
0.0
  0
SPLINE
  5
2de
100
AcDbEntity
  8
Layer_1
 62
5
100
AcDbSpline
 70
8
 71
3
 72
8
 73
4
 74
0
 40
0
 40
0
 40
0
 40
0
 40
1
 40
1
 40
1
 40
1
 10
-61.057751
 20
86.439371
 30
0.0
 10
-61.057751
 20
85.814157
 30
0.0
 10
-60.724203
 20
85.236434
 30
0.0
 10
-60.182751
 20
84.923827
 30
0.0
  0
SPLINE
  5
2df
100
AcDbEntity
  8
Layer_1
 62
5
100
AcDbSpline
 70
8
 71
3
 72
8
 73
4
 74
0
 40
0
 40
0
 40
0
 40
0
 40
1
 40
1
 40
1
 40
1
 10
-60.182751
 20
84.923827
 30
0.0
 10
-59.641299
 20
84.611219
 30
0.0
 10
-58.974203
 20
84.611219
 30
0.0
 10
-58.432751
 20
84.923827
 30
0.0
  0
SPLINE
  5
2e0
100
AcDbEntity
  8
Layer_1
 62
5
100
AcDbSpline
 70
8
 71
3
 72
8
 73
4
 74
0
 40
0
 40
0
 40
0
 40
0
 40
1
 40
1
 40
1
 40
1
 10
-58.432751
 20
84.923827
 30
0.0
 10
-57.891299
 20
85.236434
 30
0.0
 10
-57.557751
 20
85.814157
 30
0.0
 10
-57.557751
 20
86.439371
 30
0.0
  0
LINE
  5
2e1
100
AcDbEntity
  8
Layer_1
 62
5
100
AcDbLine
 10
-57.557751
 20
86.439371
 30
0.0
 11
-57.557751
 21
86.439371
 31
0.0
  0
SPLINE
  5
2e2
100
AcDbEntity
  8
Layer_1
 62
5
100
AcDbSpline
 70
8
 71
3
 72
8
 73
4
 74
0
 40
0
 40
0
 40
0
 40
0
 40
1
 40
1
 40
1
 40
1
 10
-57.557751
 20
55.439385
 30
0.0
 10
-57.557751
 20
56.064600
 30
0.0
 10
-57.891299
 20
56.642322
 30
0.0
 10
-58.432751
 20
56.954930
 30
0.0
  0
SPLINE
  5
2e3
100
AcDbEntity
  8
Layer_1
 62
5
100
AcDbSpline
 70
8
 71
3
 72
8
 73
4
 74
0
 40
0
 40
0
 40
0
 40
0
 40
1
 40
1
 40
1
 40
1
 10
-58.432751
 20
56.954930
 30
0.0
 10
-58.974203
 20
57.267537
 30
0.0
 10
-59.641299
 20
57.267537
 30
0.0
 10
-60.182751
 20
56.954930
 30
0.0
  0
SPLINE
  5
2e4
100
AcDbEntity
  8
Layer_1
 62
5
100
AcDbSpline
 70
8
 71
3
 72
8
 73
4
 74
0
 40
0
 40
0
 40
0
 40
0
 40
1
 40
1
 40
1
 40
1
 10
-60.182751
 20
56.954930
 30
0.0
 10
-60.724203
 20
56.642322
 30
0.0
 10
-61.057751
 20
56.064600
 30
0.0
 10
-61.057751
 20
55.439385
 30
0.0
  0
SPLINE
  5
2e5
100
AcDbEntity
  8
Layer_1
 62
5
100
AcDbSpline
 70
8
 71
3
 72
8
 73
4
 74
0
 40
0
 40
0
 40
0
 40
0
 40
1
 40
1
 40
1
 40
1
 10
-61.057751
 20
55.439385
 30
0.0
 10
-61.057751
 20
54.814171
 30
0.0
 10
-60.724203
 20
54.236448
 30
0.0
 10
-60.182751
 20
53.923841
 30
0.0
  0
SPLINE
  5
2e6
100
AcDbEntity
  8
Layer_1
 62
5
100
AcDbSpline
 70
8
 71
3
 72
8
 73
4
 74
0
 40
0
 40
0
 40
0
 40
0
 40
1
 40
1
 40
1
 40
1
 10
-60.182751
 20
53.923841
 30
0.0
 10
-59.641299
 20
53.611233
 30
0.0
 10
-58.974203
 20
53.611233
 30
0.0
 10
-58.432751
 20
53.923841
 30
0.0
  0
SPLINE
  5
2e7
100
AcDbEntity
  8
Layer_1
 62
5
100
AcDbSpline
 70
8
 71
3
 72
8
 73
4
 74
0
 40
0
 40
0
 40
0
 40
0
 40
1
 40
1
 40
1
 40
1
 10
-58.432751
 20
53.923841
 30
0.0
 10
-57.891299
 20
54.236448
 30
0.0
 10
-57.557751
 20
54.814171
 30
0.0
 10
-57.557751
 20
55.439385
 30
0.0
  0
LINE
  5
2e8
100
AcDbEntity
  8
Layer_1
 62
5
100
AcDbLine
 10
-57.557751
 20
55.439385
 30
0.0
 11
-57.557751
 21
55.439385
 31
0.0
  0
LINE
  5
2e9
100
AcDbEntity
  8
Layer_1
 62
7
100
AcDbLine
 10
-57.307751
 20
94.439372
 30
0.0
 11
-67.307751
 21
94.439372
 31
0.0
  0
LINE
  5
2ea
100
AcDbEntity
  8
Layer_1
 62
7
100
AcDbLine
 10
-67.307751
 20
94.439372
 30
0.0
 11
-67.307751
 21
84.439373
 31
0.0
  0
LINE
  5
2eb
100
AcDbEntity
  8
Layer_1
 62
7
100
AcDbLine
 10
-67.307751
 20
76.439372
 30
0.0
 11
-67.307751
 21
65.439371
 31
0.0
  0
LINE
  5
2ec
100
AcDbEntity
  8
Layer_1
 62
7
100
AcDbLine
 10
-67.307751
 20
57.439381
 30
0.0
 11
-67.307751
 21
47.439373
 31
0.0
  0
LINE
  5
2ed
100
AcDbEntity
  8
Layer_1
 62
7
100
AcDbLine
 10
-67.307751
 20
47.439373
 30
0.0
 11
-57.307751
 21
47.439373
 31
0.0
  0
LINE
  5
2ee
100
AcDbEntity
  8
Layer_1
 62
7
100
AcDbLine
 10
-49.307751
 20
47.439373
 30
0.0
 11
-38.307749
 21
47.439373
 31
0.0
  0
LINE
  5
2ef
100
AcDbEntity
  8
Layer_1
 62
7
100
AcDbLine
 10
-30.307751
 20
47.439373
 30
0.0
 11
-20.307752
 21
47.439373
 31
0.0
  0
LINE
  5
2f0
100
AcDbEntity
  8
Layer_1
 62
7
100
AcDbLine
 10
-20.307752
 20
47.439373
 30
0.0
 11
-20.307752
 21
57.439381
 31
0.0
  0
LINE
  5
2f1
100
AcDbEntity
  8
Layer_1
 62
7
100
AcDbLine
 10
-20.307752
 20
65.439371
 30
0.0
 11
-20.307752
 21
76.439372
 31
0.0
  0
LINE
  5
2f2
100
AcDbEntity
  8
Layer_1
 62
7
100
AcDbLine
 10
-20.307752
 20
84.439373
 30
0.0
 11
-20.307752
 21
94.439372
 31
0.0
  0
LINE
  5
2f3
100
AcDbEntity
  8
Layer_1
 62
7
100
AcDbLine
 10
-20.307752
 20
94.439372
 30
0.0
 11
-30.307751
 21
94.439372
 31
0.0
  0
LINE
  5
2f4
100
AcDbEntity
  8
Layer_1
 62
7
100
AcDbLine
 10
-49.307751
 20
94.439372
 30
0.0
 11
-38.307749
 21
94.439372
 31
0.0
  0
LINE
  5
2f5
100
AcDbEntity
  8
Layer_1
 62
7
100
AcDbLine
 10
-57.307751
 20
47.439373
 30
0.0
 11
-57.307751
 21
44.439379
 31
0.0
  0
LINE
  5
2f6
100
AcDbEntity
  8
Layer_1
 62
7
100
AcDbLine
 10
-57.307751
 20
44.439379
 30
0.0
 11
-49.307751
 21
44.439379
 31
0.0
  0
LINE
  5
2f7
100
AcDbEntity
  8
Layer_1
 62
7
100
AcDbLine
 10
-49.307751
 20
44.439379
 30
0.0
 11
-49.307751
 21
47.439373
 31
0.0
  0
LINE
  5
2f8
100
AcDbEntity
  8
Layer_1
 62
7
100
AcDbLine
 10
-38.307749
 20
47.439373
 30
0.0
 11
-38.307749
 21
44.439379
 31
0.0
  0
LINE
  5
2f9
100
AcDbEntity
  8
Layer_1
 62
7
100
AcDbLine
 10
-38.307749
 20
44.439379
 30
0.0
 11
-30.307751
 21
44.439379
 31
0.0
  0
LINE
  5
2fa
100
AcDbEntity
  8
Layer_1
 62
7
100
AcDbLine
 10
-30.307751
 20
44.439379
 30
0.0
 11
-30.307751
 21
47.439373
 31
0.0
  0
LINE
  5
2fb
100
AcDbEntity
  8
Layer_1
 62
7
100
AcDbLine
 10
-156.828751
 20
94.453675
 30
0.0
 11
-156.828751
 21
97.453675
 31
0.0
  0
LINE
  5
2fc
100
AcDbEntity
  8
Layer_1
 62
7
100
AcDbLine
 10
-156.828751
 20
97.453675
 30
0.0
 11
-164.828751
 21
97.453675
 31
0.0
  0
LINE
  5
2fd
100
AcDbEntity
  8
Layer_1
 62
7
100
AcDbLine
 10
-164.828751
 20
97.453675
 30
0.0
 11
-164.828751
 21
94.453675
 31
0.0
  0
SPLINE
  5
2fe
100
AcDbEntity
  8
Layer_1
 62
5
100
AcDbSpline
 70
8
 71
3
 72
8
 73
4
 74
0
 40
0
 40
0
 40
0
 40
0
 40
1
 40
1
 40
1
 40
1
 10
-137.328750
 20
80.953674
 30
0.0
 10
-137.328750
 20
82.382737
 30
0.0
 10
-138.091146
 20
83.703245
 30
0.0
 10
-139.328750
 20
84.417776
 30
0.0
  0
SPLINE
  5
2ff
100
AcDbEntity
  8
Layer_1
 62
5
100
AcDbSpline
 70
8
 71
3
 72
8
 73
4
 74
0
 40
0
 40
0
 40
0
 40
0
 40
1
 40
1
 40
1
 40
1
 10
-139.328750
 20
84.417776
 30
0.0
 10
-140.566355
 20
85.132307
 30
0.0
 10
-142.091146
 20
85.132307
 30
0.0
 10
-143.328751
 20
84.417776
 30
0.0
  0
SPLINE
  5
300
100
AcDbEntity
  8
Layer_1
 62
5
100
AcDbSpline
 70
8
 71
3
 72
8
 73
4
 74
0
 40
0
 40
0
 40
0
 40
0
 40
1
 40
1
 40
1
 40
1
 10
-143.328751
 20
84.417776
 30
0.0
 10
-144.566355
 20
83.703245
 30
0.0
 10
-145.328751
 20
82.382737
 30
0.0
 10
-145.328751
 20
80.953674
 30
0.0
  0
SPLINE
  5
301
100
AcDbEntity
  8
Layer_1
 62
5
100
AcDbSpline
 70
8
 71
3
 72
8
 73
4
 74
0
 40
0
 40
0
 40
0
 40
0
 40
1
 40
1
 40
1
 40
1
 10
-145.328751
 20
80.953674
 30
0.0
 10
-145.328751
 20
79.524612
 30
0.0
 10
-144.566355
 20
78.204103
 30
0.0
 10
-143.328751
 20
77.489572
 30
0.0
  0
SPLINE
  5
302
100
AcDbEntity
  8
Layer_1
 62
5
100
AcDbSpline
 70
8
 71
3
 72
8
 73
4
 74
0
 40
0
 40
0
 40
0
 40
0
 40
1
 40
1
 40
1
 40
1
 10
-143.328751
 20
77.489572
 30
0.0
 10
-142.091146
 20
76.775041
 30
0.0
 10
-140.566355
 20
76.775041
 30
0.0
 10
-139.328750
 20
77.489572
 30
0.0
  0
SPLINE
  5
303
100
AcDbEntity
  8
Layer_1
 62
5
100
AcDbSpline
 70
8
 71
3
 72
8
 73
4
 74
0
 40
0
 40
0
 40
0
 40
0
 40
1
 40
1
 40
1
 40
1
 10
-139.328750
 20
77.489572
 30
0.0
 10
-138.091146
 20
78.204103
 30
0.0
 10
-137.328750
 20
79.524612
 30
0.0
 10
-137.328750
 20
80.953674
 30
0.0
  0
LINE
  5
304
100
AcDbEntity
  8
Layer_1
 62
5
100
AcDbLine
 10
-137.328750
 20
80.953674
 30
0.0
 11
-137.328750
 21
80.953674
 31
0.0
  0
SPLINE
  5
305
100
AcDbEntity
  8
Layer_1
 62
5
100
AcDbSpline
 70
8
 71
3
 72
8
 73
4
 74
0
 40
0
 40
0
 40
0
 40
0
 40
1
 40
1
 40
1
 40
1
 10
-157.328751
 20
60.953663
 30
0.0
 10
-157.328372
 20
62.382979
 30
0.0
 10
-158.090684
 20
63.703883
 30
0.0
 10
-159.328444
 20
64.418650
 30
0.0
  0
SPLINE
  5
306
100
AcDbEntity
  8
Layer_1
 62
5
100
AcDbSpline
 70
8
 71
3
 72
8
 73
4
 74
0
 40
0
 40
0
 40
0
 40
0
 40
1
 40
1
 40
1
 40
1
 10
-159.328444
 20
64.418650
 30
0.0
 10
-160.566205
 20
65.133418
 30
0.0
 10
-162.091298
 20
65.133418
 30
0.0
 10
-163.329058
 20
64.418650
 30
0.0
  0
SPLINE
  5
307
100
AcDbEntity
  8
Layer_1
 62
5
100
AcDbSpline
 70
8
 71
3
 72
8
 73
4
 74
0
 40
0
 40
0
 40
0
 40
0
 40
1
 40
1
 40
1
 40
1
 10
-163.329058
 20
64.418650
 30
0.0
 10
-164.566818
 20
63.703883
 30
0.0
 10
-165.329131
 20
62.382979
 30
0.0
 10
-165.328751
 20
60.953663
 30
0.0
  0
SPLINE
  5
308
100
AcDbEntity
  8
Layer_1
 62
5
100
AcDbSpline
 70
8
 71
3
 72
8
 73
4
 74
0
 40
0
 40
0
 40
0
 40
0
 40
1
 40
1
 40
1
 40
1
 10
-165.328751
 20
60.953663
 30
0.0
 10
-165.329131
 20
59.524348
 30
0.0
 10
-164.566818
 20
58.203443
 30
0.0
 10
-163.329058
 20
57.488676
 30
0.0
  0
SPLINE
  5
309
100
AcDbEntity
  8
Layer_1
 62
5
100
AcDbSpline
 70
8
 71
3
 72
8
 73
4
 74
0
 40
0
 40
0
 40
0
 40
0
 40
1
 40
1
 40
1
 40
1
 10
-163.329058
 20
57.488676
 30
0.0
 10
-162.091298
 20
56.773909
 30
0.0
 10
-160.566205
 20
56.773909
 30
0.0
 10
-159.328444
 20
57.488676
 30
0.0
  0
SPLINE
  5
30a
100
AcDbEntity
  8
Layer_1
 62
5
100
AcDbSpline
 70
8
 71
3
 72
8
 73
4
 74
0
 40
0
 40
0
 40
0
 40
0
 40
1
 40
1
 40
1
 40
1
 10
-159.328444
 20
57.488676
 30
0.0
 10
-158.090684
 20
58.203443
 30
0.0
 10
-157.328372
 20
59.524348
 30
0.0
 10
-157.328751
 20
60.953663
 30
0.0
  0
LINE
  5
30b
100
AcDbEntity
  8
Layer_1
 62
5
100
AcDbLine
 10
-157.328751
 20
60.953663
 30
0.0
 11
-157.328751
 21
60.953663
 31
0.0
  0
LINE
  5
30c
100
AcDbEntity
  8
Layer_1
 62
7
100
AcDbLine
 10
-145.828750
 20
94.453675
 30
0.0
 11
-145.828750
 21
97.453675
 31
0.0
  0
LINE
  5
30d
100
AcDbEntity
  8
Layer_1
 62
7
100
AcDbLine
 10
-145.828750
 20
97.453675
 30
0.0
 11
-137.828752
 21
97.453675
 31
0.0
  0
LINE
  5
30e
100
AcDbEntity
  8
Layer_1
 62
7
100
AcDbLine
 10
-137.828752
 20
97.453675
 30
0.0
 11
-137.828752
 21
94.453675
 31
0.0
  0
LINE
  5
30f
100
AcDbEntity
  8
Layer_1
 62
7
100
AcDbLine
 10
-177.828751
 20
65.453674
 30
0.0
 11
-177.828751
 21
57.453684
 31
0.0
  0
LINE
  5
310
100
AcDbEntity
  8
Layer_1
 62
7
100
AcDbLine
 10
-177.828751
 20
57.453684
 30
0.0
 11
-174.828751
 21
57.453684
 31
0.0
  0
LINE
  5
311
100
AcDbEntity
  8
Layer_1
 62
7
100
AcDbLine
 10
-174.828751
 20
65.453674
 30
0.0
 11
-177.828751
 21
65.453674
 31
0.0
  0
LINE
  5
312
100
AcDbEntity
  8
Layer_1
 62
7
100
AcDbLine
 10
-174.828751
 20
76.453675
 30
0.0
 11
-177.828751
 21
76.453675
 31
0.0
  0
LINE
  5
313
100
AcDbEntity
  8
Layer_1
 62
7
100
AcDbLine
 10
-177.828751
 20
76.453675
 30
0.0
 11
-177.828751
 21
84.453676
 31
0.0
  0
LINE
  5
314
100
AcDbEntity
  8
Layer_1
 62
7
100
AcDbLine
 10
-177.828751
 20
84.453676
 30
0.0
 11
-174.828751
 21
84.453676
 31
0.0
  0
LINE
  5
315
100
AcDbEntity
  8
Layer_1
 62
7
100
AcDbLine
 10
-145.828750
 20
44.453682
 30
0.0
 11
-137.828752
 21
44.453682
 31
0.0
  0
LINE
  5
316
100
AcDbEntity
  8
Layer_1
 62
7
100
AcDbLine
 10
-137.828752
 20
44.453682
 30
0.0
 11
-137.828752
 21
47.453676
 31
0.0
  0
LINE
  5
317
100
AcDbEntity
  8
Layer_1
 62
7
100
AcDbLine
 10
-145.828750
 20
47.453676
 30
0.0
 11
-145.828750
 21
44.453682
 31
0.0
  0
LINE
  5
318
100
AcDbEntity
  8
Layer_1
 62
7
100
AcDbLine
 10
-156.828751
 20
47.453676
 30
0.0
 11
-156.828751
 21
44.453682
 31
0.0
  0
LINE
  5
319
100
AcDbEntity
  8
Layer_1
 62
7
100
AcDbLine
 10
-156.828751
 20
44.453682
 30
0.0
 11
-164.828751
 21
44.453682
 31
0.0
  0
LINE
  5
31a
100
AcDbEntity
  8
Layer_1
 62
7
100
AcDbLine
 10
-164.828751
 20
44.453682
 30
0.0
 11
-164.828751
 21
47.453676
 31
0.0
  0
LINE
  5
31b
100
AcDbEntity
  8
Layer_1
 62
7
100
AcDbLine
 10
-124.828752
 20
76.453675
 30
0.0
 11
-124.828752
 21
84.453676
 31
0.0
  0
LINE
  5
31c
100
AcDbEntity
  8
Layer_1
 62
7
100
AcDbLine
 10
-124.828752
 20
84.453676
 30
0.0
 11
-127.828752
 21
84.453676
 31
0.0
  0
LINE
  5
31d
100
AcDbEntity
  8
Layer_1
 62
7
100
AcDbLine
 10
-127.828752
 20
76.453675
 30
0.0
 11
-124.828752
 21
76.453675
 31
0.0
  0
LINE
  5
31e
100
AcDbEntity
  8
Layer_1
 62
7
100
AcDbLine
 10
-127.828752
 20
65.453674
 30
0.0
 11
-124.828752
 21
65.453674
 31
0.0
  0
LINE
  5
31f
100
AcDbEntity
  8
Layer_1
 62
7
100
AcDbLine
 10
-124.828752
 20
65.453674
 30
0.0
 11
-124.828752
 21
57.453684
 31
0.0
  0
LINE
  5
320
100
AcDbEntity
  8
Layer_1
 62
7
100
AcDbLine
 10
-124.828752
 20
57.453684
 30
0.0
 11
-127.828752
 21
57.453684
 31
0.0
  0
LINE
  5
321
100
AcDbEntity
  8
Layer_1
 62
7
100
AcDbLine
 10
-164.828751
 20
94.453675
 30
0.0
 11
-174.828751
 21
94.453675
 31
0.0
  0
LINE
  5
322
100
AcDbEntity
  8
Layer_1
 62
7
100
AcDbLine
 10
-174.828751
 20
94.453675
 30
0.0
 11
-174.828751
 21
84.453676
 31
0.0
  0
LINE
  5
323
100
AcDbEntity
  8
Layer_1
 62
7
100
AcDbLine
 10
-174.828751
 20
76.453675
 30
0.0
 11
-174.828751
 21
65.453674
 31
0.0
  0
LINE
  5
324
100
AcDbEntity
  8
Layer_1
 62
7
100
AcDbLine
 10
-174.828751
 20
57.453684
 30
0.0
 11
-174.828751
 21
47.453676
 31
0.0
  0
LINE
  5
325
100
AcDbEntity
  8
Layer_1
 62
7
100
AcDbLine
 10
-174.828751
 20
47.453676
 30
0.0
 11
-164.828751
 21
47.453676
 31
0.0
  0
LINE
  5
326
100
AcDbEntity
  8
Layer_1
 62
7
100
AcDbLine
 10
-156.828751
 20
47.453676
 30
0.0
 11
-145.828750
 21
47.453676
 31
0.0
  0
LINE
  5
327
100
AcDbEntity
  8
Layer_1
 62
7
100
AcDbLine
 10
-137.828752
 20
47.453676
 30
0.0
 11
-127.828752
 21
47.453676
 31
0.0
  0
LINE
  5
328
100
AcDbEntity
  8
Layer_1
 62
7
100
AcDbLine
 10
-127.828752
 20
47.453676
 30
0.0
 11
-127.828752
 21
57.453684
 31
0.0
  0
LINE
  5
329
100
AcDbEntity
  8
Layer_1
 62
7
100
AcDbLine
 10
-127.828752
 20
65.453674
 30
0.0
 11
-127.828752
 21
76.453675
 31
0.0
  0
LINE
  5
32a
100
AcDbEntity
  8
Layer_1
 62
7
100
AcDbLine
 10
-127.828752
 20
84.453676
 30
0.0
 11
-127.828752
 21
94.453675
 31
0.0
  0
LINE
  5
32b
100
AcDbEntity
  8
Layer_1
 62
7
100
AcDbLine
 10
-127.828752
 20
94.453675
 30
0.0
 11
-137.828752
 21
94.453675
 31
0.0
  0
LINE
  5
32c
100
AcDbEntity
  8
Layer_1
 62
7
100
AcDbLine
 10
-145.828750
 20
94.453675
 30
0.0
 11
-156.828751
 21
94.453675
 31
0.0
  0
LINE
  5
32d
100
AcDbEntity
  8
Layer_1
 62
7
100
AcDbLine
 10
-164.828751
 20
94.453675
 30
0.0
 11
-174.828751
 21
94.453675
 31
0.0
  0
LINE
  5
32e
100
AcDbEntity
  8
Layer_1
 62
7
100
AcDbLine
 10
-103.157394
 20
94.478082
 30
0.0
 11
-103.157394
 21
97.478082
 31
0.0
  0
LINE
  5
32f
100
AcDbEntity
  8
Layer_1
 62
7
100
AcDbLine
 10
-103.157394
 20
97.478082
 30
0.0
 11
-111.157394
 21
97.478082
 31
0.0
  0
LINE
  5
330
100
AcDbEntity
  8
Layer_1
 62
7
100
AcDbLine
 10
-111.157394
 20
97.478082
 30
0.0
 11
-111.157394
 21
94.478082
 31
0.0
  0
SPLINE
  5
331
100
AcDbEntity
  8
Layer_1
 62
5
100
AcDbSpline
 70
8
 71
3
 72
8
 73
4
 74
0
 40
0
 40
0
 40
0
 40
0
 40
1
 40
1
 40
1
 40
1
 10
-83.657393
 20
80.978081
 30
0.0
 10
-83.657393
 20
82.407143
 30
0.0
 10
-84.419789
 20
83.727651
 30
0.0
 10
-85.657393
 20
84.442183
 30
0.0
  0
SPLINE
  5
332
100
AcDbEntity
  8
Layer_1
 62
5
100
AcDbSpline
 70
8
 71
3
 72
8
 73
4
 74
0
 40
0
 40
0
 40
0
 40
0
 40
1
 40
1
 40
1
 40
1
 10
-85.657393
 20
84.442183
 30
0.0
 10
-86.894998
 20
85.156714
 30
0.0
 10
-88.419789
 20
85.156714
 30
0.0
 10
-89.657394
 20
84.442183
 30
0.0
  0
SPLINE
  5
333
100
AcDbEntity
  8
Layer_1
 62
5
100
AcDbSpline
 70
8
 71
3
 72
8
 73
4
 74
0
 40
0
 40
0
 40
0
 40
0
 40
1
 40
1
 40
1
 40
1
 10
-89.657394
 20
84.442183
 30
0.0
 10
-90.894998
 20
83.727651
 30
0.0
 10
-91.657394
 20
82.407143
 30
0.0
 10
-91.657394
 20
80.978081
 30
0.0
  0
SPLINE
  5
334
100
AcDbEntity
  8
Layer_1
 62
5
100
AcDbSpline
 70
8
 71
3
 72
8
 73
4
 74
0
 40
0
 40
0
 40
0
 40
0
 40
1
 40
1
 40
1
 40
1
 10
-91.657394
 20
80.978081
 30
0.0
 10
-91.657394
 20
79.549018
 30
0.0
 10
-90.894998
 20
78.228510
 30
0.0
 10
-89.657394
 20
77.513979
 30
0.0
  0
SPLINE
  5
335
100
AcDbEntity
  8
Layer_1
 62
5
100
AcDbSpline
 70
8
 71
3
 72
8
 73
4
 74
0
 40
0
 40
0
 40
0
 40
0
 40
1
 40
1
 40
1
 40
1
 10
-89.657394
 20
77.513979
 30
0.0
 10
-88.419789
 20
76.799447
 30
0.0
 10
-86.894998
 20
76.799447
 30
0.0
 10
-85.657393
 20
77.513979
 30
0.0
  0
SPLINE
  5
336
100
AcDbEntity
  8
Layer_1
 62
5
100
AcDbSpline
 70
8
 71
3
 72
8
 73
4
 74
0
 40
0
 40
0
 40
0
 40
0
 40
1
 40
1
 40
1
 40
1
 10
-85.657393
 20
77.513979
 30
0.0
 10
-84.419789
 20
78.228510
 30
0.0
 10
-83.657393
 20
79.549018
 30
0.0
 10
-83.657393
 20
80.978081
 30
0.0
  0
LINE
  5
337
100
AcDbEntity
  8
Layer_1
 62
5
100
AcDbLine
 10
-83.657393
 20
80.978081
 30
0.0
 11
-83.657393
 21
80.978081
 31
0.0
  0
SPLINE
  5
338
100
AcDbEntity
  8
Layer_1
 62
5
100
AcDbSpline
 70
8
 71
3
 72
8
 73
4
 74
0
 40
0
 40
0
 40
0
 40
0
 40
1
 40
1
 40
1
 40
1
 10
-103.657394
 20
60.978070
 30
0.0
 10
-103.657014
 20
62.407385
 30
0.0
 10
-104.419327
 20
63.728290
 30
0.0
 10
-105.657087
 20
64.443057
 30
0.0
  0
SPLINE
  5
339
100
AcDbEntity
  8
Layer_1
 62
5
100
AcDbSpline
 70
8
 71
3
 72
8
 73
4
 74
0
 40
0
 40
0
 40
0
 40
0
 40
1
 40
1
 40
1
 40
1
 10
-105.657087
 20
64.443057
 30
0.0
 10
-106.894848
 20
65.157824
 30
0.0
 10
-108.419941
 20
65.157824
 30
0.0
 10
-109.657701
 20
64.443057
 30
0.0
  0
SPLINE
  5
33a
100
AcDbEntity
  8
Layer_1
 62
5
100
AcDbSpline
 70
8
 71
3
 72
8
 73
4
 74
0
 40
0
 40
0
 40
0
 40
0
 40
1
 40
1
 40
1
 40
1
 10
-109.657701
 20
64.443057
 30
0.0
 10
-110.895461
 20
63.728290
 30
0.0
 10
-111.657774
 20
62.407385
 30
0.0
 10
-111.657394
 20
60.978070
 30
0.0
  0
SPLINE
  5
33b
100
AcDbEntity
  8
Layer_1
 62
5
100
AcDbSpline
 70
8
 71
3
 72
8
 73
4
 74
0
 40
0
 40
0
 40
0
 40
0
 40
1
 40
1
 40
1
 40
1
 10
-111.657394
 20
60.978070
 30
0.0
 10
-111.657774
 20
59.548754
 30
0.0
 10
-110.895461
 20
58.227850
 30
0.0
 10
-109.657701
 20
57.513083
 30
0.0
  0
SPLINE
  5
33c
100
AcDbEntity
  8
Layer_1
 62
5
100
AcDbSpline
 70
8
 71
3
 72
8
 73
4
 74
0
 40
0
 40
0
 40
0
 40
0
 40
1
 40
1
 40
1
 40
1
 10
-109.657701
 20
57.513083
 30
0.0
 10
-108.419941
 20
56.798315
 30
0.0
 10
-106.894848
 20
56.798315
 30
0.0
 10
-105.657087
 20
57.513083
 30
0.0
  0
SPLINE
  5
33d
100
AcDbEntity
  8
Layer_1
 62
5
100
AcDbSpline
 70
8
 71
3
 72
8
 73
4
 74
0
 40
0
 40
0
 40
0
 40
0
 40
1
 40
1
 40
1
 40
1
 10
-105.657087
 20
57.513083
 30
0.0
 10
-104.419327
 20
58.227850
 30
0.0
 10
-103.657014
 20
59.548754
 30
0.0
 10
-103.657394
 20
60.978070
 30
0.0
  0
LINE
  5
33e
100
AcDbEntity
  8
Layer_1
 62
5
100
AcDbLine
 10
-103.657394
 20
60.978070
 30
0.0
 11
-103.657394
 21
60.978070
 31
0.0
  0
LINE
  5
33f
100
AcDbEntity
  8
Layer_1
 62
7
100
AcDbLine
 10
-92.157393
 20
94.478082
 30
0.0
 11
-92.157393
 21
97.478082
 31
0.0
  0
LINE
  5
340
100
AcDbEntity
  8
Layer_1
 62
7
100
AcDbLine
 10
-92.157393
 20
97.478082
 30
0.0
 11
-84.157395
 21
97.478082
 31
0.0
  0
LINE
  5
341
100
AcDbEntity
  8
Layer_1
 62
7
100
AcDbLine
 10
-84.157395
 20
97.478082
 30
0.0
 11
-84.157395
 21
94.478082
 31
0.0
  0
LINE
  5
342
100
AcDbEntity
  8
Layer_1
 62
7
100
AcDbLine
 10
-124.157394
 20
65.478081
 30
0.0
 11
-124.157394
 21
57.478091
 31
0.0
  0
LINE
  5
343
100
AcDbEntity
  8
Layer_1
 62
7
100
AcDbLine
 10
-124.157394
 20
57.478091
 30
0.0
 11
-121.157394
 21
57.478091
 31
0.0
  0
LINE
  5
344
100
AcDbEntity
  8
Layer_1
 62
7
100
AcDbLine
 10
-121.157394
 20
65.478081
 30
0.0
 11
-124.157394
 21
65.478081
 31
0.0
  0
LINE
  5
345
100
AcDbEntity
  8
Layer_1
 62
7
100
AcDbLine
 10
-121.157394
 20
76.478081
 30
0.0
 11
-124.157394
 21
76.478081
 31
0.0
  0
LINE
  5
346
100
AcDbEntity
  8
Layer_1
 62
7
100
AcDbLine
 10
-124.157394
 20
76.478081
 30
0.0
 11
-124.157394
 21
84.478082
 31
0.0
  0
LINE
  5
347
100
AcDbEntity
  8
Layer_1
 62
7
100
AcDbLine
 10
-124.157394
 20
84.478082
 30
0.0
 11
-121.157394
 21
84.478082
 31
0.0
  0
LINE
  5
348
100
AcDbEntity
  8
Layer_1
 62
7
100
AcDbLine
 10
-92.157393
 20
44.478089
 30
0.0
 11
-84.157395
 21
44.478089
 31
0.0
  0
LINE
  5
349
100
AcDbEntity
  8
Layer_1
 62
7
100
AcDbLine
 10
-84.157395
 20
44.478089
 30
0.0
 11
-84.157395
 21
47.478083
 31
0.0
  0
LINE
  5
34a
100
AcDbEntity
  8
Layer_1
 62
7
100
AcDbLine
 10
-92.157393
 20
47.478083
 30
0.0
 11
-92.157393
 21
44.478089
 31
0.0
  0
LINE
  5
34b
100
AcDbEntity
  8
Layer_1
 62
7
100
AcDbLine
 10
-103.157394
 20
47.478083
 30
0.0
 11
-103.157394
 21
44.478089
 31
0.0
  0
LINE
  5
34c
100
AcDbEntity
  8
Layer_1
 62
7
100
AcDbLine
 10
-103.157394
 20
44.478089
 30
0.0
 11
-111.157394
 21
44.478089
 31
0.0
  0
LINE
  5
34d
100
AcDbEntity
  8
Layer_1
 62
7
100
AcDbLine
 10
-111.157394
 20
44.478089
 30
0.0
 11
-111.157394
 21
47.478083
 31
0.0
  0
LINE
  5
34e
100
AcDbEntity
  8
Layer_1
 62
7
100
AcDbLine
 10
-71.157395
 20
76.478081
 30
0.0
 11
-71.157395
 21
84.478082
 31
0.0
  0
LINE
  5
34f
100
AcDbEntity
  8
Layer_1
 62
7
100
AcDbLine
 10
-71.157395
 20
84.478082
 30
0.0
 11
-74.157395
 21
84.478082
 31
0.0
  0
LINE
  5
350
100
AcDbEntity
  8
Layer_1
 62
7
100
AcDbLine
 10
-74.157395
 20
76.478081
 30
0.0
 11
-71.157395
 21
76.478081
 31
0.0
  0
LINE
  5
351
100
AcDbEntity
  8
Layer_1
 62
7
100
AcDbLine
 10
-74.157395
 20
65.478081
 30
0.0
 11
-71.157395
 21
65.478081
 31
0.0
  0
LINE
  5
352
100
AcDbEntity
  8
Layer_1
 62
7
100
AcDbLine
 10
-71.157395
 20
65.478081
 30
0.0
 11
-71.157395
 21
57.478091
 31
0.0
  0
LINE
  5
353
100
AcDbEntity
  8
Layer_1
 62
7
100
AcDbLine
 10
-71.157395
 20
57.478091
 30
0.0
 11
-74.157395
 21
57.478091
 31
0.0
  0
LINE
  5
354
100
AcDbEntity
  8
Layer_1
 62
7
100
AcDbLine
 10
-111.157394
 20
94.478082
 30
0.0
 11
-121.157394
 21
94.478082
 31
0.0
  0
LINE
  5
355
100
AcDbEntity
  8
Layer_1
 62
7
100
AcDbLine
 10
-121.157394
 20
94.478082
 30
0.0
 11
-121.157394
 21
84.478082
 31
0.0
  0
LINE
  5
356
100
AcDbEntity
  8
Layer_1
 62
7
100
AcDbLine
 10
-121.157394
 20
76.478081
 30
0.0
 11
-121.157394
 21
65.478081
 31
0.0
  0
LINE
  5
357
100
AcDbEntity
  8
Layer_1
 62
7
100
AcDbLine
 10
-121.157394
 20
57.478091
 30
0.0
 11
-121.157394
 21
47.478083
 31
0.0
  0
LINE
  5
358
100
AcDbEntity
  8
Layer_1
 62
7
100
AcDbLine
 10
-121.157394
 20
47.478083
 30
0.0
 11
-111.157394
 21
47.478083
 31
0.0
  0
LINE
  5
359
100
AcDbEntity
  8
Layer_1
 62
7
100
AcDbLine
 10
-103.157394
 20
47.478083
 30
0.0
 11
-92.157393
 21
47.478083
 31
0.0
  0
LINE
  5
35a
100
AcDbEntity
  8
Layer_1
 62
7
100
AcDbLine
 10
-84.157395
 20
47.478083
 30
0.0
 11
-74.157395
 21
47.478083
 31
0.0
  0
LINE
  5
35b
100
AcDbEntity
  8
Layer_1
 62
7
100
AcDbLine
 10
-74.157395
 20
47.478083
 30
0.0
 11
-74.157395
 21
57.478091
 31
0.0
  0
LINE
  5
35c
100
AcDbEntity
  8
Layer_1
 62
7
100
AcDbLine
 10
-74.157395
 20
65.478081
 30
0.0
 11
-74.157395
 21
76.478081
 31
0.0
  0
LINE
  5
35d
100
AcDbEntity
  8
Layer_1
 62
7
100
AcDbLine
 10
-74.157395
 20
84.478082
 30
0.0
 11
-74.157395
 21
94.478082
 31
0.0
  0
LINE
  5
35e
100
AcDbEntity
  8
Layer_1
 62
7
100
AcDbLine
 10
-74.157395
 20
94.478082
 30
0.0
 11
-84.157395
 21
94.478082
 31
0.0
  0
LINE
  5
35f
100
AcDbEntity
  8
Layer_1
 62
7
100
AcDbLine
 10
-92.157393
 20
94.478082
 30
0.0
 11
-103.157394
 21
94.478082
 31
0.0
  0
LINE
  5
360
100
AcDbEntity
  8
Layer_1
 62
7
100
AcDbLine
 10
-111.157394
 20
94.478082
 30
0.0
 11
-121.157394
 21
94.478082
 31
0.0
  0
LINE
  5
361
100
AcDbEntity
  8
Layer_1
 62
7
100
AcDbLine
 10
-173.070842
 20
305.052519
 30
0.0
 11
-173.070842
 21
270.052554
 31
0.0
  0
LINE
  5
362
100
AcDbEntity
  8
Layer_1
 62
7
100
AcDbLine
 10
-173.070842
 20
270.052554
 30
0.0
 11
-176.070557
 21
270.052554
 31
0.0
  0
LINE
  5
363
100
AcDbEntity
  8
Layer_1
 62
7
100
AcDbLine
 10
-176.070557
 20
270.052554
 30
0.0
 11
-176.070557
 21
235.052589
 31
0.0
  0
LINE
  5
364
100
AcDbEntity
  8
Layer_1
 62
7
100
AcDbLine
 10
-176.070557
 20
235.052589
 30
0.0
 11
-156.070811
 21
235.052589
 31
0.0
  0
LINE
  5
365
100
AcDbEntity
  8
Layer_1
 62
7
100
AcDbLine
 10
-156.070811
 20
235.052589
 30
0.0
 11
-156.070811
 21
232.052324
 31
0.0
  0
LINE
  5
366
100
AcDbEntity
  8
Layer_1
 62
7
100
AcDbLine
 10
-156.070811
 20
232.052324
 30
0.0
 11
-146.070665
 21
232.052324
 31
0.0
  0
LINE
  5
367
100
AcDbEntity
  8
Layer_1
 62
7
100
AcDbLine
 10
-146.070665
 20
232.052324
 30
0.0
 11
-146.070665
 21
235.052589
 31
0.0
  0
LINE
  5
368
100
AcDbEntity
  8
Layer_1
 62
7
100
AcDbLine
 10
-146.070665
 20
235.052589
 30
0.0
 11
-126.070360
 21
235.052589
 31
0.0
  0
LINE
  5
369
100
AcDbEntity
  8
Layer_1
 62
7
100
AcDbLine
 10
-126.070360
 20
235.052589
 30
0.0
 11
-126.070360
 21
270.052554
 31
0.0
  0
LINE
  5
36a
100
AcDbEntity
  8
Layer_1
 62
7
100
AcDbLine
 10
-126.070360
 20
270.052554
 30
0.0
 11
-123.070649
 21
270.052554
 31
0.0
  0
LINE
  5
36b
100
AcDbEntity
  8
Layer_1
 62
7
100
AcDbLine
 10
-123.070649
 20
270.052554
 30
0.0
 11
-123.070649
 21
235.221261
 31
0.0
  0
LINE
  5
36c
100
AcDbEntity
  8
Layer_1
 62
7
100
AcDbLine
 10
-123.070649
 20
235.221261
 30
0.0
 11
-106.070626
 21
235.221261
 31
0.0
  0
LINE
  5
36d
100
AcDbEntity
  8
Layer_1
 62
7
100
AcDbLine
 10
-106.070626
 20
235.221261
 30
0.0
 11
-106.070626
 21
232.220997
 31
0.0
  0
LINE
  5
36e
100
AcDbEntity
  8
Layer_1
 62
7
100
AcDbLine
 10
-106.070626
 20
232.220997
 30
0.0
 11
-96.070477
 21
232.220997
 31
0.0
  0
LINE
  5
36f
100
AcDbEntity
  8
Layer_1
 62
7
100
AcDbLine
 10
-96.070477
 20
232.220997
 30
0.0
 11
-96.070477
 21
235.221261
 31
0.0
  0
LINE
  5
370
100
AcDbEntity
  8
Layer_1
 62
7
100
AcDbLine
 10
-96.070477
 20
235.221261
 30
0.0
 11
-76.070743
 21
235.221261
 31
0.0
  0
LINE
  5
371
100
AcDbEntity
  8
Layer_1
 62
7
100
AcDbLine
 10
-76.070743
 20
235.221261
 30
0.0
 11
-123.070649
 21
305.052519
 31
0.0
  0
LINE
  5
372
100
AcDbEntity
  8
Layer_1
 62
7
100
AcDbLine
 10
-123.070649
 20
305.052519
 30
0.0
 11
-173.070842
 21
305.052519
 31
0.0
  0
LINE
  5
373
100
AcDbEntity
  8
Layer_1
 62
7
100
AcDbLine
 10
-173.070842
 20
305.052519
 30
0.0
 11
-173.070842
 21
305.052519
 31
0.0
  0
LINE
  5
374
100
AcDbEntity
  8
Layer_1
 62
7
100
AcDbLine
 10
-173.070618
 20
305.052513
 30
0.0
 11
-142.570618
 21
305.052513
 31
0.0
  0
LINE
  5
375
100
AcDbEntity
  8
Layer_1
 62
7
100
AcDbLine
 10
-173.070618
 20
302.068883
 30
0.0
 11
-173.070618
 21
305.052513
 31
0.0
  0
LINE
  5
376
100
AcDbEntity
  8
Layer_1
 62
5
100
AcDbLine
 10
-131.070618
 20
297.052513
 30
0.0
 11
-168.070618
 21
297.052513
 31
0.0
  0
LINE
  5
377
100
AcDbEntity
  8
Layer_1
 62
5
100
AcDbLine
 10
-168.070618
 20
297.052513
 30
0.0
 11
-168.070618
 21
287.278175
 31
0.0
  0
LINE
  5
378
100
AcDbEntity
  8
Layer_1
 62
5
100
AcDbLine
 10
-168.070618
 20
287.278175
 30
0.0
 11
-131.070618
 21
287.278175
 31
0.0
  0
LINE
  5
379
100
AcDbEntity
  8
Layer_1
 62
5
100
AcDbLine
 10
-131.070618
 20
287.278175
 30
0.0
 11
-131.070618
 21
297.052513
 31
0.0
  0
LINE
  5
37a
100
AcDbEntity
  8
Layer_1
 62
5
100
AcDbLine
 10
-131.070618
 20
297.052513
 30
0.0
 11
-131.070618
 21
297.052513
 31
0.0
  0
LINE
  5
37b
100
AcDbEntity
  8
Layer_1
 62
5
100
AcDbLine
 10
-155.070618
 20
305.052513
 30
0.0
 11
-163.070618
 21
305.052513
 31
0.0
  0
LINE
  5
37c
100
AcDbEntity
  8
Layer_1
 62
5
100
AcDbLine
 10
-163.070618
 20
305.052513
 30
0.0
 11
-163.070618
 21
302.052514
 31
0.0
  0
LINE
  5
37d
100
AcDbEntity
  8
Layer_1
 62
5
100
AcDbLine
 10
-163.070618
 20
302.052514
 30
0.0
 11
-155.070618
 21
302.052514
 31
0.0
  0
LINE
  5
37e
100
AcDbEntity
  8
Layer_1
 62
5
100
AcDbLine
 10
-155.070618
 20
302.052514
 30
0.0
 11
-155.070618
 21
305.052513
 31
0.0
  0
LINE
  5
37f
100
AcDbEntity
  8
Layer_1
 62
5
100
AcDbLine
 10
-155.070618
 20
305.052513
 30
0.0
 11
-155.070618
 21
305.052513
 31
0.0
  0
LINE
  5
380
100
AcDbEntity
  8
Layer_1
 62
5
100
AcDbLine
 10
-136.070620
 20
305.052513
 30
0.0
 11
-144.070618
 21
305.052513
 31
0.0
  0
LINE
  5
381
100
AcDbEntity
  8
Layer_1
 62
5
100
AcDbLine
 10
-144.070618
 20
305.052513
 30
0.0
 11
-144.070618
 21
302.052514
 31
0.0
  0
LINE
  5
382
100
AcDbEntity
  8
Layer_1
 62
5
100
AcDbLine
 10
-144.070618
 20
302.052514
 30
0.0
 11
-136.070620
 21
302.052514
 31
0.0
  0
LINE
  5
383
100
AcDbEntity
  8
Layer_1
 62
5
100
AcDbLine
 10
-136.070620
 20
302.052514
 30
0.0
 11
-136.070620
 21
305.052513
 31
0.0
  0
LINE
  5
384
100
AcDbEntity
  8
Layer_1
 62
5
100
AcDbLine
 10
-136.070620
 20
305.052513
 30
0.0
 11
-136.070620
 21
305.052513
 31
0.0
  0
LINE
  5
385
100
AcDbEntity
  8
Layer_1
 62
5
100
AcDbLine
 10
-136.070620
 20
279.278174
 30
0.0
 11
-136.070620
 21
282.278174
 31
0.0
  0
LINE
  5
386
100
AcDbEntity
  8
Layer_1
 62
5
100
AcDbLine
 10
-163.070618
 20
279.278174
 30
0.0
 11
-155.070618
 21
279.278174
 31
0.0
  0
LINE
  5
387
100
AcDbEntity
  8
Layer_1
 62
5
100
AcDbLine
 10
-155.070618
 20
282.278174
 30
0.0
 11
-163.070618
 21
282.278174
 31
0.0
  0
LINE
  5
388
100
AcDbEntity
  8
Layer_1
 62
5
100
AcDbLine
 10
-163.070618
 20
282.278174
 30
0.0
 11
-163.070618
 21
279.278174
 31
0.0
  0
LINE
  5
389
100
AcDbEntity
  8
Layer_1
 62
5
100
AcDbLine
 10
-144.070618
 20
279.278174
 30
0.0
 11
-136.070620
 21
279.278174
 31
0.0
  0
LINE
  5
38a
100
AcDbEntity
  8
Layer_1
 62
5
100
AcDbLine
 10
-144.070618
 20
282.278174
 30
0.0
 11
-144.070618
 21
279.278174
 31
0.0
  0
LINE
  5
38b
100
AcDbEntity
  8
Layer_1
 62
5
100
AcDbLine
 10
-155.070618
 20
279.278174
 30
0.0
 11
-155.070618
 21
282.278174
 31
0.0
  0
LINE
  5
38c
100
AcDbEntity
  8
Layer_1
 62
5
100
AcDbLine
 10
-136.070620
 20
282.278174
 30
0.0
 11
-144.070618
 21
282.278174
 31
0.0
  0
SPLINE
  5
38d
100
AcDbEntity
  8
Layer_1
 62
5
100
AcDbSpline
 70
8
 71
3
 72
8
 73
4
 74
0
 40
0
 40
0
 40
0
 40
0
 40
1
 40
1
 40
1
 40
1
 10
-145.570618
 20
282.278174
 30
0.0
 10
-145.570618
 20
283.707236
 30
0.0
 10
-146.333013
 20
285.027744
 30
0.0
 10
-147.570618
 20
285.742275
 30
0.0
  0
SPLINE
  5
38e
100
AcDbEntity
  8
Layer_1
 62
5
100
AcDbSpline
 70
8
 71
3
 72
8
 73
4
 74
0
 40
0
 40
0
 40
0
 40
0
 40
1
 40
1
 40
1
 40
1
 10
-147.570618
 20
285.742275
 30
0.0
 10
-148.808222
 20
286.456807
 30
0.0
 10
-150.333014
 20
286.456807
 30
0.0
 10
-151.570618
 20
285.742275
 30
0.0
  0
SPLINE
  5
38f
100
AcDbEntity
  8
Layer_1
 62
5
100
AcDbSpline
 70
8
 71
3
 72
8
 73
4
 74
0
 40
0
 40
0
 40
0
 40
0
 40
1
 40
1
 40
1
 40
1
 10
-151.570618
 20
285.742275
 30
0.0
 10
-152.808222
 20
285.027744
 30
0.0
 10
-153.570618
 20
283.707236
 30
0.0
 10
-153.570618
 20
282.278174
 30
0.0
  0
SPLINE
  5
390
100
AcDbEntity
  8
Layer_1
 62
5
100
AcDbSpline
 70
8
 71
3
 72
8
 73
4
 74
0
 40
0
 40
0
 40
0
 40
0
 40
1
 40
1
 40
1
 40
1
 10
-153.570618
 20
282.278174
 30
0.0
 10
-153.570618
 20
280.849111
 30
0.0
 10
-152.808222
 20
279.528603
 30
0.0
 10
-151.570618
 20
278.814072
 30
0.0
  0
SPLINE
  5
391
100
AcDbEntity
  8
Layer_1
 62
5
100
AcDbSpline
 70
8
 71
3
 72
8
 73
4
 74
0
 40
0
 40
0
 40
0
 40
0
 40
1
 40
1
 40
1
 40
1
 10
-151.570618
 20
278.814072
 30
0.0
 10
-150.333014
 20
278.099541
 30
0.0
 10
-148.808222
 20
278.099541
 30
0.0
 10
-147.570618
 20
278.814072
 30
0.0
  0
SPLINE
  5
392
100
AcDbEntity
  8
Layer_1
 62
5
100
AcDbSpline
 70
8
 71
3
 72
8
 73
4
 74
0
 40
0
 40
0
 40
0
 40
0
 40
1
 40
1
 40
1
 40
1
 10
-147.570618
 20
278.814072
 30
0.0
 10
-146.333013
 20
279.528603
 30
0.0
 10
-145.570618
 20
280.849111
 30
0.0
 10
-145.570618
 20
282.278174
 30
0.0
  0
LINE
  5
393
100
AcDbEntity
  8
Layer_1
 62
5
100
AcDbLine
 10
-145.570618
 20
282.278174
 30
0.0
 11
-145.570618
 21
282.278174
 31
0.0
  0
ENDSEC
  0
SECTION
  2
OBJECTS
  0
DICTIONARY
  5
C
330
0
100
AcDbDictionary
  3
ACAD_GROUP
350
D
  3
ACAD_MLINESTYLE
350
17
  0
DICTIONARY
  5
D
330
C
100
AcDbDictionary
  0
DICTIONARY
  5
1A
330
C
100
AcDbDictionary
  0
DICTIONARY
  5
17
330
C
100
AcDbDictionary
  3
STANDARD
350
18
  0
DICTIONARY
  5
19
330
C
100
AcDbDictionary
  0
ENDSEC
  0
EOF
