0
SECTION
2
HEADER
9
$INSUNITS
70
4
9
$ACADVER
1
AC1014
9
$HANDSEED
5
FFFF
0
ENDSEC
0
SECTION
2
TABLES
0
TABLE
2
VPORT
5
8
100
AcDbSymbolTable
0
ENDTAB
0
TABLE
2
LTYPE
5
5
100
AcDbSymbolTable
0
LTYPE
5
14
100
AcDbSymbolTableRecord
100
AcDbLinetypeTableRecord
2
BYBLOCK
70
0
0
LTYPE
5
15
100
AcDbSymbolTableRecord
100
AcDbLinetypeTableRecord
2
BYLAYER
70
0
0
ENDTAB
0
TABLE
2
LAYER
5
2
100
AcDbSymbolTable
70
2
0
LAYER
5
50
100
AcDbSymbolTableRecord
100
AcDbLayerTableRecord
2
0
70
0
6
CONTINUOUS
0
ENDTAB
0
TABLE
2
STYLE
5
3
100
AcDbSymbolTable
70
1
0
STYLE
5
11
100
AcDbSymbolTableRecord
100
AcDbTextStyleTableRecord
2
STANDARD
70
0
0
ENDTAB
0
TABLE
2
VIEW
5
6
100
AcDbSymbolTable
70
0
0
ENDTAB
0
TABLE
2
UCS
5
7
100
AcDbSymbolTable
70
0
0
ENDTAB
0
TABLE
2
APPID
5
9
100
AcDbSymbolTable
70
2
0
APPID
5
12
100
AcDbSymbolTableRecord
100
AcDbRegAppTableRecord
2
ACAD
70
0
0
ENDTAB
0
TABLE
2
DIMSTYLE
5
A
100
AcDbSymbolTable
70
1
0
ENDTAB
0
TABLE
2
BLOCK_RECORD
5
1
100
AcDbSymbolTable
70
1
0
BLOCK_RECORD
5
1F
100
AcDbSymbolTableRecord
100
AcDbBlockTableRecord
2
*MODEL_SPACE
0
BLOCK_RECORD
5
1B
100
AcDbSymbolTableRecord
100
AcDbBlockTableRecord
2
*PAPER_SPACE
0
ENDTAB
0
ENDSEC
0
SECTION
2
BLOCKS
0
BLOCK
5
20
100
AcDbEntity
100
AcDbBlockBegin
2
*MODEL_SPACE
0
ENDBLK
5
21
100
AcDbEntity
100
AcDbBlockEnd
0
BLOCK
5
1C
100
AcDbEntity
100
AcDbBlockBegin
2
*PAPER_SPACE
0
ENDBLK
5
1D
100
AcDbEntity
100
AcDbBlockEnd
0
ENDSEC
0
SECTION
2
ENTITIES
0
LWPOLYLINE
5
100
100
AcDbEntity
8
0
100
AcDbPolyline
90
10
70
1
43
0.0
10
6.0000000000000071
20
34.983630046271273
10
3.0000000000000071
20
34.983630046271273
10
3.0000000000000071
20
-0.016369953728731554
10
53.000000000000007
20
-0.016369953728712083
10
53.000000000000007
20
34.983630046271294
10
56.000000000000007
20
34.983630046271294
10
56.000000000000007
20
0.15226745208126469
10
103
20
0.15226745208129167
10
56.000000000000014
20
69.983630046271202
10
6.0000000000000071
20
69.983630046271259
0
LINE
5
101
100
AcDbEntity
8
0
100
AcDbLine
10
6.0000000000000071
20
69.983630046271259
30
0
11
36.500000000000007
21
69.983630046271273
31
0
0
LINE
5
102
100
AcDbEntity
8
0
100
AcDbLine
10
6.0000000000000071
20
67
30
0
11
6.0000000000000071
21
69.983630046271259
31
0
0
LWPOLYLINE
5
103
100
AcDbEntity
8
0
100
AcDbPolyline
90
4
70
1
43
0.0
10
48.000000000000007
20
61.98363004627123
10
11.000000000000007
20
61.98363004627123
10
11.000000000000005
20
52.209290885812351
10
48.000000000000007
20
52.209290885812351
0
LWPOLYLINE
5
104
100
AcDbEntity
8
0
100
AcDbPolyline
90
4
70
1
43
0.0
10
24.000000000000007
20
69.983630046271259
10
16.000000000000007
20
69.983630046271259
10
16.000000000000007
20
66.983630046271273
10
24.000000000000007
20
66.983630046271273
0
LWPOLYLINE
5
105
100
AcDbEntity
8
0
100
AcDbPolyline
90
4
70
1
43
0.0
10
43.000000000000007
20
69.98363004627123
10
35.000000000000014
20
69.98363004627123
10
35.000000000000014
20
66.98363004627123
10
43.000000000000007
20
66.98363004627123
0
LINE
5
106
100
AcDbEntity
8
0
100
AcDbLine
10
11.000000000000007
20
57.096460466041783
30
0
11
48.000000000000007
21
57.096460466041783
31
0
0
LINE
5
107
100
AcDbEntity
8
0
100
AcDbLine
10
42.999999999999986
20
44.209290885812351
30
0
11
43.000000000000014
21
47.209290885812351
31
0
0
LINE
5
108
100
AcDbEntity
8
0
100
AcDbLine
10
16.000000000000011
20
44.209290885812315
30
0
11
24.000000000000007
21
44.209290885812315
31
0
0
LINE
5
109
100
AcDbEntity
8
0
100
AcDbLine
10
24.000000000000014
20
47.209290885812308
30
0
11
16.000000000000007
21
47.209290885812308
31
0
0
LINE
5
110
100
AcDbEntity
8
0
100
AcDbLine
10
16.000000000000007
20
47.209290885812308
30
0
11
16.000000000000011
21
44.209290885812315
31
0
0
LINE
5
111
100
AcDbEntity
8
0
100
AcDbLine
10
35.000000000000014
20
44.209290885812351
30
0
11
42.999999999999986
21
44.209290885812351
31
0
0
LINE
5
112
100
AcDbEntity
8
0
100
AcDbLine
10
35.000000000000021
20
47.209290885812351
30
0
11
35.000000000000014
21
44.209290885812351
31
0
0
LINE
5
113
100
AcDbEntity
8
0
100
AcDbLine
10
24.000000000000007
20
44.209290885812315
30
0
11
24.000000000000014
21
47.209290885812308
31
0
0
LINE
5
114
100
AcDbEntity
8
0
100
AcDbLine
10
43.000000000000014
20
47.209290885812351
30
0
11
35.000000000000021
21
47.209290885812351
31
0
0
LINE
5
115
100
AcDbEntity
8
0
100
AcDbLine
10
24.000000000000014
20
47.209290885812308
30
0
11
35.000000000000021
21
47.209290885812351
31
0
0
CIRCLE
5
116
100
AcDbEntity
8
0
100
AcDbCircle
10
29.500000000000014
20
47.209290885812337
30
0
40
3.9999999999999991
0
LWPOLYLINE
5
117
100
AcDbEntity
8
0
100
AcDbPolyline
90
4
70
1
43
0.0
10
33.000000000000007
20
-0.016369953728723009
10
23.000000000000007
20
-0.016369953728723186
10
23.000000000000007
20
-3.0163699537287236
10
33.000000000000007
20
-3.0163699537287236
0
LWPOLYLINE
5
118
100
AcDbEntity
8
0
100
AcDbPolyline
90
4
70
1
43
0.0
10
73
20
0.1522674520812779
10
83
20
0.15226745208127779
10
83
20
-2.8477325479187225
10
73
20
-2.8477325479187225
0
ENDSEC
0
SECTION
2
OBJECTS
0
DICTIONARY
5
C
100
AcDbDictionary
3
ACAD_GROUP
350
D
3
ACAD_MLINESTYLE
350
17
0
DICTIONARY
5
D
100
AcDbDictionary
0
DICTIONARY
5
1A
330
C
100
AcDbDictionary
0
DICTIONARY
5
17
100
AcDbDictionary
0
ENDSEC
0
EOF
