0
SECTION
2
HEADER
9
$INSUNITS
70
4
9
$ACADVER
1
AC1014
9
$HANDSEED
5
FFFF
0
ENDSEC
0
SECTION
2
TABLES
0
TABLE
2
VPORT
5
8
100
AcDbSymbolTable
0
ENDTAB
0
TABLE
2
LTYPE
5
5
100
AcDbSymbolTable
0
LTYPE
5
14
100
AcDbSymbolTableRecord
100
AcDbLinetypeTableRecord
2
BYBLOCK
70
0
0
LTYPE
5
15
100
AcDbSymbolTableRecord
100
AcDbLinetypeTableRecord
2
BYLAYER
70
0
0
ENDTAB
0
TABLE
2
LAYER
5
2
100
AcDbSymbolTable
70
2
0
LAYER
5
50
100
AcDbSymbolTableRecord
100
AcDbLayerTableRecord
2
0
70
0
6
CONTINUOUS
0
ENDTAB
0
TABLE
2
STYLE
5
3
100
AcDbSymbolTable
70
1
0
STYLE
5
11
100
AcDbSymbolTableRecord
100
AcDbTextStyleTableRecord
2
STANDARD
70
0
0
ENDTAB
0
TABLE
2
VIEW
5
6
100
AcDbSymbolTable
70
0
0
ENDTAB
0
TABLE
2
UCS
5
7
100
AcDbSymbolTable
70
0
0
ENDTAB
0
TABLE
2
APPID
5
9
100
AcDbSymbolTable
70
2
0
APPID
5
12
100
AcDbSymbolTableRecord
100
AcDbRegAppTableRecord
2
ACAD
70
0
0
ENDTAB
0
TABLE
2
DIMSTYLE
5
A
100
AcDbSymbolTable
70
1
0
ENDTAB
0
TABLE
2
BLOCK_RECORD
5
1
100
AcDbSymbolTable
70
1
0
BLOCK_RECORD
5
1F
100
AcDbSymbolTableRecord
100
AcDbBlockTableRecord
2
*MODEL_SPACE
0
BLOCK_RECORD
5
1B
100
AcDbSymbolTableRecord
100
AcDbBlockTableRecord
2
*PAPER_SPACE
0
ENDTAB
0
ENDSEC
0
SECTION
2
BLOCKS
0
BLOCK
5
20
100
AcDbEntity
100
AcDbBlockBegin
2
*MODEL_SPACE
0
ENDBLK
5
21
100
AcDbEntity
100
AcDbBlockEnd
0
BLOCK
5
1C
100
AcDbEntity
100
AcDbBlockBegin
2
*PAPER_SPACE
0
ENDBLK
5
1D
100
AcDbEntity
100
AcDbBlockEnd
0
ENDSEC
0
SECTION
2
ENTITIES
0
LWPOLYLINE
5
100
100
AcDbEntity
8
0
100
AcDbPolyline
90
9
70
1
43
0.0
10
3.024489334849283
20
34.999991432462934
10
0.024489334849280363
20
34.999991441533879
10
0
20
-1.7347234759768071e-17
10
99.999975521322654
20
-0.069969528140836346
10
53.024489334849285
20
69.999991432462934
10
53.024489334849285
20
34.999991432462942
10
50.024489334849285
20
34.999991432462942
10
50.024489334849285
20
69.999991432462934
10
3.0244893348492852
20
69.999991432462934
0
LWPOLYLINE
5
101
100
AcDbEntity
8
0
100
AcDbPolyline
90
4
70
1
43
0.0
10
45.024489334849285
20
62.0798843149975
10
8.0244893348492816
20
62.0798843149975
10
8.0244893348492816
20
52.0798843149975
10
45.024489334849285
20
52.0798843149975
0
LWPOLYLINE
5
102
100
AcDbEntity
8
0
100
AcDbPolyline
90
4
70
1
43
0.0
10
21.024489334849285
20
69.999991432462934
10
13.024489334849285
20
69.999991432462934
10
13.024489334849285
20
66.999991432462934
10
21.024489334849285
20
66.999991432462934
0
LWPOLYLINE
5
103
100
AcDbEntity
8
0
100
AcDbPolyline
90
4
70
1
43
0.0
10
40.024489334849278
20
69.999991432462934
10
32.024489334849278
20
69.999991432462934
10
32.024489334849278
20
66.999991432462934
10
40.024489334849278
20
66.999991432462934
0
LINE
5
104
100
AcDbEntity
8
0
100
AcDbLine
10
8.0244893348492816
20
57.0798843149975
30
0
11
45.024489334849285
21
57.079884314997493
31
0
0
LINE
5
105
100
AcDbEntity
8
0
100
AcDbLine
10
13.024489334849283
20
47.159777197532051
30
0
11
13.024489334849285
21
44.159777197532044
31
0
0
LINE
5
106
100
AcDbEntity
8
0
100
AcDbLine
10
32.024489334849278
20
44.159777197532044
30
0
11
40.024489334849271
21
44.159777197532044
31
0
0
LINE
5
107
100
AcDbEntity
8
0
100
AcDbLine
10
21.024489334849285
20
44.159777197532044
30
0
11
21.024489334849285
21
47.159777197532044
31
0
0
LINE
5
108
100
AcDbEntity
8
0
100
AcDbLine
10
40.024489334849271
20
47.159777197532044
30
0
11
32.024489334849278
21
47.159777197532044
31
0
0
LINE
5
109
100
AcDbEntity
8
0
100
AcDbLine
10
32.024489334849278
20
47.159777197532044
30
0
11
32.024489334849278
21
44.159777197532044
31
0
0
LINE
5
110
100
AcDbEntity
8
0
100
AcDbLine
10
40.024489334849271
20
44.159777197532044
30
0
11
40.024489334849271
21
47.159777197532044
31
0
0
LINE
5
111
100
AcDbEntity
8
0
100
AcDbLine
10
13.024489334849285
20
44.159777197532044
30
0
11
21.024489334849285
21
44.159777197532044
31
0
0
LINE
5
112
100
AcDbEntity
8
0
100
AcDbLine
10
21.024489334849285
20
47.159777197532044
30
0
11
13.024489334849283
21
47.159777197532051
31
0
0
LINE
5
113
100
AcDbEntity
8
0
100
AcDbLine
10
21.024489334849285
20
47.159777197532044
30
0
11
32.024489334849278
21
47.159777197532044
31
0
0
CIRCLE
5
114
100
AcDbEntity
8
0
100
AcDbCircle
10
26.524489334849282
20
47.159777197532051
30
0
40
4
0
LWPOLYLINE
5
115
100
AcDbEntity
8
0
100
AcDbPolyline
90
4
70
1
43
0.0
10
30
20
-0.013993909053685515
10
20
20
-0.013993909053685583
10
20
20
-3.0139939090536858
10
30
20
-3.0139939090536858
0
LWPOLYLINE
5
116
100
AcDbEntity
8
0
100
AcDbPolyline
90
4
70
1
43
0.0
10
69.999975521322654
20
-0.055975619087142478
10
79.999975521322654
20
-0.055975619087142436
10
79.999975521322654
20
-3.0559756190871434
10
69.999975521322654
20
-3.0559756190871434
0
ENDSEC
0
SECTION
2
OBJECTS
0
DICTIONARY
5
C
100
AcDbDictionary
3
ACAD_GROUP
350
D
3
ACAD_MLINESTYLE
350
17
0
DICTIONARY
5
D
100
AcDbDictionary
0
DICTIONARY
5
1A
330
C
100
AcDbDictionary
0
DICTIONARY
5
17
100
AcDbDictionary
0
ENDSEC
0
EOF
