  0
SECTION
  2
HEADER
  9
$ACADVER
  1
AC1014
  9
$HANDSEED
  5
FFFF
  9
$MEASUREMENT
 70
     1
  0
ENDSEC
  0
SECTION
  2
TABLES
  0
TABLE
  2
VPORT
  5
8
330
0
100
AcDbSymbolTable
 70
     4
  0
VPORT
  5
2E
330
8
100
AcDbSymbolTableRecord
100
AcDbViewportTableRecord
  2
*ACTIVE
 70
     0
 10
0.0
 20
0.0
 11
1.0
 21
1.0
 12
210.0
 22
148.5
 13
0.0
 23
0.0
 14
10.0
 24
10.0
 15
10.0
 25
10.0
 16
0.0
 26
0.0
 36
1.0
 17
0.0
 27
0.0
 37
0.0
 40
341.0
 41
1.24
 42
50.0
 43
0.0
 44
0.0
 50
0.0
 51
0.0
 71
     0
 72
   100
 73
     1
 74
     3
 75
     0
 76
     0
 77
     0
 78
     0
  0
ENDTAB
  0
TABLE
  2
LTYPE
  5
5
330
0
100
AcDbSymbolTable
 70
     1
  0
LTYPE
  5
14
330
5
100
AcDbSymbolTableRecord
100
AcDbLinetypeTableRecord
  2
BYBLOCK
 70
     0
  3

 72
    65
 73
     0
 40
0.0
  0
LTYPE
  5
15
330
5
100
AcDbSymbolTableRecord
100
AcDbLinetypeTableRecord
  2
BYLAYER
 70
     0
  3

 72
    65
 73
     0
 40
0.0
  0
LTYPE
  5
16
330
5
100
AcDbSymbolTableRecord
100
AcDbLinetypeTableRecord
  2
CONTINUOUS
 70
     0
  3
Solid line
 72
    65
 73
     0
 40
0.0
  0
ENDTAB
  0
TABLE
  2
LAYER
  5
2
100
AcDbSymbolTable
 70
2
  0
LAYER
  5
50
100
AcDbSymbolTableRecord
100
AcDbLayerTableRecord
  2
0
 70
0
  6
CONTINUOUS
  0
LAYER
  5
51
100
AcDbSymbolTableRecord
100
AcDbLayerTableRecord
  2
Layer_1
 70
0
  6
CONTINUOUS
  0
ENDTAB
  0
TABLE
  2
STYLE
  5
3
330
0
100
AcDbSymbolTable
 70
     1
  0
STYLE
  5
11
330
3
100
AcDbSymbolTableRecord
100
AcDbTextStyleTableRecord
  2
STANDARD
 70
     0
 40
0.0
 41
1.0
 50
0.0
 71
     0
 42
2.5
  3
txt
  4

  0
ENDTAB
  0
TABLE
  2
VIEW
  5
6
330
0
100
AcDbSymbolTable
 70
     0
  0
ENDTAB
  0
TABLE
  2
UCS
  5
7
330
0
100
AcDbSymbolTable
 70
     0
  0
ENDTAB
  0
TABLE
  2
APPID
  5
9
330
0
100
AcDbSymbolTable
 70
     2
  0
APPID
  5
12
330
9
100
AcDbSymbolTableRecord
100
AcDbRegAppTableRecord
  2
ACAD
 70
     0
  0
ENDTAB
  0
TABLE
  2
DIMSTYLE
  5
A
330
0
100
AcDbSymbolTable
 70
     1
  0
DIMSTYLE
105
27
330
A
100
AcDbSymbolTableRecord
100
AcDbDimStyleTableRecord
  2
ISO-25
 70
     0
  3

  4

  5

  6

  7

 40
1.0
 41
2.5
 42
0.625
 43
3.75
 44
1.25
 45
0.0
 46
0.0
 47
0.0
 48
0.0
140
2.5
141
2.5
142
0.0
143
0.03937007874016
144
1.0
145
0.0
146
1.0
147
0.625
 71
     0
 72
     0
 73
     0
 74
     0
 75
     0
 76
     0
 77
     1
 78
     8
170
     0
171
     3
172
     1
173
     0
174
     0
175
     0
176
     0
177
     0
178
     0
270
     2
271
     2
272
     2
273
     2
274
     3
340
11
275
     0
280
     0
281
     0
282
     0
283
     0
284
     8
285
     0
286
     0
287
     3
288
     0
  0
ENDTAB
  0
TABLE
  2
BLOCK_RECORD
  5
1
330
0
100
AcDbSymbolTable
 70
     1
  0
BLOCK_RECORD
  5
1F
330
1
100
AcDbSymbolTableRecord
100
AcDbBlockTableRecord
  2
*MODEL_SPACE
  0
BLOCK_RECORD
  5
1B
330
1
100
AcDbSymbolTableRecord
100
AcDbBlockTableRecord
  2
*PAPER_SPACE
  0
ENDTAB
  0
ENDSEC
  0
SECTION
  2
BLOCKS
  0
BLOCK
  5
20
330
1F
100
AcDbEntity
  8
0
100
AcDbBlockBegin
  2
*MODEL_SPACE
 70
     0
 10
0.0
 20
0.0
 30
0.0
  3
*MODEL_SPACE
  1

  0
ENDBLK
  5
21
330
1F
100
AcDbEntity
  8
0
100
AcDbBlockEnd
  0
BLOCK
  5
1C
330
1B
100
AcDbEntity
 67
     1
  8
0
100
AcDbBlockBegin
  2
*PAPER_SPACE
  1

  0
ENDBLK
  5
1D
330
1B
100
AcDbEntity
 67
     1
  8
0
100
AcDbBlockEnd
  0
ENDSEC
  0
SECTION
  2
ENTITIES
  0
LINE
  5
100
100
AcDbEntity
  8
Layer_1
 62
7
100
AcDbLine
 10
94.583975
 20
29.530188
 30
0.0
 11
94.583975
 21
26.529923
 31
0.0
  0
LINE
  5
101
100
AcDbEntity
  8
Layer_1
 62
7
100
AcDbLine
 10
94.583975
 20
26.529923
 30
0.0
 11
88.583999
 21
26.529923
 31
0.0
  0
LINE
  5
102
100
AcDbEntity
  8
Layer_1
 62
7
100
AcDbLine
 10
88.583999
 20
26.529923
 30
0.0
 11
88.583999
 21
21.530402
 31
0.0
  0
LINE
  5
103
100
AcDbEntity
  8
Layer_1
 62
7
100
AcDbLine
 10
88.583999
 20
21.530402
 30
0.0
 11
85.584284
 21
21.530402
 31
0.0
  0
LINE
  5
104
100
AcDbEntity
  8
Layer_1
 62
7
100
AcDbLine
 10
85.584284
 20
21.530402
 30
0.0
 11
85.584284
 21
11.530253
 31
0.0
  0
LINE
  5
105
100
AcDbEntity
  8
Layer_1
 62
7
100
AcDbLine
 10
85.584284
 20
11.530253
 30
0.0
 11
88.583999
 21
11.530253
 31
0.0
  0
LINE
  5
106
100
AcDbEntity
  8
Layer_1
 62
7
100
AcDbLine
 10
88.583999
 20
11.530253
 30
0.0
 11
88.583999
 21
6.530181
 31
0.0
  0
LINE
  5
107
100
AcDbEntity
  8
Layer_1
 62
7
100
AcDbLine
 10
88.583999
 20
6.530181
 30
0.0
 11
94.583975
 21
6.530181
 31
0.0
  0
LINE
  5
108
100
AcDbEntity
  8
Layer_1
 62
7
100
AcDbLine
 10
94.583975
 20
6.530181
 30
0.0
 11
94.583975
 21
3.529916
 31
0.0
  0
LINE
  5
109
100
AcDbEntity
  8
Layer_1
 62
7
100
AcDbLine
 10
94.583975
 20
3.529916
 30
0.0
 11
104.584125
 21
3.529916
 31
0.0
  0
LINE
  5
10a
100
AcDbEntity
  8
Layer_1
 62
7
100
AcDbLine
 10
104.584125
 20
3.529916
 30
0.0
 11
104.584125
 21
6.530181
 31
0.0
  0
LINE
  5
10b
100
AcDbEntity
  8
Layer_1
 62
7
100
AcDbLine
 10
104.584125
 20
6.530181
 30
0.0
 11
110.584101
 21
6.530181
 31
0.0
  0
LINE
  5
10c
100
AcDbEntity
  8
Layer_1
 62
7
100
AcDbLine
 10
110.584101
 20
6.530181
 30
0.0
 11
110.584101
 21
11.530253
 31
0.0
  0
LINE
  5
10d
100
AcDbEntity
  8
Layer_1
 62
7
100
AcDbLine
 10
110.584101
 20
11.530253
 30
0.0
 11
113.584366
 21
11.530253
 31
0.0
  0
LINE
  5
10e
100
AcDbEntity
  8
Layer_1
 62
7
100
AcDbLine
 10
113.584366
 20
11.530253
 30
0.0
 11
113.584366
 21
21.530402
 31
0.0
  0
LINE
  5
10f
100
AcDbEntity
  8
Layer_1
 62
7
100
AcDbLine
 10
113.584366
 20
21.530402
 30
0.0
 11
110.584101
 21
21.530402
 31
0.0
  0
LINE
  5
110
100
AcDbEntity
  8
Layer_1
 62
7
100
AcDbLine
 10
110.584101
 20
21.530402
 30
0.0
 11
110.584101
 21
26.529923
 31
0.0
  0
LINE
  5
111
100
AcDbEntity
  8
Layer_1
 62
7
100
AcDbLine
 10
110.584101
 20
26.529923
 30
0.0
 11
104.584125
 21
26.529923
 31
0.0
  0
LINE
  5
112
100
AcDbEntity
  8
Layer_1
 62
7
100
AcDbLine
 10
104.584125
 20
26.529923
 30
0.0
 11
104.584125
 21
29.530188
 31
0.0
  0
LINE
  5
113
100
AcDbEntity
  8
Layer_1
 62
7
100
AcDbLine
 10
104.584125
 20
29.530188
 30
0.0
 11
94.583975
 21
29.530188
 31
0.0
  0
LINE
  5
114
100
AcDbEntity
  8
Layer_1
 62
7
100
AcDbLine
 10
94.583975
 20
29.530188
 30
0.0
 11
94.583975
 21
29.530188
 31
0.0
  0
SPLINE
  5
115
100
AcDbEntity
  8
Layer_1
 62
1
100
AcDbSpline
 70
8
 71
3
 72
8
 73
4
 74
0
 40
0
 40
0
 40
0
 40
0
 40
1
 40
1
 40
1
 40
1
 10
107.084128
 20
16.530164
 30
0.0
 10
107.084128
 20
19.209655
 30
0.0
 10
105.654636
 20
21.685608
 30
0.0
 10
103.334128
 20
23.025354
 30
0.0
  0
SPLINE
  5
116
100
AcDbEntity
  8
Layer_1
 62
1
100
AcDbSpline
 70
8
 71
3
 72
8
 73
4
 74
0
 40
0
 40
0
 40
0
 40
0
 40
1
 40
1
 40
1
 40
1
 10
103.334128
 20
23.025354
 30
0.0
 10
101.013620
 20
24.365100
 30
0.0
 10
98.154637
 20
24.365100
 30
0.0
 10
95.834128
 20
23.025354
 30
0.0
  0
SPLINE
  5
117
100
AcDbEntity
  8
Layer_1
 62
1
100
AcDbSpline
 70
8
 71
3
 72
8
 73
4
 74
0
 40
0
 40
0
 40
0
 40
0
 40
1
 40
1
 40
1
 40
1
 10
95.834128
 20
23.025354
 30
0.0
 10
93.513620
 20
21.685608
 30
0.0
 10
92.084128
 20
19.209655
 30
0.0
 10
92.084128
 20
16.530164
 30
0.0
  0
SPLINE
  5
118
100
AcDbEntity
  8
Layer_1
 62
1
100
AcDbSpline
 70
8
 71
3
 72
8
 73
4
 74
0
 40
0
 40
0
 40
0
 40
0
 40
1
 40
1
 40
1
 40
1
 10
92.084128
 20
16.530164
 30
0.0
 10
92.084128
 20
13.850672
 30
0.0
 10
93.513620
 20
11.374719
 30
0.0
 10
95.834128
 20
10.034973
 30
0.0
  0
SPLINE
  5
119
100
AcDbEntity
  8
Layer_1
 62
1
100
AcDbSpline
 70
8
 71
3
 72
8
 73
4
 74
0
 40
0
 40
0
 40
0
 40
0
 40
1
 40
1
 40
1
 40
1
 10
95.834128
 20
10.034973
 30
0.0
 10
98.154637
 20
8.695227
 30
0.0
 10
101.013620
 20
8.695227
 30
0.0
 10
103.334128
 20
10.034973
 30
0.0
  0
SPLINE
  5
11a
100
AcDbEntity
  8
Layer_1
 62
1
100
AcDbSpline
 70
8
 71
3
 72
8
 73
4
 74
0
 40
0
 40
0
 40
0
 40
0
 40
1
 40
1
 40
1
 40
1
 10
103.334128
 20
10.034973
 30
0.0
 10
105.654636
 20
11.374719
 30
0.0
 10
107.084128
 20
13.850672
 30
0.0
 10
107.084128
 20
16.530164
 30
0.0
  0
LINE
  5
11b
100
AcDbEntity
  8
Layer_1
 62
1
100
AcDbLine
 10
107.084128
 20
16.530164
 30
0.0
 11
107.084128
 21
16.530164
 31
0.0
  0
LINE
  5
11c
100
AcDbEntity
  8
Layer_1
 62
7
100
AcDbLine
 10
95.211818
 20
56.843988
 30
0.0
 11
95.211818
 21
53.843740
 31
0.0
  0
LINE
  5
11d
100
AcDbEntity
  8
Layer_1
 62
7
100
AcDbLine
 10
95.211818
 20
53.843740
 30
0.0
 11
89.211839
 21
53.843740
 31
0.0
  0
LINE
  5
11e
100
AcDbEntity
  8
Layer_1
 62
7
100
AcDbLine
 10
89.211839
 20
53.843740
 30
0.0
 11
89.211839
 21
48.843665
 31
0.0
  0
LINE
  5
11f
100
AcDbEntity
  8
Layer_1
 62
7
100
AcDbLine
 10
89.211839
 20
48.843665
 30
0.0
 11
86.211574
 21
48.843665
 31
0.0
  0
LINE
  5
120
100
AcDbEntity
  8
Layer_1
 62
7
100
AcDbLine
 10
86.211574
 20
48.843665
 30
0.0
 11
86.211574
 21
38.844052
 31
0.0
  0
LINE
  5
121
100
AcDbEntity
  8
Layer_1
 62
7
100
AcDbLine
 10
86.211574
 20
38.844052
 30
0.0
 11
89.211839
 21
38.844052
 31
0.0
  0
LINE
  5
122
100
AcDbEntity
  8
Layer_1
 62
7
100
AcDbLine
 10
89.211839
 20
38.844052
 30
0.0
 11
89.211839
 21
33.843977
 31
0.0
  0
LINE
  5
123
100
AcDbEntity
  8
Layer_1
 62
7
100
AcDbLine
 10
89.211839
 20
33.843977
 30
0.0
 11
95.211818
 21
33.843977
 31
0.0
  0
LINE
  5
124
100
AcDbEntity
  8
Layer_1
 62
7
100
AcDbLine
 10
95.211818
 20
33.843977
 30
0.0
 11
95.211818
 21
30.843729
 31
0.0
  0
LINE
  5
125
100
AcDbEntity
  8
Layer_1
 62
7
100
AcDbLine
 10
95.211818
 20
30.843729
 30
0.0
 11
105.211965
 21
30.843729
 31
0.0
  0
LINE
  5
126
100
AcDbEntity
  8
Layer_1
 62
7
100
AcDbLine
 10
105.211965
 20
30.843729
 30
0.0
 11
105.211965
 21
33.843977
 31
0.0
  0
LINE
  5
127
100
AcDbEntity
  8
Layer_1
 62
7
100
AcDbLine
 10
105.211965
 20
33.843977
 30
0.0
 11
111.211944
 21
33.843977
 31
0.0
  0
LINE
  5
128
100
AcDbEntity
  8
Layer_1
 62
7
100
AcDbLine
 10
111.211944
 20
33.843977
 30
0.0
 11
111.211944
 21
38.844052
 31
0.0
  0
LINE
  5
129
100
AcDbEntity
  8
Layer_1
 62
7
100
AcDbLine
 10
111.211944
 20
38.844052
 30
0.0
 11
114.211656
 21
38.844052
 31
0.0
  0
LINE
  5
12a
100
AcDbEntity
  8
Layer_1
 62
7
100
AcDbLine
 10
114.211656
 20
38.844052
 30
0.0
 11
114.211656
 21
48.843665
 31
0.0
  0
LINE
  5
12b
100
AcDbEntity
  8
Layer_1
 62
7
100
AcDbLine
 10
114.211656
 20
48.843665
 30
0.0
 11
111.211944
 21
48.843665
 31
0.0
  0
LINE
  5
12c
100
AcDbEntity
  8
Layer_1
 62
7
100
AcDbLine
 10
111.211944
 20
48.843665
 30
0.0
 11
111.211944
 21
53.843740
 31
0.0
  0
LINE
  5
12d
100
AcDbEntity
  8
Layer_1
 62
7
100
AcDbLine
 10
111.211944
 20
53.843740
 30
0.0
 11
105.211965
 21
53.843740
 31
0.0
  0
LINE
  5
12e
100
AcDbEntity
  8
Layer_1
 62
7
100
AcDbLine
 10
105.211965
 20
53.843740
 30
0.0
 11
105.211965
 21
56.843988
 31
0.0
  0
LINE
  5
12f
100
AcDbEntity
  8
Layer_1
 62
7
100
AcDbLine
 10
105.211965
 20
56.843988
 30
0.0
 11
95.211818
 21
56.843988
 31
0.0
  0
LINE
  5
130
100
AcDbEntity
  8
Layer_1
 62
7
100
AcDbLine
 10
95.211818
 20
56.843988
 30
0.0
 11
95.211818
 21
56.843988
 31
0.0
  0
SPLINE
  5
131
100
AcDbEntity
  8
Layer_1
 62
1
100
AcDbSpline
 70
8
 71
3
 72
8
 73
4
 74
0
 40
0
 40
0
 40
0
 40
0
 40
1
 40
1
 40
1
 40
1
 10
106.211734
 20
43.843901
 30
0.0
 10
106.211734
 20
45.987494
 30
0.0
 10
105.068140
 20
47.968257
 30
0.0
 10
103.211733
 20
49.040053
 30
0.0
  0
SPLINE
  5
132
100
AcDbEntity
  8
Layer_1
 62
1
100
AcDbSpline
 70
8
 71
3
 72
8
 73
4
 74
0
 40
0
 40
0
 40
0
 40
0
 40
1
 40
1
 40
1
 40
1
 10
103.211733
 20
49.040053
 30
0.0
 10
101.355327
 20
50.111850
 30
0.0
 10
99.068140
 20
50.111850
 30
0.0
 10
97.211733
 20
49.040053
 30
0.0
  0
SPLINE
  5
133
100
AcDbEntity
  8
Layer_1
 62
1
100
AcDbSpline
 70
8
 71
3
 72
8
 73
4
 74
0
 40
0
 40
0
 40
0
 40
0
 40
1
 40
1
 40
1
 40
1
 10
97.211733
 20
49.040053
 30
0.0
 10
95.355327
 20
47.968257
 30
0.0
 10
94.211733
 20
45.987494
 30
0.0
 10
94.211734
 20
43.843901
 30
0.0
  0
SPLINE
  5
134
100
AcDbEntity
  8
Layer_1
 62
1
100
AcDbSpline
 70
8
 71
3
 72
8
 73
4
 74
0
 40
0
 40
0
 40
0
 40
0
 40
1
 40
1
 40
1
 40
1
 10
94.211734
 20
43.843901
 30
0.0
 10
94.211734
 20
41.700307
 30
0.0
 10
95.355327
 20
39.719545
 30
0.0
 10
97.211734
 20
38.647748
 30
0.0
  0
SPLINE
  5
135
100
AcDbEntity
  8
Layer_1
 62
1
100
AcDbSpline
 70
8
 71
3
 72
8
 73
4
 74
0
 40
0
 40
0
 40
0
 40
0
 40
1
 40
1
 40
1
 40
1
 10
97.211734
 20
38.647748
 30
0.0
 10
99.068140
 20
37.575952
 30
0.0
 10
101.355327
 20
37.575952
 30
0.0
 10
103.211734
 20
38.647748
 30
0.0
  0
SPLINE
  5
136
100
AcDbEntity
  8
Layer_1
 62
1
100
AcDbSpline
 70
8
 71
3
 72
8
 73
4
 74
0
 40
0
 40
0
 40
0
 40
0
 40
1
 40
1
 40
1
 40
1
 10
103.211734
 20
38.647748
 30
0.0
 10
105.068140
 20
39.719545
 30
0.0
 10
106.211734
 20
41.700307
 30
0.0
 10
106.211734
 20
43.843901
 30
0.0
  0
LINE
  5
137
100
AcDbEntity
  8
Layer_1
 62
1
100
AcDbLine
 10
106.211734
 20
43.843901
 30
0.0
 11
106.211734
 21
43.843901
 31
0.0
  0
LINE
  5
138
100
AcDbEntity
  8
Layer_1
 62
7
100
AcDbLine
 10
106.887845
 20
59.422240
 30
0.0
 11
56.887847
 21
59.422240
 31
0.0
  0
LINE
  5
139
100
AcDbEntity
  8
Layer_1
 62
7
100
AcDbLine
 10
56.887847
 20
59.422240
 30
0.0
 11
56.887847
 21
111.422238
 31
0.0
  0
LINE
  5
13a
100
AcDbEntity
  8
Layer_1
 62
7
100
AcDbLine
 10
56.887847
 20
111.422238
 30
0.0
 11
106.887845
 21
111.422238
 31
0.0
  0
LINE
  5
13b
100
AcDbEntity
  8
Layer_1
 62
7
100
AcDbLine
 10
106.887845
 20
111.422238
 30
0.0
 11
106.887845
 21
59.422240
 31
0.0
  0
LINE
  5
13c
100
AcDbEntity
  8
Layer_1
 62
7
100
AcDbLine
 10
106.887845
 20
59.422240
 30
0.0
 11
106.887845
 21
59.422240
 31
0.0
  0
LINE
  5
13d
100
AcDbEntity
  8
Layer_1
 62
1
100
AcDbLine
 10
86.887846
 20
62.422234
 30
0.0
 11
76.887847
 21
62.422234
 31
0.0
  0
LINE
  5
13e
100
AcDbEntity
  8
Layer_1
 62
1
100
AcDbLine
 10
76.887847
 20
62.422234
 30
0.0
 11
76.887847
 21
65.422228
 31
0.0
  0
LINE
  5
13f
100
AcDbEntity
  8
Layer_1
 62
1
100
AcDbLine
 10
76.887847
 20
65.422228
 30
0.0
 11
86.887846
 21
65.422228
 31
0.0
  0
LINE
  5
140
100
AcDbEntity
  8
Layer_1
 62
1
100
AcDbLine
 10
86.887846
 20
65.422228
 30
0.0
 11
86.887846
 21
62.422234
 31
0.0
  0
LINE
  5
141
100
AcDbEntity
  8
Layer_1
 62
1
100
AcDbLine
 10
86.887846
 20
62.422234
 30
0.0
 11
86.887846
 21
62.422234
 31
0.0
  0
LINE
  5
142
100
AcDbEntity
  8
Layer_1
 62
1
100
AcDbLine
 10
86.887846
 20
77.422238
 30
0.0
 11
76.887847
 21
77.422238
 31
0.0
  0
LINE
  5
143
100
AcDbEntity
  8
Layer_1
 62
1
100
AcDbLine
 10
76.887847
 20
77.422238
 30
0.0
 11
76.887847
 21
83.422237
 31
0.0
  0
LINE
  5
144
100
AcDbEntity
  8
Layer_1
 62
1
100
AcDbLine
 10
76.887847
 20
83.422237
 30
0.0
 11
86.887846
 21
83.422237
 31
0.0
  0
LINE
  5
145
100
AcDbEntity
  8
Layer_1
 62
1
100
AcDbLine
 10
86.887846
 20
83.422237
 30
0.0
 11
86.887846
 21
77.422238
 31
0.0
  0
LINE
  5
146
100
AcDbEntity
  8
Layer_1
 62
1
100
AcDbLine
 10
86.887846
 20
77.422238
 30
0.0
 11
86.887846
 21
77.422238
 31
0.0
  0
LINE
  5
147
100
AcDbEntity
  8
Layer_1
 62
1
100
AcDbLine
 10
72.887846
 20
99.422239
 30
0.0
 11
66.887847
 21
99.422239
 31
0.0
  0
LINE
  5
148
100
AcDbEntity
  8
Layer_1
 62
1
100
AcDbLine
 10
66.887847
 20
99.422239
 30
0.0
 11
66.887847
 21
89.422239
 31
0.0
  0
LINE
  5
149
100
AcDbEntity
  8
Layer_1
 62
1
100
AcDbLine
 10
66.887847
 20
89.422239
 30
0.0
 11
72.887846
 21
89.422239
 31
0.0
  0
LINE
  5
14a
100
AcDbEntity
  8
Layer_1
 62
1
100
AcDbLine
 10
72.887846
 20
89.422239
 30
0.0
 11
72.887846
 21
99.422239
 31
0.0
  0
LINE
  5
14b
100
AcDbEntity
  8
Layer_1
 62
1
100
AcDbLine
 10
72.887846
 20
99.422239
 30
0.0
 11
72.887846
 21
99.422239
 31
0.0
  0
LINE
  5
14c
100
AcDbEntity
  8
Layer_1
 62
1
100
AcDbLine
 10
86.887846
 20
108.422238
 30
0.0
 11
76.887847
 21
108.422238
 31
0.0
  0
LINE
  5
14d
100
AcDbEntity
  8
Layer_1
 62
1
100
AcDbLine
 10
76.887847
 20
108.422238
 30
0.0
 11
76.887847
 21
105.422238
 31
0.0
  0
LINE
  5
14e
100
AcDbEntity
  8
Layer_1
 62
1
100
AcDbLine
 10
76.887847
 20
105.422238
 30
0.0
 11
86.887846
 21
105.422238
 31
0.0
  0
LINE
  5
14f
100
AcDbEntity
  8
Layer_1
 62
1
100
AcDbLine
 10
86.887846
 20
105.422238
 30
0.0
 11
86.887846
 21
108.422238
 31
0.0
  0
LINE
  5
150
100
AcDbEntity
  8
Layer_1
 62
1
100
AcDbLine
 10
86.887846
 20
108.422238
 30
0.0
 11
86.887846
 21
108.422238
 31
0.0
  0
LINE
  5
151
100
AcDbEntity
  8
Layer_1
 62
1
100
AcDbLine
 10
96.887846
 20
99.422239
 30
0.0
 11
96.887846
 21
89.422239
 31
0.0
  0
LINE
  5
152
100
AcDbEntity
  8
Layer_1
 62
1
100
AcDbLine
 10
96.887846
 20
89.422239
 30
0.0
 11
90.887846
 21
89.422239
 31
0.0
  0
LINE
  5
153
100
AcDbEntity
  8
Layer_1
 62
1
100
AcDbLine
 10
90.887846
 20
89.422239
 30
0.0
 11
90.887846
 21
99.422239
 31
0.0
  0
LINE
  5
154
100
AcDbEntity
  8
Layer_1
 62
1
100
AcDbLine
 10
90.887846
 20
99.422239
 30
0.0
 11
96.887846
 21
99.422239
 31
0.0
  0
LINE
  5
155
100
AcDbEntity
  8
Layer_1
 62
1
100
AcDbLine
 10
96.887846
 20
99.422239
 30
0.0
 11
96.887846
 21
99.422239
 31
0.0
  0
SPLINE
  5
156
100
AcDbEntity
  8
Layer_1
 62
1
100
AcDbSpline
 70
8
 71
3
 72
8
 73
4
 74
0
 40
0
 40
0
 40
0
 40
0
 40
1
 40
1
 40
1
 40
1
 10
84.787847
 20
71.422244
 30
0.0
 10
84.788170
 20
72.458530
 30
0.0
 10
84.235504
 20
73.416236
 30
0.0
 10
83.338108
 20
73.934472
 30
0.0
  0
SPLINE
  5
157
100
AcDbEntity
  8
Layer_1
 62
1
100
AcDbSpline
 70
8
 71
3
 72
8
 73
4
 74
0
 40
0
 40
0
 40
0
 40
0
 40
1
 40
1
 40
1
 40
1
 10
83.338108
 20
73.934472
 30
0.0
 10
82.440712
 20
74.452708
 30
0.0
 10
81.334981
 20
74.452708
 30
0.0
 10
80.437585
 20
73.934472
 30
0.0
  0
SPLINE
  5
158
100
AcDbEntity
  8
Layer_1
 62
1
100
AcDbSpline
 70
8
 71
3
 72
8
 73
4
 74
0
 40
0
 40
0
 40
0
 40
0
 40
1
 40
1
 40
1
 40
1
 10
80.437585
 20
73.934472
 30
0.0
 10
79.540190
 20
73.416236
 30
0.0
 10
78.987523
 20
72.458530
 30
0.0
 10
78.987847
 20
71.422244
 30
0.0
  0
SPLINE
  5
159
100
AcDbEntity
  8
Layer_1
 62
1
100
AcDbSpline
 70
8
 71
3
 72
8
 73
4
 74
0
 40
0
 40
0
 40
0
 40
0
 40
1
 40
1
 40
1
 40
1
 10
78.987847
 20
71.422244
 30
0.0
 10
78.987523
 20
70.385959
 30
0.0
 10
79.540190
 20
69.428253
 30
0.0
 10
80.437585
 20
68.910017
 30
0.0
  0
SPLINE
  5
15a
100
AcDbEntity
  8
Layer_1
 62
1
100
AcDbSpline
 70
8
 71
3
 72
8
 73
4
 74
0
 40
0
 40
0
 40
0
 40
0
 40
1
 40
1
 40
1
 40
1
 10
80.437585
 20
68.910017
 30
0.0
 10
81.334981
 20
68.391781
 30
0.0
 10
82.440712
 20
68.391781
 30
0.0
 10
83.338108
 20
68.910017
 30
0.0
  0
SPLINE
  5
15b
100
AcDbEntity
  8
Layer_1
 62
1
100
AcDbSpline
 70
8
 71
3
 72
8
 73
4
 74
0
 40
0
 40
0
 40
0
 40
0
 40
1
 40
1
 40
1
 40
1
 10
83.338108
 20
68.910017
 30
0.0
 10
84.235504
 20
69.428253
 30
0.0
 10
84.788170
 20
70.385959
 30
0.0
 10
84.787847
 20
71.422244
 30
0.0
  0
LINE
  5
15c
100
AcDbEntity
  8
Layer_1
 62
1
100
AcDbLine
 10
84.787847
 20
71.422244
 30
0.0
 11
84.787847
 21
71.422244
 31
0.0
  0
SPLINE
  5
15d
100
AcDbEntity
  8
Layer_1
 62
1
100
AcDbSpline
 70
8
 71
3
 72
8
 73
4
 74
0
 40
0
 40
0
 40
0
 40
0
 40
1
 40
1
 40
1
 40
1
 10
63.387847
 20
103.422240
 30
0.0
 10
63.387847
 20
104.047454
 30
0.0
 10
63.054298
 20
104.625177
 30
0.0
 10
62.512847
 20
104.937784
 30
0.0
  0
SPLINE
  5
15e
100
AcDbEntity
  8
Layer_1
 62
1
100
AcDbSpline
 70
8
 71
3
 72
8
 73
4
 74
0
 40
0
 40
0
 40
0
 40
0
 40
1
 40
1
 40
1
 40
1
 10
62.512847
 20
104.937784
 30
0.0
 10
61.971395
 20
105.250392
 30
0.0
 10
61.304298
 20
105.250392
 30
0.0
 10
60.762847
 20
104.937784
 30
0.0
  0
SPLINE
  5
15f
100
AcDbEntity
  8
Layer_1
 62
1
100
AcDbSpline
 70
8
 71
3
 72
8
 73
4
 74
0
 40
0
 40
0
 40
0
 40
0
 40
1
 40
1
 40
1
 40
1
 10
60.762847
 20
104.937784
 30
0.0
 10
60.221395
 20
104.625177
 30
0.0
 10
59.887847
 20
104.047454
 30
0.0
 10
59.887847
 20
103.422240
 30
0.0
  0
SPLINE
  5
160
100
AcDbEntity
  8
Layer_1
 62
1
100
AcDbSpline
 70
8
 71
3
 72
8
 73
4
 74
0
 40
0
 40
0
 40
0
 40
0
 40
1
 40
1
 40
1
 40
1
 10
59.887847
 20
103.422240
 30
0.0
 10
59.887847
 20
102.797025
 30
0.0
 10
60.221395
 20
102.219303
 30
0.0
 10
60.762847
 20
101.906695
 30
0.0
  0
SPLINE
  5
161
100
AcDbEntity
  8
Layer_1
 62
1
100
AcDbSpline
 70
8
 71
3
 72
8
 73
4
 74
0
 40
0
 40
0
 40
0
 40
0
 40
1
 40
1
 40
1
 40
1
 10
60.762847
 20
101.906695
 30
0.0
 10
61.304298
 20
101.594088
 30
0.0
 10
61.971395
 20
101.594088
 30
0.0
 10
62.512847
 20
101.906695
 30
0.0
  0
SPLINE
  5
162
100
AcDbEntity
  8
Layer_1
 62
1
100
AcDbSpline
 70
8
 71
3
 72
8
 73
4
 74
0
 40
0
 40
0
 40
0
 40
0
 40
1
 40
1
 40
1
 40
1
 10
62.512847
 20
101.906695
 30
0.0
 10
63.054298
 20
102.219303
 30
0.0
 10
63.387847
 20
102.797025
 30
0.0
 10
63.387847
 20
103.422240
 30
0.0
  0
LINE
  5
163
100
AcDbEntity
  8
Layer_1
 62
1
100
AcDbLine
 10
63.387847
 20
103.422240
 30
0.0
 11
63.387847
 21
103.422240
 31
0.0
  0
SPLINE
  5
164
100
AcDbEntity
  8
Layer_1
 62
1
100
AcDbSpline
 70
8
 71
3
 72
8
 73
4
 74
0
 40
0
 40
0
 40
0
 40
0
 40
1
 40
1
 40
1
 40
1
 10
103.887846
 20
103.422240
 30
0.0
 10
103.888407
 20
104.047829
 30
0.0
 10
103.554982
 20
104.626137
 30
0.0
 10
103.013300
 20
104.939094
 30
0.0
  0
SPLINE
  5
165
100
AcDbEntity
  8
Layer_1
 62
1
100
AcDbSpline
 70
8
 71
3
 72
8
 73
4
 74
0
 40
0
 40
0
 40
0
 40
0
 40
1
 40
1
 40
1
 40
1
 10
103.013300
 20
104.939094
 30
0.0
 10
102.471618
 20
105.252050
 30
0.0
 10
101.804075
 20
105.252050
 30
0.0
 10
101.262393
 20
104.939094
 30
0.0
  0
SPLINE
  5
166
100
AcDbEntity
  8
Layer_1
 62
1
100
AcDbSpline
 70
8
 71
3
 72
8
 73
4
 74
0
 40
0
 40
0
 40
0
 40
0
 40
1
 40
1
 40
1
 40
1
 10
101.262393
 20
104.939094
 30
0.0
 10
100.720710
 20
104.626137
 30
0.0
 10
100.387285
 20
104.047829
 30
0.0
 10
100.387847
 20
103.422240
 30
0.0
  0
SPLINE
  5
167
100
AcDbEntity
  8
Layer_1
 62
1
100
AcDbSpline
 70
8
 71
3
 72
8
 73
4
 74
0
 40
0
 40
0
 40
0
 40
0
 40
1
 40
1
 40
1
 40
1
 10
100.387847
 20
103.422240
 30
0.0
 10
100.387285
 20
102.796651
 30
0.0
 10
100.720710
 20
102.218342
 30
0.0
 10
101.262393
 20
101.905386
 30
0.0
  0
SPLINE
  5
168
100
AcDbEntity
  8
Layer_1
 62
1
100
AcDbSpline
 70
8
 71
3
 72
8
 73
4
 74
0
 40
0
 40
0
 40
0
 40
0
 40
1
 40
1
 40
1
 40
1
 10
101.262393
 20
101.905386
 30
0.0
 10
101.804075
 20
101.592429
 30
0.0
 10
102.471618
 20
101.592429
 30
0.0
 10
103.013300
 20
101.905386
 30
0.0
  0
SPLINE
  5
169
100
AcDbEntity
  8
Layer_1
 62
1
100
AcDbSpline
 70
8
 71
3
 72
8
 73
4
 74
0
 40
0
 40
0
 40
0
 40
0
 40
1
 40
1
 40
1
 40
1
 10
103.013300
 20
101.905386
 30
0.0
 10
103.554982
 20
102.218342
 30
0.0
 10
103.888407
 20
102.796651
 30
0.0
 10
103.887846
 20
103.422240
 30
0.0
  0
LINE
  5
16a
100
AcDbEntity
  8
Layer_1
 62
1
100
AcDbLine
 10
103.887846
 20
103.422240
 30
0.0
 11
103.887846
 21
103.422240
 31
0.0
  0
SPLINE
  5
16b
100
AcDbEntity
  8
Layer_1
 62
1
100
AcDbSpline
 70
8
 71
3
 72
8
 73
4
 74
0
 40
0
 40
0
 40
0
 40
0
 40
1
 40
1
 40
1
 40
1
 10
63.387847
 20
71.422244
 30
0.0
 10
63.387847
 20
72.047459
 30
0.0
 10
63.054298
 20
72.625181
 30
0.0
 10
62.512847
 20
72.937789
 30
0.0
  0
SPLINE
  5
16c
100
AcDbEntity
  8
Layer_1
 62
1
100
AcDbSpline
 70
8
 71
3
 72
8
 73
4
 74
0
 40
0
 40
0
 40
0
 40
0
 40
1
 40
1
 40
1
 40
1
 10
62.512847
 20
72.937789
 30
0.0
 10
61.971395
 20
73.250396
 30
0.0
 10
61.304298
 20
73.250396
 30
0.0
 10
60.762847
 20
72.937789
 30
0.0
  0
SPLINE
  5
16d
100
AcDbEntity
  8
Layer_1
 62
1
100
AcDbSpline
 70
8
 71
3
 72
8
 73
4
 74
0
 40
0
 40
0
 40
0
 40
0
 40
1
 40
1
 40
1
 40
1
 10
60.762847
 20
72.937789
 30
0.0
 10
60.221395
 20
72.625181
 30
0.0
 10
59.887847
 20
72.047459
 30
0.0
 10
59.887847
 20
71.422244
 30
0.0
  0
SPLINE
  5
16e
100
AcDbEntity
  8
Layer_1
 62
1
100
AcDbSpline
 70
8
 71
3
 72
8
 73
4
 74
0
 40
0
 40
0
 40
0
 40
0
 40
1
 40
1
 40
1
 40
1
 10
59.887847
 20
71.422244
 30
0.0
 10
59.887847
 20
70.797030
 30
0.0
 10
60.221395
 20
70.219307
 30
0.0
 10
60.762847
 20
69.906700
 30
0.0
  0
SPLINE
  5
16f
100
AcDbEntity
  8
Layer_1
 62
1
100
AcDbSpline
 70
8
 71
3
 72
8
 73
4
 74
0
 40
0
 40
0
 40
0
 40
0
 40
1
 40
1
 40
1
 40
1
 10
60.762847
 20
69.906700
 30
0.0
 10
61.304298
 20
69.594093
 30
0.0
 10
61.971395
 20
69.594093
 30
0.0
 10
62.512847
 20
69.906700
 30
0.0
  0
SPLINE
  5
170
100
AcDbEntity
  8
Layer_1
 62
1
100
AcDbSpline
 70
8
 71
3
 72
8
 73
4
 74
0
 40
0
 40
0
 40
0
 40
0
 40
1
 40
1
 40
1
 40
1
 10
62.512847
 20
69.906700
 30
0.0
 10
63.054298
 20
70.219307
 30
0.0
 10
63.387847
 20
70.797030
 30
0.0
 10
63.387847
 20
71.422244
 30
0.0
  0
LINE
  5
171
100
AcDbEntity
  8
Layer_1
 62
1
100
AcDbLine
 10
63.387847
 20
71.422244
 30
0.0
 11
63.387847
 21
71.422244
 31
0.0
  0
SPLINE
  5
172
100
AcDbEntity
  8
Layer_1
 62
1
100
AcDbSpline
 70
8
 71
3
 72
8
 73
4
 74
0
 40
0
 40
0
 40
0
 40
0
 40
1
 40
1
 40
1
 40
1
 10
103.887846
 20
71.422244
 30
0.0
 10
103.888407
 20
72.047833
 30
0.0
 10
103.554982
 20
72.626142
 30
0.0
 10
103.013300
 20
72.939098
 30
0.0
  0
SPLINE
  5
173
100
AcDbEntity
  8
Layer_1
 62
1
100
AcDbSpline
 70
8
 71
3
 72
8
 73
4
 74
0
 40
0
 40
0
 40
0
 40
0
 40
1
 40
1
 40
1
 40
1
 10
103.013300
 20
72.939098
 30
0.0
 10
102.471618
 20
73.252055
 30
0.0
 10
101.804075
 20
73.252055
 30
0.0
 10
101.262393
 20
72.939098
 30
0.0
  0
SPLINE
  5
174
100
AcDbEntity
  8
Layer_1
 62
1
100
AcDbSpline
 70
8
 71
3
 72
8
 73
4
 74
0
 40
0
 40
0
 40
0
 40
0
 40
1
 40
1
 40
1
 40
1
 10
101.262393
 20
72.939098
 30
0.0
 10
100.720710
 20
72.626142
 30
0.0
 10
100.387285
 20
72.047833
 30
0.0
 10
100.387847
 20
71.422244
 30
0.0
  0
SPLINE
  5
175
100
AcDbEntity
  8
Layer_1
 62
1
100
AcDbSpline
 70
8
 71
3
 72
8
 73
4
 74
0
 40
0
 40
0
 40
0
 40
0
 40
1
 40
1
 40
1
 40
1
 10
100.387847
 20
71.422244
 30
0.0
 10
100.387285
 20
70.796656
 30
0.0
 10
100.720710
 20
70.218347
 30
0.0
 10
101.262393
 20
69.905390
 30
0.0
  0
SPLINE
  5
176
100
AcDbEntity
  8
Layer_1
 62
1
100
AcDbSpline
 70
8
 71
3
 72
8
 73
4
 74
0
 40
0
 40
0
 40
0
 40
0
 40
1
 40
1
 40
1
 40
1
 10
101.262393
 20
69.905390
 30
0.0
 10
101.804075
 20
69.592434
 30
0.0
 10
102.471618
 20
69.592434
 30
0.0
 10
103.013300
 20
69.905390
 30
0.0
  0
SPLINE
  5
177
100
AcDbEntity
  8
Layer_1
 62
1
100
AcDbSpline
 70
8
 71
3
 72
8
 73
4
 74
0
 40
0
 40
0
 40
0
 40
0
 40
1
 40
1
 40
1
 40
1
 10
103.013300
 20
69.905390
 30
0.0
 10
103.554982
 20
70.218347
 30
0.0
 10
103.888407
 20
70.796656
 30
0.0
 10
103.887846
 20
71.422244
 30
0.0
  0
LINE
  5
178
100
AcDbEntity
  8
Layer_1
 62
1
100
AcDbLine
 10
103.887846
 20
71.422244
 30
0.0
 11
103.887846
 21
71.422244
 31
0.0
  0
LINE
  5
179
100
AcDbEntity
  8
Layer_1
 62
7
100
AcDbLine
 10
134.465808
 20
87.215112
 30
0.0
 11
131.465543
 21
87.215112
 31
0.0
  0
LINE
  5
17a
100
AcDbEntity
  8
Layer_1
 62
7
100
AcDbLine
 10
131.465543
 20
87.215112
 30
0.0
 11
131.465543
 21
107.214855
 31
0.0
  0
LINE
  5
17b
100
AcDbEntity
  8
Layer_1
 62
7
100
AcDbLine
 10
131.465543
 20
107.214855
 30
0.0
 11
111.465800
 21
107.214855
 31
0.0
  0
LINE
  5
17c
100
AcDbEntity
  8
Layer_1
 62
7
100
AcDbLine
 10
111.465800
 20
107.214855
 30
0.0
 11
111.465800
 21
87.215112
 31
0.0
  0
LINE
  5
17d
100
AcDbEntity
  8
Layer_1
 62
7
100
AcDbLine
 10
111.465800
 20
87.215112
 30
0.0
 11
108.465535
 21
87.215112
 31
0.0
  0
LINE
  5
17e
100
AcDbEntity
  8
Layer_1
 62
7
100
AcDbLine
 10
108.465535
 20
87.215112
 30
0.0
 11
108.465535
 21
77.214963
 31
0.0
  0
LINE
  5
17f
100
AcDbEntity
  8
Layer_1
 62
7
100
AcDbLine
 10
108.465535
 20
77.214963
 30
0.0
 11
111.465800
 21
77.214963
 31
0.0
  0
LINE
  5
180
100
AcDbEntity
  8
Layer_1
 62
7
100
AcDbLine
 10
111.465800
 20
77.214963
 30
0.0
 11
111.465800
 21
57.215220
 31
0.0
  0
LINE
  5
181
100
AcDbEntity
  8
Layer_1
 62
7
100
AcDbLine
 10
111.465800
 20
57.215220
 30
0.0
 11
131.465543
 21
57.215220
 31
0.0
  0
LINE
  5
182
100
AcDbEntity
  8
Layer_1
 62
7
100
AcDbLine
 10
131.465543
 20
57.215220
 30
0.0
 11
131.465543
 21
77.214963
 31
0.0
  0
LINE
  5
183
100
AcDbEntity
  8
Layer_1
 62
7
100
AcDbLine
 10
131.465543
 20
77.214963
 30
0.0
 11
134.465808
 21
77.214963
 31
0.0
  0
LINE
  5
184
100
AcDbEntity
  8
Layer_1
 62
7
100
AcDbLine
 10
134.465808
 20
77.214963
 30
0.0
 11
134.465808
 21
87.215112
 31
0.0
  0
LINE
  5
185
100
AcDbEntity
  8
Layer_1
 62
7
100
AcDbLine
 10
134.465808
 20
87.215112
 30
0.0
 11
134.465808
 21
87.215112
 31
0.0
  0
LINE
  5
186
100
AcDbEntity
  8
Layer_1
 62
1
100
AcDbLine
 10
126.465697
 20
91.214959
 30
0.0
 11
126.465697
 21
97.214959
 31
0.0
  0
LINE
  5
187
100
AcDbEntity
  8
Layer_1
 62
1
100
AcDbLine
 10
126.465697
 20
97.214959
 30
0.0
 11
116.465689
 21
97.214959
 31
0.0
  0
LINE
  5
188
100
AcDbEntity
  8
Layer_1
 62
1
100
AcDbLine
 10
116.465689
 20
97.214959
 30
0.0
 11
116.465689
 21
91.214959
 31
0.0
  0
LINE
  5
189
100
AcDbEntity
  8
Layer_1
 62
1
100
AcDbLine
 10
116.465689
 20
91.214959
 30
0.0
 11
126.465697
 21
91.214959
 31
0.0
  0
LINE
  5
18a
100
AcDbEntity
  8
Layer_1
 62
1
100
AcDbLine
 10
126.465697
 20
91.214959
 30
0.0
 11
126.465697
 21
91.214959
 31
0.0
  0
LINE
  5
18b
100
AcDbEntity
  8
Layer_1
 62
1
100
AcDbLine
 10
126.465697
 20
67.214960
 30
0.0
 11
116.465689
 21
67.214960
 31
0.0
  0
LINE
  5
18c
100
AcDbEntity
  8
Layer_1
 62
1
100
AcDbLine
 10
116.465689
 20
67.214960
 30
0.0
 11
116.465689
 21
73.214959
 31
0.0
  0
LINE
  5
18d
100
AcDbEntity
  8
Layer_1
 62
1
100
AcDbLine
 10
116.465689
 20
73.214959
 30
0.0
 11
126.465697
 21
73.214959
 31
0.0
  0
LINE
  5
18e
100
AcDbEntity
  8
Layer_1
 62
1
100
AcDbLine
 10
126.465697
 20
73.214959
 30
0.0
 11
126.465697
 21
67.214960
 31
0.0
  0
LINE
  5
18f
100
AcDbEntity
  8
Layer_1
 62
1
100
AcDbLine
 10
126.465697
 20
67.214960
 30
0.0
 11
126.465697
 21
67.214960
 31
0.0
  0
LINE
  5
190
100
AcDbEntity
  8
Layer_1
 62
7
100
AcDbLine
 10
138.397499
 20
34.932757
 30
0.0
 11
135.397788
 21
34.932757
 31
0.0
  0
LINE
  5
191
100
AcDbEntity
  8
Layer_1
 62
7
100
AcDbLine
 10
135.397788
 20
34.932757
 30
0.0
 11
135.397788
 21
54.932499
 31
0.0
  0
LINE
  5
192
100
AcDbEntity
  8
Layer_1
 62
7
100
AcDbLine
 10
135.397788
 20
54.932499
 30
0.0
 11
115.397492
 21
54.932499
 31
0.0
  0
LINE
  5
193
100
AcDbEntity
  8
Layer_1
 62
7
100
AcDbLine
 10
115.397492
 20
54.932499
 30
0.0
 11
115.397492
 21
34.932757
 31
0.0
  0
LINE
  5
194
100
AcDbEntity
  8
Layer_1
 62
7
100
AcDbLine
 10
115.397492
 20
34.932757
 30
0.0
 11
112.397777
 21
34.932757
 31
0.0
  0
LINE
  5
195
100
AcDbEntity
  8
Layer_1
 62
7
100
AcDbLine
 10
112.397777
 20
34.932757
 30
0.0
 11
112.397777
 21
24.932607
 31
0.0
  0
LINE
  5
196
100
AcDbEntity
  8
Layer_1
 62
7
100
AcDbLine
 10
112.397777
 20
24.932607
 30
0.0
 11
115.397492
 21
24.932607
 31
0.0
  0
LINE
  5
197
100
AcDbEntity
  8
Layer_1
 62
7
100
AcDbLine
 10
115.397492
 20
24.932607
 30
0.0
 11
115.397492
 21
4.932865
 31
0.0
  0
LINE
  5
198
100
AcDbEntity
  8
Layer_1
 62
7
100
AcDbLine
 10
115.397492
 20
4.932865
 30
0.0
 11
135.397788
 21
4.932865
 31
0.0
  0
LINE
  5
199
100
AcDbEntity
  8
Layer_1
 62
7
100
AcDbLine
 10
135.397788
 20
4.932865
 30
0.0
 11
135.397788
 21
24.932607
 31
0.0
  0
LINE
  5
19a
100
AcDbEntity
  8
Layer_1
 62
7
100
AcDbLine
 10
135.397788
 20
24.932607
 30
0.0
 11
138.397499
 21
24.932607
 31
0.0
  0
LINE
  5
19b
100
AcDbEntity
  8
Layer_1
 62
7
100
AcDbLine
 10
138.397499
 20
24.932607
 30
0.0
 11
138.397499
 21
34.932757
 31
0.0
  0
LINE
  5
19c
100
AcDbEntity
  8
Layer_1
 62
7
100
AcDbLine
 10
138.397499
 20
34.932757
 30
0.0
 11
138.397499
 21
34.932757
 31
0.0
  0
SPLINE
  5
19d
100
AcDbEntity
  8
Layer_1
 62
1
100
AcDbSpline
 70
8
 71
3
 72
8
 73
4
 74
0
 40
0
 40
0
 40
0
 40
0
 40
1
 40
1
 40
1
 40
1
 10
125.397712
 20
36.882683
 30
0.0
 10
126.844892
 20
36.882301
 30
0.0
 10
128.182305
 20
37.654143
 30
0.0
 10
128.906005
 20
38.907374
 30
0.0
  0
SPLINE
  5
19e
100
AcDbEntity
  8
Layer_1
 62
1
100
AcDbSpline
 70
8
 71
3
 72
8
 73
4
 74
0
 40
0
 40
0
 40
0
 40
0
 40
1
 40
1
 40
1
 40
1
 10
128.906005
 20
38.907374
 30
0.0
 10
129.629706
 20
40.160605
 30
0.0
 10
129.629706
 20
41.704760
 30
0.0
 10
128.906005
 20
42.957992
 30
0.0
  0
SPLINE
  5
19f
100
AcDbEntity
  8
Layer_1
 62
1
100
AcDbSpline
 70
8
 71
3
 72
8
 73
4
 74
0
 40
0
 40
0
 40
0
 40
0
 40
1
 40
1
 40
1
 40
1
 10
128.906005
 20
42.957992
 30
0.0
 10
128.182305
 20
44.211223
 30
0.0
 10
126.844892
 20
44.983065
 30
0.0
 10
125.397712
 20
44.982683
 30
0.0
  0
SPLINE
  5
1a0
100
AcDbEntity
  8
Layer_1
 62
1
100
AcDbSpline
 70
8
 71
3
 72
8
 73
4
 74
0
 40
0
 40
0
 40
0
 40
0
 40
1
 40
1
 40
1
 40
1
 10
125.397712
 20
44.982683
 30
0.0
 10
123.950531
 20
44.983065
 30
0.0
 10
122.613118
 20
44.211223
 30
0.0
 10
121.889418
 20
42.957992
 30
0.0
  0
SPLINE
  5
1a1
100
AcDbEntity
  8
Layer_1
 62
1
100
AcDbSpline
 70
8
 71
3
 72
8
 73
4
 74
0
 40
0
 40
0
 40
0
 40
0
 40
1
 40
1
 40
1
 40
1
 10
121.889418
 20
42.957992
 30
0.0
 10
121.165717
 20
41.704760
 30
0.0
 10
121.165717
 20
40.160605
 30
0.0
 10
121.889418
 20
38.907374
 30
0.0
  0
SPLINE
  5
1a2
100
AcDbEntity
  8
Layer_1
 62
1
100
AcDbSpline
 70
8
 71
3
 72
8
 73
4
 74
0
 40
0
 40
0
 40
0
 40
0
 40
1
 40
1
 40
1
 40
1
 10
121.889418
 20
38.907374
 30
0.0
 10
122.613118
 20
37.654143
 30
0.0
 10
123.950531
 20
36.882301
 30
0.0
 10
125.397712
 20
36.882683
 30
0.0
  0
LINE
  5
1a3
100
AcDbEntity
  8
Layer_1
 62
1
100
AcDbLine
 10
125.397712
 20
36.882683
 30
0.0
 11
125.397712
 21
36.882683
 31
0.0
  0
SPLINE
  5
1a4
100
AcDbEntity
  8
Layer_1
 62
1
100
AcDbSpline
 70
8
 71
3
 72
8
 73
4
 74
0
 40
0
 40
0
 40
0
 40
0
 40
1
 40
1
 40
1
 40
1
 10
125.397712
 20
14.882683
 30
0.0
 10
126.844637
 20
14.882683
 30
0.0
 10
128.181652
 20
15.654608
 30
0.0
 10
128.905115
 20
16.907683
 30
0.0
  0
SPLINE
  5
1a5
100
AcDbEntity
  8
Layer_1
 62
1
100
AcDbSpline
 70
8
 71
3
 72
8
 73
4
 74
0
 40
0
 40
0
 40
0
 40
0
 40
1
 40
1
 40
1
 40
1
 10
128.905115
 20
16.907683
 30
0.0
 10
129.628578
 20
18.160757
 30
0.0
 10
129.628578
 20
19.704609
 30
0.0
 10
128.905115
 20
20.957683
 30
0.0
  0
SPLINE
  5
1a6
100
AcDbEntity
  8
Layer_1
 62
1
100
AcDbSpline
 70
8
 71
3
 72
8
 73
4
 74
0
 40
0
 40
0
 40
0
 40
0
 40
1
 40
1
 40
1
 40
1
 10
128.905115
 20
20.957683
 30
0.0
 10
128.181652
 20
22.210758
 30
0.0
 10
126.844637
 20
22.982683
 30
0.0
 10
125.397712
 20
22.982683
 30
0.0
  0
SPLINE
  5
1a7
100
AcDbEntity
  8
Layer_1
 62
1
100
AcDbSpline
 70
8
 71
3
 72
8
 73
4
 74
0
 40
0
 40
0
 40
0
 40
0
 40
1
 40
1
 40
1
 40
1
 10
125.397712
 20
22.982683
 30
0.0
 10
123.950786
 20
22.982683
 30
0.0
 10
122.613771
 20
22.210758
 30
0.0
 10
121.890308
 20
20.957683
 30
0.0
  0
SPLINE
  5
1a8
100
AcDbEntity
  8
Layer_1
 62
1
100
AcDbSpline
 70
8
 71
3
 72
8
 73
4
 74
0
 40
0
 40
0
 40
0
 40
0
 40
1
 40
1
 40
1
 40
1
 10
121.890308
 20
20.957683
 30
0.0
 10
121.166845
 20
19.704609
 30
0.0
 10
121.166845
 20
18.160757
 30
0.0
 10
121.890308
 20
16.907683
 30
0.0
  0
SPLINE
  5
1a9
100
AcDbEntity
  8
Layer_1
 62
1
100
AcDbSpline
 70
8
 71
3
 72
8
 73
4
 74
0
 40
0
 40
0
 40
0
 40
0
 40
1
 40
1
 40
1
 40
1
 10
121.890308
 20
16.907683
 30
0.0
 10
122.613771
 20
15.654608
 30
0.0
 10
123.950786
 20
14.882683
 30
0.0
 10
125.397712
 20
14.882683
 30
0.0
  0
LINE
  5
1aa
100
AcDbEntity
  8
Layer_1
 62
1
100
AcDbLine
 10
125.397712
 20
14.882683
 30
0.0
 11
125.397712
 21
14.882683
 31
0.0
  0
LINE
  5
1ab
100
AcDbEntity
  8
Layer_1
 62
7
100
AcDbLine
 10
54.745734
 20
5.007081
 30
0.0
 11
4.745735
 21
5.007081
 31
0.0
  0
LINE
  5
1ac
100
AcDbEntity
  8
Layer_1
 62
7
100
AcDbLine
 10
4.745735
 20
5.007081
 30
0.0
 11
4.745735
 21
135.007081
 31
0.0
  0
LINE
  5
1ad
100
AcDbEntity
  8
Layer_1
 62
7
100
AcDbLine
 10
4.745735
 20
135.007081
 30
0.0
 11
54.745734
 21
135.007081
 31
0.0
  0
LINE
  5
1ae
100
AcDbEntity
  8
Layer_1
 62
7
100
AcDbLine
 10
54.745734
 20
135.007081
 30
0.0
 11
54.745734
 21
5.007081
 31
0.0
  0
LINE
  5
1af
100
AcDbEntity
  8
Layer_1
 62
7
100
AcDbLine
 10
54.745734
 20
5.007081
 30
0.0
 11
54.745734
 21
5.007081
 31
0.0
  0
SPLINE
  5
1b0
100
AcDbEntity
  8
Layer_1
 62
1
100
AcDbSpline
 70
8
 71
3
 72
8
 73
4
 74
0
 40
0
 40
0
 40
0
 40
0
 40
1
 40
1
 40
1
 40
1
 10
41.245735
 20
110.007080
 30
0.0
 10
41.245735
 20
114.115634
 30
0.0
 10
39.053848
 20
117.912095
 30
0.0
 10
35.495735
 20
119.966372
 30
0.0
  0
SPLINE
  5
1b1
100
AcDbEntity
  8
Layer_1
 62
1
100
AcDbSpline
 70
8
 71
3
 72
8
 73
4
 74
0
 40
0
 40
0
 40
0
 40
0
 40
1
 40
1
 40
1
 40
1
 10
35.495735
 20
119.966372
 30
0.0
 10
31.937623
 20
122.020649
 30
0.0
 10
27.553847
 20
122.020649
 30
0.0
 10
23.995735
 20
119.966372
 30
0.0
  0
SPLINE
  5
1b2
100
AcDbEntity
  8
Layer_1
 62
1
100
AcDbSpline
 70
8
 71
3
 72
8
 73
4
 74
0
 40
0
 40
0
 40
0
 40
0
 40
1
 40
1
 40
1
 40
1
 10
23.995735
 20
119.966372
 30
0.0
 10
20.437623
 20
117.912095
 30
0.0
 10
18.245735
 20
114.115634
 30
0.0
 10
18.245735
 20
110.007080
 30
0.0
  0
SPLINE
  5
1b3
100
AcDbEntity
  8
Layer_1
 62
1
100
AcDbSpline
 70
8
 71
3
 72
8
 73
4
 74
0
 40
0
 40
0
 40
0
 40
0
 40
1
 40
1
 40
1
 40
1
 10
18.245735
 20
110.007080
 30
0.0
 10
18.245735
 20
105.898526
 30
0.0
 10
20.437623
 20
102.102065
 30
0.0
 10
23.995735
 20
100.047788
 30
0.0
  0
SPLINE
  5
1b4
100
AcDbEntity
  8
Layer_1
 62
1
100
AcDbSpline
 70
8
 71
3
 72
8
 73
4
 74
0
 40
0
 40
0
 40
0
 40
0
 40
1
 40
1
 40
1
 40
1
 10
23.995735
 20
100.047788
 30
0.0
 10
27.553847
 20
97.993510
 30
0.0
 10
31.937623
 20
97.993510
 30
0.0
 10
35.495735
 20
100.047788
 30
0.0
  0
SPLINE
  5
1b5
100
AcDbEntity
  8
Layer_1
 62
1
100
AcDbSpline
 70
8
 71
3
 72
8
 73
4
 74
0
 40
0
 40
0
 40
0
 40
0
 40
1
 40
1
 40
1
 40
1
 10
35.495735
 20
100.047788
 30
0.0
 10
39.053848
 20
102.102065
 30
0.0
 10
41.245735
 20
105.898526
 30
0.0
 10
41.245735
 20
110.007080
 30
0.0
  0
LINE
  5
1b6
100
AcDbEntity
  8
Layer_1
 62
1
100
AcDbLine
 10
41.245735
 20
110.007080
 30
0.0
 11
41.245735
 21
110.007080
 31
0.0
  0
SPLINE
  5
1b7
100
AcDbEntity
  8
Layer_1
 62
1
100
AcDbSpline
 70
8
 71
3
 72
8
 73
4
 74
0
 40
0
 40
0
 40
0
 40
0
 40
1
 40
1
 40
1
 40
1
 10
15.995735
 20
125.507080
 30
0.0
 10
15.995735
 20
126.132295
 30
0.0
 10
15.662187
 20
126.710017
 30
0.0
 10
15.120735
 20
127.022624
 30
0.0
  0
SPLINE
  5
1b8
100
AcDbEntity
  8
Layer_1
 62
1
100
AcDbSpline
 70
8
 71
3
 72
8
 73
4
 74
0
 40
0
 40
0
 40
0
 40
0
 40
1
 40
1
 40
1
 40
1
 10
15.120735
 20
127.022624
 30
0.0
 10
14.579283
 20
127.335232
 30
0.0
 10
13.912187
 20
127.335232
 30
0.0
 10
13.370735
 20
127.022624
 30
0.0
  0
SPLINE
  5
1b9
100
AcDbEntity
  8
Layer_1
 62
1
100
AcDbSpline
 70
8
 71
3
 72
8
 73
4
 74
0
 40
0
 40
0
 40
0
 40
0
 40
1
 40
1
 40
1
 40
1
 10
13.370735
 20
127.022624
 30
0.0
 10
12.829283
 20
126.710017
 30
0.0
 10
12.495735
 20
126.132295
 30
0.0
 10
12.495735
 20
125.507080
 30
0.0
  0
SPLINE
  5
1ba
100
AcDbEntity
  8
Layer_1
 62
1
100
AcDbSpline
 70
8
 71
3
 72
8
 73
4
 74
0
 40
0
 40
0
 40
0
 40
0
 40
1
 40
1
 40
1
 40
1
 10
12.495735
 20
125.507080
 30
0.0
 10
12.495735
 20
124.881865
 30
0.0
 10
12.829283
 20
124.304143
 30
0.0
 10
13.370735
 20
123.991535
 30
0.0
  0
SPLINE
  5
1bb
100
AcDbEntity
  8
Layer_1
 62
1
100
AcDbSpline
 70
8
 71
3
 72
8
 73
4
 74
0
 40
0
 40
0
 40
0
 40
0
 40
1
 40
1
 40
1
 40
1
 10
13.370735
 20
123.991535
 30
0.0
 10
13.912187
 20
123.678928
 30
0.0
 10
14.579283
 20
123.678928
 30
0.0
 10
15.120735
 20
123.991535
 30
0.0
  0
SPLINE
  5
1bc
100
AcDbEntity
  8
Layer_1
 62
1
100
AcDbSpline
 70
8
 71
3
 72
8
 73
4
 74
0
 40
0
 40
0
 40
0
 40
0
 40
1
 40
1
 40
1
 40
1
 10
15.120735
 20
123.991535
 30
0.0
 10
15.662187
 20
124.304143
 30
0.0
 10
15.995735
 20
124.881865
 30
0.0
 10
15.995735
 20
125.507080
 30
0.0
  0
LINE
  5
1bd
100
AcDbEntity
  8
Layer_1
 62
1
100
AcDbLine
 10
15.995735
 20
125.507080
 30
0.0
 11
15.995735
 21
125.507080
 31
0.0
  0
SPLINE
  5
1be
100
AcDbEntity
  8
Layer_1
 62
1
100
AcDbSpline
 70
8
 71
3
 72
8
 73
4
 74
0
 40
0
 40
0
 40
0
 40
0
 40
1
 40
1
 40
1
 40
1
 10
15.995735
 20
94.507080
 30
0.0
 10
15.995735
 20
95.132295
 30
0.0
 10
15.662187
 20
95.710017
 30
0.0
 10
15.120735
 20
96.022624
 30
0.0
  0
SPLINE
  5
1bf
100
AcDbEntity
  8
Layer_1
 62
1
100
AcDbSpline
 70
8
 71
3
 72
8
 73
4
 74
0
 40
0
 40
0
 40
0
 40
0
 40
1
 40
1
 40
1
 40
1
 10
15.120735
 20
96.022624
 30
0.0
 10
14.579283
 20
96.335232
 30
0.0
 10
13.912187
 20
96.335232
 30
0.0
 10
13.370735
 20
96.022624
 30
0.0
  0
SPLINE
  5
1c0
100
AcDbEntity
  8
Layer_1
 62
1
100
AcDbSpline
 70
8
 71
3
 72
8
 73
4
 74
0
 40
0
 40
0
 40
0
 40
0
 40
1
 40
1
 40
1
 40
1
 10
13.370735
 20
96.022624
 30
0.0
 10
12.829283
 20
95.710017
 30
0.0
 10
12.495735
 20
95.132295
 30
0.0
 10
12.495735
 20
94.507080
 30
0.0
  0
SPLINE
  5
1c1
100
AcDbEntity
  8
Layer_1
 62
1
100
AcDbSpline
 70
8
 71
3
 72
8
 73
4
 74
0
 40
0
 40
0
 40
0
 40
0
 40
1
 40
1
 40
1
 40
1
 10
12.495735
 20
94.507080
 30
0.0
 10
12.495735
 20
93.881865
 30
0.0
 10
12.829283
 20
93.304143
 30
0.0
 10
13.370735
 20
92.991535
 30
0.0
  0
SPLINE
  5
1c2
100
AcDbEntity
  8
Layer_1
 62
1
100
AcDbSpline
 70
8
 71
3
 72
8
 73
4
 74
0
 40
0
 40
0
 40
0
 40
0
 40
1
 40
1
 40
1
 40
1
 10
13.370735
 20
92.991535
 30
0.0
 10
13.912187
 20
92.678928
 30
0.0
 10
14.579283
 20
92.678928
 30
0.0
 10
15.120735
 20
92.991535
 30
0.0
  0
SPLINE
  5
1c3
100
AcDbEntity
  8
Layer_1
 62
1
100
AcDbSpline
 70
8
 71
3
 72
8
 73
4
 74
0
 40
0
 40
0
 40
0
 40
0
 40
1
 40
1
 40
1
 40
1
 10
15.120735
 20
92.991535
 30
0.0
 10
15.662187
 20
93.304143
 30
0.0
 10
15.995735
 20
93.881865
 30
0.0
 10
15.995735
 20
94.507080
 30
0.0
  0
LINE
  5
1c4
100
AcDbEntity
  8
Layer_1
 62
1
100
AcDbLine
 10
15.995735
 20
94.507080
 30
0.0
 11
15.995735
 21
94.507080
 31
0.0
  0
SPLINE
  5
1c5
100
AcDbEntity
  8
Layer_1
 62
1
100
AcDbSpline
 70
8
 71
3
 72
8
 73
4
 74
0
 40
0
 40
0
 40
0
 40
0
 40
1
 40
1
 40
1
 40
1
 10
46.995734
 20
94.507080
 30
0.0
 10
46.996236
 20
95.132629
 30
0.0
 10
46.662798
 20
95.710876
 30
0.0
 10
46.121140
 20
96.023795
 30
0.0
  0
SPLINE
  5
1c6
100
AcDbEntity
  8
Layer_1
 62
1
100
AcDbSpline
 70
8
 71
3
 72
8
 73
4
 74
0
 40
0
 40
0
 40
0
 40
0
 40
1
 40
1
 40
1
 40
1
 10
46.121140
 20
96.023795
 30
0.0
 10
45.579482
 20
96.336715
 30
0.0
 10
44.911987
 20
96.336715
 30
0.0
 10
44.370329
 20
96.023795
 30
0.0
  0
SPLINE
  5
1c7
100
AcDbEntity
  8
Layer_1
 62
1
100
AcDbSpline
 70
8
 71
3
 72
8
 73
4
 74
0
 40
0
 40
0
 40
0
 40
0
 40
1
 40
1
 40
1
 40
1
 10
44.370329
 20
96.023795
 30
0.0
 10
43.828671
 20
95.710876
 30
0.0
 10
43.495233
 20
95.132629
 30
0.0
 10
43.495735
 20
94.507080
 30
0.0
  0
SPLINE
  5
1c8
100
AcDbEntity
  8
Layer_1
 62
1
100
AcDbSpline
 70
8
 71
3
 72
8
 73
4
 74
0
 40
0
 40
0
 40
0
 40
0
 40
1
 40
1
 40
1
 40
1
 10
43.495735
 20
94.507080
 30
0.0
 10
43.495233
 20
93.881531
 30
0.0
 10
43.828671
 20
93.303284
 30
0.0
 10
44.370329
 20
92.990364
 30
0.0
  0
SPLINE
  5
1c9
100
AcDbEntity
  8
Layer_1
 62
1
100
AcDbSpline
 70
8
 71
3
 72
8
 73
4
 74
0
 40
0
 40
0
 40
0
 40
0
 40
1
 40
1
 40
1
 40
1
 10
44.370329
 20
92.990364
 30
0.0
 10
44.911987
 20
92.677444
 30
0.0
 10
45.579482
 20
92.677444
 30
0.0
 10
46.121140
 20
92.990364
 30
0.0
  0
SPLINE
  5
1ca
100
AcDbEntity
  8
Layer_1
 62
1
100
AcDbSpline
 70
8
 71
3
 72
8
 73
4
 74
0
 40
0
 40
0
 40
0
 40
0
 40
1
 40
1
 40
1
 40
1
 10
46.121140
 20
92.990364
 30
0.0
 10
46.662798
 20
93.303284
 30
0.0
 10
46.996236
 20
93.881531
 30
0.0
 10
46.995734
 20
94.507080
 30
0.0
  0
LINE
  5
1cb
100
AcDbEntity
  8
Layer_1
 62
1
100
AcDbLine
 10
46.995734
 20
94.507080
 30
0.0
 11
46.995734
 21
94.507080
 31
0.0
  0
SPLINE
  5
1cc
100
AcDbEntity
  8
Layer_1
 62
1
100
AcDbSpline
 70
8
 71
3
 72
8
 73
4
 74
0
 40
0
 40
0
 40
0
 40
0
 40
1
 40
1
 40
1
 40
1
 10
46.995734
 20
125.507080
 30
0.0
 10
46.996236
 20
126.132629
 30
0.0
 10
46.662798
 20
126.710876
 30
0.0
 10
46.121140
 20
127.023796
 30
0.0
  0
SPLINE
  5
1cd
100
AcDbEntity
  8
Layer_1
 62
1
100
AcDbSpline
 70
8
 71
3
 72
8
 73
4
 74
0
 40
0
 40
0
 40
0
 40
0
 40
1
 40
1
 40
1
 40
1
 10
46.121140
 20
127.023796
 30
0.0
 10
45.579482
 20
127.336715
 30
0.0
 10
44.911987
 20
127.336715
 30
0.0
 10
44.370329
 20
127.023796
 30
0.0
  0
SPLINE
  5
1ce
100
AcDbEntity
  8
Layer_1
 62
1
100
AcDbSpline
 70
8
 71
3
 72
8
 73
4
 74
0
 40
0
 40
0
 40
0
 40
0
 40
1
 40
1
 40
1
 40
1
 10
44.370329
 20
127.023796
 30
0.0
 10
43.828671
 20
126.710876
 30
0.0
 10
43.495233
 20
126.132629
 30
0.0
 10
43.495735
 20
125.507080
 30
0.0
  0
SPLINE
  5
1cf
100
AcDbEntity
  8
Layer_1
 62
1
100
AcDbSpline
 70
8
 71
3
 72
8
 73
4
 74
0
 40
0
 40
0
 40
0
 40
0
 40
1
 40
1
 40
1
 40
1
 10
43.495735
 20
125.507080
 30
0.0
 10
43.495233
 20
124.881531
 30
0.0
 10
43.828671
 20
124.303284
 30
0.0
 10
44.370329
 20
123.990364
 30
0.0
  0
SPLINE
  5
1d0
100
AcDbEntity
  8
Layer_1
 62
1
100
AcDbSpline
 70
8
 71
3
 72
8
 73
4
 74
0
 40
0
 40
0
 40
0
 40
0
 40
1
 40
1
 40
1
 40
1
 10
44.370329
 20
123.990364
 30
0.0
 10
44.911987
 20
123.677445
 30
0.0
 10
45.579482
 20
123.677445
 30
0.0
 10
46.121140
 20
123.990364
 30
0.0
  0
SPLINE
  5
1d1
100
AcDbEntity
  8
Layer_1
 62
1
100
AcDbSpline
 70
8
 71
3
 72
8
 73
4
 74
0
 40
0
 40
0
 40
0
 40
0
 40
1
 40
1
 40
1
 40
1
 10
46.121140
 20
123.990364
 30
0.0
 10
46.662798
 20
124.303284
 30
0.0
 10
46.996236
 20
124.881531
 30
0.0
 10
46.995734
 20
125.507080
 30
0.0
  0
LINE
  5
1d2
100
AcDbEntity
  8
Layer_1
 62
1
100
AcDbLine
 10
46.995734
 20
125.507080
 30
0.0
 11
46.995734
 21
125.507080
 31
0.0
  0
LINE
  5
1d3
100
AcDbEntity
  8
Layer_1
 62
1
100
AcDbLine
 10
20.745735
 20
45.007080
 30
0.0
 11
14.745735
 21
45.007080
 31
0.0
  0
LINE
  5
1d4
100
AcDbEntity
  8
Layer_1
 62
1
100
AcDbLine
 10
14.745735
 20
45.007080
 30
0.0
 11
14.745735
 21
35.007080
 31
0.0
  0
LINE
  5
1d5
100
AcDbEntity
  8
Layer_1
 62
1
100
AcDbLine
 10
14.745735
 20
35.007080
 30
0.0
 11
20.745735
 21
35.007080
 31
0.0
  0
LINE
  5
1d6
100
AcDbEntity
  8
Layer_1
 62
1
100
AcDbLine
 10
20.745735
 20
35.007080
 30
0.0
 11
20.745735
 21
45.007080
 31
0.0
  0
LINE
  5
1d7
100
AcDbEntity
  8
Layer_1
 62
1
100
AcDbLine
 10
20.745735
 20
45.007080
 30
0.0
 11
20.745735
 21
45.007080
 31
0.0
  0
LINE
  5
1d8
100
AcDbEntity
  8
Layer_1
 62
1
100
AcDbLine
 10
38.745735
 20
35.007080
 30
0.0
 11
38.745735
 21
45.007080
 31
0.0
  0
LINE
  5
1d9
100
AcDbEntity
  8
Layer_1
 62
1
100
AcDbLine
 10
38.745735
 20
45.007080
 30
0.0
 11
44.745734
 21
45.007080
 31
0.0
  0
LINE
  5
1da
100
AcDbEntity
  8
Layer_1
 62
1
100
AcDbLine
 10
44.745734
 20
45.007080
 30
0.0
 11
44.745734
 21
35.007080
 31
0.0
  0
LINE
  5
1db
100
AcDbEntity
  8
Layer_1
 62
1
100
AcDbLine
 10
44.745734
 20
35.007080
 30
0.0
 11
38.745735
 21
35.007080
 31
0.0
  0
LINE
  5
1dc
100
AcDbEntity
  8
Layer_1
 62
1
100
AcDbLine
 10
38.745735
 20
35.007080
 30
0.0
 11
38.745735
 21
35.007080
 31
0.0
  0
LINE
  5
1dd
100
AcDbEntity
  8
Layer_1
 62
1
100
AcDbLine
 10
24.745735
 20
51.007079
 30
0.0
 11
34.745734
 21
51.007079
 31
0.0
  0
LINE
  5
1de
100
AcDbEntity
  8
Layer_1
 62
1
100
AcDbLine
 10
34.745734
 20
51.007079
 30
0.0
 11
34.745734
 21
54.007079
 31
0.0
  0
LINE
  5
1df
100
AcDbEntity
  8
Layer_1
 62
1
100
AcDbLine
 10
34.745734
 20
54.007079
 30
0.0
 11
24.745735
 21
54.007079
 31
0.0
  0
LINE
  5
1e0
100
AcDbEntity
  8
Layer_1
 62
1
100
AcDbLine
 10
24.745735
 20
54.007079
 30
0.0
 11
24.745735
 21
51.007079
 31
0.0
  0
LINE
  5
1e1
100
AcDbEntity
  8
Layer_1
 62
1
100
AcDbLine
 10
24.745735
 20
51.007079
 30
0.0
 11
24.745735
 21
51.007079
 31
0.0
  0
LINE
  5
1e2
100
AcDbEntity
  8
Layer_1
 62
1
100
AcDbLine
 10
24.745735
 20
23.007079
 30
0.0
 11
34.745734
 21
23.007079
 31
0.0
  0
LINE
  5
1e3
100
AcDbEntity
  8
Layer_1
 62
1
100
AcDbLine
 10
34.745734
 20
23.007079
 30
0.0
 11
34.745734
 21
29.007078
 31
0.0
  0
LINE
  5
1e4
100
AcDbEntity
  8
Layer_1
 62
1
100
AcDbLine
 10
34.745734
 20
29.007078
 30
0.0
 11
24.745735
 21
29.007078
 31
0.0
  0
LINE
  5
1e5
100
AcDbEntity
  8
Layer_1
 62
1
100
AcDbLine
 10
24.745735
 20
29.007078
 30
0.0
 11
24.745735
 21
23.007079
 31
0.0
  0
LINE
  5
1e6
100
AcDbEntity
  8
Layer_1
 62
1
100
AcDbLine
 10
24.745735
 20
23.007079
 30
0.0
 11
24.745735
 21
23.007079
 31
0.0
  0
SPLINE
  5
1e7
100
AcDbEntity
  8
Layer_1
 62
1
100
AcDbSpline
 70
8
 71
3
 72
8
 73
4
 74
0
 40
0
 40
0
 40
0
 40
0
 40
1
 40
1
 40
1
 40
1
 10
51.745734
 20
49.007081
 30
0.0
 10
51.746296
 20
49.632669
 30
0.0
 10
51.412871
 20
50.210978
 30
0.0
 10
50.871188
 20
50.523934
 30
0.0
  0
SPLINE
  5
1e8
100
AcDbEntity
  8
Layer_1
 62
1
100
AcDbSpline
 70
8
 71
3
 72
8
 73
4
 74
0
 40
0
 40
0
 40
0
 40
0
 40
1
 40
1
 40
1
 40
1
 10
50.871188
 20
50.523934
 30
0.0
 10
50.329506
 20
50.836891
 30
0.0
 10
49.661963
 20
50.836891
 30
0.0
 10
49.120281
 20
50.523934
 30
0.0
  0
SPLINE
  5
1e9
100
AcDbEntity
  8
Layer_1
 62
1
100
AcDbSpline
 70
8
 71
3
 72
8
 73
4
 74
0
 40
0
 40
0
 40
0
 40
0
 40
1
 40
1
 40
1
 40
1
 10
49.120281
 20
50.523934
 30
0.0
 10
48.578599
 20
50.210978
 30
0.0
 10
48.245174
 20
49.632669
 30
0.0
 10
48.245735
 20
49.007081
 30
0.0
  0
SPLINE
  5
1ea
100
AcDbEntity
  8
Layer_1
 62
1
100
AcDbSpline
 70
8
 71
3
 72
8
 73
4
 74
0
 40
0
 40
0
 40
0
 40
0
 40
1
 40
1
 40
1
 40
1
 10
48.245735
 20
49.007081
 30
0.0
 10
48.245174
 20
48.381492
 30
0.0
 10
48.578599
 20
47.803183
 30
0.0
 10
49.120281
 20
47.490227
 30
0.0
  0
SPLINE
  5
1eb
100
AcDbEntity
  8
Layer_1
 62
1
100
AcDbSpline
 70
8
 71
3
 72
8
 73
4
 74
0
 40
0
 40
0
 40
0
 40
0
 40
1
 40
1
 40
1
 40
1
 10
49.120281
 20
47.490227
 30
0.0
 10
49.661963
 20
47.177270
 30
0.0
 10
50.329506
 20
47.177270
 30
0.0
 10
50.871188
 20
47.490227
 30
0.0
  0
SPLINE
  5
1ec
100
AcDbEntity
  8
Layer_1
 62
1
100
AcDbSpline
 70
8
 71
3
 72
8
 73
4
 74
0
 40
0
 40
0
 40
0
 40
0
 40
1
 40
1
 40
1
 40
1
 10
50.871188
 20
47.490227
 30
0.0
 10
51.412871
 20
47.803183
 30
0.0
 10
51.746296
 20
48.381492
 30
0.0
 10
51.745734
 20
49.007081
 30
0.0
  0
LINE
  5
1ed
100
AcDbEntity
  8
Layer_1
 62
1
100
AcDbLine
 10
51.745734
 20
49.007081
 30
0.0
 11
51.745734
 21
49.007081
 31
0.0
  0
SPLINE
  5
1ee
100
AcDbEntity
  8
Layer_1
 62
1
100
AcDbSpline
 70
8
 71
3
 72
8
 73
4
 74
0
 40
0
 40
0
 40
0
 40
0
 40
1
 40
1
 40
1
 40
1
 10
11.245735
 20
49.007081
 30
0.0
 10
11.245735
 20
49.632295
 30
0.0
 10
10.912187
 20
50.210018
 30
0.0
 10
10.370735
 20
50.522625
 30
0.0
  0
SPLINE
  5
1ef
100
AcDbEntity
  8
Layer_1
 62
1
100
AcDbSpline
 70
8
 71
3
 72
8
 73
4
 74
0
 40
0
 40
0
 40
0
 40
0
 40
1
 40
1
 40
1
 40
1
 10
10.370735
 20
50.522625
 30
0.0
 10
9.829283
 20
50.835232
 30
0.0
 10
9.162187
 20
50.835232
 30
0.0
 10
8.620735
 20
50.522625
 30
0.0
  0
SPLINE
  5
1f0
100
AcDbEntity
  8
Layer_1
 62
1
100
AcDbSpline
 70
8
 71
3
 72
8
 73
4
 74
0
 40
0
 40
0
 40
0
 40
0
 40
1
 40
1
 40
1
 40
1
 10
8.620735
 20
50.522625
 30
0.0
 10
8.079283
 20
50.210018
 30
0.0
 10
7.745735
 20
49.632295
 30
0.0
 10
7.745735
 20
49.007081
 30
0.0
  0
SPLINE
  5
1f1
100
AcDbEntity
  8
Layer_1
 62
1
100
AcDbSpline
 70
8
 71
3
 72
8
 73
4
 74
0
 40
0
 40
0
 40
0
 40
0
 40
1
 40
1
 40
1
 40
1
 10
7.745735
 20
49.007081
 30
0.0
 10
7.745735
 20
48.381866
 30
0.0
 10
8.079283
 20
47.804143
 30
0.0
 10
8.620735
 20
47.491536
 30
0.0
  0
SPLINE
  5
1f2
100
AcDbEntity
  8
Layer_1
 62
1
100
AcDbSpline
 70
8
 71
3
 72
8
 73
4
 74
0
 40
0
 40
0
 40
0
 40
0
 40
1
 40
1
 40
1
 40
1
 10
8.620735
 20
47.491536
 30
0.0
 10
9.162187
 20
47.178929
 30
0.0
 10
9.829283
 20
47.178929
 30
0.0
 10
10.370735
 20
47.491536
 30
0.0
  0
SPLINE
  5
1f3
100
AcDbEntity
  8
Layer_1
 62
1
100
AcDbSpline
 70
8
 71
3
 72
8
 73
4
 74
0
 40
0
 40
0
 40
0
 40
0
 40
1
 40
1
 40
1
 40
1
 10
10.370735
 20
47.491536
 30
0.0
 10
10.912187
 20
47.804143
 30
0.0
 10
11.245735
 20
48.381866
 30
0.0
 10
11.245735
 20
49.007081
 30
0.0
  0
LINE
  5
1f4
100
AcDbEntity
  8
Layer_1
 62
1
100
AcDbLine
 10
11.245735
 20
49.007081
 30
0.0
 11
11.245735
 21
49.007081
 31
0.0
  0
LINE
  5
1f5
100
AcDbEntity
  8
Layer_1
 62
1
100
AcDbLine
 10
24.745735
 20
11.007069
 30
0.0
 11
34.745734
 21
11.007069
 31
0.0
  0
LINE
  5
1f6
100
AcDbEntity
  8
Layer_1
 62
1
100
AcDbLine
 10
34.745734
 20
11.007069
 30
0.0
 11
34.745734
 21
8.007075
 31
0.0
  0
LINE
  5
1f7
100
AcDbEntity
  8
Layer_1
 62
1
100
AcDbLine
 10
34.745734
 20
8.007075
 30
0.0
 11
24.745735
 21
8.007075
 31
0.0
  0
LINE
  5
1f8
100
AcDbEntity
  8
Layer_1
 62
1
100
AcDbLine
 10
24.745735
 20
8.007075
 30
0.0
 11
24.745735
 21
11.007069
 31
0.0
  0
LINE
  5
1f9
100
AcDbEntity
  8
Layer_1
 62
1
100
AcDbLine
 10
24.745735
 20
11.007069
 30
0.0
 11
24.745735
 21
11.007069
 31
0.0
  0
SPLINE
  5
1fa
100
AcDbEntity
  8
Layer_1
 62
1
100
AcDbSpline
 70
8
 71
3
 72
8
 73
4
 74
0
 40
0
 40
0
 40
0
 40
0
 40
1
 40
1
 40
1
 40
1
 10
32.645735
 20
17.007085
 30
0.0
 10
32.646058
 20
18.043371
 30
0.0
 10
32.093392
 20
19.001077
 30
0.0
 10
31.195996
 20
19.519313
 30
0.0
  0
SPLINE
  5
1fb
100
AcDbEntity
  8
Layer_1
 62
1
100
AcDbSpline
 70
8
 71
3
 72
8
 73
4
 74
0
 40
0
 40
0
 40
0
 40
0
 40
1
 40
1
 40
1
 40
1
 10
31.195996
 20
19.519313
 30
0.0
 10
30.298600
 20
20.037549
 30
0.0
 10
29.192870
 20
20.037549
 30
0.0
 10
28.295474
 20
19.519313
 30
0.0
  0
SPLINE
  5
1fc
100
AcDbEntity
  8
Layer_1
 62
1
100
AcDbSpline
 70
8
 71
3
 72
8
 73
4
 74
0
 40
0
 40
0
 40
0
 40
0
 40
1
 40
1
 40
1
 40
1
 10
28.295474
 20
19.519313
 30
0.0
 10
27.398078
 20
19.001077
 30
0.0
 10
26.845412
 20
18.043371
 30
0.0
 10
26.845735
 20
17.007085
 30
0.0
  0
SPLINE
  5
1fd
100
AcDbEntity
  8
Layer_1
 62
1
100
AcDbSpline
 70
8
 71
3
 72
8
 73
4
 74
0
 40
0
 40
0
 40
0
 40
0
 40
1
 40
1
 40
1
 40
1
 10
26.845735
 20
17.007085
 30
0.0
 10
26.845412
 20
15.970800
 30
0.0
 10
27.398078
 20
15.013094
 30
0.0
 10
28.295474
 20
14.494858
 30
0.0
  0
SPLINE
  5
1fe
100
AcDbEntity
  8
Layer_1
 62
1
100
AcDbSpline
 70
8
 71
3
 72
8
 73
4
 74
0
 40
0
 40
0
 40
0
 40
0
 40
1
 40
1
 40
1
 40
1
 10
28.295474
 20
14.494858
 30
0.0
 10
29.192870
 20
13.976621
 30
0.0
 10
30.298600
 20
13.976621
 30
0.0
 10
31.195996
 20
14.494858
 30
0.0
  0
SPLINE
  5
1ff
100
AcDbEntity
  8
Layer_1
 62
1
100
AcDbSpline
 70
8
 71
3
 72
8
 73
4
 74
0
 40
0
 40
0
 40
0
 40
0
 40
1
 40
1
 40
1
 40
1
 10
31.195996
 20
14.494858
 30
0.0
 10
32.093392
 20
15.013094
 30
0.0
 10
32.646058
 20
15.970800
 30
0.0
 10
32.645735
 20
17.007085
 30
0.0
  0
LINE
  5
200
100
AcDbEntity
  8
Layer_1
 62
1
100
AcDbLine
 10
32.645735
 20
17.007085
 30
0.0
 11
32.645735
 21
17.007085
 31
0.0
  0
SPLINE
  5
201
100
AcDbEntity
  8
Layer_1
 62
1
100
AcDbSpline
 70
8
 71
3
 72
8
 73
4
 74
0
 40
0
 40
0
 40
0
 40
0
 40
1
 40
1
 40
1
 40
1
 10
11.245735
 20
17.007085
 30
0.0
 10
11.245735
 20
17.632300
 30
0.0
 10
10.912187
 20
18.210022
 30
0.0
 10
10.370735
 20
18.522630
 30
0.0
  0
SPLINE
  5
202
100
AcDbEntity
  8
Layer_1
 62
1
100
AcDbSpline
 70
8
 71
3
 72
8
 73
4
 74
0
 40
0
 40
0
 40
0
 40
0
 40
1
 40
1
 40
1
 40
1
 10
10.370735
 20
18.522630
 30
0.0
 10
9.829283
 20
18.835237
 30
0.0
 10
9.162187
 20
18.835237
 30
0.0
 10
8.620735
 20
18.522630
 30
0.0
  0
SPLINE
  5
203
100
AcDbEntity
  8
Layer_1
 62
1
100
AcDbSpline
 70
8
 71
3
 72
8
 73
4
 74
0
 40
0
 40
0
 40
0
 40
0
 40
1
 40
1
 40
1
 40
1
 10
8.620735
 20
18.522630
 30
0.0
 10
8.079283
 20
18.210022
 30
0.0
 10
7.745735
 20
17.632300
 30
0.0
 10
7.745735
 20
17.007085
 30
0.0
  0
SPLINE
  5
204
100
AcDbEntity
  8
Layer_1
 62
1
100
AcDbSpline
 70
8
 71
3
 72
8
 73
4
 74
0
 40
0
 40
0
 40
0
 40
0
 40
1
 40
1
 40
1
 40
1
 10
7.745735
 20
17.007085
 30
0.0
 10
7.745735
 20
16.381870
 30
0.0
 10
8.079283
 20
15.804148
 30
0.0
 10
8.620735
 20
15.491541
 30
0.0
  0
SPLINE
  5
205
100
AcDbEntity
  8
Layer_1
 62
1
100
AcDbSpline
 70
8
 71
3
 72
8
 73
4
 74
0
 40
0
 40
0
 40
0
 40
0
 40
1
 40
1
 40
1
 40
1
 10
8.620735
 20
15.491541
 30
0.0
 10
9.162187
 20
15.178933
 30
0.0
 10
9.829283
 20
15.178933
 30
0.0
 10
10.370735
 20
15.491541
 30
0.0
  0
SPLINE
  5
206
100
AcDbEntity
  8
Layer_1
 62
1
100
AcDbSpline
 70
8
 71
3
 72
8
 73
4
 74
0
 40
0
 40
0
 40
0
 40
0
 40
1
 40
1
 40
1
 40
1
 10
10.370735
 20
15.491541
 30
0.0
 10
10.912187
 20
15.804148
 30
0.0
 10
11.245735
 20
16.381870
 30
0.0
 10
11.245735
 20
17.007085
 30
0.0
  0
LINE
  5
207
100
AcDbEntity
  8
Layer_1
 62
1
100
AcDbLine
 10
11.245735
 20
17.007085
 30
0.0
 11
11.245735
 21
17.007085
 31
0.0
  0
SPLINE
  5
208
100
AcDbEntity
  8
Layer_1
 62
1
100
AcDbSpline
 70
8
 71
3
 72
8
 73
4
 74
0
 40
0
 40
0
 40
0
 40
0
 40
1
 40
1
 40
1
 40
1
 10
51.745734
 20
17.007085
 30
0.0
 10
51.746296
 20
17.632674
 30
0.0
 10
51.412871
 20
18.210983
 30
0.0
 10
50.871188
 20
18.523939
 30
0.0
  0
SPLINE
  5
209
100
AcDbEntity
  8
Layer_1
 62
1
100
AcDbSpline
 70
8
 71
3
 72
8
 73
4
 74
0
 40
0
 40
0
 40
0
 40
0
 40
1
 40
1
 40
1
 40
1
 10
50.871188
 20
18.523939
 30
0.0
 10
50.329506
 20
18.836896
 30
0.0
 10
49.661963
 20
18.836896
 30
0.0
 10
49.120281
 20
18.523939
 30
0.0
  0
SPLINE
  5
20a
100
AcDbEntity
  8
Layer_1
 62
1
100
AcDbSpline
 70
8
 71
3
 72
8
 73
4
 74
0
 40
0
 40
0
 40
0
 40
0
 40
1
 40
1
 40
1
 40
1
 10
49.120281
 20
18.523939
 30
0.0
 10
48.578599
 20
18.210983
 30
0.0
 10
48.245174
 20
17.632674
 30
0.0
 10
48.245735
 20
17.007085
 30
0.0
  0
SPLINE
  5
20b
100
AcDbEntity
  8
Layer_1
 62
1
100
AcDbSpline
 70
8
 71
3
 72
8
 73
4
 74
0
 40
0
 40
0
 40
0
 40
0
 40
1
 40
1
 40
1
 40
1
 10
48.245735
 20
17.007085
 30
0.0
 10
48.245174
 20
16.381496
 30
0.0
 10
48.578599
 20
15.803188
 30
0.0
 10
49.120281
 20
15.490231
 30
0.0
  0
SPLINE
  5
20c
100
AcDbEntity
  8
Layer_1
 62
1
100
AcDbSpline
 70
8
 71
3
 72
8
 73
4
 74
0
 40
0
 40
0
 40
0
 40
0
 40
1
 40
1
 40
1
 40
1
 10
49.120281
 20
15.490231
 30
0.0
 10
49.661963
 20
15.177275
 30
0.0
 10
50.329506
 20
15.177275
 30
0.0
 10
50.871188
 20
15.490231
 30
0.0
  0
SPLINE
  5
20d
100
AcDbEntity
  8
Layer_1
 62
1
100
AcDbSpline
 70
8
 71
3
 72
8
 73
4
 74
0
 40
0
 40
0
 40
0
 40
0
 40
1
 40
1
 40
1
 40
1
 10
50.871188
 20
15.490231
 30
0.0
 10
51.412871
 20
15.803188
 30
0.0
 10
51.746296
 20
16.381496
 30
0.0
 10
51.745734
 20
17.007085
 30
0.0
  0
LINE
  5
20e
100
AcDbEntity
  8
Layer_1
 62
1
100
AcDbLine
 10
51.745734
 20
17.007085
 30
0.0
 11
51.745734
 21
17.007085
 31
0.0
  0
SPLINE
  5
20f
100
AcDbEntity
  8
Layer_1
 62
1
100
AcDbSpline
 70
8
 71
3
 72
8
 73
4
 74
0
 40
0
 40
0
 40
0
 40
0
 40
1
 40
1
 40
1
 40
1
 10
41.245735
 20
79.007080
 30
0.0
 10
41.245735
 20
83.115634
 30
0.0
 10
39.053848
 20
86.912095
 30
0.0
 10
35.495735
 20
88.966372
 30
0.0
  0
SPLINE
  5
210
100
AcDbEntity
  8
Layer_1
 62
1
100
AcDbSpline
 70
8
 71
3
 72
8
 73
4
 74
0
 40
0
 40
0
 40
0
 40
0
 40
1
 40
1
 40
1
 40
1
 10
35.495735
 20
88.966372
 30
0.0
 10
31.937623
 20
91.020649
 30
0.0
 10
27.553847
 20
91.020649
 30
0.0
 10
23.995735
 20
88.966372
 30
0.0
  0
SPLINE
  5
211
100
AcDbEntity
  8
Layer_1
 62
1
100
AcDbSpline
 70
8
 71
3
 72
8
 73
4
 74
0
 40
0
 40
0
 40
0
 40
0
 40
1
 40
1
 40
1
 40
1
 10
23.995735
 20
88.966372
 30
0.0
 10
20.437623
 20
86.912095
 30
0.0
 10
18.245735
 20
83.115634
 30
0.0
 10
18.245735
 20
79.007080
 30
0.0
  0
SPLINE
  5
212
100
AcDbEntity
  8
Layer_1
 62
1
100
AcDbSpline
 70
8
 71
3
 72
8
 73
4
 74
0
 40
0
 40
0
 40
0
 40
0
 40
1
 40
1
 40
1
 40
1
 10
18.245735
 20
79.007080
 30
0.0
 10
18.245735
 20
74.898525
 30
0.0
 10
20.437623
 20
71.102065
 30
0.0
 10
23.995735
 20
69.047788
 30
0.0
  0
SPLINE
  5
213
100
AcDbEntity
  8
Layer_1
 62
1
100
AcDbSpline
 70
8
 71
3
 72
8
 73
4
 74
0
 40
0
 40
0
 40
0
 40
0
 40
1
 40
1
 40
1
 40
1
 10
23.995735
 20
69.047788
 30
0.0
 10
27.553847
 20
66.993510
 30
0.0
 10
31.937623
 20
66.993510
 30
0.0
 10
35.495735
 20
69.047788
 30
0.0
  0
SPLINE
  5
214
100
AcDbEntity
  8
Layer_1
 62
1
100
AcDbSpline
 70
8
 71
3
 72
8
 73
4
 74
0
 40
0
 40
0
 40
0
 40
0
 40
1
 40
1
 40
1
 40
1
 10
35.495735
 20
69.047788
 30
0.0
 10
39.053848
 20
71.102065
 30
0.0
 10
41.245735
 20
74.898525
 30
0.0
 10
41.245735
 20
79.007080
 30
0.0
  0
LINE
  5
215
100
AcDbEntity
  8
Layer_1
 62
1
100
AcDbLine
 10
41.245735
 20
79.007080
 30
0.0
 11
41.245735
 21
79.007080
 31
0.0
  0
SPLINE
  5
216
100
AcDbEntity
  8
Layer_1
 62
1
100
AcDbSpline
 70
8
 71
3
 72
8
 73
4
 74
0
 40
0
 40
0
 40
0
 40
0
 40
1
 40
1
 40
1
 40
1
 10
15.995735
 20
63.507080
 30
0.0
 10
15.995735
 20
64.132295
 30
0.0
 10
15.662187
 20
64.710017
 30
0.0
 10
15.120735
 20
65.022624
 30
0.0
  0
SPLINE
  5
217
100
AcDbEntity
  8
Layer_1
 62
1
100
AcDbSpline
 70
8
 71
3
 72
8
 73
4
 74
0
 40
0
 40
0
 40
0
 40
0
 40
1
 40
1
 40
1
 40
1
 10
15.120735
 20
65.022624
 30
0.0
 10
14.579283
 20
65.335232
 30
0.0
 10
13.912187
 20
65.335232
 30
0.0
 10
13.370735
 20
65.022624
 30
0.0
  0
SPLINE
  5
218
100
AcDbEntity
  8
Layer_1
 62
1
100
AcDbSpline
 70
8
 71
3
 72
8
 73
4
 74
0
 40
0
 40
0
 40
0
 40
0
 40
1
 40
1
 40
1
 40
1
 10
13.370735
 20
65.022624
 30
0.0
 10
12.829283
 20
64.710017
 30
0.0
 10
12.495735
 20
64.132295
 30
0.0
 10
12.495735
 20
63.507080
 30
0.0
  0
SPLINE
  5
219
100
AcDbEntity
  8
Layer_1
 62
1
100
AcDbSpline
 70
8
 71
3
 72
8
 73
4
 74
0
 40
0
 40
0
 40
0
 40
0
 40
1
 40
1
 40
1
 40
1
 10
12.495735
 20
63.507080
 30
0.0
 10
12.495735
 20
62.881865
 30
0.0
 10
12.829283
 20
62.304143
 30
0.0
 10
13.370735
 20
61.991535
 30
0.0
  0
SPLINE
  5
21a
100
AcDbEntity
  8
Layer_1
 62
1
100
AcDbSpline
 70
8
 71
3
 72
8
 73
4
 74
0
 40
0
 40
0
 40
0
 40
0
 40
1
 40
1
 40
1
 40
1
 10
13.370735
 20
61.991535
 30
0.0
 10
13.912187
 20
61.678928
 30
0.0
 10
14.579283
 20
61.678928
 30
0.0
 10
15.120735
 20
61.991535
 30
0.0
  0
SPLINE
  5
21b
100
AcDbEntity
  8
Layer_1
 62
1
100
AcDbSpline
 70
8
 71
3
 72
8
 73
4
 74
0
 40
0
 40
0
 40
0
 40
0
 40
1
 40
1
 40
1
 40
1
 10
15.120735
 20
61.991535
 30
0.0
 10
15.662187
 20
62.304143
 30
0.0
 10
15.995735
 20
62.881865
 30
0.0
 10
15.995735
 20
63.507080
 30
0.0
  0
LINE
  5
21c
100
AcDbEntity
  8
Layer_1
 62
1
100
AcDbLine
 10
15.995735
 20
63.507080
 30
0.0
 11
15.995735
 21
63.507080
 31
0.0
  0
SPLINE
  5
21d
100
AcDbEntity
  8
Layer_1
 62
1
100
AcDbSpline
 70
8
 71
3
 72
8
 73
4
 74
0
 40
0
 40
0
 40
0
 40
0
 40
1
 40
1
 40
1
 40
1
 10
46.995734
 20
63.507080
 30
0.0
 10
46.996236
 20
64.132629
 30
0.0
 10
46.662798
 20
64.710876
 30
0.0
 10
46.121140
 20
65.023795
 30
0.0
  0
SPLINE
  5
21e
100
AcDbEntity
  8
Layer_1
 62
1
100
AcDbSpline
 70
8
 71
3
 72
8
 73
4
 74
0
 40
0
 40
0
 40
0
 40
0
 40
1
 40
1
 40
1
 40
1
 10
46.121140
 20
65.023795
 30
0.0
 10
45.579482
 20
65.336715
 30
0.0
 10
44.911987
 20
65.336715
 30
0.0
 10
44.370329
 20
65.023795
 30
0.0
  0
SPLINE
  5
21f
100
AcDbEntity
  8
Layer_1
 62
1
100
AcDbSpline
 70
8
 71
3
 72
8
 73
4
 74
0
 40
0
 40
0
 40
0
 40
0
 40
1
 40
1
 40
1
 40
1
 10
44.370329
 20
65.023795
 30
0.0
 10
43.828671
 20
64.710876
 30
0.0
 10
43.495233
 20
64.132629
 30
0.0
 10
43.495735
 20
63.507080
 30
0.0
  0
SPLINE
  5
220
100
AcDbEntity
  8
Layer_1
 62
1
100
AcDbSpline
 70
8
 71
3
 72
8
 73
4
 74
0
 40
0
 40
0
 40
0
 40
0
 40
1
 40
1
 40
1
 40
1
 10
43.495735
 20
63.507080
 30
0.0
 10
43.495233
 20
62.881530
 30
0.0
 10
43.828671
 20
62.303284
 30
0.0
 10
44.370329
 20
61.990364
 30
0.0
  0
SPLINE
  5
221
100
AcDbEntity
  8
Layer_1
 62
1
100
AcDbSpline
 70
8
 71
3
 72
8
 73
4
 74
0
 40
0
 40
0
 40
0
 40
0
 40
1
 40
1
 40
1
 40
1
 10
44.370329
 20
61.990364
 30
0.0
 10
44.911987
 20
61.677444
 30
0.0
 10
45.579482
 20
61.677444
 30
0.0
 10
46.121140
 20
61.990364
 30
0.0
  0
SPLINE
  5
222
100
AcDbEntity
  8
Layer_1
 62
1
100
AcDbSpline
 70
8
 71
3
 72
8
 73
4
 74
0
 40
0
 40
0
 40
0
 40
0
 40
1
 40
1
 40
1
 40
1
 10
46.121140
 20
61.990364
 30
0.0
 10
46.662798
 20
62.303284
 30
0.0
 10
46.996236
 20
62.881530
 30
0.0
 10
46.995734
 20
63.507080
 30
0.0
  0
LINE
  5
223
100
AcDbEntity
  8
Layer_1
 62
1
100
AcDbLine
 10
46.995734
 20
63.507080
 30
0.0
 11
46.995734
 21
63.507080
 31
0.0
  0
LINE
  5
224
100
AcDbEntity
  8
Layer_1
 62
7
100
AcDbLine
 10
65.950070
 20
57.139187
 30
0.0
 11
65.950070
 21
54.138922
 31
0.0
  0
LINE
  5
225
100
AcDbEntity
  8
Layer_1
 62
7
100
AcDbLine
 10
65.950070
 20
54.138922
 30
0.0
 11
59.950090
 21
54.138922
 31
0.0
  0
LINE
  5
226
100
AcDbEntity
  8
Layer_1
 62
7
100
AcDbLine
 10
59.950090
 20
54.138922
 30
0.0
 11
59.950090
 21
49.138850
 31
0.0
  0
LINE
  5
227
100
AcDbEntity
  8
Layer_1
 62
7
100
AcDbLine
 10
59.950090
 20
49.138850
 30
0.0
 11
56.949825
 21
49.138850
 31
0.0
  0
LINE
  5
228
100
AcDbEntity
  8
Layer_1
 62
7
100
AcDbLine
 10
56.949825
 20
49.138850
 30
0.0
 11
56.949825
 21
39.139254
 31
0.0
  0
LINE
  5
229
100
AcDbEntity
  8
Layer_1
 62
7
100
AcDbLine
 10
56.949825
 20
39.139254
 30
0.0
 11
59.950090
 21
39.139254
 31
0.0
  0
LINE
  5
22a
100
AcDbEntity
  8
Layer_1
 62
7
100
AcDbLine
 10
59.950090
 20
39.139254
 30
0.0
 11
59.950090
 21
34.139179
 31
0.0
  0
LINE
  5
22b
100
AcDbEntity
  8
Layer_1
 62
7
100
AcDbLine
 10
59.950090
 20
34.139179
 30
0.0
 11
65.950070
 21
34.139179
 31
0.0
  0
LINE
  5
22c
100
AcDbEntity
  8
Layer_1
 62
7
100
AcDbLine
 10
65.950070
 20
34.139179
 30
0.0
 11
65.950070
 21
31.138914
 31
0.0
  0
LINE
  5
22d
100
AcDbEntity
  8
Layer_1
 62
7
100
AcDbLine
 10
65.950070
 20
31.138914
 30
0.0
 11
75.950216
 21
31.138914
 31
0.0
  0
LINE
  5
22e
100
AcDbEntity
  8
Layer_1
 62
7
100
AcDbLine
 10
75.950216
 20
31.138914
 30
0.0
 11
75.950216
 21
34.139179
 31
0.0
  0
LINE
  5
22f
100
AcDbEntity
  8
Layer_1
 62
7
100
AcDbLine
 10
75.950216
 20
34.139179
 30
0.0
 11
81.950196
 21
34.139179
 31
0.0
  0
LINE
  5
230
100
AcDbEntity
  8
Layer_1
 62
7
100
AcDbLine
 10
81.950196
 20
34.139179
 30
0.0
 11
81.950196
 21
39.139254
 31
0.0
  0
LINE
  5
231
100
AcDbEntity
  8
Layer_1
 62
7
100
AcDbLine
 10
81.950196
 20
39.139254
 30
0.0
 11
84.949908
 21
39.139254
 31
0.0
  0
LINE
  5
232
100
AcDbEntity
  8
Layer_1
 62
7
100
AcDbLine
 10
84.949908
 20
39.139254
 30
0.0
 11
84.949908
 21
49.138850
 31
0.0
  0
LINE
  5
233
100
AcDbEntity
  8
Layer_1
 62
7
100
AcDbLine
 10
84.949908
 20
49.138850
 30
0.0
 11
81.950196
 21
49.138850
 31
0.0
  0
LINE
  5
234
100
AcDbEntity
  8
Layer_1
 62
7
100
AcDbLine
 10
81.950196
 20
49.138850
 30
0.0
 11
81.950196
 21
54.138922
 31
0.0
  0
LINE
  5
235
100
AcDbEntity
  8
Layer_1
 62
7
100
AcDbLine
 10
81.950196
 20
54.138922
 30
0.0
 11
75.950216
 21
54.138922
 31
0.0
  0
LINE
  5
236
100
AcDbEntity
  8
Layer_1
 62
7
100
AcDbLine
 10
75.950216
 20
54.138922
 30
0.0
 11
75.950216
 21
57.139187
 31
0.0
  0
LINE
  5
237
100
AcDbEntity
  8
Layer_1
 62
7
100
AcDbLine
 10
75.950216
 20
57.139187
 30
0.0
 11
65.950070
 21
57.139187
 31
0.0
  0
LINE
  5
238
100
AcDbEntity
  8
Layer_1
 62
7
100
AcDbLine
 10
65.950070
 20
57.139187
 30
0.0
 11
65.950070
 21
57.139187
 31
0.0
  0
SPLINE
  5
239
100
AcDbEntity
  8
Layer_1
 62
1
100
AcDbSpline
 70
8
 71
3
 72
8
 73
4
 74
0
 40
0
 40
0
 40
0
 40
0
 40
1
 40
1
 40
1
 40
1
 10
76.949986
 20
44.139086
 30
0.0
 10
76.950451
 20
46.282989
 30
0.0
 10
75.806959
 20
48.264237
 30
0.0
 10
73.950362
 20
49.336323
 30
0.0
  0
SPLINE
  5
23a
100
AcDbEntity
  8
Layer_1
 62
1
100
AcDbSpline
 70
8
 71
3
 72
8
 73
4
 74
0
 40
0
 40
0
 40
0
 40
0
 40
1
 40
1
 40
1
 40
1
 10
73.950362
 20
49.336323
 30
0.0
 10
72.093764
 20
50.408408
 30
0.0
 10
69.806208
 20
50.408408
 30
0.0
 10
67.949610
 20
49.336323
 30
0.0
  0
SPLINE
  5
23b
100
AcDbEntity
  8
Layer_1
 62
1
100
AcDbSpline
 70
8
 71
3
 72
8
 73
4
 74
0
 40
0
 40
0
 40
0
 40
0
 40
1
 40
1
 40
1
 40
1
 10
67.949610
 20
49.336323
 30
0.0
 10
66.093013
 20
48.264237
 30
0.0
 10
64.949521
 20
46.282989
 30
0.0
 10
64.949986
 20
44.139086
 30
0.0
  0
SPLINE
  5
23c
100
AcDbEntity
  8
Layer_1
 62
1
100
AcDbSpline
 70
8
 71
3
 72
8
 73
4
 74
0
 40
0
 40
0
 40
0
 40
0
 40
1
 40
1
 40
1
 40
1
 10
64.949986
 20
44.139086
 30
0.0
 10
64.949521
 20
41.995182
 30
0.0
 10
66.093013
 20
40.013935
 30
0.0
 10
67.949610
 20
38.941849
 30
0.0
  0
SPLINE
  5
23d
100
AcDbEntity
  8
Layer_1
 62
1
100
AcDbSpline
 70
8
 71
3
 72
8
 73
4
 74
0
 40
0
 40
0
 40
0
 40
0
 40
1
 40
1
 40
1
 40
1
 10
67.949610
 20
38.941849
 30
0.0
 10
69.806208
 20
37.869763
 30
0.0
 10
72.093764
 20
37.869763
 30
0.0
 10
73.950362
 20
38.941849
 30
0.0
  0
SPLINE
  5
23e
100
AcDbEntity
  8
Layer_1
 62
1
100
AcDbSpline
 70
8
 71
3
 72
8
 73
4
 74
0
 40
0
 40
0
 40
0
 40
0
 40
1
 40
1
 40
1
 40
1
 10
73.950362
 20
38.941849
 30
0.0
 10
75.806959
 20
40.013935
 30
0.0
 10
76.950451
 20
41.995182
 30
0.0
 10
76.949986
 20
44.139086
 30
0.0
  0
LINE
  5
23f
100
AcDbEntity
  8
Layer_1
 62
1
100
AcDbLine
 10
76.949986
 20
44.139086
 30
0.0
 11
76.949986
 21
44.139086
 31
0.0
  0
LINE
  5
240
100
AcDbEntity
  8
Layer_1
 62
7
100
AcDbLine
 10
65.379343
 20
29.770791
 30
0.0
 11
65.379343
 21
26.770526
 31
0.0
  0
LINE
  5
241
100
AcDbEntity
  8
Layer_1
 62
7
100
AcDbLine
 10
65.379343
 20
26.770526
 30
0.0
 11
59.379366
 21
26.770526
 31
0.0
  0
LINE
  5
242
100
AcDbEntity
  8
Layer_1
 62
7
100
AcDbLine
 10
59.379366
 20
26.770526
 30
0.0
 11
59.379366
 21
21.771005
 31
0.0
  0
LINE
  5
243
100
AcDbEntity
  8
Layer_1
 62
7
100
AcDbLine
 10
59.379366
 20
21.771005
 30
0.0
 11
56.379652
 21
21.771005
 31
0.0
  0
LINE
  5
244
100
AcDbEntity
  8
Layer_1
 62
7
100
AcDbLine
 10
56.379652
 20
21.771005
 30
0.0
 11
56.379652
 21
11.770856
 31
0.0
  0
LINE
  5
245
100
AcDbEntity
  8
Layer_1
 62
7
100
AcDbLine
 10
56.379652
 20
11.770856
 30
0.0
 11
59.379366
 21
11.770856
 31
0.0
  0
LINE
  5
246
100
AcDbEntity
  8
Layer_1
 62
7
100
AcDbLine
 10
59.379366
 20
11.770856
 30
0.0
 11
59.379366
 21
6.770784
 31
0.0
  0
LINE
  5
247
100
AcDbEntity
  8
Layer_1
 62
7
100
AcDbLine
 10
59.379366
 20
6.770784
 30
0.0
 11
65.379343
 21
6.770784
 31
0.0
  0
LINE
  5
248
100
AcDbEntity
  8
Layer_1
 62
7
100
AcDbLine
 10
65.379343
 20
6.770784
 30
0.0
 11
65.379343
 21
3.770519
 31
0.0
  0
LINE
  5
249
100
AcDbEntity
  8
Layer_1
 62
7
100
AcDbLine
 10
65.379343
 20
3.770519
 30
0.0
 11
75.379493
 21
3.770519
 31
0.0
  0
LINE
  5
24a
100
AcDbEntity
  8
Layer_1
 62
7
100
AcDbLine
 10
75.379493
 20
3.770519
 30
0.0
 11
75.379493
 21
6.770784
 31
0.0
  0
LINE
  5
24b
100
AcDbEntity
  8
Layer_1
 62
7
100
AcDbLine
 10
75.379493
 20
6.770784
 30
0.0
 11
81.379469
 21
6.770784
 31
0.0
  0
LINE
  5
24c
100
AcDbEntity
  8
Layer_1
 62
7
100
AcDbLine
 10
81.379469
 20
6.770784
 30
0.0
 11
81.379469
 21
11.770856
 31
0.0
  0
LINE
  5
24d
100
AcDbEntity
  8
Layer_1
 62
7
100
AcDbLine
 10
81.379469
 20
11.770856
 30
0.0
 11
84.379734
 21
11.770856
 31
0.0
  0
LINE
  5
24e
100
AcDbEntity
  8
Layer_1
 62
7
100
AcDbLine
 10
84.379734
 20
11.770856
 30
0.0
 11
84.379734
 21
21.771005
 31
0.0
  0
LINE
  5
24f
100
AcDbEntity
  8
Layer_1
 62
7
100
AcDbLine
 10
84.379734
 20
21.771005
 30
0.0
 11
81.379469
 21
21.771005
 31
0.0
  0
LINE
  5
250
100
AcDbEntity
  8
Layer_1
 62
7
100
AcDbLine
 10
81.379469
 20
21.771005
 30
0.0
 11
81.379469
 21
26.770526
 31
0.0
  0
LINE
  5
251
100
AcDbEntity
  8
Layer_1
 62
7
100
AcDbLine
 10
81.379469
 20
26.770526
 30
0.0
 11
75.379493
 21
26.770526
 31
0.0
  0
LINE
  5
252
100
AcDbEntity
  8
Layer_1
 62
7
100
AcDbLine
 10
75.379493
 20
26.770526
 30
0.0
 11
75.379493
 21
29.770791
 31
0.0
  0
LINE
  5
253
100
AcDbEntity
  8
Layer_1
 62
7
100
AcDbLine
 10
75.379493
 20
29.770791
 30
0.0
 11
65.379343
 21
29.770791
 31
0.0
  0
LINE
  5
254
100
AcDbEntity
  8
Layer_1
 62
7
100
AcDbLine
 10
65.379343
 20
29.770791
 30
0.0
 11
65.379343
 21
29.770791
 31
0.0
  0
SPLINE
  5
255
100
AcDbEntity
  8
Layer_1
 62
1
100
AcDbSpline
 70
8
 71
3
 72
8
 73
4
 74
0
 40
0
 40
0
 40
0
 40
0
 40
1
 40
1
 40
1
 40
1
 10
77.879496
 20
16.770766
 30
0.0
 10
77.879496
 20
19.450258
 30
0.0
 10
76.450004
 20
21.926211
 30
0.0
 10
74.129496
 20
23.265957
 30
0.0
  0
SPLINE
  5
256
100
AcDbEntity
  8
Layer_1
 62
1
100
AcDbSpline
 70
8
 71
3
 72
8
 73
4
 74
0
 40
0
 40
0
 40
0
 40
0
 40
1
 40
1
 40
1
 40
1
 10
74.129496
 20
23.265957
 30
0.0
 10
71.808988
 20
24.605703
 30
0.0
 10
68.950004
 20
24.605703
 30
0.0
 10
66.629496
 20
23.265957
 30
0.0
  0
SPLINE
  5
257
100
AcDbEntity
  8
Layer_1
 62
1
100
AcDbSpline
 70
8
 71
3
 72
8
 73
4
 74
0
 40
0
 40
0
 40
0
 40
0
 40
1
 40
1
 40
1
 40
1
 10
66.629496
 20
23.265957
 30
0.0
 10
64.308988
 20
21.926211
 30
0.0
 10
62.879496
 20
19.450258
 30
0.0
 10
62.879496
 20
16.770766
 30
0.0
  0
SPLINE
  5
258
100
AcDbEntity
  8
Layer_1
 62
1
100
AcDbSpline
 70
8
 71
3
 72
8
 73
4
 74
0
 40
0
 40
0
 40
0
 40
0
 40
1
 40
1
 40
1
 40
1
 10
62.879496
 20
16.770766
 30
0.0
 10
62.879496
 20
14.091275
 30
0.0
 10
64.308988
 20
11.615322
 30
0.0
 10
66.629496
 20
10.275576
 30
0.0
  0
SPLINE
  5
259
100
AcDbEntity
  8
Layer_1
 62
1
100
AcDbSpline
 70
8
 71
3
 72
8
 73
4
 74
0
 40
0
 40
0
 40
0
 40
0
 40
1
 40
1
 40
1
 40
1
 10
66.629496
 20
10.275576
 30
0.0
 10
68.950004
 20
8.935830
 30
0.0
 10
71.808988
 20
8.935830
 30
0.0
 10
74.129496
 20
10.275576
 30
0.0
  0
SPLINE
  5
25a
100
AcDbEntity
  8
Layer_1
 62
1
100
AcDbSpline
 70
8
 71
3
 72
8
 73
4
 74
0
 40
0
 40
0
 40
0
 40
0
 40
1
 40
1
 40
1
 40
1
 10
74.129496
 20
10.275576
 30
0.0
 10
76.450004
 20
11.615322
 30
0.0
 10
77.879496
 20
14.091275
 30
0.0
 10
77.879496
 20
16.770766
 30
0.0
  0
LINE
  5
25b
100
AcDbEntity
  8
Layer_1
 62
1
100
AcDbLine
 10
77.879496
 20
16.770766
 30
0.0
 11
77.879496
 21
16.770766
 31
0.0
  0
LINE
  5
25c
100
AcDbEntity
  8
Layer_1
 62
7
100
AcDbLine
 10
106.642857
 20
112.893654
 30
0.0
 11
56.642858
 21
112.893654
 31
0.0
  0
LINE
  5
25d
100
AcDbEntity
  8
Layer_1
 62
7
100
AcDbLine
 10
56.642858
 20
112.893654
 30
0.0
 11
56.642858
 21
164.893652
 31
0.0
  0
LINE
  5
25e
100
AcDbEntity
  8
Layer_1
 62
7
100
AcDbLine
 10
56.642858
 20
164.893652
 30
0.0
 11
106.642857
 21
164.893652
 31
0.0
  0
LINE
  5
25f
100
AcDbEntity
  8
Layer_1
 62
7
100
AcDbLine
 10
106.642857
 20
164.893652
 30
0.0
 11
106.642857
 21
112.893654
 31
0.0
  0
LINE
  5
260
100
AcDbEntity
  8
Layer_1
 62
7
100
AcDbLine
 10
106.642857
 20
112.893654
 30
0.0
 11
106.642857
 21
112.893654
 31
0.0
  0
LINE
  5
261
100
AcDbEntity
  8
Layer_1
 62
1
100
AcDbLine
 10
86.642857
 20
115.893648
 30
0.0
 11
76.642858
 21
115.893648
 31
0.0
  0
LINE
  5
262
100
AcDbEntity
  8
Layer_1
 62
1
100
AcDbLine
 10
76.642858
 20
115.893648
 30
0.0
 11
76.642858
 21
118.893642
 31
0.0
  0
LINE
  5
263
100
AcDbEntity
  8
Layer_1
 62
1
100
AcDbLine
 10
76.642858
 20
118.893642
 30
0.0
 11
86.642857
 21
118.893642
 31
0.0
  0
LINE
  5
264
100
AcDbEntity
  8
Layer_1
 62
1
100
AcDbLine
 10
86.642857
 20
118.893642
 30
0.0
 11
86.642857
 21
115.893648
 31
0.0
  0
LINE
  5
265
100
AcDbEntity
  8
Layer_1
 62
1
100
AcDbLine
 10
86.642857
 20
115.893648
 30
0.0
 11
86.642857
 21
115.893648
 31
0.0
  0
LINE
  5
266
100
AcDbEntity
  8
Layer_1
 62
1
100
AcDbLine
 10
86.642857
 20
130.893652
 30
0.0
 11
76.642858
 21
130.893652
 31
0.0
  0
LINE
  5
267
100
AcDbEntity
  8
Layer_1
 62
1
100
AcDbLine
 10
76.642858
 20
130.893652
 30
0.0
 11
76.642858
 21
136.893651
 31
0.0
  0
LINE
  5
268
100
AcDbEntity
  8
Layer_1
 62
1
100
AcDbLine
 10
76.642858
 20
136.893651
 30
0.0
 11
86.642857
 21
136.893651
 31
0.0
  0
LINE
  5
269
100
AcDbEntity
  8
Layer_1
 62
1
100
AcDbLine
 10
86.642857
 20
136.893651
 30
0.0
 11
86.642857
 21
130.893652
 31
0.0
  0
LINE
  5
26a
100
AcDbEntity
  8
Layer_1
 62
1
100
AcDbLine
 10
86.642857
 20
130.893652
 30
0.0
 11
86.642857
 21
130.893652
 31
0.0
  0
LINE
  5
26b
100
AcDbEntity
  8
Layer_1
 62
1
100
AcDbLine
 10
72.642858
 20
152.893653
 30
0.0
 11
66.642858
 21
152.893653
 31
0.0
  0
LINE
  5
26c
100
AcDbEntity
  8
Layer_1
 62
1
100
AcDbLine
 10
66.642858
 20
152.893653
 30
0.0
 11
66.642858
 21
142.893653
 31
0.0
  0
LINE
  5
26d
100
AcDbEntity
  8
Layer_1
 62
1
100
AcDbLine
 10
66.642858
 20
142.893653
 30
0.0
 11
72.642858
 21
142.893653
 31
0.0
  0
LINE
  5
26e
100
AcDbEntity
  8
Layer_1
 62
1
100
AcDbLine
 10
72.642858
 20
142.893653
 30
0.0
 11
72.642858
 21
152.893653
 31
0.0
  0
LINE
  5
26f
100
AcDbEntity
  8
Layer_1
 62
1
100
AcDbLine
 10
72.642858
 20
152.893653
 30
0.0
 11
72.642858
 21
152.893653
 31
0.0
  0
LINE
  5
270
100
AcDbEntity
  8
Layer_1
 62
1
100
AcDbLine
 10
86.642857
 20
161.893652
 30
0.0
 11
76.642858
 21
161.893652
 31
0.0
  0
LINE
  5
271
100
AcDbEntity
  8
Layer_1
 62
1
100
AcDbLine
 10
76.642858
 20
161.893652
 30
0.0
 11
76.642858
 21
158.893652
 31
0.0
  0
LINE
  5
272
100
AcDbEntity
  8
Layer_1
 62
1
100
AcDbLine
 10
76.642858
 20
158.893652
 30
0.0
 11
86.642857
 21
158.893652
 31
0.0
  0
LINE
  5
273
100
AcDbEntity
  8
Layer_1
 62
1
100
AcDbLine
 10
86.642857
 20
158.893652
 30
0.0
 11
86.642857
 21
161.893652
 31
0.0
  0
LINE
  5
274
100
AcDbEntity
  8
Layer_1
 62
1
100
AcDbLine
 10
86.642857
 20
161.893652
 30
0.0
 11
86.642857
 21
161.893652
 31
0.0
  0
LINE
  5
275
100
AcDbEntity
  8
Layer_1
 62
1
100
AcDbLine
 10
96.642857
 20
152.893653
 30
0.0
 11
96.642857
 21
142.893653
 31
0.0
  0
LINE
  5
276
100
AcDbEntity
  8
Layer_1
 62
1
100
AcDbLine
 10
96.642857
 20
142.893653
 30
0.0
 11
90.642858
 21
142.893653
 31
0.0
  0
LINE
  5
277
100
AcDbEntity
  8
Layer_1
 62
1
100
AcDbLine
 10
90.642858
 20
142.893653
 30
0.0
 11
90.642858
 21
152.893653
 31
0.0
  0
LINE
  5
278
100
AcDbEntity
  8
Layer_1
 62
1
100
AcDbLine
 10
90.642858
 20
152.893653
 30
0.0
 11
96.642857
 21
152.893653
 31
0.0
  0
LINE
  5
279
100
AcDbEntity
  8
Layer_1
 62
1
100
AcDbLine
 10
96.642857
 20
152.893653
 30
0.0
 11
96.642857
 21
152.893653
 31
0.0
  0
SPLINE
  5
27a
100
AcDbEntity
  8
Layer_1
 62
1
100
AcDbSpline
 70
8
 71
3
 72
8
 73
4
 74
0
 40
0
 40
0
 40
0
 40
0
 40
1
 40
1
 40
1
 40
1
 10
84.542858
 20
124.893658
 30
0.0
 10
84.543181
 20
125.929944
 30
0.0
 10
83.990515
 20
126.887650
 30
0.0
 10
83.093119
 20
127.405886
 30
0.0
  0
SPLINE
  5
27b
100
AcDbEntity
  8
Layer_1
 62
1
100
AcDbSpline
 70
8
 71
3
 72
8
 73
4
 74
0
 40
0
 40
0
 40
0
 40
0
 40
1
 40
1
 40
1
 40
1
 10
83.093119
 20
127.405886
 30
0.0
 10
82.195723
 20
127.924122
 30
0.0
 10
81.089993
 20
127.924122
 30
0.0
 10
80.192597
 20
127.405886
 30
0.0
  0
SPLINE
  5
27c
100
AcDbEntity
  8
Layer_1
 62
1
100
AcDbSpline
 70
8
 71
3
 72
8
 73
4
 74
0
 40
0
 40
0
 40
0
 40
0
 40
1
 40
1
 40
1
 40
1
 10
80.192597
 20
127.405886
 30
0.0
 10
79.295201
 20
126.887650
 30
0.0
 10
78.742535
 20
125.929944
 30
0.0
 10
78.742858
 20
124.893658
 30
0.0
  0
SPLINE
  5
27d
100
AcDbEntity
  8
Layer_1
 62
1
100
AcDbSpline
 70
8
 71
3
 72
8
 73
4
 74
0
 40
0
 40
0
 40
0
 40
0
 40
1
 40
1
 40
1
 40
1
 10
78.742858
 20
124.893658
 30
0.0
 10
78.742535
 20
123.857373
 30
0.0
 10
79.295201
 20
122.899667
 30
0.0
 10
80.192597
 20
122.381431
 30
0.0
  0
SPLINE
  5
27e
100
AcDbEntity
  8
Layer_1
 62
1
100
AcDbSpline
 70
8
 71
3
 72
8
 73
4
 74
0
 40
0
 40
0
 40
0
 40
0
 40
1
 40
1
 40
1
 40
1
 10
80.192597
 20
122.381431
 30
0.0
 10
81.089993
 20
121.863195
 30
0.0
 10
82.195723
 20
121.863195
 30
0.0
 10
83.093119
 20
122.381431
 30
0.0
  0
SPLINE
  5
27f
100
AcDbEntity
  8
Layer_1
 62
1
100
AcDbSpline
 70
8
 71
3
 72
8
 73
4
 74
0
 40
0
 40
0
 40
0
 40
0
 40
1
 40
1
 40
1
 40
1
 10
83.093119
 20
122.381431
 30
0.0
 10
83.990515
 20
122.899667
 30
0.0
 10
84.543181
 20
123.857373
 30
0.0
 10
84.542858
 20
124.893658
 30
0.0
  0
LINE
  5
280
100
AcDbEntity
  8
Layer_1
 62
1
100
AcDbLine
 10
84.542858
 20
124.893658
 30
0.0
 11
84.542858
 21
124.893658
 31
0.0
  0
SPLINE
  5
281
100
AcDbEntity
  8
Layer_1
 62
1
100
AcDbSpline
 70
8
 71
3
 72
8
 73
4
 74
0
 40
0
 40
0
 40
0
 40
0
 40
1
 40
1
 40
1
 40
1
 10
63.142858
 20
156.893654
 30
0.0
 10
63.142858
 20
157.518868
 30
0.0
 10
62.809310
 20
158.096591
 30
0.0
 10
62.267858
 20
158.409198
 30
0.0
  0
SPLINE
  5
282
100
AcDbEntity
  8
Layer_1
 62
1
100
AcDbSpline
 70
8
 71
3
 72
8
 73
4
 74
0
 40
0
 40
0
 40
0
 40
0
 40
1
 40
1
 40
1
 40
1
 10
62.267858
 20
158.409198
 30
0.0
 10
61.726406
 20
158.721805
 30
0.0
 10
61.059310
 20
158.721805
 30
0.0
 10
60.517858
 20
158.409198
 30
0.0
  0
SPLINE
  5
283
100
AcDbEntity
  8
Layer_1
 62
1
100
AcDbSpline
 70
8
 71
3
 72
8
 73
4
 74
0
 40
0
 40
0
 40
0
 40
0
 40
1
 40
1
 40
1
 40
1
 10
60.517858
 20
158.409198
 30
0.0
 10
59.976406
 20
158.096591
 30
0.0
 10
59.642858
 20
157.518868
 30
0.0
 10
59.642858
 20
156.893654
 30
0.0
  0
SPLINE
  5
284
100
AcDbEntity
  8
Layer_1
 62
1
100
AcDbSpline
 70
8
 71
3
 72
8
 73
4
 74
0
 40
0
 40
0
 40
0
 40
0
 40
1
 40
1
 40
1
 40
1
 10
59.642858
 20
156.893654
 30
0.0
 10
59.642858
 20
156.268439
 30
0.0
 10
59.976406
 20
155.690717
 30
0.0
 10
60.517858
 20
155.378109
 30
0.0
  0
SPLINE
  5
285
100
AcDbEntity
  8
Layer_1
 62
1
100
AcDbSpline
 70
8
 71
3
 72
8
 73
4
 74
0
 40
0
 40
0
 40
0
 40
0
 40
1
 40
1
 40
1
 40
1
 10
60.517858
 20
155.378109
 30
0.0
 10
61.059310
 20
155.065502
 30
0.0
 10
61.726406
 20
155.065502
 30
0.0
 10
62.267858
 20
155.378109
 30
0.0
  0
SPLINE
  5
286
100
AcDbEntity
  8
Layer_1
 62
1
100
AcDbSpline
 70
8
 71
3
 72
8
 73
4
 74
0
 40
0
 40
0
 40
0
 40
0
 40
1
 40
1
 40
1
 40
1
 10
62.267858
 20
155.378109
 30
0.0
 10
62.809310
 20
155.690717
 30
0.0
 10
63.142858
 20
156.268439
 30
0.0
 10
63.142858
 20
156.893654
 30
0.0
  0
LINE
  5
287
100
AcDbEntity
  8
Layer_1
 62
1
100
AcDbLine
 10
63.142858
 20
156.893654
 30
0.0
 11
63.142858
 21
156.893654
 31
0.0
  0
SPLINE
  5
288
100
AcDbEntity
  8
Layer_1
 62
1
100
AcDbSpline
 70
8
 71
3
 72
8
 73
4
 74
0
 40
0
 40
0
 40
0
 40
0
 40
1
 40
1
 40
1
 40
1
 10
103.642857
 20
156.893654
 30
0.0
 10
103.643419
 20
157.519242
 30
0.0
 10
103.309994
 20
158.097551
 30
0.0
 10
102.768311
 20
158.410508
 30
0.0
  0
SPLINE
  5
289
100
AcDbEntity
  8
Layer_1
 62
1
100
AcDbSpline
 70
8
 71
3
 72
8
 73
4
 74
0
 40
0
 40
0
 40
0
 40
0
 40
1
 40
1
 40
1
 40
1
 10
102.768311
 20
158.410508
 30
0.0
 10
102.226629
 20
158.723464
 30
0.0
 10
101.559087
 20
158.723464
 30
0.0
 10
101.017404
 20
158.410508
 30
0.0
  0
SPLINE
  5
28a
100
AcDbEntity
  8
Layer_1
 62
1
100
AcDbSpline
 70
8
 71
3
 72
8
 73
4
 74
0
 40
0
 40
0
 40
0
 40
0
 40
1
 40
1
 40
1
 40
1
 10
101.017404
 20
158.410508
 30
0.0
 10
100.475722
 20
158.097551
 30
0.0
 10
100.142297
 20
157.519242
 30
0.0
 10
100.142858
 20
156.893654
 30
0.0
  0
SPLINE
  5
28b
100
AcDbEntity
  8
Layer_1
 62
1
100
AcDbSpline
 70
8
 71
3
 72
8
 73
4
 74
0
 40
0
 40
0
 40
0
 40
0
 40
1
 40
1
 40
1
 40
1
 10
100.142858
 20
156.893654
 30
0.0
 10
100.142297
 20
156.268065
 30
0.0
 10
100.475722
 20
155.689756
 30
0.0
 10
101.017404
 20
155.376800
 30
0.0
  0
SPLINE
  5
28c
100
AcDbEntity
  8
Layer_1
 62
1
100
AcDbSpline
 70
8
 71
3
 72
8
 73
4
 74
0
 40
0
 40
0
 40
0
 40
0
 40
1
 40
1
 40
1
 40
1
 10
101.017404
 20
155.376800
 30
0.0
 10
101.559087
 20
155.063843
 30
0.0
 10
102.226629
 20
155.063843
 30
0.0
 10
102.768311
 20
155.376800
 30
0.0
  0
SPLINE
  5
28d
100
AcDbEntity
  8
Layer_1
 62
1
100
AcDbSpline
 70
8
 71
3
 72
8
 73
4
 74
0
 40
0
 40
0
 40
0
 40
0
 40
1
 40
1
 40
1
 40
1
 10
102.768311
 20
155.376800
 30
0.0
 10
103.309994
 20
155.689756
 30
0.0
 10
103.643419
 20
156.268065
 30
0.0
 10
103.642857
 20
156.893654
 30
0.0
  0
LINE
  5
28e
100
AcDbEntity
  8
Layer_1
 62
1
100
AcDbLine
 10
103.642857
 20
156.893654
 30
0.0
 11
103.642857
 21
156.893654
 31
0.0
  0
SPLINE
  5
28f
100
AcDbEntity
  8
Layer_1
 62
1
100
AcDbSpline
 70
8
 71
3
 72
8
 73
4
 74
0
 40
0
 40
0
 40
0
 40
0
 40
1
 40
1
 40
1
 40
1
 10
63.142858
 20
124.893658
 30
0.0
 10
63.142858
 20
125.518873
 30
0.0
 10
62.809310
 20
126.096595
 30
0.0
 10
62.267858
 20
126.409203
 30
0.0
  0
SPLINE
  5
290
100
AcDbEntity
  8
Layer_1
 62
1
100
AcDbSpline
 70
8
 71
3
 72
8
 73
4
 74
0
 40
0
 40
0
 40
0
 40
0
 40
1
 40
1
 40
1
 40
1
 10
62.267858
 20
126.409203
 30
0.0
 10
61.726406
 20
126.721810
 30
0.0
 10
61.059310
 20
126.721810
 30
0.0
 10
60.517858
 20
126.409203
 30
0.0
  0
SPLINE
  5
291
100
AcDbEntity
  8
Layer_1
 62
1
100
AcDbSpline
 70
8
 71
3
 72
8
 73
4
 74
0
 40
0
 40
0
 40
0
 40
0
 40
1
 40
1
 40
1
 40
1
 10
60.517858
 20
126.409203
 30
0.0
 10
59.976406
 20
126.096595
 30
0.0
 10
59.642858
 20
125.518873
 30
0.0
 10
59.642858
 20
124.893658
 30
0.0
  0
SPLINE
  5
292
100
AcDbEntity
  8
Layer_1
 62
1
100
AcDbSpline
 70
8
 71
3
 72
8
 73
4
 74
0
 40
0
 40
0
 40
0
 40
0
 40
1
 40
1
 40
1
 40
1
 10
59.642858
 20
124.893658
 30
0.0
 10
59.642858
 20
124.268444
 30
0.0
 10
59.976406
 20
123.690721
 30
0.0
 10
60.517858
 20
123.378114
 30
0.0
  0
SPLINE
  5
293
100
AcDbEntity
  8
Layer_1
 62
1
100
AcDbSpline
 70
8
 71
3
 72
8
 73
4
 74
0
 40
0
 40
0
 40
0
 40
0
 40
1
 40
1
 40
1
 40
1
 10
60.517858
 20
123.378114
 30
0.0
 10
61.059310
 20
123.065506
 30
0.0
 10
61.726406
 20
123.065506
 30
0.0
 10
62.267858
 20
123.378114
 30
0.0
  0
SPLINE
  5
294
100
AcDbEntity
  8
Layer_1
 62
1
100
AcDbSpline
 70
8
 71
3
 72
8
 73
4
 74
0
 40
0
 40
0
 40
0
 40
0
 40
1
 40
1
 40
1
 40
1
 10
62.267858
 20
123.378114
 30
0.0
 10
62.809310
 20
123.690721
 30
0.0
 10
63.142858
 20
124.268444
 30
0.0
 10
63.142858
 20
124.893658
 30
0.0
  0
LINE
  5
295
100
AcDbEntity
  8
Layer_1
 62
1
100
AcDbLine
 10
63.142858
 20
124.893658
 30
0.0
 11
63.142858
 21
124.893658
 31
0.0
  0
SPLINE
  5
296
100
AcDbEntity
  8
Layer_1
 62
1
100
AcDbSpline
 70
8
 71
3
 72
8
 73
4
 74
0
 40
0
 40
0
 40
0
 40
0
 40
1
 40
1
 40
1
 40
1
 10
103.642857
 20
124.893658
 30
0.0
 10
103.643419
 20
125.519247
 30
0.0
 10
103.309994
 20
126.097556
 30
0.0
 10
102.768311
 20
126.410512
 30
0.0
  0
SPLINE
  5
297
100
AcDbEntity
  8
Layer_1
 62
1
100
AcDbSpline
 70
8
 71
3
 72
8
 73
4
 74
0
 40
0
 40
0
 40
0
 40
0
 40
1
 40
1
 40
1
 40
1
 10
102.768311
 20
126.410512
 30
0.0
 10
102.226629
 20
126.723469
 30
0.0
 10
101.559087
 20
126.723469
 30
0.0
 10
101.017404
 20
126.410512
 30
0.0
  0
SPLINE
  5
298
100
AcDbEntity
  8
Layer_1
 62
1
100
AcDbSpline
 70
8
 71
3
 72
8
 73
4
 74
0
 40
0
 40
0
 40
0
 40
0
 40
1
 40
1
 40
1
 40
1
 10
101.017404
 20
126.410512
 30
0.0
 10
100.475722
 20
126.097556
 30
0.0
 10
100.142297
 20
125.519247
 30
0.0
 10
100.142858
 20
124.893658
 30
0.0
  0
SPLINE
  5
299
100
AcDbEntity
  8
Layer_1
 62
1
100
AcDbSpline
 70
8
 71
3
 72
8
 73
4
 74
0
 40
0
 40
0
 40
0
 40
0
 40
1
 40
1
 40
1
 40
1
 10
100.142858
 20
124.893658
 30
0.0
 10
100.142297
 20
124.268070
 30
0.0
 10
100.475722
 20
123.689761
 30
0.0
 10
101.017404
 20
123.376804
 30
0.0
  0
SPLINE
  5
29a
100
AcDbEntity
  8
Layer_1
 62
1
100
AcDbSpline
 70
8
 71
3
 72
8
 73
4
 74
0
 40
0
 40
0
 40
0
 40
0
 40
1
 40
1
 40
1
 40
1
 10
101.017404
 20
123.376804
 30
0.0
 10
101.559087
 20
123.063848
 30
0.0
 10
102.226629
 20
123.063848
 30
0.0
 10
102.768311
 20
123.376804
 30
0.0
  0
SPLINE
  5
29b
100
AcDbEntity
  8
Layer_1
 62
1
100
AcDbSpline
 70
8
 71
3
 72
8
 73
4
 74
0
 40
0
 40
0
 40
0
 40
0
 40
1
 40
1
 40
1
 40
1
 10
102.768311
 20
123.376804
 30
0.0
 10
103.309994
 20
123.689761
 30
0.0
 10
103.643419
 20
124.268070
 30
0.0
 10
103.642857
 20
124.893658
 30
0.0
  0
LINE
  5
29c
100
AcDbEntity
  8
Layer_1
 62
1
100
AcDbLine
 10
103.642857
 20
124.893658
 30
0.0
 11
103.642857
 21
124.893658
 31
0.0
  0
LINE
  5
29d
100
AcDbEntity
  8
Layer_1
 62
7
100
AcDbLine
 10
133.952274
 20
139.861980
 30
0.0
 11
130.952562
 21
139.861980
 31
0.0
  0
LINE
  5
29e
100
AcDbEntity
  8
Layer_1
 62
7
100
AcDbLine
 10
130.952562
 20
139.861980
 30
0.0
 11
130.952562
 21
159.861723
 31
0.0
  0
LINE
  5
29f
100
AcDbEntity
  8
Layer_1
 62
7
100
AcDbLine
 10
130.952562
 20
159.861723
 30
0.0
 11
110.952266
 21
159.861723
 31
0.0
  0
LINE
  5
2a0
100
AcDbEntity
  8
Layer_1
 62
7
100
AcDbLine
 10
110.952266
 20
159.861723
 30
0.0
 11
110.952266
 21
139.861980
 31
0.0
  0
LINE
  5
2a1
100
AcDbEntity
  8
Layer_1
 62
7
100
AcDbLine
 10
110.952266
 20
139.861980
 30
0.0
 11
107.952551
 21
139.861980
 31
0.0
  0
LINE
  5
2a2
100
AcDbEntity
  8
Layer_1
 62
7
100
AcDbLine
 10
107.952551
 20
139.861980
 30
0.0
 11
107.952551
 21
129.861831
 31
0.0
  0
LINE
  5
2a3
100
AcDbEntity
  8
Layer_1
 62
7
100
AcDbLine
 10
107.952551
 20
129.861831
 30
0.0
 11
110.952266
 21
129.861831
 31
0.0
  0
LINE
  5
2a4
100
AcDbEntity
  8
Layer_1
 62
7
100
AcDbLine
 10
110.952266
 20
129.861831
 30
0.0
 11
110.952266
 21
109.862088
 31
0.0
  0
LINE
  5
2a5
100
AcDbEntity
  8
Layer_1
 62
7
100
AcDbLine
 10
110.952266
 20
109.862088
 30
0.0
 11
130.952562
 21
109.862088
 31
0.0
  0
LINE
  5
2a6
100
AcDbEntity
  8
Layer_1
 62
7
100
AcDbLine
 10
130.952562
 20
109.862088
 30
0.0
 11
130.952562
 21
129.861831
 31
0.0
  0
LINE
  5
2a7
100
AcDbEntity
  8
Layer_1
 62
7
100
AcDbLine
 10
130.952562
 20
129.861831
 30
0.0
 11
133.952274
 21
129.861831
 31
0.0
  0
LINE
  5
2a8
100
AcDbEntity
  8
Layer_1
 62
7
100
AcDbLine
 10
133.952274
 20
129.861831
 30
0.0
 11
133.952274
 21
139.861980
 31
0.0
  0
LINE
  5
2a9
100
AcDbEntity
  8
Layer_1
 62
7
100
AcDbLine
 10
133.952274
 20
139.861980
 30
0.0
 11
133.952274
 21
139.861980
 31
0.0
  0
SPLINE
  5
2aa
100
AcDbEntity
  8
Layer_1
 62
1
100
AcDbSpline
 70
8
 71
3
 72
8
 73
4
 74
0
 40
0
 40
0
 40
0
 40
0
 40
1
 40
1
 40
1
 40
1
 10
120.952486
 20
141.811906
 30
0.0
 10
122.399666
 20
141.811524
 30
0.0
 10
123.737079
 20
142.583366
 30
0.0
 10
124.460780
 20
143.836597
 30
0.0
  0
SPLINE
  5
2ab
100
AcDbEntity
  8
Layer_1
 62
1
100
AcDbSpline
 70
8
 71
3
 72
8
 73
4
 74
0
 40
0
 40
0
 40
0
 40
0
 40
1
 40
1
 40
1
 40
1
 10
124.460780
 20
143.836597
 30
0.0
 10
125.184480
 20
145.089829
 30
0.0
 10
125.184480
 20
146.633983
 30
0.0
 10
124.460780
 20
147.887215
 30
0.0
  0
SPLINE
  5
2ac
100
AcDbEntity
  8
Layer_1
 62
1
100
AcDbSpline
 70
8
 71
3
 72
8
 73
4
 74
0
 40
0
 40
0
 40
0
 40
0
 40
1
 40
1
 40
1
 40
1
 10
124.460780
 20
147.887215
 30
0.0
 10
123.737079
 20
149.140446
 30
0.0
 10
122.399666
 20
149.912288
 30
0.0
 10
120.952486
 20
149.911906
 30
0.0
  0
SPLINE
  5
2ad
100
AcDbEntity
  8
Layer_1
 62
1
100
AcDbSpline
 70
8
 71
3
 72
8
 73
4
 74
0
 40
0
 40
0
 40
0
 40
0
 40
1
 40
1
 40
1
 40
1
 10
120.952486
 20
149.911906
 30
0.0
 10
119.505306
 20
149.912288
 30
0.0
 10
118.167892
 20
149.140446
 30
0.0
 10
117.444192
 20
147.887215
 30
0.0
  0
SPLINE
  5
2ae
100
AcDbEntity
  8
Layer_1
 62
1
100
AcDbSpline
 70
8
 71
3
 72
8
 73
4
 74
0
 40
0
 40
0
 40
0
 40
0
 40
1
 40
1
 40
1
 40
1
 10
117.444192
 20
147.887215
 30
0.0
 10
116.720491
 20
146.633983
 30
0.0
 10
116.720491
 20
145.089829
 30
0.0
 10
117.444192
 20
143.836597
 30
0.0
  0
SPLINE
  5
2af
100
AcDbEntity
  8
Layer_1
 62
1
100
AcDbSpline
 70
8
 71
3
 72
8
 73
4
 74
0
 40
0
 40
0
 40
0
 40
0
 40
1
 40
1
 40
1
 40
1
 10
117.444192
 20
143.836597
 30
0.0
 10
118.167892
 20
142.583366
 30
0.0
 10
119.505306
 20
141.811524
 30
0.0
 10
120.952486
 20
141.811906
 30
0.0
  0
LINE
  5
2b0
100
AcDbEntity
  8
Layer_1
 62
1
100
AcDbLine
 10
120.952486
 20
141.811906
 30
0.0
 11
120.952486
 21
141.811906
 31
0.0
  0
SPLINE
  5
2b1
100
AcDbEntity
  8
Layer_1
 62
1
100
AcDbSpline
 70
8
 71
3
 72
8
 73
4
 74
0
 40
0
 40
0
 40
0
 40
0
 40
1
 40
1
 40
1
 40
1
 10
120.952486
 20
119.811906
 30
0.0
 10
122.399412
 20
119.811906
 30
0.0
 10
123.736426
 20
120.583831
 30
0.0
 10
124.459889
 20
121.836906
 30
0.0
  0
SPLINE
  5
2b2
100
AcDbEntity
  8
Layer_1
 62
1
100
AcDbSpline
 70
8
 71
3
 72
8
 73
4
 74
0
 40
0
 40
0
 40
0
 40
0
 40
1
 40
1
 40
1
 40
1
 10
124.459889
 20
121.836906
 30
0.0
 10
125.183352
 20
123.089980
 30
0.0
 10
125.183352
 20
124.633832
 30
0.0
 10
124.459889
 20
125.886906
 30
0.0
  0
SPLINE
  5
2b3
100
AcDbEntity
  8
Layer_1
 62
1
100
AcDbSpline
 70
8
 71
3
 72
8
 73
4
 74
0
 40
0
 40
0
 40
0
 40
0
 40
1
 40
1
 40
1
 40
1
 10
124.459889
 20
125.886906
 30
0.0
 10
123.736426
 20
127.139981
 30
0.0
 10
122.399412
 20
127.911906
 30
0.0
 10
120.952486
 20
127.911906
 30
0.0
  0
SPLINE
  5
2b4
100
AcDbEntity
  8
Layer_1
 62
1
100
AcDbSpline
 70
8
 71
3
 72
8
 73
4
 74
0
 40
0
 40
0
 40
0
 40
0
 40
1
 40
1
 40
1
 40
1
 10
120.952486
 20
127.911906
 30
0.0
 10
119.505560
 20
127.911906
 30
0.0
 10
118.168545
 20
127.139981
 30
0.0
 10
117.445083
 20
125.886906
 30
0.0
  0
SPLINE
  5
2b5
100
AcDbEntity
  8
Layer_1
 62
1
100
AcDbSpline
 70
8
 71
3
 72
8
 73
4
 74
0
 40
0
 40
0
 40
0
 40
0
 40
1
 40
1
 40
1
 40
1
 10
117.445083
 20
125.886906
 30
0.0
 10
116.721620
 20
124.633832
 30
0.0
 10
116.721620
 20
123.089980
 30
0.0
 10
117.445083
 20
121.836906
 30
0.0
  0
SPLINE
  5
2b6
100
AcDbEntity
  8
Layer_1
 62
1
100
AcDbSpline
 70
8
 71
3
 72
8
 73
4
 74
0
 40
0
 40
0
 40
0
 40
0
 40
1
 40
1
 40
1
 40
1
 10
117.445083
 20
121.836906
 30
0.0
 10
118.168545
 20
120.583831
 30
0.0
 10
119.505560
 20
119.811906
 30
0.0
 10
120.952486
 20
119.811906
 30
0.0
  0
LINE
  5
2b7
100
AcDbEntity
  8
Layer_1
 62
1
100
AcDbLine
 10
120.952486
 20
119.811906
 30
0.0
 11
120.952486
 21
119.811906
 31
0.0
  0
LINE
  5
2b8
100
AcDbEntity
  8
Layer_1
 62
7
100
AcDbLine
 10
34.924009
 20
135.824681
 30
0.0
 11
34.924009
 21
138.824946
 31
0.0
  0
LINE
  5
2b9
100
AcDbEntity
  8
Layer_1
 62
7
100
AcDbLine
 10
34.924009
 20
138.824946
 30
0.0
 11
54.923752
 21
138.824946
 31
0.0
  0
LINE
  5
2ba
100
AcDbEntity
  8
Layer_1
 62
7
100
AcDbLine
 10
54.923752
 20
138.824946
 30
0.0
 11
54.923752
 21
158.824689
 31
0.0
  0
LINE
  5
2bb
100
AcDbEntity
  8
Layer_1
 62
7
100
AcDbLine
 10
54.923752
 20
158.824689
 30
0.0
 11
34.924009
 21
158.824689
 31
0.0
  0
LINE
  5
2bc
100
AcDbEntity
  8
Layer_1
 62
7
100
AcDbLine
 10
34.924009
 20
158.824689
 30
0.0
 11
34.924009
 21
161.824954
 31
0.0
  0
LINE
  5
2bd
100
AcDbEntity
  8
Layer_1
 62
7
100
AcDbLine
 10
34.924009
 20
161.824954
 30
0.0
 11
24.923860
 21
161.824954
 31
0.0
  0
LINE
  5
2be
100
AcDbEntity
  8
Layer_1
 62
7
100
AcDbLine
 10
24.923860
 20
161.824954
 30
0.0
 11
24.923860
 21
158.824689
 31
0.0
  0
LINE
  5
2bf
100
AcDbEntity
  8
Layer_1
 62
7
100
AcDbLine
 10
24.923860
 20
158.824689
 30
0.0
 11
4.924117
 21
158.824689
 31
0.0
  0
LINE
  5
2c0
100
AcDbEntity
  8
Layer_1
 62
7
100
AcDbLine
 10
4.924117
 20
158.824689
 30
0.0
 11
4.924117
 21
138.824946
 31
0.0
  0
LINE
  5
2c1
100
AcDbEntity
  8
Layer_1
 62
7
100
AcDbLine
 10
4.924117
 20
138.824946
 30
0.0
 11
24.923860
 21
138.824946
 31
0.0
  0
LINE
  5
2c2
100
AcDbEntity
  8
Layer_1
 62
7
100
AcDbLine
 10
24.923860
 20
138.824946
 30
0.0
 11
24.923860
 21
135.824681
 31
0.0
  0
LINE
  5
2c3
100
AcDbEntity
  8
Layer_1
 62
7
100
AcDbLine
 10
24.923860
 20
135.824681
 30
0.0
 11
34.924009
 21
135.824681
 31
0.0
  0
LINE
  5
2c4
100
AcDbEntity
  8
Layer_1
 62
7
100
AcDbLine
 10
34.924009
 20
135.824681
 30
0.0
 11
34.924009
 21
135.824681
 31
0.0
  0
LINE
  5
2c5
100
AcDbEntity
  8
Layer_1
 62
1
100
AcDbLine
 10
38.923857
 20
143.824792
 30
0.0
 11
44.923856
 21
143.824792
 31
0.0
  0
LINE
  5
2c6
100
AcDbEntity
  8
Layer_1
 62
1
100
AcDbLine
 10
44.923856
 20
143.824792
 30
0.0
 11
44.923856
 21
153.824800
 31
0.0
  0
LINE
  5
2c7
100
AcDbEntity
  8
Layer_1
 62
1
100
AcDbLine
 10
44.923856
 20
153.824800
 30
0.0
 11
38.923857
 21
153.824800
 31
0.0
  0
LINE
  5
2c8
100
AcDbEntity
  8
Layer_1
 62
1
100
AcDbLine
 10
38.923857
 20
153.824800
 30
0.0
 11
38.923857
 21
143.824792
 31
0.0
  0
LINE
  5
2c9
100
AcDbEntity
  8
Layer_1
 62
1
100
AcDbLine
 10
38.923857
 20
143.824792
 30
0.0
 11
38.923857
 21
143.824792
 31
0.0
  0
LINE
  5
2ca
100
AcDbEntity
  8
Layer_1
 62
1
100
AcDbLine
 10
14.923857
 20
143.824792
 30
0.0
 11
14.923857
 21
153.824800
 31
0.0
  0
LINE
  5
2cb
100
AcDbEntity
  8
Layer_1
 62
1
100
AcDbLine
 10
14.923857
 20
153.824800
 30
0.0
 11
20.923857
 21
153.824800
 31
0.0
  0
LINE
  5
2cc
100
AcDbEntity
  8
Layer_1
 62
1
100
AcDbLine
 10
20.923857
 20
153.824800
 30
0.0
 11
20.923857
 21
143.824792
 31
0.0
  0
LINE
  5
2cd
100
AcDbEntity
  8
Layer_1
 62
1
100
AcDbLine
 10
20.923857
 20
143.824792
 30
0.0
 11
14.923857
 21
143.824792
 31
0.0
  0
LINE
  5
2ce
100
AcDbEntity
  8
Layer_1
 62
1
100
AcDbLine
 10
14.923857
 20
143.824792
 30
0.0
 11
14.923857
 21
143.824792
 31
0.0
  0
LINE
  5
2cf
100
AcDbEntity
  8
Layer_1
 62
7
100
AcDbLine
 10
183.676070
 20
29.419215
 30
0.0
 11
183.676070
 21
26.418950
 31
0.0
  0
LINE
  5
2d0
100
AcDbEntity
  8
Layer_1
 62
7
100
AcDbLine
 10
183.676070
 20
26.418950
 30
0.0
 11
189.676047
 21
26.418950
 31
0.0
  0
LINE
  5
2d1
100
AcDbEntity
  8
Layer_1
 62
7
100
AcDbLine
 10
189.676047
 20
26.418950
 30
0.0
 11
189.676047
 21
21.419429
 31
0.0
  0
LINE
  5
2d2
100
AcDbEntity
  8
Layer_1
 62
7
100
AcDbLine
 10
189.676047
 20
21.419429
 30
0.0
 11
192.675761
 21
21.419429
 31
0.0
  0
LINE
  5
2d3
100
AcDbEntity
  8
Layer_1
 62
7
100
AcDbLine
 10
192.675761
 20
21.419429
 30
0.0
 11
192.675761
 21
11.419279
 31
0.0
  0
LINE
  5
2d4
100
AcDbEntity
  8
Layer_1
 62
7
100
AcDbLine
 10
192.675761
 20
11.419279
 30
0.0
 11
189.676047
 21
11.419279
 31
0.0
  0
LINE
  5
2d5
100
AcDbEntity
  8
Layer_1
 62
7
100
AcDbLine
 10
189.676047
 20
11.419279
 30
0.0
 11
189.676047
 21
6.419208
 31
0.0
  0
LINE
  5
2d6
100
AcDbEntity
  8
Layer_1
 62
7
100
AcDbLine
 10
189.676047
 20
6.419208
 30
0.0
 11
183.676070
 21
6.419208
 31
0.0
  0
LINE
  5
2d7
100
AcDbEntity
  8
Layer_1
 62
7
100
AcDbLine
 10
183.676070
 20
6.419208
 30
0.0
 11
183.676070
 21
3.418943
 31
0.0
  0
LINE
  5
2d8
100
AcDbEntity
  8
Layer_1
 62
7
100
AcDbLine
 10
183.676070
 20
3.418943
 30
0.0
 11
173.675921
 21
3.418943
 31
0.0
  0
LINE
  5
2d9
100
AcDbEntity
  8
Layer_1
 62
7
100
AcDbLine
 10
173.675921
 20
3.418943
 30
0.0
 11
173.675921
 21
6.419208
 31
0.0
  0
LINE
  5
2da
100
AcDbEntity
  8
Layer_1
 62
7
100
AcDbLine
 10
173.675921
 20
6.419208
 30
0.0
 11
167.675944
 21
6.419208
 31
0.0
  0
LINE
  5
2db
100
AcDbEntity
  8
Layer_1
 62
7
100
AcDbLine
 10
167.675944
 20
6.419208
 30
0.0
 11
167.675944
 21
11.419279
 31
0.0
  0
LINE
  5
2dc
100
AcDbEntity
  8
Layer_1
 62
7
100
AcDbLine
 10
167.675944
 20
11.419279
 30
0.0
 11
164.675679
 21
11.419279
 31
0.0
  0
LINE
  5
2dd
100
AcDbEntity
  8
Layer_1
 62
7
100
AcDbLine
 10
164.675679
 20
11.419279
 30
0.0
 11
164.675679
 21
21.419429
 31
0.0
  0
LINE
  5
2de
100
AcDbEntity
  8
Layer_1
 62
7
100
AcDbLine
 10
164.675679
 20
21.419429
 30
0.0
 11
167.675944
 21
21.419429
 31
0.0
  0
LINE
  5
2df
100
AcDbEntity
  8
Layer_1
 62
7
100
AcDbLine
 10
167.675944
 20
21.419429
 30
0.0
 11
167.675944
 21
26.418950
 31
0.0
  0
LINE
  5
2e0
100
AcDbEntity
  8
Layer_1
 62
7
100
AcDbLine
 10
167.675944
 20
26.418950
 30
0.0
 11
173.675921
 21
26.418950
 31
0.0
  0
LINE
  5
2e1
100
AcDbEntity
  8
Layer_1
 62
7
100
AcDbLine
 10
173.675921
 20
26.418950
 30
0.0
 11
173.675921
 21
29.419215
 31
0.0
  0
LINE
  5
2e2
100
AcDbEntity
  8
Layer_1
 62
7
100
AcDbLine
 10
173.675921
 20
29.419215
 30
0.0
 11
183.676070
 21
29.419215
 31
0.0
  0
LINE
  5
2e3
100
AcDbEntity
  8
Layer_1
 62
7
100
AcDbLine
 10
183.676070
 20
29.419215
 30
0.0
 11
183.676070
 21
29.419215
 31
0.0
  0
SPLINE
  5
2e4
100
AcDbEntity
  8
Layer_1
 62
1
100
AcDbSpline
 70
8
 71
3
 72
8
 73
4
 74
0
 40
0
 40
0
 40
0
 40
0
 40
1
 40
1
 40
1
 40
1
 10
171.175917
 20
16.419190
 30
0.0
 10
171.175917
 20
19.098682
 30
0.0
 10
172.605409
 20
21.574635
 30
0.0
 10
174.925917
 20
22.914381
 30
0.0
  0
SPLINE
  5
2e5
100
AcDbEntity
  8
Layer_1
 62
1
100
AcDbSpline
 70
8
 71
3
 72
8
 73
4
 74
0
 40
0
 40
0
 40
0
 40
0
 40
1
 40
1
 40
1
 40
1
 10
174.925917
 20
22.914381
 30
0.0
 10
177.246425
 20
24.254127
 30
0.0
 10
180.105409
 20
24.254127
 30
0.0
 10
182.425917
 20
22.914381
 30
0.0
  0
SPLINE
  5
2e6
100
AcDbEntity
  8
Layer_1
 62
1
100
AcDbSpline
 70
8
 71
3
 72
8
 73
4
 74
0
 40
0
 40
0
 40
0
 40
0
 40
1
 40
1
 40
1
 40
1
 10
182.425917
 20
22.914381
 30
0.0
 10
184.746425
 20
21.574635
 30
0.0
 10
186.175917
 20
19.098682
 30
0.0
 10
186.175917
 20
16.419190
 30
0.0
  0
SPLINE
  5
2e7
100
AcDbEntity
  8
Layer_1
 62
1
100
AcDbSpline
 70
8
 71
3
 72
8
 73
4
 74
0
 40
0
 40
0
 40
0
 40
0
 40
1
 40
1
 40
1
 40
1
 10
186.175917
 20
16.419190
 30
0.0
 10
186.175917
 20
13.739698
 30
0.0
 10
184.746425
 20
11.263746
 30
0.0
 10
182.425917
 20
9.924000
 30
0.0
  0
SPLINE
  5
2e8
100
AcDbEntity
  8
Layer_1
 62
1
100
AcDbSpline
 70
8
 71
3
 72
8
 73
4
 74
0
 40
0
 40
0
 40
0
 40
0
 40
1
 40
1
 40
1
 40
1
 10
182.425917
 20
9.924000
 30
0.0
 10
180.105409
 20
8.584254
 30
0.0
 10
177.246425
 20
8.584254
 30
0.0
 10
174.925917
 20
9.924000
 30
0.0
  0
SPLINE
  5
2e9
100
AcDbEntity
  8
Layer_1
 62
1
100
AcDbSpline
 70
8
 71
3
 72
8
 73
4
 74
0
 40
0
 40
0
 40
0
 40
0
 40
1
 40
1
 40
1
 40
1
 10
174.925917
 20
9.924000
 30
0.0
 10
172.605409
 20
11.263746
 30
0.0
 10
171.175917
 20
13.739698
 30
0.0
 10
171.175917
 20
16.419190
 30
0.0
  0
LINE
  5
2ea
100
AcDbEntity
  8
Layer_1
 62
1
100
AcDbLine
 10
171.175917
 20
16.419190
 30
0.0
 11
171.175917
 21
16.419190
 31
0.0
  0
LINE
  5
2eb
100
AcDbEntity
  8
Layer_1
 62
7
100
AcDbLine
 10
183.048230
 20
56.733015
 30
0.0
 11
183.048230
 21
53.732767
 31
0.0
  0
LINE
  5
2ec
100
AcDbEntity
  8
Layer_1
 62
7
100
AcDbLine
 10
183.048230
 20
53.732767
 30
0.0
 11
189.048209
 21
53.732767
 31
0.0
  0
LINE
  5
2ed
100
AcDbEntity
  8
Layer_1
 62
7
100
AcDbLine
 10
189.048209
 20
53.732767
 30
0.0
 11
189.048209
 21
48.732693
 31
0.0
  0
LINE
  5
2ee
100
AcDbEntity
  8
Layer_1
 62
7
100
AcDbLine
 10
189.048209
 20
48.732693
 30
0.0
 11
192.048474
 21
48.732693
 31
0.0
  0
LINE
  5
2ef
100
AcDbEntity
  8
Layer_1
 62
7
100
AcDbLine
 10
192.048474
 20
48.732693
 30
0.0
 11
192.048474
 21
38.733079
 31
0.0
  0
LINE
  5
2f0
100
AcDbEntity
  8
Layer_1
 62
7
100
AcDbLine
 10
192.048474
 20
38.733079
 30
0.0
 11
189.048209
 21
38.733079
 31
0.0
  0
LINE
  5
2f1
100
AcDbEntity
  8
Layer_1
 62
7
100
AcDbLine
 10
189.048209
 20
38.733079
 30
0.0
 11
189.048209
 21
33.733005
 31
0.0
  0
LINE
  5
2f2
100
AcDbEntity
  8
Layer_1
 62
7
100
AcDbLine
 10
189.048209
 20
33.733005
 30
0.0
 11
183.048230
 21
33.733005
 31
0.0
  0
LINE
  5
2f3
100
AcDbEntity
  8
Layer_1
 62
7
100
AcDbLine
 10
183.048230
 20
33.733005
 30
0.0
 11
183.048230
 21
30.732757
 31
0.0
  0
LINE
  5
2f4
100
AcDbEntity
  8
Layer_1
 62
7
100
AcDbLine
 10
183.048230
 20
30.732757
 30
0.0
 11
173.048083
 21
30.732757
 31
0.0
  0
LINE
  5
2f5
100
AcDbEntity
  8
Layer_1
 62
7
100
AcDbLine
 10
173.048083
 20
30.732757
 30
0.0
 11
173.048083
 21
33.733005
 31
0.0
  0
LINE
  5
2f6
100
AcDbEntity
  8
Layer_1
 62
7
100
AcDbLine
 10
173.048083
 20
33.733005
 30
0.0
 11
167.048104
 21
33.733005
 31
0.0
  0
LINE
  5
2f7
100
AcDbEntity
  8
Layer_1
 62
7
100
AcDbLine
 10
167.048104
 20
33.733005
 30
0.0
 11
167.048104
 21
38.733079
 31
0.0
  0
LINE
  5
2f8
100
AcDbEntity
  8
Layer_1
 62
7
100
AcDbLine
 10
167.048104
 20
38.733079
 30
0.0
 11
164.048392
 21
38.733079
 31
0.0
  0
LINE
  5
2f9
100
AcDbEntity
  8
Layer_1
 62
7
100
AcDbLine
 10
164.048392
 20
38.733079
 30
0.0
 11
164.048392
 21
48.732693
 31
0.0
  0
LINE
  5
2fa
100
AcDbEntity
  8
Layer_1
 62
7
100
AcDbLine
 10
164.048392
 20
48.732693
 30
0.0
 11
167.048104
 21
48.732693
 31
0.0
  0
LINE
  5
2fb
100
AcDbEntity
  8
Layer_1
 62
7
100
AcDbLine
 10
167.048104
 20
48.732693
 30
0.0
 11
167.048104
 21
53.732767
 31
0.0
  0
LINE
  5
2fc
100
AcDbEntity
  8
Layer_1
 62
7
100
AcDbLine
 10
167.048104
 20
53.732767
 30
0.0
 11
173.048083
 21
53.732767
 31
0.0
  0
LINE
  5
2fd
100
AcDbEntity
  8
Layer_1
 62
7
100
AcDbLine
 10
173.048083
 20
53.732767
 30
0.0
 11
173.048083
 21
56.733015
 31
0.0
  0
LINE
  5
2fe
100
AcDbEntity
  8
Layer_1
 62
7
100
AcDbLine
 10
173.048083
 20
56.733015
 30
0.0
 11
183.048230
 21
56.733015
 31
0.0
  0
LINE
  5
2ff
100
AcDbEntity
  8
Layer_1
 62
7
100
AcDbLine
 10
183.048230
 20
56.733015
 30
0.0
 11
183.048230
 21
56.733015
 31
0.0
  0
SPLINE
  5
300
100
AcDbEntity
  8
Layer_1
 62
1
100
AcDbSpline
 70
8
 71
3
 72
8
 73
4
 74
0
 40
0
 40
0
 40
0
 40
0
 40
1
 40
1
 40
1
 40
1
 10
172.048314
 20
43.732928
 30
0.0
 10
172.048314
 20
45.876522
 30
0.0
 10
173.191908
 20
47.857284
 30
0.0
 10
175.048314
 20
48.929081
 30
0.0
  0
SPLINE
  5
301
100
AcDbEntity
  8
Layer_1
 62
1
100
AcDbSpline
 70
8
 71
3
 72
8
 73
4
 74
0
 40
0
 40
0
 40
0
 40
0
 40
1
 40
1
 40
1
 40
1
 10
175.048314
 20
48.929081
 30
0.0
 10
176.904721
 20
50.000878
 30
0.0
 10
179.191908
 20
50.000878
 30
0.0
 10
181.048315
 20
48.929081
 30
0.0
  0
SPLINE
  5
302
100
AcDbEntity
  8
Layer_1
 62
1
100
AcDbSpline
 70
8
 71
3
 72
8
 73
4
 74
0
 40
0
 40
0
 40
0
 40
0
 40
1
 40
1
 40
1
 40
1
 10
181.048315
 20
48.929081
 30
0.0
 10
182.904722
 20
47.857284
 30
0.0
 10
184.048315
 20
45.876522
 30
0.0
 10
184.048315
 20
43.732928
 30
0.0
  0
SPLINE
  5
303
100
AcDbEntity
  8
Layer_1
 62
1
100
AcDbSpline
 70
8
 71
3
 72
8
 73
4
 74
0
 40
0
 40
0
 40
0
 40
0
 40
1
 40
1
 40
1
 40
1
 10
184.048315
 20
43.732928
 30
0.0
 10
184.048315
 20
41.589334
 30
0.0
 10
182.904722
 20
39.608572
 30
0.0
 10
181.048315
 20
38.536775
 30
0.0
  0
SPLINE
  5
304
100
AcDbEntity
  8
Layer_1
 62
1
100
AcDbSpline
 70
8
 71
3
 72
8
 73
4
 74
0
 40
0
 40
0
 40
0
 40
0
 40
1
 40
1
 40
1
 40
1
 10
181.048315
 20
38.536775
 30
0.0
 10
179.191908
 20
37.464978
 30
0.0
 10
176.904721
 20
37.464978
 30
0.0
 10
175.048314
 20
38.536775
 30
0.0
  0
SPLINE
  5
305
100
AcDbEntity
  8
Layer_1
 62
1
100
AcDbSpline
 70
8
 71
3
 72
8
 73
4
 74
0
 40
0
 40
0
 40
0
 40
0
 40
1
 40
1
 40
1
 40
1
 10
175.048314
 20
38.536775
 30
0.0
 10
173.191907
 20
39.608572
 30
0.0
 10
172.048314
 20
41.589334
 30
0.0
 10
172.048314
 20
43.732928
 30
0.0
  0
LINE
  5
306
100
AcDbEntity
  8
Layer_1
 62
1
100
AcDbLine
 10
172.048314
 20
43.732928
 30
0.0
 11
172.048314
 21
43.732928
 31
0.0
  0
LINE
  5
307
100
AcDbEntity
  8
Layer_1
 62
7
100
AcDbLine
 10
171.372200
 20
59.311268
 30
0.0
 11
221.372199
 21
59.311268
 31
0.0
  0
LINE
  5
308
100
AcDbEntity
  8
Layer_1
 62
7
100
AcDbLine
 10
221.372199
 20
59.311268
 30
0.0
 11
221.372199
 21
111.311265
 31
0.0
  0
LINE
  5
309
100
AcDbEntity
  8
Layer_1
 62
7
100
AcDbLine
 10
221.372199
 20
111.311265
 30
0.0
 11
171.372200
 21
111.311265
 31
0.0
  0
LINE
  5
30a
100
AcDbEntity
  8
Layer_1
 62
7
100
AcDbLine
 10
171.372200
 20
111.311265
 30
0.0
 11
171.372200
 21
59.311268
 31
0.0
  0
LINE
  5
30b
100
AcDbEntity
  8
Layer_1
 62
7
100
AcDbLine
 10
171.372200
 20
59.311268
 30
0.0
 11
171.372200
 21
59.311268
 31
0.0
  0
LINE
  5
30c
100
AcDbEntity
  8
Layer_1
 62
1
100
AcDbLine
 10
191.372199
 20
62.311262
 30
0.0
 11
201.372199
 21
62.311262
 31
0.0
  0
LINE
  5
30d
100
AcDbEntity
  8
Layer_1
 62
1
100
AcDbLine
 10
201.372199
 20
62.311262
 30
0.0
 11
201.372199
 21
65.311256
 31
0.0
  0
LINE
  5
30e
100
AcDbEntity
  8
Layer_1
 62
1
100
AcDbLine
 10
201.372199
 20
65.311256
 30
0.0
 11
191.372199
 21
65.311256
 31
0.0
  0
LINE
  5
30f
100
AcDbEntity
  8
Layer_1
 62
1
100
AcDbLine
 10
191.372199
 20
65.311256
 30
0.0
 11
191.372199
 21
62.311262
 31
0.0
  0
LINE
  5
310
100
AcDbEntity
  8
Layer_1
 62
1
100
AcDbLine
 10
191.372199
 20
62.311262
 30
0.0
 11
191.372199
 21
62.311262
 31
0.0
  0
LINE
  5
311
100
AcDbEntity
  8
Layer_1
 62
1
100
AcDbLine
 10
191.372199
 20
77.311265
 30
0.0
 11
201.372199
 21
77.311265
 31
0.0
  0
LINE
  5
312
100
AcDbEntity
  8
Layer_1
 62
1
100
AcDbLine
 10
201.372199
 20
77.311265
 30
0.0
 11
201.372199
 21
83.311265
 31
0.0
  0
LINE
  5
313
100
AcDbEntity
  8
Layer_1
 62
1
100
AcDbLine
 10
201.372199
 20
83.311265
 30
0.0
 11
191.372199
 21
83.311265
 31
0.0
  0
LINE
  5
314
100
AcDbEntity
  8
Layer_1
 62
1
100
AcDbLine
 10
191.372199
 20
83.311265
 30
0.0
 11
191.372199
 21
77.311265
 31
0.0
  0
LINE
  5
315
100
AcDbEntity
  8
Layer_1
 62
1
100
AcDbLine
 10
191.372199
 20
77.311265
 30
0.0
 11
191.372199
 21
77.311265
 31
0.0
  0
LINE
  5
316
100
AcDbEntity
  8
Layer_1
 62
1
100
AcDbLine
 10
205.372199
 20
99.311267
 30
0.0
 11
211.372199
 21
99.311267
 31
0.0
  0
LINE
  5
317
100
AcDbEntity
  8
Layer_1
 62
1
100
AcDbLine
 10
211.372199
 20
99.311267
 30
0.0
 11
211.372199
 21
89.311267
 31
0.0
  0
LINE
  5
318
100
AcDbEntity
  8
Layer_1
 62
1
100
AcDbLine
 10
211.372199
 20
89.311267
 30
0.0
 11
205.372199
 21
89.311267
 31
0.0
  0
LINE
  5
319
100
AcDbEntity
  8
Layer_1
 62
1
100
AcDbLine
 10
205.372199
 20
89.311267
 30
0.0
 11
205.372199
 21
99.311267
 31
0.0
  0
LINE
  5
31a
100
AcDbEntity
  8
Layer_1
 62
1
100
AcDbLine
 10
205.372199
 20
99.311267
 30
0.0
 11
205.372199
 21
99.311267
 31
0.0
  0
LINE
  5
31b
100
AcDbEntity
  8
Layer_1
 62
1
100
AcDbLine
 10
191.372199
 20
108.311266
 30
0.0
 11
201.372199
 21
108.311266
 31
0.0
  0
LINE
  5
31c
100
AcDbEntity
  8
Layer_1
 62
1
100
AcDbLine
 10
201.372199
 20
108.311266
 30
0.0
 11
201.372199
 21
105.311266
 31
0.0
  0
LINE
  5
31d
100
AcDbEntity
  8
Layer_1
 62
1
100
AcDbLine
 10
201.372199
 20
105.311266
 30
0.0
 11
191.372199
 21
105.311266
 31
0.0
  0
LINE
  5
31e
100
AcDbEntity
  8
Layer_1
 62
1
100
AcDbLine
 10
191.372199
 20
105.311266
 30
0.0
 11
191.372199
 21
108.311266
 31
0.0
  0
LINE
  5
31f
100
AcDbEntity
  8
Layer_1
 62
1
100
AcDbLine
 10
191.372199
 20
108.311266
 30
0.0
 11
191.372199
 21
108.311266
 31
0.0
  0
LINE
  5
320
100
AcDbEntity
  8
Layer_1
 62
1
100
AcDbLine
 10
181.372200
 20
99.311267
 30
0.0
 11
181.372200
 21
89.311267
 31
0.0
  0
LINE
  5
321
100
AcDbEntity
  8
Layer_1
 62
1
100
AcDbLine
 10
181.372200
 20
89.311267
 30
0.0
 11
187.372199
 21
89.311267
 31
0.0
  0
LINE
  5
322
100
AcDbEntity
  8
Layer_1
 62
1
100
AcDbLine
 10
187.372199
 20
89.311267
 30
0.0
 11
187.372199
 21
99.311267
 31
0.0
  0
LINE
  5
323
100
AcDbEntity
  8
Layer_1
 62
1
100
AcDbLine
 10
187.372199
 20
99.311267
 30
0.0
 11
181.372200
 21
99.311267
 31
0.0
  0
LINE
  5
324
100
AcDbEntity
  8
Layer_1
 62
1
100
AcDbLine
 10
181.372200
 20
99.311267
 30
0.0
 11
181.372200
 21
99.311267
 31
0.0
  0
SPLINE
  5
325
100
AcDbEntity
  8
Layer_1
 62
1
100
AcDbSpline
 70
8
 71
3
 72
8
 73
4
 74
0
 40
0
 40
0
 40
0
 40
0
 40
1
 40
1
 40
1
 40
1
 10
193.472198
 20
71.311272
 30
0.0
 10
193.471875
 20
72.347557
 30
0.0
 10
194.024541
 20
73.305263
 30
0.0
 10
194.921937
 20
73.823499
 30
0.0
  0
SPLINE
  5
326
100
AcDbEntity
  8
Layer_1
 62
1
100
AcDbSpline
 70
8
 71
3
 72
8
 73
4
 74
0
 40
0
 40
0
 40
0
 40
0
 40
1
 40
1
 40
1
 40
1
 10
194.921937
 20
73.823499
 30
0.0
 10
195.819333
 20
74.341736
 30
0.0
 10
196.925064
 20
74.341736
 30
0.0
 10
197.822460
 20
73.823499
 30
0.0
  0
SPLINE
  5
327
100
AcDbEntity
  8
Layer_1
 62
1
100
AcDbSpline
 70
8
 71
3
 72
8
 73
4
 74
0
 40
0
 40
0
 40
0
 40
0
 40
1
 40
1
 40
1
 40
1
 10
197.822460
 20
73.823499
 30
0.0
 10
198.719856
 20
73.305263
 30
0.0
 10
199.272522
 20
72.347557
 30
0.0
 10
199.272198
 20
71.311272
 30
0.0
  0
SPLINE
  5
328
100
AcDbEntity
  8
Layer_1
 62
1
100
AcDbSpline
 70
8
 71
3
 72
8
 73
4
 74
0
 40
0
 40
0
 40
0
 40
0
 40
1
 40
1
 40
1
 40
1
 10
199.272198
 20
71.311272
 30
0.0
 10
199.272522
 20
70.274986
 30
0.0
 10
198.719856
 20
69.317280
 30
0.0
 10
197.822460
 20
68.799044
 30
0.0
  0
SPLINE
  5
329
100
AcDbEntity
  8
Layer_1
 62
1
100
AcDbSpline
 70
8
 71
3
 72
8
 73
4
 74
0
 40
0
 40
0
 40
0
 40
0
 40
1
 40
1
 40
1
 40
1
 10
197.822460
 20
68.799044
 30
0.0
 10
196.925064
 20
68.280808
 30
0.0
 10
195.819333
 20
68.280808
 30
0.0
 10
194.921937
 20
68.799044
 30
0.0
  0
SPLINE
  5
32a
100
AcDbEntity
  8
Layer_1
 62
1
100
AcDbSpline
 70
8
 71
3
 72
8
 73
4
 74
0
 40
0
 40
0
 40
0
 40
0
 40
1
 40
1
 40
1
 40
1
 10
194.921937
 20
68.799044
 30
0.0
 10
194.024541
 20
69.317280
 30
0.0
 10
193.471875
 20
70.274986
 30
0.0
 10
193.472198
 20
71.311272
 30
0.0
  0
LINE
  5
32b
100
AcDbEntity
  8
Layer_1
 62
1
100
AcDbLine
 10
193.472198
 20
71.311272
 30
0.0
 11
193.472198
 21
71.311272
 31
0.0
  0
SPLINE
  5
32c
100
AcDbEntity
  8
Layer_1
 62
1
100
AcDbSpline
 70
8
 71
3
 72
8
 73
4
 74
0
 40
0
 40
0
 40
0
 40
0
 40
1
 40
1
 40
1
 40
1
 10
214.872199
 20
103.311267
 30
0.0
 10
214.872199
 20
103.936482
 30
0.0
 10
215.205747
 20
104.514204
 30
0.0
 10
215.747199
 20
104.826812
 30
0.0
  0
SPLINE
  5
32d
100
AcDbEntity
  8
Layer_1
 62
1
100
AcDbSpline
 70
8
 71
3
 72
8
 73
4
 74
0
 40
0
 40
0
 40
0
 40
0
 40
1
 40
1
 40
1
 40
1
 10
215.747199
 20
104.826812
 30
0.0
 10
216.288651
 20
105.139419
 30
0.0
 10
216.955747
 20
105.139419
 30
0.0
 10
217.497199
 20
104.826812
 30
0.0
  0
SPLINE
  5
32e
100
AcDbEntity
  8
Layer_1
 62
1
100
AcDbSpline
 70
8
 71
3
 72
8
 73
4
 74
0
 40
0
 40
0
 40
0
 40
0
 40
1
 40
1
 40
1
 40
1
 10
217.497199
 20
104.826812
 30
0.0
 10
218.038651
 20
104.514204
 30
0.0
 10
218.372199
 20
103.936482
 30
0.0
 10
218.372199
 20
103.311267
 30
0.0
  0
SPLINE
  5
32f
100
AcDbEntity
  8
Layer_1
 62
1
100
AcDbSpline
 70
8
 71
3
 72
8
 73
4
 74
0
 40
0
 40
0
 40
0
 40
0
 40
1
 40
1
 40
1
 40
1
 10
218.372199
 20
103.311267
 30
0.0
 10
218.372199
 20
102.686052
 30
0.0
 10
218.038651
 20
102.108330
 30
0.0
 10
217.497199
 20
101.795723
 30
0.0
  0
SPLINE
  5
330
100
AcDbEntity
  8
Layer_1
 62
1
100
AcDbSpline
 70
8
 71
3
 72
8
 73
4
 74
0
 40
0
 40
0
 40
0
 40
0
 40
1
 40
1
 40
1
 40
1
 10
217.497199
 20
101.795723
 30
0.0
 10
216.955747
 20
101.483115
 30
0.0
 10
216.288651
 20
101.483115
 30
0.0
 10
215.747199
 20
101.795723
 30
0.0
  0
SPLINE
  5
331
100
AcDbEntity
  8
Layer_1
 62
1
100
AcDbSpline
 70
8
 71
3
 72
8
 73
4
 74
0
 40
0
 40
0
 40
0
 40
0
 40
1
 40
1
 40
1
 40
1
 10
215.747199
 20
101.795723
 30
0.0
 10
215.205747
 20
102.108330
 30
0.0
 10
214.872199
 20
102.686052
 30
0.0
 10
214.872199
 20
103.311267
 30
0.0
  0
LINE
  5
332
100
AcDbEntity
  8
Layer_1
 62
1
100
AcDbLine
 10
214.872199
 20
103.311267
 30
0.0
 11
214.872199
 21
103.311267
 31
0.0
  0
SPLINE
  5
333
100
AcDbEntity
  8
Layer_1
 62
1
100
AcDbSpline
 70
8
 71
3
 72
8
 73
4
 74
0
 40
0
 40
0
 40
0
 40
0
 40
1
 40
1
 40
1
 40
1
 10
174.372199
 20
103.311267
 30
0.0
 10
174.371638
 20
103.936856
 30
0.0
 10
174.705063
 20
104.515164
 30
0.0
 10
175.246745
 20
104.828121
 30
0.0
  0
SPLINE
  5
334
100
AcDbEntity
  8
Layer_1
 62
1
100
AcDbSpline
 70
8
 71
3
 72
8
 73
4
 74
0
 40
0
 40
0
 40
0
 40
0
 40
1
 40
1
 40
1
 40
1
 10
175.246745
 20
104.828121
 30
0.0
 10
175.788428
 20
105.141078
 30
0.0
 10
176.455970
 20
105.141078
 30
0.0
 10
176.997652
 20
104.828121
 30
0.0
  0
SPLINE
  5
335
100
AcDbEntity
  8
Layer_1
 62
1
100
AcDbSpline
 70
8
 71
3
 72
8
 73
4
 74
0
 40
0
 40
0
 40
0
 40
0
 40
1
 40
1
 40
1
 40
1
 10
176.997652
 20
104.828121
 30
0.0
 10
177.539335
 20
104.515164
 30
0.0
 10
177.872760
 20
103.936856
 30
0.0
 10
177.872198
 20
103.311267
 30
0.0
  0
SPLINE
  5
336
100
AcDbEntity
  8
Layer_1
 62
1
100
AcDbSpline
 70
8
 71
3
 72
8
 73
4
 74
0
 40
0
 40
0
 40
0
 40
0
 40
1
 40
1
 40
1
 40
1
 10
177.872198
 20
103.311267
 30
0.0
 10
177.872760
 20
102.685678
 30
0.0
 10
177.539335
 20
102.107370
 30
0.0
 10
176.997652
 20
101.794413
 30
0.0
  0
SPLINE
  5
337
100
AcDbEntity
  8
Layer_1
 62
1
100
AcDbSpline
 70
8
 71
3
 72
8
 73
4
 74
0
 40
0
 40
0
 40
0
 40
0
 40
1
 40
1
 40
1
 40
1
 10
176.997652
 20
101.794413
 30
0.0
 10
176.455970
 20
101.481456
 30
0.0
 10
175.788428
 20
101.481456
 30
0.0
 10
175.246745
 20
101.794413
 30
0.0
  0
SPLINE
  5
338
100
AcDbEntity
  8
Layer_1
 62
1
100
AcDbSpline
 70
8
 71
3
 72
8
 73
4
 74
0
 40
0
 40
0
 40
0
 40
0
 40
1
 40
1
 40
1
 40
1
 10
175.246745
 20
101.794413
 30
0.0
 10
174.705063
 20
102.107370
 30
0.0
 10
174.371638
 20
102.685678
 30
0.0
 10
174.372199
 20
103.311267
 30
0.0
  0
LINE
  5
339
100
AcDbEntity
  8
Layer_1
 62
1
100
AcDbLine
 10
174.372199
 20
103.311267
 30
0.0
 11
174.372199
 21
103.311267
 31
0.0
  0
SPLINE
  5
33a
100
AcDbEntity
  8
Layer_1
 62
1
100
AcDbSpline
 70
8
 71
3
 72
8
 73
4
 74
0
 40
0
 40
0
 40
0
 40
0
 40
1
 40
1
 40
1
 40
1
 10
214.872199
 20
71.311272
 30
0.0
 10
214.872199
 20
71.936487
 30
0.0
 10
215.205747
 20
72.514209
 30
0.0
 10
215.747199
 20
72.826816
 30
0.0
  0
SPLINE
  5
33b
100
AcDbEntity
  8
Layer_1
 62
1
100
AcDbSpline
 70
8
 71
3
 72
8
 73
4
 74
0
 40
0
 40
0
 40
0
 40
0
 40
1
 40
1
 40
1
 40
1
 10
215.747199
 20
72.826816
 30
0.0
 10
216.288651
 20
73.139424
 30
0.0
 10
216.955747
 20
73.139424
 30
0.0
 10
217.497199
 20
72.826816
 30
0.0
  0
SPLINE
  5
33c
100
AcDbEntity
  8
Layer_1
 62
1
100
AcDbSpline
 70
8
 71
3
 72
8
 73
4
 74
0
 40
0
 40
0
 40
0
 40
0
 40
1
 40
1
 40
1
 40
1
 10
217.497199
 20
72.826816
 30
0.0
 10
218.038651
 20
72.514209
 30
0.0
 10
218.372199
 20
71.936487
 30
0.0
 10
218.372199
 20
71.311272
 30
0.0
  0
SPLINE
  5
33d
100
AcDbEntity
  8
Layer_1
 62
1
100
AcDbSpline
 70
8
 71
3
 72
8
 73
4
 74
0
 40
0
 40
0
 40
0
 40
0
 40
1
 40
1
 40
1
 40
1
 10
218.372199
 20
71.311272
 30
0.0
 10
218.372199
 20
70.686057
 30
0.0
 10
218.038651
 20
70.108335
 30
0.0
 10
217.497199
 20
69.795727
 30
0.0
  0
SPLINE
  5
33e
100
AcDbEntity
  8
Layer_1
 62
1
100
AcDbSpline
 70
8
 71
3
 72
8
 73
4
 74
0
 40
0
 40
0
 40
0
 40
0
 40
1
 40
1
 40
1
 40
1
 10
217.497199
 20
69.795727
 30
0.0
 10
216.955747
 20
69.483120
 30
0.0
 10
216.288651
 20
69.483120
 30
0.0
 10
215.747199
 20
69.795727
 30
0.0
  0
SPLINE
  5
33f
100
AcDbEntity
  8
Layer_1
 62
1
100
AcDbSpline
 70
8
 71
3
 72
8
 73
4
 74
0
 40
0
 40
0
 40
0
 40
0
 40
1
 40
1
 40
1
 40
1
 10
215.747199
 20
69.795727
 30
0.0
 10
215.205747
 20
70.108335
 30
0.0
 10
214.872199
 20
70.686057
 30
0.0
 10
214.872199
 20
71.311272
 30
0.0
  0
LINE
  5
340
100
AcDbEntity
  8
Layer_1
 62
1
100
AcDbLine
 10
214.872199
 20
71.311272
 30
0.0
 11
214.872199
 21
71.311272
 31
0.0
  0
SPLINE
  5
341
100
AcDbEntity
  8
Layer_1
 62
1
100
AcDbSpline
 70
8
 71
3
 72
8
 73
4
 74
0
 40
0
 40
0
 40
0
 40
0
 40
1
 40
1
 40
1
 40
1
 10
174.372199
 20
71.311272
 30
0.0
 10
174.371638
 20
71.936861
 30
0.0
 10
174.705063
 20
72.515169
 30
0.0
 10
175.246745
 20
72.828126
 30
0.0
  0
SPLINE
  5
342
100
AcDbEntity
  8
Layer_1
 62
1
100
AcDbSpline
 70
8
 71
3
 72
8
 73
4
 74
0
 40
0
 40
0
 40
0
 40
0
 40
1
 40
1
 40
1
 40
1
 10
175.246745
 20
72.828126
 30
0.0
 10
175.788428
 20
73.141082
 30
0.0
 10
176.455970
 20
73.141082
 30
0.0
 10
176.997652
 20
72.828126
 30
0.0
  0
SPLINE
  5
343
100
AcDbEntity
  8
Layer_1
 62
1
100
AcDbSpline
 70
8
 71
3
 72
8
 73
4
 74
0
 40
0
 40
0
 40
0
 40
0
 40
1
 40
1
 40
1
 40
1
 10
176.997652
 20
72.828126
 30
0.0
 10
177.539335
 20
72.515169
 30
0.0
 10
177.872760
 20
71.936861
 30
0.0
 10
177.872198
 20
71.311272
 30
0.0
  0
SPLINE
  5
344
100
AcDbEntity
  8
Layer_1
 62
1
100
AcDbSpline
 70
8
 71
3
 72
8
 73
4
 74
0
 40
0
 40
0
 40
0
 40
0
 40
1
 40
1
 40
1
 40
1
 10
177.872198
 20
71.311272
 30
0.0
 10
177.872760
 20
70.685683
 30
0.0
 10
177.539335
 20
70.107375
 30
0.0
 10
176.997652
 20
69.794418
 30
0.0
  0
SPLINE
  5
345
100
AcDbEntity
  8
Layer_1
 62
1
100
AcDbSpline
 70
8
 71
3
 72
8
 73
4
 74
0
 40
0
 40
0
 40
0
 40
0
 40
1
 40
1
 40
1
 40
1
 10
176.997652
 20
69.794418
 30
0.0
 10
176.455970
 20
69.481461
 30
0.0
 10
175.788428
 20
69.481461
 30
0.0
 10
175.246745
 20
69.794418
 30
0.0
  0
SPLINE
  5
346
100
AcDbEntity
  8
Layer_1
 62
1
100
AcDbSpline
 70
8
 71
3
 72
8
 73
4
 74
0
 40
0
 40
0
 40
0
 40
0
 40
1
 40
1
 40
1
 40
1
 10
175.246745
 20
69.794418
 30
0.0
 10
174.705063
 20
70.107375
 30
0.0
 10
174.371638
 20
70.685683
 30
0.0
 10
174.372199
 20
71.311272
 30
0.0
  0
LINE
  5
347
100
AcDbEntity
  8
Layer_1
 62
1
100
AcDbLine
 10
174.372199
 20
71.311272
 30
0.0
 11
174.372199
 21
71.311272
 31
0.0
  0
LINE
  5
348
100
AcDbEntity
  8
Layer_1
 62
7
100
AcDbLine
 10
143.794246
 20
87.104139
 30
0.0
 11
146.794511
 21
87.104139
 31
0.0
  0
LINE
  5
349
100
AcDbEntity
  8
Layer_1
 62
7
100
AcDbLine
 10
146.794511
 20
87.104139
 30
0.0
 11
146.794511
 21
107.103882
 31
0.0
  0
LINE
  5
34a
100
AcDbEntity
  8
Layer_1
 62
7
100
AcDbLine
 10
146.794511
 20
107.103882
 30
0.0
 11
166.794253
 21
107.103882
 31
0.0
  0
LINE
  5
34b
100
AcDbEntity
  8
Layer_1
 62
7
100
AcDbLine
 10
166.794253
 20
107.103882
 30
0.0
 11
166.794253
 21
87.104139
 31
0.0
  0
LINE
  5
34c
100
AcDbEntity
  8
Layer_1
 62
7
100
AcDbLine
 10
166.794253
 20
87.104139
 30
0.0
 11
169.794518
 21
87.104139
 31
0.0
  0
LINE
  5
34d
100
AcDbEntity
  8
Layer_1
 62
7
100
AcDbLine
 10
169.794518
 20
87.104139
 30
0.0
 11
169.794518
 21
77.103990
 31
0.0
  0
LINE
  5
34e
100
AcDbEntity
  8
Layer_1
 62
7
100
AcDbLine
 10
169.794518
 20
77.103990
 30
0.0
 11
166.794253
 21
77.103990
 31
0.0
  0
LINE
  5
34f
100
AcDbEntity
  8
Layer_1
 62
7
100
AcDbLine
 10
166.794253
 20
77.103990
 30
0.0
 11
166.794253
 21
57.104247
 31
0.0
  0
LINE
  5
350
100
AcDbEntity
  8
Layer_1
 62
7
100
AcDbLine
 10
166.794253
 20
57.104247
 30
0.0
 11
146.794511
 21
57.104247
 31
0.0
  0
LINE
  5
351
100
AcDbEntity
  8
Layer_1
 62
7
100
AcDbLine
 10
146.794511
 20
57.104247
 30
0.0
 11
146.794511
 21
77.103990
 31
0.0
  0
LINE
  5
352
100
AcDbEntity
  8
Layer_1
 62
7
100
AcDbLine
 10
146.794511
 20
77.103990
 30
0.0
 11
143.794246
 21
77.103990
 31
0.0
  0
LINE
  5
353
100
AcDbEntity
  8
Layer_1
 62
7
100
AcDbLine
 10
143.794246
 20
77.103990
 30
0.0
 11
143.794246
 21
87.104139
 31
0.0
  0
LINE
  5
354
100
AcDbEntity
  8
Layer_1
 62
7
100
AcDbLine
 10
143.794246
 20
87.104139
 30
0.0
 11
143.794246
 21
87.104139
 31
0.0
  0
LINE
  5
355
100
AcDbEntity
  8
Layer_1
 62
1
100
AcDbLine
 10
151.794357
 20
91.103987
 30
0.0
 11
151.794357
 21
97.103987
 31
0.0
  0
LINE
  5
356
100
AcDbEntity
  8
Layer_1
 62
1
100
AcDbLine
 10
151.794357
 20
97.103987
 30
0.0
 11
161.794365
 21
97.103987
 31
0.0
  0
LINE
  5
357
100
AcDbEntity
  8
Layer_1
 62
1
100
AcDbLine
 10
161.794365
 20
97.103987
 30
0.0
 11
161.794365
 21
91.103987
 31
0.0
  0
LINE
  5
358
100
AcDbEntity
  8
Layer_1
 62
1
100
AcDbLine
 10
161.794365
 20
91.103987
 30
0.0
 11
151.794357
 21
91.103987
 31
0.0
  0
LINE
  5
359
100
AcDbEntity
  8
Layer_1
 62
1
100
AcDbLine
 10
151.794357
 20
91.103987
 30
0.0
 11
151.794357
 21
91.103987
 31
0.0
  0
LINE
  5
35a
100
AcDbEntity
  8
Layer_1
 62
1
100
AcDbLine
 10
151.794357
 20
67.103988
 30
0.0
 11
161.794365
 21
67.103988
 31
0.0
  0
LINE
  5
35b
100
AcDbEntity
  8
Layer_1
 62
1
100
AcDbLine
 10
161.794365
 20
67.103988
 30
0.0
 11
161.794365
 21
73.103987
 31
0.0
  0
LINE
  5
35c
100
AcDbEntity
  8
Layer_1
 62
1
100
AcDbLine
 10
161.794365
 20
73.103987
 30
0.0
 11
151.794357
 21
73.103987
 31
0.0
  0
LINE
  5
35d
100
AcDbEntity
  8
Layer_1
 62
1
100
AcDbLine
 10
151.794357
 20
73.103987
 30
0.0
 11
151.794357
 21
67.103988
 31
0.0
  0
LINE
  5
35e
100
AcDbEntity
  8
Layer_1
 62
1
100
AcDbLine
 10
151.794357
 20
67.103988
 30
0.0
 11
151.794357
 21
67.103988
 31
0.0
  0
LINE
  5
35f
100
AcDbEntity
  8
Layer_1
 62
7
100
AcDbLine
 10
139.862554
 20
34.821798
 30
0.0
 11
142.862266
 21
34.821798
 31
0.0
  0
LINE
  5
360
100
AcDbEntity
  8
Layer_1
 62
7
100
AcDbLine
 10
142.862266
 20
34.821798
 30
0.0
 11
142.862266
 21
54.821541
 31
0.0
  0
LINE
  5
361
100
AcDbEntity
  8
Layer_1
 62
7
100
AcDbLine
 10
142.862266
 20
54.821541
 30
0.0
 11
162.862562
 21
54.821541
 31
0.0
  0
LINE
  5
362
100
AcDbEntity
  8
Layer_1
 62
7
100
AcDbLine
 10
162.862562
 20
54.821541
 30
0.0
 11
162.862562
 21
34.821798
 31
0.0
  0
LINE
  5
363
100
AcDbEntity
  8
Layer_1
 62
7
100
AcDbLine
 10
162.862562
 20
34.821798
 30
0.0
 11
165.862277
 21
34.821798
 31
0.0
  0
LINE
  5
364
100
AcDbEntity
  8
Layer_1
 62
7
100
AcDbLine
 10
165.862277
 20
34.821798
 30
0.0
 11
165.862277
 21
24.821649
 31
0.0
  0
LINE
  5
365
100
AcDbEntity
  8
Layer_1
 62
7
100
AcDbLine
 10
165.862277
 20
24.821649
 30
0.0
 11
162.862562
 21
24.821649
 31
0.0
  0
LINE
  5
366
100
AcDbEntity
  8
Layer_1
 62
7
100
AcDbLine
 10
162.862562
 20
24.821649
 30
0.0
 11
162.862562
 21
4.821906
 31
0.0
  0
LINE
  5
367
100
AcDbEntity
  8
Layer_1
 62
7
100
AcDbLine
 10
162.862562
 20
4.821906
 30
0.0
 11
142.862266
 21
4.821906
 31
0.0
  0
LINE
  5
368
100
AcDbEntity
  8
Layer_1
 62
7
100
AcDbLine
 10
142.862266
 20
4.821906
 30
0.0
 11
142.862266
 21
24.821649
 31
0.0
  0
LINE
  5
369
100
AcDbEntity
  8
Layer_1
 62
7
100
AcDbLine
 10
142.862266
 20
24.821649
 30
0.0
 11
139.862554
 21
24.821649
 31
0.0
  0
LINE
  5
36a
100
AcDbEntity
  8
Layer_1
 62
7
100
AcDbLine
 10
139.862554
 20
24.821649
 30
0.0
 11
139.862554
 21
34.821798
 31
0.0
  0
LINE
  5
36b
100
AcDbEntity
  8
Layer_1
 62
7
100
AcDbLine
 10
139.862554
 20
34.821798
 30
0.0
 11
139.862554
 21
34.821798
 31
0.0
  0
SPLINE
  5
36c
100
AcDbEntity
  8
Layer_1
 62
1
100
AcDbSpline
 70
8
 71
3
 72
8
 73
4
 74
0
 40
0
 40
0
 40
0
 40
0
 40
1
 40
1
 40
1
 40
1
 10
152.862342
 20
36.771724
 30
0.0
 10
151.415162
 20
36.771342
 30
0.0
 10
150.077749
 20
37.543184
 30
0.0
 10
149.354048
 20
38.796416
 30
0.0
  0
SPLINE
  5
36d
100
AcDbEntity
  8
Layer_1
 62
1
100
AcDbSpline
 70
8
 71
3
 72
8
 73
4
 74
0
 40
0
 40
0
 40
0
 40
0
 40
1
 40
1
 40
1
 40
1
 10
149.354048
 20
38.796416
 30
0.0
 10
148.630348
 20
40.049647
 30
0.0
 10
148.630348
 20
41.593802
 30
0.0
 10
149.354048
 20
42.847033
 30
0.0
  0
SPLINE
  5
36e
100
AcDbEntity
  8
Layer_1
 62
1
100
AcDbSpline
 70
8
 71
3
 72
8
 73
4
 74
0
 40
0
 40
0
 40
0
 40
0
 40
1
 40
1
 40
1
 40
1
 10
149.354048
 20
42.847033
 30
0.0
 10
150.077749
 20
44.100264
 30
0.0
 10
151.415162
 20
44.872106
 30
0.0
 10
152.862342
 20
44.871724
 30
0.0
  0
SPLINE
  5
36f
100
AcDbEntity
  8
Layer_1
 62
1
100
AcDbSpline
 70
8
 71
3
 72
8
 73
4
 74
0
 40
0
 40
0
 40
0
 40
0
 40
1
 40
1
 40
1
 40
1
 10
152.862342
 20
44.871724
 30
0.0
 10
154.309522
 20
44.872106
 30
0.0
 10
155.646936
 20
44.100264
 30
0.0
 10
156.370636
 20
42.847033
 30
0.0
  0
SPLINE
  5
370
100
AcDbEntity
  8
Layer_1
 62
1
100
AcDbSpline
 70
8
 71
3
 72
8
 73
4
 74
0
 40
0
 40
0
 40
0
 40
0
 40
1
 40
1
 40
1
 40
1
 10
156.370636
 20
42.847033
 30
0.0
 10
157.094336
 20
41.593802
 30
0.0
 10
157.094336
 20
40.049647
 30
0.0
 10
156.370636
 20
38.796416
 30
0.0
  0
SPLINE
  5
371
100
AcDbEntity
  8
Layer_1
 62
1
100
AcDbSpline
 70
8
 71
3
 72
8
 73
4
 74
0
 40
0
 40
0
 40
0
 40
0
 40
1
 40
1
 40
1
 40
1
 10
156.370636
 20
38.796416
 30
0.0
 10
155.646936
 20
37.543184
 30
0.0
 10
154.309522
 20
36.771342
 30
0.0
 10
152.862342
 20
36.771724
 30
0.0
  0
LINE
  5
372
100
AcDbEntity
  8
Layer_1
 62
1
100
AcDbLine
 10
152.862342
 20
36.771724
 30
0.0
 11
152.862342
 21
36.771724
 31
0.0
  0
SPLINE
  5
373
100
AcDbEntity
  8
Layer_1
 62
1
100
AcDbSpline
 70
8
 71
3
 72
8
 73
4
 74
0
 40
0
 40
0
 40
0
 40
0
 40
1
 40
1
 40
1
 40
1
 10
152.862342
 20
14.771724
 30
0.0
 10
151.415416
 20
14.771724
 30
0.0
 10
150.078402
 20
15.543650
 30
0.0
 10
149.354939
 20
16.796724
 30
0.0
  0
SPLINE
  5
374
100
AcDbEntity
  8
Layer_1
 62
1
100
AcDbSpline
 70
8
 71
3
 72
8
 73
4
 74
0
 40
0
 40
0
 40
0
 40
0
 40
1
 40
1
 40
1
 40
1
 10
149.354939
 20
16.796724
 30
0.0
 10
148.631476
 20
18.049799
 30
0.0
 10
148.631476
 20
19.593650
 30
0.0
 10
149.354939
 20
20.846725
 30
0.0
  0
SPLINE
  5
375
100
AcDbEntity
  8
Layer_1
 62
1
100
AcDbSpline
 70
8
 71
3
 72
8
 73
4
 74
0
 40
0
 40
0
 40
0
 40
0
 40
1
 40
1
 40
1
 40
1
 10
149.354939
 20
20.846725
 30
0.0
 10
150.078402
 20
22.099799
 30
0.0
 10
151.415416
 20
22.871725
 30
0.0
 10
152.862342
 20
22.871725
 30
0.0
  0
SPLINE
  5
376
100
AcDbEntity
  8
Layer_1
 62
1
100
AcDbSpline
 70
8
 71
3
 72
8
 73
4
 74
0
 40
0
 40
0
 40
0
 40
0
 40
1
 40
1
 40
1
 40
1
 10
152.862342
 20
22.871725
 30
0.0
 10
154.309268
 20
22.871725
 30
0.0
 10
155.646282
 20
22.099799
 30
0.0
 10
156.369745
 20
20.846725
 30
0.0
  0
SPLINE
  5
377
100
AcDbEntity
  8
Layer_1
 62
1
100
AcDbSpline
 70
8
 71
3
 72
8
 73
4
 74
0
 40
0
 40
0
 40
0
 40
0
 40
1
 40
1
 40
1
 40
1
 10
156.369745
 20
20.846725
 30
0.0
 10
157.093208
 20
19.593650
 30
0.0
 10
157.093208
 20
18.049799
 30
0.0
 10
156.369745
 20
16.796724
 30
0.0
  0
SPLINE
  5
378
100
AcDbEntity
  8
Layer_1
 62
1
100
AcDbSpline
 70
8
 71
3
 72
8
 73
4
 74
0
 40
0
 40
0
 40
0
 40
0
 40
1
 40
1
 40
1
 40
1
 10
156.369745
 20
16.796724
 30
0.0
 10
155.646282
 20
15.543650
 30
0.0
 10
154.309268
 20
14.771724
 30
0.0
 10
152.862342
 20
14.771724
 30
0.0
  0
LINE
  5
379
100
AcDbEntity
  8
Layer_1
 62
1
100
AcDbLine
 10
152.862342
 20
14.771724
 30
0.0
 11
152.862342
 21
14.771724
 31
0.0
  0
LINE
  5
37a
100
AcDbEntity
  8
Layer_1
 62
7
100
AcDbLine
 10
223.514310
 20
4.896108
 30
0.0
 11
273.514309
 21
4.896108
 31
0.0
  0
LINE
  5
37b
100
AcDbEntity
  8
Layer_1
 62
7
100
AcDbLine
 10
273.514309
 20
4.896108
 30
0.0
 11
273.514309
 21
134.896108
 31
0.0
  0
LINE
  5
37c
100
AcDbEntity
  8
Layer_1
 62
7
100
AcDbLine
 10
273.514309
 20
134.896108
 30
0.0
 11
223.514310
 21
134.896108
 31
0.0
  0
LINE
  5
37d
100
AcDbEntity
  8
Layer_1
 62
7
100
AcDbLine
 10
223.514310
 20
134.896108
 30
0.0
 11
223.514310
 21
4.896108
 31
0.0
  0
LINE
  5
37e
100
AcDbEntity
  8
Layer_1
 62
7
100
AcDbLine
 10
223.514310
 20
4.896108
 30
0.0
 11
223.514310
 21
4.896108
 31
0.0
  0
SPLINE
  5
37f
100
AcDbEntity
  8
Layer_1
 62
1
100
AcDbSpline
 70
8
 71
3
 72
8
 73
4
 74
0
 40
0
 40
0
 40
0
 40
0
 40
1
 40
1
 40
1
 40
1
 10
237.014309
 20
109.896107
 30
0.0
 10
237.014309
 20
114.004661
 30
0.0
 10
239.206196
 20
117.801122
 30
0.0
 10
242.764309
 20
119.855399
 30
0.0
  0
SPLINE
  5
380
100
AcDbEntity
  8
Layer_1
 62
1
100
AcDbSpline
 70
8
 71
3
 72
8
 73
4
 74
0
 40
0
 40
0
 40
0
 40
0
 40
1
 40
1
 40
1
 40
1
 10
242.764309
 20
119.855399
 30
0.0
 10
246.322421
 20
121.909676
 30
0.0
 10
250.706197
 20
121.909676
 30
0.0
 10
254.264309
 20
119.855399
 30
0.0
  0
SPLINE
  5
381
100
AcDbEntity
  8
Layer_1
 62
1
100
AcDbSpline
 70
8
 71
3
 72
8
 73
4
 74
0
 40
0
 40
0
 40
0
 40
0
 40
1
 40
1
 40
1
 40
1
 10
254.264309
 20
119.855399
 30
0.0
 10
257.822421
 20
117.801122
 30
0.0
 10
260.014309
 20
114.004661
 30
0.0
 10
260.014309
 20
109.896107
 30
0.0
  0
SPLINE
  5
382
100
AcDbEntity
  8
Layer_1
 62
1
100
AcDbSpline
 70
8
 71
3
 72
8
 73
4
 74
0
 40
0
 40
0
 40
0
 40
0
 40
1
 40
1
 40
1
 40
1
 10
260.014309
 20
109.896107
 30
0.0
 10
260.014309
 20
105.787552
 30
0.0
 10
257.822421
 20
101.991092
 30
0.0
 10
254.264309
 20
99.936814
 30
0.0
  0
SPLINE
  5
383
100
AcDbEntity
  8
Layer_1
 62
1
100
AcDbSpline
 70
8
 71
3
 72
8
 73
4
 74
0
 40
0
 40
0
 40
0
 40
0
 40
1
 40
1
 40
1
 40
1
 10
254.264309
 20
99.936814
 30
0.0
 10
250.706197
 20
97.882537
 30
0.0
 10
246.322421
 20
97.882537
 30
0.0
 10
242.764309
 20
99.936814
 30
0.0
  0
SPLINE
  5
384
100
AcDbEntity
  8
Layer_1
 62
1
100
AcDbSpline
 70
8
 71
3
 72
8
 73
4
 74
0
 40
0
 40
0
 40
0
 40
0
 40
1
 40
1
 40
1
 40
1
 10
242.764309
 20
99.936814
 30
0.0
 10
239.206196
 20
101.991092
 30
0.0
 10
237.014309
 20
105.787552
 30
0.0
 10
237.014309
 20
109.896107
 30
0.0
  0
LINE
  5
385
100
AcDbEntity
  8
Layer_1
 62
1
100
AcDbLine
 10
237.014309
 20
109.896107
 30
0.0
 11
237.014309
 21
109.896107
 31
0.0
  0
SPLINE
  5
386
100
AcDbEntity
  8
Layer_1
 62
1
100
AcDbSpline
 70
8
 71
3
 72
8
 73
4
 74
0
 40
0
 40
0
 40
0
 40
0
 40
1
 40
1
 40
1
 40
1
 10
262.264309
 20
125.396107
 30
0.0
 10
262.264309
 20
126.021322
 30
0.0
 10
262.597857
 20
126.599044
 30
0.0
 10
263.139309
 20
126.911651
 30
0.0
  0
SPLINE
  5
387
100
AcDbEntity
  8
Layer_1
 62
1
100
AcDbSpline
 70
8
 71
3
 72
8
 73
4
 74
0
 40
0
 40
0
 40
0
 40
0
 40
1
 40
1
 40
1
 40
1
 10
263.139309
 20
126.911651
 30
0.0
 10
263.680761
 20
127.224259
 30
0.0
 10
264.347857
 20
127.224259
 30
0.0
 10
264.889309
 20
126.911651
 30
0.0
  0
SPLINE
  5
388
100
AcDbEntity
  8
Layer_1
 62
1
100
AcDbSpline
 70
8
 71
3
 72
8
 73
4
 74
0
 40
0
 40
0
 40
0
 40
0
 40
1
 40
1
 40
1
 40
1
 10
264.889309
 20
126.911651
 30
0.0
 10
265.430761
 20
126.599044
 30
0.0
 10
265.764309
 20
126.021322
 30
0.0
 10
265.764309
 20
125.396107
 30
0.0
  0
SPLINE
  5
389
100
AcDbEntity
  8
Layer_1
 62
1
100
AcDbSpline
 70
8
 71
3
 72
8
 73
4
 74
0
 40
0
 40
0
 40
0
 40
0
 40
1
 40
1
 40
1
 40
1
 10
265.764309
 20
125.396107
 30
0.0
 10
265.764309
 20
124.770892
 30
0.0
 10
265.430761
 20
124.193170
 30
0.0
 10
264.889309
 20
123.880562
 30
0.0
  0
SPLINE
  5
38a
100
AcDbEntity
  8
Layer_1
 62
1
100
AcDbSpline
 70
8
 71
3
 72
8
 73
4
 74
0
 40
0
 40
0
 40
0
 40
0
 40
1
 40
1
 40
1
 40
1
 10
264.889309
 20
123.880562
 30
0.0
 10
264.347857
 20
123.567955
 30
0.0
 10
263.680761
 20
123.567955
 30
0.0
 10
263.139309
 20
123.880562
 30
0.0
  0
SPLINE
  5
38b
100
AcDbEntity
  8
Layer_1
 62
1
100
AcDbSpline
 70
8
 71
3
 72
8
 73
4
 74
0
 40
0
 40
0
 40
0
 40
0
 40
1
 40
1
 40
1
 40
1
 10
263.139309
 20
123.880562
 30
0.0
 10
262.597857
 20
124.193170
 30
0.0
 10
262.264309
 20
124.770892
 30
0.0
 10
262.264309
 20
125.396107
 30
0.0
  0
LINE
  5
38c
100
AcDbEntity
  8
Layer_1
 62
1
100
AcDbLine
 10
262.264309
 20
125.396107
 30
0.0
 11
262.264309
 21
125.396107
 31
0.0
  0
SPLINE
  5
38d
100
AcDbEntity
  8
Layer_1
 62
1
100
AcDbSpline
 70
8
 71
3
 72
8
 73
4
 74
0
 40
0
 40
0
 40
0
 40
0
 40
1
 40
1
 40
1
 40
1
 10
262.264309
 20
94.396107
 30
0.0
 10
262.264309
 20
95.021321
 30
0.0
 10
262.597857
 20
95.599044
 30
0.0
 10
263.139309
 20
95.911651
 30
0.0
  0
SPLINE
  5
38e
100
AcDbEntity
  8
Layer_1
 62
1
100
AcDbSpline
 70
8
 71
3
 72
8
 73
4
 74
0
 40
0
 40
0
 40
0
 40
0
 40
1
 40
1
 40
1
 40
1
 10
263.139309
 20
95.911651
 30
0.0
 10
263.680761
 20
96.224259
 30
0.0
 10
264.347857
 20
96.224259
 30
0.0
 10
264.889309
 20
95.911651
 30
0.0
  0
SPLINE
  5
38f
100
AcDbEntity
  8
Layer_1
 62
1
100
AcDbSpline
 70
8
 71
3
 72
8
 73
4
 74
0
 40
0
 40
0
 40
0
 40
0
 40
1
 40
1
 40
1
 40
1
 10
264.889309
 20
95.911651
 30
0.0
 10
265.430761
 20
95.599044
 30
0.0
 10
265.764309
 20
95.021321
 30
0.0
 10
265.764309
 20
94.396107
 30
0.0
  0
SPLINE
  5
390
100
AcDbEntity
  8
Layer_1
 62
1
100
AcDbSpline
 70
8
 71
3
 72
8
 73
4
 74
0
 40
0
 40
0
 40
0
 40
0
 40
1
 40
1
 40
1
 40
1
 10
265.764309
 20
94.396107
 30
0.0
 10
265.764309
 20
93.770892
 30
0.0
 10
265.430761
 20
93.193170
 30
0.0
 10
264.889309
 20
92.880562
 30
0.0
  0
SPLINE
  5
391
100
AcDbEntity
  8
Layer_1
 62
1
100
AcDbSpline
 70
8
 71
3
 72
8
 73
4
 74
0
 40
0
 40
0
 40
0
 40
0
 40
1
 40
1
 40
1
 40
1
 10
264.889309
 20
92.880562
 30
0.0
 10
264.347857
 20
92.567955
 30
0.0
 10
263.680761
 20
92.567955
 30
0.0
 10
263.139309
 20
92.880562
 30
0.0
  0
SPLINE
  5
392
100
AcDbEntity
  8
Layer_1
 62
1
100
AcDbSpline
 70
8
 71
3
 72
8
 73
4
 74
0
 40
0
 40
0
 40
0
 40
0
 40
1
 40
1
 40
1
 40
1
 10
263.139309
 20
92.880562
 30
0.0
 10
262.597857
 20
93.193170
 30
0.0
 10
262.264309
 20
93.770892
 30
0.0
 10
262.264309
 20
94.396107
 30
0.0
  0
LINE
  5
393
100
AcDbEntity
  8
Layer_1
 62
1
100
AcDbLine
 10
262.264309
 20
94.396107
 30
0.0
 11
262.264309
 21
94.396107
 31
0.0
  0
SPLINE
  5
394
100
AcDbEntity
  8
Layer_1
 62
1
100
AcDbSpline
 70
8
 71
3
 72
8
 73
4
 74
0
 40
0
 40
0
 40
0
 40
0
 40
1
 40
1
 40
1
 40
1
 10
231.264310
 20
94.396107
 30
0.0
 10
231.263808
 20
95.021656
 30
0.0
 10
231.597246
 20
95.599902
 30
0.0
 10
232.138904
 20
95.912822
 30
0.0
  0
SPLINE
  5
395
100
AcDbEntity
  8
Layer_1
 62
1
100
AcDbSpline
 70
8
 71
3
 72
8
 73
4
 74
0
 40
0
 40
0
 40
0
 40
0
 40
1
 40
1
 40
1
 40
1
 10
232.138904
 20
95.912822
 30
0.0
 10
232.680562
 20
96.225742
 30
0.0
 10
233.348057
 20
96.225742
 30
0.0
 10
233.889715
 20
95.912822
 30
0.0
  0
SPLINE
  5
396
100
AcDbEntity
  8
Layer_1
 62
1
100
AcDbSpline
 70
8
 71
3
 72
8
 73
4
 74
0
 40
0
 40
0
 40
0
 40
0
 40
1
 40
1
 40
1
 40
1
 10
233.889715
 20
95.912822
 30
0.0
 10
234.431373
 20
95.599902
 30
0.0
 10
234.764811
 20
95.021656
 30
0.0
 10
234.764309
 20
94.396107
 30
0.0
  0
SPLINE
  5
397
100
AcDbEntity
  8
Layer_1
 62
1
100
AcDbSpline
 70
8
 71
3
 72
8
 73
4
 74
0
 40
0
 40
0
 40
0
 40
0
 40
1
 40
1
 40
1
 40
1
 10
234.764309
 20
94.396107
 30
0.0
 10
234.764811
 20
93.770557
 30
0.0
 10
234.431373
 20
93.192311
 30
0.0
 10
233.889715
 20
92.879391
 30
0.0
  0
SPLINE
  5
398
100
AcDbEntity
  8
Layer_1
 62
1
100
AcDbSpline
 70
8
 71
3
 72
8
 73
4
 74
0
 40
0
 40
0
 40
0
 40
0
 40
1
 40
1
 40
1
 40
1
 10
233.889715
 20
92.879391
 30
0.0
 10
233.348057
 20
92.566471
 30
0.0
 10
232.680562
 20
92.566471
 30
0.0
 10
232.138904
 20
92.879391
 30
0.0
  0
SPLINE
  5
399
100
AcDbEntity
  8
Layer_1
 62
1
100
AcDbSpline
 70
8
 71
3
 72
8
 73
4
 74
0
 40
0
 40
0
 40
0
 40
0
 40
1
 40
1
 40
1
 40
1
 10
232.138904
 20
92.879391
 30
0.0
 10
231.597246
 20
93.192311
 30
0.0
 10
231.263808
 20
93.770557
 30
0.0
 10
231.264310
 20
94.396107
 30
0.0
  0
LINE
  5
39a
100
AcDbEntity
  8
Layer_1
 62
1
100
AcDbLine
 10
231.264310
 20
94.396107
 30
0.0
 11
231.264310
 21
94.396107
 31
0.0
  0
SPLINE
  5
39b
100
AcDbEntity
  8
Layer_1
 62
1
100
AcDbSpline
 70
8
 71
3
 72
8
 73
4
 74
0
 40
0
 40
0
 40
0
 40
0
 40
1
 40
1
 40
1
 40
1
 10
231.264310
 20
125.396107
 30
0.0
 10
231.263808
 20
126.021656
 30
0.0
 10
231.597246
 20
126.599903
 30
0.0
 10
232.138904
 20
126.912822
 30
0.0
  0
SPLINE
  5
39c
100
AcDbEntity
  8
Layer_1
 62
1
100
AcDbSpline
 70
8
 71
3
 72
8
 73
4
 74
0
 40
0
 40
0
 40
0
 40
0
 40
1
 40
1
 40
1
 40
1
 10
232.138904
 20
126.912822
 30
0.0
 10
232.680562
 20
127.225742
 30
0.0
 10
233.348057
 20
127.225742
 30
0.0
 10
233.889715
 20
126.912822
 30
0.0
  0
SPLINE
  5
39d
100
AcDbEntity
  8
Layer_1
 62
1
100
AcDbSpline
 70
8
 71
3
 72
8
 73
4
 74
0
 40
0
 40
0
 40
0
 40
0
 40
1
 40
1
 40
1
 40
1
 10
233.889715
 20
126.912822
 30
0.0
 10
234.431373
 20
126.599903
 30
0.0
 10
234.764811
 20
126.021656
 30
0.0
 10
234.764309
 20
125.396107
 30
0.0
  0
SPLINE
  5
39e
100
AcDbEntity
  8
Layer_1
 62
1
100
AcDbSpline
 70
8
 71
3
 72
8
 73
4
 74
0
 40
0
 40
0
 40
0
 40
0
 40
1
 40
1
 40
1
 40
1
 10
234.764309
 20
125.396107
 30
0.0
 10
234.764811
 20
124.770557
 30
0.0
 10
234.431373
 20
124.192311
 30
0.0
 10
233.889715
 20
123.879391
 30
0.0
  0
SPLINE
  5
39f
100
AcDbEntity
  8
Layer_1
 62
1
100
AcDbSpline
 70
8
 71
3
 72
8
 73
4
 74
0
 40
0
 40
0
 40
0
 40
0
 40
1
 40
1
 40
1
 40
1
 10
233.889715
 20
123.879391
 30
0.0
 10
233.348057
 20
123.566471
 30
0.0
 10
232.680562
 20
123.566471
 30
0.0
 10
232.138904
 20
123.879391
 30
0.0
  0
SPLINE
  5
3a0
100
AcDbEntity
  8
Layer_1
 62
1
100
AcDbSpline
 70
8
 71
3
 72
8
 73
4
 74
0
 40
0
 40
0
 40
0
 40
0
 40
1
 40
1
 40
1
 40
1
 10
232.138904
 20
123.879391
 30
0.0
 10
231.597246
 20
124.192311
 30
0.0
 10
231.263808
 20
124.770557
 30
0.0
 10
231.264310
 20
125.396107
 30
0.0
  0
LINE
  5
3a1
100
AcDbEntity
  8
Layer_1
 62
1
100
AcDbLine
 10
231.264310
 20
125.396107
 30
0.0
 11
231.264310
 21
125.396107
 31
0.0
  0
LINE
  5
3a2
100
AcDbEntity
  8
Layer_1
 62
1
100
AcDbLine
 10
257.514309
 20
44.896107
 30
0.0
 11
263.514309
 21
44.896107
 31
0.0
  0
LINE
  5
3a3
100
AcDbEntity
  8
Layer_1
 62
1
100
AcDbLine
 10
263.514309
 20
44.896107
 30
0.0
 11
263.514309
 21
34.896107
 31
0.0
  0
LINE
  5
3a4
100
AcDbEntity
  8
Layer_1
 62
1
100
AcDbLine
 10
263.514309
 20
34.896107
 30
0.0
 11
257.514309
 21
34.896107
 31
0.0
  0
LINE
  5
3a5
100
AcDbEntity
  8
Layer_1
 62
1
100
AcDbLine
 10
257.514309
 20
34.896107
 30
0.0
 11
257.514309
 21
44.896107
 31
0.0
  0
LINE
  5
3a6
100
AcDbEntity
  8
Layer_1
 62
1
100
AcDbLine
 10
257.514309
 20
44.896107
 30
0.0
 11
257.514309
 21
44.896107
 31
0.0
  0
LINE
  5
3a7
100
AcDbEntity
  8
Layer_1
 62
1
100
AcDbLine
 10
239.514309
 20
34.896107
 30
0.0
 11
239.514309
 21
44.896107
 31
0.0
  0
LINE
  5
3a8
100
AcDbEntity
  8
Layer_1
 62
1
100
AcDbLine
 10
239.514309
 20
44.896107
 30
0.0
 11
233.514310
 21
44.896107
 31
0.0
  0
LINE
  5
3a9
100
AcDbEntity
  8
Layer_1
 62
1
100
AcDbLine
 10
233.514310
 20
44.896107
 30
0.0
 11
233.514310
 21
34.896107
 31
0.0
  0
LINE
  5
3aa
100
AcDbEntity
  8
Layer_1
 62
1
100
AcDbLine
 10
233.514310
 20
34.896107
 30
0.0
 11
239.514309
 21
34.896107
 31
0.0
  0
LINE
  5
3ab
100
AcDbEntity
  8
Layer_1
 62
1
100
AcDbLine
 10
239.514309
 20
34.896107
 30
0.0
 11
239.514309
 21
34.896107
 31
0.0
  0
LINE
  5
3ac
100
AcDbEntity
  8
Layer_1
 62
1
100
AcDbLine
 10
253.514309
 20
50.896106
 30
0.0
 11
243.514310
 21
50.896106
 31
0.0
  0
LINE
  5
3ad
100
AcDbEntity
  8
Layer_1
 62
1
100
AcDbLine
 10
243.514310
 20
50.896106
 30
0.0
 11
243.514310
 21
53.896106
 31
0.0
  0
LINE
  5
3ae
100
AcDbEntity
  8
Layer_1
 62
1
100
AcDbLine
 10
243.514310
 20
53.896106
 30
0.0
 11
253.514309
 21
53.896106
 31
0.0
  0
LINE
  5
3af
100
AcDbEntity
  8
Layer_1
 62
1
100
AcDbLine
 10
253.514309
 20
53.896106
 30
0.0
 11
253.514309
 21
50.896106
 31
0.0
  0
LINE
  5
3b0
100
AcDbEntity
  8
Layer_1
 62
1
100
AcDbLine
 10
253.514309
 20
50.896106
 30
0.0
 11
253.514309
 21
50.896106
 31
0.0
  0
LINE
  5
3b1
100
AcDbEntity
  8
Layer_1
 62
1
100
AcDbLine
 10
253.514309
 20
22.896106
 30
0.0
 11
243.514310
 21
22.896106
 31
0.0
  0
LINE
  5
3b2
100
AcDbEntity
  8
Layer_1
 62
1
100
AcDbLine
 10
243.514310
 20
22.896106
 30
0.0
 11
243.514310
 21
28.896105
 31
0.0
  0
LINE
  5
3b3
100
AcDbEntity
  8
Layer_1
 62
1
100
AcDbLine
 10
243.514310
 20
28.896105
 30
0.0
 11
253.514309
 21
28.896105
 31
0.0
  0
LINE
  5
3b4
100
AcDbEntity
  8
Layer_1
 62
1
100
AcDbLine
 10
253.514309
 20
28.896105
 30
0.0
 11
253.514309
 21
22.896106
 31
0.0
  0
LINE
  5
3b5
100
AcDbEntity
  8
Layer_1
 62
1
100
AcDbLine
 10
253.514309
 20
22.896106
 30
0.0
 11
253.514309
 21
22.896106
 31
0.0
  0
SPLINE
  5
3b6
100
AcDbEntity
  8
Layer_1
 62
1
100
AcDbSpline
 70
8
 71
3
 72
8
 73
4
 74
0
 40
0
 40
0
 40
0
 40
0
 40
1
 40
1
 40
1
 40
1
 10
226.514310
 20
48.896107
 30
0.0
 10
226.513748
 20
49.521696
 30
0.0
 10
226.847173
 20
50.100005
 30
0.0
 10
227.388856
 20
50.412961
 30
0.0
  0
SPLINE
  5
3b7
100
AcDbEntity
  8
Layer_1
 62
1
100
AcDbSpline
 70
8
 71
3
 72
8
 73
4
 74
0
 40
0
 40
0
 40
0
 40
0
 40
1
 40
1
 40
1
 40
1
 10
227.388856
 20
50.412961
 30
0.0
 10
227.930538
 20
50.725918
 30
0.0
 10
228.598081
 20
50.725918
 30
0.0
 10
229.139763
 20
50.412961
 30
0.0
  0
SPLINE
  5
3b8
100
AcDbEntity
  8
Layer_1
 62
1
100
AcDbSpline
 70
8
 71
3
 72
8
 73
4
 74
0
 40
0
 40
0
 40
0
 40
0
 40
1
 40
1
 40
1
 40
1
 10
229.139763
 20
50.412961
 30
0.0
 10
229.681445
 20
50.100005
 30
0.0
 10
230.014870
 20
49.521696
 30
0.0
 10
230.014309
 20
48.896107
 30
0.0
  0
SPLINE
  5
3b9
100
AcDbEntity
  8
Layer_1
 62
1
100
AcDbSpline
 70
8
 71
3
 72
8
 73
4
 74
0
 40
0
 40
0
 40
0
 40
0
 40
1
 40
1
 40
1
 40
1
 10
230.014309
 20
48.896107
 30
0.0
 10
230.014870
 20
48.270519
 30
0.0
 10
229.681445
 20
47.692210
 30
0.0
 10
229.139763
 20
47.379253
 30
0.0
  0
SPLINE
  5
3ba
100
AcDbEntity
  8
Layer_1
 62
1
100
AcDbSpline
 70
8
 71
3
 72
8
 73
4
 74
0
 40
0
 40
0
 40
0
 40
0
 40
1
 40
1
 40
1
 40
1
 10
229.139763
 20
47.379253
 30
0.0
 10
228.598081
 20
47.066297
 30
0.0
 10
227.930538
 20
47.066297
 30
0.0
 10
227.388856
 20
47.379253
 30
0.0
  0
SPLINE
  5
3bb
100
AcDbEntity
  8
Layer_1
 62
1
100
AcDbSpline
 70
8
 71
3
 72
8
 73
4
 74
0
 40
0
 40
0
 40
0
 40
0
 40
1
 40
1
 40
1
 40
1
 10
227.388856
 20
47.379253
 30
0.0
 10
226.847173
 20
47.692210
 30
0.0
 10
226.513748
 20
48.270519
 30
0.0
 10
226.514310
 20
48.896107
 30
0.0
  0
LINE
  5
3bc
100
AcDbEntity
  8
Layer_1
 62
1
100
AcDbLine
 10
226.514310
 20
48.896107
 30
0.0
 11
226.514310
 21
48.896107
 31
0.0
  0
SPLINE
  5
3bd
100
AcDbEntity
  8
Layer_1
 62
1
100
AcDbSpline
 70
8
 71
3
 72
8
 73
4
 74
0
 40
0
 40
0
 40
0
 40
0
 40
1
 40
1
 40
1
 40
1
 10
267.014309
 20
48.896107
 30
0.0
 10
267.014309
 20
49.521322
 30
0.0
 10
267.347857
 20
50.099044
 30
0.0
 10
267.889309
 20
50.411652
 30
0.0
  0
SPLINE
  5
3be
100
AcDbEntity
  8
Layer_1
 62
1
100
AcDbSpline
 70
8
 71
3
 72
8
 73
4
 74
0
 40
0
 40
0
 40
0
 40
0
 40
1
 40
1
 40
1
 40
1
 10
267.889309
 20
50.411652
 30
0.0
 10
268.430761
 20
50.724259
 30
0.0
 10
269.097857
 20
50.724259
 30
0.0
 10
269.639309
 20
50.411652
 30
0.0
  0
SPLINE
  5
3bf
100
AcDbEntity
  8
Layer_1
 62
1
100
AcDbSpline
 70
8
 71
3
 72
8
 73
4
 74
0
 40
0
 40
0
 40
0
 40
0
 40
1
 40
1
 40
1
 40
1
 10
269.639309
 20
50.411652
 30
0.0
 10
270.180761
 20
50.099044
 30
0.0
 10
270.514309
 20
49.521322
 30
0.0
 10
270.514309
 20
48.896107
 30
0.0
  0
SPLINE
  5
3c0
100
AcDbEntity
  8
Layer_1
 62
1
100
AcDbSpline
 70
8
 71
3
 72
8
 73
4
 74
0
 40
0
 40
0
 40
0
 40
0
 40
1
 40
1
 40
1
 40
1
 10
270.514309
 20
48.896107
 30
0.0
 10
270.514309
 20
48.270893
 30
0.0
 10
270.180761
 20
47.693170
 30
0.0
 10
269.639309
 20
47.380563
 30
0.0
  0
SPLINE
  5
3c1
100
AcDbEntity
  8
Layer_1
 62
1
100
AcDbSpline
 70
8
 71
3
 72
8
 73
4
 74
0
 40
0
 40
0
 40
0
 40
0
 40
1
 40
1
 40
1
 40
1
 10
269.639309
 20
47.380563
 30
0.0
 10
269.097857
 20
47.067955
 30
0.0
 10
268.430761
 20
47.067955
 30
0.0
 10
267.889309
 20
47.380563
 30
0.0
  0
SPLINE
  5
3c2
100
AcDbEntity
  8
Layer_1
 62
1
100
AcDbSpline
 70
8
 71
3
 72
8
 73
4
 74
0
 40
0
 40
0
 40
0
 40
0
 40
1
 40
1
 40
1
 40
1
 10
267.889309
 20
47.380563
 30
0.0
 10
267.347857
 20
47.693170
 30
0.0
 10
267.014309
 20
48.270893
 30
0.0
 10
267.014309
 20
48.896107
 30
0.0
  0
LINE
  5
3c3
100
AcDbEntity
  8
Layer_1
 62
1
100
AcDbLine
 10
267.014309
 20
48.896107
 30
0.0
 11
267.014309
 21
48.896107
 31
0.0
  0
LINE
  5
3c4
100
AcDbEntity
  8
Layer_1
 62
1
100
AcDbLine
 10
253.514309
 20
10.896096
 30
0.0
 11
243.514310
 21
10.896096
 31
0.0
  0
LINE
  5
3c5
100
AcDbEntity
  8
Layer_1
 62
1
100
AcDbLine
 10
243.514310
 20
10.896096
 30
0.0
 11
243.514310
 21
7.896102
 31
0.0
  0
LINE
  5
3c6
100
AcDbEntity
  8
Layer_1
 62
1
100
AcDbLine
 10
243.514310
 20
7.896102
 30
0.0
 11
253.514309
 21
7.896102
 31
0.0
  0
LINE
  5
3c7
100
AcDbEntity
  8
Layer_1
 62
1
100
AcDbLine
 10
253.514309
 20
7.896102
 30
0.0
 11
253.514309
 21
10.896096
 31
0.0
  0
LINE
  5
3c8
100
AcDbEntity
  8
Layer_1
 62
1
100
AcDbLine
 10
253.514309
 20
10.896096
 30
0.0
 11
253.514309
 21
10.896096
 31
0.0
  0
SPLINE
  5
3c9
100
AcDbEntity
  8
Layer_1
 62
1
100
AcDbSpline
 70
8
 71
3
 72
8
 73
4
 74
0
 40
0
 40
0
 40
0
 40
0
 40
1
 40
1
 40
1
 40
1
 10
245.614309
 20
16.896112
 30
0.0
 10
245.613986
 20
17.932398
 30
0.0
 10
246.166652
 20
18.890104
 30
0.0
 10
247.064048
 20
19.408340
 30
0.0
  0
SPLINE
  5
3ca
100
AcDbEntity
  8
Layer_1
 62
1
100
AcDbSpline
 70
8
 71
3
 72
8
 73
4
 74
0
 40
0
 40
0
 40
0
 40
0
 40
1
 40
1
 40
1
 40
1
 10
247.064048
 20
19.408340
 30
0.0
 10
247.961444
 20
19.926576
 30
0.0
 10
249.067174
 20
19.926576
 30
0.0
 10
249.964570
 20
19.408340
 30
0.0
  0
SPLINE
  5
3cb
100
AcDbEntity
  8
Layer_1
 62
1
100
AcDbSpline
 70
8
 71
3
 72
8
 73
4
 74
0
 40
0
 40
0
 40
0
 40
0
 40
1
 40
1
 40
1
 40
1
 10
249.964570
 20
19.408340
 30
0.0
 10
250.861966
 20
18.890104
 30
0.0
 10
251.414632
 20
17.932398
 30
0.0
 10
251.414309
 20
16.896112
 30
0.0
  0
SPLINE
  5
3cc
100
AcDbEntity
  8
Layer_1
 62
1
100
AcDbSpline
 70
8
 71
3
 72
8
 73
4
 74
0
 40
0
 40
0
 40
0
 40
0
 40
1
 40
1
 40
1
 40
1
 10
251.414309
 20
16.896112
 30
0.0
 10
251.414632
 20
15.859826
 30
0.0
 10
250.861966
 20
14.902121
 30
0.0
 10
249.964570
 20
14.383884
 30
0.0
  0
SPLINE
  5
3cd
100
AcDbEntity
  8
Layer_1
 62
1
100
AcDbSpline
 70
8
 71
3
 72
8
 73
4
 74
0
 40
0
 40
0
 40
0
 40
0
 40
1
 40
1
 40
1
 40
1
 10
249.964570
 20
14.383884
 30
0.0
 10
249.067174
 20
13.865648
 30
0.0
 10
247.961444
 20
13.865648
 30
0.0
 10
247.064048
 20
14.383884
 30
0.0
  0
SPLINE
  5
3ce
100
AcDbEntity
  8
Layer_1
 62
1
100
AcDbSpline
 70
8
 71
3
 72
8
 73
4
 74
0
 40
0
 40
0
 40
0
 40
0
 40
1
 40
1
 40
1
 40
1
 10
247.064048
 20
14.383884
 30
0.0
 10
246.166652
 20
14.902121
 30
0.0
 10
245.613986
 20
15.859826
 30
0.0
 10
245.614309
 20
16.896112
 30
0.0
  0
LINE
  5
3cf
100
AcDbEntity
  8
Layer_1
 62
1
100
AcDbLine
 10
245.614309
 20
16.896112
 30
0.0
 11
245.614309
 21
16.896112
 31
0.0
  0
SPLINE
  5
3d0
100
AcDbEntity
  8
Layer_1
 62
1
100
AcDbSpline
 70
8
 71
3
 72
8
 73
4
 74
0
 40
0
 40
0
 40
0
 40
0
 40
1
 40
1
 40
1
 40
1
 10
267.014309
 20
16.896112
 30
0.0
 10
267.014309
 20
17.521327
 30
0.0
 10
267.347857
 20
18.099049
 30
0.0
 10
267.889309
 20
18.411657
 30
0.0
  0
SPLINE
  5
3d1
100
AcDbEntity
  8
Layer_1
 62
1
100
AcDbSpline
 70
8
 71
3
 72
8
 73
4
 74
0
 40
0
 40
0
 40
0
 40
0
 40
1
 40
1
 40
1
 40
1
 10
267.889309
 20
18.411657
 30
0.0
 10
268.430761
 20
18.724264
 30
0.0
 10
269.097857
 20
18.724264
 30
0.0
 10
269.639309
 20
18.411657
 30
0.0
  0
SPLINE
  5
3d2
100
AcDbEntity
  8
Layer_1
 62
1
100
AcDbSpline
 70
8
 71
3
 72
8
 73
4
 74
0
 40
0
 40
0
 40
0
 40
0
 40
1
 40
1
 40
1
 40
1
 10
269.639309
 20
18.411657
 30
0.0
 10
270.180761
 20
18.099049
 30
0.0
 10
270.514309
 20
17.521327
 30
0.0
 10
270.514309
 20
16.896112
 30
0.0
  0
SPLINE
  5
3d3
100
AcDbEntity
  8
Layer_1
 62
1
100
AcDbSpline
 70
8
 71
3
 72
8
 73
4
 74
0
 40
0
 40
0
 40
0
 40
0
 40
1
 40
1
 40
1
 40
1
 10
270.514309
 20
16.896112
 30
0.0
 10
270.514309
 20
16.270897
 30
0.0
 10
270.180761
 20
15.693175
 30
0.0
 10
269.639309
 20
15.380568
 30
0.0
  0
SPLINE
  5
3d4
100
AcDbEntity
  8
Layer_1
 62
1
100
AcDbSpline
 70
8
 71
3
 72
8
 73
4
 74
0
 40
0
 40
0
 40
0
 40
0
 40
1
 40
1
 40
1
 40
1
 10
269.639309
 20
15.380568
 30
0.0
 10
269.097857
 20
15.067960
 30
0.0
 10
268.430761
 20
15.067960
 30
0.0
 10
267.889309
 20
15.380568
 30
0.0
  0
SPLINE
  5
3d5
100
AcDbEntity
  8
Layer_1
 62
1
100
AcDbSpline
 70
8
 71
3
 72
8
 73
4
 74
0
 40
0
 40
0
 40
0
 40
0
 40
1
 40
1
 40
1
 40
1
 10
267.889309
 20
15.380568
 30
0.0
 10
267.347857
 20
15.693175
 30
0.0
 10
267.014309
 20
16.270897
 30
0.0
 10
267.014309
 20
16.896112
 30
0.0
  0
LINE
  5
3d6
100
AcDbEntity
  8
Layer_1
 62
1
100
AcDbLine
 10
267.014309
 20
16.896112
 30
0.0
 11
267.014309
 21
16.896112
 31
0.0
  0
SPLINE
  5
3d7
100
AcDbEntity
  8
Layer_1
 62
1
100
AcDbSpline
 70
8
 71
3
 72
8
 73
4
 74
0
 40
0
 40
0
 40
0
 40
0
 40
1
 40
1
 40
1
 40
1
 10
226.514310
 20
16.896112
 30
0.0
 10
226.513748
 20
17.521701
 30
0.0
 10
226.847173
 20
18.100009
 30
0.0
 10
227.388856
 20
18.412966
 30
0.0
  0
SPLINE
  5
3d8
100
AcDbEntity
  8
Layer_1
 62
1
100
AcDbSpline
 70
8
 71
3
 72
8
 73
4
 74
0
 40
0
 40
0
 40
0
 40
0
 40
1
 40
1
 40
1
 40
1
 10
227.388856
 20
18.412966
 30
0.0
 10
227.930538
 20
18.725923
 30
0.0
 10
228.598081
 20
18.725923
 30
0.0
 10
229.139763
 20
18.412966
 30
0.0
  0
SPLINE
  5
3d9
100
AcDbEntity
  8
Layer_1
 62
1
100
AcDbSpline
 70
8
 71
3
 72
8
 73
4
 74
0
 40
0
 40
0
 40
0
 40
0
 40
1
 40
1
 40
1
 40
1
 10
229.139763
 20
18.412966
 30
0.0
 10
229.681445
 20
18.100009
 30
0.0
 10
230.014870
 20
17.521701
 30
0.0
 10
230.014309
 20
16.896112
 30
0.0
  0
SPLINE
  5
3da
100
AcDbEntity
  8
Layer_1
 62
1
100
AcDbSpline
 70
8
 71
3
 72
8
 73
4
 74
0
 40
0
 40
0
 40
0
 40
0
 40
1
 40
1
 40
1
 40
1
 10
230.014309
 20
16.896112
 30
0.0
 10
230.014870
 20
16.270523
 30
0.0
 10
229.681445
 20
15.692215
 30
0.0
 10
229.139763
 20
15.379258
 30
0.0
  0
SPLINE
  5
3db
100
AcDbEntity
  8
Layer_1
 62
1
100
AcDbSpline
 70
8
 71
3
 72
8
 73
4
 74
0
 40
0
 40
0
 40
0
 40
0
 40
1
 40
1
 40
1
 40
1
 10
229.139763
 20
15.379258
 30
0.0
 10
228.598081
 20
15.066301
 30
0.0
 10
227.930538
 20
15.066301
 30
0.0
 10
227.388856
 20
15.379258
 30
0.0
  0
SPLINE
  5
3dc
100
AcDbEntity
  8
Layer_1
 62
1
100
AcDbSpline
 70
8
 71
3
 72
8
 73
4
 74
0
 40
0
 40
0
 40
0
 40
0
 40
1
 40
1
 40
1
 40
1
 10
227.388856
 20
15.379258
 30
0.0
 10
226.847173
 20
15.692215
 30
0.0
 10
226.513748
 20
16.270523
 30
0.0
 10
226.514310
 20
16.896112
 30
0.0
  0
LINE
  5
3dd
100
AcDbEntity
  8
Layer_1
 62
1
100
AcDbLine
 10
226.514310
 20
16.896112
 30
0.0
 11
226.514310
 21
16.896112
 31
0.0
  0
SPLINE
  5
3de
100
AcDbEntity
  8
Layer_1
 62
1
100
AcDbSpline
 70
8
 71
3
 72
8
 73
4
 74
0
 40
0
 40
0
 40
0
 40
0
 40
1
 40
1
 40
1
 40
1
 10
237.014309
 20
78.896107
 30
0.0
 10
237.014309
 20
83.004661
 30
0.0
 10
239.206196
 20
86.801122
 30
0.0
 10
242.764309
 20
88.855399
 30
0.0
  0
SPLINE
  5
3df
100
AcDbEntity
  8
Layer_1
 62
1
100
AcDbSpline
 70
8
 71
3
 72
8
 73
4
 74
0
 40
0
 40
0
 40
0
 40
0
 40
1
 40
1
 40
1
 40
1
 10
242.764309
 20
88.855399
 30
0.0
 10
246.322421
 20
90.909676
 30
0.0
 10
250.706197
 20
90.909676
 30
0.0
 10
254.264309
 20
88.855399
 30
0.0
  0
SPLINE
  5
3e0
100
AcDbEntity
  8
Layer_1
 62
1
100
AcDbSpline
 70
8
 71
3
 72
8
 73
4
 74
0
 40
0
 40
0
 40
0
 40
0
 40
1
 40
1
 40
1
 40
1
 10
254.264309
 20
88.855399
 30
0.0
 10
257.822421
 20
86.801122
 30
0.0
 10
260.014309
 20
83.004661
 30
0.0
 10
260.014309
 20
78.896107
 30
0.0
  0
SPLINE
  5
3e1
100
AcDbEntity
  8
Layer_1
 62
1
100
AcDbSpline
 70
8
 71
3
 72
8
 73
4
 74
0
 40
0
 40
0
 40
0
 40
0
 40
1
 40
1
 40
1
 40
1
 10
260.014309
 20
78.896107
 30
0.0
 10
260.014309
 20
74.787552
 30
0.0
 10
257.822421
 20
70.991092
 30
0.0
 10
254.264309
 20
68.936814
 30
0.0
  0
SPLINE
  5
3e2
100
AcDbEntity
  8
Layer_1
 62
1
100
AcDbSpline
 70
8
 71
3
 72
8
 73
4
 74
0
 40
0
 40
0
 40
0
 40
0
 40
1
 40
1
 40
1
 40
1
 10
254.264309
 20
68.936814
 30
0.0
 10
250.706197
 20
66.882537
 30
0.0
 10
246.322421
 20
66.882537
 30
0.0
 10
242.764309
 20
68.936814
 30
0.0
  0
SPLINE
  5
3e3
100
AcDbEntity
  8
Layer_1
 62
1
100
AcDbSpline
 70
8
 71
3
 72
8
 73
4
 74
0
 40
0
 40
0
 40
0
 40
0
 40
1
 40
1
 40
1
 40
1
 10
242.764309
 20
68.936814
 30
0.0
 10
239.206196
 20
70.991092
 30
0.0
 10
237.014309
 20
74.787552
 30
0.0
 10
237.014309
 20
78.896107
 30
0.0
  0
LINE
  5
3e4
100
AcDbEntity
  8
Layer_1
 62
1
100
AcDbLine
 10
237.014309
 20
78.896107
 30
0.0
 11
237.014309
 21
78.896107
 31
0.0
  0
SPLINE
  5
3e5
100
AcDbEntity
  8
Layer_1
 62
1
100
AcDbSpline
 70
8
 71
3
 72
8
 73
4
 74
0
 40
0
 40
0
 40
0
 40
0
 40
1
 40
1
 40
1
 40
1
 10
262.264309
 20
63.396107
 30
0.0
 10
262.264309
 20
64.021321
 30
0.0
 10
262.597857
 20
64.599044
 30
0.0
 10
263.139309
 20
64.911651
 30
0.0
  0
SPLINE
  5
3e6
100
AcDbEntity
  8
Layer_1
 62
1
100
AcDbSpline
 70
8
 71
3
 72
8
 73
4
 74
0
 40
0
 40
0
 40
0
 40
0
 40
1
 40
1
 40
1
 40
1
 10
263.139309
 20
64.911651
 30
0.0
 10
263.680761
 20
65.224258
 30
0.0
 10
264.347857
 20
65.224258
 30
0.0
 10
264.889309
 20
64.911651
 30
0.0
  0
SPLINE
  5
3e7
100
AcDbEntity
  8
Layer_1
 62
1
100
AcDbSpline
 70
8
 71
3
 72
8
 73
4
 74
0
 40
0
 40
0
 40
0
 40
0
 40
1
 40
1
 40
1
 40
1
 10
264.889309
 20
64.911651
 30
0.0
 10
265.430761
 20
64.599044
 30
0.0
 10
265.764309
 20
64.021321
 30
0.0
 10
265.764309
 20
63.396107
 30
0.0
  0
SPLINE
  5
3e8
100
AcDbEntity
  8
Layer_1
 62
1
100
AcDbSpline
 70
8
 71
3
 72
8
 73
4
 74
0
 40
0
 40
0
 40
0
 40
0
 40
1
 40
1
 40
1
 40
1
 10
265.764309
 20
63.396107
 30
0.0
 10
265.764309
 20
62.770892
 30
0.0
 10
265.430761
 20
62.193169
 30
0.0
 10
264.889309
 20
61.880562
 30
0.0
  0
SPLINE
  5
3e9
100
AcDbEntity
  8
Layer_1
 62
1
100
AcDbSpline
 70
8
 71
3
 72
8
 73
4
 74
0
 40
0
 40
0
 40
0
 40
0
 40
1
 40
1
 40
1
 40
1
 10
264.889309
 20
61.880562
 30
0.0
 10
264.347857
 20
61.567955
 30
0.0
 10
263.680761
 20
61.567955
 30
0.0
 10
263.139309
 20
61.880562
 30
0.0
  0
SPLINE
  5
3ea
100
AcDbEntity
  8
Layer_1
 62
1
100
AcDbSpline
 70
8
 71
3
 72
8
 73
4
 74
0
 40
0
 40
0
 40
0
 40
0
 40
1
 40
1
 40
1
 40
1
 10
263.139309
 20
61.880562
 30
0.0
 10
262.597857
 20
62.193169
 30
0.0
 10
262.264309
 20
62.770892
 30
0.0
 10
262.264309
 20
63.396107
 30
0.0
  0
LINE
  5
3eb
100
AcDbEntity
  8
Layer_1
 62
1
100
AcDbLine
 10
262.264309
 20
63.396107
 30
0.0
 11
262.264309
 21
63.396107
 31
0.0
  0
SPLINE
  5
3ec
100
AcDbEntity
  8
Layer_1
 62
1
100
AcDbSpline
 70
8
 71
3
 72
8
 73
4
 74
0
 40
0
 40
0
 40
0
 40
0
 40
1
 40
1
 40
1
 40
1
 10
231.264310
 20
63.396107
 30
0.0
 10
231.263808
 20
64.021656
 30
0.0
 10
231.597246
 20
64.599902
 30
0.0
 10
232.138904
 20
64.912822
 30
0.0
  0
SPLINE
  5
3ed
100
AcDbEntity
  8
Layer_1
 62
1
100
AcDbSpline
 70
8
 71
3
 72
8
 73
4
 74
0
 40
0
 40
0
 40
0
 40
0
 40
1
 40
1
 40
1
 40
1
 10
232.138904
 20
64.912822
 30
0.0
 10
232.680562
 20
65.225742
 30
0.0
 10
233.348057
 20
65.225742
 30
0.0
 10
233.889715
 20
64.912822
 30
0.0
  0
SPLINE
  5
3ee
100
AcDbEntity
  8
Layer_1
 62
1
100
AcDbSpline
 70
8
 71
3
 72
8
 73
4
 74
0
 40
0
 40
0
 40
0
 40
0
 40
1
 40
1
 40
1
 40
1
 10
233.889715
 20
64.912822
 30
0.0
 10
234.431373
 20
64.599902
 30
0.0
 10
234.764811
 20
64.021656
 30
0.0
 10
234.764309
 20
63.396107
 30
0.0
  0
SPLINE
  5
3ef
100
AcDbEntity
  8
Layer_1
 62
1
100
AcDbSpline
 70
8
 71
3
 72
8
 73
4
 74
0
 40
0
 40
0
 40
0
 40
0
 40
1
 40
1
 40
1
 40
1
 10
234.764309
 20
63.396107
 30
0.0
 10
234.764811
 20
62.770557
 30
0.0
 10
234.431373
 20
62.192311
 30
0.0
 10
233.889715
 20
61.879391
 30
0.0
  0
SPLINE
  5
3f0
100
AcDbEntity
  8
Layer_1
 62
1
100
AcDbSpline
 70
8
 71
3
 72
8
 73
4
 74
0
 40
0
 40
0
 40
0
 40
0
 40
1
 40
1
 40
1
 40
1
 10
233.889715
 20
61.879391
 30
0.0
 10
233.348057
 20
61.566471
 30
0.0
 10
232.680562
 20
61.566471
 30
0.0
 10
232.138904
 20
61.879391
 30
0.0
  0
SPLINE
  5
3f1
100
AcDbEntity
  8
Layer_1
 62
1
100
AcDbSpline
 70
8
 71
3
 72
8
 73
4
 74
0
 40
0
 40
0
 40
0
 40
0
 40
1
 40
1
 40
1
 40
1
 10
232.138904
 20
61.879391
 30
0.0
 10
231.597246
 20
62.192311
 30
0.0
 10
231.263808
 20
62.770557
 30
0.0
 10
231.264310
 20
63.396107
 30
0.0
  0
LINE
  5
3f2
100
AcDbEntity
  8
Layer_1
 62
1
100
AcDbLine
 10
231.264310
 20
63.396107
 30
0.0
 11
231.264310
 21
63.396107
 31
0.0
  0
LINE
  5
3f3
100
AcDbEntity
  8
Layer_1
 62
7
100
AcDbLine
 10
212.309975
 20
57.028214
 30
0.0
 11
212.309975
 21
54.027949
 31
0.0
  0
LINE
  5
3f4
100
AcDbEntity
  8
Layer_1
 62
7
100
AcDbLine
 10
212.309975
 20
54.027949
 30
0.0
 11
218.309955
 21
54.027949
 31
0.0
  0
LINE
  5
3f5
100
AcDbEntity
  8
Layer_1
 62
7
100
AcDbLine
 10
218.309955
 20
54.027949
 30
0.0
 11
218.309955
 21
49.027877
 31
0.0
  0
LINE
  5
3f6
100
AcDbEntity
  8
Layer_1
 62
7
100
AcDbLine
 10
218.309955
 20
49.027877
 30
0.0
 11
221.310220
 21
49.027877
 31
0.0
  0
LINE
  5
3f7
100
AcDbEntity
  8
Layer_1
 62
7
100
AcDbLine
 10
221.310220
 20
49.027877
 30
0.0
 11
221.310220
 21
39.028281
 31
0.0
  0
LINE
  5
3f8
100
AcDbEntity
  8
Layer_1
 62
7
100
AcDbLine
 10
221.310220
 20
39.028281
 30
0.0
 11
218.309955
 21
39.028281
 31
0.0
  0
LINE
  5
3f9
100
AcDbEntity
  8
Layer_1
 62
7
100
AcDbLine
 10
218.309955
 20
39.028281
 30
0.0
 11
218.309955
 21
34.028206
 31
0.0
  0
LINE
  5
3fa
100
AcDbEntity
  8
Layer_1
 62
7
100
AcDbLine
 10
218.309955
 20
34.028206
 30
0.0
 11
212.309975
 21
34.028206
 31
0.0
  0
LINE
  5
3fb
100
AcDbEntity
  8
Layer_1
 62
7
100
AcDbLine
 10
212.309975
 20
34.028206
 30
0.0
 11
212.309975
 21
31.027941
 31
0.0
  0
LINE
  5
3fc
100
AcDbEntity
  8
Layer_1
 62
7
100
AcDbLine
 10
212.309975
 20
31.027941
 30
0.0
 11
202.309829
 21
31.027941
 31
0.0
  0
LINE
  5
3fd
100
AcDbEntity
  8
Layer_1
 62
7
100
AcDbLine
 10
202.309829
 20
31.027941
 30
0.0
 11
202.309829
 21
34.028206
 31
0.0
  0
LINE
  5
3fe
100
AcDbEntity
  8
Layer_1
 62
7
100
AcDbLine
 10
202.309829
 20
34.028206
 30
0.0
 11
196.309849
 21
34.028206
 31
0.0
  0
LINE
  5
3ff
100
AcDbEntity
  8
Layer_1
 62
7
100
AcDbLine
 10
196.309849
 20
34.028206
 30
0.0
 11
196.309849
 21
39.028281
 31
0.0
  0
LINE
  5
400
100
AcDbEntity
  8
Layer_1
 62
7
100
AcDbLine
 10
196.309849
 20
39.028281
 30
0.0
 11
193.310137
 21
39.028281
 31
0.0
  0
LINE
  5
401
100
AcDbEntity
  8
Layer_1
 62
7
100
AcDbLine
 10
193.310137
 20
39.028281
 30
0.0
 11
193.310137
 21
49.027877
 31
0.0
  0
LINE
  5
402
100
AcDbEntity
  8
Layer_1
 62
7
100
AcDbLine
 10
193.310137
 20
49.027877
 30
0.0
 11
196.309849
 21
49.027877
 31
0.0
  0
LINE
  5
403
100
AcDbEntity
  8
Layer_1
 62
7
100
AcDbLine
 10
196.309849
 20
49.027877
 30
0.0
 11
196.309849
 21
54.027949
 31
0.0
  0
LINE
  5
404
100
AcDbEntity
  8
Layer_1
 62
7
100
AcDbLine
 10
196.309849
 20
54.027949
 30
0.0
 11
202.309829
 21
54.027949
 31
0.0
  0
LINE
  5
405
100
AcDbEntity
  8
Layer_1
 62
7
100
AcDbLine
 10
202.309829
 20
54.027949
 30
0.0
 11
202.309829
 21
57.028214
 31
0.0
  0
LINE
  5
406
100
AcDbEntity
  8
Layer_1
 62
7
100
AcDbLine
 10
202.309829
 20
57.028214
 30
0.0
 11
212.309975
 21
57.028214
 31
0.0
  0
LINE
  5
407
100
AcDbEntity
  8
Layer_1
 62
7
100
AcDbLine
 10
212.309975
 20
57.028214
 30
0.0
 11
212.309975
 21
57.028214
 31
0.0
  0
SPLINE
  5
408
100
AcDbEntity
  8
Layer_1
 62
1
100
AcDbSpline
 70
8
 71
3
 72
8
 73
4
 74
0
 40
0
 40
0
 40
0
 40
0
 40
1
 40
1
 40
1
 40
1
 10
201.310059
 20
44.028113
 30
0.0
 10
201.309594
 20
46.172016
 30
0.0
 10
202.453086
 20
48.153264
 30
0.0
 10
204.309684
 20
49.225350
 30
0.0
  0
SPLINE
  5
409
100
AcDbEntity
  8
Layer_1
 62
1
100
AcDbSpline
 70
8
 71
3
 72
8
 73
4
 74
0
 40
0
 40
0
 40
0
 40
0
 40
1
 40
1
 40
1
 40
1
 10
204.309684
 20
49.225350
 30
0.0
 10
206.166281
 20
50.297436
 30
0.0
 10
208.453838
 20
50.297436
 30
0.0
 10
210.310435
 20
49.225350
 30
0.0
  0
SPLINE
  5
40a
100
AcDbEntity
  8
Layer_1
 62
1
100
AcDbSpline
 70
8
 71
3
 72
8
 73
4
 74
0
 40
0
 40
0
 40
0
 40
0
 40
1
 40
1
 40
1
 40
1
 10
210.310435
 20
49.225350
 30
0.0
 10
212.167032
 20
48.153264
 30
0.0
 10
213.310524
 20
46.172016
 30
0.0
 10
213.310059
 20
44.028113
 30
0.0
  0
SPLINE
  5
40b
100
AcDbEntity
  8
Layer_1
 62
1
100
AcDbSpline
 70
8
 71
3
 72
8
 73
4
 74
0
 40
0
 40
0
 40
0
 40
0
 40
1
 40
1
 40
1
 40
1
 10
213.310059
 20
44.028113
 30
0.0
 10
213.310524
 20
41.884210
 30
0.0
 10
212.167032
 20
39.902962
 30
0.0
 10
210.310435
 20
38.830876
 30
0.0
  0
SPLINE
  5
40c
100
AcDbEntity
  8
Layer_1
 62
1
100
AcDbSpline
 70
8
 71
3
 72
8
 73
4
 74
0
 40
0
 40
0
 40
0
 40
0
 40
1
 40
1
 40
1
 40
1
 10
210.310435
 20
38.830876
 30
0.0
 10
208.453838
 20
37.758790
 30
0.0
 10
206.166281
 20
37.758790
 30
0.0
 10
204.309684
 20
38.830876
 30
0.0
  0
SPLINE
  5
40d
100
AcDbEntity
  8
Layer_1
 62
1
100
AcDbSpline
 70
8
 71
3
 72
8
 73
4
 74
0
 40
0
 40
0
 40
0
 40
0
 40
1
 40
1
 40
1
 40
1
 10
204.309684
 20
38.830876
 30
0.0
 10
202.453086
 20
39.902962
 30
0.0
 10
201.309594
 20
41.884210
 30
0.0
 10
201.310059
 20
44.028113
 30
0.0
  0
LINE
  5
40e
100
AcDbEntity
  8
Layer_1
 62
1
100
AcDbLine
 10
201.310059
 20
44.028113
 30
0.0
 11
201.310059
 21
44.028113
 31
0.0
  0
LINE
  5
40f
100
AcDbEntity
  8
Layer_1
 62
7
100
AcDbLine
 10
212.880702
 20
29.659818
 30
0.0
 11
212.880702
 21
26.659553
 31
0.0
  0
LINE
  5
410
100
AcDbEntity
  8
Layer_1
 62
7
100
AcDbLine
 10
212.880702
 20
26.659553
 30
0.0
 11
218.880679
 21
26.659553
 31
0.0
  0
LINE
  5
411
100
AcDbEntity
  8
Layer_1
 62
7
100
AcDbLine
 10
218.880679
 20
26.659553
 30
0.0
 11
218.880679
 21
21.660032
 31
0.0
  0
LINE
  5
412
100
AcDbEntity
  8
Layer_1
 62
7
100
AcDbLine
 10
218.880679
 20
21.660032
 30
0.0
 11
221.880393
 21
21.660032
 31
0.0
  0
LINE
  5
413
100
AcDbEntity
  8
Layer_1
 62
7
100
AcDbLine
 10
221.880393
 20
21.660032
 30
0.0
 11
221.880393
 21
11.659882
 31
0.0
  0
LINE
  5
414
100
AcDbEntity
  8
Layer_1
 62
7
100
AcDbLine
 10
221.880393
 20
11.659882
 30
0.0
 11
218.880679
 21
11.659882
 31
0.0
  0
LINE
  5
415
100
AcDbEntity
  8
Layer_1
 62
7
100
AcDbLine
 10
218.880679
 20
11.659882
 30
0.0
 11
218.880679
 21
6.659810
 31
0.0
  0
LINE
  5
416
100
AcDbEntity
  8
Layer_1
 62
7
100
AcDbLine
 10
218.880679
 20
6.659810
 30
0.0
 11
212.880702
 21
6.659810
 31
0.0
  0
LINE
  5
417
100
AcDbEntity
  8
Layer_1
 62
7
100
AcDbLine
 10
212.880702
 20
6.659810
 30
0.0
 11
212.880702
 21
3.659546
 31
0.0
  0
LINE
  5
418
100
AcDbEntity
  8
Layer_1
 62
7
100
AcDbLine
 10
212.880702
 20
3.659546
 30
0.0
 11
202.880553
 21
3.659546
 31
0.0
  0
LINE
  5
419
100
AcDbEntity
  8
Layer_1
 62
7
100
AcDbLine
 10
202.880553
 20
3.659546
 30
0.0
 11
202.880553
 21
6.659810
 31
0.0
  0
LINE
  5
41a
100
AcDbEntity
  8
Layer_1
 62
7
100
AcDbLine
 10
202.880553
 20
6.659810
 30
0.0
 11
196.880576
 21
6.659810
 31
0.0
  0
LINE
  5
41b
100
AcDbEntity
  8
Layer_1
 62
7
100
AcDbLine
 10
196.880576
 20
6.659810
 30
0.0
 11
196.880576
 21
11.659882
 31
0.0
  0
LINE
  5
41c
100
AcDbEntity
  8
Layer_1
 62
7
100
AcDbLine
 10
196.880576
 20
11.659882
 30
0.0
 11
193.880311
 21
11.659882
 31
0.0
  0
LINE
  5
41d
100
AcDbEntity
  8
Layer_1
 62
7
100
AcDbLine
 10
193.880311
 20
11.659882
 30
0.0
 11
193.880311
 21
21.660032
 31
0.0
  0
LINE
  5
41e
100
AcDbEntity
  8
Layer_1
 62
7
100
AcDbLine
 10
193.880311
 20
21.660032
 30
0.0
 11
196.880576
 21
21.660032
 31
0.0
  0
LINE
  5
41f
100
AcDbEntity
  8
Layer_1
 62
7
100
AcDbLine
 10
196.880576
 20
21.660032
 30
0.0
 11
196.880576
 21
26.659553
 31
0.0
  0
LINE
  5
420
100
AcDbEntity
  8
Layer_1
 62
7
100
AcDbLine
 10
196.880576
 20
26.659553
 30
0.0
 11
202.880553
 21
26.659553
 31
0.0
  0
LINE
  5
421
100
AcDbEntity
  8
Layer_1
 62
7
100
AcDbLine
 10
202.880553
 20
26.659553
 30
0.0
 11
202.880553
 21
29.659818
 31
0.0
  0
LINE
  5
422
100
AcDbEntity
  8
Layer_1
 62
7
100
AcDbLine
 10
202.880553
 20
29.659818
 30
0.0
 11
212.880702
 21
29.659818
 31
0.0
  0
LINE
  5
423
100
AcDbEntity
  8
Layer_1
 62
7
100
AcDbLine
 10
212.880702
 20
29.659818
 30
0.0
 11
212.880702
 21
29.659818
 31
0.0
  0
SPLINE
  5
424
100
AcDbEntity
  8
Layer_1
 62
1
100
AcDbSpline
 70
8
 71
3
 72
8
 73
4
 74
0
 40
0
 40
0
 40
0
 40
0
 40
1
 40
1
 40
1
 40
1
 10
200.380549
 20
16.659793
 30
0.0
 10
200.380549
 20
19.339285
 30
0.0
 10
201.810041
 20
21.815238
 30
0.0
 10
204.130549
 20
23.154984
 30
0.0
  0
SPLINE
  5
425
100
AcDbEntity
  8
Layer_1
 62
1
100
AcDbSpline
 70
8
 71
3
 72
8
 73
4
 74
0
 40
0
 40
0
 40
0
 40
0
 40
1
 40
1
 40
1
 40
1
 10
204.130549
 20
23.154984
 30
0.0
 10
206.451057
 20
24.494730
 30
0.0
 10
209.310041
 20
24.494730
 30
0.0
 10
211.630549
 20
23.154984
 30
0.0
  0
SPLINE
  5
426
100
AcDbEntity
  8
Layer_1
 62
1
100
AcDbSpline
 70
8
 71
3
 72
8
 73
4
 74
0
 40
0
 40
0
 40
0
 40
0
 40
1
 40
1
 40
1
 40
1
 10
211.630549
 20
23.154984
 30
0.0
 10
213.951057
 20
21.815238
 30
0.0
 10
215.380549
 20
19.339285
 30
0.0
 10
215.380549
 20
16.659793
 30
0.0
  0
SPLINE
  5
427
100
AcDbEntity
  8
Layer_1
 62
1
100
AcDbSpline
 70
8
 71
3
 72
8
 73
4
 74
0
 40
0
 40
0
 40
0
 40
0
 40
1
 40
1
 40
1
 40
1
 10
215.380549
 20
16.659793
 30
0.0
 10
215.380549
 20
13.980301
 30
0.0
 10
213.951057
 20
11.504349
 30
0.0
 10
211.630549
 20
10.164603
 30
0.0
  0
SPLINE
  5
428
100
AcDbEntity
  8
Layer_1
 62
1
100
AcDbSpline
 70
8
 71
3
 72
8
 73
4
 74
0
 40
0
 40
0
 40
0
 40
0
 40
1
 40
1
 40
1
 40
1
 10
211.630549
 20
10.164603
 30
0.0
 10
209.310041
 20
8.824857
 30
0.0
 10
206.451057
 20
8.824857
 30
0.0
 10
204.130549
 20
10.164603
 30
0.0
  0
SPLINE
  5
429
100
AcDbEntity
  8
Layer_1
 62
1
100
AcDbSpline
 70
8
 71
3
 72
8
 73
4
 74
0
 40
0
 40
0
 40
0
 40
0
 40
1
 40
1
 40
1
 40
1
 10
204.130549
 20
10.164603
 30
0.0
 10
201.810041
 20
11.504349
 30
0.0
 10
200.380549
 20
13.980301
 30
0.0
 10
200.380549
 20
16.659793
 30
0.0
  0
LINE
  5
42a
100
AcDbEntity
  8
Layer_1
 62
1
100
AcDbLine
 10
200.380549
 20
16.659793
 30
0.0
 11
200.380549
 21
16.659793
 31
0.0
  0
LINE
  5
42b
100
AcDbEntity
  8
Layer_1
 62
7
100
AcDbLine
 10
171.617188
 20
112.782682
 30
0.0
 11
221.617187
 21
112.782682
 31
0.0
  0
LINE
  5
42c
100
AcDbEntity
  8
Layer_1
 62
7
100
AcDbLine
 10
221.617187
 20
112.782682
 30
0.0
 11
221.617187
 21
164.782679
 31
0.0
  0
LINE
  5
42d
100
AcDbEntity
  8
Layer_1
 62
7
100
AcDbLine
 10
221.617187
 20
164.782679
 30
0.0
 11
171.617188
 21
164.782679
 31
0.0
  0
LINE
  5
42e
100
AcDbEntity
  8
Layer_1
 62
7
100
AcDbLine
 10
171.617188
 20
164.782679
 30
0.0
 11
171.617188
 21
112.782682
 31
0.0
  0
LINE
  5
42f
100
AcDbEntity
  8
Layer_1
 62
7
100
AcDbLine
 10
171.617188
 20
112.782682
 30
0.0
 11
171.617188
 21
112.782682
 31
0.0
  0
LINE
  5
430
100
AcDbEntity
  8
Layer_1
 62
1
100
AcDbLine
 10
191.617188
 20
115.782676
 30
0.0
 11
201.617187
 21
115.782676
 31
0.0
  0
LINE
  5
431
100
AcDbEntity
  8
Layer_1
 62
1
100
AcDbLine
 10
201.617187
 20
115.782676
 30
0.0
 11
201.617187
 21
118.782670
 31
0.0
  0
LINE
  5
432
100
AcDbEntity
  8
Layer_1
 62
1
100
AcDbLine
 10
201.617187
 20
118.782670
 30
0.0
 11
191.617188
 21
118.782670
 31
0.0
  0
LINE
  5
433
100
AcDbEntity
  8
Layer_1
 62
1
100
AcDbLine
 10
191.617188
 20
118.782670
 30
0.0
 11
191.617188
 21
115.782676
 31
0.0
  0
LINE
  5
434
100
AcDbEntity
  8
Layer_1
 62
1
100
AcDbLine
 10
191.617188
 20
115.782676
 30
0.0
 11
191.617188
 21
115.782676
 31
0.0
  0
LINE
  5
435
100
AcDbEntity
  8
Layer_1
 62
1
100
AcDbLine
 10
191.617188
 20
130.782679
 30
0.0
 11
201.617187
 21
130.782679
 31
0.0
  0
LINE
  5
436
100
AcDbEntity
  8
Layer_1
 62
1
100
AcDbLine
 10
201.617187
 20
130.782679
 30
0.0
 11
201.617187
 21
136.782679
 31
0.0
  0
LINE
  5
437
100
AcDbEntity
  8
Layer_1
 62
1
100
AcDbLine
 10
201.617187
 20
136.782679
 30
0.0
 11
191.617188
 21
136.782679
 31
0.0
  0
LINE
  5
438
100
AcDbEntity
  8
Layer_1
 62
1
100
AcDbLine
 10
191.617188
 20
136.782679
 30
0.0
 11
191.617188
 21
130.782679
 31
0.0
  0
LINE
  5
439
100
AcDbEntity
  8
Layer_1
 62
1
100
AcDbLine
 10
191.617188
 20
130.782679
 30
0.0
 11
191.617188
 21
130.782679
 31
0.0
  0
LINE
  5
43a
100
AcDbEntity
  8
Layer_1
 62
1
100
AcDbLine
 10
205.617187
 20
152.782681
 30
0.0
 11
211.617187
 21
152.782681
 31
0.0
  0
LINE
  5
43b
100
AcDbEntity
  8
Layer_1
 62
1
100
AcDbLine
 10
211.617187
 20
152.782681
 30
0.0
 11
211.617187
 21
142.782681
 31
0.0
  0
LINE
  5
43c
100
AcDbEntity
  8
Layer_1
 62
1
100
AcDbLine
 10
211.617187
 20
142.782681
 30
0.0
 11
205.617187
 21
142.782681
 31
0.0
  0
LINE
  5
43d
100
AcDbEntity
  8
Layer_1
 62
1
100
AcDbLine
 10
205.617187
 20
142.782681
 30
0.0
 11
205.617187
 21
152.782681
 31
0.0
  0
LINE
  5
43e
100
AcDbEntity
  8
Layer_1
 62
1
100
AcDbLine
 10
205.617187
 20
152.782681
 30
0.0
 11
205.617187
 21
152.782681
 31
0.0
  0
LINE
  5
43f
100
AcDbEntity
  8
Layer_1
 62
1
100
AcDbLine
 10
191.617188
 20
161.782679
 30
0.0
 11
201.617187
 21
161.782679
 31
0.0
  0
LINE
  5
440
100
AcDbEntity
  8
Layer_1
 62
1
100
AcDbLine
 10
201.617187
 20
161.782679
 30
0.0
 11
201.617187
 21
158.782680
 31
0.0
  0
LINE
  5
441
100
AcDbEntity
  8
Layer_1
 62
1
100
AcDbLine
 10
201.617187
 20
158.782680
 30
0.0
 11
191.617188
 21
158.782680
 31
0.0
  0
LINE
  5
442
100
AcDbEntity
  8
Layer_1
 62
1
100
AcDbLine
 10
191.617188
 20
158.782680
 30
0.0
 11
191.617188
 21
161.782679
 31
0.0
  0
LINE
  5
443
100
AcDbEntity
  8
Layer_1
 62
1
100
AcDbLine
 10
191.617188
 20
161.782679
 30
0.0
 11
191.617188
 21
161.782679
 31
0.0
  0
LINE
  5
444
100
AcDbEntity
  8
Layer_1
 62
1
100
AcDbLine
 10
181.617188
 20
152.782681
 30
0.0
 11
181.617188
 21
142.782681
 31
0.0
  0
LINE
  5
445
100
AcDbEntity
  8
Layer_1
 62
1
100
AcDbLine
 10
181.617188
 20
142.782681
 30
0.0
 11
187.617187
 21
142.782681
 31
0.0
  0
LINE
  5
446
100
AcDbEntity
  8
Layer_1
 62
1
100
AcDbLine
 10
187.617187
 20
142.782681
 30
0.0
 11
187.617187
 21
152.782681
 31
0.0
  0
LINE
  5
447
100
AcDbEntity
  8
Layer_1
 62
1
100
AcDbLine
 10
187.617187
 20
152.782681
 30
0.0
 11
181.617188
 21
152.782681
 31
0.0
  0
LINE
  5
448
100
AcDbEntity
  8
Layer_1
 62
1
100
AcDbLine
 10
181.617188
 20
152.782681
 30
0.0
 11
181.617188
 21
152.782681
 31
0.0
  0
SPLINE
  5
449
100
AcDbEntity
  8
Layer_1
 62
1
100
AcDbSpline
 70
8
 71
3
 72
8
 73
4
 74
0
 40
0
 40
0
 40
0
 40
0
 40
1
 40
1
 40
1
 40
1
 10
193.717187
 20
124.782686
 30
0.0
 10
193.716864
 20
125.818971
 30
0.0
 10
194.269530
 20
126.776677
 30
0.0
 10
195.166926
 20
127.294913
 30
0.0
  0
SPLINE
  5
44a
100
AcDbEntity
  8
Layer_1
 62
1
100
AcDbSpline
 70
8
 71
3
 72
8
 73
4
 74
0
 40
0
 40
0
 40
0
 40
0
 40
1
 40
1
 40
1
 40
1
 10
195.166926
 20
127.294913
 30
0.0
 10
196.064322
 20
127.813150
 30
0.0
 10
197.170052
 20
127.813150
 30
0.0
 10
198.067448
 20
127.294913
 30
0.0
  0
SPLINE
  5
44b
100
AcDbEntity
  8
Layer_1
 62
1
100
AcDbSpline
 70
8
 71
3
 72
8
 73
4
 74
0
 40
0
 40
0
 40
0
 40
0
 40
1
 40
1
 40
1
 40
1
 10
198.067448
 20
127.294913
 30
0.0
 10
198.964844
 20
126.776677
 30
0.0
 10
199.517510
 20
125.818971
 30
0.0
 10
199.517187
 20
124.782686
 30
0.0
  0
SPLINE
  5
44c
100
AcDbEntity
  8
Layer_1
 62
1
100
AcDbSpline
 70
8
 71
3
 72
8
 73
4
 74
0
 40
0
 40
0
 40
0
 40
0
 40
1
 40
1
 40
1
 40
1
 10
199.517187
 20
124.782686
 30
0.0
 10
199.517510
 20
123.746400
 30
0.0
 10
198.964844
 20
122.788694
 30
0.0
 10
198.067448
 20
122.270458
 30
0.0
  0
SPLINE
  5
44d
100
AcDbEntity
  8
Layer_1
 62
1
100
AcDbSpline
 70
8
 71
3
 72
8
 73
4
 74
0
 40
0
 40
0
 40
0
 40
0
 40
1
 40
1
 40
1
 40
1
 10
198.067448
 20
122.270458
 30
0.0
 10
197.170052
 20
121.752222
 30
0.0
 10
196.064322
 20
121.752222
 30
0.0
 10
195.166926
 20
122.270458
 30
0.0
  0
SPLINE
  5
44e
100
AcDbEntity
  8
Layer_1
 62
1
100
AcDbSpline
 70
8
 71
3
 72
8
 73
4
 74
0
 40
0
 40
0
 40
0
 40
0
 40
1
 40
1
 40
1
 40
1
 10
195.166926
 20
122.270458
 30
0.0
 10
194.269530
 20
122.788694
 30
0.0
 10
193.716864
 20
123.746400
 30
0.0
 10
193.717187
 20
124.782686
 30
0.0
  0
LINE
  5
44f
100
AcDbEntity
  8
Layer_1
 62
1
100
AcDbLine
 10
193.717187
 20
124.782686
 30
0.0
 11
193.717187
 21
124.782686
 31
0.0
  0
SPLINE
  5
450
100
AcDbEntity
  8
Layer_1
 62
1
100
AcDbSpline
 70
8
 71
3
 72
8
 73
4
 74
0
 40
0
 40
0
 40
0
 40
0
 40
1
 40
1
 40
1
 40
1
 10
215.117187
 20
156.782681
 30
0.0
 10
215.117187
 20
157.407896
 30
0.0
 10
215.450735
 20
157.985618
 30
0.0
 10
215.992187
 20
158.298226
 30
0.0
  0
SPLINE
  5
451
100
AcDbEntity
  8
Layer_1
 62
1
100
AcDbSpline
 70
8
 71
3
 72
8
 73
4
 74
0
 40
0
 40
0
 40
0
 40
0
 40
1
 40
1
 40
1
 40
1
 10
215.992187
 20
158.298226
 30
0.0
 10
216.533639
 20
158.610833
 30
0.0
 10
217.200735
 20
158.610833
 30
0.0
 10
217.742187
 20
158.298226
 30
0.0
  0
SPLINE
  5
452
100
AcDbEntity
  8
Layer_1
 62
1
100
AcDbSpline
 70
8
 71
3
 72
8
 73
4
 74
0
 40
0
 40
0
 40
0
 40
0
 40
1
 40
1
 40
1
 40
1
 10
217.742187
 20
158.298226
 30
0.0
 10
218.283639
 20
157.985618
 30
0.0
 10
218.617187
 20
157.407896
 30
0.0
 10
218.617187
 20
156.782681
 30
0.0
  0
SPLINE
  5
453
100
AcDbEntity
  8
Layer_1
 62
1
100
AcDbSpline
 70
8
 71
3
 72
8
 73
4
 74
0
 40
0
 40
0
 40
0
 40
0
 40
1
 40
1
 40
1
 40
1
 10
218.617187
 20
156.782681
 30
0.0
 10
218.617187
 20
156.157466
 30
0.0
 10
218.283639
 20
155.579744
 30
0.0
 10
217.742187
 20
155.267137
 30
0.0
  0
SPLINE
  5
454
100
AcDbEntity
  8
Layer_1
 62
1
100
AcDbSpline
 70
8
 71
3
 72
8
 73
4
 74
0
 40
0
 40
0
 40
0
 40
0
 40
1
 40
1
 40
1
 40
1
 10
217.742187
 20
155.267137
 30
0.0
 10
217.200735
 20
154.954529
 30
0.0
 10
216.533639
 20
154.954529
 30
0.0
 10
215.992187
 20
155.267137
 30
0.0
  0
SPLINE
  5
455
100
AcDbEntity
  8
Layer_1
 62
1
100
AcDbSpline
 70
8
 71
3
 72
8
 73
4
 74
0
 40
0
 40
0
 40
0
 40
0
 40
1
 40
1
 40
1
 40
1
 10
215.992187
 20
155.267137
 30
0.0
 10
215.450735
 20
155.579744
 30
0.0
 10
215.117187
 20
156.157466
 30
0.0
 10
215.117187
 20
156.782681
 30
0.0
  0
LINE
  5
456
100
AcDbEntity
  8
Layer_1
 62
1
100
AcDbLine
 10
215.117187
 20
156.782681
 30
0.0
 11
215.117187
 21
156.782681
 31
0.0
  0
SPLINE
  5
457
100
AcDbEntity
  8
Layer_1
 62
1
100
AcDbSpline
 70
8
 71
3
 72
8
 73
4
 74
0
 40
0
 40
0
 40
0
 40
0
 40
1
 40
1
 40
1
 40
1
 10
174.617188
 20
156.782681
 30
0.0
 10
174.616626
 20
157.408270
 30
0.0
 10
174.950051
 20
157.986578
 30
0.0
 10
175.491734
 20
158.299535
 30
0.0
  0
SPLINE
  5
458
100
AcDbEntity
  8
Layer_1
 62
1
100
AcDbSpline
 70
8
 71
3
 72
8
 73
4
 74
0
 40
0
 40
0
 40
0
 40
0
 40
1
 40
1
 40
1
 40
1
 10
175.491734
 20
158.299535
 30
0.0
 10
176.033416
 20
158.612492
 30
0.0
 10
176.700959
 20
158.612492
 30
0.0
 10
177.242641
 20
158.299535
 30
0.0
  0
SPLINE
  5
459
100
AcDbEntity
  8
Layer_1
 62
1
100
AcDbSpline
 70
8
 71
3
 72
8
 73
4
 74
0
 40
0
 40
0
 40
0
 40
0
 40
1
 40
1
 40
1
 40
1
 10
177.242641
 20
158.299535
 30
0.0
 10
177.784323
 20
157.986578
 30
0.0
 10
178.117748
 20
157.408270
 30
0.0
 10
178.117187
 20
156.782681
 30
0.0
  0
SPLINE
  5
45a
100
AcDbEntity
  8
Layer_1
 62
1
100
AcDbSpline
 70
8
 71
3
 72
8
 73
4
 74
0
 40
0
 40
0
 40
0
 40
0
 40
1
 40
1
 40
1
 40
1
 10
178.117187
 20
156.782681
 30
0.0
 10
178.117748
 20
156.157092
 30
0.0
 10
177.784323
 20
155.578784
 30
0.0
 10
177.242641
 20
155.265827
 30
0.0
  0
SPLINE
  5
45b
100
AcDbEntity
  8
Layer_1
 62
1
100
AcDbSpline
 70
8
 71
3
 72
8
 73
4
 74
0
 40
0
 40
0
 40
0
 40
0
 40
1
 40
1
 40
1
 40
1
 10
177.242641
 20
155.265827
 30
0.0
 10
176.700959
 20
154.952870
 30
0.0
 10
176.033416
 20
154.952870
 30
0.0
 10
175.491734
 20
155.265827
 30
0.0
  0
SPLINE
  5
45c
100
AcDbEntity
  8
Layer_1
 62
1
100
AcDbSpline
 70
8
 71
3
 72
8
 73
4
 74
0
 40
0
 40
0
 40
0
 40
0
 40
1
 40
1
 40
1
 40
1
 10
175.491734
 20
155.265827
 30
0.0
 10
174.950051
 20
155.578784
 30
0.0
 10
174.616626
 20
156.157092
 30
0.0
 10
174.617188
 20
156.782681
 30
0.0
  0
LINE
  5
45d
100
AcDbEntity
  8
Layer_1
 62
1
100
AcDbLine
 10
174.617188
 20
156.782681
 30
0.0
 11
174.617188
 21
156.782681
 31
0.0
  0
SPLINE
  5
45e
100
AcDbEntity
  8
Layer_1
 62
1
100
AcDbSpline
 70
8
 71
3
 72
8
 73
4
 74
0
 40
0
 40
0
 40
0
 40
0
 40
1
 40
1
 40
1
 40
1
 10
215.117187
 20
124.782686
 30
0.0
 10
215.117187
 20
125.407901
 30
0.0
 10
215.450735
 20
125.985623
 30
0.0
 10
215.992187
 20
126.298230
 30
0.0
  0
SPLINE
  5
45f
100
AcDbEntity
  8
Layer_1
 62
1
100
AcDbSpline
 70
8
 71
3
 72
8
 73
4
 74
0
 40
0
 40
0
 40
0
 40
0
 40
1
 40
1
 40
1
 40
1
 10
215.992187
 20
126.298230
 30
0.0
 10
216.533639
 20
126.610838
 30
0.0
 10
217.200735
 20
126.610838
 30
0.0
 10
217.742187
 20
126.298230
 30
0.0
  0
SPLINE
  5
460
100
AcDbEntity
  8
Layer_1
 62
1
100
AcDbSpline
 70
8
 71
3
 72
8
 73
4
 74
0
 40
0
 40
0
 40
0
 40
0
 40
1
 40
1
 40
1
 40
1
 10
217.742187
 20
126.298230
 30
0.0
 10
218.283639
 20
125.985623
 30
0.0
 10
218.617187
 20
125.407901
 30
0.0
 10
218.617187
 20
124.782686
 30
0.0
  0
SPLINE
  5
461
100
AcDbEntity
  8
Layer_1
 62
1
100
AcDbSpline
 70
8
 71
3
 72
8
 73
4
 74
0
 40
0
 40
0
 40
0
 40
0
 40
1
 40
1
 40
1
 40
1
 10
218.617187
 20
124.782686
 30
0.0
 10
218.617187
 20
124.157471
 30
0.0
 10
218.283639
 20
123.579749
 30
0.0
 10
217.742187
 20
123.267141
 30
0.0
  0
SPLINE
  5
462
100
AcDbEntity
  8
Layer_1
 62
1
100
AcDbSpline
 70
8
 71
3
 72
8
 73
4
 74
0
 40
0
 40
0
 40
0
 40
0
 40
1
 40
1
 40
1
 40
1
 10
217.742187
 20
123.267141
 30
0.0
 10
217.200735
 20
122.954534
 30
0.0
 10
216.533639
 20
122.954534
 30
0.0
 10
215.992187
 20
123.267141
 30
0.0
  0
SPLINE
  5
463
100
AcDbEntity
  8
Layer_1
 62
1
100
AcDbSpline
 70
8
 71
3
 72
8
 73
4
 74
0
 40
0
 40
0
 40
0
 40
0
 40
1
 40
1
 40
1
 40
1
 10
215.992187
 20
123.267141
 30
0.0
 10
215.450735
 20
123.579749
 30
0.0
 10
215.117187
 20
124.157471
 30
0.0
 10
215.117187
 20
124.782686
 30
0.0
  0
LINE
  5
464
100
AcDbEntity
  8
Layer_1
 62
1
100
AcDbLine
 10
215.117187
 20
124.782686
 30
0.0
 11
215.117187
 21
124.782686
 31
0.0
  0
SPLINE
  5
465
100
AcDbEntity
  8
Layer_1
 62
1
100
AcDbSpline
 70
8
 71
3
 72
8
 73
4
 74
0
 40
0
 40
0
 40
0
 40
0
 40
1
 40
1
 40
1
 40
1
 10
174.617188
 20
124.782686
 30
0.0
 10
174.616626
 20
125.408275
 30
0.0
 10
174.950051
 20
125.986583
 30
0.0
 10
175.491734
 20
126.299540
 30
0.0
  0
SPLINE
  5
466
100
AcDbEntity
  8
Layer_1
 62
1
100
AcDbSpline
 70
8
 71
3
 72
8
 73
4
 74
0
 40
0
 40
0
 40
0
 40
0
 40
1
 40
1
 40
1
 40
1
 10
175.491734
 20
126.299540
 30
0.0
 10
176.033416
 20
126.612496
 30
0.0
 10
176.700959
 20
126.612496
 30
0.0
 10
177.242641
 20
126.299540
 30
0.0
  0
SPLINE
  5
467
100
AcDbEntity
  8
Layer_1
 62
1
100
AcDbSpline
 70
8
 71
3
 72
8
 73
4
 74
0
 40
0
 40
0
 40
0
 40
0
 40
1
 40
1
 40
1
 40
1
 10
177.242641
 20
126.299540
 30
0.0
 10
177.784323
 20
125.986583
 30
0.0
 10
178.117748
 20
125.408275
 30
0.0
 10
178.117187
 20
124.782686
 30
0.0
  0
SPLINE
  5
468
100
AcDbEntity
  8
Layer_1
 62
1
100
AcDbSpline
 70
8
 71
3
 72
8
 73
4
 74
0
 40
0
 40
0
 40
0
 40
0
 40
1
 40
1
 40
1
 40
1
 10
178.117187
 20
124.782686
 30
0.0
 10
178.117748
 20
124.157097
 30
0.0
 10
177.784323
 20
123.578788
 30
0.0
 10
177.242641
 20
123.265832
 30
0.0
  0
SPLINE
  5
469
100
AcDbEntity
  8
Layer_1
 62
1
100
AcDbSpline
 70
8
 71
3
 72
8
 73
4
 74
0
 40
0
 40
0
 40
0
 40
0
 40
1
 40
1
 40
1
 40
1
 10
177.242641
 20
123.265832
 30
0.0
 10
176.700959
 20
122.952875
 30
0.0
 10
176.033416
 20
122.952875
 30
0.0
 10
175.491734
 20
123.265832
 30
0.0
  0
SPLINE
  5
46a
100
AcDbEntity
  8
Layer_1
 62
1
100
AcDbSpline
 70
8
 71
3
 72
8
 73
4
 74
0
 40
0
 40
0
 40
0
 40
0
 40
1
 40
1
 40
1
 40
1
 10
175.491734
 20
123.265832
 30
0.0
 10
174.950051
 20
123.578788
 30
0.0
 10
174.616626
 20
124.157097
 30
0.0
 10
174.617188
 20
124.782686
 30
0.0
  0
LINE
  5
46b
100
AcDbEntity
  8
Layer_1
 62
1
100
AcDbLine
 10
174.617188
 20
124.782686
 30
0.0
 11
174.617188
 21
124.782686
 31
0.0
  0
LINE
  5
46c
100
AcDbEntity
  8
Layer_1
 62
7
100
AcDbLine
 10
144.307780
 20
139.751007
 30
0.0
 11
147.307492
 21
139.751007
 31
0.0
  0
LINE
  5
46d
100
AcDbEntity
  8
Layer_1
 62
7
100
AcDbLine
 10
147.307492
 20
139.751007
 30
0.0
 11
147.307492
 21
159.750750
 31
0.0
  0
LINE
  5
46e
100
AcDbEntity
  8
Layer_1
 62
7
100
AcDbLine
 10
147.307492
 20
159.750750
 30
0.0
 11
167.307788
 21
159.750750
 31
0.0
  0
LINE
  5
46f
100
AcDbEntity
  8
Layer_1
 62
7
100
AcDbLine
 10
167.307788
 20
159.750750
 30
0.0
 11
167.307788
 21
139.751007
 31
0.0
  0
LINE
  5
470
100
AcDbEntity
  8
Layer_1
 62
7
100
AcDbLine
 10
167.307788
 20
139.751007
 30
0.0
 11
170.307502
 21
139.751007
 31
0.0
  0
LINE
  5
471
100
AcDbEntity
  8
Layer_1
 62
7
100
AcDbLine
 10
170.307502
 20
139.751007
 30
0.0
 11
170.307502
 21
129.750858
 31
0.0
  0
LINE
  5
472
100
AcDbEntity
  8
Layer_1
 62
7
100
AcDbLine
 10
170.307502
 20
129.750858
 30
0.0
 11
167.307788
 21
129.750858
 31
0.0
  0
LINE
  5
473
100
AcDbEntity
  8
Layer_1
 62
7
100
AcDbLine
 10
167.307788
 20
129.750858
 30
0.0
 11
167.307788
 21
109.751115
 31
0.0
  0
LINE
  5
474
100
AcDbEntity
  8
Layer_1
 62
7
100
AcDbLine
 10
167.307788
 20
109.751115
 30
0.0
 11
147.307492
 21
109.751115
 31
0.0
  0
LINE
  5
475
100
AcDbEntity
  8
Layer_1
 62
7
100
AcDbLine
 10
147.307492
 20
109.751115
 30
0.0
 11
147.307492
 21
129.750858
 31
0.0
  0
LINE
  5
476
100
AcDbEntity
  8
Layer_1
 62
7
100
AcDbLine
 10
147.307492
 20
129.750858
 30
0.0
 11
144.307780
 21
129.750858
 31
0.0
  0
LINE
  5
477
100
AcDbEntity
  8
Layer_1
 62
7
100
AcDbLine
 10
144.307780
 20
129.750858
 30
0.0
 11
144.307780
 21
139.751007
 31
0.0
  0
LINE
  5
478
100
AcDbEntity
  8
Layer_1
 62
7
100
AcDbLine
 10
144.307780
 20
139.751007
 30
0.0
 11
144.307780
 21
139.751007
 31
0.0
  0
SPLINE
  5
479
100
AcDbEntity
  8
Layer_1
 62
1
100
AcDbSpline
 70
8
 71
3
 72
8
 73
4
 74
0
 40
0
 40
0
 40
0
 40
0
 40
1
 40
1
 40
1
 40
1
 10
157.307568
 20
141.700933
 30
0.0
 10
155.860388
 20
141.700551
 30
0.0
 10
154.522974
 20
142.472394
 30
0.0
 10
153.799274
 20
143.725625
 30
0.0
  0
SPLINE
  5
47a
100
AcDbEntity
  8
Layer_1
 62
1
100
AcDbSpline
 70
8
 71
3
 72
8
 73
4
 74
0
 40
0
 40
0
 40
0
 40
0
 40
1
 40
1
 40
1
 40
1
 10
153.799274
 20
143.725625
 30
0.0
 10
153.075574
 20
144.978856
 30
0.0
 10
153.075574
 20
146.523011
 30
0.0
 10
153.799274
 20
147.776242
 30
0.0
  0
SPLINE
  5
47b
100
AcDbEntity
  8
Layer_1
 62
1
100
AcDbSpline
 70
8
 71
3
 72
8
 73
4
 74
0
 40
0
 40
0
 40
0
 40
0
 40
1
 40
1
 40
1
 40
1
 10
153.799274
 20
147.776242
 30
0.0
 10
154.522974
 20
149.029473
 30
0.0
 10
155.860388
 20
149.801315
 30
0.0
 10
157.307568
 20
149.800933
 30
0.0
  0
SPLINE
  5
47c
100
AcDbEntity
  8
Layer_1
 62
1
100
AcDbSpline
 70
8
 71
3
 72
8
 73
4
 74
0
 40
0
 40
0
 40
0
 40
0
 40
1
 40
1
 40
1
 40
1
 10
157.307568
 20
149.800933
 30
0.0
 10
158.754748
 20
149.801315
 30
0.0
 10
160.092161
 20
149.029473
 30
0.0
 10
160.815862
 20
147.776242
 30
0.0
  0
SPLINE
  5
47d
100
AcDbEntity
  8
Layer_1
 62
1
100
AcDbSpline
 70
8
 71
3
 72
8
 73
4
 74
0
 40
0
 40
0
 40
0
 40
0
 40
1
 40
1
 40
1
 40
1
 10
160.815862
 20
147.776242
 30
0.0
 10
161.539562
 20
146.523011
 30
0.0
 10
161.539562
 20
144.978856
 30
0.0
 10
160.815862
 20
143.725625
 30
0.0
  0
SPLINE
  5
47e
100
AcDbEntity
  8
Layer_1
 62
1
100
AcDbSpline
 70
8
 71
3
 72
8
 73
4
 74
0
 40
0
 40
0
 40
0
 40
0
 40
1
 40
1
 40
1
 40
1
 10
160.815862
 20
143.725625
 30
0.0
 10
160.092161
 20
142.472394
 30
0.0
 10
158.754748
 20
141.700551
 30
0.0
 10
157.307568
 20
141.700933
 30
0.0
  0
LINE
  5
47f
100
AcDbEntity
  8
Layer_1
 62
1
100
AcDbLine
 10
157.307568
 20
141.700933
 30
0.0
 11
157.307568
 21
141.700933
 31
0.0
  0
SPLINE
  5
480
100
AcDbEntity
  8
Layer_1
 62
1
100
AcDbSpline
 70
8
 71
3
 72
8
 73
4
 74
0
 40
0
 40
0
 40
0
 40
0
 40
1
 40
1
 40
1
 40
1
 10
157.307568
 20
119.700933
 30
0.0
 10
155.860642
 20
119.700933
 30
0.0
 10
154.523628
 20
120.472859
 30
0.0
 10
153.800165
 20
121.725933
 30
0.0
  0
SPLINE
  5
481
100
AcDbEntity
  8
Layer_1
 62
1
100
AcDbSpline
 70
8
 71
3
 72
8
 73
4
 74
0
 40
0
 40
0
 40
0
 40
0
 40
1
 40
1
 40
1
 40
1
 10
153.800165
 20
121.725933
 30
0.0
 10
153.076702
 20
122.979008
 30
0.0
 10
153.076702
 20
124.522859
 30
0.0
 10
153.800165
 20
125.775934
 30
0.0
  0
SPLINE
  5
482
100
AcDbEntity
  8
Layer_1
 62
1
100
AcDbSpline
 70
8
 71
3
 72
8
 73
4
 74
0
 40
0
 40
0
 40
0
 40
0
 40
1
 40
1
 40
1
 40
1
 10
153.800165
 20
125.775934
 30
0.0
 10
154.523628
 20
127.029008
 30
0.0
 10
155.860642
 20
127.800934
 30
0.0
 10
157.307568
 20
127.800934
 30
0.0
  0
SPLINE
  5
483
100
AcDbEntity
  8
Layer_1
 62
1
100
AcDbSpline
 70
8
 71
3
 72
8
 73
4
 74
0
 40
0
 40
0
 40
0
 40
0
 40
1
 40
1
 40
1
 40
1
 10
157.307568
 20
127.800934
 30
0.0
 10
158.754494
 20
127.800934
 30
0.0
 10
160.091508
 20
127.029008
 30
0.0
 10
160.814971
 20
125.775934
 30
0.0
  0
SPLINE
  5
484
100
AcDbEntity
  8
Layer_1
 62
1
100
AcDbSpline
 70
8
 71
3
 72
8
 73
4
 74
0
 40
0
 40
0
 40
0
 40
0
 40
1
 40
1
 40
1
 40
1
 10
160.814971
 20
125.775934
 30
0.0
 10
161.538434
 20
124.522859
 30
0.0
 10
161.538434
 20
122.979008
 30
0.0
 10
160.814971
 20
121.725933
 30
0.0
  0
SPLINE
  5
485
100
AcDbEntity
  8
Layer_1
 62
1
100
AcDbSpline
 70
8
 71
3
 72
8
 73
4
 74
0
 40
0
 40
0
 40
0
 40
0
 40
1
 40
1
 40
1
 40
1
 10
160.814971
 20
121.725933
 30
0.0
 10
160.091508
 20
120.472859
 30
0.0
 10
158.754494
 20
119.700933
 30
0.0
 10
157.307568
 20
119.700933
 30
0.0
  0
LINE
  5
486
100
AcDbEntity
  8
Layer_1
 62
1
100
AcDbLine
 10
157.307568
 20
119.700933
 30
0.0
 11
157.307568
 21
119.700933
 31
0.0
  0
LINE
  5
487
100
AcDbEntity
  8
Layer_1
 62
7
100
AcDbLine
 10
243.336036
 20
135.713711
 30
0.0
 11
243.336036
 21
138.713976
 31
0.0
  0
LINE
  5
488
100
AcDbEntity
  8
Layer_1
 62
7
100
AcDbLine
 10
243.336036
 20
138.713976
 30
0.0
 11
223.336293
 21
138.713976
 31
0.0
  0
LINE
  5
489
100
AcDbEntity
  8
Layer_1
 62
7
100
AcDbLine
 10
223.336293
 20
138.713976
 30
0.0
 11
223.336293
 21
158.713719
 31
0.0
  0
LINE
  5
48a
100
AcDbEntity
  8
Layer_1
 62
7
100
AcDbLine
 10
223.336293
 20
158.713719
 30
0.0
 11
243.336036
 21
158.713719
 31
0.0
  0
LINE
  5
48b
100
AcDbEntity
  8
Layer_1
 62
7
100
AcDbLine
 10
243.336036
 20
158.713719
 30
0.0
 11
243.336036
 21
161.713984
 31
0.0
  0
LINE
  5
48c
100
AcDbEntity
  8
Layer_1
 62
7
100
AcDbLine
 10
243.336036
 20
161.713984
 30
0.0
 11
253.336185
 21
161.713984
 31
0.0
  0
LINE
  5
48d
100
AcDbEntity
  8
Layer_1
 62
7
100
AcDbLine
 10
253.336185
 20
161.713984
 30
0.0
 11
253.336185
 21
158.713719
 31
0.0
  0
LINE
  5
48e
100
AcDbEntity
  8
Layer_1
 62
7
100
AcDbLine
 10
253.336185
 20
158.713719
 30
0.0
 11
273.335928
 21
158.713719
 31
0.0
  0
LINE
  5
48f
100
AcDbEntity
  8
Layer_1
 62
7
100
AcDbLine
 10
273.335928
 20
158.713719
 30
0.0
 11
273.335928
 21
138.713976
 31
0.0
  0
LINE
  5
490
100
AcDbEntity
  8
Layer_1
 62
7
100
AcDbLine
 10
273.335928
 20
138.713976
 30
0.0
 11
253.336185
 21
138.713976
 31
0.0
  0
LINE
  5
491
100
AcDbEntity
  8
Layer_1
 62
7
100
AcDbLine
 10
253.336185
 20
138.713976
 30
0.0
 11
253.336185
 21
135.713711
 31
0.0
  0
LINE
  5
492
100
AcDbEntity
  8
Layer_1
 62
7
100
AcDbLine
 10
253.336185
 20
135.713711
 30
0.0
 11
243.336036
 21
135.713711
 31
0.0
  0
LINE
  5
493
100
AcDbEntity
  8
Layer_1
 62
7
100
AcDbLine
 10
243.336036
 20
135.713711
 30
0.0
 11
243.336036
 21
135.713711
 31
0.0
  0
LINE
  5
494
100
AcDbEntity
  8
Layer_1
 62
1
100
AcDbLine
 10
239.336189
 20
143.713822
 30
0.0
 11
233.336189
 21
143.713822
 31
0.0
  0
LINE
  5
495
100
AcDbEntity
  8
Layer_1
 62
1
100
AcDbLine
 10
233.336189
 20
143.713822
 30
0.0
 11
233.336189
 21
153.713830
 31
0.0
  0
LINE
  5
496
100
AcDbEntity
  8
Layer_1
 62
1
100
AcDbLine
 10
233.336189
 20
153.713830
 30
0.0
 11
239.336189
 21
153.713830
 31
0.0
  0
LINE
  5
497
100
AcDbEntity
  8
Layer_1
 62
1
100
AcDbLine
 10
239.336189
 20
153.713830
 30
0.0
 11
239.336189
 21
143.713822
 31
0.0
  0
LINE
  5
498
100
AcDbEntity
  8
Layer_1
 62
1
100
AcDbLine
 10
239.336189
 20
143.713822
 30
0.0
 11
239.336189
 21
143.713822
 31
0.0
  0
LINE
  5
499
100
AcDbEntity
  8
Layer_1
 62
1
100
AcDbLine
 10
263.336188
 20
143.713822
 30
0.0
 11
263.336188
 21
153.713830
 31
0.0
  0
LINE
  5
49a
100
AcDbEntity
  8
Layer_1
 62
1
100
AcDbLine
 10
263.336188
 20
153.713830
 30
0.0
 11
257.336188
 21
153.713830
 31
0.0
  0
LINE
  5
49b
100
AcDbEntity
  8
Layer_1
 62
1
100
AcDbLine
 10
257.336188
 20
153.713830
 30
0.0
 11
257.336188
 21
143.713822
 31
0.0
  0
LINE
  5
49c
100
AcDbEntity
  8
Layer_1
 62
1
100
AcDbLine
 10
257.336188
 20
143.713822
 30
0.0
 11
263.336188
 21
143.713822
 31
0.0
  0
LINE
  5
49d
100
AcDbEntity
  8
Layer_1
 62
1
100
AcDbLine
 10
263.336188
 20
143.713822
 30
0.0
 11
263.336188
 21
143.713822
 31
0.0
  0
ENDSEC
  0
SECTION
  2
OBJECTS
  0
DICTIONARY
  5
C
330
0
100
AcDbDictionary
  3
ACAD_GROUP
350
D
  3
ACAD_MLINESTYLE
350
17
  0
DICTIONARY
  5
D
330
C
100
AcDbDictionary
  0
DICTIONARY
  5
1A
330
C
100
AcDbDictionary
  0
DICTIONARY
  5
17
330
C
100
AcDbDictionary
  3
STANDARD
350
18
  0
DICTIONARY
  5
19
330
C
100
AcDbDictionary
  0
ENDSEC
  0
EOF
