0
SECTION
2
HEADER
9
$INSUNITS
70
4
9
$ACADVER
1
AC1014
9
$HANDSEED
5
FFFF
0
ENDSEC
0
SECTION
2
TABLES
0
TABLE
2
VPORT
5
8
100
AcDbSymbolTable
0
ENDTAB
0
TABLE
2
LTYPE
5
5
100
AcDbSymbolTable
0
LTYPE
5
14
100
AcDbSymbolTableRecord
100
AcDbLinetypeTableRecord
2
BYBLOCK
70
0
0
LTYPE
5
15
100
AcDbSymbolTableRecord
100
AcDbLinetypeTableRecord
2
BYLAYER
70
0
0
ENDTAB
0
TABLE
2
LAYER
5
2
100
AcDbSymbolTable
70
2
0
LAYER
5
50
100
AcDbSymbolTableRecord
100
AcDbLayerTableRecord
2
0
70
0
6
CONTINUOUS
0
ENDTAB
0
TABLE
2
STYLE
5
3
100
AcDbSymbolTable
70
1
0
STYLE
5
11
100
AcDbSymbolTableRecord
100
AcDbTextStyleTableRecord
2
STANDARD
70
0
0
ENDTAB
0
TABLE
2
VIEW
5
6
100
AcDbSymbolTable
70
0
0
ENDTAB
0
TABLE
2
UCS
5
7
100
AcDbSymbolTable
70
0
0
ENDTAB
0
TABLE
2
APPID
5
9
100
AcDbSymbolTable
70
2
0
APPID
5
12
100
AcDbSymbolTableRecord
100
AcDbRegAppTableRecord
2
ACAD
70
0
0
ENDTAB
0
TABLE
2
DIMSTYLE
5
A
100
AcDbSymbolTable
70
1
0
ENDTAB
0
TABLE
2
BLOCK_RECORD
5
1
100
AcDbSymbolTable
70
1
0
BLOCK_RECORD
5
1F
100
AcDbSymbolTableRecord
100
AcDbBlockTableRecord
2
*MODEL_SPACE
0
BLOCK_RECORD
5
1B
100
AcDbSymbolTableRecord
100
AcDbBlockTableRecord
2
*PAPER_SPACE
0
ENDTAB
0
ENDSEC
0
SECTION
2
BLOCKS
0
BLOCK
5
20
100
AcDbEntity
100
AcDbBlockBegin
2
*MODEL_SPACE
0
ENDBLK
5
21
100
AcDbEntity
100
AcDbBlockEnd
0
BLOCK
5
1C
100
AcDbEntity
100
AcDbBlockBegin
2
*PAPER_SPACE
0
ENDBLK
5
1D
100
AcDbEntity
100
AcDbBlockEnd
0
ENDSEC
0
SECTION
2
ENTITIES
0
LWPOLYLINE
5
100
100
AcDbEntity
8
0
100
AcDbPolyline
90
10
70
1
43
0.0
10
-13
20
35
10
-10
20
35
10
-10
20
70.000000803192222
10
-63.000000171349349
20
69.999999760110924
10
-113
20
0
10
-63
20
0
10
-63
20
35
10
-60
20
35
10
-60
20
0
10
-13
20
0
0
LWPOLYLINE
5
101
100
AcDbEntity
8
0
100
AcDbPolyline
90
4
70
1
43
0.0
10
-18
20
62.000000000000014
10
-55
20
62.000000000000014
10
-55
20
52.000000000000014
10
-18
20
52.000000000000014
0
LWPOLYLINE
5
102
100
AcDbEntity
8
0
100
AcDbPolyline
90
4
70
1
43
0.0
10
-31
20
70.000000606384432
10
-23.000000000000007
20
70.000000547342111
10
-23
20
67.000000606384432
10
-31
20
67.000000606384432
0
LWPOLYLINE
5
103
100
AcDbEntity
8
0
100
AcDbPolyline
90
4
70
1
43
0.0
10
-50
20
70.000000232449636
10
-42.000000000000021
20
70.000000173407301
10
-42
20
67.000000232449636
10
-50
20
67.000000232449636
0
LINE
5
104
100
AcDbEntity
8
0
100
AcDbLine
10
-55
20
57.000000000000014
30
0
11
-18
21
57.000000000000014
31
0
0
LINE
5
105
100
AcDbEntity
8
0
100
AcDbLine
10
-50
20
46.999999767550385
30
0
11
-42
21
46.999999767550385
31
0
0
LINE
5
106
100
AcDbEntity
8
0
100
AcDbLine
10
-31
20
43.999999393615582
30
0
11
-31
21
46.999999393615582
31
0
0
LINE
5
107
100
AcDbEntity
8
0
100
AcDbLine
10
-50
20
43.999999767550392
30
0
11
-50
21
46.999999767550385
31
0
0
LINE
5
108
100
AcDbEntity
8
0
100
AcDbLine
10
-23
20
46.999999393615582
30
0
11
-23.000000000000007
21
43.99999945265791
31
0
0
LINE
5
109
100
AcDbEntity
8
0
100
AcDbLine
10
-31
20
46.999999393615582
30
0
11
-23
21
46.999999393615582
31
0
0
LINE
5
110
100
AcDbEntity
8
0
100
AcDbLine
10
-42
20
46.999999767550385
30
0
11
-42.000000000000021
21
43.999999826592713
31
0
0
LINE
5
111
100
AcDbEntity
8
0
100
AcDbLine
10
-42.000000000000021
20
43.999999826592713
30
0
11
-50
21
43.999999767550392
31
0
0
LINE
5
112
100
AcDbEntity
8
0
100
AcDbLine
10
-23.000000000000007
20
43.99999945265791
30
0
11
-31
21
43.999999393615582
31
0
0
LINE
5
113
100
AcDbEntity
8
0
100
AcDbLine
10
-42
20
46.999999767550385
30
0
11
-31
21
46.999999393615582
31
0
0
CIRCLE
5
114
100
AcDbEntity
8
0
100
AcDbCircle
10
-36.5
20
46.999999580582987
30
0
40
3.9999999999999982
0
LWPOLYLINE
5
115
100
AcDbEntity
8
0
100
AcDbPolyline
90
4
70
1
43
0.0
10
-40
20
3.8576372640254233e-16
10
-30
20
0
10
-30
20
-3.0000000000000004
10
-40
20
-3
0
LWPOLYLINE
5
116
100
AcDbEntity
8
0
100
AcDbPolyline
90
4
70
1
43
0.0
10
-83
20
0
10
-93
20
0
10
-93
20
-3.0000000000000004
10
-83
20
-3.0000000000000004
0
LWPOLYLINE
5
117
100
AcDbEntity
8
0
100
AcDbPolyline
90
4
70
1
43
0.0
10
-29.000000000000004
20
6.0000000000000009
10
-44
20
6.0000000000000009
10
-44
20
20.999999999999996
10
-29.000000000000004
20
20.999999999999996
0
ENDSEC
0
SECTION
2
OBJECTS
0
DICTIONARY
5
C
100
AcDbDictionary
3
ACAD_GROUP
350
D
3
ACAD_MLINESTYLE
350
17
0
DICTIONARY
5
D
100
AcDbDictionary
0
DICTIONARY
5
1A
330
C
100
AcDbDictionary
0
DICTIONARY
5
17
100
AcDbDictionary
0
ENDSEC
0
EOF
